<svg preserveAspectRatio="none" width="100%" height="100%" overflow="visible" style="display: block;" viewBox="0 0 18 18" fill="none" xmlns="http://www.w3.org/2000/svg">
<path id="Subtract" d="M15 0C16.6569 1.93277e-07 18 1.34315 18 3V15C18 16.6569 16.6569 18 15 18H3C1.34315 18 4.832e-08 16.6569 0 15V3C1.9328e-07 1.34315 1.34315 4.83192e-08 3 0H15ZM7.5 3C6.11929 3 5 4.11929 5 5.5C5 6.88071 6.11929 8 7.5 8H8.5V9H5C4.17157 9 3.5 9.67157 3.5 10.5V11.0654C2.63768 11.2877 2 12.0683 2 13C2 14.1046 2.89543 15 4 15C5.10457 15 6 14.1046 6 13C6 12.0683 5.36232 11.2877 4.5 11.0654V10.5C4.5 10.2239 4.72386 10 5 10H8.5V11.0654C7.63768 11.2877 7 12.0683 7 13C7 14.1046 7.89543 15 9 15C10.1046 15 11 14.1046 11 13C11 12.0683 10.3623 11.2877 9.5 11.0654V10H13C13.2761 10 13.5 10.2239 13.5 10.5V11.0654C12.6377 11.2877 12 12.0683 12 13C12 14.1046 12.8954 15 14 15C15.1046 15 16 14.1046 16 13C16 12.0683 15.3623 11.2877 14.5 11.0654V10.5C14.5 9.67157 13.8284 9 13 9H9.5V8H10.5C11.8807 8 13 6.88071 13 5.5C13 4.11929 11.8807 3 10.5 3H7.5ZM4 12C4.55228 12 5 12.4477 5 13C5 13.5523 4.55228 14 4 14C3.44772 14 3 13.5523 3 13C3 12.4477 3.44772 12 4 12ZM9 12C9.55228 12 10 12.4477 10 13C10 13.5523 9.55228 14 9 14C8.44772 14 8 13.5523 8 13C8 12.4477 8.44772 12 9 12ZM14 12C14.5523 12 15 12.4477 15 13C15 13.5523 14.5523 14 14 14C13.4477 14 13 13.5523 13 13C13 12.4477 13.4477 12 14 12ZM10.5 4C11.3284 4 12 4.67157 12 5.5C12 6.32843 11.3284 7 10.5 7H7.5C6.67157 7 6 6.32843 6 5.5C6 4.67157 6.67157 4 7.5 4H10.5Z" fill="var(--fill-0, #0A4EE4)"/>
</svg>
