<svg preserveAspectRatio="none" width="100%" height="100%" overflow="visible" style="display: block;" viewBox="0 0 20 18" fill="none" xmlns="http://www.w3.org/2000/svg">
<path id="Subtract" d="M6.90918 6.67871C7.05519 7.0065 7.23791 7.35212 7.47168 7.6709C7.99705 8.38728 8.79985 9 10 9C11.1925 9 12.0354 8.39497 12.584 7.67969C12.7974 7.40128 12.9685 7.10161 13.1045 6.80762C13.3135 7.12166 13.5703 7.44249 13.8809 7.7373C14.6131 8.43249 15.6479 9 17 9C18.3579 9 19.3232 8.42742 19.9619 7.70703C19.9755 7.69175 19.9867 7.67458 20 7.65918V14C20 16.2091 18.2091 18 16 18H13V14C13 12.3431 11.6569 11 10 11C8.34315 11 7 12.3431 7 14V18H4C1.79086 18 1.66487e-06 16.2091 0 14V7.65918C0.0132534 7.67458 0.0245368 7.69175 0.0380859 7.70703C0.67684 8.42742 1.64215 9 3 9C5.03045 9 6.22597 7.73367 6.90918 6.67871ZM10 12C11.1046 12 12 12.8954 12 14V18H8V14C8 12.8954 8.89543 12 10 12ZM4.07715 8.9541C3.89431 8.98375 3.70682 8.99902 3.51562 8.99902L3.5166 9C3.70748 8.99999 3.89462 8.98366 4.07715 8.9541ZM15.3652 0C17.0348 7.89901e-05 18.5285 1.03739 19.1123 2.60156L19.6611 4.07227C19.8522 4.50626 19.9689 4.9802 19.9941 5.47852C19.9118 5.90089 19.6737 6.52421 19.2139 7.04297C18.7443 7.57257 18.0421 8 17 8C15.9522 8 15.1537 7.56742 14.5693 7.0127C13.9764 6.44982 13.6181 5.77217 13.4746 5.3418C13.402 5.12387 13.1899 4.98399 12.9609 5.00195C12.7604 5.01769 12.5915 5.1508 12.5273 5.33594L12.5068 5.41797C12.434 5.85487 12.2101 6.52341 11.791 7.07031C11.3812 7.60483 10.8072 8 10 8C9.2002 8 8.66961 7.61268 8.27832 7.0791C7.87293 6.52626 7.64383 5.84947 7.47461 5.3418C7.41066 5.14994 7.23688 5.01531 7.03516 5.00098C6.85872 4.98855 6.69056 5.07017 6.59082 5.21191L6.55273 5.27637C6.04638 6.28908 5.06921 8 3 8C1.95787 8 1.25571 7.57257 0.786133 7.04297C0.326267 6.52413 0.0872074 5.9009 0.00488281 5.47852C0.0298576 4.98286 0.145723 4.51117 0.334961 4.0791L0.885742 2.60254C1.46928 1.03779 2.96377 2.6283e-05 4.63379 0H15.3652Z" fill="var(--fill-0, #0A4EE4)"/>
</svg>
