<svg preserveAspectRatio="none" width="100%" height="100%" overflow="visible" style="display: block;" viewBox="0 0 12.3233 5.42387" fill="none" xmlns="http://www.w3.org/2000/svg">
<path id="Subtract" d="M9.73443 0.0117626C10.834 -0.107174 11.8216 0.689368 11.9385 1.78911L12.3233 5.41118C11.9129 5.17593 11.4448 5.03097 10.9503 5.0059C10.899 5.0033 10.8469 5.002 10.795 5.002H1.79498C1.23584 5.00204 0.713789 5.15748 0.265683 5.42387L0.0117767 3.07622C-0.107069 1.97806 0.687057 0.99096 1.78521 0.872114L3.67193 0.668013L3.78521 1.72075C3.90108 2.79133 4.81025 3.58392 5.86432 3.57719L6.07721 3.56547C7.14755 3.44941 7.94034 2.54027 7.93365 1.48637L7.92193 1.27348L7.80768 0.220747L9.73443 0.0117626ZM6.92779 1.3809C6.9919 1.97376 6.56257 2.50694 5.96978 2.57133C5.37676 2.63549 4.84354 2.20635 4.77936 1.61333L4.66607 0.560591L6.81353 0.328169L6.92779 1.3809Z" fill="url(#paint0_linear_0_179)"/>
<defs>
<linearGradient id="paint0_linear_0_179" x1="6.16165" y1="3.48453e-10" x2="6.16165" y2="5.42387" gradientUnits="userSpaceOnUse">
<stop stop-color="white"/>
<stop offset="1" stop-color="white" stop-opacity="0"/>
</linearGradient>
</defs>
</svg>
