<svg preserveAspectRatio="none" width="100%" height="100%" overflow="visible" style="display: block;" viewBox="0 0 22 16" fill="none" xmlns="http://www.w3.org/2000/svg">
<path id="Subtract" d="M14.3193 0C17.0808 6.44275e-06 19.3193 2.23858 19.3193 5C19.3193 5.50901 19.2429 6.00016 19.1016 6.46289C20.8128 7.25687 22 8.98939 22 11C22 13.7614 19.7614 16 17 16H5C2.23858 16 0 13.7614 0 11C0 8.93558 1.25076 7.16253 3.03613 6.39941C3.29458 4.48005 4.93856 3.00007 6.92871 3C7.88373 3 8.75858 3.34162 9.43945 3.9082C9.93759 1.67192 11.933 0 14.3193 0ZM16.0977 6.50879C15.9395 6.47746 13.6226 6.37742 13.5 6.5C13.2239 6.5 13 6.72386 13 7C13 7.27614 13.2239 7.5 13.5 7.5H14.793L10.9531 11.3389L7.2998 8.59961C7.12564 8.46919 6.89061 8.4683 6.7168 8.58789L6.64648 8.64648L5.14648 10.1465C4.95122 10.3417 4.95122 10.6583 5.14648 10.8535C5.34175 11.0487 5.65827 11.0488 5.85352 10.8535L7.0459 9.66016L10.7002 12.4004C10.8992 12.5494 11.1777 12.5294 11.3535 12.3535L15.5 8.20703V9.5C15.5 9.77614 15.7239 10 16 10C16.2761 9.99998 16.5 9.77613 16.5 9.5V7C16.5 6.96696 16.4967 6.93389 16.4902 6.90137C16.48 6.85024 16.4601 6.80299 16.4355 6.75879C16.4134 6.71891 16.3874 6.68034 16.3535 6.64648C16.2883 6.58129 16.2092 6.53924 16.126 6.51758C16.1165 6.5151 16.1074 6.51071 16.0977 6.50879Z" fill="var(--fill-0, white)"/>
</svg>
