<svg preserveAspectRatio="none" width="100%" height="100%" overflow="visible" style="display: block;" viewBox="0 0 20 20" fill="none" xmlns="http://www.w3.org/2000/svg">
<path id="Subtract" d="M7.90918 0C8.79837 0 9.5957 0.529495 9.94531 1.33496L10.0723 1.66504C10.422 2.47052 11.2202 3 12.1094 3H17C18.6568 3 20 4.34316 20 6V16C19.9999 18.2091 18.2091 20 16 20H4C1.7909 20 6.92679e-05 18.2091 0 16V4C0 1.79086 1.79086 1.16901e-07 4 0H7.90918ZM9.18652 14C8.53128 14.0001 8.00012 14.5313 8 15.1865C8 15.8419 8.5312 16.3729 9.18652 16.373C9.84194 16.373 10.373 15.8419 10.373 15.1865C10.3729 14.5312 9.84187 14 9.18652 14ZM13.8125 14C13.1573 14.0001 12.6261 14.5313 12.626 15.1865C12.626 15.8419 13.1572 16.3729 13.8125 16.373C14.4679 16.373 14.999 15.8419 14.999 15.1865C14.9989 14.5312 14.4678 14 13.8125 14ZM4.5 5.98633C4.22386 5.98633 4 6.21019 4 6.48633C4.00013 6.76236 4.22394 6.98633 4.5 6.98633H5.49609C5.69162 6.98633 5.8617 7.12042 5.90723 7.31055L6.98828 11.8418C7.14124 12.4822 7.71465 12.9346 8.37305 12.9346H14.1055C14.7952 12.9346 15.3853 12.4389 15.5059 11.7598L16.0303 8.80371C16.1847 7.93231 15.5149 7.13281 14.6299 7.13281H6.89258L6.87988 7.0791C6.727 6.43862 6.15457 5.98633 5.49609 5.98633H4.5ZM14.6299 8.13281C14.8929 8.13281 15.0918 8.37096 15.0459 8.62988L14.5215 11.5859C14.4854 11.7874 14.3102 11.9346 14.1055 11.9346H8.37305C8.1775 11.9346 8.00742 11.7995 7.96191 11.6094L7.13184 8.13281H14.6299Z" fill="var(--fill-0, white)"/>
</svg>
