<svg preserveAspectRatio="none" width="100%" height="100%" overflow="visible" style="display: block;" viewBox="0 0 13.9941 14.702" fill="none" xmlns="http://www.w3.org/2000/svg">
<path id="Subtract" d="M9.99414 0C12.2033 0 13.9941 1.79086 13.9941 4V14.2607C13.9941 14.5945 13.6375 14.807 13.3438 14.6484L10.9766 13.3701C10.6779 13.2089 10.3433 13.125 10.0039 13.125H4.00293C1.80091 13.125 0.0129548 11.3446 0.00292969 9.14258L0 8.4502H3.98047C6.18276 8.4502 7.97079 6.67001 7.98047 4.46777L7.99414 1.34082V0H9.99414ZM9.49414 8.2002C9.218 8.2002 8.99414 8.42405 8.99414 8.7002C8.99414 8.97634 9.218 9.2002 9.49414 9.2002H11.4941C11.7703 9.2002 11.9941 8.97634 11.9941 8.7002C11.9941 8.42405 11.7703 8.2002 11.4941 8.2002H9.49414Z" fill="url(#paint0_linear_0_143)"/>
<defs>
<linearGradient id="paint0_linear_0_143" x1="7.16261" y1="-1.67211" x2="6.99498" y2="17.4324" gradientUnits="userSpaceOnUse">
<stop stop-color="#0A4EE4"/>
<stop offset="1" stop-color="#8DD7D7" stop-opacity="0"/>
</linearGradient>
</defs>
</svg>
