<svg preserveAspectRatio="none" width="100%" height="100%" overflow="visible" style="display: block;" viewBox="0 0 17.584 17.585" fill="none" xmlns="http://www.w3.org/2000/svg">
<path id="Subtract" d="M11.8945 0C12.9832 0 13.8226 0.959015 13.6787 2.03809L13.417 4H10.1064C9.01788 4.00007 8.1784 4.95906 8.32227 6.03809L8.69238 8.82031C5.97084 9.69053 4 12.2397 4 15.25C4 16.0707 4.14585 16.8574 4.41406 17.585C1.83735 16.6345 0 14.1568 0 11.25C0 8.23971 1.97084 5.69053 4.69238 4.82031L4.32227 2.03809C4.17843 0.959181 5.01806 0.000274636 6.10645 0H11.8945ZM7 6C4.23858 6 2 8.23858 2 11C2 11.2761 2.22386 11.5 2.5 11.5C2.77614 11.5 3 11.2761 3 11C3 8.79086 4.79086 7 7 7C7.27614 7 7.5 6.77614 7.5 6.5C7.5 6.22386 7.27614 6 7 6ZM17.3643 8.38965C17.4447 8.56129 17.5179 8.73686 17.584 8.91602C17.4927 8.88237 17.4007 8.85008 17.3076 8.82031L17.3643 8.38965Z" fill="url(#paint0_linear_0_190)"/>
<defs>
<linearGradient id="paint0_linear_0_190" x1="9" y1="-2" x2="9" y2="16.5" gradientUnits="userSpaceOnUse">
<stop stop-color="#0A4EE4"/>
<stop offset="1" stop-color="#8DD7D7" stop-opacity="0"/>
</linearGradient>
</defs>
</svg>
