<svg preserveAspectRatio="none" width="100%" height="100%" overflow="visible" style="display: block;" viewBox="0 0 23 17" fill="none" xmlns="http://www.w3.org/2000/svg">
<path id="Subtract" d="M8.2998 0C8.68651 0 9 0.313488 9 0.700195L9.0127 0.956055C9.14091 2.21655 10.2058 3.2002 11.5 3.2002C12.7942 3.2002 13.8591 2.21655 13.9873 0.956055L14 0.700195C14 0.313488 14.3135 0 14.7002 0H19.5C21.433 0 23 1.567 23 3.5V13.5C23 15.433 21.433 17 19.5 17H3.5C1.567 17 0 15.433 0 13.5V3.5C0 1.567 1.567 5.96046e-08 3.5 0H8.2998ZM11.4688 5.5C11.1926 5.5 10.9688 5.72386 10.9688 6V7H10.8125C9.81148 7 9 7.81148 9 8.8125C9 9.81352 9.81148 10.625 10.8125 10.625H11.6875C12.1362 10.625 12.5 10.9888 12.5 11.4375C12.5 11.8862 12.1362 12.25 11.6875 12.25H10.375C10.2275 12.25 10.0858 12.1912 9.98145 12.0869L9.85352 11.959C9.65825 11.7637 9.34175 11.7637 9.14648 11.959C8.95122 12.1542 8.95122 12.4708 9.14648 12.666L9.27441 12.7939C9.56626 13.0858 9.96227 13.25 10.375 13.25H11V13.9609C11.0001 14.237 11.2239 14.4609 11.5 14.4609C11.7761 14.4609 11.9999 14.237 12 13.9609V13.2207C12.8519 13.0724 13.5 12.3318 13.5 11.4375C13.5 10.4365 12.6885 9.625 11.6875 9.625H10.8125C10.3638 9.625 10 9.26123 10 8.8125C10 8.36377 10.3638 8 10.8125 8H11.9434C12.2069 8 12.4601 8.10466 12.6465 8.29102C12.8417 8.48628 13.1583 8.48628 13.3535 8.29102C13.5488 8.09575 13.5488 7.77925 13.3535 7.58398C12.9854 7.21585 12.4877 7.00734 11.9678 7.00098L11.9688 7V6C11.9687 5.72386 11.7449 5.5 11.4688 5.5Z" fill="var(--fill-0, #0A4EE4)"/>
</svg>
