<svg preserveAspectRatio="none" width="100%" height="100%" overflow="visible" style="display: block;" viewBox="0 0 18 18" fill="none" xmlns="http://www.w3.org/2000/svg">
<path id="Union" d="M15.1543 0.00390625C16.7394 0.0842146 18 1.39489 18 3V15L17.9961 15.1543C17.9184 16.6883 16.6883 17.9184 15.1543 17.9961L15 18H3C1.39489 18 0.0842145 16.7394 0.00390625 15.1543L0 15V3C1.9328e-07 1.34315 1.34315 4.83192e-08 3 0H15L15.1543 0.00390625ZM3 1C1.89543 1 1 1.89543 1 3V15C1 16.1046 1.89543 17 3 17H15C16.1046 17 17 16.1046 17 15V3C17 1.89543 16.1046 1 15 1H3ZM10.5 3C11.8807 3 13 4.11929 13 5.5C13 6.88071 11.8807 8 10.5 8H9.5V9H13C13.8284 9 14.5 9.67157 14.5 10.5V11.0654C15.3623 11.2877 16 12.0683 16 13C16 14.1046 15.1046 15 14 15C12.8954 15 12 14.1046 12 13C12 12.0683 12.6377 11.2877 13.5 11.0654V10.5C13.5 10.2239 13.2761 10 13 10H9.5V11.0654C10.3623 11.2877 11 12.0683 11 13C11 14.1046 10.1046 15 9 15C7.89543 15 7 14.1046 7 13C7 12.0683 7.63768 11.2877 8.5 11.0654V10H5C4.72386 10 4.5 10.2239 4.5 10.5V11.0654C5.36232 11.2877 6 12.0683 6 13C6 14.1046 5.10457 15 4 15C2.89543 15 2 14.1046 2 13C2 12.0683 2.63768 11.2877 3.5 11.0654V10.5C3.5 9.67157 4.17157 9 5 9H8.5V8H7.5C6.11929 8 5 6.88071 5 5.5C5 4.11929 6.11929 3 7.5 3H10.5ZM4 12C3.44772 12 3 12.4477 3 13C3 13.5523 3.44772 14 4 14C4.55228 14 5 13.5523 5 13C5 12.4477 4.55228 12 4 12ZM9 12C8.44772 12 8 12.4477 8 13C8 13.5523 8.44772 14 9 14C9.55228 14 10 13.5523 10 13C10 12.4477 9.55228 12 9 12ZM14 12C13.4477 12 13 12.4477 13 13C13 13.5523 13.4477 14 14 14C14.5523 14 15 13.5523 15 13C15 12.4477 14.5523 12 14 12ZM7.5 4C6.67157 4 6 4.67157 6 5.5C6 6.32843 6.67157 7 7.5 7H10.5C11.3284 7 12 6.32843 12 5.5C12 4.67157 11.3284 4 10.5 4H7.5Z" fill="var(--fill-0, white)"/>
</svg>
