<svg preserveAspectRatio="none" width="100%" height="100%" overflow="visible" style="display: block;" viewBox="0 0 22 17" fill="none" xmlns="http://www.w3.org/2000/svg">
<path id="Union" d="M12.1543 0.00390625C13.6883 0.081625 14.9184 1.31166 14.9961 2.8457L15 3H17.4492L17.6309 3.00586C18.5345 3.06047 19.3691 3.52096 19.8965 4.26465L21.4473 6.45117L21.5742 6.64551C21.8522 7.1099 22 7.64241 22 8.18652V12C22 12.1334 21.9859 12.2636 21.9609 12.3896C21.9583 12.4031 21.9551 12.4164 21.9521 12.4297C21.9411 12.4803 21.9279 12.53 21.9131 12.5791C21.9061 12.6022 21.8974 12.6247 21.8896 12.6475C21.8768 12.6849 21.8646 12.7224 21.8496 12.7588C21.8406 12.7807 21.83 12.8018 21.8203 12.8232C21.8043 12.8585 21.7884 12.8936 21.7705 12.9277C21.7577 12.9522 21.7443 12.9762 21.7305 13C21.7135 13.0293 21.6952 13.0576 21.6768 13.0859C21.6615 13.1094 21.646 13.1325 21.6299 13.1553C21.6087 13.1851 21.5872 13.2146 21.5645 13.2432C21.5483 13.2634 21.5315 13.2831 21.5146 13.3027C21.4906 13.3307 21.466 13.3582 21.4404 13.3848C21.4235 13.4024 21.4062 13.4195 21.3887 13.4365C21.3618 13.4625 21.334 13.4873 21.3057 13.5117C21.2854 13.5293 21.2651 13.5467 21.2441 13.5635C21.2175 13.5847 21.1898 13.6042 21.1621 13.624C21.1391 13.6405 21.1165 13.6573 21.0928 13.6729C21.065 13.691 21.0365 13.7078 21.0078 13.7246C20.9819 13.7398 20.9563 13.7555 20.9297 13.7695C20.9016 13.7843 20.8726 13.7971 20.8438 13.8105C20.815 13.824 20.7863 13.8375 20.7568 13.8496C20.7305 13.8604 20.7037 13.8702 20.6768 13.8799C20.6448 13.8914 20.6128 13.9032 20.5801 13.9131C20.5336 13.9271 20.4863 13.9385 20.4385 13.9492C20.4257 13.9521 20.4133 13.9564 20.4004 13.959C20.336 13.9721 20.2706 13.9825 20.2041 13.9893L20 14H18.9502C18.9343 13.9216 18.9139 13.8449 18.8906 13.7695C18.9612 14.0007 19 14.2458 19 14.5C19 15.8807 17.8807 17 16.5 17C15.1193 17 14 15.8807 14 14.5C14 14.3288 14.017 14.1615 14.0498 14H7.9502C7.98298 14.1615 8 14.3288 8 14.5C8 15.8807 6.88071 17 5.5 17C4.11929 17 3 15.8807 3 14.5C3 14.3288 3.01702 14.1615 3.0498 14H3C1.34315 14 8.65705e-08 12.6569 0 11V3L0.00390625 2.8457C0.0842148 1.26056 1.3949 8.07879e-08 3 0H12L12.1543 0.00390625ZM5.5 13C4.67157 13 4 13.6716 4 14.5C4 15.3284 4.67157 16 5.5 16C6.32843 16 7 15.3284 7 14.5C7 13.6716 6.32843 13 5.5 13ZM16.5 13C15.6716 13 15 13.6716 15 14.5C15 15.3284 15.6716 16 16.5 16C17.3284 16 18 15.3284 18 14.5C18 13.6716 17.3284 13 16.5 13ZM3.10938 13.7695C3.08769 13.8398 3.06902 13.9114 3.05371 13.9844C3.069 13.9115 3.08789 13.8399 3.10938 13.7695ZM14.1094 13.7695C14.0877 13.8398 14.069 13.9114 14.0537 13.9844C14.069 13.9115 14.0879 13.8399 14.1094 13.7695ZM7.94629 13.9844C7.93098 13.9114 7.91231 13.8398 7.89062 13.7695C7.91211 13.8399 7.931 13.9115 7.94629 13.9844ZM3.18066 13.5693C3.15826 13.6244 3.13758 13.6803 3.11914 13.7373C3.1374 13.6803 3.1585 13.6245 3.18066 13.5693ZM7.87988 13.7373C7.86143 13.6803 7.84078 13.6244 7.81836 13.5693C7.84054 13.6245 7.86161 13.6802 7.87988 13.7373ZM14.1807 13.5693C14.1583 13.6244 14.1376 13.6803 14.1191 13.7373C14.1374 13.6803 14.1585 13.6245 14.1807 13.5693ZM18.8799 13.7373C18.8614 13.6803 18.8408 13.6244 18.8184 13.5693C18.8405 13.6245 18.8616 13.6802 18.8799 13.7373ZM7.7832 13.4863C7.77044 13.458 7.75694 13.4301 7.74316 13.4023C7.75681 13.4302 7.77057 13.4579 7.7832 13.4863ZM18.7832 13.4863C18.7704 13.458 18.7569 13.4301 18.7432 13.4023C18.7568 13.4302 18.7706 13.4579 18.7832 13.4863ZM7.6582 13.2432C7.6522 13.233 7.64579 13.223 7.63965 13.2129C7.64576 13.223 7.65223 13.2329 7.6582 13.2432ZM18.6582 13.2432C18.6522 13.233 18.6458 13.223 18.6396 13.2129C18.6458 13.223 18.6522 13.2329 18.6582 13.2432ZM3 1C1.89543 1 1 1.89543 1 3V11C1 12.1046 1.89543 13 3 13H3.50391C3.9601 12.3939 4.68297 12 5.5 12C6.31703 12 7.0399 12.3939 7.49609 13H14.5039C14.9601 12.3939 15.683 12 16.5 12C17.317 12 18.0399 12.3939 18.4961 13H20C20.5523 13 21 12.5523 21 12V9H14V3C14 1.89543 13.1046 1 12 1H3ZM10.6465 3.98633C10.8417 3.79123 11.1583 3.79117 11.3535 3.98633C11.5487 4.18154 11.5486 4.4981 11.3535 4.69336L6.85352 9.19336C6.75978 9.28703 6.63251 9.33982 6.5 9.33984C6.36745 9.3398 6.24022 9.28709 6.14648 9.19336L3.80664 6.85352C3.61147 6.65829 3.61152 6.34174 3.80664 6.14648C4.0019 5.95139 4.31846 5.95133 4.51367 6.14648L6.5 8.13281L10.6465 3.98633ZM15 8H20.9902C20.9577 7.65163 20.8354 7.31643 20.6318 7.0293L19.0811 4.84277C18.706 4.31406 18.0975 4 17.4492 4H15V8Z" fill="var(--fill-0, #0A4EE4)"/>
</svg>
