<svg preserveAspectRatio="none" width="100%" height="100%" overflow="visible" style="display: block;" viewBox="0 0 20 20" fill="none" xmlns="http://www.w3.org/2000/svg">
<path id="Union" d="M7.90918 0C8.79837 0 9.5957 0.529495 9.94531 1.33496L10.0723 1.66504C10.422 2.47052 11.2202 3 12.1094 3H17C18.6568 3 20 4.34316 20 6V16C19.9999 18.2091 18.2091 20 16 20H4C1.7909 20 6.92679e-05 18.2091 0 16V4C0 1.79086 1.79086 1.16901e-07 4 0H7.90918ZM4 1C2.34315 1 1 2.34315 1 4V16L1.00391 16.1543C1.08428 17.7394 2.39498 19 4 19H16C17.6568 19 18.9999 17.6568 19 16V6C19 4.89543 18.1046 4 17 4H12.1094C10.7339 4 9.50875 3.12611 9.0625 1.82422C8.8934 1.33112 8.43021 1 7.90918 1H4ZM9.18652 14C9.84187 14 10.3729 14.5312 10.373 15.1865C10.373 15.8419 9.84194 16.373 9.18652 16.373C8.5312 16.3729 8 15.8419 8 15.1865C8.00012 14.5313 8.53128 14.0001 9.18652 14ZM13.8135 14C14.4688 14 14.9999 14.5312 15 15.1865C15 15.8419 14.4689 16.373 13.8135 16.373C13.1582 16.3729 12.627 15.8419 12.627 15.1865C12.6271 14.5313 13.1582 14.0001 13.8135 14ZM5.49609 5.98633C6.15457 5.98633 6.727 6.43862 6.87988 7.0791L6.89258 7.13281H14.6299C15.5149 7.13281 16.1847 7.93231 16.0303 8.80371L15.5059 11.7598C15.3853 12.4389 14.7952 12.9346 14.1055 12.9346H8.37305C7.71465 12.9346 7.14124 12.4822 6.98828 11.8418L5.90723 7.31055C5.8617 7.12042 5.69162 6.98633 5.49609 6.98633H4.5C4.22394 6.98633 4.00013 6.76236 4 6.48633C4 6.21019 4.22386 5.98633 4.5 5.98633H5.49609ZM7.96191 11.6094C8.00742 11.7995 8.1775 11.9346 8.37305 11.9346H14.1055C14.3102 11.9346 14.4854 11.7874 14.5215 11.5859L15.0459 8.62988C15.0918 8.37096 14.8929 8.13281 14.6299 8.13281H7.13184L7.96191 11.6094Z" fill="var(--fill-0, #0A4EE4)"/>
</svg>
