<svg preserveAspectRatio="none" width="100%" height="100%" overflow="visible" style="display: block;" viewBox="0 0 22 16" fill="none" xmlns="http://www.w3.org/2000/svg">
<path id="Union" d="M14.3193 0C17.0808 6.44275e-06 19.3193 2.23858 19.3193 5C19.3193 5.50901 19.2429 6.00016 19.1016 6.46289C20.8128 7.25687 22 8.98939 22 11C22 13.7614 19.7614 16 17 16H5C2.23858 16 0 13.7614 0 11C0 8.93558 1.25076 7.16253 3.03613 6.39941C3.29458 4.48005 4.93856 3.00007 6.92871 3C7.88373 3 8.75858 3.34162 9.43945 3.9082C9.93759 1.67192 11.933 0 14.3193 0ZM14.3193 1C12.4116 1 10.8145 2.33698 10.416 4.12598L10.0596 5.72461L8.7998 4.67676C8.29129 4.25363 7.6407 4 6.92871 4C5.44616 4.00007 4.2199 5.10321 4.02734 6.5332L3.95117 7.0957L3.42871 7.31934C1.99897 7.93069 1 9.34991 1 11C1 13.2091 2.79086 15 5 15H17C19.2091 15 21 13.2091 21 11C21 9.3934 20.0522 8.00651 18.6807 7.37012L17.8906 7.00391L18.1455 6.1709C18.2584 5.80135 18.3193 5.40842 18.3193 5C18.3193 2.85997 16.6388 1.11212 14.5254 1.00488L14.3193 1ZM16 6.5C16.0327 6.5 16.0655 6.50242 16.0977 6.50879C16.1074 6.51071 16.1165 6.5151 16.126 6.51758C16.2092 6.53924 16.2883 6.58128 16.3535 6.64648C16.3874 6.68034 16.4134 6.71891 16.4355 6.75879C16.4442 6.7743 16.454 6.7892 16.4609 6.80566C16.4736 6.83555 16.4836 6.86689 16.4902 6.89941V6.90137C16.4922 6.911 16.4918 6.92096 16.4932 6.93066C16.4963 6.95342 16.5 6.97638 16.5 7V9.5C16.5 9.77614 16.2761 10 16 10C15.7239 10 15.5 9.77614 15.5 9.5V8.20703L11.3535 12.3535C11.1777 12.5294 10.8992 12.5494 10.7002 12.4004L7.0459 9.66016L5.85352 10.8535C5.65827 11.0488 5.34175 11.0487 5.14648 10.8535C4.95122 10.6583 4.95122 10.3417 5.14648 10.1465L6.64648 8.64648L6.7168 8.58789C6.89061 8.46829 7.12563 8.46919 7.2998 8.59961L10.9531 11.3389L14.793 7.5H13.5C13.2239 7.5 13 7.27614 13 7C13 6.72386 13.2239 6.5 13.5 6.5H16Z" fill="var(--fill-0, white)"/>
</svg>
