<svg preserveAspectRatio="none" width="100%" height="100%" overflow="visible" style="display: block;" viewBox="0 0 32 32" fill="none" xmlns="http://www.w3.org/2000/svg">
<g id="icon-guidelines-rebrand" opacity="0">
<g id="Rectangle 1995 (Stroke)">
<mask id="path-1-inside-1_0_195" fill="white">
<path fill-rule="evenodd" clip-rule="evenodd" d="M17 0.1H5C3.39837 0.1 2.1 1.39837 2.1 3V19C2.1 20.6016 3.39837 21.9 5 21.9H17C18.6016 21.9 19.9 20.6016 19.9 19V3C19.9 1.39837 18.6016 0.1 17 0.1ZM5 0C3.34315 0 2 1.34315 2 3V19C2 20.6569 3.34315 22 5 22H17C18.6569 22 20 20.6569 20 19V3C20 1.34315 18.6569 0 17 0H5Z"/>
</mask>
<path d="M5 0.1V1.1H17V0.1V-0.9H5V0.1ZM2.1 3H3.1C3.1 1.95066 3.95066 1.1 5 1.1V0.1V-0.9C2.84609 -0.9 1.1 0.846089 1.1 3H2.1ZM2.1 19H3.1V3H2.1H1.1V19H2.1ZM5 21.9V20.9C3.95066 20.9 3.1 20.0493 3.1 19H2.1H1.1C1.1 21.1539 2.84609 22.9 5 22.9V21.9ZM17 21.9V20.9H5V21.9V22.9H17V21.9ZM19.9 19H18.9C18.9 20.0493 18.0493 20.9 17 20.9V21.9V22.9C19.1539 22.9 20.9 21.1539 20.9 19H19.9ZM19.9 3H18.9V19H19.9H20.9V3H19.9ZM17 0.1V1.1C18.0493 1.1 18.9 1.95066 18.9 3H19.9H20.9C20.9 0.84609 19.1539 -0.9 17 -0.9V0.1ZM2 3H3C3 1.89543 3.89543 1 5 1V0V-1C2.79086 -1 1 0.790861 1 3H2ZM2 19H3V3H2H1V19H2ZM5 22V21C3.89543 21 3 20.1046 3 19H2H1C1 21.2091 2.79086 23 5 23V22ZM17 22V21H5V22V23H17V22ZM20 19H19C19 20.1046 18.1046 21 17 21V22V23C19.2091 23 21 21.2091 21 19H20ZM20 3H19V19H20H21V3H20ZM17 0V1C18.1046 1 19 1.89543 19 3H20H21C21 0.790861 19.2091 -1 17 -1V0ZM5 0V1H17V0V-1H5V0Z" fill="var(--stroke-0, white)" fill-opacity="0.5" mask="url(#path-1-inside-1_0_195)"/>
</g>
<g id="Rectangle 1996 (Stroke)">
<mask id="path-3-inside-2_0_195" fill="white">
<path fill-rule="evenodd" clip-rule="evenodd" d="M18 1.1H4C2.39837 1.1 1.1 2.39837 1.1 4V18C1.1 19.6016 2.39837 20.9 4 20.9H18C19.6016 20.9 20.9 19.6016 20.9 18V4C20.9 2.39837 19.6016 1.1 18 1.1ZM4 1C2.34315 1 1 2.34315 1 4V18C1 19.6569 2.34315 21 4 21H18C19.6569 21 21 19.6569 21 18V4C21 2.34315 19.6569 1 18 1H4Z"/>
</mask>
<path d="M4 1.1V2.1H18V1.1V0.1H4V1.1ZM1.1 4H2.1C2.1 2.95066 2.95066 2.1 4 2.1V1.1V0.1C1.84609 0.1 0.1 1.84609 0.1 4H1.1ZM1.1 18H2.1V4H1.1H0.1V18H1.1ZM4 20.9V19.9C2.95066 19.9 2.1 19.0493 2.1 18H1.1H0.1C0.1 20.1539 1.84609 21.9 4 21.9V20.9ZM18 20.9V19.9H4V20.9V21.9H18V20.9ZM20.9 18H19.9C19.9 19.0493 19.0493 19.9 18 19.9V20.9V21.9C20.1539 21.9 21.9 20.1539 21.9 18H20.9ZM20.9 4H19.9V18H20.9H21.9V4H20.9ZM18 1.1V2.1C19.0493 2.1 19.9 2.95066 19.9 4H20.9H21.9C21.9 1.84609 20.1539 0.1 18 0.1V1.1ZM1 4H2C2 2.89543 2.89543 2 4 2V1V0C1.79086 0 0 1.79086 0 4H1ZM1 18H2V4H1H0V18H1ZM4 21V20C2.89543 20 2 19.1046 2 18H1H0C0 20.2091 1.79086 22 4 22V21ZM18 21V20H4V21V22H18V21ZM21 18H20C20 19.1046 19.1046 20 18 20V21V22C20.2091 22 22 20.2091 22 18H21ZM21 4H20V18H21H22V4H21ZM18 1V2C19.1046 2 20 2.89543 20 4H21H22C22 1.79086 20.2091 0 18 0V1ZM4 1V2H18V1V0H4V1Z" fill="var(--stroke-0, white)" fill-opacity="0.5" mask="url(#path-3-inside-2_0_195)"/>
</g>
<g id="Rectangle 1997 (Stroke)">
<mask id="path-5-inside-3_0_195" fill="white">
<path fill-rule="evenodd" clip-rule="evenodd" d="M19 2.1H3C1.39837 2.1 0.1 3.39837 0.1 5V17C0.1 18.6016 1.39837 19.9 3 19.9H19C20.6016 19.9 21.9 18.6016 21.9 17V5C21.9 3.39837 20.6016 2.1 19 2.1ZM3 2C1.34315 2 0 3.34315 0 5V17C0 18.6569 1.34315 20 3 20H19C20.6569 20 22 18.6569 22 17V5C22 3.34315 20.6569 2 19 2H3Z"/>
</mask>
<path d="M3 2.1V3.1H19V2.1V1.1H3V2.1ZM0.1 5H1.1C1.1 3.95066 1.95066 3.1 3 3.1V2.1V1.1C0.846089 1.1 -0.9 2.84609 -0.9 5H0.1ZM0.1 17H1.1V5H0.1H-0.9V17H0.1ZM3 19.9V18.9C1.95066 18.9 1.1 18.0493 1.1 17H0.1H-0.9C-0.9 19.1539 0.846089 20.9 3 20.9V19.9ZM19 19.9V18.9H3V19.9V20.9H19V19.9ZM21.9 17H20.9C20.9 18.0493 20.0493 18.9 19 18.9V19.9V20.9C21.1539 20.9 22.9 19.1539 22.9 17H21.9ZM21.9 5H20.9V17H21.9H22.9V5H21.9ZM19 2.1V3.1C20.0493 3.1 20.9 3.95066 20.9 5H21.9H22.9C22.9 2.84609 21.1539 1.1 19 1.1V2.1ZM0 5H1C1 3.89543 1.89543 3 3 3V2V1C0.790861 1 -1 2.79086 -1 5H0ZM0 17H1V5H0H-1V17H0ZM3 20V19C1.89543 19 1 18.1046 1 17H0H-1C-1 19.2091 0.790861 21 3 21V20ZM19 20V19H3V20V21H19V20ZM22 17H21C21 18.1046 20.1046 19 19 19V20V21C21.2091 21 23 19.2091 23 17H22ZM22 5H21V17H22H23V5H22ZM19 2V3C20.1046 3 21 3.89543 21 5H22H23C23 2.79086 21.2091 1 19 1V2ZM3 2V3H19V2V1H3V2Z" fill="var(--stroke-0, white)" fill-opacity="0.5" mask="url(#path-5-inside-3_0_195)"/>
</g>
<g id="Ellipse 56 (Stroke)">
<mask id="path-7-inside-4_0_195" fill="white">
<path fill-rule="evenodd" clip-rule="evenodd" d="M11 21.9C17.0199 21.9 21.9 17.0199 21.9 11C21.9 4.9801 17.0199 0.1 11 0.1C4.9801 0.1 0.1 4.9801 0.1 11C0.1 17.0199 4.9801 21.9 11 21.9ZM11 22C17.0751 22 22 17.0751 22 11C22 4.92487 17.0751 0 11 0C4.92487 0 0 4.92487 0 11C0 17.0751 4.92487 22 11 22Z"/>
</mask>
<path d="M21.9 11H20.9C20.9 16.4676 16.4676 20.9 11 20.9V21.9V22.9C17.5722 22.9 22.9 17.5722 22.9 11H21.9ZM11 0.1V1.1C16.4676 1.1 20.9 5.53238 20.9 11H21.9H22.9C22.9 4.42781 17.5722 -0.9 11 -0.9V0.1ZM0.1 11H1.1C1.1 5.53238 5.53238 1.1 11 1.1V0.1V-0.9C4.42781 -0.9 -0.9 4.42781 -0.9 11H0.1ZM11 21.9V20.9C5.53238 20.9 1.1 16.4676 1.1 11H0.1H-0.9C-0.9 17.5722 4.42781 22.9 11 22.9V21.9ZM22 11H21C21 16.5228 16.5228 21 11 21V22V23C17.6274 23 23 17.6274 23 11H22ZM11 0V1C16.5228 1 21 5.47715 21 11H22H23C23 4.37258 17.6274 -1 11 -1V0ZM0 11H1C1 5.47715 5.47715 1 11 1V0V-1C4.37258 -1 -1 4.37258 -1 11H0ZM11 22V21C5.47715 21 1 16.5228 1 11H0H-1C-1 17.6274 4.37258 23 11 23V22Z" fill="var(--stroke-0, white)" fill-opacity="0.5" mask="url(#path-7-inside-4_0_195)"/>
</g>
<g id="Ellipse 57 (Stroke)">
<mask id="path-9-inside-5_0_195" fill="white">
<path fill-rule="evenodd" clip-rule="evenodd" d="M11 16.9C14.2585 16.9 16.9 14.2585 16.9 11C16.9 7.74152 14.2585 5.1 11 5.1C7.74152 5.1 5.1 7.74152 5.1 11C5.1 14.2585 7.74152 16.9 11 16.9ZM11 17C14.3137 17 17 14.3137 17 11C17 7.68629 14.3137 5 11 5C7.68629 5 5 7.68629 5 11C5 14.3137 7.68629 17 11 17Z"/>
</mask>
<path d="M16.9 11H15.9C15.9 13.7062 13.7062 15.9 11 15.9V16.9V17.9C14.8108 17.9 17.9 14.8108 17.9 11H16.9ZM11 5.1V6.1C13.7062 6.1 15.9 8.2938 15.9 11H16.9H17.9C17.9 7.18924 14.8108 4.1 11 4.1V5.1ZM5.1 11H6.1C6.1 8.2938 8.2938 6.1 11 6.1V5.1V4.1C7.18924 4.1 4.1 7.18924 4.1 11H5.1ZM11 16.9V15.9C8.2938 15.9 6.1 13.7062 6.1 11H5.1H4.1C4.1 14.8108 7.18924 17.9 11 17.9V16.9ZM17 11H16C16 13.7614 13.7614 16 11 16V17V18C14.866 18 18 14.866 18 11H17ZM11 5V6C13.7614 6 16 8.23858 16 11H17H18C18 7.13401 14.866 4 11 4V5ZM5 11H6C6 8.23858 8.23858 6 11 6V5V4C7.13401 4 4 7.13401 4 11H5ZM11 17V16C8.23858 16 6 13.7614 6 11H5H4C4 14.866 7.13401 18 11 18V17Z" fill="var(--stroke-0, white)" fill-opacity="0.5" mask="url(#path-9-inside-5_0_195)"/>
</g>
</g>
</svg>
