<svg preserveAspectRatio="none" width="100%" height="100%" overflow="visible" style="display: block;" viewBox="0 0 19.9974 17.2009" fill="none" xmlns="http://www.w3.org/2000/svg">
<path id="Subtract" d="M15.489 0.0153624C17.1375 -0.150903 18.6088 1.05144 18.7751 2.69993L19.9821 14.6697C20.0818 15.6593 19.6867 16.5831 18.9997 17.2009V7.0056C18.9997 5.3489 17.6564 4.00585 15.9997 4.0056H3.99972C2.34287 4.0056 0.999722 5.34874 0.999722 7.0056V14.3454L0.0153475 4.59153C-0.15083 2.9431 1.05148 1.47166 2.69992 1.3054L15.489 0.0153624ZM14.9294 1.5095L12.2829 1.88743C12.0099 1.92653 11.8204 2.1798 11.8591 2.45286C11.8981 2.72622 12.1512 2.9167 12.4245 2.87767L15.07 2.49974C15.3432 2.46061 15.5336 2.20745 15.4948 1.93431C15.4557 1.66127 15.2025 1.47084 14.9294 1.5095Z" fill="url(#paint0_linear_0_142)"/>
<defs>
<linearGradient id="paint0_linear_0_142" x1="9" y1="-5.99487" x2="9.5" y2="16.5051" gradientUnits="userSpaceOnUse">
<stop stop-color="#0A4EE4"/>
<stop offset="1" stop-color="#8DD7D7" stop-opacity="0"/>
</linearGradient>
</defs>
</svg>
