<svg preserveAspectRatio="none" width="100%" height="100%" overflow="visible" style="display: block;" viewBox="0 0 19.9973 17.1999" fill="none" xmlns="http://www.w3.org/2000/svg">
<path id="Subtract" d="M15.489 0.015343C17.1373 -0.150745 18.6079 1.05055 18.7741 2.69894L19.9821 14.6696C20.0817 15.6591 19.6856 16.5822 18.9987 17.1999V7.0046C18.9987 5.34786 17.6555 4.00469 15.9987 4.0046H3.99874C2.34192 4.0046 0.998803 5.3478 0.998736 7.0046V14.3425L0.0153373 4.59054C-0.150717 2.94219 1.05056 1.47164 2.69893 1.30538L15.489 0.015343ZM14.9284 1.50948L12.2819 1.88741C12.0089 1.92661 11.8193 2.17975 11.8581 2.45284C11.8973 2.72593 12.1504 2.91656 12.4235 2.87765L15.069 2.49972C15.3421 2.4607 15.5324 2.20735 15.4939 1.93429C15.4548 1.66106 15.2016 1.47068 14.9284 1.50948Z" fill="url(#paint0_linear_0_130)"/>
<defs>
<linearGradient id="paint0_linear_0_130" x1="8.99996" y1="-5.99453" x2="9.49991" y2="16.5042" gradientUnits="userSpaceOnUse">
<stop stop-color="#0A4EE4"/>
<stop offset="1" stop-color="#8DD7D7" stop-opacity="0"/>
</linearGradient>
</defs>
</svg>
