<svg preserveAspectRatio="none" width="100%" height="100%" overflow="visible" style="display: block;" viewBox="0 0 12.3243 5.43853" fill="none" xmlns="http://www.w3.org/2000/svg">
<path id="Subtract" d="M9.73444 0.0117763C10.834 -0.107168 11.8216 0.688403 11.9385 1.78814L12.3243 5.42583C11.9139 5.19061 11.4457 5.04562 10.9512 5.02056C10.9 5.01796 10.8478 5.01665 10.796 5.01665H1.79596C1.23683 5.01672 0.714759 5.17212 0.266662 5.43853L0.0117789 3.07525C-0.107038 1.97736 0.6865 0.991369 1.78424 0.872127L3.67096 0.667049L3.78619 1.73541C3.90205 2.80596 4.81127 3.59852 5.8653 3.59185L6.07819 3.58013C7.14853 3.46408 7.94131 2.55492 7.93463 1.50103L7.92291 1.28814L7.8067 0.219784L9.73444 0.0117763ZM6.92877 1.39556C6.99287 1.98842 6.56355 2.5216 5.97076 2.58599C5.37782 2.65008 4.84555 2.22091 4.78131 1.62799L4.6651 0.559627L6.81256 0.327206L6.92877 1.39556Z" fill="url(#paint0_linear_0_137)"/>
<defs>
<linearGradient id="paint0_linear_0_137" x1="5.76735" y1="0.598007" x2="5.76735" y2="6.2549" gradientUnits="userSpaceOnUse">
<stop stop-color="#0A4EE4"/>
<stop offset="1" stop-color="#8DD7D7" stop-opacity="0"/>
</linearGradient>
</defs>
</svg>
