<svg preserveAspectRatio="none" width="100%" height="100%" overflow="visible" style="display: block;" viewBox="0 0 12.3223 5.42579" fill="none" xmlns="http://www.w3.org/2000/svg">
<path id="Subtract" d="M9.73443 0.0117293C10.8339 -0.107022 11.8216 0.689413 11.9385 1.78907L12.3223 5.4131C11.9121 5.17809 11.4445 5.03287 10.9502 5.00782C10.899 5.00522 10.8469 5.00392 10.795 5.00392H1.79498C1.23583 5.00397 0.713791 5.15938 0.26568 5.42579L0.0117735 3.07618C-0.107055 1.97804 0.687064 0.990926 1.78521 0.872081L3.67193 0.667979L3.78521 1.72267C3.90107 2.79325 4.81025 3.58583 5.86431 3.57911L6.0772 3.56739C7.14753 3.45134 7.9403 2.54216 7.93365 1.48829L7.92193 1.2754L7.80767 0.220714L9.73443 0.0117293ZM6.92779 1.38282C6.99185 1.97564 6.56253 2.50787 5.96978 2.57228C5.37677 2.63645 4.84357 2.20825 4.77935 1.61524L4.66607 0.560557L6.81353 0.328136L6.92779 1.38282Z" fill="url(#paint0_linear_0_176)"/>
<defs>
<linearGradient id="paint0_linear_0_176" x1="6.16116" y1="0" x2="6.16116" y2="5.42579" gradientUnits="userSpaceOnUse">
<stop stop-color="white"/>
<stop offset="1" stop-color="white" stop-opacity="0"/>
</linearGradient>
</defs>
</svg>
