<svg preserveAspectRatio="none" width="100%" height="100%" overflow="visible" style="display: block;" viewBox="0 0 22.001 16.627" fill="none" xmlns="http://www.w3.org/2000/svg">
<path id="Subtract" opacity="0.8" d="M19.2627 0C20.775 8.42649e-05 22.001 1.22595 22.001 2.73828V9.34961L22 9.35059V16.2998C22 16.4087 21.9939 16.5164 21.9854 16.623C21.8475 14.7746 20.7049 13.2068 19.1016 12.4629C19.2429 12.0002 19.3193 11.509 19.3193 11C19.3193 8.23858 17.0808 6.00001 14.3193 6C11.933 6 9.93759 7.67192 9.43945 9.9082C8.75858 9.34162 7.88373 9 6.92871 9C4.93856 9.00007 3.29458 10.48 3.03613 12.3994C1.35928 13.1161 0.153991 14.7238 0.0136719 16.627C0.00493258 16.519 3.45416e-06 16.41 0 16.2998V6.2998C0.000131839 4.64306 1.34323 3.2998 3 3.2998H8.68066C9.72396 3.2998 10.652 2.63636 10.9902 1.64941C11.3286 0.662644 12.2566 0 13.2998 0H19.2627ZM16.5 1.5C16.2239 1.5 16 1.72386 16 2C16 2.27614 16.2239 2.5 16.5 2.5H19.5C19.7761 2.5 20 2.27614 20 2C20 1.72386 19.7761 1.5 19.5 1.5H16.5Z" fill="url(#paint0_linear_0_158)"/>
<defs>
<linearGradient id="paint0_linear_0_158" x1="10.2957" y1="1.82826" x2="10.2957" y2="19.1228" gradientUnits="userSpaceOnUse">
<stop stop-color="#0A4EE4"/>
<stop offset="1" stop-color="#8DD7D7" stop-opacity="0"/>
</linearGradient>
</defs>
</svg>
