<svg preserveAspectRatio="none" width="100%" height="100%" overflow="visible" style="display: block;" viewBox="0 0 16 17.7004" fill="none" xmlns="http://www.w3.org/2000/svg">
<path id="Subtract" d="M12 0C14.2091 0 16 1.79086 16 4V8.64062L15.9863 11.7676L15.9805 11.9727C15.8685 14.0114 14.2307 15.6422 12.1914 15.7451L11.9863 15.75H4.57715C4.17884 15.75 3.78693 15.8534 3.44043 16.0498L0.625 17.6455L0.572266 17.6709C0.322066 17.7707 0.0404119 17.6067 0.00390625 17.3398L0 17.2812V4C0 1.79086 1.79086 0 4 0H12ZM8.5 4.02539C8.35352 3.54526 7.67386 3.54529 7.52734 4.02539L6.90625 6.06641C6.85689 6.22857 6.72955 6.35592 6.56738 6.40527L4.52637 7.02637C4.04592 7.17271 4.04599 7.85261 4.52637 7.99902L6.56738 8.62012C6.72955 8.66948 6.85689 8.79682 6.90625 8.95898L7.52734 11C7.67369 11.4805 8.35368 11.4805 8.5 11L9.12109 8.95898C9.17045 8.79682 9.29779 8.66948 9.45996 8.62012L11.501 7.99902C11.9812 7.85254 11.9812 7.17278 11.501 7.02637L9.45996 6.40527C9.29779 6.35592 9.17045 6.22857 9.12109 6.06641L8.5 4.02539Z" fill="var(--fill-0, white)"/>
</svg>
