<svg preserveAspectRatio="none" width="100%" height="100%" overflow="visible" style="display: block;" viewBox="0 0 20 18" fill="none" xmlns="http://www.w3.org/2000/svg">
<path id="Union" d="M15.3652 0C17.035 0 18.5296 1.03715 19.1133 2.60156L19.6641 4.0791C19.8791 4.5699 19.9999 5.11151 20 5.68164V14L19.9951 14.2051C19.8916 16.2505 18.2514 17.8903 16.2061 17.9941L16 18H4L3.79395 17.9941C1.74862 17.8903 0.108355 16.2505 0.00488281 14.2051L0 14V5.68164C5.7712e-05 5.11165 0.12004 4.56982 0.334961 4.0791L0.885742 2.60254C1.46928 1.03778 2.96377 1.83891e-05 4.63379 0H15.3652ZM12.999 6C12.999 7.65685 11.6559 9 9.99902 9C8.34237 8.99977 6.99902 7.65671 6.99902 6V5.5166C6.99902 7.44015 5.44014 8.99994 3.5166 9C2.50511 9 1.62389 8.57877 1 7.92383V14C1.0002 15.6567 2.34327 17 4 17H7V14C7 12.3431 8.34315 11 10 11C11.6569 11 13 12.3431 13 14V17H16C17.6567 17 18.9998 15.6567 19 14V7.92188C18.376 8.57763 17.4947 9 16.4824 9C14.5588 8.9998 12.999 7.44027 12.999 5.5166V6ZM10 12C8.89543 12 8 12.8954 8 14V17H12V14C12 12.8954 11.1046 12 10 12ZM4.63379 1C3.38128 1.00002 2.2609 1.77858 1.82324 2.95215L1.18945 4.64941C0.584688 6.27184 1.78502 8 3.5166 8C4.88753 7.99994 5.99902 6.88819 5.99902 5.5166C5.99902 4.96432 6.44674 4.5166 6.99902 4.5166C7.55131 4.5166 7.99902 4.96432 7.99902 5.5166V6C7.99902 7.10424 8.89447 7.99977 9.99902 8C11.1036 8 11.999 7.10457 11.999 6V5.5166C11.999 4.96432 12.4467 4.5166 12.999 4.5166C13.5513 4.5166 13.999 4.96432 13.999 5.5166C13.999 6.88785 15.1109 7.9998 16.4824 8C18.2145 8 19.415 6.27124 18.8096 4.64844L18.1758 2.95117C17.7379 1.77796 16.6175 1 15.3652 1H4.63379Z" fill="var(--fill-0, white)"/>
</svg>
