<svg preserveAspectRatio="none" width="100%" height="100%" overflow="visible" style="display: block;" viewBox="0 0 16 17.7004" fill="none" xmlns="http://www.w3.org/2000/svg">
<path id="Union" d="M12 0C14.2091 0 16 1.79086 16 4V8.64062L15.9863 11.7676L15.9805 11.9727C15.8685 14.0114 14.2307 15.6422 12.1914 15.7451L11.9863 15.75H4.57715C4.17884 15.75 3.78693 15.8534 3.44043 16.0498L0.625 17.6455L0.572266 17.6709C0.322066 17.7707 0.0404115 17.6067 0.00390625 17.3398L0 17.2812V4C2.57706e-07 1.79086 1.79086 0 4 0H12ZM4 1C2.34315 1 1 2.34315 1 4V16.2832L2.94727 15.1797C3.44415 14.898 4.00598 14.75 4.57715 14.75H11.9863C13.6381 14.75 14.9792 13.4145 14.9863 11.7627L15 8.63574V4C15 2.34315 13.6569 1 12 1H4ZM7.52734 4.02539C7.67386 3.54529 8.35352 3.54526 8.5 4.02539L9.12109 6.06641C9.17045 6.22857 9.29779 6.35592 9.45996 6.40527L11.501 7.02637C11.9812 7.17278 11.9812 7.85254 11.501 7.99902L9.45996 8.62012C9.29779 8.66948 9.17045 8.79682 9.12109 8.95898L8.5 11C8.35368 11.4805 7.67369 11.4805 7.52734 11L6.90625 8.95898C6.85689 8.79682 6.72955 8.66948 6.56738 8.62012L4.52637 7.99902C4.04599 7.85261 4.04592 7.17271 4.52637 7.02637L6.56738 6.40527C6.72955 6.35592 6.85689 6.22857 6.90625 6.06641L7.52734 4.02539Z" fill="var(--fill-0, #0A4EE4)"/>
</svg>
