<svg preserveAspectRatio="none" width="100%" height="100%" overflow="visible" style="display: block;" viewBox="0 0 18 18" fill="none" xmlns="http://www.w3.org/2000/svg">
<path id="Union" d="M11.8955 0C12.9838 0.000420668 13.8235 0.959273 13.6797 2.03809L13.3086 4.82031C16.0297 5.6908 18 8.24003 18 11.25C18 14.9779 14.9779 18 11.25 18H6.75C3.02208 18 0 14.9779 0 11.25C0 8.23928 1.97121 5.6892 4.69336 4.81934L4.32324 2.03809C4.17937 0.959015 5.0188 0 6.10742 0H11.8955ZM8.98438 7.17676C8.70823 7.17676 8.48438 7.40062 8.48438 7.67676V8.5H8.38184C7.45331 8.5 6.7002 9.25311 6.7002 10.1816C6.70041 11.11 7.45344 11.8623 8.38184 11.8623H9.34766C9.72373 11.8625 10.0283 12.1678 10.0283 12.5439C10.0282 12.92 9.72367 13.2244 9.34766 13.2246H7.9873C7.86794 13.2245 7.75336 13.1772 7.66895 13.0928L7.55371 12.9775C7.35847 12.7824 7.04192 12.7824 6.84668 12.9775C6.65145 13.1728 6.65151 13.4893 6.84668 13.6846L6.96191 13.7998C7.23386 14.0718 7.60272 14.2245 7.9873 14.2246H8.5V14.8506C8.50034 15.1264 8.72407 15.3506 9 15.3506C9.27593 15.3506 9.49966 15.1264 9.5 14.8506V14.2168C10.3568 14.1396 11.0282 13.4209 11.0283 12.5439C11.0283 11.6155 10.276 10.8625 9.34766 10.8623H8.38184C8.00572 10.8623 7.70041 10.5577 7.7002 10.1816C7.7002 9.8054 8.00559 9.5 8.38184 9.5H9.57812C9.8019 9.50005 10.0165 9.5889 10.1748 9.74707C10.3701 9.94233 10.6866 9.94232 10.8818 9.74707C11.0771 9.55181 11.0771 9.2353 10.8818 9.04004C10.536 8.69433 10.0671 8.50005 9.57812 8.5H9.48438V7.67676C9.48438 7.40067 9.26045 7.17684 8.98438 7.17676Z" fill="var(--fill-0, #0A4EE4)"/>
</svg>
