<svg preserveAspectRatio="none" width="100%" height="100%" overflow="visible" style="display: block;" viewBox="0 0 18 18" fill="none" xmlns="http://www.w3.org/2000/svg">
<path id="Union" d="M11.8955 0C12.9838 0.000420575 13.8235 0.959271 13.6797 2.03809L13.3086 4.82031C16.0297 5.6908 18 8.24003 18 11.25C18 14.9779 14.9779 18 11.25 18H6.75C3.02208 18 0 14.9779 0 11.25C0 8.23928 1.97121 5.6892 4.69336 4.81934L4.32324 2.03809C4.17937 0.959015 5.0188 0 6.10742 0H11.8955ZM8.98438 7.17676C8.70823 7.17676 8.48438 7.40062 8.48438 7.67676V8.5H8.38086C7.45233 8.5 6.69922 9.25311 6.69922 10.1816C6.69943 11.11 7.45246 11.8623 8.38086 11.8623H9.34668C9.72276 11.8625 10.0273 12.1678 10.0273 12.5439C10.0272 12.92 9.72269 13.2244 9.34668 13.2246H7.98633C7.86696 13.2245 7.75238 13.1772 7.66797 13.0928L7.55273 12.9775C7.3575 12.7824 7.04094 12.7824 6.8457 12.9775C6.65047 13.1728 6.65054 13.4893 6.8457 13.6846L6.96094 13.7998C7.23288 14.0718 7.60175 14.2245 7.98633 14.2246H8.5V14.8506C8.50034 15.1264 8.72407 15.3506 9 15.3506C9.27593 15.3506 9.49966 15.1264 9.5 14.8506V14.2158C10.3563 14.1382 11.0272 13.4205 11.0273 12.5439C11.0273 11.6155 10.275 10.8625 9.34668 10.8623H8.38086C8.00475 10.8623 7.69943 10.5577 7.69922 10.1816C7.69922 9.8054 8.00462 9.5 8.38086 9.5H9.57715C9.80092 9.50005 10.0155 9.5889 10.1738 9.74707C10.3691 9.94233 10.6856 9.94232 10.8809 9.74707C11.0761 9.55181 11.0761 9.2353 10.8809 9.04004C10.535 8.69433 10.0661 8.50005 9.57715 8.5H9.48438V7.67676C9.48438 7.40067 9.26045 7.17684 8.98438 7.17676Z" fill="var(--fill-0, white)"/>
</svg>
