<svg preserveAspectRatio="none" width="100%" height="100%" overflow="visible" style="display: block;" viewBox="0 0 18 18" fill="none" xmlns="http://www.w3.org/2000/svg">
<path id="Union" d="M11.8945 0C12.9832 0 13.8226 0.959015 13.6787 2.03809L13.3076 4.82031C16.0292 5.69053 18 8.23971 18 11.25C18 14.9779 14.9779 18 11.25 18H6.75C3.02208 18 0 14.9779 0 11.25C0 8.23971 1.97084 5.69053 4.69238 4.82031L4.32227 2.03809C4.17845 0.959251 5.01816 0.000382958 6.10645 0H11.8945ZM6.75 5.5C3.57436 5.5 1 8.07436 1 11.25C1 14.4256 3.57436 17 6.75 17H11.25C14.4256 17 17 14.4256 17 11.25C17 8.07436 14.4256 5.5 11.25 5.5H6.75ZM8.98438 7.17676C9.26045 7.17684 9.48438 7.40067 9.48438 7.67676V8.5H9.57715C10.0661 8.50005 10.535 8.69433 10.8809 9.04004C11.0761 9.2353 11.0761 9.55181 10.8809 9.74707C10.6856 9.94232 10.3691 9.94233 10.1738 9.74707C10.0155 9.5889 9.80092 9.50005 9.57715 9.5H8.38086C8.00462 9.5 7.69922 9.8054 7.69922 10.1816C7.69943 10.5577 8.00475 10.8623 8.38086 10.8623H9.34668C10.275 10.8625 11.0273 11.6155 11.0273 12.5439C11.0272 13.4205 10.3563 14.1382 9.5 14.2158V14.8506C9.49966 15.1264 9.27593 15.3506 9 15.3506C8.72407 15.3506 8.50034 15.1264 8.5 14.8506V14.2246H7.98633C7.60175 14.2245 7.23288 14.0718 6.96094 13.7998L6.8457 13.6846C6.65054 13.4893 6.65047 13.1728 6.8457 12.9775C7.04094 12.7824 7.3575 12.7824 7.55273 12.9775L7.66797 13.0928C7.75238 13.1772 7.86696 13.2245 7.98633 13.2246H9.34668C9.72269 13.2244 10.0272 12.92 10.0273 12.5439C10.0273 12.1678 9.72276 11.8625 9.34668 11.8623H8.38086C7.45246 11.8623 6.69943 11.11 6.69922 10.1816C6.69922 9.25311 7.45233 8.5 8.38086 8.5H8.48438V7.67676C8.48438 7.40062 8.70823 7.17676 8.98438 7.17676ZM6.10645 1C5.62311 1.00038 5.24991 1.42612 5.31348 1.90527L5.6709 4.58691C6.02233 4.53044 6.38265 4.5 6.75 4.5H11.25C11.6174 4.5 11.9777 4.53044 12.3291 4.58691L12.6875 1.90527C12.7512 1.42585 12.3782 1 11.8945 1H6.10645Z" fill="var(--fill-0, white)"/>
</svg>
