<svg preserveAspectRatio="none" width="100%" height="100%" overflow="visible" style="display: block;" viewBox="0 0 23 17" fill="none" xmlns="http://www.w3.org/2000/svg">
<path id="Union" d="M8.2998 0C8.68651 0 9 0.313488 9 0.700195L9.0127 0.956055C9.14091 2.21655 10.2058 3.2002 11.5 3.2002C12.7942 3.2002 13.8591 2.21655 13.9873 0.956055L14 0.700195C14 0.313488 14.3135 0 14.7002 0H19.5C21.433 0 23 1.567 23 3.5V13.5C23 15.433 21.433 17 19.5 17H3.5C1.567 17 0 15.433 0 13.5V3.5C0 1.567 1.567 5.96046e-08 3.5 0H8.2998ZM3.5 1C2.11929 1 1 2.11929 1 3.5V13.5C1 14.8807 2.11929 16 3.5 16H19.5C20.8807 16 22 14.8807 22 13.5V3.5C22 2.11929 20.8807 1 19.5 1H14.9863C14.8341 2.7925 13.3319 4.2002 11.5 4.2002C9.66805 4.2002 8.16588 2.7925 8.01367 1H3.5ZM11.4688 5.5C11.7449 5.5 11.9687 5.72386 11.9688 6V7L11.9678 7.00098C12.4877 7.00734 12.9854 7.21585 13.3535 7.58398C13.5488 7.77925 13.5488 8.09575 13.3535 8.29102C13.1583 8.48628 12.8417 8.48628 12.6465 8.29102C12.4601 8.10466 12.2069 8 11.9434 8H10.8125C10.3638 8 10 8.36377 10 8.8125C10 9.26123 10.3638 9.625 10.8125 9.625H11.6875C12.6885 9.625 13.5 10.4365 13.5 11.4375C13.5 12.3318 12.8519 13.0724 12 13.2207V13.9609C11.9999 14.237 11.7761 14.4609 11.5 14.4609C11.2239 14.4609 11.0001 14.237 11 13.9609V13.25H10.375C9.96227 13.25 9.56626 13.0858 9.27441 12.7939L9.14648 12.666C8.95122 12.4708 8.95122 12.1542 9.14648 11.959C9.34175 11.7637 9.65825 11.7637 9.85352 11.959L9.98145 12.0869C10.0858 12.1912 10.2275 12.25 10.375 12.25H11.6875C12.1362 12.25 12.5 11.8862 12.5 11.4375C12.5 10.9888 12.1362 10.625 11.6875 10.625H10.8125C9.81148 10.625 9 9.81352 9 8.8125C9 7.81148 9.81148 7 10.8125 7H10.9688V6C10.9688 5.72386 11.1926 5.5 11.4688 5.5Z" fill="var(--fill-0, #0A4EE4)"/>
</svg>
