<svg preserveAspectRatio="none" width="100%" height="100%" overflow="visible" style="display: block;" viewBox="0 0 22 17" fill="none" xmlns="http://www.w3.org/2000/svg">
<path id="Union" d="M12 0C13.6569 -7.69498e-08 15 1.34315 15 3H17.4492L17.6309 3.00586C18.5345 3.06047 19.3691 3.52096 19.8965 4.26465L21.4473 6.45117L21.5742 6.64551C21.8522 7.1099 22 7.64241 22 8.18652V12C22 13.0356 21.2128 13.887 20.2041 13.9893C20.137 13.9961 20.0689 14 20 14H18.9502L18.9873 14.2441C18.9959 14.3283 19 14.4136 19 14.5C19 15.8807 17.8807 17 16.5 17C15.1193 17 14 15.8807 14 14.5C14 14.3288 14.017 14.1615 14.0498 14H7.9502L7.9873 14.2441C7.99585 14.3283 8 14.4136 8 14.5C8 15.8807 6.88071 17 5.5 17C4.11929 17 3 15.8807 3 14.5C3 14.3288 3.01702 14.1615 3.0498 14H3C1.34315 14 8.65705e-08 12.6569 0 11V3C4.65648e-07 1.34315 1.34315 7.69498e-08 3 0H12ZM5.5 13C4.67157 13 4 13.6716 4 14.5C4 15.3284 4.67157 16 5.5 16C6.32843 16 7 15.3284 7 14.5C7 13.6716 6.32843 13 5.5 13ZM16.5 13C15.6716 13 15 13.6716 15 14.5C15 15.3284 15.6716 16 16.5 16C17.3284 16 18 15.3284 18 14.5C18 13.6716 17.3284 13 16.5 13ZM7.94922 13.9961L7.89746 13.7891C7.89568 13.783 7.89245 13.7775 7.89062 13.7715C7.91304 13.8451 7.93359 13.9198 7.94922 13.9961ZM18.9492 13.9961L18.8975 13.7891C18.8957 13.783 18.8924 13.7775 18.8906 13.7715C18.913 13.8451 18.9336 13.9198 18.9492 13.9961ZM3.1084 13.7715C3.09164 13.8266 3.07842 13.8828 3.06543 13.9395C3.07842 13.8828 3.09164 13.8266 3.1084 13.7715ZM14.1084 13.7715C14.0916 13.8266 14.0784 13.8828 14.0654 13.9395C14.0784 13.8828 14.0916 13.8266 14.1084 13.7715ZM3.18945 13.5459C3.16857 13.5964 3.15042 13.6481 3.13281 13.7002C3.15042 13.6481 3.16857 13.5964 3.18945 13.5459ZM7.86621 13.7002C7.84863 13.6482 7.83139 13.5963 7.81055 13.5459C7.83139 13.5963 7.84864 13.6482 7.86621 13.7002ZM14.1895 13.5459C14.1686 13.5964 14.1504 13.6481 14.1328 13.7002C14.1504 13.6481 14.1686 13.5964 14.1895 13.5459ZM18.8662 13.7002C18.8486 13.6482 18.8314 13.5963 18.8105 13.5459C18.8314 13.5963 18.8486 13.6482 18.8662 13.7002ZM3.28809 13.3359C3.26251 13.3844 3.23921 13.4341 3.2168 13.4844C3.2392 13.4341 3.26252 13.3844 3.28809 13.3359ZM7.78223 13.4844C7.7598 13.4341 7.73653 13.3844 7.71094 13.3359C7.73652 13.3844 7.7598 13.4341 7.78223 13.4844ZM14.2881 13.3359C14.2625 13.3844 14.2392 13.4341 14.2168 13.4844C14.2392 13.4341 14.2625 13.3844 14.2881 13.3359ZM18.7822 13.4844C18.7598 13.4341 18.7365 13.3844 18.7109 13.3359C18.7365 13.3844 18.7598 13.4341 18.7822 13.4844ZM3.40039 13.1455C3.37352 13.1871 3.34767 13.2293 3.32324 13.2725C3.34766 13.2293 3.37352 13.1871 3.40039 13.1455ZM7.67578 13.2725C7.65134 13.2292 7.62552 13.1871 7.59863 13.1455C7.62552 13.1871 7.65135 13.2292 7.67578 13.2725ZM14.4004 13.1455C14.3735 13.1871 14.3477 13.2293 14.3232 13.2725C14.3477 13.2293 14.3735 13.1871 14.4004 13.1455ZM18.6758 13.2725C18.6513 13.2292 18.6255 13.1871 18.5986 13.1455C18.6255 13.1871 18.6513 13.2292 18.6758 13.2725ZM3.54395 12.9453C3.51236 12.985 3.4823 13.0258 3.45312 13.0674C3.48229 13.0258 3.51236 12.985 3.54395 12.9453ZM7.54688 13.0674C7.51759 13.0256 7.4868 12.9851 7.45508 12.9453C7.4868 12.9851 7.51759 13.0256 7.54688 13.0674ZM14.5439 12.9453C14.5124 12.985 14.4823 13.0258 14.4531 13.0674C14.4823 13.0258 14.5124 12.985 14.5439 12.9453ZM18.5469 13.0674C18.5176 13.0256 18.4868 12.9851 18.4551 12.9453C18.4868 12.9851 18.5176 13.0256 18.5469 13.0674ZM3.70312 12.7637C3.66162 12.8066 3.62138 12.8507 3.58301 12.8965C3.62137 12.8507 3.66163 12.8066 3.70312 12.7637ZM7.41602 12.8965C7.37762 12.8507 7.33743 12.8066 7.2959 12.7637C7.33742 12.8066 7.37763 12.8507 7.41602 12.8965ZM14.7031 12.7637C14.6616 12.8066 14.6214 12.8507 14.583 12.8965C14.6214 12.8507 14.6616 12.8066 14.7031 12.7637ZM18.416 12.8965C18.3776 12.8507 18.3374 12.8066 18.2959 12.7637C18.3374 12.8066 18.3776 12.8507 18.416 12.8965ZM4.08691 12.4375C3.96257 12.5228 3.846 12.6188 3.73926 12.7246C3.84599 12.6188 3.96258 12.5228 4.08691 12.4375ZM6.91211 12.4375C7.0365 12.5228 7.15298 12.6188 7.25977 12.7246C7.15297 12.6188 7.03651 12.5228 6.91211 12.4375ZM15.0869 12.4375C14.9626 12.5228 14.846 12.6188 14.7393 12.7246C14.846 12.6188 14.9626 12.5228 15.0869 12.4375ZM17.9121 12.4375C18.0365 12.5228 18.153 12.6188 18.2598 12.7246C18.153 12.6188 18.0365 12.5228 17.9121 12.4375ZM4.28613 12.3145C4.24277 12.3386 4.20091 12.365 4.15918 12.3916C4.2009 12.365 4.24277 12.3386 4.28613 12.3145ZM6.83984 12.3916C6.7981 12.365 6.75627 12.3386 6.71289 12.3145C6.75627 12.3386 6.7981 12.365 6.83984 12.3916ZM15.2861 12.3145C15.2428 12.3386 15.2009 12.365 15.1592 12.3916C15.2009 12.365 15.2428 12.3386 15.2861 12.3145ZM17.8398 12.3916C17.7981 12.365 17.7563 12.3386 17.7129 12.3145C17.7563 12.3386 17.7981 12.365 17.8398 12.3916ZM4.48535 12.2158C4.4436 12.2344 4.40281 12.2546 4.3623 12.2754C4.40281 12.2546 4.4436 12.2344 4.48535 12.2158ZM6.63672 12.2754C6.5962 12.2546 6.55544 12.2344 6.51367 12.2158C6.55544 12.2344 6.5962 12.2546 6.63672 12.2754ZM15.4854 12.2158C15.4436 12.2344 15.4028 12.2546 15.3623 12.2754C15.4028 12.2546 15.4436 12.2344 15.4854 12.2158ZM17.6367 12.2754C17.5962 12.2546 17.5554 12.2344 17.5137 12.2158C17.5554 12.2344 17.5962 12.2546 17.6367 12.2754ZM4.7002 12.1328C4.66035 12.1463 4.62095 12.1604 4.58203 12.1758C4.62095 12.1604 4.66035 12.1463 4.7002 12.1328ZM6.41699 12.1758C6.37806 12.1604 6.33868 12.1463 6.29883 12.1328C6.33868 12.1463 6.37807 12.1604 6.41699 12.1758ZM15.7002 12.1328C15.6604 12.1463 15.6209 12.1604 15.582 12.1758C15.6209 12.1604 15.6604 12.1463 15.7002 12.1328ZM17.417 12.1758C17.3781 12.1604 17.3387 12.1463 17.2988 12.1328C17.3387 12.1463 17.3781 12.1604 17.417 12.1758ZM4.93359 12.0664C4.88825 12.0769 4.84319 12.0876 4.79883 12.1006C4.84319 12.0876 4.88825 12.0769 4.93359 12.0664ZM6.2002 12.1006C6.15582 12.0877 6.11078 12.0769 6.06543 12.0664C6.11078 12.0769 6.15582 12.0877 6.2002 12.1006ZM15.9336 12.0664C15.8882 12.0769 15.8432 12.0876 15.7988 12.1006C15.8432 12.0876 15.8882 12.0769 15.9336 12.0664ZM17.2002 12.1006C17.1558 12.0877 17.1108 12.0769 17.0654 12.0664C17.1108 12.0769 17.1558 12.0877 17.2002 12.1006ZM5.17969 12.0225C5.12681 12.0292 5.07425 12.0359 5.02246 12.0459C5.07425 12.0359 5.12681 12.0292 5.17969 12.0225ZM5.97656 12.0459C5.92477 12.0359 5.87222 12.0292 5.81934 12.0225C5.87222 12.0292 5.92477 12.0359 5.97656 12.0459ZM16.1797 12.0225C16.1268 12.0292 16.0742 12.0359 16.0225 12.0459C16.0742 12.0359 16.1268 12.0292 16.1797 12.0225ZM16.9766 12.0459C16.9248 12.0359 16.8722 12.0292 16.8193 12.0225C16.8722 12.0292 16.9248 12.0359 16.9766 12.0459ZM5.5 12C5.41862 12 5.33818 12.0041 5.25879 12.0117C5.33817 12.0041 5.41862 12 5.5 12ZM5.74023 12.0117C5.66116 12.0042 5.58105 12 5.5 12C5.58105 12 5.66116 12.0042 5.74023 12.0117ZM16.5 12C16.4186 12 16.3382 12.0041 16.2588 12.0117C16.3382 12.0041 16.4186 12 16.5 12ZM16.7402 12.0117C16.6612 12.0042 16.581 12 16.5 12C16.581 12 16.6612 12.0042 16.7402 12.0117ZM11.3535 3.98633C11.1583 3.79123 10.8417 3.79123 10.6465 3.98633L6.5 8.13281L4.51367 6.14648C4.31844 5.95138 4.00187 5.95138 3.80664 6.14648C3.61154 6.34172 3.61154 6.65828 3.80664 6.85352L6.14648 9.19336C6.24022 9.28709 6.36745 9.3398 6.5 9.33984C6.63255 9.33984 6.75976 9.28705 6.85352 9.19336L11.3535 4.69336C11.5486 4.4981 11.5487 4.18155 11.3535 3.98633ZM15 8H20.9902C20.9577 7.65163 20.8354 7.31643 20.6318 7.0293L19.0811 4.84277C18.706 4.31406 18.0975 4 17.4492 4H15V8Z" fill="var(--fill-0, white)"/>
</svg>
