<svg preserveAspectRatio="none" width="100%" height="100%" overflow="visible" style="display: block;" viewBox="0 0 95.7533 38.837" fill="none" xmlns="http://www.w3.org/2000/svg">
<g id="olist">
<path d="M95.1015 18.7229H89.0145L88.9911 27.1262C88.9911 31.165 92.4842 31.9854 95.1349 32.095C95.4825 32.1083 95.7533 32.3939 95.7533 32.7394V38.1832C95.7533 38.5486 95.4491 38.8375 95.0781 38.8276C90.4886 38.718 86.668 37.4957 84.3917 35.1873C81.2028 31.9555 81.2763 28.2621 81.2997 27.9366L81.3666 4.71312C81.3666 4.35772 81.6607 4.07208 82.0184 4.07208H88.4095C88.7739 4.07208 89.0647 4.36436 89.0613 4.71976L89.0079 12.3557H95.0948C95.4558 12.3557 95.7466 12.6447 95.7466 13.0001V18.0819C95.7466 18.4373 95.4525 18.7262 95.0948 18.7262" fill="var(--fill-0, #0A4EE4)"/>
<path d="M39.129 37.1768L39.1457 0.644358C39.1457 0.288965 38.8549 0 38.4939 0H32.0927C31.7317 0 31.4409 0.288965 31.4409 0.644358V37.1768C31.4409 37.5322 31.7317 37.8212 32.0927 37.8212H38.4771C38.8381 37.8212 39.129 37.5322 39.129 37.1768Z" fill="var(--fill-0, #0A4EE4)"/>
<path d="M73.3175 22.9046C71.3587 22.1772 68.7581 21.6292 66.4584 21.2572C65.3219 21.0579 64.4127 20.7689 63.7575 20.3969C62.6378 19.8323 62.621 18.0852 63.7275 17.4508C64.9843 16.6105 68.0461 16.6902 69.3431 17.6335C69.8411 17.9258 70.2356 18.4539 70.523 19.0883C70.62 19.3009 70.8607 19.4138 71.0846 19.3474L76.8507 17.6136C77.2351 17.4973 77.4189 17.0722 77.2484 16.7135C76.5231 15.1956 75.3933 13.9068 73.849 12.8872C70.0818 10.2068 62.3135 10.2433 58.7068 13.0267C55.4778 15.0826 54.6722 20.7091 57.1692 23.6088C59.2817 26.0932 62.6879 26.9833 65.9904 27.6709C66.0005 27.6709 66.0138 27.6742 66.0239 27.6775C67.4578 27.9 69.9147 28.375 70.6902 28.9397C71.9169 29.6604 71.7866 31.3344 70.6133 32.1149C69.9548 32.5966 68.8852 32.839 67.4445 32.839C64.6534 32.8357 62.7882 31.8326 61.9492 29.5209C61.8689 29.305 61.6216 29.1722 61.3943 29.2286L55.5814 30.7133C55.2238 30.8063 55.0098 31.175 55.1168 31.5237C55.7686 33.6129 57.0321 35.3434 58.8806 36.5624C65.0946 40.6776 78.9532 39.6214 78.7493 29.9759C78.7493 28.0927 78.2479 26.5715 77.2618 25.4488C76.2924 24.3494 74.9688 23.4958 73.3208 22.9046" fill="var(--fill-0, #0A4EE4)"/>
<path d="M43.7451 11.9771V37.1768C43.7451 37.5322 44.0393 37.8212 44.397 37.8212H50.8951C51.2561 37.8212 51.5469 37.5322 51.5469 37.1768V11.9771C51.5469 11.6217 51.2527 11.3327 50.8951 11.3327H44.397C44.036 11.3327 43.7451 11.6217 43.7451 11.9771Z" fill="var(--fill-0, #0A4EE4)"/>
<path d="M14.1828 31.7263C10.1416 31.7263 7.21008 28.8134 7.21008 24.7978C7.21008 20.7822 10.1449 18.0188 14.1828 18.0188C18.2207 18.0188 21.1054 20.8686 21.1054 24.7978C21.1054 28.7271 18.194 31.7263 14.1828 31.7263ZM14.1561 10.9076C6.33765 10.9076 0 17.1585 0 24.8709C0 32.5833 6.33765 38.8342 14.1561 38.8342C21.9745 38.8342 28.3122 32.5833 28.3122 24.8709C28.3122 17.1585 21.9745 10.9076 14.1561 10.9076Z" fill="var(--fill-0, #0A4EE4)"/>
</g>
</svg>
