<svg preserveAspectRatio="none" width="100%" height="100%" overflow="visible" style="display: block;" viewBox="0 0 100.793 40.8811" fill="none" xmlns="http://www.w3.org/2000/svg">
<g id="olist">
<path d="M100.107 19.7083H93.6995L93.6749 28.5538C93.6749 32.8053 97.3518 33.6689 100.142 33.7842C100.508 33.7982 100.793 34.0989 100.793 34.4625V40.1928C100.793 40.5774 100.473 40.8816 100.082 40.8711C95.2512 40.7557 91.2295 39.4691 88.8333 37.0392C85.4766 33.6374 85.554 29.7496 85.5787 29.4069L85.649 4.96117C85.649 4.58708 85.9587 4.2864 86.3352 4.2864H93.0627C93.4462 4.2864 93.7523 4.59407 93.7488 4.96817L93.6925 13.006H100.1C100.48 13.006 100.786 13.3102 100.786 13.6843V19.0336C100.786 19.4077 100.476 19.7118 100.1 19.7118" fill="var(--fill-0, #0A4EE4)"/>
<path d="M41.1884 39.1335L41.206 0.678272C41.206 0.304173 40.8999 0 40.5199 0H33.7818C33.4018 0 33.0957 0.304173 33.0957 0.678272V39.1335C33.0957 39.5076 33.4018 39.8118 33.7818 39.8118H40.5023C40.8823 39.8118 41.1884 39.5076 41.1884 39.1335Z" fill="var(--fill-0, #0A4EE4)"/>
<path d="M77.1763 24.1101C75.1144 23.3444 72.377 22.7676 69.9562 22.376C68.7599 22.1662 67.8028 21.862 67.1132 21.4704C65.9345 20.8761 65.9169 19.0371 67.0815 18.3693C68.4045 17.4847 71.6275 17.5686 72.9927 18.5616C73.517 18.8692 73.9322 19.4251 74.2348 20.0929C74.3368 20.3167 74.5902 20.4356 74.8259 20.3656L80.8954 18.5406C81.3001 18.4182 81.4936 17.9707 81.3142 17.5931C80.5506 15.9953 79.3613 14.6388 77.7358 13.5654C73.7703 10.744 65.5932 10.7824 61.7966 13.7123C58.3977 15.8765 57.5497 21.7991 60.1781 24.8513C62.4018 27.4665 65.9873 28.4035 69.4636 29.1272C69.4742 29.1272 69.4882 29.1307 69.4988 29.1342C71.0083 29.3685 73.5944 29.8684 74.4107 30.4628C75.702 31.2215 75.5648 32.9836 74.3298 33.8052C73.6366 34.3122 72.5107 34.5674 70.9942 34.5674C68.0562 34.5639 66.0928 33.508 65.2097 31.0746C65.1252 30.8474 64.8648 30.7075 64.6256 30.767L58.5068 32.3298C58.1303 32.4277 57.9051 32.8158 58.0177 33.1829C58.7038 35.382 60.0338 37.2036 61.9796 38.4867C68.5206 42.8185 83.1086 41.7067 82.894 31.5536C82.894 29.5713 82.3662 27.97 81.3282 26.7882C80.3078 25.631 78.9145 24.7324 77.1798 24.1101" fill="var(--fill-0, #0A4EE4)"/>
<path d="M46.0475 12.6075V39.1335C46.0475 39.5076 46.3572 39.8118 46.7337 39.8118H53.5737C53.9538 39.8118 54.2599 39.5076 54.2599 39.1335V12.6075C54.2599 12.2334 53.9502 11.9292 53.5737 11.9292H46.7337C46.3536 11.9292 46.0475 12.2334 46.0475 12.6075Z" fill="var(--fill-0, #0A4EE4)"/>
<path d="M14.9293 33.3961C10.6753 33.3961 7.58956 30.3299 7.58956 26.103C7.58956 21.876 10.6789 18.9671 14.9293 18.9671C19.1797 18.9671 22.2163 21.9669 22.2163 26.103C22.2163 30.239 19.1516 33.3961 14.9293 33.3961ZM14.9011 11.4817C6.67121 11.4817 0 18.0616 0 26.1799C0 34.2982 6.67121 40.8781 14.9011 40.8781C23.1311 40.8781 29.8023 34.2982 29.8023 26.1799C29.8023 18.0616 23.1311 11.4817 14.9011 11.4817Z" fill="var(--fill-0, #0A4EE4)"/>
</g>
</svg>
