<svg width="24" height="24" viewBox="0 0 24 24" fill="none" xmlns="http://www.w3.org/2000/svg">
<path d="M12 5.90039C12.3314 5.90039 12.5996 6.16863 12.5996 6.5V11.4004H17.5C17.8314 11.4004 18.0996 11.6686 18.0996 12C18.0996 12.3314 17.8314 12.5996 17.5 12.5996H12.5996V17.5C12.5996 17.8314 12.3314 18.0996 12 18.0996C11.6686 18.0996 11.4004 17.8314 11.4004 17.5V12.5996H6.5C6.16864 12.5996 5.90039 12.3314 5.90039 12C5.9004 11.6686 6.16865 11.4004 6.5 11.4004H11.4004V6.5C11.4004 6.16864 11.6686 5.9004 12 5.90039Z" fill="#10100F"/>
<path fill-rule="evenodd" clip-rule="evenodd" d="M12 1C18.0751 1 23 5.92487 23 12C23 18.0751 18.0751 23 12 23C5.92487 23 1 18.0751 1 12C1 5.92487 5.92487 1 12 1ZM12 2.2002C6.58761 2.2002 2.2002 6.58761 2.2002 12C2.2002 17.4124 6.58761 21.7998 12 21.7998C17.4124 21.7998 21.7998 17.4124 21.7998 12C21.7998 6.58761 17.4124 2.2002 12 2.2002Z" fill="#10100F"/>
</svg>
