<svg width="24" height="24" viewBox="0 0 24 24" fill="none" xmlns="http://www.w3.org/2000/svg">
<path fill-rule="evenodd" clip-rule="evenodd" d="M12.0061 2C13.1478 2.0001 14.2894 2.58962 14.9368 3.76855L21.5403 16.7061C22.8468 19.0518 21.2109 21.9998 18.6096 22H5.39089C2.78949 22 1.15266 19.0642 2.45925 16.7061L9.06276 3.76855C9.71017 2.5895 10.8526 2 11.9944 2H12.0061ZM12.0003 17C11.448 17 11.0003 17.4477 11.0003 18C11.0003 18.5523 11.448 19 12.0003 19C12.5524 18.9998 13.0003 18.5522 13.0003 18C13.0003 17.4478 12.5524 17.0002 12.0003 17ZM12.0003 7.00293C11.5861 7.00293 11.2504 7.33883 11.2503 7.75293V14.5C11.2503 14.9142 11.5861 15.25 12.0003 15.25C12.4143 15.2498 12.7503 14.9141 12.7503 14.5V7.75293C12.7501 7.33893 12.4142 7.0031 12.0003 7.00293Z" fill="#10100F"/>
</svg>
