<svg width="24" height="24" viewBox="0 0 24 24" fill="none" xmlns="http://www.w3.org/2000/svg">
<path d="M12.0003 17C12.5524 17.0002 13.0003 17.4478 13.0003 18C13.0003 18.5522 12.5524 18.9998 12.0003 19C11.448 19 11.0003 18.5523 11.0003 18C11.0003 17.4477 11.448 17 12.0003 17Z" fill="#10100F"/>
<path d="M12.0003 7.00293C12.4142 7.00311 12.7501 7.33894 12.7503 7.75293V14.5C12.7503 14.9141 12.4143 15.2498 12.0003 15.25C11.5861 15.25 11.2503 14.9142 11.2503 14.5V7.75293C11.2504 7.33884 11.5861 7.00293 12.0003 7.00293Z" fill="#10100F"/>
<path fill-rule="evenodd" clip-rule="evenodd" d="M12.0061 2C13.1478 2.0001 14.2894 2.58962 14.9368 3.76855L21.5403 16.7061C22.8468 19.0518 21.2109 21.9998 18.6096 22H5.39089C2.78949 22 1.15266 19.0642 2.45925 16.7061L9.06276 3.76855C9.71017 2.5895 10.8526 2 11.9944 2H12.0061ZM11.9944 3.2002C11.2772 3.2002 10.5525 3.56206 10.1233 4.33203L3.51882 17.2705L3.50905 17.2881C2.60607 18.9178 3.78435 20.7998 5.39089 20.7998H18.6096C20.2162 20.7996 21.3926 18.9061 20.4925 17.29L20.4817 17.2715L13.8772 4.33203C13.448 3.56215 12.7232 3.2003 12.0061 3.2002H11.9944Z" fill="#10100F"/>
</svg>
