<svg width="24" height="24" viewBox="0 0 24 24" fill="none" xmlns="http://www.w3.org/2000/svg">
<path d="M12.4734 21.8319C12.1788 22.0722 11.7441 22.0548 11.4695 21.7802L5.4695 15.7802C5.17692 15.4873 5.17675 15.0124 5.4695 14.7196C5.76231 14.427 6.23717 14.4271 6.53005 14.7196L11.2498 19.4394L11.2498 2.74991C11.2498 2.33571 11.5856 1.99994 11.9998 1.99991C12.414 1.99991 12.7498 2.3357 12.7498 2.74991L12.7498 19.4394L17.4695 14.7196C17.7624 14.4268 18.2372 14.4268 18.5301 14.7196C18.8229 15.0125 18.8229 15.4873 18.5301 15.7802L12.53 21.7802L12.4734 21.8319Z" fill="#10100F"/>
</svg>
