<svg width="24" height="24" viewBox="0 0 24 24" fill="none" xmlns="http://www.w3.org/2000/svg">
<path fill-rule="evenodd" clip-rule="evenodd" d="M23 12C23 18.0751 18.0751 23 12 23C5.92487 23 1 18.0751 1 12C1 5.92487 5.92487 1 12 1C18.0751 1 23 5.92487 23 12ZM16.4248 10.9248C16.6589 10.6907 16.6585 10.3105 16.4248 10.0762L12.4248 6.07617C12.3968 6.04815 12.3651 6.02304 12.332 6.00098C12.3202 5.99312 12.3071 5.98639 12.2949 5.97949C12.2735 5.96735 12.2515 5.95482 12.2285 5.94531C12.2144 5.93954 12.199 5.93625 12.1846 5.93164C12.1625 5.92451 12.1402 5.91574 12.1172 5.91113C12.0787 5.90354 12.0391 5.90039 12 5.90039C11.9609 5.90042 11.9213 5.90352 11.8828 5.91113C11.8597 5.91572 11.8375 5.92445 11.8154 5.93164C11.8009 5.93634 11.7857 5.93951 11.7715 5.94531C11.7531 5.95288 11.7361 5.96336 11.7188 5.97266C11.6678 5.99986 11.6191 6.03323 11.5762 6.07617L7.57617 10.0762C7.34187 10.3105 7.34186 10.6905 7.57617 10.9248C7.81053 11.1585 8.19068 11.1589 8.4248 10.9248L11.4004 7.94824V17.5C11.4007 17.831 11.669 18.1004 12 18.1006C12.331 18.1003 12.6003 17.831 12.6006 17.5V7.94922L15.5762 10.9248C15.8105 11.1585 16.1907 11.1589 16.4248 10.9248Z" fill="#10100F"/>
</svg>
