<svg width="24" height="24" viewBox="0 0 24 24" fill="none" xmlns="http://www.w3.org/2000/svg">
<path d="M13.0762 7.57617C13.3105 7.34186 13.6895 7.34186 13.9238 7.57617L17.9238 11.5762L18.001 11.6699C18.1548 11.9028 18.1289 12.2188 17.9238 12.4238L13.9238 16.4238C13.6895 16.6581 13.3105 16.6581 13.0762 16.4238C12.8419 16.1895 12.8419 15.8105 13.0762 15.5762L16.0527 12.5996H6.5C6.16865 12.5996 5.9004 12.3314 5.90039 12C5.90039 11.6686 6.16864 11.4004 6.5 11.4004H16.0527L13.0762 8.42383C12.8419 8.18952 12.8419 7.81049 13.0762 7.57617Z" fill="#10100F"/>
<path fill-rule="evenodd" clip-rule="evenodd" d="M12 1C18.0751 1 23 5.92487 23 12C23 18.0751 18.0751 23 12 23C5.92487 23 1 18.0751 1 12C1 5.92487 5.92487 1 12 1ZM12 2.2002C6.58761 2.2002 2.2002 6.58761 2.2002 12C2.2002 17.4124 6.58761 21.7998 12 21.7998C17.4124 21.7998 21.7998 17.4124 21.7998 12C21.7998 6.58761 17.4124 2.2002 12 2.2002Z" fill="#10100F"/>
</svg>
