<svg width="24" height="24" viewBox="0 0 24 24" fill="none" xmlns="http://www.w3.org/2000/svg">
<path fill-rule="evenodd" clip-rule="evenodd" d="M12 1C18.0751 1 23 5.92487 23 12C23 18.0751 18.0751 23 12 23C5.92487 23 1 18.0751 1 12C1 5.92487 5.92487 1 12 1ZM13.9238 7.57617C13.6895 7.34186 13.3095 7.34186 13.0752 7.57617C12.8413 7.81052 12.841 8.19064 13.0752 8.4248L16.0518 11.4004H6.5C6.16889 11.4005 5.89962 11.6689 5.89941 12C5.89964 12.3311 6.1689 12.6004 6.5 12.6006H16.0508L13.0752 15.5762C12.8413 15.8105 12.841 16.1906 13.0752 16.4248C13.3094 16.6589 13.6895 16.6587 13.9238 16.4248L17.9238 12.4248C17.9519 12.3968 17.9769 12.3652 17.999 12.332C18.0069 12.3202 18.0136 12.3072 18.0205 12.2949C18.0327 12.2735 18.0452 12.2515 18.0547 12.2285C18.0605 12.2144 18.0637 12.199 18.0684 12.1846C18.0755 12.1625 18.0843 12.1403 18.0889 12.1172C18.0965 12.0787 18.0996 12.0391 18.0996 12C18.0996 11.9609 18.0965 11.9213 18.0889 11.8828C18.0843 11.8597 18.0756 11.8375 18.0684 11.8154C18.0637 11.801 18.0605 11.7856 18.0547 11.7715C18.0471 11.7532 18.0366 11.7361 18.0273 11.7188C18.0002 11.6678 17.9667 11.6191 17.9238 11.5762L13.9238 7.57617Z" fill="#10100F"/>
</svg>
