<svg width="24" height="24" viewBox="0 0 24 24" fill="none" xmlns="http://www.w3.org/2000/svg">
<path d="M10.0762 7.57617C10.3105 7.34188 10.6895 7.34187 10.9238 7.57617C11.1581 7.81048 11.1581 8.18951 10.9238 8.42383L7.94727 11.4004H17.5C17.8314 11.4004 18.0996 11.6686 18.0996 12C18.0996 12.3314 17.8314 12.5996 17.5 12.5996H7.94727L10.9238 15.5762C11.1581 15.8105 11.1581 16.1895 10.9238 16.4238C10.6895 16.6581 10.3105 16.6581 10.0762 16.4238L6.07617 12.4238C5.87113 12.2188 5.84521 11.9028 5.99902 11.6699L6.07617 11.5762L10.0762 7.57617Z" fill="#10100F"/>
<path fill-rule="evenodd" clip-rule="evenodd" d="M12 1C18.0751 1 23 5.92487 23 12C23 18.0751 18.0751 23 12 23C5.92487 23 1 18.0751 1 12C1 5.92487 5.92487 1 12 1ZM12 2.2002C6.58761 2.2002 2.2002 6.58761 2.2002 12C2.2002 17.4124 6.58761 21.7998 12 21.7998C17.4124 21.7998 21.7998 17.4124 21.7998 12C21.7998 6.58761 17.4124 2.2002 12 2.2002Z" fill="#10100F"/>
</svg>
