<svg width="24" height="24" viewBox="0 0 24 24" fill="none" xmlns="http://www.w3.org/2000/svg">
<path fill-rule="evenodd" clip-rule="evenodd" d="M12 1C18.0751 1 23 5.92487 23 12C23 18.0751 18.0751 23 12 23C5.92487 23 1 18.0751 1 12C1 5.92487 5.92487 1 12 1ZM10.9248 7.5752C10.6907 7.34107 10.3105 7.34145 10.0762 7.5752L6.07617 11.5752C6.04815 11.6032 6.02304 11.6349 6.00098 11.668C5.99312 11.6798 5.98639 11.6929 5.97949 11.7051C5.96735 11.7265 5.95482 11.7485 5.94531 11.7715C5.93954 11.7856 5.93625 11.801 5.93164 11.8154C5.92451 11.8375 5.91574 11.8598 5.91113 11.8828C5.90354 11.9213 5.90039 11.9609 5.90039 12C5.90042 12.0391 5.90352 12.0787 5.91113 12.1172C5.91572 12.1403 5.92445 12.1625 5.93164 12.1846C5.93634 12.1991 5.93951 12.2143 5.94531 12.2285C5.95288 12.2469 5.96336 12.2639 5.97266 12.2812C5.99986 12.3322 6.03323 12.3809 6.07617 12.4238L10.0762 16.4238C10.3105 16.6581 10.6905 16.6581 10.9248 16.4238C11.1585 16.1895 11.1589 15.8093 10.9248 15.5752L7.94824 12.5996H17.5C17.831 12.5993 18.1004 12.331 18.1006 12C18.1003 11.669 17.831 11.3997 17.5 11.3994H7.94922L10.9248 8.42383C11.1585 8.18947 11.1589 7.80932 10.9248 7.5752Z" fill="#10100F"/>
</svg>
