<svg width="24" height="24" viewBox="0 0 24 24" fill="none" xmlns="http://www.w3.org/2000/svg">
<path d="M16.4238 10.0762C16.6581 10.3105 16.6581 10.6895 16.4238 10.9238C16.1895 11.1581 15.8105 11.1581 15.5762 10.9238L12.5996 7.94727V17.5C12.5996 17.8314 12.3314 18.0996 12 18.0996C11.6686 18.0996 11.4004 17.8314 11.4004 17.5V7.94727L8.42383 10.9238C8.18952 11.1581 7.81049 11.1581 7.57617 10.9238C7.34186 10.6895 7.34186 10.3105 7.57617 10.0762L11.5762 6.07617C11.7812 5.87113 12.0972 5.84521 12.3301 5.99902L12.4238 6.07617L16.4238 10.0762Z" fill="#10100F"/>
<path fill-rule="evenodd" clip-rule="evenodd" d="M23 12C23 18.0751 18.0751 23 12 23C5.92487 23 1 18.0751 1 12C1 5.92487 5.92487 1 12 1C18.0751 1 23 5.92487 23 12ZM21.7998 12C21.7998 6.58761 17.4124 2.2002 12 2.2002C6.58761 2.2002 2.2002 6.58761 2.2002 12C2.2002 17.4124 6.58761 21.7998 12 21.7998C17.4124 21.7998 21.7998 17.4124 21.7998 12Z" fill="#10100F"/>
</svg>
