<svg width="24" height="24" viewBox="0 0 24 24" fill="none" xmlns="http://www.w3.org/2000/svg">
<path fill-rule="evenodd" clip-rule="evenodd" d="M1 12C1 5.92487 5.92487 1 12 1C18.0751 1 23 5.92487 23 12C23 18.0751 18.0751 23 12 23C5.92487 23 1 18.0751 1 12ZM7.5752 13.0752C7.34107 13.3093 7.34145 13.6895 7.5752 13.9238L11.5752 17.9238C11.6032 17.9519 11.6349 17.977 11.668 17.999C11.6798 18.0069 11.6929 18.0136 11.7051 18.0205C11.7265 18.0327 11.7485 18.0452 11.7715 18.0547C11.7856 18.0605 11.801 18.0638 11.8154 18.0684C11.8375 18.0755 11.8598 18.0843 11.8828 18.0889C11.9213 18.0965 11.9609 18.0996 12 18.0996C12.0391 18.0996 12.0787 18.0965 12.1172 18.0889C12.1403 18.0843 12.1625 18.0756 12.1846 18.0684C12.1991 18.0637 12.2143 18.0605 12.2285 18.0547C12.2469 18.0471 12.2639 18.0366 12.2812 18.0273C12.3322 18.0001 12.3809 17.9668 12.4238 17.9238L16.4238 13.9238C16.6581 13.6895 16.6581 13.3095 16.4238 13.0752C16.1895 12.8415 15.8093 12.8411 15.5752 13.0752L12.5996 16.0518V6.5C12.5993 6.16898 12.331 5.89962 12 5.89941C11.669 5.89966 11.3997 6.16901 11.3994 6.5V16.0508L8.42383 13.0752C8.18947 12.8415 7.80932 12.8411 7.5752 13.0752Z" fill="#10100F"/>
</svg>
