<svg width="24" height="24" viewBox="0 0 24 24" fill="none" xmlns="http://www.w3.org/2000/svg">
<path fill-rule="evenodd" clip-rule="evenodd" d="M17.7712 6.06399C17.8826 5.95862 18.0301 5.8999 18.1835 5.8999H22.121C22.4524 5.8999 22.721 6.16853 22.721 6.4999C22.721 6.83127 22.4524 7.0999 22.121 7.0999H18.4223L5.90829 18.9358C5.79688 19.0412 5.64935 19.0999 5.496 19.0999H1.59561C1.26423 19.0999 0.995605 18.8313 0.995605 18.4999C0.995605 18.1685 1.26423 17.8999 1.59561 17.8999H5.2572L17.7712 6.06399Z" fill="#10100F"/>
<path fill-rule="evenodd" clip-rule="evenodd" d="M17.6266 17.9165C17.7397 18.0338 17.8956 18.1001 18.0585 18.1001H21.996C22.3274 18.1001 22.596 17.8314 22.596 17.5001C22.596 17.1687 22.3274 16.9001 21.996 16.9001H18.3134L15.1154 13.5836C14.8854 13.345 14.5056 13.3381 14.267 13.5681C14.0285 13.7982 14.0216 14.178 14.2516 14.4165L17.6266 17.9165ZM10.9503 10.2041C11.1668 9.9532 11.1388 9.57434 10.8879 9.35791L5.88787 5.04541C5.77893 4.95145 5.63986 4.89976 5.496 4.89976L1.5959 4.89966C1.26453 4.89966 0.995899 5.16829 0.995899 5.49966C0.995899 5.83103 1.26453 6.09966 1.5959 6.09966L5.27299 6.09976L10.1041 10.2666C10.3551 10.483 10.7339 10.4551 10.9503 10.2041Z" fill="#10100F"/>
<path fill-rule="evenodd" clip-rule="evenodd" d="M21.6214 6.49995L19.0844 8.89209C18.8433 9.11942 18.8321 9.49916 19.0595 9.74025C19.2868 9.98135 19.6665 9.99251 19.9076 9.76518L22.7533 7.08198C23.0882 6.76617 23.0882 6.23357 22.7532 5.9178L19.9076 3.23519C19.6665 3.00789 19.2867 3.01909 19.0594 3.26021C18.8321 3.50133 18.8433 3.88106 19.0844 4.10837L21.6214 6.49995Z" fill="#10100F"/>
<path fill-rule="evenodd" clip-rule="evenodd" d="M21.6214 17.4999L19.0844 15.1077C18.8433 14.8804 18.8322 14.5007 19.0595 14.2596C19.2868 14.0185 19.6666 14.0073 19.9077 14.2347L22.7533 16.9179C23.0882 17.2337 23.0882 17.7663 22.7533 18.082L19.9076 20.7646C19.6665 20.992 19.2868 20.9808 19.0595 20.7396C18.8321 20.4985 18.8433 20.1188 19.0845 19.8915L21.6214 17.4999Z" fill="#10100F"/>
</svg>
