<svg width="24" height="24" viewBox="0 0 24 24" fill="none" xmlns="http://www.w3.org/2000/svg">
<path fill-rule="evenodd" clip-rule="evenodd" d="M10.6269 2.77607C11.2487 1.74033 12.7512 1.74033 13.373 2.77607L14.6073 4.83174C15.2476 5.89818 14.4787 7.25557 13.2343 7.25557H12.6005V11.4021H16.7402V10.7692C16.7402 9.52557 18.0979 8.75731 19.165 9.39717L21.2226 10.6306C22.2589 11.252 22.2589 12.7533 21.2226 13.3747L19.165 14.6081C18.0979 15.248 16.7402 14.4797 16.7402 13.236V12.6022H12.6005V16.7438H13.2343C14.4787 16.7438 15.2476 18.1012 14.6073 19.1677L13.373 21.2233C12.7512 22.2591 11.2487 22.2591 10.6269 21.2233L9.3925 19.1677C8.75226 18.1012 9.52114 16.7438 10.7655 16.7438H11.4003V12.6022H7.25969V13.237C7.25944 14.4804 5.9018 15.2485 4.83488 14.6091L2.77726 13.3747C1.74091 12.7533 1.74091 11.252 2.77726 10.6306L4.83488 9.39717C5.90193 8.75743 7.25969 9.52561 7.25969 10.7692V11.4021H11.4003V7.25557H10.7655C9.52114 7.25557 8.75226 5.89818 9.3925 4.83174L10.6269 2.77607ZM10.7655 17.944C10.4544 17.944 10.2617 18.2839 10.4218 18.5505L11.6562 20.6062C11.8116 20.8651 12.1872 20.8651 12.3427 20.6062L13.5771 18.5505C13.7371 18.2839 13.5454 17.944 13.2343 17.944H10.7655ZM6.05851 10.7692C6.05851 10.4583 5.71884 10.2665 5.45207 10.4265L3.39445 11.6599C3.13583 11.8152 3.13597 12.1899 3.39445 12.3454L5.45207 13.5798C5.71874 13.7397 6.05827 13.5477 6.05851 13.237V10.7692ZM18.5478 10.4255C18.281 10.2655 17.9413 10.4583 17.9413 10.7692V13.236C17.9413 13.547 18.281 13.7398 18.5478 13.5798L20.6044 12.3454C20.8635 12.19 20.8635 11.8152 20.6044 11.6599L18.5478 10.4255ZM12.3427 3.39326C12.1872 3.13442 11.8126 3.13443 11.6571 3.39326L10.4218 5.4499C10.2623 5.71644 10.4546 6.05537 10.7655 6.05537H13.2343C13.5452 6.05537 13.7376 5.71643 13.578 5.4499L12.3427 3.39326Z" fill="#10100F"/>
</svg>
