<svg width="24" height="24" viewBox="0 0 24 24" fill="none" xmlns="http://www.w3.org/2000/svg">
<path d="M8.2198 5.46986C8.51269 5.17704 8.98747 5.177 9.28034 5.46986C9.57298 5.76274 9.57309 6.23758 9.28034 6.53041L4.56062 11.2501H21.2501C21.6643 11.2501 22.0001 11.5859 22.0001 12.0001C21.9999 12.4142 21.6642 12.7501 21.2501 12.7501H4.56159L9.28034 17.4699C9.57312 17.7628 9.5732 18.2376 9.28034 18.5304C8.98747 18.8231 8.51264 18.8231 8.2198 18.5304L2.2198 12.5304C2.17058 12.4811 2.13234 12.4251 2.09968 12.3673C1.93793 12.0814 1.97629 11.7135 2.2198 11.4699L8.2198 5.46986Z" fill="#10100F"/>
</svg>
