<svg width="24" height="24" viewBox="0 0 24 24" fill="none" xmlns="http://www.w3.org/2000/svg">
<path d="M15.7803 18.5301C15.4874 18.823 15.0126 18.823 14.7197 18.5301C14.4271 18.2373 14.427 17.7624 14.7197 17.4696L19.4394 12.7499L2.75 12.7499C2.33579 12.7499 2 12.4141 2 11.9999C2.00015 11.5858 2.33588 11.2499 2.75 11.2499L19.4385 11.2499L14.7197 6.53014C14.4269 6.23724 14.4269 5.76245 14.7197 5.4696C15.0126 5.17693 15.4874 5.17688 15.7803 5.4696L21.7803 11.4696C21.8295 11.5189 21.8677 11.5749 21.9004 11.6327C22.0621 11.9186 22.0238 12.2865 21.7803 12.5301L15.7803 18.5301Z" fill="#10100F"/>
</svg>
