<svg width="24" height="24" viewBox="0 0 24 24" fill="none" xmlns="http://www.w3.org/2000/svg">
<path d="M10.6269 2.77562C11.2487 1.74014 12.7511 1.74018 13.373 2.77562L14.6073 4.83226C15.2476 5.8987 14.4787 7.25609 13.2343 7.25609H12.6005V11.4026H16.7402V10.7688C16.7403 9.52528 18.098 8.75713 19.165 9.39671L21.2226 10.6311C22.2588 11.2525 22.2588 12.7528 21.2226 13.3742L19.165 14.6086C18.0979 15.2483 16.7402 14.4801 16.7402 13.2366V12.6028H12.6005V16.7444H13.2343C14.4786 16.7444 15.2472 18.1008 14.6073 19.1672L13.373 21.2239C12.7512 22.2596 11.2487 22.2596 10.6269 21.2239L9.3925 19.1672C8.75254 18.1008 9.52124 16.7444 10.7655 16.7444H11.4003V12.6028H7.25969V13.2366C7.25969 14.4802 5.90195 15.2485 4.83488 14.6086L2.77726 13.3752C1.74091 12.7538 1.74091 11.2525 2.77726 10.6311L4.83488 9.39769C5.90183 8.7579 7.25938 9.52536 7.25969 10.7688V11.4026H11.4003V7.25609H10.7655C9.52114 7.25609 8.75226 5.8987 9.3925 4.83226L10.6269 2.77562Z" fill="#10100F"/>
</svg>
