<svg width="24" height="24" viewBox="0 0 24 24" fill="none" xmlns="http://www.w3.org/2000/svg">
<path d="M7.57617 13.9238C7.34188 13.6895 7.34187 13.3105 7.57617 13.0762C7.81048 12.8419 8.18951 12.8419 8.42383 13.0762L11.4004 16.0527V6.5C11.4004 6.16865 11.6686 5.9004 12 5.90039C12.3314 5.90039 12.5996 6.16864 12.5996 6.5V16.0527L15.5762 13.0762C15.8105 12.8419 16.1895 12.8419 16.4238 13.0762C16.6581 13.3105 16.6581 13.6895 16.4238 13.9238L12.4238 17.9238C12.2188 18.1289 11.9028 18.1548 11.6699 18.001L11.5762 17.9238L7.57617 13.9238Z" fill="#10100F"/>
<path fill-rule="evenodd" clip-rule="evenodd" d="M1 12C1 5.92487 5.92487 1 12 1C18.0751 1 23 5.92487 23 12C23 18.0751 18.0751 23 12 23C5.92487 23 1 18.0751 1 12ZM2.2002 12C2.2002 17.4124 6.58761 21.7998 12 21.7998C17.4124 21.7998 21.7998 17.4124 21.7998 12C21.7998 6.58761 17.4124 2.2002 12 2.2002C6.58761 2.2002 2.2002 6.58761 2.2002 12Z" fill="#10100F"/>
</svg>
