<svg width="24" height="24" viewBox="0 0 24 24" fill="none" xmlns="http://www.w3.org/2000/svg">
<path fill-rule="evenodd" clip-rule="evenodd" d="M11.8334 2.2C9.21921 2.2 7.2 4.31919 7.2 6.93333V18.4C7.2 20.2778 8.62226 21.8 10.5 21.8C12.3778 21.8 13.9 20.2778 13.9 18.4V7.18333C13.9 6.18002 13.0867 5.36667 12.0834 5.36667C11.08 5.36667 10.2667 6.18002 10.2667 7.18333V17.4C10.2667 17.7314 9.99806 18 9.66669 18C9.33532 18 9.06669 17.7314 9.06669 17.4V7.18333C9.06669 5.51727 10.4173 4.16667 12.0834 4.16667C13.7494 4.16667 15.1 5.51727 15.1 7.18333V18.4C15.1 20.9405 13.0405 23 10.5 23C7.95951 23 6 20.9405 6 18.4L6 6.93333C6 3.65644 8.55647 1 11.8334 1H12.1667C15.4436 1 18 3.65644 18 6.93333V17.4C18 17.7314 17.7314 18 17.4 18C17.0686 18 16.8 17.7314 16.8 17.4V6.93333C16.8 4.31919 14.7808 2.2 12.1667 2.2H11.8334Z" fill="#10100F"/>
</svg>
