<svg width="24" height="24" viewBox="0 0 24 24" fill="none" xmlns="http://www.w3.org/2000/svg">
<path fill-rule="evenodd" clip-rule="evenodd" d="M17.5704 8.59227C17.8047 8.35795 18.1846 8.35795 18.4189 8.59227C20.3334 10.5067 20.3334 13.6235 18.4189 15.5379C18.1846 15.7722 17.8047 15.7722 17.5704 15.5379C17.3361 15.3036 17.3361 14.9237 17.5704 14.6894C19.0162 13.2436 19.0162 10.8866 17.5704 9.44079C17.3361 9.20648 17.3361 8.82658 17.5704 8.59227Z" fill="#10100F"/>
<path fill-rule="evenodd" clip-rule="evenodd" d="M19.7914 6.3701C20.0258 6.13578 20.4057 6.13578 20.64 6.3701C23.7874 9.51749 23.7874 14.6125 20.64 17.7599C20.4057 17.9942 20.0258 17.9942 19.7914 17.7599C19.5571 17.5256 19.5571 17.1457 19.7914 16.9114C22.4702 14.2326 22.4702 9.89739 19.7914 7.21863C19.5571 6.98431 19.5571 6.60441 19.7914 6.3701Z" fill="#10100F"/>
<path fill-rule="evenodd" clip-rule="evenodd" d="M2.99892 14.8023H5.32325C5.79813 14.8023 6.26026 14.9561 6.64054 15.2406L12.517 19.6371C13.0443 20.0316 13.7957 19.6552 13.7957 18.9964V5.00337C13.7957 4.34598 13.0471 3.96918 12.5193 4.36096L6.52111 8.81395C6.25052 9.01484 5.84957 9.21634 5.35324 9.21634H2.99892C2.55723 9.21634 2.19916 9.57451 2.19916 10.0163V14.0023C2.19916 14.4441 2.55722 14.8023 2.99892 14.8023ZM5.32325 16.0023C5.53911 16.0023 5.74917 16.0722 5.92202 16.2015L11.7984 20.598C13.1169 21.5844 14.9954 20.6433 14.9954 18.9964V5.00337C14.9954 3.35991 13.1237 2.4179 11.8044 3.39735L5.80616 7.85034C5.67378 7.94862 5.51809 8.01634 5.35324 8.01634H2.99892C1.89468 8.01634 0.999512 8.91177 0.999512 10.0163V14.0023C0.999512 15.1069 1.89468 16.0023 2.99892 16.0023H5.32325Z" fill="#10100F"/>
</svg>
