<svg width="24" height="24" viewBox="0 0 24 24" fill="none" xmlns="http://www.w3.org/2000/svg">
<path fill-rule="evenodd" clip-rule="evenodd" d="M17.5723 8.59236C17.8066 8.35804 18.1865 8.35804 18.4208 8.59236C20.3353 10.5068 20.3353 13.6236 18.4208 15.538C18.1865 15.7723 17.8066 15.7723 17.5723 15.538C17.338 15.3037 17.338 14.9238 17.5723 14.6895C19.0181 13.2437 19.0181 10.8867 17.5723 9.44088C17.338 9.20657 17.338 8.82667 17.5723 8.59236Z" fill="#10100F"/>
<path fill-rule="evenodd" clip-rule="evenodd" d="M19.794 6.37019C20.0283 6.13587 20.4082 6.13587 20.6425 6.37019C23.7899 9.51757 23.7899 14.6126 20.6425 17.76C20.4082 17.9943 20.0283 17.9943 19.794 17.76C19.5597 17.5257 19.5597 17.1458 19.794 16.9114C22.4728 14.2327 22.4728 9.89747 19.794 7.21872C19.5597 6.9844 19.5597 6.6045 19.794 6.37019Z" fill="#10100F"/>
<path d="M13.1294 3.00488C14.1115 3.07506 14.9966 3.87389 14.9966 5.00391V18.9971C14.9964 20.1292 14.1081 20.9272 13.1245 20.9951C13.0353 21.0013 12.9452 21.0023 12.855 20.9961C12.4933 20.9714 12.1281 20.8453 11.7983 20.5986L5.92041 16.2021C5.79073 16.1052 5.64023 16.0413 5.48193 16.0156L5.32178 16.0029H2.99658C1.89213 16.0029 0.996779 15.1073 0.996582 14.0029V10.0166C0.996582 8.91203 1.89201 8.0166 2.99658 8.0166H5.35205C5.51666 8.01647 5.67197 7.94865 5.8042 7.85059L11.8042 3.39746C12.134 3.15266 12.4988 3.02769 12.8599 3.00391C12.9501 2.99796 13.0402 2.99851 13.1294 3.00488Z" fill="#10100F"/>
</svg>
