<svg width="24" height="24" viewBox="0 0 24 24" fill="none" xmlns="http://www.w3.org/2000/svg">
<path fill-rule="evenodd" clip-rule="evenodd" d="M7.00081 17.9679C8.10564 17.9679 9.00195 18.8705 9.00195 19.984C9.00169 21.0972 8.10548 22 7.00081 22C5.89631 21.9998 5.00075 21.097 5.00049 19.984C5.00049 18.8706 5.89615 17.9681 7.00081 17.9679ZM7.00081 19.1768C6.55905 19.1769 6.20085 19.5387 6.20085 19.984C6.20111 20.429 6.55921 20.79 7.00081 20.7902C7.44258 20.7902 7.80133 20.4291 7.80159 19.984C7.80159 19.5386 7.44275 19.1768 7.00081 19.1768Z" fill="#10100F"/>
<path fill-rule="evenodd" clip-rule="evenodd" d="M15.0029 17.9679C16.1078 17.9679 17.0033 18.8705 17.0033 19.984C17.003 21.0972 16.1076 22 15.0029 22C13.8983 21.9999 13.0029 21.0971 13.0026 19.984C13.0026 18.8706 13.8982 17.968 15.0029 17.9679ZM15.0029 19.1768C14.5611 19.1768 14.203 19.5386 14.203 19.984C14.2032 20.4291 14.5612 20.7901 15.0029 20.7902C15.4447 20.7902 15.8026 20.4291 15.8029 19.984C15.8029 19.5386 15.4449 19.1768 15.0029 19.1768Z" fill="#10100F"/>
<path fill-rule="evenodd" clip-rule="evenodd" d="M6.03076 2.10633C6.30364 1.91737 6.6772 1.98697 6.86491 2.26186L11.9756 9.80234H18.7277L18.7269 8.38087C18.727 7.27321 19.6183 6.37579 20.7174 6.37566H21.4002C21.7315 6.37586 22 6.64617 22 6.98008C21.9999 7.31394 21.7315 7.5843 21.4002 7.5845H20.7174C20.2812 7.58463 19.9274 7.94127 19.9272 8.38087V10.4924C19.9272 10.5264 19.9228 10.5593 19.9175 10.5918H19.9207C19.3448 14.7594 15.7959 17.9679 11.502 17.9679H10.5018C5.80641 17.9678 2.00008 14.1317 2 9.39972C2 6.33201 3.6001 3.64156 6.00472 2.12799C6.01342 2.12122 6.0216 2.11268 6.03076 2.10633ZM11.7217 11.0122C11.6827 11.016 11.644 11.0159 11.6053 11.0122H3.37777C4.10743 14.3002 7.0191 16.758 10.5018 16.7581H11.502C14.9846 16.7581 17.8946 14.3001 18.6243 11.0122H11.7217ZM6.21224 3.44412C4.38694 4.78186 3.20036 6.95121 3.20036 9.39972C3.20036 9.53483 3.20461 9.66903 3.21175 9.80234H10.5213L6.21224 3.44412Z" fill="#10100F"/>
</svg>
