<svg width="24" height="24" viewBox="0 0 24 24" fill="none" xmlns="http://www.w3.org/2000/svg">
<path fill-rule="evenodd" clip-rule="evenodd" d="M7.00081 17.9679C8.10564 17.9679 9.00195 18.8705 9.00195 19.984C9.00169 21.0972 8.10547 22 7.00081 22C5.89631 21.9998 5.00075 21.097 5.00049 19.984C5.00049 18.8706 5.89614 17.9681 7.00081 17.9679ZM7.00081 19.1768C6.55904 19.1769 6.20085 19.5387 6.20085 19.984C6.20111 20.429 6.5592 20.79 7.00081 20.7902C7.44258 20.7902 7.80133 20.4291 7.80159 19.984C7.80159 19.5386 7.44274 19.1768 7.00081 19.1768Z" fill="#10100F"/>
<path fill-rule="evenodd" clip-rule="evenodd" d="M15.0029 17.9679C16.1078 17.9679 17.0033 18.8705 17.0033 19.984C17.003 21.0972 16.1076 22 15.0029 22C13.8983 22 13.0029 21.0971 13.0026 19.984C13.0026 18.8705 13.8981 17.9679 15.0029 17.9679ZM15.0029 19.1768C14.561 19.1768 14.203 19.5386 14.203 19.984C14.2032 20.4291 14.5612 20.7901 15.0029 20.7902C15.4447 20.7902 15.8026 20.4291 15.8029 19.984C15.8029 19.5386 15.4449 19.1768 15.0029 19.1768Z" fill="#10100F"/>
<path d="M19.8499 11.0122C19.1013 14.973 15.6502 17.9679 11.502 17.9679H10.5018C6.3535 17.9678 2.9009 14.9731 2.15218 11.0122H19.8499Z" fill="#10100F"/>
<path d="M6.03076 2.10632C6.30364 1.91738 6.67721 1.98696 6.86491 2.26185L11.9756 9.80234H2.01058C2.00445 9.66888 2 9.5347 2 9.39972C2.00001 6.33201 3.60011 3.64154 6.00472 2.12798C6.01341 2.12122 6.02161 2.11267 6.03076 2.10632Z" fill="#10100F"/>
<path d="M21.4002 6.37565C21.7315 6.37585 22 6.64617 22 6.98007C21.9999 7.31393 21.7315 7.58429 21.4002 7.58449H20.7174C20.2813 7.58463 19.9274 7.94128 19.9272 8.38087V9.80234H18.7269V8.38087C18.727 7.27322 19.6184 6.37579 20.7174 6.37565H21.4002Z" fill="#10100F"/>
</svg>
