<svg width="24" height="24" viewBox="0 0 24 24" fill="none" xmlns="http://www.w3.org/2000/svg">
<path d="M20.1299 16.9933C21.1295 17.0958 21.9091 17.9492 21.9092 18.9874V19.9903C21.909 21.0975 21.0222 21.9952 19.9277 21.9952H4.07227L3.86914 21.9845C2.86997 21.8817 2.09005 21.0282 2.08984 19.9903V18.9874C2.08992 17.8802 2.97779 16.9827 4.07227 16.9825H19.9277L20.1299 16.9933Z" fill="#10100F"/>
<path d="M9.02734 15.9796H5.06348V9.96495H9.02734V15.9796Z" fill="#10100F"/>
<path d="M13.9824 9.96495V15.9796H10.0176V9.96495H13.9824Z" fill="#10100F"/>
<path d="M18.9365 9.96495V15.9796H14.9727V9.96495H18.9365Z" fill="#10100F"/>
<path d="M10.748 2.18273C11.5664 1.94625 12.4336 1.94625 13.252 2.18273L21.1309 4.46007C22.237 4.77978 23 5.80218 23 6.96593V7.45812C23 8.34399 22.2898 9.06261 21.4141 9.06261H13.3877V6.95714C13.3876 6.18209 12.7662 5.55382 12 5.55382C11.2338 5.55382 10.6124 6.18209 10.6123 6.95714V9.06261H2.58594C1.71024 9.06261 1 8.34399 1 7.45812V6.96593C1.00001 5.80218 1.76302 4.77978 2.86914 4.46007L10.748 2.18273Z" fill="#10100F"/>
</svg>
