<svg width="24" height="24" viewBox="0 0 24 24" fill="none" xmlns="http://www.w3.org/2000/svg">
<path fill-rule="evenodd" clip-rule="evenodd" d="M10.748 2.18273C11.5664 1.94625 12.4336 1.94625 13.252 2.18273L21.1309 4.46007C22.237 4.77978 23 5.80218 23 6.96593V7.45812C23 8.34399 22.2898 9.06261 21.4141 9.06261H19.9277V16.9825L20.1309 16.9923C21.1302 17.0951 21.9101 17.9494 21.9102 18.9874V19.9903C21.9099 21.0975 21.0222 21.9952 19.9277 21.9952H4.07227C2.97778 21.9952 2.09006 21.0975 2.08984 19.9903V18.9874C2.08985 17.9494 2.86982 17.0951 3.86914 16.9923L4.07227 16.9825V9.06261H2.58594C1.71024 9.06261 1 8.34399 1 7.45812V6.96593C1.00001 5.80218 1.76302 4.77978 2.86914 4.46007L10.748 2.18273ZM4.07227 18.1857C3.63442 18.1857 3.27931 18.5445 3.2793 18.9874V19.9903C3.27951 20.4331 3.63455 20.7921 4.07227 20.7921H19.9277C20.3654 20.7921 20.7205 20.4331 20.7207 19.9903V18.9874C20.7207 18.5445 20.3656 18.1857 19.9277 18.1857H4.07227ZM10.0176 9.06261V16.9825H13.9824V9.06261H10.0176ZM5.26172 16.7823H8.8291V9.1632H5.26172V16.7823ZM15.1709 16.7823H18.7383V9.1632H15.1709V16.7823ZM12.9258 3.33898C12.3208 3.16411 11.6792 3.16411 11.0742 3.33898L3.19531 5.61632C2.59975 5.7885 2.18946 6.33932 2.18945 6.96593V7.45812C2.18945 7.67959 2.36701 7.85948 2.58594 7.85948H10.0176V6.95714C10.0177 5.84989 10.9054 4.95226 12 4.95226C13.0945 4.95227 13.9823 5.84989 13.9824 6.95714V7.85948H21.4141C21.633 7.85948 21.8105 7.67959 21.8105 7.45812V6.96593C21.8105 6.33932 21.4002 5.7885 20.8047 5.61632L12.9258 3.33898ZM12 6.15538C11.5622 6.15538 11.2071 6.51429 11.207 6.95714V7.7589H12.793V6.95714C12.7929 6.5143 12.4378 6.1554 12 6.15538Z" fill="#10100F"/>
</svg>
