<svg width="24" height="24" viewBox="0 0 24 24" fill="none" xmlns="http://www.w3.org/2000/svg">
<path fill-rule="evenodd" clip-rule="evenodd" d="M19 3C21.2091 3 23 4.79086 23 7V17C23 19.2091 21.2091 21 19 21H5C2.79086 21 1 19.2091 1 17V7C1 4.79086 2.79086 3 5 3H19ZM15.7773 16H16.6426V8H15.7773V16ZM17.75 8V16H19.25V8H17.75ZM14.6748 16H14.9443V8H14.6748V16ZM12.9746 16H13.8398V8H12.9746V16ZM11.8721 16H12.1416V8H11.8721V16ZM10.1729 16H11.0381V8H10.1729V16ZM6.83008 16H8.77539V8H6.83008V16ZM4.56738 16H5.43262V8H4.56738V16Z" fill="#10100F"/>
</svg>
