<svg width="24" height="24" viewBox="0 0 24 24" fill="none" xmlns="http://www.w3.org/2000/svg">
<path d="M2.59961 15.7998C2.93098 15.7998 3.2002 16.069 3.2002 16.4004V19.4004C3.20041 20.1733 3.82672 20.7996 4.59961 20.7998H7.59961C7.93098 20.7998 8.2002 21.069 8.2002 21.4004C8.19998 21.7316 7.93085 22 7.59961 22H4.59961C3.16398 21.9998 2.00021 20.836 2 19.4004V16.4004C2 16.0691 2.26842 15.8 2.59961 15.7998Z" fill="#10100F"/>
<path d="M21.4004 15.7998C21.7316 15.8 22 16.0691 22 16.4004V19.4004C21.9998 20.836 20.836 21.9998 19.4004 22H16.4004C16.0691 22 15.8 21.7316 15.7998 21.4004C15.7998 21.069 16.069 20.7998 16.4004 20.7998H19.4004C20.1733 20.7996 20.7996 20.1733 20.7998 19.4004V16.4004C20.7998 16.069 21.069 15.7998 21.4004 15.7998Z" fill="#10100F"/>
<path fill-rule="evenodd" clip-rule="evenodd" d="M17 6C18.1046 6 19 6.89543 19 8V16C19 17.1046 18.1046 18 17 18H7C5.89543 18 5 17.1046 5 16V8C5 6.89543 5.89543 6 7 6H17ZM7 7.90039C6.66881 7.9006 6.40039 8.16876 6.40039 8.5V15.5C6.40044 15.8312 6.66884 16.0994 7 16.0996C7.33134 16.0996 7.60053 15.8313 7.60059 15.5V8.5C7.60059 8.16863 7.33137 7.90039 7 7.90039ZM9.5 7.90039C9.16881 7.9006 8.90039 8.16876 8.90039 8.5V15.5C8.90044 15.8312 9.16884 16.0994 9.5 16.0996C9.83134 16.0996 10.1005 15.8313 10.1006 15.5V8.5C10.1006 8.16863 9.83137 7.90039 9.5 7.90039ZM12 7.90039C11.6688 7.9006 11.4004 8.16876 11.4004 8.5V15.5C11.4004 15.8312 11.6688 16.0994 12 16.0996C12.3313 16.0996 12.6005 15.8313 12.6006 15.5V8.5C12.6006 8.16863 12.3314 7.90039 12 7.90039ZM14.5 7.90039C14.1688 7.9006 13.9004 8.16876 13.9004 8.5V15.5C13.9004 15.8312 14.1688 16.0994 14.5 16.0996C14.8313 16.0996 15.1005 15.8313 15.1006 15.5V8.5C15.1006 8.16863 14.8314 7.90039 14.5 7.90039ZM17 7.90039C16.6688 7.9006 16.4004 8.16876 16.4004 8.5V15.5C16.4004 15.8312 16.6688 16.0994 17 16.0996C17.3313 16.0996 17.6005 15.8313 17.6006 15.5V8.5C17.6006 8.16863 17.3314 7.90039 17 7.90039Z" fill="#10100F"/>
<path d="M7.59961 2C7.93085 2 8.19998 2.26842 8.2002 2.59961C8.2002 2.93098 7.93098 3.2002 7.59961 3.2002H4.59961C3.82672 3.20041 3.20041 3.82672 3.2002 4.59961V7.59961C3.2002 7.93098 2.93098 8.2002 2.59961 8.2002C2.26842 8.19998 2 7.93085 2 7.59961V4.59961C2.00021 3.16398 3.16398 2.00021 4.59961 2H7.59961Z" fill="#10100F"/>
<path d="M19.4004 2C20.836 2.00021 21.9998 3.16398 22 4.59961V7.59961C22 7.93085 21.7316 8.19998 21.4004 8.2002C21.069 8.2002 20.7998 7.93098 20.7998 7.59961V4.59961C20.7996 3.82672 20.1733 3.20041 19.4004 3.2002H16.4004C16.069 3.2002 15.7998 2.93098 15.7998 2.59961C15.8 2.26842 16.0691 2 16.4004 2H19.4004Z" fill="#10100F"/>
</svg>
