<svg width="24" height="24" viewBox="0 0 24 24" fill="none" xmlns="http://www.w3.org/2000/svg">
<path d="M5.43262 16H4.56738V8H5.43262V16Z" fill="#10100F"/>
<path d="M8.77539 16H6.83008V8H8.77539V16Z" fill="#10100F"/>
<path d="M11.0381 16H10.1729V8H11.0381V16Z" fill="#10100F"/>
<path d="M12.1416 16H11.8721V8H12.1416V16Z" fill="#10100F"/>
<path d="M13.8398 16H12.9746V8H13.8398V16Z" fill="#10100F"/>
<path d="M14.9443 16H14.6748V8H14.9443V16Z" fill="#10100F"/>
<path d="M16.6426 16H15.7773V8H16.6426V16Z" fill="#10100F"/>
<path d="M19.25 16H17.75V8H19.25V16Z" fill="#10100F"/>
<path fill-rule="evenodd" clip-rule="evenodd" d="M19 3C21.2091 3 23 4.79086 23 7V17C23 19.2091 21.2091 21 19 21H5C2.79086 21 1 19.2091 1 17V7C1 4.79086 2.79086 3 5 3H19ZM5 4.2002C3.4536 4.2002 2.2002 5.4536 2.2002 7V17C2.2002 18.5464 3.4536 19.7998 5 19.7998H19C20.5464 19.7998 21.7998 18.5464 21.7998 17V7C21.7998 5.4536 20.5464 4.2002 19 4.2002H5Z" fill="#10100F"/>
</svg>
