<svg width="24" height="24" viewBox="0 0 24 24" fill="none" xmlns="http://www.w3.org/2000/svg">
<path d="M2.59961 15.7998C2.93098 15.7998 3.2002 16.069 3.2002 16.4004V19.4004C3.20041 20.1733 3.82672 20.7996 4.59961 20.7998H7.59961C7.93098 20.7998 8.2002 21.069 8.2002 21.4004C8.19998 21.7316 7.93085 22 7.59961 22H4.59961C3.16398 21.9998 2.00021 20.836 2 19.4004V16.4004C2 16.0691 2.26842 15.8 2.59961 15.7998Z" fill="#10100F"/>
<path d="M21.4004 15.7998C21.7316 15.8 22 16.0691 22 16.4004V19.4004C21.9998 20.836 20.836 21.9998 19.4004 22H16.4004C16.0691 22 15.8 21.7316 15.7998 21.4004C15.7998 21.069 16.069 20.7998 16.4004 20.7998H19.4004C20.1733 20.7996 20.7996 20.1733 20.7998 19.4004V16.4004C20.7998 16.069 21.069 15.7998 21.4004 15.7998Z" fill="#10100F"/>
<path d="M7 7.90039C7.33137 7.90039 7.60059 8.16863 7.60059 8.5V15.5C7.60053 15.8313 7.33134 16.0996 7 16.0996C6.66884 16.0994 6.40044 15.8312 6.40039 15.5V8.5C6.40039 8.16876 6.66881 7.9006 7 7.90039Z" fill="#10100F"/>
<path d="M9.5 7.90039C9.83137 7.90039 10.1006 8.16863 10.1006 8.5V15.5C10.1005 15.8313 9.83134 16.0996 9.5 16.0996C9.16884 16.0994 8.90044 15.8312 8.90039 15.5V8.5C8.90039 8.16876 9.16881 7.9006 9.5 7.90039Z" fill="#10100F"/>
<path d="M12 7.90039C12.3314 7.90039 12.6006 8.16863 12.6006 8.5V15.5C12.6005 15.8313 12.3313 16.0996 12 16.0996C11.6688 16.0994 11.4004 15.8312 11.4004 15.5V8.5C11.4004 8.16876 11.6688 7.9006 12 7.90039Z" fill="#10100F"/>
<path d="M14.5 7.90039C14.8314 7.90039 15.1006 8.16863 15.1006 8.5V15.5C15.1005 15.8313 14.8313 16.0996 14.5 16.0996C14.1688 16.0994 13.9004 15.8312 13.9004 15.5V8.5C13.9004 8.16876 14.1688 7.9006 14.5 7.90039Z" fill="#10100F"/>
<path d="M17 7.90039C17.3314 7.90039 17.6006 8.16863 17.6006 8.5V15.5C17.6005 15.8313 17.3313 16.0996 17 16.0996C16.6688 16.0994 16.4004 15.8312 16.4004 15.5V8.5C16.4004 8.16876 16.6688 7.9006 17 7.90039Z" fill="#10100F"/>
<path d="M7.59961 2C7.93085 2 8.19998 2.26842 8.2002 2.59961C8.2002 2.93098 7.93098 3.2002 7.59961 3.2002H4.59961C3.82672 3.20041 3.20041 3.82672 3.2002 4.59961V7.59961C3.2002 7.93098 2.93098 8.2002 2.59961 8.2002C2.26842 8.19998 2 7.93085 2 7.59961V4.59961C2.00021 3.16398 3.16398 2.00021 4.59961 2H7.59961Z" fill="#10100F"/>
<path d="M19.4004 2C20.836 2.00021 21.9998 3.16398 22 4.59961V7.59961C22 7.93085 21.7316 8.19998 21.4004 8.2002C21.069 8.2002 20.7998 7.93098 20.7998 7.59961V4.59961C20.7996 3.82672 20.1733 3.20041 19.4004 3.2002H16.4004C16.069 3.2002 15.7998 2.93098 15.7998 2.59961C15.8 2.26842 16.0691 2 16.4004 2H19.4004Z" fill="#10100F"/>
</svg>
