<svg width="24" height="24" viewBox="0 0 24 24" fill="none" xmlns="http://www.w3.org/2000/svg">
<path d="M7.63574 13.3996C7.99767 13.3996 8.29187 13.6685 8.29199 14.0002V17.053C8.29173 17.3846 7.99759 17.6535 7.63574 17.6535C7.27408 17.6533 6.98073 17.3844 6.98047 17.053V14.0002C6.9806 13.6686 7.274 13.3998 7.63574 13.3996Z" fill="#10100F"/>
<path d="M12.002 13.3996C12.364 13.3996 12.6582 13.6684 12.6582 14.0002V17.052C12.6582 17.3838 12.364 17.6535 12.002 17.6535C11.6401 17.6534 11.3467 17.3837 11.3467 17.052V14.0002C11.3467 13.6685 11.6401 13.3998 12.002 13.3996Z" fill="#10100F"/>
<path d="M16.3643 13.3996C16.7262 13.3997 17.0195 13.6684 17.0195 14.0002V17.052C17.0195 17.3837 16.7262 17.6535 16.3643 17.6535C16.0023 17.6535 15.709 17.3838 15.709 17.052V14.0002C15.709 13.6684 16.0023 13.3996 16.3643 13.3996Z" fill="#10100F"/>
<path fill-rule="evenodd" clip-rule="evenodd" d="M14.3906 3.07541C14.7072 2.91455 15.1067 3.01963 15.2822 3.30979L19.0928 9.60959H23.3447C23.7066 9.60969 24 9.87843 24 10.2102C23.9998 10.5418 23.7065 10.8107 23.3447 10.8108H21.751L20.4111 17.261C19.9602 19.4305 17.89 21.0002 15.4805 21.0002H8.52051C6.111 21.0002 4.04177 19.4305 3.59082 17.261L2.25 10.8108H0.655273C0.293457 10.8107 0.000161011 10.5418 0 10.2102C0 9.87843 0.293358 9.60969 0.655273 9.60959H5.08203L8.89258 3.30979C9.06814 3.0196 9.46759 2.9145 9.78418 3.07541C10.1006 3.23637 10.2146 3.60266 10.0391 3.8928L6.58008 9.60959H17.5947L14.1357 3.8928C13.9602 3.60261 14.074 3.23633 14.3906 3.07541ZM3.58301 10.8108L4.87695 17.0364C5.21027 18.6399 6.73957 19.8 8.52051 19.8H15.4805C17.2615 19.8 18.7918 18.64 19.125 17.0364L20.418 10.8108H3.58301Z" fill="#10100F"/>
</svg>
