<svg width="24" height="24" viewBox="0 0 24 24" fill="none" xmlns="http://www.w3.org/2000/svg">
<path fill-rule="evenodd" clip-rule="evenodd" d="M14.3896 3.07541C14.7061 2.91467 15.1047 3.01976 15.2803 3.30979L19.0908 9.60959H23.3447C23.7066 9.60966 24 9.87841 24 10.2102C23.9998 10.5418 23.7065 10.8107 23.3447 10.8108H21.6572L20.2881 17.716C19.9107 19.6179 18.1029 21.0002 15.9941 21.0002H8.00488C5.89632 21 4.08924 19.6177 3.71191 17.716L2.34277 10.8108H0.655273C0.293462 10.8107 0.000161006 10.5418 0 10.2102C0 9.87841 0.293362 9.60966 0.655273 9.60959H5.08203L8.8916 3.30979C9.06715 3.0196 9.46664 2.9145 9.7832 3.07541C10.0998 3.23633 10.2136 3.60262 10.0381 3.8928L6.5791 9.60959H17.5928L14.1338 3.8928C13.9582 3.60261 14.0731 3.23633 14.3896 3.07541ZM7.63574 13.3996C7.27392 13.3997 6.97962 13.6686 6.97949 14.0002V17.053C6.97976 17.3845 7.27401 17.6535 7.63574 17.6535C7.99738 17.6533 8.29075 17.3844 8.29102 17.053V14.0002C8.29089 13.6686 7.99746 13.3998 7.63574 13.3996ZM12.001 13.3996C11.6391 13.3998 11.3457 13.6685 11.3457 14.0002V17.052C11.3457 17.3837 11.6391 17.6534 12.001 17.6535C12.363 17.6535 12.6562 17.3838 12.6562 17.052V14.0002C12.6562 13.6684 12.363 13.3996 12.001 13.3996ZM16.3623 13.3996C16.0006 13.3999 15.707 13.6686 15.707 14.0002V17.052C15.707 17.3836 16.0006 17.6533 16.3623 17.6535C16.7243 17.6535 17.0176 17.3838 17.0176 17.052V14.0002C17.0176 13.6684 16.7243 13.3996 16.3623 13.3996Z" fill="#10100F"/>
</svg>
