<svg width="24" height="24" viewBox="0 0 24 24" fill="none" xmlns="http://www.w3.org/2000/svg">
<path fill-rule="evenodd" clip-rule="evenodd" d="M12 1C13.1046 1 14 1.89543 14 3V3.79102C16.8913 4.65166 19 7.32909 19 10.5V14.2324C19 14.708 19.3493 15.1007 19.7598 15.3408C20.5014 15.7745 21 16.5789 21 17.5C21 18.8807 19.8807 20 18.5 20H15C15 20.2102 14.9777 20.4153 14.9365 20.6133C14.918 20.7024 14.8954 20.7899 14.8691 20.876C14.8666 20.8842 14.8639 20.8922 14.8613 20.9004C14.8358 20.9815 14.8064 21.0607 14.7744 21.1387C14.7679 21.1546 14.7617 21.1707 14.7549 21.1865C14.753 21.1909 14.7519 21.1959 14.75 21.2002C14.7183 21.2726 14.6826 21.3428 14.6455 21.4121C14.6358 21.4303 14.6253 21.4479 14.6152 21.4658C14.5808 21.5271 14.5444 21.587 14.5059 21.6455C14.492 21.6665 14.4782 21.6874 14.4639 21.708C14.4272 21.7608 14.3886 21.812 14.3486 21.8623C14.3335 21.8814 14.3193 21.9012 14.3037 21.9199C14.2486 21.986 14.1904 22.0493 14.1299 22.1104C14.1182 22.1221 14.1056 22.1329 14.0938 22.1445C14.0447 22.1924 13.9946 22.2388 13.9424 22.2832C13.9204 22.3019 13.8985 22.3208 13.876 22.3389C13.8209 22.3831 13.7643 22.4255 13.7061 22.4658C13.6942 22.4741 13.6829 22.4831 13.6709 22.4912C13.5962 22.5414 13.5187 22.5874 13.4395 22.6309C13.4276 22.6374 13.4153 22.6431 13.4033 22.6494C13.341 22.6825 13.2777 22.7135 13.2129 22.7422C13.1857 22.7542 13.1585 22.7661 13.1309 22.7773C12.972 22.8421 12.8068 22.8937 12.6357 22.9307C12.5101 22.9578 12.3819 22.9774 12.251 22.9883C12.2364 22.9895 12.2217 22.9902 12.207 22.9912C12.1386 22.9959 12.0696 23 12 23C11.9304 23 11.8614 22.9959 11.793 22.9912C11.778 22.9902 11.763 22.9895 11.748 22.9883C11.6171 22.9774 11.4889 22.9578 11.3633 22.9307C11.1923 22.8937 11.027 22.8421 10.8682 22.7773C10.8406 22.7661 10.8133 22.7542 10.7861 22.7422C10.7214 22.7135 10.658 22.6825 10.5957 22.6494C10.5837 22.6431 10.5714 22.6374 10.5596 22.6309C10.4835 22.5891 10.4088 22.5451 10.3369 22.4971L10.3223 22.4873C10.3122 22.4805 10.3029 22.4727 10.293 22.4658C10.2348 22.4255 10.1781 22.3831 10.123 22.3389C10.1005 22.3208 10.0786 22.3019 10.0566 22.2832C10.0045 22.2388 9.95425 22.1924 9.90527 22.1445C9.89341 22.1329 9.88081 22.1221 9.86914 22.1104C9.80864 22.0493 9.75041 21.986 9.69531 21.9199C9.67972 21.9012 9.66554 21.8814 9.65039 21.8623C9.61049 21.812 9.57183 21.7608 9.53516 21.708C9.52084 21.6874 9.50697 21.6665 9.49316 21.6455C9.45466 21.587 9.41821 21.5271 9.38379 21.4658C9.37373 21.4479 9.36322 21.4303 9.35352 21.4121C9.31653 21.3429 9.28159 21.2725 9.25 21.2002C9.24806 21.1958 9.24606 21.191 9.24414 21.1865C9.23732 21.1707 9.23116 21.1546 9.22461 21.1387C9.1926 21.0607 9.16317 20.9814 9.1377 20.9004C9.13513 20.8922 9.13238 20.8842 9.12988 20.876C9.10453 20.7928 9.0826 20.7081 9.06445 20.6221L9.06055 20.6045C9.02061 20.4093 9 20.207 9 20H5.5C4.11929 20 3 18.8807 3 17.5C3 16.5789 3.49863 15.7745 4.24023 15.3408C4.65071 15.1007 5 14.708 5 14.2324V10.5C5 7.32909 7.10867 4.65166 10 3.79102V3C10 1.89543 10.8954 1 12 1ZM10.2002 20C10.2002 20.9941 11.0059 21.7998 12 21.7998C12.9941 21.7998 13.7998 20.9941 13.7998 20H10.2002Z" fill="#10100F"/>
</svg>
