<svg width="24" height="24" viewBox="0 0 24 24" fill="none" xmlns="http://www.w3.org/2000/svg">
<path fill-rule="evenodd" clip-rule="evenodd" d="M17.0005 6.23645C17.0005 5.90595 17.2684 5.63804 17.5989 5.63804H22.402C22.7325 5.63804 23.0005 5.90595 23.0005 6.23645C23.0005 6.56694 22.7325 6.83486 22.402 6.83486H17.5989C17.2684 6.83486 17.0005 6.56694 17.0005 6.23645Z" fill="#10100F"/>
<path fill-rule="evenodd" clip-rule="evenodd" d="M17.0005 8.63003C17.0005 8.29953 17.2684 8.03162 17.5989 8.03162H22.402C22.7325 8.03162 23.0005 8.29953 23.0005 8.63003C23.0005 8.96052 22.7325 9.22844 22.402 9.22844H17.5989C17.2684 9.22844 17.0005 8.96052 17.0005 8.63003Z" fill="#10100F"/>
<path fill-rule="evenodd" clip-rule="evenodd" d="M17.0005 11.0239C17.0005 10.6934 17.2684 10.4255 17.5989 10.4255H22.402C22.7325 10.4255 23.0005 10.6934 23.0005 11.0239C23.0005 11.3544 22.7325 11.6223 22.402 11.6223H17.5989C17.2684 11.6223 17.0005 11.3544 17.0005 11.0239Z" fill="#10100F"/>
<path fill-rule="evenodd" clip-rule="evenodd" d="M17.0005 3.84287C17.0005 3.51237 17.2684 3.24446 17.5989 3.24446H22.402C22.7325 3.24446 23.0005 3.51237 23.0005 3.84287C23.0005 4.17336 22.7325 4.44128 22.402 4.44128H17.5989C17.2684 4.44128 17.0005 4.17336 17.0005 3.84287Z" fill="#10100F"/>
<path fill-rule="evenodd" clip-rule="evenodd" d="M13.0004 4.2H5.43683C3.64918 4.2 2.2 5.64918 2.2 7.43683C2.2 9.22449 3.64918 10.6737 5.43683 10.6737H13.0004C13.4422 10.6737 13.8004 10.3155 13.8004 9.87367V5C13.8004 4.55817 13.4422 4.2 13.0004 4.2ZM5.43683 3C2.98644 3 1 4.98644 1 7.43683C1 9.88723 2.98644 11.8737 5.43683 11.8737H13.0004C14.105 11.8737 15.0004 10.9782 15.0004 9.87367V5C15.0004 3.89543 14.105 3 13.0004 3L5.43683 3Z" fill="#10100F"/>
<path fill-rule="evenodd" clip-rule="evenodd" d="M4.4149 10.5727L5.19551 18.1837C5.28968 19.1018 6.06311 19.8 6.98612 19.8H9.50357C10.6068 19.8 11.4504 18.8167 11.2826 17.7263L10.1976 10.6737H13.0004C13.4422 10.6737 13.8004 10.3155 13.8004 9.87367V5C13.8004 4.55817 13.4422 4.2 13.0004 4.2H5.43683C3.64918 4.2 2.2 5.64918 2.2 7.43683C2.2 8.65316 2.87079 9.71455 3.86795 10.2687L4.4149 10.5727ZM13.0004 11.8737C14.105 11.8737 15.0004 10.9782 15.0004 9.87367V5C15.0004 3.89543 14.105 3 13.0004 3L5.43683 3C2.98644 3 1 4.98644 1 7.43683C1 9.10626 1.92242 10.5603 3.28501 11.3176L4.00177 18.3061C4.15873 19.8364 5.44778 21 6.98612 21H9.50357C11.3422 21 12.7483 19.3611 12.4687 17.5438L11.5963 11.8737H13.0004Z" fill="#10100F"/>
</svg>
