<svg width="24" height="24" viewBox="0 0 24 24" fill="none" xmlns="http://www.w3.org/2000/svg">
<path fill-rule="evenodd" clip-rule="evenodd" d="M10.894 3.06985L4.59032 12.9193H10.994C12.4299 12.9193 13.594 14.0833 13.594 15.5193V20.8531L19.4342 11.1193H13.494C12.058 11.1193 10.894 9.95523 10.894 8.51929V3.06985ZM10.6201 1.27157C11.051 0.598357 12.094 0.903523 12.094 1.70281V8.51929C12.094 9.29249 12.7208 9.91929 13.494 9.91929H20.1407C20.7626 9.91929 21.1466 10.5977 20.8267 11.1309L13.88 22.7088C13.4625 23.4046 12.394 23.1086 12.394 22.2972V15.5193C12.394 14.7461 11.7672 14.1193 10.994 14.1193H3.85941C3.22721 14.1193 2.8448 13.4205 3.18559 12.888L10.6201 1.27157Z" fill="#10100F"/>
</svg>
