<svg width="24" height="24" viewBox="0 0 24 24" fill="none" xmlns="http://www.w3.org/2000/svg">
<path fill-rule="evenodd" clip-rule="evenodd" d="M17 2.15154H7C5.4536 2.15154 4.2 3.40514 4.2 4.95154V21.0444C4.2 21.7591 5.06572 22.1152 5.56852 21.6073L10.4366 16.6901C11.2975 15.8205 12.7025 15.8205 13.5634 16.6901L18.4315 21.6073C18.9343 22.1152 19.8 21.7591 19.8 21.0444V4.95154C19.8 3.40514 18.5464 2.15154 17 2.15154ZM7 0.951538C4.79086 0.951538 3 2.7424 3 4.95154V21.0444C3 22.8311 5.16431 23.7212 6.4213 22.4515L11.2893 17.5343C11.6807 17.139 12.3193 17.139 12.7107 17.5343L17.5787 22.4515C18.8357 23.7212 21 22.8311 21 21.0444V4.95154C21 2.7424 19.2091 0.951538 17 0.951538H7Z" fill="#10100F"/>
</svg>
