<svg width="24" height="24" viewBox="0 0 24 24" fill="none" xmlns="http://www.w3.org/2000/svg">
<path d="M14.9995 9.40039C15.3309 9.40039 15.6001 9.66864 15.6001 10C15.6001 10.3314 15.3309 10.5996 14.9995 10.5996H10.4995C10.1683 10.5994 9.8999 10.3312 9.8999 10C9.89992 9.66879 10.1684 9.40063 10.4995 9.40039H14.9995Z" fill="#10100F"/>
<path d="M16.9995 6.40039C17.3309 6.40039 17.6001 6.66864 17.6001 7C17.6001 7.33137 17.3309 7.59961 16.9995 7.59961H10.4995C10.1683 7.59937 9.8999 7.33122 9.8999 7C9.89992 6.66879 10.1684 6.40063 10.4995 6.40039H16.9995Z" fill="#10100F"/>
<path fill-rule="evenodd" clip-rule="evenodd" d="M18.4995 1C19.9353 1 21.0999 2.16385 21.1001 3.59961V16.0996H21.064C20.9815 16.3325 20.7606 16.5 20.4995 16.5H19.1001V21.7998H20.4995C20.8309 21.7998 21.1001 22.069 21.1001 22.4004C21.0998 22.7315 20.8307 23 20.4995 23H6.74951C4.62358 22.9998 2.90015 21.2763 2.8999 19.1504C2.8999 19.1336 2.90066 19.1164 2.90088 19.0996L2.8999 5.59961C2.90011 3.05941 4.95931 1.00021 7.49951 1H18.4995ZM6.74951 16.5C5.28616 16.5002 4.1001 17.687 4.1001 19.1504C4.10035 20.6136 5.28632 21.7996 6.74951 21.7998H17.8999V16.5H6.74951ZM6.3999 2.38184C5.06208 2.839 4.10027 4.10697 4.1001 5.59961V16.3584C4.71111 15.7782 5.51164 15.3955 6.3999 15.3154V2.38184ZM7.6001 15.2998H19.8999V3.59961C19.8997 2.82659 19.2726 2.2002 18.4995 2.2002H7.6001V15.2998Z" fill="#10100F"/>
</svg>
