<svg width="24" height="24" viewBox="0 0 24 24" fill="none" xmlns="http://www.w3.org/2000/svg">
<path fill-rule="evenodd" clip-rule="evenodd" d="M13.0415 1.03223H18.4468C19.8705 1.03247 21.0247 2.19624 21.0249 3.63184V16.0781H21.0161C20.978 16.3724 20.7314 16.5996 20.4292 16.5996H19.0415V21.7998H20.4292C20.7578 21.7998 21.0239 22.069 21.0239 22.4004C21.0237 22.7316 20.7577 23 20.4292 23H6.79346C4.6849 23 2.97531 21.2765 2.9751 19.1504C2.9751 19.1001 2.97711 19.0497 2.979 19H2.9751V5.5C2.9751 3.33862 4.45409 1.52527 6.44678 1.03223V16.623C5.15921 16.7942 4.16553 17.8054 4.16553 19.1504C4.16574 20.6138 5.34215 21.7998 6.79346 21.7998H17.8511V16.5996H7.63623V1L13.0415 1.03223ZM10.5122 9.40039C10.1838 9.40059 9.91748 9.66875 9.91748 10C9.91749 10.3312 10.1838 10.5994 10.5122 10.5996H14.9751C15.3037 10.5996 15.5708 10.3314 15.5708 10C15.5708 9.66863 15.3037 9.40039 14.9751 9.40039H10.5122ZM10.5122 6.40039C10.1838 6.40059 9.91748 6.66876 9.91748 7C9.9175 7.33123 10.1838 7.59941 10.5122 7.59961H16.9585C17.2871 7.59961 17.5542 7.33136 17.5542 7C17.5542 6.66863 17.2871 6.40039 16.9585 6.40039H10.5122Z" fill="#10100F"/>
</svg>
