<svg width="24" height="24" viewBox="0 0 24 24" fill="none" xmlns="http://www.w3.org/2000/svg">
<path fill-rule="evenodd" clip-rule="evenodd" d="M9.5 2C10.1131 2 10.6893 2.15764 11.1904 2.43457C11.257 2.47135 11.3272 2.50152 11.3984 2.52832V21.4707C11.3271 21.4975 11.2571 21.5286 11.1904 21.5654C10.6893 21.8424 10.1131 22 9.5 22C7.567 22 6 20.433 6 18.5C6 18.2309 5.7691 18 5.5 18C3.567 18 2 16.433 2 14.5C2 13.8869 2.15764 13.3107 2.43457 12.8096C2.70559 12.3193 2.70559 11.6807 2.43457 11.1904C2.15764 10.6893 2 10.1131 2 9.5C2 7.567 3.567 6 5.5 6C5.7691 6 6 5.7691 6 5.5C6 3.567 7.567 2 9.5 2ZM6 13.5625C5.66881 13.5627 5.40039 13.8309 5.40039 14.1621C5.40044 14.4933 5.66884 14.7615 6 14.7617C7.03939 14.7617 7.89257 15.6149 7.89258 16.6543C7.89258 16.9857 8.16179 17.2539 8.49316 17.2539C8.82432 17.2537 9.09277 16.9855 9.09277 16.6543C9.09276 14.9522 7.70213 13.5625 6 13.5625ZM8.49316 7.15723C8.16192 7.15723 7.89279 7.42564 7.89258 7.75684C7.89258 8.79623 7.0394 9.64941 6 9.64941C5.66881 9.64962 5.40039 9.91876 5.40039 10.25C5.40064 10.581 5.66896 10.8494 6 10.8496C6.59268 10.8496 7.14567 10.6773 7.61719 10.3857C7.95938 11.0796 8.67275 11.5605 9.49609 11.5605C9.82732 11.5604 10.0957 11.2912 10.0957 10.96C10.0956 10.6288 9.82726 10.3605 9.49609 10.3604C9.00504 10.3604 8.60064 9.95589 8.60059 9.46484C8.60059 9.45236 8.59743 9.44003 8.59668 9.42773C8.90882 8.94503 9.09277 8.37187 9.09277 7.75684C9.09256 7.4258 8.82419 7.15748 8.49316 7.15723Z" fill="#10100F"/>
<path fill-rule="evenodd" clip-rule="evenodd" d="M14.5 2C16.433 2 18 3.567 18 5.5C18 5.7691 18.2309 6 18.5 6C20.433 6 22 7.567 22 9.5C22 10.1131 21.8424 10.6893 21.5654 11.1904C21.2944 11.6807 21.2944 12.3193 21.5654 12.8096C21.8424 13.3107 22 13.8869 22 14.5C22 16.433 20.433 18 18.5 18C18.2309 18 18 18.2309 18 18.5C18 20.433 16.433 22 14.5 22C13.8869 22 13.3107 21.8424 12.8096 21.5654C12.742 21.5281 12.671 21.4968 12.5986 21.4697V2.5293C12.6709 2.50227 12.7421 2.47185 12.8096 2.43457C13.3107 2.15764 13.8869 2 14.5 2ZM14.5039 12.9053C14.1727 12.9055 13.9043 13.1736 13.9043 13.5049C13.9043 13.8361 14.1727 14.1043 14.5039 14.1045C14.9878 14.1045 15.3868 14.4973 15.3984 14.9785C15.0845 15.4622 14.9004 16.0373 14.9004 16.6543C14.9004 16.9855 15.1688 17.2537 15.5 17.2539C15.8314 17.2539 16.1006 16.9857 16.1006 16.6543C16.1006 15.6149 16.9538 14.7617 17.9932 14.7617C18.3243 14.7615 18.5927 14.4933 18.5928 14.1621C18.5928 13.8309 18.3243 13.5628 17.9932 13.5625C17.3942 13.5625 16.8351 13.7369 16.3604 14.0342C16.0099 13.3646 15.3094 12.9053 14.5039 12.9053ZM15.5 7.15723C15.1689 7.15744 14.9006 7.42578 14.9004 7.75684C14.9004 9.45898 16.291 10.8496 17.9932 10.8496C18.3242 10.8494 18.5925 10.581 18.5928 10.25C18.5928 9.91878 18.3243 9.64967 17.9932 9.64941C16.9538 9.64941 16.1006 8.79623 16.1006 7.75684C16.1004 7.42564 15.8312 7.15723 15.5 7.15723Z" fill="#10100F"/>
</svg>
