<svg width="24" height="24" viewBox="0 0 24 24" fill="none" xmlns="http://www.w3.org/2000/svg">
<path d="M6 13.5625C7.70213 13.5625 9.09276 14.9522 9.09277 16.6543C9.09277 16.9855 8.82432 17.2537 8.49316 17.2539C8.16179 17.2539 7.89258 16.9857 7.89258 16.6543C7.89257 15.6149 7.03939 14.7617 6 14.7617C5.66884 14.7615 5.40044 14.4933 5.40039 14.1621C5.40039 13.8309 5.66881 13.5627 6 13.5625Z" fill="#10100F"/>
<path d="M8.49316 7.15723C8.82419 7.15748 9.09256 7.4258 9.09277 7.75684C9.09277 8.37187 8.90882 8.94503 8.59668 9.42773C8.59743 9.44003 8.60059 9.45236 8.60059 9.46484C8.60064 9.95589 9.00504 10.3604 9.49609 10.3604C9.82726 10.3605 10.0956 10.6288 10.0957 10.96C10.0957 11.2912 9.82732 11.5604 9.49609 11.5605C8.67275 11.5605 7.95938 11.0796 7.61719 10.3857C7.14567 10.6773 6.59268 10.8496 6 10.8496C5.66896 10.8494 5.40064 10.581 5.40039 10.25C5.40039 9.91876 5.66881 9.64962 6 9.64941C7.0394 9.64941 7.89258 8.79623 7.89258 7.75684C7.89279 7.42564 8.16192 7.15723 8.49316 7.15723Z" fill="#10100F"/>
<path d="M14.5039 12.9053C15.3094 12.9053 16.0099 13.3646 16.3604 14.0342C16.8351 13.7369 17.3942 13.5625 17.9932 13.5625C18.3243 13.5628 18.5928 13.8309 18.5928 14.1621C18.5927 14.4933 18.3243 14.7615 17.9932 14.7617C16.9538 14.7617 16.1006 15.6149 16.1006 16.6543C16.1006 16.9857 15.8314 17.2539 15.5 17.2539C15.1688 17.2537 14.9004 16.9855 14.9004 16.6543C14.9004 16.0373 15.0845 15.4622 15.3984 14.9785C15.3868 14.4973 14.9878 14.1045 14.5039 14.1045C14.1727 14.1043 13.9043 13.8361 13.9043 13.5049C13.9043 13.1736 14.1727 12.9055 14.5039 12.9053Z" fill="#10100F"/>
<path d="M15.5 7.15723C15.8312 7.15723 16.1004 7.42564 16.1006 7.75684C16.1006 8.79623 16.9538 9.64941 17.9932 9.64941C18.3243 9.64967 18.5928 9.91878 18.5928 10.25C18.5925 10.581 18.3242 10.8494 17.9932 10.8496C16.291 10.8496 14.9004 9.45898 14.9004 7.75684C14.9006 7.42578 15.1689 7.15744 15.5 7.15723Z" fill="#10100F"/>
<path fill-rule="evenodd" clip-rule="evenodd" d="M14.5 2C16.433 2 18 3.567 18 5.5C18 5.7691 18.2309 6 18.5 6C20.433 6 22 7.567 22 9.5C22 10.1131 21.8424 10.6893 21.5654 11.1904C21.2944 11.6807 21.2944 12.3193 21.5654 12.8096C21.8424 13.3107 22 13.8869 22 14.5C22 16.433 20.433 18 18.5 18C18.2309 18 18 18.2309 18 18.5C18 20.433 16.433 22 14.5 22C13.8869 22 13.3107 21.8424 12.8096 21.5654C12.6271 21.4646 12.4239 21.4018 12.2158 21.376H11.7842C11.5761 21.4018 11.3729 21.4646 11.1904 21.5654C10.6893 21.8424 10.1131 22 9.5 22C7.567 22 6 20.433 6 18.5C6 18.2309 5.7691 18 5.5 18C3.567 18 2 16.433 2 14.5C2 13.8869 2.15764 13.3107 2.43457 12.8096C2.70559 12.3193 2.70559 11.6807 2.43457 11.1904C2.15764 10.6893 2 10.1131 2 9.5C2 7.567 3.567 6 5.5 6C5.7691 6 6 5.7691 6 5.5C6 3.567 7.567 2 9.5 2C10.1131 2 10.6893 2.15764 11.1904 2.43457C11.6807 2.70559 12.3193 2.70559 12.8096 2.43457C13.3107 2.15764 13.8869 2 14.5 2ZM9.5 3.2002C8.22974 3.2002 7.2002 4.22975 7.2002 5.5C7.2002 6.43184 6.43184 7.2002 5.5 7.2002C4.22975 7.2002 3.2002 8.22974 3.2002 9.5C3.2002 9.90501 3.30405 10.2824 3.48535 10.6104C3.95584 11.4618 3.95584 12.5382 3.48535 13.3896C3.30405 13.7176 3.2002 14.095 3.2002 14.5C3.2002 15.7703 4.22975 16.7998 5.5 16.7998C6.43184 16.7998 7.2002 17.5682 7.2002 18.5C7.2002 19.7703 8.22974 20.7998 9.5 20.7998C9.90501 20.7998 10.2824 20.6959 10.6104 20.5146C10.8577 20.378 11.1242 20.2819 11.3984 20.2246V3.77441C11.1243 3.71714 10.8576 3.62198 10.6104 3.48535C10.2824 3.30405 9.90501 3.2002 9.5 3.2002ZM14.5 3.2002C14.095 3.2002 13.7176 3.30405 13.3896 3.48535C13.1415 3.62245 12.8738 3.71722 12.5986 3.77441V20.2246C12.8739 20.2818 13.1415 20.3775 13.3896 20.5146C13.7176 20.6959 14.095 20.7998 14.5 20.7998C15.7703 20.7998 16.7998 19.7703 16.7998 18.5C16.7998 17.5682 17.5682 16.7998 18.5 16.7998C19.7703 16.7998 20.7998 15.7703 20.7998 14.5C20.7998 14.095 20.6959 13.7176 20.5146 13.3896C20.0442 12.5382 20.0442 11.4618 20.5146 10.6104C20.6959 10.2824 20.7998 9.90501 20.7998 9.5C20.7998 8.22974 19.7703 7.2002 18.5 7.2002C17.5682 7.2002 16.7998 6.43184 16.7998 5.5C16.7998 4.22975 15.7703 3.2002 14.5 3.2002Z" fill="#10100F"/>
</svg>
