<svg width="24" height="24" viewBox="0 0 24 24" fill="none" xmlns="http://www.w3.org/2000/svg">
<path d="M3.43262 13.7555C4.66673 14.637 6.34362 14.5628 7.49512 13.5758L7.78027 13.3307C8.45099 12.7559 9.45146 12.7941 10.0762 13.4186C11.1443 14.4867 12.8551 14.553 14.002 13.57L14.1582 13.4352C14.8978 12.8014 16.0006 12.8442 16.6895 13.5329C17.6984 14.5418 19.2704 14.7206 20.4805 13.9645L22 13.0143V17.9948C22 20.2039 20.2091 21.9948 18 21.9948H6L5.79395 21.9899C3.68056 21.8827 2 20.1348 2 17.9948V12.7321L3.43262 13.7555Z" fill="#10100F"/>
<path d="M18 7.99479C20.0797 7.99479 21.7883 9.58193 21.9814 11.611L19.8447 12.9469C19.1085 13.407 18.1519 13.2981 17.5381 12.6842C16.4058 11.5521 14.5927 11.482 13.377 12.5241L13.2207 12.6589C12.55 13.2337 11.5495 13.1954 10.9248 12.571C9.8567 11.5029 8.1459 11.4366 6.99902 12.4196L6.71387 12.6647C5.98149 13.2924 4.9148 13.3396 4.12988 12.779L2.34961 11.5065C2.2565 11.44 2.15029 11.4058 2.04395 11.3981C2.33201 9.47197 3.99362 7.99479 6 7.99479H18Z" fill="#10100F"/>
<path d="M10.763 2.74989C11.2887 1.75687 12.7113 1.75687 13.237 2.74989L14.3945 4.93634C15.3498 6.74077 14.0417 8.91338 12 8.91338C9.95829 8.91338 8.6502 6.74077 9.60549 4.93633L10.763 2.74989Z" fill="#10100F"/>
</svg>
