<svg width="24" height="24" viewBox="0 0 24 24" fill="none" xmlns="http://www.w3.org/2000/svg">
<path fill-rule="evenodd" clip-rule="evenodd" d="M10.763 2.74463C11.2887 1.75172 12.7112 1.75186 13.237 2.74463L14.395 4.93132C14.9611 6.00064 14.7323 7.19975 14.0272 7.99894H18.0002C20.2092 7.99902 22 9.78999 22 11.9992V17.9997C21.9999 20.2088 20.2092 21.9999 18.0002 22H5.99984C3.79085 21.9999 2.00012 20.2088 2 17.9997V11.9992C2 9.78999 3.79077 7.99903 5.99984 7.99894H9.97363C9.26832 7.19973 9.03966 6.00077 9.60579 4.93132L10.763 2.74463ZM10.0762 13.4232C9.45145 12.7985 8.45119 12.7603 7.78044 13.3353L7.42318 13.6419C6.31228 14.5942 4.71622 14.7288 3.46159 13.976L3.20036 13.8187V17.9997C3.20048 19.5461 4.45359 20.7996 5.99984 20.7997H18.0002C19.5464 20.7996 20.7995 19.5461 20.7996 17.9997V13.8187L20.4733 14.015C19.2592 14.7435 17.705 14.5524 16.7038 13.5511C16.0071 12.8544 14.8917 12.8114 14.1436 13.4525L14.002 13.5746C12.8551 14.5577 11.1443 14.4914 10.0762 13.4232ZM5.99984 9.19922C4.45351 9.19931 3.20036 10.4528 3.20036 11.9992V12.4329C3.23759 12.4461 3.27423 12.4635 3.30941 12.4846L4.07926 12.9466C4.89094 13.4335 5.92324 13.3467 6.64193 12.7307L6.99919 12.4241C8.14607 11.441 9.85686 11.5063 10.925 12.5745C11.5497 13.1992 12.5499 13.2382 13.2207 12.6634L13.3623 12.5413C14.5865 11.4919 16.4125 11.5622 17.5526 12.7024C18.1644 13.3142 19.1137 13.4307 19.8556 12.9856L20.6914 12.4846C20.7262 12.4637 20.7628 12.447 20.7996 12.4338V11.9992C20.7996 10.4528 19.5465 9.19931 18.0002 9.19922H5.99984ZM12.1766 3.3062C12.1015 3.16471 11.8984 3.16461 11.8234 3.3062L10.6662 5.49289C10.134 6.49815 10.8627 7.70874 12 7.70888C13.1374 7.70888 13.866 6.4982 13.3338 5.49289L12.1766 3.3062Z" fill="#10100F"/>
</svg>
