<svg width="24" height="24" viewBox="0 0 24 24" fill="none" xmlns="http://www.w3.org/2000/svg">
<path fill-rule="evenodd" clip-rule="evenodd" d="M11.4004 22H6C3.79086 22 2 20.2091 2 18V12.5996H11.4004V22ZM8.6748 15C8.4405 14.7657 8.06049 14.7657 7.82617 15L6.76758 16.0576L5.70996 15C5.47565 14.7657 5.09564 14.7657 4.86133 15C4.62701 15.2343 4.62701 15.6143 4.86133 15.8486L5.91895 16.9062L4.82617 18C4.59186 18.2343 4.59186 18.6143 4.82617 18.8486C5.06049 19.0829 5.44052 19.0829 5.6748 18.8486L6.76758 17.7549L7.86133 18.8486C8.09565 19.0829 8.47567 19.0829 8.70996 18.8486C8.94423 18.6143 8.94419 18.2343 8.70996 18L7.61621 16.9062L8.6748 15.8486C8.90907 15.6143 8.90904 15.2343 8.6748 15Z" fill="#10100F"/>
<path fill-rule="evenodd" clip-rule="evenodd" d="M22 18C22 20.2091 20.2091 22 18 22H12.6006V12.5996H22V18ZM15.9004 17.2998C15.5692 17.3 15.3008 17.5691 15.3008 17.9004C15.301 18.2315 15.5693 18.4998 15.9004 18.5H18.9004C19.2316 18.5 19.5008 18.2316 19.501 17.9004C19.501 17.569 19.2318 17.2998 18.9004 17.2998H15.9004ZM15.9023 15.2998C15.5712 15.3 15.3027 15.5691 15.3027 15.9004C15.3029 16.2315 15.5713 16.4998 15.9023 16.5H18.9023C19.2336 16.5 19.5027 16.2316 19.5029 15.9004C19.5029 15.569 19.2337 15.2998 18.9023 15.2998H15.9023Z" fill="#10100F"/>
<path fill-rule="evenodd" clip-rule="evenodd" d="M11.4004 11.3994H2V6C2 3.79086 3.79086 2 6 2H11.4004V11.3994ZM5.27734 6.40039C4.94618 6.40064 4.67773 6.66878 4.67773 7C4.67773 7.33122 4.94618 7.59936 5.27734 7.59961H8.27734C8.60871 7.59961 8.87793 7.33137 8.87793 7C8.87793 6.66863 8.60871 6.40039 8.27734 6.40039H5.27734Z" fill="#10100F"/>
<path fill-rule="evenodd" clip-rule="evenodd" d="M18 2C20.2091 2 22 3.79086 22 6V11.3994H12.6006V2H18ZM17.4004 4.90039C17.069 4.90039 16.7998 5.16863 16.7998 5.5V6.40039H15.9023C15.5712 6.4006 15.3027 6.66876 15.3027 7C15.3028 7.3312 15.5712 7.5994 15.9023 7.59961H16.7998V8.5C16.7998 8.83137 17.069 9.09961 17.4004 9.09961C17.7316 9.0994 18 8.83124 18 8.5V7.59961H18.9023C19.2337 7.59961 19.5029 7.33133 19.5029 7C19.5029 6.66863 19.2337 6.40039 18.9023 6.40039H18V5.5C18 5.16876 17.7316 4.9006 17.4004 4.90039Z" fill="#10100F"/>
</svg>
