<svg width="24" height="24" viewBox="0 0 24 24" fill="none" xmlns="http://www.w3.org/2000/svg">
<path d="M8.57617 14.5C8.81049 14.2657 9.1905 14.2657 9.4248 14.5C9.65904 14.7343 9.65907 15.1143 9.4248 15.3486L8.34863 16.4238L9.4248 17.5C9.65904 17.7343 9.65907 18.1143 9.4248 18.3486C9.19052 18.5829 8.81049 18.5829 8.57617 18.3486L7.5 17.2725L6.4248 18.3486C6.19052 18.5829 5.81049 18.5829 5.57617 18.3486C5.34186 18.1143 5.34186 17.7343 5.57617 17.5L6.65137 16.4238L5.57617 15.3486C5.34186 15.1143 5.34186 14.7343 5.57617 14.5C5.81049 14.2657 6.1905 14.2657 6.4248 14.5L7.5 15.5752L8.57617 14.5Z" fill="#10100F"/>
<path d="M18.1006 16.7998C18.4317 16.8001 18.7002 17.0692 18.7002 17.4004C18.7 17.7314 18.4316 17.9997 18.1006 18H15.1006C14.7693 18 14.5002 17.7316 14.5 17.4004C14.5 17.069 14.7692 16.7998 15.1006 16.7998H18.1006Z" fill="#10100F"/>
<path d="M18.0996 14.7998C18.431 14.7998 18.7002 15.069 18.7002 15.4004C18.7 15.7316 18.4308 16 18.0996 16H15.0996C14.7685 15.9998 14.5002 15.7315 14.5 15.4004C14.5 15.0691 14.7684 14.8 15.0996 14.7998H18.0996Z" fill="#10100F"/>
<path d="M9 6.7998C9.33124 6.7998 9.60038 7.06822 9.60059 7.39941C9.60059 7.73078 9.33137 8 9 8H6C5.66881 7.99979 5.40039 7.73065 5.40039 7.39941C5.4006 7.06835 5.66894 6.80002 6 6.7998H9Z" fill="#10100F"/>
<path d="M16.5996 5.2998C16.9308 5.30002 17.1992 5.56915 17.1992 5.90039V6.7998H18.0996C18.431 6.7998 18.7002 7.06902 18.7002 7.40039C18.7 7.73158 18.4308 8 18.0996 8H17.1992V8.90039C17.199 9.23145 16.9307 9.49979 16.5996 9.5C16.2684 9.5 15.9992 9.23158 15.999 8.90039V8H15.0996C14.7685 7.99979 14.5002 7.73145 14.5 7.40039C14.5 7.06915 14.7684 6.80002 15.0996 6.7998H15.999V5.90039C15.999 5.56902 16.2682 5.2998 16.5996 5.2998Z" fill="#10100F"/>
<path fill-rule="evenodd" clip-rule="evenodd" d="M18 2C20.2091 2 22 3.79086 22 6V18C22 20.2091 20.2091 22 18 22H6C3.79086 22 2 20.2091 2 18V6C2 3.79086 3.79086 2 6 2H18ZM3.2002 12.5996V18C3.2002 19.5464 4.4536 20.7998 6 20.7998H11.4004V12.5996H3.2002ZM12.6006 12.5996V20.7998H18C19.5464 20.7998 20.7998 19.5464 20.7998 18V12.5996H12.6006ZM6 3.2002C4.4536 3.2002 3.2002 4.4536 3.2002 6V11.3994H11.4004V3.2002H6ZM12.6006 11.3994H20.7998V6C20.7998 4.4536 19.5464 3.2002 18 3.2002H12.6006V11.3994Z" fill="#10100F"/>
</svg>
