<svg width="24" height="24" viewBox="0 0 24 24" fill="none" xmlns="http://www.w3.org/2000/svg">
<path fill-rule="evenodd" clip-rule="evenodd" d="M22 18.0249C22 20.2249 20.2091 22.0083 18 22.0083H6L5.79395 22.0034C3.68056 21.8966 2.00001 20.1561 2 18.0249V9.16162H22V18.0249ZM6.5 16.0327C6.22397 16.0327 6.00019 16.2559 6 16.5308V17.5269C6 17.7676 6.17145 17.9688 6.39941 18.0151L6.5 18.0249H7.5C7.77614 18.0249 8 17.8019 8 17.5269V16.5308C7.99981 16.2559 7.77603 16.0327 7.5 16.0327H6.5ZM11.5 16.0327C11.224 16.0327 11.0002 16.2559 11 16.5308V17.5269C11 17.7676 11.1714 17.9688 11.3994 18.0151L11.5 18.0249H12.5C12.7761 18.0249 13 17.8019 13 17.5269V16.5308C12.9998 16.2559 12.776 16.0327 12.5 16.0327H11.5ZM16.5 16.0327C16.224 16.0327 16.0002 16.2559 16 16.5308V17.5269C16 17.7676 16.1714 17.9688 16.3994 18.0151L16.5 18.0249H17.5C17.7761 18.0249 18 17.8019 18 17.5269V16.5308C17.9998 16.2559 17.776 16.0327 17.5 16.0327H16.5ZM6.5 12.0493C6.22397 12.0493 6.00018 12.2725 6 12.5474V13.5435C6 13.7842 6.17145 13.9854 6.39941 14.0317L6.5 14.0415H7.5C7.77614 14.0415 8 13.8185 8 13.5435V12.5474C7.99982 12.2725 7.77603 12.0493 7.5 12.0493H6.5ZM11.5 12.0493C11.224 12.0493 11.0002 12.2725 11 12.5474V13.5435C11 13.7842 11.1714 13.9854 11.3994 14.0317L11.5 14.0415H12.5C12.7761 14.0415 13 13.8185 13 13.5435V12.5474C12.9998 12.2725 12.776 12.0493 12.5 12.0493H11.5ZM16.5 12.0493C16.224 12.0493 16.0002 12.2725 16 12.5474V13.5435C16 13.7842 16.1714 13.9854 16.3994 14.0317L16.5 14.0415H17.5C17.7761 14.0415 18 13.8185 18 13.5435V12.5474C17.9998 12.2725 17.776 12.0493 17.5 12.0493H16.5Z" fill="#10100F"/>
<path d="M15.5 1.9917C15.8314 1.9917 16.0996 2.25936 16.0996 2.58936V4.08252H18L18.2031 4.08838C18.2319 4.08981 18.2605 4.09221 18.2891 4.09424C18.3089 4.09565 18.3288 4.09644 18.3486 4.09814C18.4427 4.10624 18.5358 4.11786 18.6279 4.13232C18.6456 4.13509 18.6631 4.13812 18.6807 4.14111C18.7606 4.15476 18.8397 4.17066 18.918 4.18896C18.9342 4.19276 18.9506 4.19571 18.9668 4.19971C19.0556 4.22166 19.1431 4.24715 19.2295 4.2749C19.2498 4.28143 19.2699 4.28857 19.29 4.29541C19.3703 4.32264 19.4495 4.3522 19.5273 4.38428C19.546 4.39195 19.5645 4.39977 19.583 4.40771C19.6498 4.43642 19.7154 4.46734 19.7803 4.49951C19.8053 4.51194 19.8307 4.52369 19.8555 4.53662C19.9333 4.57728 20.0093 4.62099 20.084 4.6665C20.0915 4.67107 20.099 4.67557 20.1064 4.68018C20.1787 4.72483 20.2493 4.77178 20.3184 4.8208C20.331 4.82974 20.344 4.83809 20.3564 4.84717C20.431 4.90136 20.5028 4.95899 20.5732 5.01807C20.5807 5.02431 20.5883 5.03033 20.5957 5.03662C20.6662 5.09654 20.7347 5.15857 20.8008 5.22314C20.8136 5.23569 20.8262 5.24851 20.8389 5.26123C20.8912 5.31378 20.9418 5.36797 20.9912 5.42334C21.0063 5.44021 21.0214 5.457 21.0361 5.47412C21.0922 5.53916 21.1464 5.60574 21.1982 5.67432C21.2084 5.68772 21.2176 5.7018 21.2275 5.71533C21.3958 5.94396 21.5405 6.1906 21.6572 6.45264C21.6664 6.47328 21.6747 6.49431 21.6836 6.51514C21.7554 6.68407 21.8161 6.85867 21.8643 7.03857C21.8686 7.05481 21.8728 7.07108 21.877 7.0874C21.8958 7.16178 21.9121 7.23701 21.9268 7.31299C21.9305 7.33222 21.9351 7.35128 21.9385 7.37061C21.9528 7.4515 21.9643 7.53323 21.9736 7.61572C21.9766 7.64201 21.979 7.66838 21.9814 7.69482C21.9898 7.78453 21.9968 7.87497 21.999 7.96631H2.00098L2.01074 7.76611C2.01253 7.74227 2.01537 7.71855 2.01758 7.69482C2.02003 7.66839 2.02242 7.642 2.02539 7.61572C2.03472 7.53325 2.04624 7.45148 2.06055 7.37061C2.06396 7.35129 2.06857 7.33221 2.07227 7.31299C2.08687 7.23703 2.1032 7.16177 2.12207 7.0874C2.12621 7.07109 2.13042 7.05481 2.13477 7.03857C2.18287 6.85871 2.24364 6.68404 2.31543 6.51514C2.32433 6.49419 2.33352 6.4734 2.34277 6.45264C2.45946 6.19078 2.60342 5.94383 2.77148 5.71533C2.78144 5.7018 2.79066 5.68772 2.80078 5.67432C2.85256 5.60574 2.90687 5.53916 2.96289 5.47412C2.97764 5.457 2.99278 5.44021 3.00781 5.42334C3.13059 5.28559 3.26266 5.15629 3.40332 5.03662C3.41072 5.03033 3.41834 5.02431 3.42578 5.01807C3.49625 4.95899 3.56808 4.90136 3.64258 4.84717C3.65506 4.83809 3.66807 4.82974 3.68066 4.8208C3.74972 4.77178 3.82036 4.72484 3.89258 4.68018C3.90003 4.67557 3.90755 4.67107 3.91504 4.6665C3.98973 4.62098 4.06574 4.57729 4.14355 4.53662C4.16831 4.52368 4.19369 4.51194 4.21875 4.49951C4.2836 4.46733 4.34922 4.43643 4.41602 4.40771C4.4345 4.39977 4.45305 4.39195 4.47168 4.38428C4.54956 4.35219 4.62872 4.32265 4.70898 4.29541C4.72914 4.28857 4.74923 4.28143 4.76953 4.2749C4.85589 4.24713 4.94341 4.22168 5.03223 4.19971C5.04839 4.19571 5.06482 4.19277 5.08105 4.18896C5.15929 4.17065 5.23842 4.15478 5.31836 4.14111C5.33591 4.13811 5.35347 4.1351 5.37109 4.13232C5.4632 4.11784 5.55631 4.10626 5.65039 4.09814C5.67019 4.09644 5.69008 4.09566 5.70996 4.09424C5.73887 4.09218 5.7678 4.08983 5.79688 4.08838L6 4.08252H7.90039V2.58936C7.90039 2.25937 8.16864 1.99171 8.5 1.9917C8.83137 1.9917 9.09961 2.25936 9.09961 2.58936V4.08252H14.9004V2.58936C14.9004 2.25937 15.1686 1.99171 15.5 1.9917Z" fill="#10100F"/>
</svg>
