<svg width="24" height="24" viewBox="0 0 24 24" fill="none" xmlns="http://www.w3.org/2000/svg">
<path d="M7.5 16.0327C7.77603 16.0327 7.99981 16.2559 8 16.5308V17.5269C8 17.8019 7.77614 18.0249 7.5 18.0249H6.5C6.22386 18.0249 6 17.8019 6 17.5269V16.5308C6.00019 16.2559 6.22397 16.0327 6.5 16.0327H7.5Z" fill="#10100F"/>
<path d="M12.5 16.0327C12.776 16.0327 12.9998 16.2559 13 16.5308V17.5269C13 17.8019 12.7761 18.0249 12.5 18.0249H11.5C11.2239 18.0249 11 17.8019 11 17.5269V16.5308C11.0002 16.2559 11.224 16.0327 11.5 16.0327H12.5Z" fill="#10100F"/>
<path d="M17.5 16.0327C17.776 16.0327 17.9998 16.2559 18 16.5308V17.5269C18 17.8019 17.7761 18.0249 17.5 18.0249H16.5C16.2239 18.0249 16 17.8019 16 17.5269V16.5308C16.0002 16.2559 16.224 16.0327 16.5 16.0327H17.5Z" fill="#10100F"/>
<path d="M7.5 12.0493C7.77603 12.0493 7.99982 12.2725 8 12.5474V13.5435C8 13.8185 7.77614 14.0415 7.5 14.0415H6.5C6.22386 14.0415 6 13.8185 6 13.5435V12.5474C6.00018 12.2725 6.22397 12.0493 6.5 12.0493H7.5Z" fill="#10100F"/>
<path d="M12.5 12.0493C12.776 12.0493 12.9998 12.2725 13 12.5474V13.5435C13 13.8185 12.7761 14.0415 12.5 14.0415H11.5C11.2239 14.0415 11 13.8185 11 13.5435V12.5474C11.0002 12.2725 11.224 12.0493 11.5 12.0493H12.5Z" fill="#10100F"/>
<path d="M17.5 12.0493C17.776 12.0493 17.9998 12.2725 18 12.5474V13.5435C18 13.8185 17.7761 14.0415 17.5 14.0415H16.5C16.2239 14.0415 16 13.8185 16 13.5435V12.5474C16.0002 12.2725 16.224 12.0493 16.5 12.0493H17.5Z" fill="#10100F"/>
<path fill-rule="evenodd" clip-rule="evenodd" d="M15.5 1.9917C15.8314 1.9917 16.0996 2.25936 16.0996 2.58936V4.08252H18C20.209 4.08252 21.9998 5.86615 22 8.06592V17.9751C22 20.1751 20.2091 21.9585 18 21.9585H6C3.79086 21.9585 2 20.1751 2 17.9751V8.06592C2.00025 5.86615 3.79101 4.08252 6 4.08252H7.90039V2.58936C7.90039 2.25937 8.16864 1.99171 8.5 1.9917C8.83137 1.9917 9.09961 2.25936 9.09961 2.58936V4.08252H14.9004V2.58936C14.9004 2.25937 15.1686 1.99171 15.5 1.9917ZM3.2002 17.9751C3.2002 19.5151 4.4536 20.7632 6 20.7632H18C19.5464 20.7632 20.7998 19.5151 20.7998 17.9751V9.16162H3.2002V17.9751ZM6 5.27783C4.48695 5.27783 3.25754 6.47325 3.20508 7.96729H20.7949C20.7425 6.47325 19.5131 5.27783 18 5.27783H16.0996V6.07471C16.0996 6.4047 15.8314 6.67236 15.5 6.67236C15.1686 6.67235 14.9004 6.40469 14.9004 6.07471V5.27783H9.09961V6.07471C9.0996 6.4047 8.83137 6.67236 8.5 6.67236C8.16865 6.67235 7.9004 6.40469 7.90039 6.07471V5.27783H6Z" fill="#10100F"/>
</svg>
