<svg width="24" height="24" viewBox="0 0 24 24" fill="none" xmlns="http://www.w3.org/2000/svg">
<path fill-rule="evenodd" clip-rule="evenodd" d="M12 8C14.7614 8 17 10.2386 17 13C17 15.7614 14.7614 18 12 18C9.23858 18 7 15.7614 7 13C7 10.2386 9.23858 8 12 8ZM12 9.2002C9.90132 9.2002 8.2002 10.9013 8.2002 13C8.2002 15.0987 9.90132 16.7998 12 16.7998C14.0987 16.7998 15.7998 15.0987 15.7998 13C15.7998 10.9013 14.0987 9.2002 12 9.2002Z" fill="#10100F"/>
<path d="M19.5 8C19.8312 8.00001 20.0994 8.26842 20.0996 8.59961C20.0996 8.93098 19.8314 9.20019 19.5 9.2002H17.5C17.1688 9.19998 16.9004 8.93085 16.9004 8.59961C16.9006 8.26855 17.1689 8.00021 17.5 8H19.5Z" fill="#10100F"/>
<path fill-rule="evenodd" clip-rule="evenodd" d="M13.8057 3C14.7832 3 15.6175 3.70669 15.7783 4.6709C15.8099 4.86063 15.9746 5 16.167 5H19C21.2091 5 23 6.79086 23 9V17C23 19.2091 21.2091 21 19 21H5C2.79086 21 1 19.2091 1 17V9C1 6.79086 2.79086 5 5 5H7.83301C8.02536 5 8.19006 4.86063 8.22168 4.6709C8.38254 3.70669 9.21677 3 10.1943 3H13.8057ZM10.1943 4.2002C9.80338 4.2002 9.4697 4.48258 9.40527 4.86816C9.27721 5.63653 8.61197 6.2002 7.83301 6.2002H5C3.4536 6.2002 2.2002 7.4536 2.2002 9V17C2.2002 18.5464 3.4536 19.7998 5 19.7998H19C20.5464 19.7998 21.7998 18.5464 21.7998 17V9C21.7998 7.4536 20.5464 6.2002 19 6.2002H16.167C15.388 6.2002 14.7228 5.63653 14.5947 4.86816C14.5303 4.48258 14.1966 4.2002 13.8057 4.2002H10.1943Z" fill="#10100F"/>
</svg>
