<svg width="24" height="24" viewBox="0 0 24 24" fill="none" xmlns="http://www.w3.org/2000/svg">
<path d="M12 9.2002C14.0987 9.2002 15.7998 10.9013 15.7998 13C15.7998 15.0987 14.0987 16.7998 12 16.7998C9.90132 16.7998 8.2002 15.0987 8.2002 13C8.2002 10.9013 9.90132 9.2002 12 9.2002Z" fill="#10100F"/>
<path fill-rule="evenodd" clip-rule="evenodd" d="M13.8057 3C14.7832 3 15.6175 3.70669 15.7783 4.6709C15.8099 4.86063 15.9746 5 16.167 5H19C21.2091 5 23 6.79086 23 9V17C23 19.2091 21.2091 21 19 21H5C2.79086 21 1 19.2091 1 17V9C1 6.79086 2.79086 5 5 5H7.83301C8.02536 5 8.19006 4.86063 8.22168 4.6709C8.38254 3.70669 9.21677 3 10.1943 3H13.8057ZM12 8C9.23858 8 7 10.2386 7 13C7 15.7614 9.23858 18 12 18C14.7614 18 17 15.7614 17 13C17 10.2386 14.7614 8 12 8ZM17.5 8C17.1689 8.00021 16.9006 8.26855 16.9004 8.59961C16.9004 8.93085 17.1688 9.19998 17.5 9.2002H19.5C19.8314 9.20019 20.0996 8.93098 20.0996 8.59961C20.0994 8.26842 19.8312 8.00001 19.5 8H17.5Z" fill="#10100F"/>
</svg>
