<svg width="24" height="24" viewBox="0 0 24 24" fill="none" xmlns="http://www.w3.org/2000/svg">
<path d="M15.5762 7.57617C15.8105 7.34188 16.1895 7.34187 16.4238 7.57617C16.6581 7.81048 16.6581 8.18951 16.4238 8.42383L12.8477 12L16.4238 15.5762C16.6581 15.8105 16.6581 16.1895 16.4238 16.4238C16.1895 16.6581 15.8105 16.6581 15.5762 16.4238L12 12.8477L8.42383 16.4238C8.18951 16.6581 7.81049 16.6581 7.57617 16.4238C7.34187 16.1895 7.34186 15.8105 7.57617 15.5762L11.1523 12L7.57617 8.42383C7.34186 8.18952 7.34187 7.81049 7.57617 7.57617C7.81049 7.34186 8.18951 7.34186 8.42383 7.57617L12 11.1523L15.5762 7.57617Z" fill="#10100F"/>
<path fill-rule="evenodd" clip-rule="evenodd" d="M12 1C18.0751 1 23 5.92487 23 12C23 18.0751 18.0751 23 12 23C5.92487 23 1 18.0751 1 12C1 5.92487 5.92487 1 12 1ZM12 2.2002C6.58761 2.2002 2.2002 6.58761 2.2002 12C2.2002 17.4124 6.58761 21.7998 12 21.7998C17.4124 21.7998 21.7998 17.4124 21.7998 12C21.7998 6.58761 17.4124 2.2002 12 2.2002Z" fill="#10100F"/>
</svg>
