<svg width="24" height="24" viewBox="0 0 24 24" fill="none" xmlns="http://www.w3.org/2000/svg">
<path d="M11.0244 3C15.9949 3 20.0244 7.02944 20.0244 12C20.0244 16.9706 15.9949 21 11.0244 21C8.33476 21 5.92146 19.8196 4.27242 17.9492C3.93394 17.5653 4.22835 17 4.74019 17C4.92962 17.0001 5.10831 17.085 5.23531 17.2256C6.66267 18.806 8.7271 19.7998 11.0244 19.7998C15.3322 19.7998 18.8242 16.3078 18.8242 12C18.8242 7.69218 15.3322 4.2002 11.0244 4.2002C6.85378 4.2002 3.4471 7.47319 3.23433 11.5908L4.17574 10.6514C4.41005 10.4171 4.79005 10.4171 5.02437 10.6514C5.25864 10.8857 5.25867 11.2657 5.02437 11.5L3.02437 13.5L2.93062 13.5771C2.69773 13.731 2.38081 13.705 2.17574 13.5L0.175736 11.5C-0.0585787 11.2657 -0.0585786 10.8857 0.175736 10.6514C0.410051 10.4171 0.790054 10.4171 1.02437 10.6514L2.03218 11.6592C2.21139 6.84657 6.16794 3 11.0244 3Z" fill="#10100F"/>
<path d="M11.0244 7.40039C11.3556 7.40039 11.6247 7.66881 11.625 8V8.90039H11.7402C12.3083 8.90039 12.8531 9.12657 13.2548 9.52832C13.4888 9.76264 13.489 10.1418 13.2548 10.376C13.0206 10.61 12.6405 10.61 12.4062 10.376C12.2295 10.1995 11.9899 10.1006 11.7402 10.1006H10.5722C10.1552 10.1006 9.81737 10.4385 9.81734 10.8555C9.8176 11.2723 10.1554 11.6103 10.5722 11.6104H11.4755C12.5552 11.6104 13.4304 12.4858 13.4306 13.5654C13.4304 14.5947 12.6348 15.4364 11.625 15.5127V16.2207C11.6245 16.5517 11.3555 16.8203 11.0244 16.8203C10.6934 16.8201 10.4252 16.5516 10.4248 16.2207V15.5205H10.121C9.67281 15.5205 9.24177 15.3423 8.92476 15.0254L8.79292 14.8936C8.55869 14.6593 8.55885 14.2793 8.79292 14.0449C9.02724 13.8107 9.40726 13.8106 9.64156 14.0449L9.77339 14.1777C9.86536 14.2695 9.9911 14.3213 10.121 14.3213H11.4755C11.8924 14.3213 12.2302 13.9823 12.2304 13.5654C12.2302 13.1486 11.8925 12.8105 11.4755 12.8105H10.5722C9.49262 12.8105 8.61741 11.935 8.61714 10.8555C8.61718 9.82538 9.41396 8.9827 10.4248 8.90723V8C10.425 7.66894 10.6933 7.4006 11.0244 7.40039Z" fill="#10100F"/>
</svg>
