<svg width="24" height="24" viewBox="0 0 24 24" fill="none" xmlns="http://www.w3.org/2000/svg">
<path d="M9.27637 2.37598C9.64666 2.27154 10 2.56053 10 2.94531C9.99987 3.22823 9.80382 3.47149 9.53223 3.55078C5.87346 4.61765 3.20026 7.99675 3.2002 12C3.2002 16.86 7.13992 20.7998 12 20.7998C16.0034 20.7998 19.3824 18.1266 20.4492 14.4678C20.5285 14.196 20.7726 14 21.0557 14C21.4403 14.0003 21.7286 14.3534 21.624 14.7236C20.4381 18.9227 16.5786 22 12 22C6.47718 22 2 17.5228 2 12C2.00006 7.42152 5.07743 3.56198 9.27637 2.37598Z" fill="#10100F"/>
<path fill-rule="evenodd" clip-rule="evenodd" d="M12.8145 1C18.4396 1 23 5.56042 23 11.1855C22.9998 11.6353 22.6353 11.9998 22.1855 12H14C12.8954 12 12 11.1046 12 10V1.81445C12.0002 1.36473 12.3647 1.0002 12.8145 1ZM13.2002 10C13.2002 10.4418 13.5582 10.7998 14 10.7998H21.792C21.5955 6.14398 17.856 2.40447 13.2002 2.20801V10Z" fill="#10100F"/>
</svg>
