<svg width="24" height="24" viewBox="0 0 24 24" fill="none" xmlns="http://www.w3.org/2000/svg">
<path d="M6 12C7.10457 12 8 12.8954 8 14V20C8 21.1046 7.10457 22 6 22H4L3.7959 21.9893C2.78722 21.887 2 21.0357 2 20V14C2 12.8954 2.89543 12 4 12H6Z" fill="#10100F"/>
<path d="M13 13C14.1046 13 15 13.8954 15 15V20C15 21.1046 14.1046 22 13 22H11L10.7959 21.9893C9.78722 21.887 9 21.0357 9 20V15C9 13.8954 9.89543 13 11 13H13Z" fill="#10100F"/>
<path d="M20 8C21.1046 8 22 8.89543 22 10V20C22 21.1046 21.1046 22 20 22H18L17.7959 21.9893C16.7872 21.887 16 21.0357 16 20V10C16 8.89543 16.8954 8 18 8H20Z" fill="#10100F"/>
<path fill-rule="evenodd" clip-rule="evenodd" d="M19 2C20.1046 2 21 2.89543 21 4C21 5.10457 20.1046 6 19 6C18.6079 6 18.2433 5.8854 17.9346 5.69043C17.9375 5.69226 17.9404 5.69447 17.9434 5.69629L13.8398 9.21387C13.8169 9.16025 13.7911 9.10767 13.7637 9.05664C13.9143 9.3377 14 9.65881 14 10C14 11.1046 13.1046 12 12 12C10.8954 12 10 11.1046 10 10C10 9.66612 10.0829 9.3519 10.2275 9.0752L8.28418 7.13184C8.12797 6.97563 7.87398 6.97563 7.71777 7.13184L6.77246 8.07617C6.91688 8.35269 7 8.66643 7 9C7 10.1046 6.10457 11 5 11C3.89543 11 3 10.1046 3 9C3 7.89543 3.89543 7 5 7C5.33357 7 5.64731 7.08312 5.92383 7.22754L6.86914 6.2832C7.4939 5.65844 8.50698 5.65859 9.13184 6.2832L11.0752 8.22656C11.3518 8.08202 11.6663 8 12 8C12.3921 8 12.7567 8.1146 13.0654 8.30957C13.0625 8.30769 13.0596 8.30557 13.0566 8.30371L17.1602 4.78711C17.1842 4.84328 17.2113 4.89786 17.2402 4.95117C17.087 4.66829 17 4.34431 17 4C17 2.89543 17.8954 2 19 2ZM12 9.2002C11.5582 9.2002 11.2002 9.55817 11.2002 10C11.2002 10.4418 11.5582 10.7998 12 10.7998C12.4418 10.7998 12.7998 10.4418 12.7998 10C12.7998 9.55817 12.4418 9.2002 12 9.2002ZM5 8.2002C4.55817 8.2002 4.2002 8.55817 4.2002 9C4.2002 9.44183 4.55817 9.7998 5 9.7998C5.44183 9.7998 5.7998 9.44183 5.7998 9C5.7998 8.55817 5.44183 8.2002 5 8.2002ZM19 3.2002C18.5582 3.2002 18.2002 3.55817 18.2002 4C18.2002 4.44183 18.5582 4.7998 19 4.7998C19.4418 4.7998 19.7998 4.44183 19.7998 4C19.7998 3.55817 19.4418 3.2002 19 3.2002Z" fill="#10100F"/>
</svg>
