<svg width="24" height="24" viewBox="0 0 24 24" fill="none" xmlns="http://www.w3.org/2000/svg">
<path fill-rule="evenodd" clip-rule="evenodd" d="M10.5 2.16001C10.5 2.10088 10.4486 2.05465 10.3898 2.06115C5.38942 2.61344 1.5 6.85262 1.5 12.0002C1.5 17.5231 5.97715 22.0002 11.5 22.0002C16.6477 22.0002 20.887 18.1106 21.4391 13.11C21.4456 13.0512 21.3994 12.9998 21.3403 12.9998H12.5C11.3954 12.9998 10.5 12.1044 10.5 10.9998V2.16001Z" fill="#10100F"/>
<path d="M11.5 1.81481C11.5 1.3648 11.8648 1 12.3148 1C17.9399 1 22.5 5.56006 22.5 11.1852C22.5 11.6352 22.1352 12 21.6852 12H13.5C12.3954 12 11.5 11.1046 11.5 10V1.81481Z" fill="#10100F"/>
<path fill-rule="evenodd" clip-rule="evenodd" d="M21.2919 10.8C21.0955 6.14402 17.356 2.40448 12.7 2.20811V10C12.7 10.4418 13.0582 10.8 13.5 10.8H21.2919ZM12.3148 1C11.8648 1 11.5 1.3648 11.5 1.81481V10C11.5 11.1046 12.3954 12 13.5 12H21.6852C22.1352 12 22.5 11.6352 22.5 11.1852C22.5 5.56006 17.9399 1 12.3148 1Z" fill="#10100F"/>
</svg>
