<svg width="24" height="24" viewBox="0 0 24 24" fill="none" xmlns="http://www.w3.org/2000/svg">
<path fill-rule="evenodd" clip-rule="evenodd" d="M5.9502 8.80012C7.05476 8.80012 7.9502 9.69555 7.9502 10.8001V19.8001C7.94993 20.9045 7.0546 21.8001 5.9502 21.8001H3.9502C2.84579 21.8001 1.95046 20.9045 1.9502 19.8001V10.8001C1.9502 9.69555 2.84563 8.80012 3.9502 8.80012H5.9502ZM3.9502 9.99933C3.50837 9.99933 3.15039 10.3583 3.15039 10.8001V19.8001C3.15065 20.2417 3.50853 20.5999 3.9502 20.5999H5.9502C6.39186 20.5999 6.74974 20.2417 6.75 19.8001V10.8001C6.75 10.3583 6.39202 9.99933 5.9502 9.99933H3.9502Z" fill="#10100F"/>
<path fill-rule="evenodd" clip-rule="evenodd" d="M12.9502 12.8001C14.0548 12.8001 14.9502 13.6955 14.9502 14.8001V19.8001C14.9499 20.9045 14.0546 21.8001 12.9502 21.8001H10.9502C9.84579 21.8001 8.95046 20.9045 8.9502 19.8001V14.8001C8.9502 13.6955 9.84563 12.8001 10.9502 12.8001H12.9502ZM10.9502 13.9993C10.5084 13.9993 10.1504 14.3583 10.1504 14.8001V19.8001C10.1507 20.2417 10.5085 20.5999 10.9502 20.5999H12.9502C13.3919 20.5999 13.7497 20.2417 13.75 19.8001V14.8001C13.75 14.3583 13.392 13.9993 12.9502 13.9993H10.9502Z" fill="#10100F"/>
<path fill-rule="evenodd" clip-rule="evenodd" d="M19.9502 10.8001C21.0548 10.8001 21.9502 11.6955 21.9502 12.8001V19.8001C21.9499 20.9045 21.0546 21.8001 19.9502 21.8001H17.9502C16.8458 21.8001 15.9505 20.9045 15.9502 19.8001V12.8001C15.9502 11.6955 16.8456 10.8001 17.9502 10.8001H19.9502ZM17.9502 11.9993C17.5084 11.9993 17.1504 12.3583 17.1504 12.8001V19.8001C17.1507 20.2417 17.5085 20.5999 17.9502 20.5999H19.9502C20.3919 20.5999 20.7497 20.2417 20.75 19.8001V12.8001C20.75 12.3583 20.392 11.9993 19.9502 11.9993H17.9502Z" fill="#10100F"/>
<path d="M2.51465 2.38801C2.74217 2.1471 3.12139 2.13607 3.3623 2.36359L11.6836 10.222C11.8365 10.3664 12.075 10.3675 12.2295 10.2249L17.2891 5.555C17.9505 4.94454 18.9853 4.9998 19.5781 5.67707L20.8496 7.13019V4.79914C20.8498 4.46795 21.119 4.19953 21.4502 4.19953C21.7813 4.19974 22.0496 4.46808 22.0498 4.79914V8.59992C22.0496 9.04151 21.6916 9.39962 21.25 9.39973H17.4502C17.1188 9.39973 16.8496 9.13051 16.8496 8.79914C16.8498 8.46795 17.119 8.19953 17.4502 8.19953H20.1904L18.6758 6.46711C18.5276 6.29772 18.2679 6.28417 18.1025 6.43683L13.0439 11.1068C12.4259 11.6773 11.4709 11.6726 10.8594 11.095L2.53906 3.23566C2.29818 3.00817 2.28722 2.62892 2.51465 2.38801Z" fill="#10100F"/>
</svg>
