<svg width="24" height="24" viewBox="0 0 24 24" fill="none" xmlns="http://www.w3.org/2000/svg">
<path d="M5.9502 8.80012C7.05476 8.80012 7.9502 9.69555 7.9502 10.8001V19.8001C7.94993 20.9045 7.0546 21.8001 5.9502 21.8001H3.9502L3.74609 21.7894C2.73757 21.6871 1.95044 20.8355 1.9502 19.8001V10.8001C1.9502 9.69555 2.84563 8.80012 3.9502 8.80012H5.9502Z" fill="#10100F"/>
<path d="M12.9502 12.8001C14.0548 12.8001 14.9502 13.6955 14.9502 14.8001V19.8001C14.9499 20.9045 14.0546 21.8001 12.9502 21.8001H10.9502L10.7461 21.7894C9.73757 21.6871 8.95044 20.8355 8.9502 19.8001V14.8001C8.9502 13.6955 9.84563 12.8001 10.9502 12.8001H12.9502Z" fill="#10100F"/>
<path d="M19.9502 10.8001C21.0548 10.8001 21.9502 11.6955 21.9502 12.8001V19.8001C21.9499 20.9045 21.0546 21.8001 19.9502 21.8001H17.9502L17.7461 21.7894C16.7376 21.6871 15.9504 20.8355 15.9502 19.8001V12.8001C15.9502 11.6955 16.8456 10.8001 17.9502 10.8001H19.9502Z" fill="#10100F"/>
<path d="M2.51465 2.38801C2.74217 2.1471 3.12139 2.13607 3.3623 2.36359L11.6836 10.222C11.8365 10.3664 12.075 10.3675 12.2295 10.2249L17.2891 5.555C17.9505 4.94454 18.9853 4.9998 19.5781 5.67707L20.8496 7.13019V4.79914C20.8498 4.46795 21.119 4.19953 21.4502 4.19953C21.7813 4.19974 22.0496 4.46808 22.0498 4.79914V8.59992C22.0496 9.04151 21.6916 9.39962 21.25 9.39973H17.4502C17.1188 9.39973 16.8496 9.13051 16.8496 8.79914C16.8498 8.46795 17.119 8.19953 17.4502 8.19953H20.1904L18.6758 6.46711C18.5276 6.29772 18.2679 6.28417 18.1025 6.43683L13.0439 11.1068C12.4259 11.6773 11.4709 11.6726 10.8594 11.095L2.53906 3.23566C2.29818 3.00817 2.28722 2.62892 2.51465 2.38801Z" fill="#10100F"/>
</svg>
