<svg width="24" height="24" viewBox="0 0 24 24" fill="none" xmlns="http://www.w3.org/2000/svg">
<path fill-rule="evenodd" clip-rule="evenodd" d="M6 11C7.10457 11 8 11.8954 8 13V20C8 21.1046 7.10457 22 6 22H4C2.89543 22 2 21.1046 2 20V13C2 11.8954 2.89543 11 4 11H6ZM4 12.2002C3.55817 12.2002 3.2002 12.5582 3.2002 13V20C3.2002 20.4418 3.55817 20.7998 4 20.7998H6C6.44183 20.7998 6.7998 20.4418 6.7998 20V13C6.7998 12.5582 6.44183 12.2002 6 12.2002H4Z" fill="#10100F"/>
<path fill-rule="evenodd" clip-rule="evenodd" d="M13 14C14.1046 14 15 14.8954 15 16V20C15 21.1046 14.1046 22 13 22H11C9.89543 22 9 21.1046 9 20V16C9 14.8954 9.89543 14 11 14H13ZM11 15.2002C10.5582 15.2002 10.2002 15.5582 10.2002 16V20C10.2002 20.4418 10.5582 20.7998 11 20.7998H13C13.4418 20.7998 13.7998 20.4418 13.7998 20V16C13.7998 15.5582 13.4418 15.2002 13 15.2002H11Z" fill="#10100F"/>
<path fill-rule="evenodd" clip-rule="evenodd" d="M20 9C21.1046 9 22 9.89543 22 11V20C22 21.1046 21.1046 22 20 22H18C16.8954 22 16 21.1046 16 20V11C16 9.89543 16.8954 9 18 9H20ZM18 10.2002C17.5582 10.2002 17.2002 10.5582 17.2002 11V20C17.2002 20.4418 17.5582 20.7998 18 20.7998H20C20.4418 20.7998 20.7998 20.4418 20.7998 20V11C20.7998 10.5582 20.4418 10.2002 20 10.2002H18Z" fill="#10100F"/>
<path d="M21.2002 2C21.6419 2.00011 21.9999 2.35813 22 2.7998V6.59961C22 6.93085 21.7316 7.19998 21.4004 7.2002C21.069 7.2002 20.7998 6.93098 20.7998 6.59961V4.14941L13.1309 11.2627C12.5359 11.826 11.6113 11.8486 10.9893 11.3154L5.45312 6.58105C5.29443 6.44503 5.05698 6.45377 4.90918 6.60156L3.06445 8.44727C2.83018 8.68129 2.45007 8.68132 2.21582 8.44727C1.98158 8.21303 1.98173 7.83297 2.21582 7.59863L4.06152 5.75293C4.65271 5.16203 5.59872 5.12596 6.2334 5.66992L11.7705 10.4043C11.926 10.5375 12.1569 10.5322 12.3057 10.3916L20.0586 3.2002H17.4004C17.069 3.2002 16.7998 2.93098 16.7998 2.59961C16.8 2.26842 17.0691 2 17.4004 2H21.2002Z" fill="#10100F"/>
</svg>
