<svg width="24" height="24" viewBox="0 0 24 24" fill="none" xmlns="http://www.w3.org/2000/svg">
<path d="M18.9998 8.56379C20.6567 8.56379 21.9998 9.91224 21.9998 11.5755V21.2122C21.9998 21.7252 21.5146 22.0988 21.0213 21.9652L18.5906 21.306C18.3609 21.2437 18.1235 21.2122 17.8855 21.2122H9.99981C8.34295 21.2122 6.99981 19.8638 6.99981 18.2005V14.1175H8.2V18.2005C8.2 19.1985 9.00569 20.0081 9.99981 20.0081H17.8855C18.2291 20.0081 18.5714 20.053 18.9031 20.1429L20.7996 20.6575V11.5755C20.7996 10.5776 19.9939 9.76887 18.9998 9.76887H15.9998V8.56379H18.9998Z" fill="#10100F"/>
<path fill-rule="evenodd" clip-rule="evenodd" d="M5 3.21239L13.9998 3.21239C14.9939 3.21239 15.7998 4.0214 15.7998 5.01936V11.6449C15.7998 12.6429 14.9939 13.4519 13.9998 13.4519L6.11431 13.4519C5.77074 13.4519 5.42868 13.4974 5.09699 13.5873L3.2 14.1011V5.01936C3.2 4.0214 4.00589 3.21239 5 3.21239ZM5 2.00775L13.9998 2.00774C15.6567 2.00774 16.9998 3.35609 16.9998 5.01936V11.6449C16.9998 13.3082 15.6567 14.6565 13.9998 14.6565L6.11431 14.6565C5.87632 14.6565 5.63938 14.6881 5.40961 14.7503L2.97846 15.4089C2.48514 15.5425 2 15.1695 2 14.6565V5.01936C2 3.35609 3.34315 2.00775 5 2.00775Z" fill="#10100F"/>
</svg>
