<svg width="24" height="24" viewBox="0 0 24 24" fill="none" xmlns="http://www.w3.org/2000/svg">
<path fill-rule="evenodd" clip-rule="evenodd" d="M18.0046 1.9989C20.2113 1.99916 21.9998 3.7892 21.9998 5.99695V21.3309C21.9998 21.7328 21.6512 22.0371 21.2634 21.9969C21.1943 22.0036 21.1228 22.0006 21.0505 21.9843L17.3533 21.1464C17.1522 21.1008 16.9475 21.0719 16.7419 21.0604L16.5359 21.0546H6.01733C3.81719 21.0546 2.03075 19.2752 2.02124 17.0741L1.99976 12.0741V5.99695C1.99976 3.78904 3.78897 1.9989 5.99585 1.9989H18.0046ZM7.95874 14.8915C7.62778 14.8915 7.35923 15.16 7.35913 15.4911C7.35913 15.8223 7.62772 16.0907 7.95874 16.0907H15.8093C16.1401 16.0904 16.408 15.8221 16.408 15.4911C16.4079 15.1601 16.1401 14.8917 15.8093 14.8915H7.95874ZM11.9558 10.8934C11.6249 10.8934 11.3564 11.1621 11.3562 11.493C11.3562 11.8242 11.6248 12.0936 11.9558 12.0936H15.9509C16.2819 12.0936 16.5505 11.8242 16.5505 11.493C16.5503 11.1621 16.2818 10.8934 15.9509 10.8934H11.9558ZM7.95972 6.89636C7.6287 6.89636 7.36011 7.16479 7.36011 7.49597C7.36024 7.82705 7.62877 8.09558 7.95972 8.09558H15.8103C16.141 8.09533 16.4088 7.82689 16.4089 7.49597C16.4089 7.16494 16.1411 6.89661 15.8103 6.89636H7.95972Z" fill="#10100F"/>
</svg>
