<svg width="24" height="24" viewBox="0 0 24 24" fill="none" xmlns="http://www.w3.org/2000/svg">
<path d="M15.8831 14.8915C16.2163 14.8917 16.4865 15.1601 16.4866 15.4911C16.4866 15.8222 16.2164 16.0905 15.8831 16.0907H7.97388C7.64037 16.0907 7.36938 15.8223 7.36938 15.4911C7.36948 15.16 7.64043 14.8915 7.97388 14.8915H15.8831Z" fill="#10100F"/>
<path d="M16.0256 10.8934C16.359 10.8934 16.6299 11.1621 16.6301 11.493C16.6301 11.8242 16.3591 12.0936 16.0256 12.0936H12.0002C11.6667 12.0936 11.3967 11.8242 11.3967 11.493C11.397 11.1621 11.6669 10.8934 12.0002 10.8934H16.0256Z" fill="#10100F"/>
<path d="M15.884 6.89636C16.2174 6.89656 16.4875 7.16491 16.4875 7.49597C16.4874 7.82693 16.2173 8.09539 15.884 8.09558H7.97485C7.64142 8.09558 7.37049 7.82705 7.37036 7.49597C7.37036 7.16479 7.64134 6.89636 7.97485 6.89636H15.884Z" fill="#10100F"/>
<path fill-rule="evenodd" clip-rule="evenodd" d="M18.1165 1.9989C20.3397 1.99906 22.1418 3.78914 22.1418 5.99695V21.3348C22.1417 21.7643 21.7404 22.083 21.3186 21.9882L17.593 21.1493C17.323 21.0886 17.0466 21.0585 16.7698 21.0585H6.05981C3.84326 21.0583 2.04386 19.2782 2.03442 17.077L2.01294 12.0741V5.99695C2.01294 3.78918 3.81513 1.99913 6.03833 1.9989H18.1165ZM6.03833 3.19812C4.48215 3.19835 3.22095 4.45156 3.22095 5.99695V12.0741L3.24243 17.0721C3.24903 18.6129 4.50827 19.8581 6.05981 19.8583H16.7698C17.1366 19.8583 17.5029 19.8989 17.8606 19.9794L20.9338 20.6718V5.99695C20.9338 4.45151 19.6727 3.19828 18.1165 3.19812H6.03833Z" fill="#10100F"/>
</svg>
