<svg width="24" height="24" viewBox="0 0 24 24" fill="none" xmlns="http://www.w3.org/2000/svg">
<path d="M19 8.57754C20.6568 8.57764 22 9.92074 22 11.5775V21.1771C21.9997 21.6878 21.5145 22.06 21.0215 21.9271L18.5908 21.2709C18.4184 21.2244 18.2414 21.1947 18.0635 21.183L17.8857 21.1771H10C8.34331 21.1771 7.00026 19.8338 7 18.1771V15.6469H14C16.2087 15.6468 17.9995 13.8555 18 11.6469V8.57754H19Z" fill="#10100F"/>
<path d="M14.1543 2.05019C15.7394 2.1306 17 3.44125 17 5.04629V11.6459C17 13.3027 15.6568 14.6458 14 14.6459H6.11426C5.87629 14.6459 5.63893 14.6776 5.40918 14.7396L2.97852 15.3959C2.94756 15.4042 2.91652 15.41 2.88574 15.4144C2.82458 15.4233 2.76413 15.4247 2.70508 15.4193C2.32034 15.3842 2 15.0611 2 14.6459V5.04629C2 3.38943 3.34315 2.04629 5 2.04629H14C14.0517 2.04629 14.1032 2.0476 14.1543 2.05019Z" fill="#10100F"/>
</svg>
