<svg width="24" height="24" viewBox="0 0 24 24" fill="none" xmlns="http://www.w3.org/2000/svg">
<path d="M12.5166 12.4135C12.8594 12.4135 13.1379 12.682 13.1379 13.0137C13.1379 13.3454 12.8594 13.614 12.5166 13.614H7.34426C7.00169 13.6138 6.72404 13.3453 6.72398 13.0137C6.72398 12.6822 7.00165 12.4137 7.34426 12.4135H12.5166Z" fill="#10100F"/>
<path d="M17.689 8.9098C18.0318 8.9098 18.3103 9.17832 18.3103 9.51004C18.3102 9.84172 18.0318 10.1103 17.689 10.1103H7.34426C7.00169 10.1101 6.72404 9.84159 6.72398 9.51004C6.72398 9.17845 7.00165 8.91001 7.34426 8.9098H17.689Z" fill="#10100F"/>
<path d="M17.689 5.40609C18.0318 5.40609 18.3103 5.67461 18.3103 6.00633C18.3102 6.33801 18.0318 6.60658 17.689 6.60658H7.34426C7.00169 6.60637 6.72404 6.33788 6.72398 6.00633C6.72398 5.67474 7.00165 5.4063 7.34426 5.40609H17.689Z" fill="#10100F"/>
<path fill-rule="evenodd" clip-rule="evenodd" d="M17.1718 1.00104C19.7997 1.00104 21.9307 3.0625 21.931 5.60552V20.1463C21.9309 21.7219 20.6103 22.9989 18.9821 22.9989H5.59859C3.64916 22.9987 2.0689 21.4697 2.06885 19.5832V17.8939C2.06885 17.1514 2.55309 16.518 3.23263 16.274V5.60552C3.23285 3.06263 5.36304 1.00125 7.99081 1.00104H17.1718ZM3.85291 17.368C3.55315 17.3682 3.31042 17.6038 3.31042 17.8939V19.5832C3.31047 20.8062 4.33475 21.7982 5.59859 21.7984H16.5919C16.4419 21.5792 16.3219 21.343 16.2272 21.1034C15.8396 20.1227 15.8166 18.9511 15.8686 18.0943C15.8933 17.6832 15.5656 17.368 15.2352 17.368H3.85291ZM7.99081 2.2025C6.04863 2.20272 4.47442 3.72607 4.4742 5.60552V16.1675H15.2352C16.3732 16.1675 17.169 17.1573 17.1081 18.1647C17.059 18.9741 17.0957 19.9373 17.3869 20.6742C17.5295 21.0346 17.7208 21.3099 17.9618 21.4944C18.1946 21.6725 18.5146 21.7984 18.9821 21.7984C19.9247 21.7984 20.6893 21.0585 20.6894 20.1463V5.60552C20.6892 3.72594 19.1141 2.2025 17.1718 2.2025H7.99081Z" fill="#10100F"/>
</svg>
