<svg width="24" height="24" viewBox="0 0 24 24" fill="none" xmlns="http://www.w3.org/2000/svg">
<path d="M15.2352 17.3957C15.5657 17.3958 15.8925 17.7095 15.8676 18.119C15.8156 18.9724 15.8394 20.1389 16.2272 21.1155C16.4242 21.6116 16.7271 22.0893 17.192 22.4434C17.6651 22.8037 18.2631 23.0031 18.9821 23.0031H5.59859C3.64913 23.0029 2.06885 21.4794 2.06885 19.6007V17.9185C2.06889 17.7361 2.09908 17.5606 2.15371 17.3957H15.2352Z" fill="#10100F"/>
<path fill-rule="evenodd" clip-rule="evenodd" d="M17.1718 0.996887C19.7997 0.996887 21.9307 3.04973 21.931 5.58213V20.1615C21.931 20.7752 21.7268 21.3421 21.3834 21.8067H18.9821C18.5145 21.8067 18.1946 21.6822 17.9618 21.5049C17.7206 21.3212 17.5295 21.0471 17.3869 20.6881C17.0956 19.9543 17.058 18.9953 17.1071 18.1891C17.1682 17.1858 16.3733 16.1994 15.2352 16.1993H3.23263V5.58213C3.23285 3.04986 5.36304 0.997098 7.99081 0.996887H17.1718ZM7.34426 12.461C7.00179 12.4612 6.7242 12.7287 6.72398 13.0587C6.72398 13.3889 7.00165 13.6572 7.34426 13.6574H12.5166C12.8594 13.6574 13.1379 13.389 13.1379 13.0587C13.1377 12.7285 12.8593 12.461 12.5166 12.461H7.34426ZM7.34426 8.9719C7.00179 8.97211 6.7242 9.23961 6.72398 9.56964C6.72398 9.89984 7.00165 10.1681 7.34426 10.1683H17.689C18.0318 10.1683 18.3103 9.89997 18.3103 9.56964C18.3101 9.23948 18.0317 8.9719 17.689 8.9719H7.34426ZM7.34426 5.48283C7.00179 5.48304 6.7242 5.75054 6.72398 6.08057C6.72398 6.41077 7.00165 6.67907 7.34426 6.67928H17.689C18.0318 6.67928 18.3103 6.4109 18.3103 6.08057C18.3101 5.75041 18.0317 5.48283 17.689 5.48283H7.34426Z" fill="#10100F"/>
</svg>
