<svg width="24" height="24" viewBox="0 0 24 24" fill="none" xmlns="http://www.w3.org/2000/svg">
<path fill-rule="evenodd" clip-rule="evenodd" d="M14.079 7.22507C14.7644 6.52904 15.8494 6.52925 16.535 7.22507C16.7147 7.40758 16.8496 7.62349 16.9383 7.85496C17.6253 7.19386 18.6843 7.20493 19.3582 7.88914C20.0684 8.61053 20.0685 9.79089 19.3582 10.5122L19.1444 10.728C19.3036 10.8108 19.4554 10.9197 19.5907 11.0571C20.1537 11.6295 20.268 12.4897 19.9374 13.1811C20.1474 13.2682 20.3451 13.3997 20.5174 13.5747C21.2274 14.2961 21.2276 15.4765 20.5174 16.1977L18.5213 18.2241L18.5204 18.226L16.3426 20.4497C14.899 21.8966 12.8533 22.3301 11.0516 21.7514C11.0136 21.7645 10.9739 21.7741 10.9325 21.7778L10.2811 21.8354C8.27107 22.2265 6.35881 21.8163 4.84555 20.2798L4.83481 20.268L4.6395 20.0581C3.10152 18.5177 2.68663 16.5162 3.10141 14.4223L4.09946 9.353C4.27873 8.44348 5.03569 7.85203 5.8602 7.85203C6.50812 7.85208 7.10679 8.22096 7.4227 8.79636C7.70166 8.61582 8.02735 8.51414 8.36606 8.51414C9.31671 8.5144 10.162 9.30775 10.162 10.3843V11.2036L14.079 7.22507ZM15.7909 8.11082C15.5256 7.84141 15.0894 7.84141 14.8241 8.11082L9.98618 13.0229C9.82638 13.185 9.59376 13.2287 9.39438 13.1333C9.19487 13.0374 9.06544 12.8198 9.06528 12.5805V10.3843C9.06528 10.0609 8.79377 9.71947 8.36606 9.71921C8.00774 9.71921 7.73699 9.97908 7.67759 10.271L7.67661 10.2719L6.91684 14.144C6.65059 15.5082 7.06803 16.935 8.05844 17.9302L9.67563 19.56C11.3069 21.2056 13.9558 21.2084 15.6014 19.561L17.7752 17.3423L17.7762 17.3403L19.7733 15.313C20.0135 15.0688 20.0134 14.7037 19.7733 14.4594C19.5359 14.2184 19.1616 14.194 18.8954 14.3843L15.8934 17.4341C15.6712 17.6593 15.3246 17.6443 15.119 17.4009C14.9135 17.1566 14.9271 16.7752 15.1493 16.5493L17.9862 13.6675C18.0076 13.6344 18.0332 13.6033 18.0614 13.5747C18.1089 13.5264 18.1587 13.4815 18.2098 13.4399L18.8456 12.7954C19.086 12.5512 19.0858 12.1861 18.8456 11.9419C18.7023 11.7964 18.5047 11.725 18.3045 11.7417C18.2464 11.7466 18.1893 11.7594 18.1346 11.7788C18.1247 11.7823 18.1134 11.7828 18.1034 11.7856L14.5204 15.4253C14.2981 15.6504 13.9514 15.6357 13.7459 15.3921C13.5405 15.1478 13.5542 14.7664 13.7762 14.5405L18.6141 9.62742C18.8546 9.38323 18.8544 9.01817 18.6141 8.7739C18.3819 8.53827 18.0186 8.50916 17.7538 8.68601L17.6473 8.7739L12.8094 13.687C12.5871 13.9125 12.2396 13.8977 12.034 13.6538C11.8286 13.4096 11.8424 13.0282 12.0643 12.8022L15.787 9.01999L15.7909 9.01707C16.0313 8.77293 16.031 8.35515 15.7909 8.11082ZM5.8602 9.0571C5.49631 9.0571 5.23042 9.31067 5.17173 9.60789L4.17368 14.6782C3.8289 16.4186 4.17189 17.964 5.38462 19.1743C5.38959 19.1792 5.39546 19.1848 5.40024 19.1899L5.59653 19.4009C6.61084 20.4275 7.85855 20.848 9.26743 20.7553C9.15353 20.6583 9.04091 20.5561 8.93344 20.4477L7.31821 18.8188L7.08872 18.5737C5.98459 17.3137 5.51547 15.5763 5.84458 13.8911L6.56723 10.2036C6.56359 10.1756 6.55946 10.1467 6.55942 10.1177V9.72214C6.55937 9.3987 6.28806 9.05719 5.8602 9.0571Z" fill="#10100F"/>
<path d="M8.36704 2.92624C8.61973 2.74275 8.95979 2.81951 9.1268 3.09714L10.036 4.60691C10.203 4.88449 10.1333 5.25834 9.88071 5.44187C9.6281 5.62531 9.28801 5.54936 9.12094 5.27195L8.21176 3.76121C8.0449 3.48364 8.11451 3.10974 8.36704 2.92624Z" fill="#10100F"/>
<path d="M14.6034 3.09714C14.7704 2.81951 15.1114 2.74275 15.3641 2.92624C15.6166 3.10982 15.6854 3.48369 15.5184 3.76121L14.6102 5.27195C14.4432 5.54944 14.1031 5.6253 13.8504 5.44187C13.5977 5.25838 13.5282 4.88454 13.6952 4.60691L14.6034 3.09714Z" fill="#10100F"/>
<path d="M11.8788 2.00046C12.1814 2.00072 12.4266 2.27038 12.4266 2.603V4.41355C12.4266 4.74618 12.1815 5.01583 11.8788 5.01609C11.5759 5.01609 11.3299 4.74634 11.3299 4.41355V2.603C11.3299 2.27023 11.5759 2.00046 11.8788 2.00046Z" fill="#10100F"/>
</svg>
