<svg width="24" height="24" viewBox="0 0 24 24" fill="none" xmlns="http://www.w3.org/2000/svg">
<path d="M15.2563 7.26442C15.5551 6.96602 16.0278 6.96579 16.3266 7.26442C16.5838 7.52184 16.618 7.90772 16.432 8.20094L12.1361 12.4978C11.8979 12.736 11.898 13.1229 12.1361 13.3611C12.3743 13.5988 12.7604 13.599 12.9984 13.3611L17.0697 9.28786C17.1118 9.26267 17.1536 9.23423 17.1898 9.19801C17.2546 9.13319 17.3117 9.0628 17.3656 8.99196L18.4633 7.89528C18.7621 7.59682 19.2358 7.5967 19.5346 7.89528C19.8332 8.19406 19.833 8.66771 19.5346 8.96657L18.3676 10.1326C18.3268 10.1673 18.2861 10.2034 18.2475 10.242C18.2279 10.2616 18.2111 10.284 18.1947 10.3054L14.0697 14.4314C13.8315 14.6696 13.8316 15.0565 14.0697 15.2947C14.3079 15.5323 14.694 15.5326 14.932 15.2947L19.1879 11.0369C19.4863 10.8085 19.9071 10.8313 20.1811 11.1052C20.4794 11.404 20.4793 11.8768 20.1811 12.1756L18.9037 13.4519C18.8996 13.456 18.8951 13.4605 18.891 13.4646C18.889 13.4666 18.8871 13.4694 18.8852 13.4715L16.0053 16.3523C15.7671 16.5905 15.7671 16.9764 16.0053 17.2146C16.2435 17.4524 16.6295 17.4527 16.8676 17.2146L19.7631 14.3181C20.0623 14.0287 20.5288 14.0316 20.8246 14.3269C21.1232 14.6257 21.1232 15.0994 20.8246 15.3982L18.5678 17.655L16.1127 20.1238C14.725 21.4922 12.7157 21.8364 11.0199 21.1609C10.9618 21.1233 10.8974 21.096 10.8285 21.0798C10.3257 20.8532 9.8539 20.5342 9.43985 20.1228L7.61367 18.3093C6.48529 17.1928 5.9955 15.5747 6.30508 14.0144L7.16446 9.70778C7.24283 9.32702 7.57618 9.05446 7.94961 9.05446C8.39126 9.05471 8.74934 9.41257 8.74942 9.85426V12.2976C8.74942 12.5443 8.89845 12.7677 9.12637 12.8621C9.35409 12.956 9.61617 12.9035 9.79043 12.7293L15.2563 7.26442Z" fill="#10100F"/>
<path d="M5.01016 8.1277C5.45185 8.12792 5.80989 8.48676 5.80996 8.92848V10.2615L5.10879 13.7771C4.74457 15.6122 5.25961 17.5154 6.49746 18.906L6.75528 19.1765L8.58047 20.989C8.67574 21.0837 8.77456 21.1737 8.87442 21.2605C7.28606 21.3674 5.87605 20.9043 4.72305 19.7547L4.50039 19.5203C4.4953 19.5149 4.49005 19.5089 4.48477 19.5037C3.10108 18.1438 2.70004 16.3916 3.09707 14.4187L4.225 8.77907C4.30258 8.39168 4.63101 8.12778 5.01016 8.1277Z" fill="#10100F"/>
<path d="M8.12539 3.42555C8.40183 3.24289 8.77375 3.31905 8.95645 3.59547L9.95059 5.09938C10.1333 5.37583 10.0571 5.74773 9.78067 5.93044C9.50423 6.11303 9.13229 6.03692 8.94961 5.76051L7.95547 4.25661C7.77293 3.98018 7.84902 3.60822 8.12539 3.42555Z" fill="#10100F"/>
<path d="M14.9486 3.59547C15.1313 3.31903 15.5042 3.24284 15.7807 3.42555C16.0568 3.60822 16.1329 3.98027 15.9506 4.25661L14.9564 5.76051C14.7737 6.03696 14.4009 6.11315 14.1244 5.93044C13.8483 5.74771 13.7721 5.3757 13.9545 5.09938L14.9486 3.59547Z" fill="#10100F"/>
<path d="M11.9672 2.50368C12.2983 2.50383 12.5666 2.77219 12.5668 3.10329V4.907C12.5666 5.23807 12.2983 5.50645 11.9672 5.50661C11.636 5.50661 11.3668 5.23817 11.3666 4.907V3.10329C11.3668 2.7721 11.6359 2.50368 11.9672 2.50368Z" fill="#10100F"/>
</svg>
