<svg width="24" height="24" viewBox="0 0 24 24" fill="none" xmlns="http://www.w3.org/2000/svg">
<path d="M17.9496 13.9893C18.2314 13.6857 18.7066 13.6684 19.0101 13.9502C19.3136 14.232 19.331 14.7072 19.0492 15.0107L12.5492 22.0107C12.5429 22.0175 12.5351 22.0228 12.5287 22.0293C12.5222 22.0358 12.5169 22.0435 12.5101 22.0498C12.5067 22.053 12.5028 22.0555 12.4994 22.0586C12.4931 22.0642 12.4862 22.0689 12.4798 22.0742C12.4371 22.11 12.3908 22.1383 12.3431 22.1631C12.3221 22.174 12.3014 22.1846 12.2796 22.1934C12.2575 22.2023 12.235 22.2091 12.2122 22.2158C12.1895 22.2225 12.167 22.2289 12.1439 22.2334C12.1183 22.2384 12.0926 22.2408 12.0667 22.2432C12.0442 22.2452 12.022 22.2471 11.9994 22.2471C11.9767 22.2471 11.9545 22.2452 11.932 22.2432C11.9061 22.2408 11.8804 22.2384 11.8548 22.2334C11.8314 22.2288 11.8085 22.2227 11.7855 22.2158C11.7634 22.2092 11.7416 22.202 11.7201 22.1934C11.696 22.1837 11.6729 22.1724 11.6497 22.1602C11.6236 22.1463 11.5973 22.1325 11.5726 22.1152C11.5667 22.1111 11.5609 22.1069 11.555 22.1025C11.5448 22.095 11.5347 22.0873 11.5247 22.0791C11.5162 22.0721 11.5076 22.0651 11.4994 22.0576C11.4963 22.0548 11.4926 22.0526 11.4896 22.0498C11.4849 22.0455 11.4804 22.0405 11.4759 22.0361C11.4673 22.0277 11.4579 22.0197 11.4496 22.0107L4.94955 15.0107C4.66772 14.7072 4.68606 14.232 4.98959 13.9502C5.29305 13.6687 5.76737 13.6861 6.04916 13.9893L11.9994 20.3965L17.9496 13.9893Z" fill="#10100F"/>
<path d="M12.0667 1.75586C12.0926 1.75817 12.1183 1.76063 12.1439 1.76563C12.167 1.77015 12.1896 1.7765 12.2122 1.7832C12.2349 1.78991 12.2575 1.79675 12.2796 1.80566C12.3014 1.81441 12.3221 1.82509 12.3431 1.83594C12.402 1.86644 12.4591 1.90287 12.5101 1.9502C12.5167 1.95632 12.5223 1.96342 12.5287 1.96973C12.5353 1.97637 12.5427 1.98232 12.5492 1.98926L19.0492 8.98926C19.331 9.29279 19.3136 9.76795 19.0101 10.0498C18.7066 10.3316 18.2314 10.3143 17.9496 10.0107L11.9994 3.60254L6.04916 10.0107C5.76737 10.314 5.29306 10.3313 4.98959 10.0498C4.68606 9.76796 4.66771 9.29279 4.94955 8.98926L11.4496 1.98926C11.458 1.98011 11.4671 1.97152 11.4759 1.96289C11.4803 1.95865 11.4851 1.95435 11.4896 1.9502C11.4928 1.94721 11.4961 1.94432 11.4994 1.94141C11.5075 1.93411 11.5164 1.92778 11.5247 1.9209C11.5348 1.91262 11.5446 1.90416 11.555 1.89648C11.558 1.89428 11.5608 1.89181 11.5638 1.88965L11.6107 1.8584C11.6232 1.85081 11.6369 1.84566 11.6497 1.83887C11.6728 1.82665 11.696 1.81532 11.7201 1.80566C11.7416 1.797 11.7634 1.78978 11.7855 1.7832C11.8085 1.77637 11.8314 1.77022 11.8548 1.76563C11.8804 1.76061 11.9061 1.75819 11.932 1.75586C11.9545 1.75382 11.9768 1.75197 11.9994 1.75195C12.0219 1.75195 12.0442 1.75384 12.0667 1.75586Z" fill="#10100F"/>
</svg>
