<svg width="24" height="24" viewBox="0 0 24 24" fill="none" xmlns="http://www.w3.org/2000/svg">
<path d="M9.55664 6.59668C9.77954 6.35148 10.1591 6.33276 10.4043 6.55566L15.9043 11.5557C15.9124 11.563 15.9182 11.5724 15.9258 11.5801C15.9315 11.5859 15.9388 11.5906 15.9443 11.5967C15.9506 11.6036 15.955 11.612 15.9609 11.6191C15.9754 11.6366 15.9888 11.6542 16.001 11.6729C16.0112 11.6884 16.0197 11.7045 16.0283 11.7207C16.0377 11.7384 16.0462 11.756 16.0537 11.7744C16.0612 11.7928 16.0677 11.8112 16.0732 11.8301C16.0787 11.8485 16.0833 11.8669 16.0869 11.8857C16.0904 11.9039 16.0929 11.922 16.0947 11.9404C16.0967 11.96 16.0976 11.9794 16.0977 11.999C16.0977 12.019 16.0967 12.0387 16.0947 12.0586C16.093 12.0763 16.0902 12.0937 16.0869 12.1113C16.0832 12.1311 16.079 12.1506 16.0732 12.1699C16.0677 12.1885 16.0611 12.2065 16.0537 12.2246C16.0463 12.243 16.0377 12.2606 16.0283 12.2783C16.0197 12.2945 16.0112 12.3106 16.001 12.3262C15.9888 12.3448 15.9754 12.3624 15.9609 12.3799C15.9549 12.3872 15.9508 12.3962 15.9443 12.4033C15.9392 12.4089 15.932 12.4126 15.9268 12.418C15.9188 12.4261 15.9128 12.4366 15.9043 12.4443L10.4043 17.4443C10.1591 17.6672 9.77952 17.6485 9.55664 17.4033C9.33374 17.1581 9.35149 16.7786 9.59668 16.5557L14.6084 11.999L9.59668 7.44336C9.3518 7.22046 9.33395 6.84178 9.55664 6.59668Z" fill="#10100F"/>
<path fill-rule="evenodd" clip-rule="evenodd" d="M12 1C18.0751 1 23 5.92487 23 12C23 18.0751 18.0751 23 12 23C5.92487 23 1 18.0751 1 12C1 5.92487 5.92487 1 12 1ZM12 2.2002C6.58761 2.2002 2.2002 6.58761 2.2002 12C2.2002 17.4124 6.58761 21.7998 12 21.7998C17.4124 21.7998 21.7998 17.4124 21.7998 12C21.7998 6.58761 17.4124 2.2002 12 2.2002Z" fill="#10100F"/>
</svg>
