<svg width="24" height="24" viewBox="0 0 24 24" fill="none" xmlns="http://www.w3.org/2000/svg">
<path d="M12.0655 7.00586C12.09 7.00816 12.1144 7.01073 12.1387 7.01562C12.1619 7.0203 12.1844 7.02716 12.2071 7.03418C12.2278 7.0406 12.2484 7.04727 12.2686 7.05566C12.291 7.06495 12.3124 7.0762 12.334 7.08789C12.3602 7.10205 12.3865 7.11608 12.4112 7.13379C12.418 7.13867 12.425 7.14328 12.4317 7.14844C12.4397 7.15463 12.4473 7.16139 12.4551 7.16797C12.4632 7.17478 12.4717 7.18125 12.4795 7.18848C12.4839 7.19249 12.4889 7.19605 12.4932 7.2002C12.5022 7.20886 12.5101 7.21852 12.5186 7.22754C12.5224 7.23155 12.5266 7.23514 12.5303 7.23926L18.8067 14.2393C19.0788 14.5428 19.0617 15.018 18.7686 15.2998C18.4756 15.5815 18.0173 15.5641 17.7452 15.2607L12.0001 8.85156L6.25494 15.2607C5.98281 15.5641 5.5245 15.5815 5.2315 15.2998C4.93843 15.018 4.92128 14.5428 5.19341 14.2393L11.4698 7.23926C11.4752 7.23323 11.4808 7.22748 11.4864 7.22168C11.4932 7.21457 11.4997 7.20708 11.5069 7.2002C11.511 7.19624 11.5154 7.19231 11.5196 7.18848C11.5274 7.18125 11.5359 7.17479 11.544 7.16797C11.5518 7.16138 11.5594 7.15463 11.5674 7.14844C11.5741 7.14328 11.5811 7.13868 11.5879 7.13379C11.6126 7.11606 11.639 7.10207 11.6651 7.08789C11.6867 7.07618 11.7081 7.06498 11.7305 7.05566C11.7517 7.04684 11.7732 7.03986 11.795 7.0332C11.8164 7.02665 11.8376 7.02009 11.8594 7.01562C11.8843 7.01053 11.9094 7.00822 11.9346 7.00586C11.9565 7.0038 11.9781 7.00196 12.0001 7.00195C12.022 7.00196 12.0436 7.00381 12.0655 7.00586Z" fill="#10100F"/>
</svg>
