<svg width="24" height="24" viewBox="0 0 24 24" fill="none" xmlns="http://www.w3.org/2000/svg">
<path fill-rule="evenodd" clip-rule="evenodd" d="M12 0C18.6274 0 24 5.37258 24 12C24 18.6274 18.6274 24 12 24C5.37258 24 0 18.6274 0 12C0 5.37258 5.37258 0 12 0ZM10.8473 6.10547C10.6041 5.83798 10.1901 5.81862 9.92259 6.06179L3.92259 11.5163C3.91493 11.5233 3.90853 11.5315 3.90128 11.5387C3.89404 11.546 3.88587 11.5524 3.87891 11.56C3.87156 11.5681 3.86553 11.5772 3.85866 11.5856C3.84331 11.6042 3.82905 11.6232 3.81605 11.6431C3.80496 11.6601 3.79557 11.6777 3.78622 11.6953C3.77604 11.7146 3.76666 11.7339 3.75852 11.7539C3.75007 11.7747 3.74237 11.7954 3.73615 11.8168C3.73111 11.834 3.72696 11.8514 3.72337 11.869C3.71839 11.8934 3.71489 11.9178 3.71271 11.9425C3.71102 11.9616 3.71059 11.9807 3.71058 12C3.71058 12.0185 3.71115 12.0369 3.71271 12.0554C3.71485 12.0808 3.71826 12.1059 3.72337 12.131C3.72681 12.1479 3.73137 12.1645 3.73615 12.1811C3.7424 12.2028 3.74998 12.2239 3.75852 12.245C3.76662 12.2651 3.77607 12.2843 3.78622 12.3036C3.79554 12.3213 3.80498 12.3388 3.81605 12.3558C3.8293 12.3762 3.84402 12.3954 3.85973 12.4144C3.86647 12.4226 3.8717 12.4321 3.87891 12.44C3.8848 12.4465 3.89199 12.4519 3.89808 12.4581C3.90648 12.4666 3.91363 12.4766 3.92259 12.4847L9.92259 17.9393C10.1901 18.1824 10.6041 18.162 10.8473 17.8945C11.0901 17.6272 11.0706 17.214 10.8036 16.9709L5.33523 12L10.8036 7.03018C11.071 6.78703 11.0904 6.37294 10.8473 6.10547ZM14.0764 6.06179C13.8089 5.81863 13.3948 5.83802 13.1516 6.10547C12.9085 6.37295 12.9278 6.78702 13.1953 7.03018L18.6626 12L13.1953 16.9709C12.9282 17.214 12.9087 17.6271 13.1516 17.8945C13.3948 18.162 13.8089 18.1824 14.0764 17.9393L20.0763 12.4847C20.0853 12.4766 20.0914 12.4656 20.0998 12.457C20.1058 12.4509 20.1142 12.4464 20.12 12.44C20.1271 12.4322 20.1315 12.4224 20.1381 12.4144C20.1539 12.3954 20.1685 12.3762 20.1818 12.3558C20.1929 12.3388 20.2023 12.3213 20.2116 12.3036C20.2218 12.2843 20.2312 12.2651 20.2393 12.245C20.2475 12.225 20.2546 12.2049 20.2607 12.1843C20.2666 12.1642 20.2716 12.1441 20.2756 12.1236C20.2794 12.1037 20.2821 12.084 20.2841 12.0639C20.2862 12.0426 20.2873 12.0214 20.2873 12C20.2873 11.9782 20.2863 11.9567 20.2841 11.935C20.2819 11.9128 20.279 11.8909 20.2745 11.869C20.2707 11.8503 20.2661 11.8319 20.2607 11.8136C20.2546 11.7933 20.2474 11.7736 20.2393 11.7539C20.2312 11.7339 20.2218 11.7146 20.2116 11.6953C20.2023 11.6776 20.1929 11.6601 20.1818 11.6431C20.1688 11.6232 20.1546 11.6042 20.1392 11.5856C20.1325 11.5774 20.1272 11.5679 20.12 11.56C20.1129 11.5522 20.104 11.5461 20.0966 11.5387C20.0895 11.5316 20.0838 11.5231 20.0763 11.5163L14.0764 6.06179Z" fill="#10100F"/>
</svg>
