<svg width="24" height="24" viewBox="0 0 24 24" fill="none" xmlns="http://www.w3.org/2000/svg">
<path d="M12.5957 5.55566C12.8409 5.33283 13.2205 5.35151 13.4434 5.59668C13.6663 5.84187 13.6485 6.22143 13.4033 6.44434L8.39062 11L13.4033 15.5566C13.6482 15.7795 13.666 16.1582 13.4434 16.4033C13.2205 16.6485 12.8409 16.6672 12.5957 16.4443L7.0957 11.4443C7.0873 11.4367 7.08111 11.4269 7.07324 11.4189C7.06785 11.4134 7.06089 11.4091 7.05566 11.4033C7.04906 11.3961 7.04426 11.3874 7.03809 11.3799C7.02369 11.3624 7.01018 11.3448 6.99805 11.3262C6.9879 11.3106 6.97925 11.2945 6.9707 11.2783C6.9614 11.2606 6.95273 11.243 6.94531 11.2246C6.93787 11.2062 6.93132 11.1878 6.92578 11.1689C6.92038 11.1505 6.91571 11.1321 6.91211 11.1133C6.90862 11.0951 6.90609 11.077 6.9043 11.0586C6.90239 11.0391 6.90137 11.0196 6.90137 11C6.90138 10.9801 6.90231 10.9603 6.9043 10.9404C6.90606 10.9227 6.90877 10.9052 6.91211 10.8877C6.91587 10.868 6.92004 10.8484 6.92578 10.8291C6.93129 10.8106 6.93796 10.7925 6.94531 10.7744C6.95276 10.7561 6.96138 10.7384 6.9707 10.7207C6.97927 10.7045 6.98789 10.6884 6.99805 10.6729C7.0102 10.6543 7.02368 10.6365 7.03809 10.6191C7.04411 10.6118 7.04923 10.6038 7.05566 10.5967C7.06078 10.5911 7.06699 10.5864 7.07227 10.5811C7.08026 10.5729 7.08716 10.5634 7.0957 10.5557L12.5957 5.55566Z" fill="#10100F"/>
<path fill-rule="evenodd" clip-rule="evenodd" d="M11 0C17.0751 0 22 4.92487 22 11C22 17.0751 17.0751 22 11 22C4.92487 22 0 17.0751 0 11C0 4.92487 4.92487 0 11 0ZM11 1.2002C5.58761 1.2002 1.2002 5.58761 1.2002 11C1.2002 16.4124 5.58761 20.7998 11 20.7998C16.4124 20.7998 20.7998 16.4124 20.7998 11C20.7998 5.58761 16.4124 1.2002 11 1.2002Z" fill="#10100F"/>
</svg>
