<svg width="24" height="24" viewBox="0 0 24 24" fill="none" xmlns="http://www.w3.org/2000/svg">
<path fill-rule="evenodd" clip-rule="evenodd" d="M12 1C18.0751 1 23 5.92487 23 12C23 18.0751 18.0751 23 12 23C5.92487 23 1 18.0751 1 12C1 5.92487 5.92487 1 12 1ZM14.4434 6.59668C14.2205 6.35151 13.8409 6.33283 13.5957 6.55566L8.0957 11.5557C8.0875 11.5631 8.08094 11.5723 8.07324 11.5801C8.06768 11.5857 8.06105 11.5908 8.05566 11.5967C8.04923 11.6038 8.04411 11.6118 8.03809 11.6191C8.02368 11.6365 8.0102 11.6543 7.99805 11.6729C7.98789 11.6884 7.97926 11.7045 7.9707 11.7207C7.96138 11.7384 7.95276 11.7561 7.94531 11.7744C7.93785 11.7928 7.93134 11.8112 7.92578 11.8301C7.92034 11.8485 7.91575 11.867 7.91211 11.8857C7.9086 11.9039 7.90612 11.9221 7.9043 11.9404C7.90231 11.9603 7.90138 11.9801 7.90137 12C7.90138 12.0196 7.90238 12.0391 7.9043 12.0586C7.90609 12.077 7.90862 12.0951 7.91211 12.1133C7.91572 12.1321 7.92037 12.1505 7.92578 12.1689C7.93132 12.1878 7.93787 12.2062 7.94531 12.2246C7.95274 12.243 7.9614 12.2606 7.9707 12.2783C7.97925 12.2945 7.9879 12.3106 7.99805 12.3262C8.01019 12.3448 8.02369 12.3624 8.03809 12.3799C8.04426 12.3874 8.04906 12.3961 8.05566 12.4033C8.06089 12.4091 8.06785 12.4134 8.07324 12.4189C8.08109 12.4269 8.08733 12.4367 8.0957 12.4443L13.5957 17.4443C13.8409 17.6672 14.2205 17.6485 14.4434 17.4033C14.6663 17.1581 14.6485 16.7786 14.4033 16.5557L9.3916 12L14.4033 7.44434C14.6485 7.22143 14.6663 6.84187 14.4434 6.59668Z" fill="#10100F"/>
</svg>
