<svg width="24" height="24" viewBox="0 0 24 24" fill="none" xmlns="http://www.w3.org/2000/svg">
<path d="M12.065 7.53196C12.0847 7.53389 12.1041 7.53677 12.1236 7.54048C12.1441 7.5444 12.1642 7.54952 12.1843 7.5554C12.2052 7.56151 12.2257 7.56845 12.2461 7.5767C12.2646 7.58422 12.2825 7.593 12.3004 7.60227C12.3211 7.61299 12.3414 7.62433 12.3612 7.63743C12.3774 7.6482 12.3926 7.66023 12.408 7.67259C12.4186 7.6811 12.4308 7.68781 12.4411 7.69709C12.4498 7.70506 12.4563 7.71539 12.4645 7.72372C12.4707 7.73006 12.4787 7.73519 12.4847 7.74183L17.9393 13.7418C18.1821 14.0092 18.1626 14.4223 17.8956 14.6655C17.6281 14.9086 17.2141 14.8893 16.9709 14.6218L12 9.15341L7.03018 14.6218C6.78701 14.8893 6.37294 14.9086 6.10547 14.6655C5.83847 14.4223 5.81899 14.0092 6.06179 13.7418L11.5163 7.74183C11.5222 7.73538 11.5295 7.72989 11.5355 7.72372C11.5439 7.71521 11.5511 7.70523 11.56 7.69709C11.57 7.688 11.5816 7.68094 11.592 7.67259C11.6073 7.66022 11.6227 7.64821 11.6389 7.63743C11.6585 7.62432 11.6789 7.61301 11.6996 7.60227C11.7175 7.59298 11.7354 7.58424 11.7539 7.5767C11.7742 7.56842 11.7948 7.56154 11.8157 7.5554C11.8358 7.54949 11.8559 7.54444 11.8764 7.54048C11.8959 7.53674 11.9154 7.53392 11.935 7.53196C11.9567 7.52978 11.9782 7.52879 12 7.52876C12.0218 7.52876 12.0433 7.52982 12.065 7.53196Z" fill="#10100F"/>
<path fill-rule="evenodd" clip-rule="evenodd" d="M12 0C18.6274 0 24 5.37258 24 12C24 18.6274 18.6274 24 12 24C5.37258 24 0 18.6274 0 12C0 5.37258 5.37258 0 12 0ZM12 1.3093C6.09557 1.3093 1.3093 6.09557 1.3093 12C1.3093 17.9044 6.09557 22.6907 12 22.6907C17.9044 22.6907 22.6907 17.9044 22.6907 12C22.6907 6.09557 17.9044 1.3093 12 1.3093Z" fill="#10100F"/>
</svg>
