<svg width="24" height="24" viewBox="0 0 24 24" fill="none" xmlns="http://www.w3.org/2000/svg">
<path fill-rule="evenodd" clip-rule="evenodd" d="M12 1C18.0751 1 23 5.92487 23 12C23 18.0751 18.0751 23 12 23C5.92487 23 1 18.0751 1 12C1 5.92487 5.92487 1 12 1ZM10.4043 6.55566C10.1591 6.33279 9.77954 6.35149 9.55664 6.59668C9.3341 6.84176 9.35192 7.22049 9.59668 7.44336L14.6084 11.999L9.59668 16.5557C9.35156 16.7786 9.33382 17.1581 9.55664 17.4033C9.77954 17.6485 10.1591 17.6663 10.4043 17.4434L15.9043 12.4434C15.9113 12.437 15.9162 12.4285 15.9229 12.4219C15.9295 12.4152 15.9379 12.4103 15.9443 12.4033C15.9511 12.3959 15.9556 12.3866 15.9619 12.3789C15.976 12.3618 15.989 12.3444 16.001 12.3262C16.0112 12.3106 16.0197 12.2945 16.0283 12.2783C16.0377 12.2606 16.0463 12.243 16.0537 12.2246C16.0615 12.2055 16.0685 12.1866 16.0742 12.167C16.0788 12.1511 16.0827 12.1353 16.0859 12.1191C16.0905 12.0967 16.0937 12.0744 16.0957 12.0518C16.0972 12.0341 16.0977 12.0167 16.0977 11.999C16.0976 11.982 16.0972 11.9652 16.0957 11.9482C16.0937 11.9249 16.0907 11.9019 16.0859 11.8789C16.0827 11.8634 16.0786 11.8483 16.0742 11.833C16.0684 11.8131 16.0616 11.7938 16.0537 11.7744C16.0462 11.756 16.0377 11.7384 16.0283 11.7207C16.0197 11.7045 16.0112 11.6884 16.001 11.6729C15.9888 11.6542 15.9754 11.6366 15.9609 11.6191C15.955 11.612 15.9506 11.6036 15.9443 11.5967C15.9386 11.5904 15.9317 11.5851 15.9258 11.5791C15.9184 11.5716 15.9122 11.5628 15.9043 11.5557L10.4043 6.55566Z" fill="#10100F"/>
</svg>
