<svg width="24" height="24" viewBox="0 0 24 24" fill="none" xmlns="http://www.w3.org/2000/svg">
<path d="M14.9893 4.95065C15.2928 4.66879 15.7679 4.68619 16.0498 4.98971C16.3313 5.29317 16.314 5.76749 16.0107 6.04928L9.60254 11.9995L16.0107 17.9507C16.314 18.2324 16.3313 18.7068 16.0498 19.0102C15.7679 19.3137 15.2928 19.3321 14.9893 19.0503L7.98926 12.5493C7.98232 12.5428 7.97637 12.5354 7.96973 12.5288C7.96352 12.5225 7.95623 12.5167 7.9502 12.5102C7.9469 12.5067 7.94365 12.5031 7.94043 12.4995C7.93485 12.4933 7.93014 12.4863 7.9248 12.4799C7.88911 12.4372 7.86061 12.3909 7.83594 12.3432C7.82509 12.3223 7.81441 12.3015 7.80566 12.2798C7.79676 12.2576 7.7899 12.2351 7.7832 12.2124C7.7765 12.1897 7.77015 12.1671 7.76563 12.144C7.76064 12.1184 7.75816 12.0927 7.75586 12.0669C7.75384 12.0444 7.75195 12.0221 7.75195 11.9995C7.75198 11.9769 7.75381 11.9546 7.75586 11.9321C7.75819 11.9062 7.76061 11.8805 7.76563 11.8549C7.77018 11.8318 7.77647 11.8093 7.7832 11.7866C7.78993 11.7639 7.79674 11.7413 7.80566 11.7192C7.81443 11.6975 7.82507 11.6767 7.83594 11.6557C7.86065 11.6081 7.88909 11.5617 7.9248 11.519C7.9447 11.4953 7.966 11.4723 7.98926 11.4507L14.9893 4.95065Z" fill="#10100F"/>
</svg>
