<svg width="24" height="24" viewBox="0 0 24 24" fill="none" xmlns="http://www.w3.org/2000/svg">
<path fill-rule="evenodd" clip-rule="evenodd" d="M12 0C18.6274 0 24 5.37258 24 12C24 18.6274 18.6274 24 12 24C5.37258 24 0 18.6274 0 12C0 5.37258 5.37258 0 12 0ZM12 7.52876C11.9779 7.52876 11.9559 7.52975 11.9339 7.53196C11.9153 7.53385 11.897 7.537 11.8786 7.54048C11.8563 7.54467 11.8343 7.54996 11.8125 7.55646C11.7938 7.56207 11.7754 7.56831 11.7571 7.57564C11.7365 7.58388 11.7162 7.59294 11.6964 7.60334C11.6763 7.61389 11.6569 7.62569 11.6378 7.63849C11.6216 7.6493 11.6063 7.66126 11.5909 7.67365C11.5809 7.68171 11.5696 7.68834 11.56 7.69709C11.5522 7.70416 11.5461 7.71317 11.5387 7.72053C11.5313 7.72792 11.5224 7.73402 11.5153 7.74183L6.06072 13.7418C5.81766 14.0093 5.83698 14.4234 6.1044 14.6665C6.37189 14.9097 6.78595 14.8893 7.02912 14.6218L12 9.15341L16.9709 14.6218C17.2141 14.8893 17.6281 14.9097 17.8956 14.6665C18.163 14.4234 18.1823 14.0093 17.9393 13.7418L12.4847 7.74183C12.4775 7.73383 12.4678 7.72809 12.4602 7.72053C12.453 7.71336 12.4476 7.70399 12.44 7.69709C12.4302 7.68816 12.4182 7.68187 12.408 7.67365C12.3926 7.66127 12.3774 7.64929 12.3612 7.63849C12.342 7.62571 12.3226 7.61387 12.3026 7.60334C12.2827 7.59296 12.2625 7.58385 12.2418 7.57564C12.2236 7.56834 12.2052 7.56204 12.1864 7.55646C12.1646 7.54999 12.1427 7.54464 12.1204 7.54048C12.1019 7.53703 12.0836 7.53382 12.065 7.53196C12.0433 7.52982 12.0217 7.52876 12 7.52876Z" fill="#10100F"/>
</svg>
