<svg width="24" height="24" viewBox="0 0 24 24" fill="none" xmlns="http://www.w3.org/2000/svg">
<path d="M9.92259 6.06072C10.1901 5.81763 10.6042 5.83801 10.8473 6.10547C11.0905 6.37295 11.0711 6.78702 10.8036 7.03018L5.33523 12L10.8036 16.9709C11.0708 17.214 11.0902 17.6271 10.8473 17.8945C10.6041 18.162 10.1901 18.1824 9.92259 17.9393L3.92259 12.4847C3.91342 12.4764 3.90666 12.4658 3.89808 12.457C3.89219 12.451 3.88461 12.4463 3.87891 12.44C3.87171 12.4321 3.86647 12.4226 3.85973 12.4144C3.84403 12.3954 3.82929 12.3762 3.81605 12.3558C3.80499 12.3388 3.79554 12.3213 3.78622 12.3036C3.77608 12.2843 3.76662 12.2651 3.75852 12.245C3.75041 12.225 3.74326 12.2049 3.73722 12.1843C3.73132 12.1642 3.72623 12.1441 3.7223 12.1236C3.7185 12.1037 3.71573 12.084 3.71378 12.0639C3.71169 12.0426 3.71058 12.0214 3.71058 12C3.71059 11.9782 3.71162 11.9567 3.71378 11.935C3.7157 11.9157 3.71866 11.8966 3.7223 11.8775C3.7264 11.856 3.73096 11.8346 3.73722 11.8136C3.74323 11.7933 3.7505 11.7736 3.75852 11.7539C3.76665 11.7339 3.77605 11.7146 3.78622 11.6953C3.79556 11.6777 3.80497 11.66 3.81605 11.6431C3.82931 11.6228 3.84401 11.6035 3.85973 11.5845C3.86631 11.5766 3.87189 11.5677 3.87891 11.56C3.88448 11.5539 3.89126 11.5488 3.89702 11.543C3.90574 11.5341 3.91326 11.5237 3.92259 11.5153L9.92259 6.06072Z" fill="#10100F"/>
<path d="M13.1516 6.10547C13.3948 5.83801 13.8089 5.81763 14.0764 6.06072L20.0763 11.5153C20.0855 11.5236 20.0923 11.5343 20.1009 11.543C20.1068 11.549 20.1143 11.5537 20.12 11.56C20.1269 11.5676 20.1317 11.5767 20.1381 11.5845C20.1539 11.6035 20.1685 11.6228 20.1818 11.6431C20.1929 11.6601 20.2023 11.6776 20.2116 11.6953C20.2218 11.7146 20.2312 11.7339 20.2393 11.7539C20.2474 11.7736 20.2546 11.7933 20.2607 11.8136C20.2669 11.8347 20.2715 11.8559 20.2756 11.8775C20.2792 11.8967 20.2822 11.9157 20.2841 11.935C20.2863 11.9567 20.2873 11.9782 20.2873 12C20.2873 12.0214 20.2862 12.0426 20.2841 12.0639C20.2821 12.084 20.2794 12.1037 20.2756 12.1236C20.2716 12.1441 20.2666 12.1642 20.2607 12.1843C20.2546 12.2049 20.2475 12.225 20.2393 12.245C20.2312 12.2651 20.2218 12.2843 20.2116 12.3036C20.2023 12.3213 20.1929 12.3388 20.1818 12.3558C20.1685 12.3762 20.1539 12.3954 20.1381 12.4144C20.1315 12.4224 20.1271 12.4322 20.12 12.44C20.1142 12.4464 20.1059 12.4509 20.0998 12.457C20.0914 12.4656 20.0853 12.4766 20.0763 12.4847L14.0764 17.9393C13.8089 18.1824 13.3948 18.162 13.1516 17.8945C12.9087 17.6271 12.9282 17.214 13.1953 16.9709L18.6626 12L13.1953 7.03018C12.9278 6.78702 12.9085 6.37295 13.1516 6.10547Z" fill="#10100F"/>
<path fill-rule="evenodd" clip-rule="evenodd" d="M12 0C18.6274 0 24 5.37258 24 12C24 18.6274 18.6274 24 12 24C5.37258 24 0 18.6274 0 12C0 5.37258 5.37258 0 12 0ZM12 1.3093C6.09557 1.3093 1.3093 6.09557 1.3093 12C1.3093 17.9044 6.09557 22.6907 12 22.6907C17.9044 22.6907 22.6907 17.9044 22.6907 12C22.6907 6.09557 17.9044 1.3093 12 1.3093Z" fill="#10100F"/>
</svg>
