<svg width="24" height="24" viewBox="0 0 24 24" fill="none" xmlns="http://www.w3.org/2000/svg">
<path d="M16.9709 9.3782C17.2141 9.11071 17.6281 9.09028 17.8956 9.33345C18.163 9.57659 18.1823 9.99069 17.9393 10.2582L12.4847 16.2582C12.4776 16.266 12.4676 16.271 12.4602 16.2784C12.4529 16.2858 12.4478 16.2958 12.44 16.3029C12.4303 16.3117 12.4181 16.3172 12.408 16.3253C12.3926 16.3377 12.3774 16.3496 12.3612 16.3604C12.342 16.3733 12.3227 16.385 12.3026 16.3956C12.2827 16.406 12.2625 16.4151 12.2418 16.4233C12.2235 16.4306 12.2052 16.4369 12.1864 16.4425C12.1646 16.449 12.1427 16.4543 12.1204 16.4585C12.1019 16.4619 12.0836 16.4651 12.065 16.467C12.0433 16.4691 12.0218 16.4702 12 16.4702C11.9779 16.4702 11.956 16.4692 11.9339 16.467C11.9153 16.4651 11.897 16.4619 11.8786 16.4585C11.8562 16.4543 11.8344 16.449 11.8125 16.4425C11.7938 16.4368 11.7754 16.4306 11.7571 16.4233C11.7364 16.415 11.7163 16.406 11.6964 16.3956C11.6763 16.385 11.6569 16.3733 11.6378 16.3604C11.6216 16.3496 11.6063 16.3377 11.5909 16.3253C11.5811 16.3174 11.5695 16.3115 11.56 16.3029C11.552 16.2957 11.5462 16.2859 11.5387 16.2784C11.5315 16.2712 11.5222 16.2658 11.5153 16.2582L6.06072 10.2582C5.81766 9.99069 5.83698 9.57659 6.1044 9.33345C6.37189 9.09028 6.78595 9.11071 7.02912 9.3782L12 14.8455L16.9709 9.3782Z" fill="#10100F"/>
<path fill-rule="evenodd" clip-rule="evenodd" d="M12 0C18.6274 0 24 5.37258 24 12C24 18.6274 18.6274 24 12 24C5.37258 24 0 18.6274 0 12C0 5.37258 5.37258 0 12 0ZM12 1.3093C6.09557 1.3093 1.3093 6.09557 1.3093 12C1.3093 17.9044 6.09557 22.6907 12 22.6907C17.9044 22.6907 22.6907 17.9044 22.6907 12C22.6907 6.09557 17.9044 1.3093 12 1.3093Z" fill="#10100F"/>
</svg>
