<svg width="24" height="24" viewBox="0 0 24 24" fill="none" xmlns="http://www.w3.org/2000/svg">
<path d="M9.4248 4.95062C9.73611 4.66876 10.2236 4.68616 10.5127 4.98968C10.8015 5.29322 10.7829 5.76749 10.4717 6.04925L3.89941 11.9994L10.4717 17.9506C10.7829 18.2324 10.8014 18.7067 10.5127 19.0102C10.2236 19.3137 9.73611 19.3321 9.4248 19.0502L2.26465 12.5668C2.24412 12.5494 2.22499 12.5301 2.20605 12.5102L2.19043 12.4946C2.18078 12.4839 2.17201 12.4725 2.16309 12.4614C2.15871 12.4559 2.15459 12.4503 2.15039 12.4448C2.14557 12.4384 2.14131 12.4317 2.13672 12.4252C2.11831 12.3993 2.10352 12.3717 2.08887 12.3442C2.07803 12.3238 2.0674 12.3037 2.05859 12.2827C2.04789 12.257 2.03989 12.2309 2.03223 12.2045C2.02683 12.186 2.02149 12.1677 2.01758 12.1489C2.01174 12.1207 2.00834 12.0924 2.00586 12.0639C2.00396 12.0424 2.00195 12.0211 2.00195 11.9994C2.00198 11.9778 2.00393 11.9565 2.00586 11.935C2.00838 11.9065 2.0117 11.8782 2.01758 11.85C2.02151 11.8312 2.02681 11.8129 2.03223 11.7944C2.03993 11.768 2.04786 11.7418 2.05859 11.7162C2.06742 11.6952 2.07801 11.675 2.08887 11.6547C2.10354 11.6273 2.11829 11.5996 2.13672 11.5737C2.14131 11.5672 2.14557 11.5605 2.15039 11.5541C2.15557 11.5473 2.16057 11.5403 2.16602 11.5336C2.1763 11.521 2.18702 11.5086 2.19824 11.4965C2.20043 11.4942 2.20286 11.492 2.20508 11.4897C2.22419 11.4696 2.24392 11.4496 2.26465 11.4321L9.4248 4.95062Z" fill="#10100F"/>
<path d="M13.4873 4.98968C13.7764 4.68616 14.2639 4.66876 14.5752 4.95062L21.7539 11.4506C21.7734 11.4682 21.7924 11.4863 21.8096 11.5053L21.8447 11.5483C21.8462 11.5501 21.8472 11.5523 21.8486 11.5541C21.8535 11.5605 21.8577 11.5672 21.8623 11.5737C21.8808 11.5996 21.8955 11.6272 21.9102 11.6547C21.921 11.6751 21.9316 11.6952 21.9404 11.7162C21.9512 11.7419 21.9591 11.768 21.9668 11.7944C21.9722 11.8129 21.9775 11.8312 21.9814 11.85C21.9873 11.8782 21.9906 11.9064 21.9932 11.935C21.9951 11.9565 21.997 11.9778 21.9971 11.9994C21.9971 12.0211 21.9951 12.0424 21.9932 12.0639C21.9907 12.0925 21.9873 12.1206 21.9814 12.1489C21.9775 12.1677 21.9722 12.186 21.9668 12.2045C21.9591 12.2309 21.9512 12.257 21.9404 12.2827C21.9316 12.3037 21.921 12.3238 21.9102 12.3442C21.8955 12.3717 21.8808 12.3992 21.8623 12.4252C21.8577 12.4317 21.8535 12.4384 21.8486 12.4448C21.8444 12.4503 21.8403 12.4559 21.8359 12.4614C21.823 12.4774 21.8094 12.493 21.7949 12.5082L21.7939 12.5102C21.7748 12.5303 21.7551 12.5493 21.7344 12.5668L14.5752 19.0502C14.2639 19.3321 13.7764 19.3137 13.4873 19.0102C13.1986 18.7067 13.2171 18.2324 13.5283 17.9506L20.0996 11.9994L13.5283 6.04925C13.2171 5.76749 13.1985 5.29322 13.4873 4.98968Z" fill="#10100F"/>
</svg>
