<svg width="24" height="24" viewBox="0 0 24 24" fill="none" xmlns="http://www.w3.org/2000/svg">
<path d="M17.7452 8.73941C18.0173 8.43609 18.4756 8.41868 18.7686 8.70035C19.0617 8.9822 19.0788 9.45736 18.8067 9.7609L12.5303 16.7609C12.5268 16.7648 12.5222 16.7678 12.5186 16.7716C12.51 16.7808 12.5024 16.7911 12.4932 16.8C12.4891 16.8039 12.4837 16.8068 12.4795 16.8107C12.4717 16.8179 12.4632 16.8244 12.4551 16.8312C12.4473 16.8378 12.4397 16.8445 12.4317 16.8507C12.425 16.8559 12.418 16.8605 12.4112 16.8654C12.3865 16.8831 12.3602 16.8971 12.334 16.9113C12.3124 16.923 12.2911 16.9342 12.2686 16.9435C12.2474 16.9523 12.2259 16.9593 12.2042 16.966C12.1827 16.9725 12.1616 16.9791 12.1397 16.9836C12.1144 16.9887 12.0891 16.991 12.0635 16.9933C12.0423 16.9953 12.0214 16.9972 12.0001 16.9972C11.9784 16.9972 11.9571 16.9953 11.9356 16.9933C11.91 16.991 11.8847 16.9887 11.8594 16.9836C11.8376 16.9791 11.8164 16.9725 11.795 16.966C11.7732 16.9593 11.7517 16.9524 11.7305 16.9435C11.7081 16.9342 11.6867 16.923 11.6651 16.9113C11.639 16.8971 11.6126 16.8832 11.5879 16.8654C11.5811 16.8605 11.5741 16.8559 11.5674 16.8507C11.5594 16.8445 11.5518 16.8378 11.544 16.8312C11.5359 16.8244 11.5274 16.8179 11.5196 16.8107C11.5156 16.807 11.5109 16.8038 11.5069 16.8C11.4976 16.791 11.4893 16.781 11.4805 16.7716C11.4771 16.768 11.4732 16.7647 11.4698 16.7609L5.19341 9.7609C4.92128 9.45736 4.93843 8.9822 5.2315 8.70035C5.52451 8.41868 5.98282 8.43609 6.25494 8.73941L12.0001 15.1476L17.7452 8.73941Z" fill="#10100F"/>
</svg>
