<svg width="24" height="24" viewBox="0 0 24 24" fill="none" xmlns="http://www.w3.org/2000/svg">
<path fill-rule="evenodd" clip-rule="evenodd" d="M12 0C18.6274 0 24 5.37258 24 12C24 18.6274 18.6274 24 12 24C5.37258 24 0 18.6274 0 12C0 5.37258 5.37258 0 12 0ZM17.8956 13.1516C17.6281 12.9085 17.2141 12.9289 16.9709 13.1964L12 18.6637L7.03018 13.1964C6.78702 12.9289 6.37295 12.9085 6.10547 13.1516C5.83804 13.3948 5.81873 13.8089 6.06179 14.0764L11.5163 20.0763C11.5217 20.0823 11.5289 20.0866 11.5344 20.0923C11.5433 20.1014 11.5505 20.1125 11.56 20.1211C11.5716 20.1316 11.5852 20.1393 11.5973 20.1488C11.6092 20.1582 11.6212 20.167 11.6335 20.1754C11.6557 20.1905 11.6783 20.2038 11.7017 20.2159C11.7189 20.2248 11.7361 20.2332 11.7539 20.2404C11.7743 20.2487 11.7948 20.2556 11.8157 20.2617C11.8358 20.2676 11.8559 20.2727 11.8764 20.2766C11.8959 20.2804 11.9153 20.2832 11.935 20.2852C11.9567 20.2873 11.9782 20.2883 12 20.2884C12.0218 20.2884 12.0433 20.2873 12.065 20.2852C12.0847 20.2832 12.1041 20.2804 12.1236 20.2766C12.1441 20.2727 12.1642 20.2676 12.1843 20.2617C12.2052 20.2556 12.2257 20.2487 12.2461 20.2404C12.2639 20.2332 12.2811 20.2248 12.2983 20.2159C12.3217 20.2039 12.3443 20.1905 12.3665 20.1754C12.3789 20.167 12.3908 20.1582 12.4027 20.1488C12.415 20.1391 12.4293 20.1318 12.4411 20.1211C12.4503 20.1126 12.4569 20.1012 12.4656 20.0923C12.4713 20.0865 12.4792 20.0825 12.4847 20.0763L17.9393 14.0764C18.1823 13.8089 18.163 13.3948 17.8956 13.1516ZM12 3.71058C11.9782 3.71061 11.9567 3.7116 11.935 3.71378C11.9154 3.71574 11.8959 3.71855 11.8764 3.7223C11.8559 3.72625 11.8358 3.7313 11.8157 3.73722C11.7948 3.74336 11.7742 3.75024 11.7539 3.75852C11.7354 3.76606 11.7175 3.7748 11.6996 3.78409C11.6789 3.79483 11.6585 3.80613 11.6389 3.81925C11.6227 3.83003 11.6073 3.84204 11.592 3.8544C11.5816 3.86276 11.57 3.86982 11.56 3.87891C11.5511 3.88705 11.5439 3.89702 11.5355 3.90554C11.5295 3.9117 11.5222 3.9172 11.5163 3.92365L6.06179 9.92365C5.81899 10.191 5.83847 10.6042 6.10547 10.8473C6.37294 11.0905 6.78701 11.0711 7.03018 10.8036L12 5.33523L16.9709 10.8036C17.2141 11.0711 17.6281 11.0905 17.8956 10.8473C18.1626 10.6042 18.1821 10.191 17.9393 9.92365L12.4847 3.92365C12.4787 3.91701 12.4707 3.91187 12.4645 3.90554C12.4563 3.89721 12.4498 3.88688 12.4411 3.87891C12.4308 3.86963 12.4186 3.86292 12.408 3.8544C12.3926 3.84205 12.3774 3.83002 12.3612 3.81925C12.3414 3.80615 12.3211 3.79481 12.3004 3.78409C12.2825 3.77482 12.2646 3.76604 12.2461 3.75852C12.2257 3.75027 12.2052 3.74333 12.1843 3.73722C12.1642 3.73133 12.1441 3.72622 12.1236 3.7223C12.1041 3.71859 12.0847 3.71571 12.065 3.71378C12.0433 3.71163 12.0218 3.71057 12 3.71058Z" fill="#10100F"/>
</svg>
