<svg width="24" height="24" viewBox="0 0 24 24" fill="none" xmlns="http://www.w3.org/2000/svg">
<path d="M7.95099 4.98971C8.23286 4.68625 8.70706 4.66881 9.01056 4.95065L16.0106 11.4507C16.0172 11.4568 16.0228 11.4639 16.0291 11.4702C16.0357 11.4768 16.0432 11.4828 16.0496 11.4897C16.051 11.4912 16.0521 11.4931 16.0535 11.4946C16.0631 11.5051 16.072 11.516 16.0809 11.5268C16.0897 11.5376 16.0991 11.5479 16.1072 11.5591C16.1097 11.5625 16.1116 11.5663 16.1141 11.5698C16.1326 11.5961 16.1462 11.6248 16.1609 11.6528C16.1725 11.6748 16.1839 11.6964 16.1932 11.7192C16.2021 11.7413 16.2089 11.7639 16.2156 11.7866C16.2226 11.8099 16.2286 11.8331 16.2332 11.8569C16.2377 11.88 16.2407 11.9029 16.243 11.9262C16.2454 11.9507 16.2478 11.9749 16.2479 11.9995C16.2479 12.024 16.2454 12.0483 16.243 12.0727C16.2407 12.096 16.2377 12.119 16.2332 12.1421C16.2286 12.1659 16.2225 12.189 16.2156 12.2124C16.2089 12.2351 16.2021 12.2576 16.1932 12.2798C16.184 12.3026 16.1725 12.3242 16.1609 12.3462C16.1463 12.3742 16.1326 12.4028 16.1141 12.4292C16.1116 12.4326 16.1097 12.4365 16.1072 12.4399C16.0991 12.4511 16.0897 12.4613 16.0809 12.4721C16.072 12.483 16.0631 12.4939 16.0535 12.5044C16.052 12.5061 16.0512 12.5085 16.0496 12.5102C16.0434 12.5169 16.0355 12.5223 16.0291 12.5288C16.0226 12.5353 16.0173 12.543 16.0106 12.5493L9.01056 19.0503C8.70704 19.332 8.23281 19.3137 7.95099 19.0102C7.66912 18.7067 7.68653 18.2325 7.99005 17.9507L14.3973 11.9995L7.99005 6.04928C7.68653 5.76742 7.66912 5.29324 7.95099 4.98971Z" fill="#10100F"/>
</svg>
