<svg width="24" height="24" viewBox="0 0 24 24" fill="none" xmlns="http://www.w3.org/2000/svg">
<path d="M7.59961 17C7.93098 17 8.2002 17.2692 8.2002 17.6006C8.19993 17.9317 7.93082 18.2002 7.59961 18.2002C7.26858 18.2 7.00026 17.9316 7 17.6006C7 17.2693 7.26842 17.0002 7.59961 17Z" fill="#10100F"/>
<path d="M16.3994 17C16.7307 17 16.9998 17.2684 17 17.5996C17 17.931 16.7308 18.2002 16.3994 18.2002H9.59961C9.26842 18.2 9 17.9308 9 17.5996C9.00021 17.2685 9.26855 17.0002 9.59961 17H16.3994Z" fill="#10100F"/>
<path d="M7.59961 13.4004C7.93098 13.4004 8.2002 13.6686 8.2002 14C8.2002 14.3314 7.93098 14.5996 7.59961 14.5996C7.26842 14.5994 7 14.3312 7 14C7 13.6688 7.26842 13.4006 7.59961 13.4004Z" fill="#10100F"/>
<path d="M16.4004 13.4004C16.7316 13.4006 17 13.6688 17 14C16.9999 14.3312 16.7315 14.5994 16.4004 14.5996H9.59961C9.26845 14.5994 9.00005 14.3312 9 14C9 13.6688 9.26842 13.4006 9.59961 13.4004H16.4004Z" fill="#10100F"/>
<path d="M7.59961 9.7998C7.9308 9.80002 8.19922 10.0691 8.19922 10.4004C8.19911 10.7315 7.93074 10.9998 7.59961 11C7.2683 11 6.99913 10.7317 6.99902 10.4004C6.99902 10.069 7.26824 9.7998 7.59961 9.7998Z" fill="#10100F"/>
<path d="M16.4004 9.7998C16.7318 9.7998 17 10.069 17 10.4004C16.9999 10.7317 16.7317 11 16.4004 11H9.60059C9.26922 11 9 10.7308 9 10.3994C9.00021 10.0682 9.26935 9.7998 9.60059 9.7998H16.4004Z" fill="#10100F"/>
<path fill-rule="evenodd" clip-rule="evenodd" d="M13.5 1C14.749 1 15.7807 1.91646 15.9668 3.11328C15.9609 3.07542 15.9578 3.03728 15.9502 3H17C19.2091 3 21 4.79086 21 7V19C21 21.2091 19.2091 23 17 23H7C4.79086 23 3 21.2091 3 19V7C3 4.79086 4.79086 3 7 3H8.0498C8.04224 3.03728 8.03909 3.07542 8.0332 3.11328C8.21931 1.91646 9.251 1 10.5 1H13.5ZM15.9482 4.00586C15.7143 5.144 14.7074 6 13.5 6H10.5C9.29263 6 8.28569 5.144 8.05176 4.00586C8.06525 4.07151 8.08108 4.13653 8.09961 4.2002H7C5.4536 4.2002 4.2002 5.4536 4.2002 7V19C4.2002 20.5464 5.4536 21.7998 7 21.7998H17C18.5464 21.7998 19.7998 20.5464 19.7998 19V7C19.7998 5.4536 18.5464 4.2002 17 4.2002H15.9004C15.9189 4.13653 15.9347 4.07151 15.9482 4.00586ZM10.5 2.2002C9.78203 2.2002 9.2002 2.78203 9.2002 3.5C9.2002 4.21797 9.78203 4.7998 10.5 4.7998H13.5C14.218 4.7998 14.7998 4.21797 14.7998 3.5C14.7998 2.78203 14.218 2.2002 13.5 2.2002H10.5ZM8.00684 3.68066C8.00775 3.69341 8.00964 3.70605 8.01074 3.71875C8.00449 3.64663 8 3.57374 8 3.5L8.00684 3.68066Z" fill="#10100F"/>
</svg>
