<svg width="24" height="24" viewBox="0 0 24 24" fill="none" xmlns="http://www.w3.org/2000/svg">
<path fill-rule="evenodd" clip-rule="evenodd" d="M13.5 1C14.749 1 15.7807 1.91646 15.9668 3.11328C15.9609 3.07542 15.9578 3.03728 15.9502 3H17C19.2091 3 21 4.79086 21 7V19C21 21.2091 19.2091 23 17 23H7L6.79395 22.9951C4.68056 22.8879 3 21.14 3 19V7C3 4.79086 4.79086 3 7 3H8.0498C8.04224 3.03728 8.03907 3.07542 8.0332 3.11328C8.21931 1.91646 9.251 1 10.5 1H13.5ZM7.59961 17C7.26842 17.0002 7 17.2693 7 17.6006C7.00026 17.9316 7.26858 18.2 7.59961 18.2002C7.93082 18.2002 8.19993 17.9317 8.2002 17.6006C8.2002 17.2692 7.93098 17 7.59961 17ZM9.5 17C9.16894 17.0002 8.9006 17.2685 8.90039 17.5996C8.90039 17.9309 9.16881 18.2 9.5 18.2002H16.5C16.8314 18.2002 17.1006 17.931 17.1006 17.5996C17.1004 17.2684 16.8312 17 16.5 17H9.5ZM7.59961 13.4004C7.26842 13.4006 7 13.6688 7 14C7 14.3312 7.26842 14.5994 7.59961 14.5996C7.93098 14.5996 8.2002 14.3314 8.2002 14C8.2002 13.6686 7.93098 13.4004 7.59961 13.4004ZM9.5 13.4004C9.16881 13.4006 8.90039 13.6688 8.90039 14C8.90044 14.3312 9.16884 14.5994 9.5 14.5996H16.5C16.8313 14.5996 17.1005 14.3313 17.1006 14C17.1006 13.6686 16.8314 13.4004 16.5 13.4004H9.5ZM7.59961 10C7.26842 10.0002 7 10.2693 7 10.6006C7.00026 10.9316 7.26858 11.2 7.59961 11.2002C7.93082 11.2002 8.19993 10.9317 8.2002 10.6006C8.2002 10.2692 7.93098 10 7.59961 10ZM9.5 10C9.16894 10.0002 8.9006 10.2685 8.90039 10.5996C8.90039 10.9309 9.16881 11.2 9.5 11.2002H16.5C16.8314 11.2002 17.1006 10.931 17.1006 10.5996C17.1004 10.2684 16.8312 10 16.5 10H9.5ZM10.5 2.2002C9.78203 2.2002 9.2002 2.78203 9.2002 3.5C9.2002 4.21797 9.78203 4.7998 10.5 4.7998H13.5C14.218 4.7998 14.7998 4.21797 14.7998 3.5C14.7998 2.78203 14.218 2.2002 13.5 2.2002H10.5Z" fill="#10100F"/>
</svg>
