<svg width="24" height="24" viewBox="0 0 24 24" fill="none" xmlns="http://www.w3.org/2000/svg">
<path d="M12 6.25098C12.3312 6.25098 12.5994 6.51942 12.5996 6.85059V11.752L14.9238 14.0762C15.1581 14.3105 15.1581 14.6895 14.9238 14.9238C14.6895 15.1581 14.3105 15.1581 14.0762 14.9238L11.5762 12.4238C11.533 12.3806 11.4999 12.3315 11.4727 12.2803C11.4279 12.1963 11.4004 12.1018 11.4004 12V6.85059C11.4006 6.51943 11.6688 6.25099 12 6.25098Z" fill="#10100F"/>
<path fill-rule="evenodd" clip-rule="evenodd" d="M12 1C18.0751 1 23 5.92487 23 12C23 18.0751 18.0751 23 12 23C5.92487 23 1 18.0751 1 12C1 5.92487 5.92487 1 12 1ZM12 2.2002C6.58761 2.2002 2.2002 6.58761 2.2002 12C2.2002 17.4124 6.58761 21.7998 12 21.7998C17.4124 21.7998 21.7998 17.4124 21.7998 12C21.7998 6.58761 17.4124 2.2002 12 2.2002Z" fill="#10100F"/>
</svg>
