<svg width="24" height="24" viewBox="0 0 24 24" fill="none" xmlns="http://www.w3.org/2000/svg">
<path fill-rule="evenodd" clip-rule="evenodd" d="M12 1C18.0751 1 23 5.92487 23 12C23 18.0751 18.0751 23 12 23C5.92487 23 1 18.0751 1 12C1 5.92487 5.92487 1 12 1ZM12 6.25098C11.6688 6.25098 11.4006 6.51942 11.4004 6.85059V12C11.4004 12.1018 11.4279 12.1963 11.4727 12.2803C11.4999 12.3315 11.533 12.3806 11.5762 12.4238L14.0762 14.9238C14.3105 15.1581 14.6895 15.1581 14.9238 14.9238C15.1581 14.6895 15.1581 14.3105 14.9238 14.0762L12.5996 11.752V6.85059C12.5994 6.51942 12.3312 6.25098 12 6.25098Z" fill="#10100F"/>
</svg>
