<svg width="24" height="24" viewBox="0 0 24 24" fill="none" xmlns="http://www.w3.org/2000/svg">
<path d="M16.9697 5.96967C17.2626 5.67678 17.7373 5.67678 18.0302 5.96967C18.3231 6.26256 18.3231 6.73732 18.0302 7.03022L13.0605 11.9999L18.0302 16.9697C18.3231 17.2626 18.3231 17.7373 18.0302 18.0302C17.7373 18.3231 17.2626 18.3231 16.9697 18.0302L11.9999 13.0605L7.03022 18.0302C6.73732 18.3231 6.26256 18.3231 5.96967 18.0302C5.67678 17.7373 5.67678 17.2626 5.96967 16.9697L10.9394 11.9999L5.96967 7.03022C5.67678 6.73732 5.67678 6.26256 5.96967 5.96967C6.26256 5.67678 6.73732 5.67678 7.03022 5.96967L11.9999 10.9394L16.9697 5.96967Z" fill="#10100F"/>
</svg>
