<svg width="24" height="24" viewBox="0 0 24 24" fill="none" xmlns="http://www.w3.org/2000/svg">
<path fill-rule="evenodd" clip-rule="evenodd" d="M18 2C20.2091 2 22 3.79086 22 6V18C22 20.2091 20.2091 22 18 22H6L5.79395 21.9951C3.68056 21.8879 2 20.14 2 18V6C2 3.79086 3.79086 2 6 2H18ZM10.9482 7.60156C10.7281 7.35393 10.3492 7.3317 10.1016 7.55176L6.02148 11.1777C5.52924 11.6153 5.52923 12.3847 6.02148 12.8223L10.1016 16.4482C10.3492 16.6682 10.7281 16.646 10.9482 16.3984C11.1683 16.1508 11.1459 15.7719 10.8984 15.5518L6.90332 12L10.8984 8.44824C11.146 8.22813 11.1682 7.8492 10.9482 7.60156ZM13.8975 7.55176C13.6498 7.33179 13.2709 7.35396 13.0508 7.60156C12.8308 7.84917 12.8531 8.22809 13.1006 8.44824L17.0957 12L13.1006 15.5518C12.8531 15.7719 12.8308 16.1508 13.0508 16.3984C13.2709 16.6461 13.6498 16.6683 13.8975 16.4482L17.9775 12.8223C18.4698 12.3847 18.4698 11.6153 17.9775 11.1777L13.8975 7.55176Z" fill="#10100F"/>
</svg>
