<svg width="24" height="24" viewBox="0 0 24 24" fill="none" xmlns="http://www.w3.org/2000/svg">
<path d="M10.1016 7.55176C10.3492 7.3317 10.7281 7.35393 10.9482 7.60156C11.1682 7.8492 11.146 8.22813 10.8984 8.44824L6.90332 12L10.8984 15.5518C11.1459 15.7719 11.1683 16.1508 10.9482 16.3984C10.7281 16.646 10.3492 16.6682 10.1016 16.4482L6.02148 12.8223C5.52923 12.3847 5.52924 11.6153 6.02148 11.1777L10.1016 7.55176Z" fill="#10100F"/>
<path d="M13.0508 7.60156C13.2709 7.35396 13.6498 7.33179 13.8975 7.55176L17.9775 11.1777C18.4698 11.6153 18.4698 12.3847 17.9775 12.8223L13.8975 16.4482C13.6498 16.6683 13.2709 16.6461 13.0508 16.3984C12.8308 16.1508 12.8531 15.7719 13.1006 15.5518L17.0957 12L13.1006 8.44824C12.8531 8.22809 12.8308 7.84917 13.0508 7.60156Z" fill="#10100F"/>
<path fill-rule="evenodd" clip-rule="evenodd" d="M18 2C20.2091 2 22 3.79086 22 6V18C22 20.2091 20.2091 22 18 22H6C3.79086 22 2 20.2091 2 18V6C2 3.79086 3.79086 2 6 2H18ZM6 3.2002C4.4536 3.2002 3.2002 4.4536 3.2002 6V18C3.2002 19.5464 4.4536 20.7998 6 20.7998H18C19.5464 20.7998 20.7998 19.5464 20.7998 18V6C20.7998 4.4536 19.5464 3.2002 18 3.2002H6Z" fill="#10100F"/>
</svg>
