<svg width="24" height="24" viewBox="0 0 24 24" fill="none" xmlns="http://www.w3.org/2000/svg">
<path d="M14.25 22C13.8358 22 13.5 21.6642 13.5 21.25V15.25C13.5 14.2835 14.2835 13.5 15.25 13.5H21.25C21.6642 13.5 22 13.8358 22 14.25C22 14.6642 21.6642 15 21.25 15H15.25C15.1119 15 15 15.1119 15 15.25V21.25C15 21.6642 14.6642 22 14.25 22Z" fill="#10100F"/>
<path d="M2.75 10.5C2.33579 10.5 2 10.1642 2 9.75C2 9.33579 2.33579 9 2.75 9L8.75 9C8.88807 9 9 8.88807 9 8.75L9 2.75C9 2.33579 9.33579 2 9.75 2C10.1642 2 10.5 2.33579 10.5 2.75V8.75C10.5 9.7165 9.7165 10.5 8.75 10.5H2.75Z" fill="#10100F"/>
</svg>
