<svg width="24" height="24" viewBox="0 0 24 24" fill="none" xmlns="http://www.w3.org/2000/svg">
<path d="M14.2516 22C13.8374 22 13.5016 21.6642 13.5016 21.25V15.25C13.5016 14.2835 14.2851 13.5 15.2516 13.5H21.2516C21.6658 13.5 22.0016 13.8357 22.0016 14.25C22.0016 14.6642 21.6658 15 21.2516 15H15.2516C15.1136 15 15.0016 15.1119 15.0016 15.25V21.25C15.0016 21.6642 14.6659 22 14.2516 22Z" fill="#10100F"/>
<path d="M2.75 10.5C2.33579 10.5 2 10.1642 2 9.75C2 9.33579 2.33579 9 2.75 9L8.75 9C8.88807 9 9 8.88807 9 8.75L9 2.75C9 2.33579 9.33579 2 9.75 2C10.1642 2 10.5 2.33579 10.5 2.75V8.75C10.5 9.7165 9.7165 10.5 8.75 10.5L2.75 10.5Z" fill="#10100F"/>
</svg>
