<svg width="24" height="24" viewBox="0 0 24 24" fill="none" xmlns="http://www.w3.org/2000/svg">
<path d="M5 3C6.10457 3 7 3.89543 7 5V19C7 20.1046 6.10457 21 5 21H3C1.89543 21 1 20.1046 1 19V5C1 3.89543 1.89543 3 3 3H5ZM13 3C14.1046 3 15 3.89543 15 5V19C15 20.1046 14.1046 21 13 21H11C9.89543 21 9 20.1046 9 19V5C9 3.89543 9.89543 3 11 3H13ZM21 3C22.1046 3 23 3.89543 23 5V19C23 20.1046 22.1046 21 21 21H19C17.8954 21 17 20.1046 17 19V5C17 3.89543 17.8954 3 19 3H21ZM3 4.2002C2.55817 4.2002 2.2002 4.55817 2.2002 5V19C2.2002 19.4418 2.55817 19.7998 3 19.7998H5C5.44183 19.7998 5.7998 19.4418 5.7998 19V5C5.7998 4.55817 5.44183 4.2002 5 4.2002H3ZM11 4.2002C10.5582 4.2002 10.2002 4.55817 10.2002 5V19C10.2002 19.4418 10.5582 19.7998 11 19.7998H13C13.4418 19.7998 13.7998 19.4418 13.7998 19V5C13.7998 4.55817 13.4418 4.2002 13 4.2002H11ZM19 4.2002C18.5582 4.2002 18.2002 4.55817 18.2002 5V19C18.2002 19.4418 18.5582 19.7998 19 19.7998H21C21.4418 19.7998 21.7998 19.4418 21.7998 19V5C21.7998 4.55817 21.4418 4.2002 21 4.2002H19Z" fill="#10100F"/>
</svg>
