<svg width="24" height="24" viewBox="0 0 24 24" fill="none" xmlns="http://www.w3.org/2000/svg">
<path d="M5 3C6.10457 3 7 3.89543 7 5V19C7 20.1046 6.10457 21 5 21H3L2.7959 20.9893C1.78722 20.887 1 20.0357 1 19V5C1 3.89543 1.89543 3 3 3H5ZM13 3C14.1046 3 15 3.89543 15 5V19C15 20.1046 14.1046 21 13 21H11L10.7959 20.9893C9.78722 20.887 9 20.0357 9 19V5C9 3.89543 9.89543 3 11 3H13ZM21 3C22.1046 3 23 3.89543 23 5V19C23 20.1046 22.1046 21 21 21H19L18.7959 20.9893C17.7872 20.887 17 20.0357 17 19V5C17 3.89543 17.8954 3 19 3H21Z" fill="#10100F"/>
</svg>
