<svg width="24" height="24" viewBox="0 0 24 24" fill="none" xmlns="http://www.w3.org/2000/svg">
<path d="M15.8828 14.8915C16.2161 14.8917 16.4862 15.1601 16.4863 15.4911C16.4863 15.8221 16.2162 16.0905 15.8828 16.0907H7.97363C7.64012 16.0907 7.36914 15.8223 7.36914 15.4911C7.36924 15.16 7.64018 14.8915 7.97363 14.8915H15.8828Z" fill="#10100F"/>
<path d="M16.0254 10.8934C16.3587 10.8934 16.6296 11.1621 16.6299 11.493C16.6299 11.8242 16.3589 12.0936 16.0254 12.0936H12C11.6665 12.0936 11.3965 11.8242 11.3965 11.493C11.3967 11.1621 11.6666 10.8934 12 10.8934H16.0254Z" fill="#10100F"/>
<path d="M15.8838 6.89635C16.2171 6.89654 16.4873 7.16489 16.4873 7.49596C16.4872 7.82691 16.2171 8.09537 15.8838 8.09557H7.97461C7.64118 8.09557 7.37025 7.82703 7.37012 7.49596C7.37012 7.16477 7.6411 6.89635 7.97461 6.89635H15.8838Z" fill="#10100F"/>
<path fill-rule="evenodd" clip-rule="evenodd" d="M18.1162 1.99889C20.3395 1.99904 22.1416 3.78912 22.1416 5.99693V12.0741L22.1201 17.077C22.1107 19.2782 20.3113 21.0584 18.0947 21.0585H7.38477C7.10787 21.0585 6.83158 21.0885 6.56152 21.1493L2.83594 21.9881C2.41421 22.0829 2.01281 21.7642 2.0127 21.3348V5.99693C2.0127 3.78917 3.81489 1.99911 6.03809 1.99889H18.1162ZM6.03809 3.1981C4.4819 3.19833 3.2207 4.45154 3.2207 5.99693V20.6717L6.29395 19.9794C6.65167 19.8989 7.01797 19.8583 7.38477 19.8583H18.0947C19.6463 19.8582 20.9055 18.6129 20.9121 17.0721L20.9336 12.0741V5.99693C20.9336 4.4515 19.6725 3.19826 18.1162 3.1981H6.03809Z" fill="#10100F"/>
</svg>
