<svg width="24" height="24" viewBox="0 0 24 24" fill="none" xmlns="http://www.w3.org/2000/svg">
<path fill-rule="evenodd" clip-rule="evenodd" d="M18.0039 1.99889C20.2108 1.99889 22 3.78903 22 5.99693V12.0741L21.9785 17.0741C21.969 19.2752 20.1826 21.0546 17.9824 21.0546H7.46387L7.25781 21.0604C7.05227 21.0719 6.84749 21.1008 6.64648 21.1463L2.94922 21.9842C2.87703 22.0006 2.80537 22.0036 2.73633 21.9969C2.34858 22.0369 2 21.7327 2 21.3309V5.99693C2 3.78925 3.78855 1.99925 5.99512 1.99889H18.0039ZM7.95898 14.8915C7.62796 14.8915 7.35938 15.1607 7.35938 15.4921C7.35963 15.8232 7.62812 16.0917 7.95898 16.0917H15.8096C16.1402 16.0914 16.408 15.8231 16.4082 15.4921C16.4082 15.1608 16.1404 14.8917 15.8096 14.8915H7.95898ZM11.9561 10.8934C11.625 10.8934 11.3564 11.1626 11.3564 11.494C11.3565 11.8253 11.6251 12.0936 11.9561 12.0936H15.9512C16.2821 12.0936 16.5507 11.8253 16.5508 11.494C16.5508 11.1626 16.2822 10.8934 15.9512 10.8934H11.9561ZM7.95996 6.89635C7.62897 6.89635 7.3604 7.16463 7.36035 7.49596C7.36035 7.82733 7.62894 8.09557 7.95996 8.09557H15.8105C16.1414 8.09531 16.4092 7.82717 16.4092 7.49596C16.4091 7.16478 16.1413 6.8966 15.8105 6.89635H7.95996Z" fill="#10100F"/>
</svg>
