<svg width="24" height="24" viewBox="0 0 24 24" fill="none" xmlns="http://www.w3.org/2000/svg">
<path d="M16.5918 9.06055C16.8346 8.83509 17.214 8.84905 17.4395 9.0918C17.6649 9.33459 17.6509 9.71396 17.4082 9.93945L10.4082 16.4395C10.1717 16.6591 9.80438 16.652 9.57617 16.4238L6.07617 12.9238C5.84187 12.6895 5.84186 12.3105 6.07617 12.0762C6.31048 11.8419 6.68952 11.8419 6.92383 12.0762L10.0156 15.167L16.5918 9.06055Z" fill="#10100F"/>
<path fill-rule="evenodd" clip-rule="evenodd" d="M12 1C18.0751 1 23 5.92487 23 12C23 18.0751 18.0751 23 12 23C5.92487 23 1 18.0751 1 12C1 5.92487 5.92487 1 12 1ZM12 2.2002C6.58761 2.2002 2.2002 6.58761 2.2002 12C2.2002 17.4124 6.58761 21.7998 12 21.7998C17.4124 21.7998 21.7998 17.4124 21.7998 12C21.7998 6.58761 17.4124 2.2002 12 2.2002Z" fill="#10100F"/>
</svg>
