<svg width="24" height="24" viewBox="0 0 24 24" fill="none" xmlns="http://www.w3.org/2000/svg">
<path fill-rule="evenodd" clip-rule="evenodd" d="M12 1C18.0751 1 23 5.92487 23 12C23 18.0751 18.0751 23 12 23C5.92487 23 1 18.0751 1 12C1 5.92487 5.92487 1 12 1ZM17.9395 8.5918C17.714 8.34905 17.3346 8.33509 17.0918 8.56055L10.5156 14.667L7.42383 11.5762C7.18952 11.3419 6.81048 11.3419 6.57617 11.5762C6.34186 11.8105 6.34187 12.1895 6.57617 12.4238L10.0762 15.9238C10.3044 16.152 10.6717 16.1591 10.9082 15.9395L17.9082 9.43945C18.1509 9.21396 18.1649 8.83459 17.9395 8.5918Z" fill="#10100F"/>
</svg>
