<svg width="24" height="24" viewBox="0 0 24 24" fill="none" xmlns="http://www.w3.org/2000/svg">
<path fill-rule="evenodd" clip-rule="evenodd" d="M18 14C20.2091 14 22 15.7909 22 18C22 20.2091 20.2091 22 18 22H6L5.79395 21.9951C3.68056 21.8879 2 20.14 2 18C2 15.7909 3.79086 14 6 14H18ZM6.71387 16.6426C6.06302 16.6426 5.53524 17.1705 5.53516 17.8213C5.53516 18.4722 6.06297 19 6.71387 19C7.36469 18.9999 7.89258 18.4721 7.89258 17.8213C7.89249 17.1705 7.36464 16.6427 6.71387 16.6426ZM11.999 16.6426C11.3482 16.6426 10.8204 17.1705 10.8203 17.8213C10.8203 18.4722 11.3481 19 11.999 19C12.6499 19 13.1777 18.4722 13.1777 17.8213C13.1776 17.1705 12.6499 16.6426 11.999 16.6426ZM17.499 16.6426C16.8482 16.6426 16.3204 17.1705 16.3203 17.8213C16.3203 18.4722 16.8481 19 17.499 19C18.1499 19 18.6777 18.4722 18.6777 17.8213C18.6776 17.1705 18.1499 16.6426 17.499 16.6426Z" fill="#10100F"/>
<path d="M10.0039 5.93652C10.0041 7.04215 10.8937 7.93823 11.9941 7.93848H12.0186C13.119 7.93827 14.0086 7.04217 14.0088 5.93652V2H15C16.6569 2 18 3.34315 18 5V10C18 11.6569 16.6569 13 15 13H9C7.34315 13 6 11.6569 6 10V5C6 3.34315 7.34315 2 9 2H10.0039V5.93652Z" fill="#10100F"/>
<path d="M12.8086 5.93652C12.8084 6.38602 12.4497 6.73807 12.0186 6.73828H11.9941C11.563 6.73803 11.2043 6.386 11.2041 5.93652V2H12.8086V5.93652Z" fill="#10100F"/>
</svg>
