<svg width="24" height="24" viewBox="0 0 24 24" fill="none" xmlns="http://www.w3.org/2000/svg">
<path d="M6.71387 16.6426C7.36464 16.6427 7.89249 17.1705 7.89258 17.8213C7.89258 18.4721 7.36469 18.9999 6.71387 19C6.06297 19 5.53516 18.4722 5.53516 17.8213C5.53524 17.1705 6.06302 16.6426 6.71387 16.6426Z" fill="#10100F"/>
<path d="M11.999 16.6426C12.6499 16.6426 13.1776 17.1705 13.1777 17.8213C13.1777 18.4722 12.6499 19 11.999 19C11.3481 19 10.8203 18.4722 10.8203 17.8213C10.8204 17.1705 11.3482 16.6426 11.999 16.6426Z" fill="#10100F"/>
<path d="M17.499 16.6426C18.1499 16.6426 18.6776 17.1705 18.6777 17.8213C18.6777 18.4722 18.1499 19 17.499 19C16.8481 19 16.3203 18.4722 16.3203 17.8213C16.3204 17.1705 16.8482 16.6426 17.499 16.6426Z" fill="#10100F"/>
<path fill-rule="evenodd" clip-rule="evenodd" d="M18 14C20.2091 14 22 15.7909 22 18C22 20.2091 20.2091 22 18 22H6C3.79086 22 2 20.2091 2 18C2 15.7909 3.79086 14 6 14H18ZM6 15.2002C4.4536 15.2002 3.2002 16.4536 3.2002 18C3.2002 19.5464 4.4536 20.7998 6 20.7998H18C19.5464 20.7998 20.7998 19.5464 20.7998 18C20.7998 16.4536 19.5464 15.2002 18 15.2002H6Z" fill="#10100F"/>
<path fill-rule="evenodd" clip-rule="evenodd" d="M15 2C16.6569 2 18 3.34315 18 5V10C18 11.6569 16.6569 13 15 13H9C7.34315 13 6 11.6569 6 10V5C6 3.34315 7.34315 2 9 2H15ZM9 3.2002C8.00589 3.2002 7.2002 4.00589 7.2002 5V10C7.2002 10.9941 8.00589 11.7998 9 11.7998H15C15.9941 11.7998 16.7998 10.9941 16.7998 10V5C16.7998 4.00589 15.9941 3.2002 15 3.2002H14.0088V5.93652C14.0086 7.04212 13.119 7.93827 12.0186 7.93848H11.9941C10.8938 7.93823 10.0041 7.0421 10.0039 5.93652V3.2002H9ZM11.2041 5.93652C11.2043 6.38595 11.5631 6.73803 11.9941 6.73828H12.0186C12.4496 6.73807 12.8084 6.38597 12.8086 5.93652V3.2002H11.2041V5.93652Z" fill="#10100F"/>
</svg>
