<svg width="24" height="24" viewBox="0 0 24 24" fill="none" xmlns="http://www.w3.org/2000/svg">
<path fill-rule="evenodd" clip-rule="evenodd" d="M8.2548 2.00586C8.48348 2.01799 8.68013 2.04845 8.85148 2.09375C8.88029 2.10137 8.90806 2.11068 8.93547 2.11914C8.96443 2.12808 8.99295 2.13663 9.02043 2.14648C9.04076 2.15378 9.06044 2.16214 9.08 2.16992C9.10927 2.18157 9.13832 2.19237 9.16594 2.20508C9.24112 2.23968 9.3096 2.27944 9.37394 2.32129C9.39024 2.33189 9.40709 2.34151 9.42277 2.35254C9.44499 2.36817 9.46615 2.38491 9.48723 2.40137C9.50134 2.41239 9.51559 2.42319 9.52922 2.43457C9.55341 2.45477 9.57671 2.47579 9.59953 2.49707C9.6098 2.50665 9.61978 2.51657 9.6298 2.52637C9.64843 2.54457 9.66667 2.56313 9.68449 2.58203C9.7006 2.59912 9.71682 2.61616 9.73234 2.63379C9.74392 2.64694 9.75524 2.66039 9.76652 2.67383C9.78212 2.6924 9.79732 2.71138 9.81242 2.73047C9.8307 2.75357 9.84748 2.77795 9.86516 2.80176C9.90634 2.85724 9.94709 2.91383 9.98625 2.97266C10.0415 3.05571 10.0969 3.14144 10.1523 3.22949C10.1949 3.29733 10.2378 3.36675 10.2831 3.43652C10.6229 3.96006 11.0684 4.52397 12.0859 4.94238C12.2052 4.99146 12.3318 5.04024 12.4677 5.08496C13.7295 5.5003 14.7722 6.46552 15.5654 7.53125C15.995 8.10865 16.5244 8.56769 17.0761 8.93066C18.1548 9.64032 18.9372 10.76 19.3134 11.9951C19.6711 13.1697 20.3081 13.9346 20.9374 14.5283C21.6832 15.2321 22.0796 16.2523 21.6679 17.1914C21.6013 17.3433 21.5305 17.4866 21.4579 17.6221C21.4437 17.6486 21.4284 17.6743 21.414 17.7002C21.3898 17.7437 21.3655 17.7863 21.3407 17.8281C21.3241 17.8563 21.3069 17.8837 21.29 17.9111C21.268 17.9467 21.2469 17.9823 21.2245 18.0166C21.2022 18.0509 21.1789 18.0841 21.1562 18.1172C21.1418 18.1381 21.1278 18.1592 21.1132 18.1797C21.088 18.2152 21.0627 18.2501 21.037 18.2842C21.019 18.308 21.0005 18.3313 20.9823 18.3545C20.9584 18.385 20.9344 18.415 20.9101 18.4443C20.891 18.4674 20.8718 18.4903 20.8525 18.5127C20.8332 18.535 20.8143 18.5574 20.7948 18.5791C20.7703 18.6064 20.7454 18.633 20.7206 18.6592C20.6548 18.7287 20.5882 18.7949 20.5204 18.8574C20.4422 18.9295 20.3627 18.9972 20.2821 19.0605C20.1061 19.1991 19.924 19.3158 19.7402 19.418C19.684 19.4492 19.6269 19.4776 19.5702 19.5059C19.5281 19.5269 19.4866 19.5489 19.4443 19.5684C19.3879 19.5943 19.331 19.6182 19.2743 19.6416C19.2326 19.6589 19.1912 19.6764 19.1493 19.6924C19.0733 19.7214 18.9969 19.7473 18.9208 19.7725C18.8982 19.7799 18.876 19.7887 18.8534 19.7959C18.7743 19.821 18.695 19.8436 18.6161 19.8652C18.5932 19.8715 18.5706 19.8787 18.5478 19.8848C18.4488 19.9108 18.3505 19.9352 18.2528 19.957C18.2425 19.9593 18.2319 19.9606 18.2216 19.9629C18.0655 19.9972 17.9112 20.0254 17.7607 20.0527C17.5269 20.0952 17.3018 20.1343 17.0898 20.1738L16.9208 20.2139C16.5342 20.325 16.1955 20.5578 15.8915 20.8291C14.7943 21.8084 12.9243 22.8905 9.7382 20.8115C9.28932 20.5186 8.78137 20.3208 8.25676 20.2109C5.18631 19.5678 4.21495 17.4301 3.93254 15.8115C3.79575 15.0278 3.47817 14.2821 3.02531 13.6279C2.19602 12.43 1.54753 10.5374 3.15324 8.12402C3.54969 7.52805 3.79631 6.84001 3.91301 6.13379C4.39627 3.20864 6.76762 2.15635 8.01848 2L8.2548 2.00586ZM9.33293 13.7324C8.67121 13.7325 8.1348 14.2689 8.13469 14.9307C8.13469 15.5925 8.67114 16.1288 9.33293 16.1289C9.99482 16.1289 10.5312 15.5926 10.5312 14.9307C10.5311 14.2689 9.99475 13.7324 9.33293 13.7324ZM16.0439 13.0137C15.3821 13.0138 14.8456 13.5501 14.8456 14.2119C14.8456 14.8737 15.3821 15.41 16.0439 15.4102C16.7057 15.4102 17.2421 14.8738 17.2421 14.2119C17.2421 13.55 16.7058 13.0137 16.0439 13.0137ZM9.33293 7.9082C8.67114 7.90832 8.13469 8.44463 8.13469 9.10645C8.13471 9.76825 8.67115 10.3046 9.33293 10.3047C9.9948 10.3047 10.5312 9.76832 10.5312 9.10645C10.5312 8.44456 9.99482 7.9082 9.33293 7.9082Z" fill="#10100F"/>
</svg>
