<svg width="24" height="24" viewBox="0 0 24 24" fill="none" xmlns="http://www.w3.org/2000/svg">
<path d="M9.27304 13.7324C9.93486 13.7324 10.4712 14.2689 10.4713 14.9307C10.4713 15.5926 9.93493 16.1289 9.27304 16.1289C8.61125 16.1288 8.0748 15.5925 8.0748 14.9307C8.07491 14.2689 8.61132 13.7325 9.27304 13.7324Z" fill="#10100F"/>
<path d="M15.984 13.0137C16.6459 13.0137 17.1822 13.55 17.1822 14.2119C17.1822 14.8738 16.6459 15.4102 15.984 15.4102C15.3222 15.41 14.7858 14.8737 14.7857 14.2119C14.7857 13.5501 15.3222 13.0138 15.984 13.0137Z" fill="#10100F"/>
<path d="M9.27304 7.9082C9.93493 7.9082 10.4713 8.44456 10.4713 9.10645C10.4713 9.76832 9.93492 10.3047 9.27304 10.3047C8.61126 10.3046 8.07482 9.76825 8.0748 9.10645C8.0748 8.44463 8.61125 7.90832 9.27304 7.9082Z" fill="#10100F"/>
<path fill-rule="evenodd" clip-rule="evenodd" d="M7.95859 2C9.31865 2.00012 9.66874 2.55604 10.0924 3.22949C10.5528 3.96136 11.1004 4.83268 13.1275 5.28027C13.9924 5.47123 14.688 6.12146 15.106 6.90234C15.7109 8.03208 16.6825 8.79264 17.6373 9.29688C18.3984 9.69891 18.9301 10.4491 19.0846 11.2959C19.4268 13.1714 20.4261 14.1504 21.2857 14.8955C21.8021 15.3434 22.0335 16.0375 21.8072 16.6826C20.8128 19.5171 18.8694 19.8537 17.3873 20.1104C17.1808 20.1461 16.9832 20.1805 16.7984 20.2197C16.4948 20.2842 16.2311 20.4567 16.0055 20.6699C14.9118 21.7033 12.9539 23.0638 9.45077 20.6592C9.15616 20.4569 8.8155 20.3241 8.46347 20.2627C4.90386 19.6417 4.00603 17.089 3.81308 15.4014C3.75279 14.8746 3.5438 14.3747 3.21347 13.96C2.25097 12.7518 1.25697 10.6195 3.30429 7.82031C3.58604 7.43505 3.75427 6.97467 3.80429 6.5C4.14223 3.29558 6.65685 2.16271 7.95859 2ZM8.03574 3.20117C7.06589 3.35225 5.25182 4.21538 4.99765 6.62598C4.9272 7.29453 4.68948 7.95992 4.27304 8.5293C3.40115 9.72149 3.24696 10.6611 3.32285 11.3574C3.40231 12.0856 3.7524 12.7104 4.15195 13.2119C4.62078 13.8004 4.91931 14.5121 5.00546 15.2656C5.08753 15.9831 5.31373 16.814 5.83652 17.5127C6.33682 18.1812 7.1746 18.8192 8.66952 19.0801C9.17855 19.1689 9.68274 19.3633 10.1295 19.6699C11.7053 20.7516 12.7651 20.8762 13.4439 20.7686C14.1498 20.6565 14.6951 20.2572 15.1812 19.7979C15.5028 19.4941 15.9571 19.1716 16.5494 19.0459C16.8218 18.9881 17.0719 18.9442 17.3072 18.9033C17.8943 18.8013 18.3919 18.7148 18.9273 18.459C19.5495 18.1616 20.2102 17.6112 20.6754 16.2852C20.7166 16.1675 20.6974 15.9732 20.4996 15.8018C19.6243 15.0431 18.4735 13.9371 17.9908 11.9258L17.9039 11.5107C17.8127 11.011 17.499 10.5815 17.0768 10.3584C15.9891 9.78402 14.8009 8.87619 14.0475 7.46875C13.7451 6.90385 13.3007 6.54752 12.8687 6.45215C11.7604 6.20743 10.9537 5.83093 10.3385 5.35059C9.72394 4.8707 9.37542 4.34145 9.13339 3.95898C8.86435 3.53382 8.79157 3.42457 8.68613 3.34375C8.64359 3.31115 8.50474 3.21123 8.03574 3.20117Z" fill="#10100F"/>
</svg>
