<svg width="24" height="24" viewBox="0 0 24 24" fill="none" xmlns="http://www.w3.org/2000/svg">
<path d="M18.1543 5.00391C19.7395 5.0842 21 6.39489 21 8V17.9004H16.999C16.1146 17.9004 15.4004 18.6171 15.4004 19.5V23H10L9.8457 22.9961C8.26055 22.9158 7 21.6051 7 20V8C7 6.34315 8.34315 5.00001 10 5H18C18.0517 5 18.1032 5.00132 18.1543 5.00391Z" fill="#10100F"/>
<path d="M20.6895 19.0996C20.645 19.17 20.5974 19.2388 20.5439 19.3037L18.0996 22.2715C17.7289 22.7215 17.181 22.9844 16.5996 22.9971V19.5C16.5996 19.2783 16.7788 19.0996 16.999 19.0996H20.6895Z" fill="#10100F"/>
<path d="M14 1C15.6569 1 17 2.34315 17 4H9C7.34315 4 6 5.34315 6 7V19L5.8457 18.9961C4.26056 18.9158 3 17.6051 3 16V4C3 2.34315 4.34315 1 6 1H14Z" fill="#10100F"/>
</svg>
