<svg width="24" height="24" viewBox="0 0 24 24" fill="none" xmlns="http://www.w3.org/2000/svg">
<path fill-rule="evenodd" clip-rule="evenodd" d="M14 1C15.6569 1 17 2.34315 17 4V5H18C19.6569 5 21 6.34315 21 8V18.0322C21 18.496 20.8388 18.9457 20.5439 19.3037L18.0996 22.2715C17.7289 22.7215 17.181 22.9844 16.5996 22.9971V23H10C8.34314 23 7 21.6569 7 20V19H6C4.34315 19 3 17.6569 3 16V4C3 2.34315 4.34315 1 6 1H14ZM10 6.2002C9.0059 6.2002 8.2002 7.00589 8.2002 8V20C8.20019 20.9941 9.00589 21.7998 10 21.7998H15.4004V19.5C15.4004 18.6166 16.1161 17.8994 17 17.8994H19.7998V8C19.7998 7.00589 18.9941 6.2002 18 6.2002H10ZM17 19.0996C16.7793 19.0996 16.5996 19.2789 16.5996 19.5V21.7969C16.8224 21.7847 17.0311 21.682 17.1738 21.5088L19.1572 19.0996H17ZM6 2.2002C5.00589 2.2002 4.2002 3.00589 4.2002 4V16C4.2002 16.9941 5.00589 17.7998 6 17.7998H7V8C7 6.34315 8.34315 5.00001 10 5H15.7998V4C15.7998 3.00589 14.9941 2.2002 14 2.2002H6Z" fill="#10100F"/>
</svg>
