<svg width="24" height="24" viewBox="0 0 24 24" fill="none" xmlns="http://www.w3.org/2000/svg">
<path d="M10.75 12.0664C11.0814 12.0664 11.3496 12.3356 11.3496 12.667C11.3494 12.9982 11.0813 13.2666 10.75 13.2666H6.58301C6.25193 13.2664 5.98358 12.9981 5.9834 12.667C5.9834 12.3358 6.25182 12.0666 6.58301 12.0664H10.75Z" fill="#10100F"/>
<path d="M13.25 9.56641C13.5814 9.56641 13.8496 9.83562 13.8496 10.167C13.8494 10.4982 13.5813 10.7666 13.25 10.7666H6.58301C6.25193 10.7664 5.98358 10.4981 5.9834 10.167C5.9834 9.83575 6.25182 9.56662 6.58301 9.56641H13.25Z" fill="#10100F"/>
<path fill-rule="evenodd" clip-rule="evenodd" d="M19 6C20.6569 6 22 7.34315 22 9V18C22 19.6569 20.6569 21 19 21H6.66699C5.01014 21 3.66699 19.6569 3.66699 18V9C3.66699 7.34315 5.01014 6 6.66699 6H19ZM6.66699 7.2002C5.67288 7.2002 4.86719 8.00589 4.86719 9V18C4.86719 18.9941 5.67288 19.7998 6.66699 19.7998H19C19.9941 19.7998 20.8008 18.9941 20.8008 18V9C20.8008 8.00589 19.9941 7.2002 19 7.2002H6.66699Z" fill="#10100F"/>
<path d="M15.333 3C16.2947 3 17.149 3.45322 17.6973 4.15723C17.9865 4.52873 17.6651 4.99996 17.1943 5C16.9668 5 16.7605 4.87964 16.5986 4.71973C16.2735 4.39845 15.8262 4.2002 15.333 4.2002H3C2.00589 4.2002 1.2002 5.00589 1.2002 6V15C1.2002 15.6508 1.54595 16.2195 2.06348 16.5352C2.3054 16.6827 2.5 16.9227 2.5 17.2061C2.49999 17.5995 2.14076 17.9021 1.78125 17.7422C0.731639 17.2752 0 16.223 0 15V6C0 4.34315 1.34315 3 3 3H15.333Z" fill="#10100F"/>
</svg>
