<svg width="24" height="24" viewBox="0 0 24 24" fill="none" xmlns="http://www.w3.org/2000/svg">
<path d="M9.5 10.4004C9.83136 10.4004 10.0996 10.6686 10.0996 11C10.0996 11.3314 9.83137 11.5996 9.5 11.5996H4.5C4.16863 11.5996 3.90039 11.3314 3.90039 11C3.9004 10.6686 4.16864 10.4004 4.5 10.4004H9.5Z" fill="#10100F"/>
<path d="M12.5 7.40039C12.8314 7.40039 13.0996 7.66864 13.0996 8C13.0996 8.33137 12.8314 8.59961 12.5 8.59961H4.5C4.16863 8.59961 3.90039 8.33137 3.90039 8C3.9004 7.66864 4.16864 7.40039 4.5 7.40039H12.5Z" fill="#10100F"/>
<path fill-rule="evenodd" clip-rule="evenodd" d="M19 3C21.2091 3 23 4.79086 23 7V17C23 19.2091 21.2091 21 19 21H5C2.79086 21 1 19.2091 1 17V7C1 4.79086 2.79086 3 5 3H19ZM5 4.2002C3.4536 4.2002 2.2002 5.4536 2.2002 7V17C2.2002 18.5464 3.4536 19.7998 5 19.7998H19C20.5464 19.7998 21.7998 18.5464 21.7998 17V7C21.7998 5.4536 20.5464 4.2002 19 4.2002H5Z" fill="#10100F"/>
</svg>
