<svg width="24" height="24" viewBox="0 0 24 24" fill="none" xmlns="http://www.w3.org/2000/svg">
<path fill-rule="evenodd" clip-rule="evenodd" d="M19 3C21.2091 3 23 4.79086 23 7V17C23 19.2091 21.2091 21 19 21H5C2.79086 21 1 19.2091 1 17V7C1 4.79086 2.79086 3 5 3H19ZM4.5 10.4004C4.16865 10.4004 3.9004 10.6686 3.90039 11C3.90039 11.3314 4.16864 11.5996 4.5 11.5996H9.5C9.83137 11.5996 10.0996 11.3314 10.0996 11C10.0996 10.6686 9.83136 10.4004 9.5 10.4004H4.5ZM4.5 7.40039C4.16865 7.4004 3.9004 7.66865 3.90039 8C3.90039 8.33136 4.16864 8.5996 4.5 8.59961H12.5C12.8314 8.59961 13.0996 8.33137 13.0996 8C13.0996 7.66864 12.8314 7.40039 12.5 7.40039H4.5Z" fill="#10100F"/>
</svg>
