<svg width="24" height="24" viewBox="0 0 24 24" fill="none" xmlns="http://www.w3.org/2000/svg">
<path d="M5.51953 9.16504C5.6457 8.85872 5.99638 8.71282 6.30273 8.83887C6.60915 8.96504 6.75508 9.31566 6.62891 9.62207C6.53579 9.8482 6.45775 10.0395 6.40332 10.2246L6.39941 10.2373L6.33789 10.4463C6.20233 10.9376 6.12988 11.464 6.12988 12.001C6.12989 13.0738 6.41254 14.0726 6.91797 14.9424C7.08433 15.2289 6.98665 15.5962 6.7002 15.7627C6.41369 15.9291 6.04636 15.8314 5.87988 15.5449C5.26989 14.495 4.9297 13.2888 4.92969 12.001C4.92969 11.2681 5.04245 10.5469 5.25488 9.87891C5.32847 9.63051 5.42819 9.38768 5.51465 9.17773C5.51637 9.17355 5.51782 9.1692 5.51953 9.16504Z" fill="#10100F"/>
<path d="M12.0146 4.91406C15.9262 4.91406 19.1006 8.08844 19.1006 12C19.1006 13.2879 18.7604 14.494 18.1504 15.5439C17.9839 15.8304 17.6166 15.9282 17.3301 15.7617C17.0436 15.5953 16.946 15.2279 17.1123 14.9414C17.6177 14.0716 17.9004 13.0728 17.9004 12C17.9004 8.75118 15.2635 6.11426 12.0146 6.11426C11.1783 6.11428 10.3787 6.29066 9.66309 6.60742C9.36015 6.74141 9.00621 6.60463 8.87207 6.30176C8.73795 5.99874 8.87472 5.64389 9.17773 5.50977C10.0445 5.12617 11.0092 4.91408 12.0146 4.91406Z" fill="#10100F"/>
<path fill-rule="evenodd" clip-rule="evenodd" d="M7.03906 7.03613C7.27338 6.80182 7.65338 6.80182 7.8877 7.03613L10.1309 9.2793C10.662 8.91389 11.3056 8.70024 11.999 8.7002C13.8215 8.7002 15.2987 10.1776 15.2988 12C15.2988 13.8225 13.8216 15.2998 11.999 15.2998C10.1766 15.2997 8.69922 13.8225 8.69922 12C8.69926 11.3046 8.91388 10.659 9.28125 10.127L7.03906 7.88477C6.80475 7.65045 6.80475 7.27045 7.03906 7.03613ZM11.999 9.90039C11.4426 9.90044 10.9382 10.1184 10.5625 10.4717C10.5495 10.4877 10.5384 10.5056 10.5234 10.5205C10.508 10.5359 10.4893 10.5471 10.4727 10.5605C10.1179 10.9365 9.89946 11.4423 9.89941 12C9.89941 13.1597 10.8393 14.1005 11.999 14.1006C13.1588 14.1006 14.0996 13.1598 14.0996 12C14.0995 10.8403 13.1588 9.90039 11.999 9.90039Z" fill="#10100F"/>
<path fill-rule="evenodd" clip-rule="evenodd" d="M12 1C18.0751 1 23 5.92487 23 12C23 18.0751 18.0751 23 12 23C5.92487 23 1 18.0751 1 12C1 5.92487 5.92487 1 12 1ZM12 2.2002C6.58761 2.2002 2.2002 6.58761 2.2002 12C2.2002 17.4124 6.58761 21.7998 12 21.7998C17.4124 21.7998 21.7998 17.4124 21.7998 12C21.7998 6.58761 17.4124 2.2002 12 2.2002Z" fill="#10100F"/>
</svg>
