<svg width="24" height="24" viewBox="0 0 24 24" fill="none" xmlns="http://www.w3.org/2000/svg">
<path d="M11.999 9.90039C13.1588 9.90039 14.0995 10.8403 14.0996 12C14.0996 13.1598 13.1588 14.1006 11.999 14.1006C10.8393 14.1005 9.89941 13.1597 9.89941 12C9.89946 11.4423 10.1179 10.9365 10.4727 10.5605C10.4893 10.5471 10.508 10.5359 10.5234 10.5205C10.5384 10.5056 10.5495 10.4877 10.5625 10.4717C10.9382 10.1184 11.4426 9.90044 11.999 9.90039Z" fill="#10100F"/>
<path fill-rule="evenodd" clip-rule="evenodd" d="M12 1C18.0751 1 23 5.92487 23 12C23 18.0751 18.0751 23 12 23C5.92487 23 1 18.0751 1 12C1 5.92487 5.92487 1 12 1ZM6.30273 8.83887C5.99638 8.71282 5.6457 8.85872 5.51953 9.16504C5.51782 9.1692 5.51637 9.17355 5.51465 9.17773C5.42819 9.38768 5.32847 9.63051 5.25488 9.87891C5.04245 10.5469 4.92969 11.2681 4.92969 12.001C4.9297 13.2888 5.26989 14.495 5.87988 15.5449C6.04636 15.8314 6.41369 15.9291 6.7002 15.7627C6.98665 15.5962 7.08433 15.2289 6.91797 14.9424C6.41254 14.0726 6.12989 13.0738 6.12988 12.001C6.12988 11.464 6.20233 10.9376 6.33789 10.4463L6.39941 10.2373L6.40332 10.2246C6.45775 10.0395 6.53579 9.8482 6.62891 9.62207C6.75508 9.31566 6.60915 8.96504 6.30273 8.83887ZM12.0146 4.91406C11.0092 4.91408 10.0445 5.12617 9.17773 5.50977C8.87472 5.64389 8.73795 5.99874 8.87207 6.30176C9.00621 6.60463 9.36015 6.74141 9.66309 6.60742C10.3787 6.29066 11.1783 6.11428 12.0146 6.11426C15.2635 6.11426 17.9004 8.75118 17.9004 12C17.9004 13.0728 17.6177 14.0716 17.1123 14.9414C16.946 15.2279 17.0436 15.5953 17.3301 15.7617C17.6166 15.9282 17.9839 15.8304 18.1504 15.5439C18.7604 14.494 19.1006 13.2879 19.1006 12C19.1006 8.08844 15.9262 4.91406 12.0146 4.91406ZM7.8877 7.03613C7.65338 6.80182 7.27338 6.80182 7.03906 7.03613C6.80475 7.27045 6.80475 7.65045 7.03906 7.88477L9.28125 10.127C8.91388 10.659 8.69926 11.3046 8.69922 12C8.69922 13.8225 10.1766 15.2997 11.999 15.2998C13.8216 15.2998 15.2988 13.8225 15.2988 12C15.2987 10.1776 13.8215 8.7002 11.999 8.7002C11.3056 8.70024 10.662 8.91389 10.1309 9.2793L7.8877 7.03613Z" fill="#10100F"/>
</svg>
