<svg width="24" height="24" viewBox="0 0 24 24" fill="none" xmlns="http://www.w3.org/2000/svg">
<path fill-rule="evenodd" clip-rule="evenodd" d="M15.0003 3C16.657 3.0002 18.0003 4.34327 18.0003 6V11.293L18.0179 11.2764C18.9436 10.3508 20.4421 10.345 21.3616 11.2783C22.2852 12.2041 22.291 13.7012 21.3587 14.6201L17.0901 18.8887C16.3195 19.6593 15.2612 20.0994 14.1722 20.0996H9.86944C9.76012 20.511 9.54656 20.9009 9.22393 21.2236C8.24768 22.1999 6.66412 22.1998 5.6878 21.2236L2.76788 18.3037C1.79157 17.3274 1.79157 15.7439 2.76788 14.7676C3.49012 14.0455 4.54386 13.8588 5.43878 14.2051C5.55113 13.8911 5.73433 13.6203 5.98467 13.4072C5.98979 13.4029 5.99515 13.3988 6.0003 13.3945V6C6.0003 4.34315 7.34345 3 9.0003 3H15.0003ZM5.4544 15.6162C4.94679 15.1089 4.12413 15.1089 3.61651 15.6162C3.10883 16.1239 3.10883 16.9474 3.61651 17.4551L6.53643 20.375C7.04413 20.8825 7.86768 20.8826 8.3753 20.375C8.88254 19.8675 8.88234 19.0448 8.3753 18.5371L5.4544 15.6162ZM20.5081 12.1211C20.0907 11.6964 19.4182 11.6654 18.9554 12.0439L18.8665 12.125L18.0003 12.9902V13L17.9837 13.0059L16.1634 14.8262C16.1665 14.874 16.1712 14.9225 16.1712 14.9707C16.1709 16.0456 15.3777 17.0409 14.2649 17.041H10.348C10.0166 17.041 9.74746 16.7717 9.74737 16.4404C9.74758 16.1092 10.0167 15.8408 10.348 15.8408H14.2649C14.5868 15.8407 14.9708 15.5186 14.971 14.9707C14.971 14.4225 14.5869 14.0997 14.2649 14.0996H7.49835C7.16052 14.0997 6.91442 14.1926 6.76299 14.3213C6.62528 14.4385 6.51007 14.6316 6.51007 14.9707L6.50909 14.9736L9.22393 17.6885C9.56938 18.0341 9.79012 18.4566 9.89092 18.9004H14.1722C14.9414 18.9002 15.6949 18.5867 16.2415 18.04L20.512 13.7705L20.5149 13.7666C20.9676 13.3216 20.9733 12.5868 20.512 12.125L20.5081 12.1211ZM9.0003 4.2002C8.00619 4.2002 7.20049 5.00589 7.20049 6V12.917C7.29938 12.9067 7.39895 12.9004 7.49835 12.9004H14.2649C14.854 12.9005 15.3512 13.1807 15.6907 13.6025L16.8001 12.4932V6C16.8001 5.00601 15.9942 4.2004 15.0003 4.2002H14.0091V7.13477C14.0091 8.24042 13.1192 9.13728 12.0189 9.1377H11.9944C10.8939 9.13745 10.0042 8.24052 10.0042 7.13477V4.2002H9.0003ZM11.2044 7.13477C11.2044 7.58438 11.5632 7.93725 11.9944 7.9375H12.0189C12.4499 7.93708 12.8089 7.58428 12.8089 7.13477V4.2002H11.2044V7.13477Z" fill="#10100F"/>
</svg>
