<svg width="24" height="24" viewBox="0 0 24 24" fill="none" xmlns="http://www.w3.org/2000/svg">
<path fill-rule="evenodd" clip-rule="evenodd" d="M10.0042 7.13477C10.0042 8.24052 10.8939 9.13745 11.9944 9.1377H12.0188C13.1192 9.13725 14.0091 8.2404 14.0091 7.13477V3H15.0003C16.6569 3.00024 18.0003 4.34329 18.0003 6V11.291L18.0159 11.2764C18.9417 10.3508 20.4402 10.345 21.3597 11.2783C22.2834 12.204 22.2891 13.7011 21.3567 14.6201L17.0882 18.8887C16.3174 19.6594 15.2584 20.0996 14.1692 20.0996H9.86943C9.76013 20.5112 9.54657 20.9009 9.22392 21.2236C8.24766 22.1999 6.66411 22.1998 5.68779 21.2236L2.76787 18.3027C1.79158 17.3264 1.79156 15.7439 2.76787 14.7676C3.4902 14.0455 4.54389 13.8586 5.43877 14.2051C5.55109 13.8913 5.7345 13.6212 5.98466 13.4082C5.9897 13.4039 5.99522 13.3997 6.00029 13.3955V6C6.00029 4.34315 7.34343 3 9.00029 3H10.0042V7.13477ZM20.5061 12.1211C20.0887 11.6964 19.4163 11.6654 18.9534 12.0439L18.8645 12.125L18.0003 12.9883V13L17.9808 13.0068L16.1634 14.8242C16.1666 14.8728 16.1702 14.9217 16.1702 14.9707C16.1702 16.0458 15.3779 17.041 14.2649 17.041H10.3479C10.0167 17.041 9.74754 16.7726 9.74736 16.4414C9.74736 16.11 10.0166 15.8408 10.3479 15.8408H14.2649C14.5869 15.8408 14.9709 15.5189 14.971 14.9707C14.971 14.4225 14.587 14.1006 14.2649 14.1006H7.49834C7.16057 14.1006 6.91443 14.1926 6.76298 14.3213C6.62527 14.4385 6.51005 14.6316 6.51005 14.9707L6.50908 14.9736L9.22392 17.6875C9.56968 18.0333 9.79008 18.4562 9.89091 18.9004H14.1692C14.9387 18.9004 15.6928 18.5868 16.2395 18.04L20.513 13.7666C20.9658 13.3214 20.9708 12.5868 20.5091 12.125L20.5061 12.1211Z" fill="#10100F"/>
<path d="M12.8089 7.13477C12.8089 7.58425 12.4499 7.93705 12.0188 7.9375H11.9944C11.5632 7.93725 11.2044 7.58438 11.2044 7.13477V3H12.8089V7.13477Z" fill="#10100F"/>
</svg>
