<svg width="24" height="24" viewBox="0 0 24 24" fill="none" xmlns="http://www.w3.org/2000/svg">
<path fill-rule="evenodd" clip-rule="evenodd" d="M19.2061 1.00488C21.3194 1.11211 23 2.85996 23 5V15C23 17.2091 21.2091 19 19 19H14.2305L14.7695 21.7998H15.5C15.8314 21.7998 16.1006 22.069 16.1006 22.4004C16.1005 22.7317 15.8313 23 15.5 23H8.5C8.16888 22.9998 7.90051 22.7315 7.90039 22.4004C7.90039 22.0691 8.16881 21.8 8.5 21.7998H9.23047L9.76953 19H5L4.79395 18.9951C2.68056 18.8879 1 17.14 1 15V5C1 2.79086 2.79086 1 5 1H19C19.0691 1 19.1378 1.00142 19.2061 1.00488ZM10.4639 21.7998H13.5361L13.0156 19H10.9834L10.4639 21.7998ZM10.9482 5.60156C10.7281 5.35393 10.3492 5.3317 10.1016 5.55176L6.02148 9.17773C5.52924 9.61531 5.52922 10.3847 6.02148 10.8223L10.1016 14.4482C10.3492 14.6682 10.7281 14.646 10.9482 14.3984C11.1683 14.1508 11.1459 13.7719 10.8984 13.5518L6.90332 10L10.8984 6.44824C11.146 6.22813 11.1682 5.8492 10.9482 5.60156ZM13.8984 5.55176C13.6508 5.33163 13.2719 5.35396 13.0518 5.60156C12.8316 5.84923 12.8539 6.22809 13.1016 6.44824L17.0967 10L13.1016 13.5518C12.8539 13.7719 12.8316 14.1508 13.0518 14.3984C13.2719 14.6459 13.6508 14.6683 13.8984 14.4482L17.9775 10.8223C18.4698 10.3847 18.4698 9.6153 17.9775 9.17773L13.8984 5.55176Z" fill="#10100F"/>
</svg>
