<svg width="24" height="24" viewBox="0 0 24 24" fill="none" xmlns="http://www.w3.org/2000/svg">
<path fill-rule="evenodd" clip-rule="evenodd" d="M19.2061 1.00488C21.3194 1.11211 23 2.85996 23 5V15C23 17.2091 21.2091 19 19 19H14.2002L14.7598 21.7998H15.5C15.8314 21.7998 16.1006 22.069 16.1006 22.4004C16.1004 22.7316 15.8312 23 15.5 23H8.5C8.16894 22.9998 7.9006 22.7315 7.90039 22.4004C7.90039 22.0691 8.16881 21.8 8.5 21.7998H9.24023L9.7998 19H5L4.79395 18.9951C2.68056 18.8879 1 17.14 1 15V5C1 2.79086 2.79086 1 5 1H19C19.0691 1 19.1378 1.00142 19.2061 1.00488ZM10.4639 21.7998H13.5361L13.0166 19.2002H10.9834L10.4639 21.7998Z" fill="#10100F"/>
</svg>
