<svg width="24" height="24" viewBox="0 0 24 24" fill="none" xmlns="http://www.w3.org/2000/svg">
<path d="M10.1016 5.55176C10.3492 5.3317 10.7281 5.35393 10.9482 5.60156C11.1682 5.8492 11.146 6.22813 10.8984 6.44824L6.90332 10L10.8984 13.5518C11.1459 13.7719 11.1683 14.1508 10.9482 14.3984C10.7281 14.646 10.3492 14.6682 10.1016 14.4482L6.02148 10.8223C5.52922 10.3847 5.52924 9.61531 6.02148 9.17773L10.1016 5.55176Z" fill="#10100F"/>
<path d="M13.0518 5.60156C13.2719 5.35396 13.6508 5.33163 13.8984 5.55176L17.9775 9.17773C18.4698 9.6153 18.4698 10.3847 17.9775 10.8223L13.8984 14.4482C13.6508 14.6683 13.2719 14.6459 13.0518 14.3984C12.8316 14.1508 12.8539 13.7719 13.1016 13.5518L17.0967 10L13.1016 6.44824C12.8539 6.22809 12.8316 5.84923 13.0518 5.60156Z" fill="#10100F"/>
<path fill-rule="evenodd" clip-rule="evenodd" d="M19 1C21.2091 1 23 2.79086 23 5V15C23 17.2091 21.2091 19 19 19H14.2305L14.7695 21.7998H15.5C15.8314 21.7998 16.0996 22.069 16.0996 22.4004C16.0994 22.7316 15.8312 23 15.5 23H8.5C8.16876 23 7.9006 22.7316 7.90039 22.4004C7.90039 22.069 8.16863 21.7998 8.5 21.7998H9.23047L9.76953 19H5C2.79086 19 1 17.2091 1 15V5C1 2.79086 2.79086 1 5 1H19ZM10.4639 21.7998H13.5361L13.0166 19H10.9834L10.4639 21.7998ZM5 2.2002C3.4536 2.2002 2.2002 3.4536 2.2002 5V15C2.2002 16.5464 3.4536 17.7998 5 17.7998H19C20.5464 17.7998 21.7998 16.5464 21.7998 15V5C21.7998 3.4536 20.5464 2.2002 19 2.2002H5Z" fill="#10100F"/>
</svg>
