<svg width="24" height="24" viewBox="0 0 24 24" fill="none" xmlns="http://www.w3.org/2000/svg">
<path d="M19 1C21.2091 1 23 2.79086 23 5V7.35547C22.267 6.52463 21.195 6 20 6H14C11.7909 6 10 7.79086 10 10V18.8857C10.0094 18.9578 10.0069 19.0326 9.98828 19.1074L9.31641 21.7998H10.4004C10.7314 21.8 10.9998 22.0684 11 22.3994C11 22.7306 10.7316 22.9998 10.4004 23H7C6.66882 22.9998 6.4004 22.7306 6.40039 22.3994C6.40056 22.0683 6.66892 21.8 7 21.7998H8.08008L8.77832 19H5C2.79086 19 1 17.2091 1 15V5C1 2.79086 2.79086 1 5 1H19Z" fill="#10100F"/>
<path fill-rule="evenodd" clip-rule="evenodd" d="M20 7C21.6569 7 23 8.34315 23 10V20C23 21.6569 21.6569 23 20 23H14C12.3431 23 11 21.6569 11 20V10C11 8.34315 12.3431 7 14 7H20ZM17 18C16.4477 18 16 18.4477 16 19C16 19.5523 16.4477 20 17 20C17.5523 20 18 19.5523 18 19C18 18.4477 17.5523 18 17 18Z" fill="#10100F"/>
</svg>
