<svg width="24" height="24" viewBox="0 0 24 24" fill="none" xmlns="http://www.w3.org/2000/svg">
<path d="M17 18C17.5523 18 18 18.4477 18 19C18 19.5523 17.5523 20 17 20C16.4477 20 16 19.5523 16 19C16 18.4477 16.4477 18 17 18Z" fill="#10100F"/>
<path fill-rule="evenodd" clip-rule="evenodd" d="M19 1C21.2091 1 23 2.79086 23 5V20C23 21.6569 21.6569 23 20 23H7C6.66881 22.9998 6.40039 22.7307 6.40039 22.3994C6.40065 22.0684 6.66897 21.8 7 21.7998H9.24023L9.7998 19H5C2.79086 19 1 17.2091 1 15V5C1 2.79086 2.79086 1 5 1H19ZM10.4639 21.7998H11.6035C11.2261 21.2981 11 20.6761 11 20V19.2002H10.9834L10.4639 21.7998ZM14 8.2002C13.0059 8.2002 12.2002 9.00589 12.2002 10V20C12.2002 20.9941 13.0059 21.7998 14 21.7998H20C20.9941 21.7998 21.7998 20.9941 21.7998 20V10C21.7998 9.00589 20.9941 8.2002 20 8.2002H14ZM5 2.2002C3.4536 2.2002 2.2002 3.4536 2.2002 5V15C2.2002 16.5464 3.4536 17.7998 5 17.7998H11V10C11 8.34315 12.3431 7 14 7H20C20.713 7 21.3671 7.24965 21.8818 7.66504C21.8547 7.64313 21.8277 7.62058 21.7998 7.59961V5C21.7998 3.4536 20.5464 2.2002 19 2.2002H5Z" fill="#10100F"/>
</svg>
