<svg width="24" height="24" viewBox="0 0 24 24" fill="none" xmlns="http://www.w3.org/2000/svg">
<path d="M13.453 9.35034C14.0047 9.35034 14.452 9.79904 14.4521 10.3523C14.4521 10.9056 14.0047 11.3542 13.453 11.3542C12.9014 11.3541 12.454 10.9055 12.454 10.3523C12.4541 9.79912 12.9015 9.35047 13.453 9.35034Z" fill="#10100F"/>
<path d="M13.9726 5.86401C14.2066 5.62945 14.5862 5.62935 14.8202 5.86401C15.0543 6.09876 15.0543 6.47985 14.8202 6.7146L10.3798 11.1667C10.1458 11.4013 9.76715 11.4013 9.53312 11.1667C9.29905 10.932 9.29905 10.5519 9.53312 10.3171L13.9726 5.86401Z" fill="#10100F"/>
<path d="M10.456 6.0105C11.0076 6.0105 11.4548 6.45929 11.455 7.01245C11.455 7.56575 11.0077 8.0144 10.456 8.0144C9.90429 8.01437 9.45695 7.56573 9.45695 7.01245C9.45712 6.45932 9.9044 6.01053 10.456 6.0105Z" fill="#10100F"/>
<path fill-rule="evenodd" clip-rule="evenodd" d="M11.954 2.00366C12.9029 2.00366 13.7309 2.52512 14.1679 3.29761C14.2183 3.38645 14.3235 3.43007 14.4218 3.40308C15.2752 3.1671 16.2277 3.38572 16.8984 4.05835C17.569 4.73094 17.7869 5.68592 17.5517 6.54175C17.5247 6.64046 17.5684 6.74608 17.6571 6.79663C18.4272 7.23492 18.9462 8.06496 18.9462 9.01636C18.9461 9.96776 18.4272 10.7979 17.6571 11.2361C17.5682 11.2867 17.5245 11.3921 17.5517 11.491C17.5679 11.55 17.5808 11.6098 17.5927 11.6697L17.9657 11.2966C18.8905 10.3696 20.3881 10.3636 21.3066 11.2986C22.2294 12.2261 22.2343 13.7266 21.3027 14.6472L17.039 18.9236C16.2691 19.6957 15.2119 20.1364 14.1239 20.1365H9.82609C9.7169 20.5488 9.50298 20.9391 9.18058 21.2625C8.20529 22.2406 6.62364 22.2406 5.64835 21.2625L2.73136 18.3367C1.75628 17.3585 1.75614 15.7727 2.73136 14.7947C3.45332 14.0708 4.50689 13.8843 5.40128 14.2322C5.51349 13.9173 5.69596 13.646 5.94621 13.4324C6.09877 13.3021 6.26788 13.1997 6.44718 13.1218C6.23951 12.6017 6.20873 12.0269 6.35636 11.491C6.3835 11.3922 6.33979 11.2867 6.25089 11.2361C5.48076 10.7979 4.96093 9.96779 4.96085 9.01636C4.96085 8.06495 5.48085 7.23491 6.25089 6.79663C6.33962 6.74607 6.38333 6.64043 6.35636 6.54175C6.12096 5.68581 6.33892 4.73007 7.00968 4.05737C7.68054 3.38483 8.63281 3.16684 9.48624 3.40308C9.58468 3.43033 9.69059 3.38656 9.74113 3.29761C10.1781 2.52529 11.0054 2.00379 11.954 2.00366ZM5.41593 15.6453C4.90878 15.1366 4.08617 15.1366 3.57902 15.6453C3.07194 16.1539 3.07189 16.9785 3.57902 17.4871L6.49601 20.4128C7.00315 20.9214 7.82577 20.9214 8.33292 20.4128C8.84001 19.9043 8.83988 19.0797 8.33292 18.571L5.41593 15.6453ZM20.453 12.1433C20.0083 11.6898 19.2746 11.6848 18.8134 12.1472L16.1142 14.8533C16.1173 14.9013 16.121 14.9494 16.121 14.9978C16.121 16.0749 15.3295 17.072 14.2177 17.072H10.3046C9.97371 17.072 9.7052 16.8032 9.70499 16.4714C9.70499 16.1395 9.97358 15.8699 10.3046 15.8699H14.2177C14.5394 15.8698 14.9228 15.5471 14.9228 14.9978C14.9227 14.4486 14.5394 14.1258 14.2177 14.1257H7.4589C7.12131 14.1257 6.87489 14.2185 6.72355 14.3474C6.58599 14.4648 6.47162 14.6581 6.4716 14.9978L6.47062 15.0027L9.18058 17.7205C9.52575 18.0666 9.74575 18.4898 9.8466 18.9343H14.1239C14.8924 18.9342 15.6452 18.6217 16.1913 18.074L20.4569 13.7957L20.4599 13.7917C20.9122 13.3458 20.9181 12.6098 20.4569 12.1472L20.453 12.1433ZM11.954 3.20581C11.4543 3.20593 11.0168 3.47917 10.7841 3.89038C10.4627 4.45855 9.79578 4.73587 9.16789 4.56226C8.71327 4.43638 8.21087 4.55348 7.85734 4.90796C7.50398 5.26234 7.38641 5.76564 7.51164 6.22144C7.68481 6.85113 7.40913 7.5201 6.84269 7.84253C6.43255 8.07597 6.16007 8.51503 6.16007 9.01636C6.16014 9.51767 6.43253 9.9568 6.84269 10.1902C7.40941 10.5127 7.68515 11.1814 7.51164 11.8113C7.40821 12.1868 7.47202 12.5933 7.69425 12.9236H14.2177C14.7241 12.9236 15.163 13.1317 15.4921 13.4587C15.6964 13.3963 15.8895 13.2873 16.0507 13.1257C16.4042 12.7712 16.5209 12.2672 16.3954 11.8113C16.222 11.1814 16.4987 10.5126 17.0653 10.1902C17.4755 9.9568 17.7479 9.51766 17.748 9.01636C17.748 8.51503 17.4755 8.07597 17.0653 7.84253C16.499 7.5202 16.2235 6.85198 16.3964 6.22241C16.5217 5.76657 16.4041 5.26238 16.0507 4.90796C15.6973 4.55376 15.1955 4.4367 14.7411 4.56226C14.1132 4.73589 13.4463 4.45859 13.1249 3.89038C12.8922 3.47901 12.4539 3.20581 11.954 3.20581Z" fill="#10100F"/>
</svg>
