<svg width="24" height="24" viewBox="0 0 24 24" fill="none" xmlns="http://www.w3.org/2000/svg">
<path fill-rule="evenodd" clip-rule="evenodd" d="M14.5 12.9014C15.6598 12.9014 16.6006 13.8412 16.6006 15.001C16.6005 16.1607 15.6598 17.1006 14.5 17.1006C13.3404 17.1004 12.4004 16.1606 12.4004 15.001C12.4004 13.8413 13.3404 12.9016 14.5 12.9014ZM14.5 14.1006C14.0031 14.1008 13.6006 14.5041 13.6006 15.001C13.6006 15.4979 14.0032 15.9012 14.5 15.9014C14.997 15.9014 15.4003 15.498 15.4004 15.001C15.4004 14.5039 14.9971 14.1006 14.5 14.1006Z" fill="#10100F"/>
<path d="M15.5762 7.57617C15.8105 7.34215 16.1906 7.34208 16.4248 7.57617C16.659 7.81041 16.6589 8.19047 16.4248 8.4248L8.4248 16.4248C8.19049 16.6591 7.81049 16.6591 7.57617 16.4248C7.342 16.1905 7.34191 15.8104 7.57617 15.5762L15.5762 7.57617Z" fill="#10100F"/>
<path fill-rule="evenodd" clip-rule="evenodd" d="M9.5 6.90137C10.6598 6.90137 11.6006 7.84118 11.6006 9.00098C11.6005 10.1607 10.6598 11.1006 9.5 11.1006C8.34041 11.1004 7.40044 10.1606 7.40039 9.00098C7.40039 7.84131 8.34038 6.90158 9.5 6.90137ZM9.5 8.10059C9.00312 8.1008 8.60059 8.50405 8.60059 9.00098C8.60064 9.49786 9.00316 9.90116 9.5 9.90137C9.99702 9.90137 10.4003 9.49799 10.4004 9.00098C10.4004 8.50392 9.99706 8.10059 9.5 8.10059Z" fill="#10100F"/>
<path fill-rule="evenodd" clip-rule="evenodd" d="M12 1C13.5292 1 14.8582 1.85818 15.5312 3.11914C15.5795 3.20931 15.6854 3.25331 15.7832 3.22363C17.1507 2.80796 18.697 3.1406 19.7783 4.22168C20.8595 5.30286 21.1928 6.84933 20.7773 8.2168C20.7476 8.31471 20.7916 8.42152 20.8818 8.46973C22.1422 9.14299 23 10.4712 23 12C23 13.5291 22.1416 14.8581 20.8809 15.5312C20.7909 15.5796 20.7467 15.6855 20.7764 15.7832C21.192 17.1507 20.8596 18.6971 19.7783 19.7783C18.697 20.8596 17.1507 21.192 15.7832 20.7764C15.6854 20.7467 15.5795 20.7908 15.5312 20.8809C14.8581 22.1417 13.5291 23 12 23C10.4711 23 9.14195 22.1425 8.46875 20.8818C8.42055 20.7916 8.31471 20.7476 8.2168 20.7773C6.8495 21.1926 5.30374 20.8593 4.22266 19.7783C3.14143 18.6971 2.80809 17.1507 3.22363 15.7832C3.2533 15.6853 3.20939 15.5794 3.11914 15.5312C1.85811 14.8582 1 13.5293 1 12C1 10.4708 1.85824 9.14186 3.11914 8.46875C3.20923 8.42051 3.25331 8.31461 3.22363 8.2168C2.80812 6.84933 3.14051 5.30289 4.22168 4.22168C5.30288 3.14048 6.84931 2.80813 8.2168 3.22363C8.31457 3.25331 8.42047 3.20915 8.46875 3.11914C9.14188 1.85831 10.4709 1 12 1ZM12 2.2002C10.9314 2.2002 10.0002 2.79806 9.52734 3.68359C9.20933 4.27925 8.51423 4.56736 7.86816 4.37109C6.90761 4.07924 5.82598 4.31464 5.07031 5.07031C4.31468 5.82599 4.08021 6.90763 4.37207 7.86816C4.56816 8.51416 4.27919 9.20939 3.68359 9.52734C2.79806 10.0002 2.2002 10.9314 2.2002 12C2.2002 13.0688 2.79878 13.9999 3.68457 14.4727C4.28001 14.7906 4.56811 15.4859 4.37207 16.1318C4.08019 17.0924 4.31561 18.174 5.07129 18.9297C5.82691 19.6852 6.90773 19.9207 7.86816 19.6289C8.51421 19.4326 9.20931 19.7208 9.52734 20.3164C10.0002 21.2019 10.9314 21.7998 12 21.7998C13.0686 21.7998 13.9998 21.2019 14.4727 20.3164C14.7907 19.7207 15.4858 19.4326 16.1318 19.6289C17.0924 19.9209 18.174 19.6854 18.9297 18.9297C19.6854 18.174 19.9208 17.0924 19.6289 16.1318C19.4326 15.4858 19.7208 14.7907 20.3164 14.4727C21.2019 13.9998 21.7998 13.0686 21.7998 12C21.7998 10.9314 21.2019 10.0002 20.3164 9.52734C19.7209 9.20926 19.4326 8.51416 19.6289 7.86816C19.9208 6.90758 19.6854 5.82602 18.9297 5.07031C18.174 4.31489 17.0932 4.08027 16.1328 4.37207C15.4868 4.56844 14.7908 4.28008 14.4727 3.68457C13.9999 2.79884 13.0688 2.2002 12 2.2002Z" fill="#10100F"/>
</svg>
