<svg width="24" height="24" viewBox="0 0 24 24" fill="none" xmlns="http://www.w3.org/2000/svg">
<path d="M14.5 14.1006C14.9971 14.1006 15.4004 14.5039 15.4004 15.001C15.4003 15.498 14.997 15.9014 14.5 15.9014C14.0032 15.9012 13.6006 15.4979 13.6006 15.001C13.6006 14.5041 14.0031 14.1008 14.5 14.1006Z" fill="#10100F"/>
<path d="M9.5 8.10059C9.99706 8.10059 10.4004 8.50392 10.4004 9.00098C10.4003 9.49799 9.99702 9.90137 9.5 9.90137C9.00316 9.90116 8.60064 9.49786 8.60059 9.00098C8.60059 8.50405 9.00312 8.1008 9.5 8.10059Z" fill="#10100F"/>
<path fill-rule="evenodd" clip-rule="evenodd" d="M12 1C13.5292 1 14.8582 1.85818 15.5312 3.11914C15.5795 3.20931 15.6854 3.25331 15.7832 3.22363C17.1507 2.80796 18.697 3.1406 19.7783 4.22168C20.8595 5.30286 21.1928 6.84933 20.7773 8.2168C20.7476 8.31471 20.7916 8.42152 20.8818 8.46973C22.1422 9.14299 23 10.4712 23 12C23 13.5291 22.1416 14.8581 20.8809 15.5312C20.7909 15.5796 20.7467 15.6855 20.7764 15.7832C21.192 17.1507 20.8596 18.6971 19.7783 19.7783C18.697 20.8596 17.1507 21.192 15.7832 20.7764C15.6854 20.7467 15.5795 20.7908 15.5312 20.8809C14.8581 22.1417 13.5291 23 12 23C10.4711 23 9.14195 22.1425 8.46875 20.8818C8.42055 20.7916 8.31471 20.7476 8.2168 20.7773C6.8495 21.1926 5.30374 20.8593 4.22266 19.7783C3.14143 18.6971 2.80809 17.1507 3.22363 15.7832C3.2533 15.6853 3.20939 15.5794 3.11914 15.5312C1.85811 14.8582 1 13.5293 1 12C1 10.4708 1.85824 9.14186 3.11914 8.46875C3.20923 8.42051 3.25331 8.31461 3.22363 8.2168C2.80812 6.84933 3.14051 5.30289 4.22168 4.22168C5.30288 3.14048 6.84931 2.80813 8.2168 3.22363C8.31457 3.25331 8.42047 3.20915 8.46875 3.11914C9.14188 1.85831 10.4709 1 12 1ZM14.5 12.9014C13.3404 12.9016 12.4004 13.8413 12.4004 15.001C12.4004 16.1606 13.3404 17.1004 14.5 17.1006C15.6598 17.1006 16.6005 16.1607 16.6006 15.001C16.6006 13.8412 15.6598 12.9014 14.5 12.9014ZM16.4248 7.57617C16.1906 7.34208 15.8105 7.34215 15.5762 7.57617L7.57617 15.5762C7.34191 15.8104 7.342 16.1905 7.57617 16.4248C7.81049 16.6591 8.19049 16.6591 8.4248 16.4248L16.4248 8.4248C16.6589 8.19047 16.659 7.81041 16.4248 7.57617ZM9.5 6.90137C8.34038 6.90158 7.40039 7.84131 7.40039 9.00098C7.40044 10.1606 8.34041 11.1004 9.5 11.1006C10.6598 11.1006 11.6005 10.1607 11.6006 9.00098C11.6006 7.84118 10.6598 6.90137 9.5 6.90137Z" fill="#10100F"/>
</svg>
