<svg width="24" height="24" viewBox="0 0 24 24" fill="none" xmlns="http://www.w3.org/2000/svg">
<path fill-rule="evenodd" clip-rule="evenodd" d="M11.955 2.00366C12.9039 2.00369 13.732 2.52514 14.1689 3.29761C14.2194 3.38642 14.3245 3.43014 14.4228 3.40308C15.2762 3.16714 16.2287 3.38574 16.8994 4.05835C17.57 4.73094 17.7879 5.68595 17.5527 6.54175C17.5257 6.64048 17.5694 6.74608 17.6582 6.79663C18.4282 7.23492 18.9472 8.06499 18.9472 9.01636C18.9472 9.96772 18.4282 10.7978 17.6582 11.2361C17.5693 11.2867 17.5255 11.3921 17.5527 11.491C17.5689 11.5497 17.5818 11.6091 17.5937 11.6687L17.9658 11.2966C18.8906 10.3696 20.3881 10.3636 21.3066 11.2986C22.2295 12.2261 22.2344 13.7266 21.3027 14.6472L17.0381 18.9236C16.2681 19.6957 15.211 20.1365 14.123 20.1365H9.82614C9.7169 20.5487 9.50307 20.9391 9.18063 21.2625C8.20533 22.2405 6.62373 22.2405 5.64841 21.2625L2.73142 18.3367C1.75624 17.3586 1.75615 15.7727 2.73142 14.7947C3.15803 14.3669 3.70072 14.1265 4.25778 14.073C4.41723 14.0577 4.57783 14.0577 4.73727 14.073C4.96334 14.0947 5.18679 14.1479 5.40134 14.2312C5.51357 13.9167 5.69715 13.6458 5.94724 13.4324C6.09962 13.3023 6.26818 13.1997 6.44724 13.1218C6.2398 12.6016 6.20979 12.0268 6.35739 11.491C6.38443 11.3923 6.34055 11.2867 6.25192 11.2361C5.48176 10.7979 4.96196 9.96779 4.96188 9.01636C4.96188 8.06495 5.48186 7.23491 6.25192 6.79663C6.34037 6.74601 6.38426 6.64027 6.35739 6.54175C6.12199 5.68581 6.33896 4.73007 7.00974 4.05737C7.68068 3.38458 8.63365 3.16672 9.48727 3.40308C9.58572 3.43026 9.69167 3.3866 9.74216 3.29761C10.1791 2.52525 11.0063 2.0037 11.955 2.00366ZM20.4531 12.1433C20.0084 11.6898 19.2747 11.6848 18.8134 12.1472L16.1152 14.8523C16.1184 14.9006 16.122 14.9491 16.122 14.9978C16.122 16.0748 15.3304 17.0718 14.2187 17.072H10.3047C9.97395 17.0718 9.70623 16.8031 9.70602 16.4714C9.70602 16.1396 9.97383 15.8701 10.3047 15.8699H14.2187C14.5404 15.8697 14.9238 15.5469 14.9238 14.9978C14.9238 14.4487 14.5404 14.1259 14.2187 14.1257H7.45895C7.12118 14.1258 6.87491 14.2183 6.7236 14.3474C6.58604 14.4648 6.47167 14.6581 6.47165 14.9978L6.47067 15.0027L9.18063 17.7205C9.52591 18.0667 9.74683 18.4897 9.84763 18.9343H14.123C14.8915 18.9343 15.6442 18.6215 16.1904 18.074L20.457 13.7957L20.4599 13.7917C20.9123 13.3458 20.9181 12.6098 20.457 12.1472L20.4531 12.1433ZM13.4541 9.35034C12.9024 9.35038 12.4551 9.79906 12.455 10.3523C12.455 10.9056 12.9024 11.3542 13.4541 11.3542C14.0058 11.3542 14.4531 10.9056 14.4531 10.3523C14.453 9.79907 14.0057 9.35038 13.4541 9.35034ZM14.8213 5.86401C14.5873 5.62937 14.2077 5.62956 13.9736 5.86401L9.53317 10.3171C9.2994 10.5518 9.29937 10.9321 9.53317 11.1667C9.76725 11.4015 10.1468 11.4015 10.3808 11.1667L14.8213 6.7146C15.0553 6.47988 15.0552 6.09875 14.8213 5.86401ZM10.457 6.0105C9.90538 6.0105 9.45815 6.45929 9.45798 7.01245C9.45798 7.56575 9.90528 8.0144 10.457 8.0144C11.0086 8.01425 11.456 7.56566 11.456 7.01245C11.4559 6.45939 11.0085 6.01065 10.457 6.0105Z" fill="#10100F"/>
</svg>
