<svg width="24" height="24" viewBox="0 0 24 24" fill="none" xmlns="http://www.w3.org/2000/svg">
<path d="M8.09961 3.90039C8.43098 3.90039 8.7002 4.16863 8.7002 4.5C8.70019 4.83136 8.43098 5.09961 8.09961 5.09961H6.59961C4.72198 5.09977 3.2002 6.62233 3.2002 8.5V17.4004C3.2004 19.2779 4.72211 20.7996 6.59961 20.7998H17.4004C19.2779 20.7997 20.7996 19.2779 20.7998 17.4004V8.5C20.7998 6.62231 19.278 5.09974 17.4004 5.09961H15.9004C15.569 5.09961 15.2998 4.83136 15.2998 4.5C15.2998 4.16863 15.569 3.90039 15.9004 3.90039H17.4004C19.9408 3.90052 22 5.95957 22 8.5V17.4004C21.9998 19.9406 19.9407 21.9999 17.4004 22H6.59961C4.05936 21.9998 2.00021 19.9406 2 17.4004V8.5C2 5.95959 4.05924 3.90055 6.59961 3.90039H8.09961Z" fill="#10100F"/>
<path d="M12 2C12.3312 2 12.5994 2.26842 12.5996 2.59961V16.0527L15.5762 13.0762C15.8105 12.8419 16.1895 12.8419 16.4238 13.0762C16.6581 13.3105 16.6581 13.6895 16.4238 13.9238L12.4238 17.9238L12.3301 18.001C12.0972 18.1548 11.7812 18.1289 11.5762 17.9238L7.57617 13.9238C7.3419 13.6895 7.34188 13.3105 7.57617 13.0762C7.81047 12.8419 8.18951 12.8419 8.42383 13.0762L11.4004 16.0527V2.59961C11.4006 2.26844 11.6688 2.00003 12 2Z" fill="#10100F"/>
</svg>
