<svg width="24" height="24" viewBox="0 0 24 24" fill="none" xmlns="http://www.w3.org/2000/svg">
<path d="M12.0996 2C12.4309 2 12.5995 2.26842 12.5996 2.59961C12.5996 2.93098 12.431 3.2002 12.0996 3.2002H6.59961C4.72215 3.20041 3.20041 4.72215 3.2002 6.59961V17.4004C3.20041 19.278 4.72295 20.7998 6.60059 20.7998H17.4004C19.2778 20.7996 20.7996 19.2778 20.7998 17.4004V11.9004C20.7998 11.569 21.069 11.2998 21.4004 11.2998C21.7316 11.3 22 11.5691 22 11.9004V17.4004C21.9998 19.9406 19.9406 21.9998 17.4004 22H6.60059C4.06021 22 2.00021 19.9407 2 17.4004V6.59961C2.00021 4.05941 4.05941 2.00021 6.59961 2H12.0996Z" fill="#10100F"/>
<path d="M20.1035 8.53516L14.875 13.7646C14.6782 13.9613 14.4354 14.1065 14.1689 14.1865L9.01367 15.7324C8.80239 15.7957 8.57299 15.7379 8.41699 15.582C8.26122 15.426 8.20331 15.1966 8.2666 14.9854L9.81348 9.83105C9.8935 9.56431 10.0385 9.32097 10.2354 9.12402L15.4629 3.89551L20.1035 8.53516Z" fill="#10100F"/>
<path d="M16.8594 2.5C17.5167 1.84267 18.5828 1.84279 19.2402 2.5L21.499 4.75977C22.1561 5.41701 22.1569 6.48227 21.5 7.13965L20.9521 7.68652L16.3115 3.04688L16.8594 2.5Z" fill="#10100F"/>
</svg>
