<svg width="24" height="24" viewBox="0 0 24 24" fill="none" xmlns="http://www.w3.org/2000/svg">
<path d="M12.0996 2C12.4309 2 12.7 2.26842 12.7002 2.59961C12.7002 2.93098 12.431 3.2002 12.0996 3.2002H6.7002C4.82256 3.2002 3.30002 4.72202 3.2998 6.59961L3.2002 17.4004C3.20041 19.2778 4.72215 20.7996 6.59961 20.7998H17.4004C19.2778 20.7996 20.7996 19.2778 20.7998 17.4004V12C20.7998 11.6686 21.069 11.4004 21.4004 11.4004C21.7316 11.4006 22 11.6688 22 12V17.4004C21.9998 19.9406 19.9406 21.9998 17.4004 22H6.59961C4.05941 21.9998 2.00021 19.9406 2 17.4004L2.09961 6.59961C2.09982 4.05928 4.15982 2 6.7002 2H12.0996Z" fill="#10100F"/>
<path fill-rule="evenodd" clip-rule="evenodd" d="M16.8594 2.5C17.5167 1.84265 18.5828 1.84271 19.2402 2.5L21.5 4.75977C22.1573 5.41715 22.1574 6.48327 21.5 7.14062L14.876 13.7646C14.679 13.9616 14.4357 14.1065 14.1689 14.1865L9.01465 15.7334C8.80323 15.7968 8.57405 15.7381 8.41797 15.582C8.2619 15.426 8.20318 15.1968 8.2666 14.9854L9.81348 9.83105C9.89351 9.56426 10.0384 9.32099 10.2354 9.12402L16.8594 2.5ZM11.084 9.97266C11.0275 10.0292 10.9859 10.0992 10.9629 10.1758L9.73633 14.2637L13.8242 13.0371C13.9008 13.0141 13.9708 12.9725 14.0273 12.916L19.2559 7.6875L16.3125 4.74414L11.084 9.97266ZM18.3916 3.34863C18.2028 3.15997 17.8967 3.15991 17.708 3.34863L17.1611 3.89551L20.1045 6.83887L20.6514 6.29199C20.8401 6.10326 20.84 5.79716 20.6514 5.6084L18.3916 3.34863Z" fill="#10100F"/>
</svg>
