<svg width="24" height="24" viewBox="0 0 24 24" fill="none" xmlns="http://www.w3.org/2000/svg">
<path d="M21.25 13.5C21.6642 13.5 22 13.8358 22 14.25V20.25C22 21.2165 21.2165 22 20.25 22H14.25C13.8358 22 13.5 21.6642 13.5 21.25C13.5 20.8358 13.8358 20.5 14.25 20.5H20.25C20.3881 20.5 20.5 20.3881 20.5 20.25V14.25C20.5 13.8358 20.8358 13.5 21.25 13.5Z" fill="#10100F"/>
<path d="M9.75 2C10.1642 2 10.5 2.33579 10.5 2.75C10.5 3.16421 10.1642 3.5 9.75 3.5H3.75C3.61193 3.5 3.5 3.61193 3.5 3.75V9.75C3.5 10.1642 3.16421 10.5 2.75 10.5C2.33579 10.5 2 10.1642 2 9.75V3.75C2 2.7835 2.7835 2 3.75 2H9.75Z" fill="#10100F"/>
</svg>
