<svg width="24" height="24" viewBox="0 0 24 24" fill="none" xmlns="http://www.w3.org/2000/svg">
<path fill-rule="evenodd" clip-rule="evenodd" d="M13.6363 2C15.5822 2 17.1971 3.29741 17.5088 5H19.4541C21.362 5 22.9089 6.41813 22.909 8.16699V11.0996H22.3156C20.8087 11.0996 19.6363 12.1745 19.6363 13.5C19.6363 14.8255 20.8087 15.9004 22.3156 15.9004L22.909 15.8994V18.833C22.909 20.5819 21.362 22 19.4541 22H7.81845C5.91056 22 4.36355 20.5819 4.36355 18.833V17.0488C2.50627 16.7631 1.09082 15.2837 1.09082 13.5C1.09087 11.7163 2.5062 10.2359 4.36355 9.9502V8.16699C4.36361 6.41814 5.91059 5 7.81845 5H9.76376C10.0754 3.29741 11.6903 2 13.6363 2ZM13.6363 3.2002C12.1904 3.2002 11.0179 4.27431 11.0177 5.59961L11.0187 6.2002H7.81845C6.63358 6.2002 5.67291 7.08088 5.67285 8.16699L5.67392 11.1006L5.01767 11.0996C3.57192 11.0998 2.40018 12.1747 2.40012 13.5C2.40012 14.8254 3.57188 15.9002 5.01767 15.9004H5.67392V17.1006L5.67285 17.0996V18.833C5.67285 19.9192 6.63355 20.7998 7.81845 20.7998H19.4541C20.639 20.7998 21.5997 19.9192 21.5997 18.833V17.042C19.7207 16.7402 18.327 15.2699 18.327 13.5C18.327 11.73 19.7206 10.2588 21.5997 9.95703V8.16699C21.5996 7.08088 20.639 6.2002 19.4541 6.2002H16.2549V5.59961C16.2547 4.27431 15.0821 3.2002 13.6363 3.2002Z" fill="#10100F"/>
</svg>
