<svg width="24" height="24" viewBox="0 0 24 24" fill="none" xmlns="http://www.w3.org/2000/svg">
<path d="M13.6363 2C15.5822 2 17.1971 3.29741 17.5088 5H19.4541C21.362 5 22.909 6.41809 22.909 8.16699V10.0039C20.7599 10.0783 19.0909 11.5624 19.0908 13.5C19.0908 15.4375 20.76 16.9205 22.909 16.9951V18.833C22.909 20.5819 21.362 22 19.4541 22H7.81845C5.91056 22 4.36355 20.5819 4.36355 18.833V17.0488C2.50626 16.7631 1.09082 15.2837 1.09082 13.5C1.09082 11.7162 2.50617 10.2359 4.36355 9.9502V8.16699C4.36355 6.41809 5.91056 5 7.81845 5H9.76376C10.0754 3.29741 11.6903 2 13.6363 2Z" fill="#10100F"/>
</svg>
