<svg width="24" height="24" viewBox="0 0 24 24" fill="none" xmlns="http://www.w3.org/2000/svg">
<path fill-rule="evenodd" clip-rule="evenodd" d="M7.14042 2.57856C7.14042 2.90719 6.87401 3.1736 6.54538 3.1736C4.68313 3.1736 3.17348 4.68325 3.17348 6.5455C3.17348 6.87414 2.90707 7.14054 2.57844 7.14054C2.24981 7.14054 1.9834 6.87414 1.9834 6.5455C1.9834 4.02599 4.02587 1.98352 6.54538 1.98352C6.87401 1.98352 7.14042 2.24993 7.14042 2.57856ZM3.17348 17.4546C3.17348 17.126 2.90707 16.8596 2.57844 16.8596C2.24981 16.8596 1.9834 17.126 1.9834 17.4546C1.9834 19.9741 4.02587 22.0166 6.54538 22.0166C6.87401 22.0166 7.14042 21.7502 7.14042 21.4215C7.14042 21.0929 6.87401 20.8265 6.54538 20.8265C4.68313 20.8265 3.17348 19.3168 3.17348 17.4546ZM20.8264 17.4546C20.8264 17.126 21.0928 16.8596 21.4214 16.8596C21.75 16.8596 22.0165 17.126 22.0165 17.4546C22.0165 19.9741 19.974 22.0166 17.4545 22.0166C17.1258 22.0166 16.8594 21.7502 16.8594 21.4215C16.8594 21.0929 17.1258 20.8265 17.4545 20.8265C19.3167 20.8265 20.8264 19.3168 20.8264 17.4546ZM17.4545 3.1736C17.1258 3.1736 16.8594 2.90719 16.8594 2.57856C16.8594 2.24993 17.1258 1.98352 17.4545 1.98352C19.974 1.98352 22.0165 4.02599 22.0165 6.5455C22.0165 6.87414 21.75 7.14054 21.4214 7.14054C21.0928 7.14054 20.8264 6.87414 20.8264 6.5455C20.8264 4.68325 19.3167 3.1736 17.4545 3.1736ZM7.33183 15.2419C7.56663 15.012 7.94337 15.016 8.1733 15.2508C9.1461 16.2442 10.5006 16.8596 11.9999 16.8596C13.4992 16.8596 14.8538 16.2442 15.8266 15.2508C16.0565 15.016 16.4332 15.012 16.668 15.2419C16.9028 15.4719 16.9068 15.8486 16.6769 16.0834C15.4894 17.296 13.8321 18.0496 11.9999 18.0496C10.1677 18.0496 8.51044 17.296 7.323 16.0834C7.09307 15.8486 7.09702 15.4719 7.33183 15.2419ZM12.595 9.02484C12.595 8.69621 12.3286 8.4298 11.9999 8.4298C11.6713 8.4298 11.4049 8.69621 11.4049 9.02484V13.4877C11.4049 13.7067 11.2273 13.8843 11.0082 13.8843H10.5123C10.1837 13.8843 9.91728 14.1508 9.91728 14.4794C9.91728 14.808 10.1837 15.0744 10.5123 15.0744H11.0082C11.8845 15.0744 12.595 14.364 12.595 13.4877V9.02484ZM8.52885 8.4298C8.85749 8.4298 9.12389 8.69621 9.12389 9.02484V12C9.12389 12.3287 8.85749 12.5951 8.52885 12.5951C8.20022 12.5951 7.93381 12.3287 7.93381 12V9.02484C7.93381 8.69621 8.20022 8.4298 8.52885 8.4298ZM15.9669 9.02484C15.9669 8.69621 15.7005 8.4298 15.3718 8.4298C15.0432 8.4298 14.7768 8.69621 14.7768 9.02484V12C14.7768 12.3287 15.0432 12.5951 15.3718 12.5951C15.7005 12.5951 15.9669 12.3287 15.9669 12V9.02484Z" fill="#10100F"/>
<path fill-rule="evenodd" clip-rule="evenodd" d="M7.14042 2.57856C7.14042 2.90719 6.87401 3.1736 6.54538 3.1736C4.68313 3.1736 3.17348 4.68325 3.17348 6.5455C3.17348 6.87414 2.90707 7.14054 2.57844 7.14054C2.24981 7.14054 1.9834 6.87414 1.9834 6.5455C1.9834 4.02599 4.02587 1.98352 6.54538 1.98352C6.87401 1.98352 7.14042 2.24993 7.14042 2.57856ZM3.17348 17.4546C3.17348 17.126 2.90707 16.8596 2.57844 16.8596C2.24981 16.8596 1.9834 17.126 1.9834 17.4546C1.9834 19.9741 4.02587 22.0166 6.54538 22.0166C6.87401 22.0166 7.14042 21.7502 7.14042 21.4215C7.14042 21.0929 6.87401 20.8265 6.54538 20.8265C4.68313 20.8265 3.17348 19.3168 3.17348 17.4546ZM20.8264 17.4546C20.8264 17.126 21.0928 16.8596 21.4214 16.8596C21.75 16.8596 22.0165 17.126 22.0165 17.4546C22.0165 19.9741 19.974 22.0166 17.4545 22.0166C17.1258 22.0166 16.8594 21.7502 16.8594 21.4215C16.8594 21.0929 17.1258 20.8265 17.4545 20.8265C19.3167 20.8265 20.8264 19.3168 20.8264 17.4546ZM17.4545 3.1736C17.1258 3.1736 16.8594 2.90719 16.8594 2.57856C16.8594 2.24993 17.1258 1.98352 17.4545 1.98352C19.974 1.98352 22.0165 4.02599 22.0165 6.5455C22.0165 6.87414 21.75 7.14054 21.4214 7.14054C21.0928 7.14054 20.8264 6.87414 20.8264 6.5455C20.8264 4.68325 19.3167 3.1736 17.4545 3.1736ZM7.33183 15.2419C7.56663 15.012 7.94337 15.016 8.1733 15.2508C9.1461 16.2442 10.5006 16.8596 11.9999 16.8596C13.4992 16.8596 14.8538 16.2442 15.8266 15.2508C16.0565 15.016 16.4332 15.012 16.668 15.2419C16.9028 15.4719 16.9068 15.8486 16.6769 16.0834C15.4894 17.296 13.8321 18.0496 11.9999 18.0496C10.1677 18.0496 8.51044 17.296 7.323 16.0834C7.09307 15.8486 7.09702 15.4719 7.33183 15.2419ZM12.595 9.02484C12.595 8.69621 12.3286 8.4298 11.9999 8.4298C11.6713 8.4298 11.4049 8.69621 11.4049 9.02484V13.4877C11.4049 13.7067 11.2273 13.8843 11.0082 13.8843H10.5123C10.1837 13.8843 9.91728 14.1508 9.91728 14.4794C9.91728 14.808 10.1837 15.0744 10.5123 15.0744H11.0082C11.8845 15.0744 12.595 14.364 12.595 13.4877V9.02484ZM8.52885 8.4298C8.85749 8.4298 9.12389 8.69621 9.12389 9.02484V12C9.12389 12.3287 8.85749 12.5951 8.52885 12.5951C8.20022 12.5951 7.93381 12.3287 7.93381 12V9.02484C7.93381 8.69621 8.20022 8.4298 8.52885 8.4298ZM15.9669 9.02484C15.9669 8.69621 15.7005 8.4298 15.3718 8.4298C15.0432 8.4298 14.7768 8.69621 14.7768 9.02484V12C14.7768 12.3287 15.0432 12.5951 15.3718 12.5951C15.7005 12.5951 15.9669 12.3287 15.9669 12V9.02484Z" fill="#10100F"/>
</svg>
