<svg width="24" height="24" viewBox="0 0 24 24" fill="none" xmlns="http://www.w3.org/2000/svg">
<path d="M12 1.02881C18.0751 1.02881 23 5.95368 23 12.0288C23 17.7238 18.6721 22.4073 13.126 22.9712V15.147H15.6572L15.998 11.7642H13.127V9.98779C13.1271 9.45281 13.4278 9.18124 14.0215 9.18115H16V6.03076H13.3828C13.3664 6.02999 13.3292 6.02881 13.2754 6.02881C12.8707 6.02884 11.4654 6.10524 10.3555 7.08252C9.33792 8.04676 9.33789 9.34373 9.33789 9.68701V11.7642H7V15.1108H9.24023V22.6782C4.501 21.4536 1 17.1507 1 12.0288C1 5.95368 5.92487 1.02881 12 1.02881Z" fill="#10100F"/>
</svg>
