<svg width="24" height="24" viewBox="0 0 24 24" fill="none" xmlns="http://www.w3.org/2000/svg">
<path fill-rule="evenodd" clip-rule="evenodd" d="M12 6.67578C13.672 6.67578 15.1336 7.8036 15.5577 9.4209L17.3028 16.0771C17.4913 16.7965 16.9487 17.4997 16.2051 17.5H14.5996V22.4004C14.5994 22.7316 14.3313 23 14 23C13.6688 23 13.4006 22.7316 13.4004 22.4004V17.5H10.6006L10.5996 22.4004C10.5994 22.7316 10.3313 23 10 23C9.6688 23 9.40064 22.7316 9.40042 22.4004V17.5H7.79593C7.05216 17.5 6.50881 16.7966 6.6973 16.0771L8.44242 9.4209C8.86643 7.80365 10.3281 6.67585 12 6.67578ZM12 7.87598C10.8737 7.87604 9.88921 8.63604 9.60355 9.72559L7.87992 16.2998H16.1211L14.3965 9.72559C14.1109 8.63599 13.1264 7.87598 12 7.87598Z" fill="#10100F"/>
<path fill-rule="evenodd" clip-rule="evenodd" d="M12 1C13.2539 1 14.2705 2.01667 14.2705 3.27051C14.2704 4.52423 13.2538 5.54102 12 5.54102C10.7464 5.54082 9.73063 4.52411 9.7305 3.27051C9.7305 2.0168 10.7464 1.0002 12 1ZM12 2.2002C11.4091 2.2004 10.9297 2.67954 10.9297 3.27051C10.9298 3.86137 11.4092 4.34062 12 4.34082C12.591 4.34082 13.0702 3.86149 13.0703 3.27051C13.0703 2.67941 12.5911 2.2002 12 2.2002Z" fill="#10100F"/>
</svg>
