<svg width="24" height="24" viewBox="0 0 24 24" fill="none" xmlns="http://www.w3.org/2000/svg">
<path d="M10.0005 16.4004C10.3317 16.4007 10.6001 16.6688 10.6001 17V22.4004C10.5999 22.7316 10.3308 23 9.99951 23C9.6684 22.9998 9.40011 22.7315 9.3999 22.4004V17C9.3999 16.6686 9.66906 16.4004 10.0005 16.4004Z" fill="#10100F"/>
<path d="M13.9995 16.4004C14.3309 16.4004 14.6001 16.6686 14.6001 17V22.4004C14.5999 22.7316 14.3308 23 13.9995 23C13.6685 22.9998 13.4001 22.7315 13.3999 22.4004V17C13.3999 16.6688 13.6683 16.4006 13.9995 16.4004Z" fill="#10100F"/>
<path fill-rule="evenodd" clip-rule="evenodd" d="M12.0005 1C13.2542 1.00013 14.271 2.01675 14.271 3.27051C14.2709 4.52416 13.2541 5.54089 12.0005 5.54102C10.7467 5.54102 9.73011 4.52423 9.72998 3.27051C9.72998 2.01667 10.7467 1 12.0005 1ZM12.0005 2.2002C11.4094 2.2002 10.9302 2.67941 10.9302 3.27051C10.9303 3.86149 11.4095 4.34082 12.0005 4.34082C12.5914 4.34069 13.0707 3.86141 13.0708 3.27051C13.0708 2.67949 12.5915 2.20032 12.0005 2.2002Z" fill="#10100F"/>
<path d="M8.44249 9.42084C8.86651 7.80355 10.3281 6.67578 12 6.67578Cnan nan nan nan nan nanCnan nan nan nan 12 6.67578Cnan nan nan nan 12 6.67578Cnan nan nan nan 12 6.67578Cnan nan nan nan nan nanCnan nan nan nan 12 6.67578C13.672 6.67578 15.1335 7.80355 15.5575 9.42085L17.3026 16.077C17.4912 16.7965 16.9484 17.5 16.2046 17.5H7.79541C7.05156 17.5 6.50874 16.7965 6.69738 16.077L8.44249 9.42084Z" fill="#10100F"/>
</svg>
