<svg width="24" height="24" viewBox="0 0 24 24" fill="none" xmlns="http://www.w3.org/2000/svg">
<path fill-rule="evenodd" clip-rule="evenodd" d="M17 1C19.2091 1 21 2.79086 21 5V15.8994H16.5C15.6165 15.8996 14.9004 16.6165 14.9004 17.5V23H7L6.79395 22.9951C4.68056 22.8879 3 21.14 3 19V5C3 2.79086 4.79086 1 7 1H17ZM7.5 10.4004C7.16894 10.4006 6.9006 10.6689 6.90039 11V16.5C6.90065 16.831 7.16897 17.1004 7.5 17.1006C7.83121 17.1006 8.10032 16.8311 8.10059 16.5V11C8.10038 10.6688 7.83124 10.4004 7.5 10.4004ZM10.5 4.90039C10.1689 4.9006 9.9006 5.16894 9.90039 5.5V16.5C9.90065 16.831 10.169 17.1004 10.5 17.1006C10.8312 17.1006 11.1003 16.8311 11.1006 16.5V5.5C11.1004 5.16881 10.8312 4.90039 10.5 4.90039ZM13.5 6.90039C13.1689 6.9006 12.9006 7.16894 12.9004 7.5V14.5C12.9007 14.831 13.169 15.1004 13.5 15.1006C13.8312 15.1006 14.1003 14.8311 14.1006 14.5V7.5C14.1004 7.16881 13.8312 6.90039 13.5 6.90039ZM16.5 8.40039C16.1689 8.4006 15.9006 8.66894 15.9004 9V12.5C15.9007 12.831 16.169 13.1004 16.5 13.1006C16.8312 13.1006 17.1003 12.8311 17.1006 12.5V9C17.1004 8.66881 16.8312 8.40039 16.5 8.40039Z" fill="#10100F"/>
<path d="M20.9746 17.0996C20.9193 17.4477 20.7733 17.7771 20.5479 18.0527L17.1006 22.2666C16.8397 22.5855 16.4887 22.8091 16.1006 22.9199V17.5C16.1006 17.2792 16.2793 17.0998 16.5 17.0996H20.9746Z" fill="#10100F"/>
</svg>
