<svg width="24" height="24" viewBox="0 0 24 24" fill="none" xmlns="http://www.w3.org/2000/svg">
<path d="M15.2598 7.07617C15.4941 6.84186 15.8741 6.84185 16.1084 7.07617C16.3427 7.31049 16.3427 7.69049 16.1084 7.9248L11.1084 12.9248C10.8796 13.1534 10.5106 13.1593 10.2744 12.9385L7.58887 10.4229C7.34729 10.1964 7.33526 9.81697 7.56152 9.5752C7.78796 9.33349 8.16734 9.32067 8.40918 9.54688L10.6709 11.665L15.2598 7.07617Z" fill="#10100F"/>
<path fill-rule="evenodd" clip-rule="evenodd" d="M17 1C19.2091 1 21 2.79086 21 5V16.7861C21 17.2478 20.8402 17.6954 20.5479 18.0527L17.1006 22.2666C16.7207 22.7309 16.1516 23 15.5518 23H7C4.79086 23 3 21.2091 3 19V5C3 2.79086 4.79086 1 7 1H17ZM7 2.2002C5.4536 2.2002 4.2002 3.4536 4.2002 5V19C4.2002 20.5464 5.4536 21.7998 7 21.7998H14.9004V17.5C14.9004 16.6165 15.6165 15.8996 16.5 15.8994H19.7998V5C19.7998 3.4536 18.5464 2.2002 17 2.2002H7ZM16.5 17.0996C16.2793 17.0998 16.1006 17.2792 16.1006 17.5V21.5811C16.1254 21.5576 16.15 21.5336 16.1719 21.5068L19.6191 17.293C19.6671 17.2343 19.704 17.1683 19.7334 17.0996H16.5Z" fill="#10100F"/>
</svg>
