<svg width="24" height="24" viewBox="0 0 24 24" fill="none" xmlns="http://www.w3.org/2000/svg">
<path fill-rule="evenodd" clip-rule="evenodd" d="M17 1C19.2091 1 21 2.79086 21 5V15.8994H16.5C15.6165 15.8996 14.9004 16.6165 14.9004 17.5V23H7L6.79395 22.9951C4.68056 22.8879 3 21.14 3 19V5C3 2.79086 4.79086 1 7 1H17ZM16.1084 7.07617C15.8741 6.84185 15.4941 6.84186 15.2598 7.07617L10.6709 11.665L8.40918 9.54688C8.16734 9.32067 7.78796 9.33349 7.56152 9.5752C7.33526 9.81697 7.34729 10.1964 7.58887 10.4229L10.2744 12.9385C10.5106 13.1593 10.8796 13.1534 11.1084 12.9248L16.1084 7.9248C16.3427 7.69049 16.3427 7.31049 16.1084 7.07617Z" fill="#10100F"/>
<path d="M20.9746 17.0996C20.9193 17.4477 20.7733 17.7771 20.5479 18.0527L17.1006 22.2666C16.8397 22.5855 16.4887 22.8091 16.1006 22.9199V17.5C16.1006 17.2792 16.2793 17.0998 16.5 17.0996H20.9746Z" fill="#10100F"/>
</svg>
