<svg width="24" height="24" viewBox="0 0 24 24" fill="none" xmlns="http://www.w3.org/2000/svg">
<path fill-rule="evenodd" clip-rule="evenodd" d="M12 6.2002C12.2276 6.2002 12.4285 6.32242 12.5371 6.51074C12.8487 7.051 13.4854 7.31468 14.0879 7.15332C14.2976 7.09725 14.5258 7.15274 14.6865 7.31348C14.8473 7.47423 14.9027 7.70236 14.8467 7.91211C14.6855 8.51448 14.9491 9.15135 15.4893 9.46289C15.6774 9.57141 15.7997 9.77161 15.7998 9.99902C15.7998 10.2266 15.6776 10.4276 15.4893 10.5361C14.9486 10.8478 14.684 11.4852 14.8457 12.0879C14.895 12.2716 14.8598 12.4697 14.7422 12.624L14.6865 12.6875C14.5257 12.8482 14.2976 12.9028 14.0879 12.8467C13.4857 12.6853 12.8489 12.9494 12.5371 13.4893C12.4285 13.6775 12.2275 13.7998 12 13.7998C11.7725 13.7998 11.5725 13.6774 11.4639 13.4893C11.152 12.9489 10.5146 12.6858 9.91211 12.8477C9.70213 12.9041 9.47348 12.8485 9.3125 12.6875C9.15152 12.5265 9.09584 12.2979 9.15234 12.0879C9.3144 11.4853 9.05116 10.8481 8.51074 10.5361C8.32252 10.4275 8.2002 10.2266 8.2002 9.99902C8.20035 9.77172 8.32271 9.57146 8.51074 9.46289C9.05058 9.15102 9.31384 8.5143 9.15234 7.91211C9.09609 7.70229 9.15172 7.47435 9.3125 7.31348C9.47346 7.15252 9.70215 7.09691 9.91211 7.15332C10.5147 7.31501 11.1522 7.05127 11.4639 6.51074C11.5724 6.32254 11.7725 6.20025 12 6.2002ZM13.8838 8.57422C13.6489 8.3405 13.2689 8.34224 13.0352 8.57715L11.499 10.1201L10.9346 9.55566C10.7003 9.32135 10.3203 9.32136 10.0859 9.55566C9.85162 9.78998 9.85162 10.17 10.0859 10.4043L11.0762 11.3945C11.1888 11.507 11.3417 11.5705 11.501 11.5703C11.6603 11.5701 11.8134 11.5065 11.9258 11.3936L13.8857 9.42285C14.1192 9.18794 14.1186 8.80786 13.8838 8.57422Z" fill="#10100F"/>
<path fill-rule="evenodd" clip-rule="evenodd" d="M17 1C19.2091 1 21 2.79086 21 5V15.9004H16.5C15.6165 15.9006 14.9004 16.6165 14.9004 17.5V23H7L6.79395 22.9951C4.68056 22.8879 3 21.14 3 19V5C3 2.79086 4.79086 1 7 1H17ZM12 5C11.3262 5.00005 10.7379 5.36654 10.4238 5.91113C10.3836 5.98082 10.3003 6.01501 10.2227 5.99414C9.6155 5.83117 8.94033 5.98838 8.46387 6.46484C7.9877 6.9411 7.83053 7.61574 7.99316 8.22266C8.01398 8.30029 7.97976 8.38364 7.91016 8.42383C7.36621 8.73798 7.00015 9.32577 7 9.99902C7 10.6727 7.36673 11.2611 7.91113 11.5752C7.98068 11.6154 8.01499 11.6988 7.99414 11.7764C7.83071 12.3838 7.98717 13.0594 8.46387 13.5361C8.94051 14.0128 9.6163 14.1691 10.2236 14.0059C10.3012 13.9852 10.3837 14.0203 10.4238 14.0898C10.738 14.634 11.3265 14.9999 12 15C12.6737 15 13.262 14.6332 13.5762 14.0889C13.6164 14.0195 13.6998 13.9851 13.7773 14.0059C14.3842 14.1684 15.059 14.0122 15.5352 13.5361C16.0117 13.0596 16.1679 12.3836 16.0049 11.7764C15.9843 11.6988 16.0193 11.6163 16.0889 11.5762C16.6336 11.2621 17 10.673 17 9.99902C16.9998 9.32536 16.6334 8.73686 16.0889 8.42285C16.0194 8.38267 15.9851 8.30021 16.0059 8.22266C16.1683 7.61584 16.0113 6.94096 15.5352 6.46484C15.059 5.98873 14.3842 5.83169 13.7773 5.99414C13.6997 6.01494 13.6163 5.98078 13.5762 5.91113C13.2621 5.36657 12.6738 5 12 5Z" fill="#10100F"/>
<path d="M20.9746 17.0996C20.9193 17.4477 20.7733 17.7771 20.5479 18.0527L17.1006 22.2666C16.8397 22.5855 16.4887 22.8091 16.1006 22.9199V17.5C16.1006 17.2792 16.2793 17.0998 16.5 17.0996H20.9746Z" fill="#10100F"/>
</svg>
