<svg width="24" height="24" viewBox="0 0 24 24" fill="none" xmlns="http://www.w3.org/2000/svg">
<path d="M10.1143 23H10.1035C10.1048 23 10.1061 22.999 10.1074 22.999C10.1097 22.999 10.112 23 10.1143 23Z" fill="#10100F"/>
<path d="M20.584 18.8232C20.7225 18.8232 20.8263 18.8575 20.8955 18.9268C20.9647 18.996 21 19.0997 21 19.2266C21 19.3535 20.9647 19.4688 20.8955 19.5381C20.8263 19.6073 20.7224 19.6416 20.584 19.6416H19.1533V20.4727H20.457C20.5955 20.4727 20.6993 20.5079 20.7686 20.5771C20.8377 20.6464 20.873 20.7501 20.873 20.877C20.873 21.0038 20.8378 21.1193 20.7686 21.1885C20.6993 21.2576 20.5954 21.292 20.457 21.292H19.1533V22.4229C19.1533 22.7921 18.9798 22.9883 18.6221 22.9883V23C18.4492 22.9999 18.3225 22.9534 18.2188 22.8496C18.1265 22.7573 18.0801 22.6191 18.0801 22.4346V19.377C18.0801 19.1923 18.1264 19.0533 18.2188 18.9609C18.311 18.8688 18.4494 18.8233 18.6338 18.8232H20.584Z" fill="#10100F"/>
<path fill-rule="evenodd" clip-rule="evenodd" d="M11.5459 18.8232C12.0072 18.8233 12.3644 18.9385 12.6182 19.1807C12.872 19.423 12.999 19.7459 12.999 20.1729C12.999 20.5998 12.872 20.9227 12.6182 21.165C12.3644 21.4072 12.0072 21.5234 11.5459 21.5234H10.6338V22.4463C10.6338 22.6192 10.5874 22.7458 10.4951 22.8496C10.4036 22.9411 10.2783 22.9981 10.1074 22.999C9.93769 22.9978 9.80197 22.952 9.71094 22.8496C9.61871 22.7573 9.5723 22.6192 9.57227 22.4463V19.3652C9.57227 19.1806 9.61862 19.0533 9.71094 18.9609C9.80319 18.8688 9.94149 18.8233 10.1143 18.8232H11.5459ZM10.6455 20.7041H11.3613C11.5686 20.704 11.7185 20.6577 11.8223 20.5771C11.9261 20.4849 11.9843 20.3576 11.9844 20.1846C11.9844 20.0115 11.9261 19.8728 11.8223 19.792C11.7185 19.6998 11.5572 19.6651 11.3613 19.665H10.6455V20.7041Z" fill="#10100F"/>
<path fill-rule="evenodd" clip-rule="evenodd" d="M15.5518 1C16.1516 1 16.7207 1.26913 17.1006 1.7334L20.5479 5.94727C20.8402 6.30457 21 6.7522 21 7.21387V16.4004C20.9997 16.7314 20.7314 16.9997 20.4004 17C20.0691 17 19.8001 16.7316 19.7998 16.4004V7.21387C19.7998 7.17538 19.7955 7.13735 19.79 7.09961H16C15.1165 7.0994 14.4004 6.38353 14.4004 5.5V2.2002H7C5.4536 2.2002 4.2002 3.4536 4.2002 5V19C4.2002 20.4498 5.3019 21.6418 6.71387 21.7852C6.87408 21.7934 6.9998 21.9256 7 22.0859V22.7939C6.99997 22.907 6.90693 22.9978 6.79395 22.9951C4.68056 22.8879 3 21.14 3 19V5C3 2.79086 4.79086 1 7 1H15.5518ZM15.6006 5.5C15.6006 5.72078 15.7793 5.90018 16 5.90039H18.959L16.1719 2.49316C16.0303 2.32011 15.8224 2.21564 15.6006 2.20215V5.5Z" fill="#10100F"/>
<path d="M8.58887 21.8467C8.77327 21.8468 8.91165 21.9039 9.00391 21.9961C9.10776 22.0999 9.1543 22.2273 9.1543 22.4004C9.15424 22.5733 9.10768 22.7001 9.00391 22.8154C8.90012 22.9192 8.76179 22.9765 8.58887 22.9766C8.40424 22.9766 8.26499 22.9193 8.16113 22.8154C8.05749 22.7117 8.00007 22.5732 8 22.4004C8 22.2274 8.05738 22.0999 8.16113 21.9961C8.26499 21.8922 8.40424 21.8467 8.58887 21.8467Z" fill="#10100F"/>
<path fill-rule="evenodd" clip-rule="evenodd" d="M15.25 18.8457C15.9651 18.8457 16.5188 19.0302 16.9111 19.3877C17.3034 19.7454 17.4999 20.2533 17.5 20.8994C17.5 21.234 17.4534 21.5225 17.3496 21.7764C17.2458 22.0302 17.1073 22.2498 16.9111 22.4229C16.7266 22.5958 16.4848 22.7349 16.208 22.8271C15.9311 22.9194 15.6077 22.9648 15.25 22.9648H14.1074V22.9424C13.9229 22.9424 13.7847 22.8959 13.6924 22.8037C13.6001 22.7115 13.5538 22.5731 13.5537 22.3887V19.3994C13.5537 19.2149 13.6001 19.0767 13.6924 18.9844C13.7847 18.8921 13.9229 18.8457 14.1074 18.8457H15.25ZM14.6152 22.0654H15.1924C15.3999 22.0654 15.5728 22.042 15.7227 21.9844C15.8724 21.9268 15.9995 21.8577 16.0918 21.7656C16.1957 21.6733 16.2654 21.5455 16.3115 21.3955C16.3576 21.2456 16.3808 21.0727 16.3809 20.8652C16.3809 20.4615 16.2771 20.1612 16.0811 19.9766C15.8849 19.7804 15.5845 19.6885 15.1807 19.6885H14.6152V22.0654Z" fill="#10100F"/>
</svg>
