<svg width="24" height="24" viewBox="0 0 24 24" fill="none" xmlns="http://www.w3.org/2000/svg">
<path fill-rule="evenodd" clip-rule="evenodd" d="M15.9375 1C17.3991 1.00002 18.6758 1.79078 19.3691 2.96875C19.3598 2.97779 19.35 2.98672 19.3408 2.99609L13.7725 8.69726L13.666 8.82129C13.567 8.95085 13.4913 9.09762 13.4443 9.25488L12.377 12.8271C12.3138 13.0386 12.3719 13.2677 12.5273 13.4238C12.6828 13.5799 12.9105 13.6376 13.1211 13.5742L16.6729 12.5049C16.8901 12.4394 17.0873 12.3198 17.2461 12.1572L19.9219 9.41699V15.9004H15.4395C14.5594 15.9006 13.8457 16.6165 13.8457 17.5V23H5.97656C3.77606 23 1.99219 21.2091 1.99219 19V5C1.99219 2.79086 3.77606 1 5.97656 1H15.9375ZM6.98242 10.5342C6.80822 9.22252 4.95738 9.1176 4.6377 10.4014L3.90234 13.3545C3.82236 13.6759 4.01677 14.0016 4.33691 14.082C4.65707 14.1624 4.98139 13.9669 5.06152 13.6455L5.79688 10.6924L6.11719 13.1025C6.26789 14.2366 7.82908 14.4148 8.22949 13.3437L8.44727 12.7588C8.46105 12.7551 8.48164 12.751 8.50879 12.75C8.55989 12.7481 8.61437 12.7572 8.66016 12.7744C8.70676 12.7919 8.72606 12.8106 8.72852 12.8135C9.58574 13.8075 10.7655 14.0996 11.4551 14.0996C11.7849 14.0993 12.0527 13.8311 12.0527 13.5C12.0527 13.1688 11.7849 12.8997 11.4551 12.8994C11.0287 12.8994 10.2125 12.7017 9.63184 12.0283C9.32505 11.6725 8.85505 11.5363 8.46484 11.5508C8.08015 11.5651 7.54899 11.7461 7.34473 12.293L7.25 12.5488L6.98242 10.5342Z" fill="#10100F"/>
<path d="M19.8965 17.0996C19.8415 17.4477 19.6963 17.7771 19.4717 18.0527L16.0371 22.2666C15.8708 22.4706 15.6669 22.6344 15.4414 22.7568C15.328 22.8184 15.2093 22.8687 15.0859 22.9072C15.0712 22.9118 15.0559 22.9146 15.041 22.9189V17.5C15.041 17.2792 15.2196 17.0998 15.4395 17.0996H19.8965Z" fill="#10100F"/>
<path d="M19.9219 7.34668V7.35058L20.0947 7.52441L19.9219 7.70117V7.70312L16.3926 11.3174C16.375 11.3353 16.3531 11.3482 16.3291 11.3555L13.8408 12.1055L14.5889 9.59961C14.5958 9.57655 14.6083 9.55532 14.625 9.53808L18.3252 5.74804L18.3271 5.74609L19.9219 7.34668Z" fill="#10100F"/>
<path d="M20.1934 3.83594C20.2515 3.77657 20.3465 3.77627 20.4053 3.83496L21.9639 5.39941C22.0071 5.44298 22.0183 5.50667 21.9971 5.56055L21.9648 5.61035L20.9326 6.66699L19.1631 4.89062L20.1934 3.83594Z" fill="#10100F"/>
</svg>
