<svg width="24" height="24" viewBox="0 0 24 24" fill="none" xmlns="http://www.w3.org/2000/svg">
<path fill-rule="evenodd" clip-rule="evenodd" d="M16.7998 5.40039C17.2415 5.4006 17.5996 5.7585 17.5996 6.2002V12.7998C17.5996 13.2415 17.2415 13.5994 16.7998 13.5996H6.99902C6.66786 13.5994 6.39947 13.3312 6.39941 13V6.2002C6.39941 5.75843 6.75748 5.4005 7.19922 5.40039H16.7998ZM7.59961 12.3994H11.3994V11.2666H7.59961V12.3994ZM12.5996 12.3994H16.3994V11.2666H12.5996V12.3994ZM7.59961 10.0664H11.3994V8.93359H7.59961V10.0664ZM12.5996 10.0664H16.3994V8.93359H12.5996V10.0664ZM7.59961 6.59961V7.7334H16.3994V6.59961H7.59961Z" fill="#10100F"/>
<path fill-rule="evenodd" clip-rule="evenodd" d="M17 1C19.2091 1 21 2.79086 21 5V16.7861C21 17.2478 20.8402 17.6954 20.5479 18.0527L17.1006 22.2666C16.7207 22.7309 16.1516 23 15.5518 23H7C4.79086 23 3 21.2091 3 19V5C3 2.79086 4.79086 1 7 1H17ZM7 2.2002C5.4536 2.2002 4.2002 3.4536 4.2002 5V19C4.2002 20.5464 5.4536 21.7998 7 21.7998H14.9004V17.5C14.9004 16.6165 15.6165 15.8996 16.5 15.8994H19.7998V5C19.7998 3.4536 18.5464 2.2002 17 2.2002H7ZM16.5 17.0996C16.2793 17.0998 16.1006 17.2792 16.1006 17.5V21.5811C16.1254 21.5576 16.15 21.5336 16.1719 21.5068L19.6191 17.293C19.6671 17.2343 19.704 17.1683 19.7334 17.0996H16.5Z" fill="#10100F"/>
</svg>
