<svg width="24" height="24" viewBox="0 0 24 24" fill="none" xmlns="http://www.w3.org/2000/svg">
<path d="M10.2969 5.70605C10.658 5.58967 10.9997 5.88129 11 6.26074C11 6.55079 10.7954 6.79654 10.5234 6.89746C9.16687 7.4006 8.20024 8.70667 8.2002 10.2383C8.2002 12.2054 9.79462 13.8007 11.7617 13.8008C13.2479 13.8008 14.5217 12.8901 15.0557 11.5967C15.1633 11.336 15.4045 11.1428 15.6865 11.1426C16.0762 11.1426 16.3715 11.5 16.2383 11.8662C15.5733 13.6945 13.8199 15 11.7617 15C9.13188 14.9999 7 12.8681 7 10.2383C7.00005 8.1197 8.384 6.3241 10.2969 5.70605Z" fill="#10100F"/>
<path fill-rule="evenodd" clip-rule="evenodd" d="M12.1504 5C14.8289 5 17.0007 7.1712 17.001 9.84961C17.001 10.0639 16.8266 10.2383 16.6123 10.2383H12.7148C12.1891 10.2382 11.7629 9.81185 11.7627 9.28613V5.3877C11.7629 5.17365 11.9363 5.00017 12.1504 5ZM12.9629 9.03809H15.71C15.4001 7.67427 14.3267 6.60093 12.9629 6.29102V9.03809Z" fill="#10100F"/>
<path fill-rule="evenodd" clip-rule="evenodd" d="M17 1C19.2091 1 21 2.79086 21 5V16.7861C21 17.2478 20.8402 17.6954 20.5479 18.0527L17.1006 22.2666C16.7207 22.7309 16.1516 23 15.5518 23H7C4.79086 23 3 21.2091 3 19V5C3 2.79086 4.79086 1 7 1H17ZM7 2.2002C5.4536 2.2002 4.2002 3.4536 4.2002 5V19C4.2002 20.5464 5.4536 21.7998 7 21.7998H14.9004V17.5C14.9004 16.6165 15.6165 15.8996 16.5 15.8994H19.7998V5C19.7998 3.4536 18.5464 2.2002 17 2.2002H7ZM16.5 17.0996C16.2793 17.0998 16.1006 17.2792 16.1006 17.5V21.5811C16.1254 21.5576 16.15 21.5336 16.1719 21.5068L19.6191 17.293C19.6671 17.2343 19.704 17.1683 19.7334 17.0996H16.5Z" fill="#10100F"/>
</svg>
