<svg width="24" height="24" viewBox="0 0 24 24" fill="none" xmlns="http://www.w3.org/2000/svg">
<path fill-rule="evenodd" clip-rule="evenodd" d="M15.8091 1C17.8603 1.00001 19.5459 2.58155 19.7417 4.60547L19.6675 4.53027C19.3781 4.23752 18.909 4.23743 18.6196 4.53027L18.5444 4.60547C18.3547 3.24619 17.2045 2.2002 15.8091 2.20019H5.92822C4.40033 2.20027 3.16162 3.45365 3.16162 5V19C3.16162 20.5463 4.40034 21.7997 5.92822 21.7998H13.7349V17.5C13.7351 16.6165 14.4429 15.8994 15.3159 15.8994H18.5757V9.82422L19.7612 8.62402V16.7861C19.7612 17.2478 19.6038 17.6954 19.3149 18.0527L15.9077 22.2666C15.5324 22.7307 14.971 23 14.3784 23H5.92822C3.7455 22.9999 1.97607 21.2091 1.97607 19V5C1.97607 2.79091 3.7455 1.00007 5.92822 1H15.8091ZM15.3159 17.0996C15.0979 17.0996 14.9209 17.2785 14.9204 17.499V21.581C14.9449 21.5576 14.9691 21.5336 14.9907 21.5068L18.397 17.293C18.4445 17.2342 18.4812 17.1685 18.5103 17.0996H15.3159Z" fill="#10100F"/>
<path fill-rule="evenodd" clip-rule="evenodd" d="M18.2006 4.10596C18.7216 3.57875 19.5664 3.57875 20.0874 4.10596L21.6333 5.67041C22.154 6.19763 22.1541 7.05244 21.6333 7.57959L17.102 12.1655C16.9459 12.3235 16.7529 12.4392 16.5415 12.5034L13.0161 13.5747C12.8073 13.6381 12.5804 13.5802 12.4262 13.4243C12.272 13.2683 12.2152 13.039 12.2778 12.8276L13.3354 9.2583C13.3988 9.04449 13.5135 8.84978 13.6694 8.69189L18.2006 4.10596ZM14.5083 9.54052C14.491 9.558 14.4782 9.57938 14.4712 9.60302L13.7299 12.105L16.2016 11.354C16.2248 11.3469 16.246 11.3342 16.2631 11.3169L19.2309 8.31201L17.476 6.53564L14.5083 9.54052ZM19.2495 4.95459C19.1916 4.89601 19.0974 4.89601 19.0395 4.95459L18.3149 5.68701L20.0698 7.46338L20.7944 6.73096C20.8523 6.67238 20.8523 6.57762 20.7944 6.51904L19.2495 4.95459Z" fill="#10100F"/>
<path fill-rule="evenodd" clip-rule="evenodd" d="M4.60057 10.4014C4.91768 9.11765 6.75334 9.2222 6.92614 10.5339L7.19157 12.5486L7.28637 12.2928C7.48899 11.7459 8.01528 11.5655 8.39688 11.5512C8.78398 11.5368 9.25029 11.6724 9.55466 12.0283C10.1306 12.7017 10.9398 12.9 11.3628 12.9C11.6902 12.9 11.9556 13.1686 11.9556 13.5C11.9556 13.8314 11.6902 14.1 11.3628 14.1C10.6786 14.1 9.50853 13.8079 8.65819 12.8137C8.65576 12.8108 8.63715 12.7922 8.59092 12.7747C8.54548 12.7574 8.49146 12.7485 8.44071 12.7504C8.41376 12.7514 8.39365 12.7552 8.37997 12.7589L8.16339 13.3434C7.76638 14.4149 6.2178 14.2369 6.06837 13.1026L5.75085 10.6925L5.02139 13.6455C4.94198 13.967 4.62011 14.1625 4.30247 14.0821C3.98482 14.0017 3.7917 13.676 3.87111 13.3545L4.60057 10.4014Z" fill="#10100F"/>
</svg>
