<svg width="24" height="24" viewBox="0 0 24 24" fill="none" xmlns="http://www.w3.org/2000/svg">
<path fill-rule="evenodd" clip-rule="evenodd" d="M17 1C19.2091 1 21 2.79086 21 5V15.9004H16.5C15.6165 15.9006 14.9004 16.6165 14.9004 17.5V23H7L6.79395 22.9951C4.68056 22.8879 3 21.14 3 19V5C3 2.79086 4.79086 1 7 1H17ZM11.9531 5.40234C11.9495 5.40262 11.946 5.40298 11.9424 5.40332C11.9233 5.40512 11.9046 5.40945 11.8857 5.41309C11.8661 5.41687 11.8464 5.42004 11.8271 5.42578C11.8132 5.42996 11.7999 5.43617 11.7861 5.44141C11.7626 5.45036 11.7392 5.4597 11.7168 5.47168C11.7043 5.47835 11.6927 5.48652 11.6807 5.49414C11.6596 5.50741 11.6387 5.52103 11.6191 5.53711C11.6159 5.53974 11.6125 5.54221 11.6094 5.54492L8.10938 8.54492C7.85779 8.76056 7.82833 9.13902 8.04395 9.39062C8.25952 9.642 8.63809 9.67138 8.88965 9.45605L11.3994 7.30469V14C11.3994 14.3313 11.6678 14.6004 11.999 14.6006C12.3304 14.6006 12.5996 14.3314 12.5996 14V7.30469L15.1084 9.45605C15.36 9.6717 15.7394 9.64221 15.9551 9.39062C16.1707 9.13906 16.1411 8.76057 15.8896 8.54492L12.3896 5.54492C12.3861 5.54188 12.3815 5.54006 12.3779 5.53711C12.3585 5.52123 12.3382 5.50725 12.3174 5.49414C12.3053 5.48652 12.2937 5.47834 12.2812 5.47168C12.2588 5.45973 12.2355 5.45033 12.2119 5.44141C12.1982 5.43618 12.1849 5.42995 12.1709 5.42578C12.1524 5.42027 12.1332 5.41776 12.1143 5.41406C12.0944 5.41019 12.0748 5.40516 12.0547 5.40332C12.0514 5.40302 12.0482 5.40259 12.0449 5.40234H11.9531Z" fill="#10100F"/>
<path d="M20.9746 17.0996C20.9193 17.4477 20.7733 17.7771 20.5479 18.0527L17.1006 22.2666C16.8397 22.5855 16.4887 22.8091 16.1006 22.9199V17.5C16.1006 17.2792 16.2793 17.0998 16.5 17.0996H20.9746Z" fill="#10100F"/>
</svg>
