<svg width="24" height="24" viewBox="0 0 24 24" fill="none" xmlns="http://www.w3.org/2000/svg">
<path d="M8.51807 6.41895C8.59412 6.42756 8.66527 6.45005 8.72998 6.48438C8.7483 6.49404 8.76733 6.50303 8.78467 6.51465C8.81751 6.53676 8.8477 6.56282 8.87549 6.59082C8.90223 6.61783 8.92784 6.64786 8.94971 6.68066L10.6997 9.30469V7.0127C10.6999 6.68163 10.9683 6.4133 11.2993 6.41309C11.6306 6.41309 11.8997 6.6815 11.8999 7.0127V11.2861C11.8996 11.5775 11.6912 11.8201 11.4155 11.874C11.3861 11.8798 11.3563 11.8815 11.3267 11.8828C11.3177 11.8832 11.3084 11.8857 11.2993 11.8857L11.2974 11.8848C11.2645 11.8847 11.232 11.8814 11.1997 11.876C11.1711 11.8712 11.1437 11.8632 11.1167 11.8545C11.1005 11.8493 11.0837 11.8454 11.0679 11.8389C11.0585 11.8349 11.0496 11.8296 11.0405 11.8252C10.9465 11.7803 10.8614 11.7121 10.7993 11.6191L9.05029 8.99512V11.2861C9.0499 11.6172 8.78083 11.8857 8.44971 11.8857C8.11876 11.8855 7.85049 11.617 7.8501 11.2861V7.0127C7.85016 6.91131 7.87692 6.81614 7.92139 6.73242C7.94882 6.68063 7.98314 6.63157 8.02588 6.58887C8.05329 6.56145 8.08345 6.53637 8.11572 6.51465L8.11768 6.51367C8.12297 6.51015 8.12891 6.50722 8.13428 6.50391C8.16283 6.48616 8.19264 6.46985 8.22412 6.45703C8.22884 6.45511 8.23402 6.45393 8.23877 6.45215C8.26991 6.44041 8.30209 6.43029 8.33545 6.42383C8.34959 6.42108 8.36419 6.42162 8.37842 6.41992C8.40189 6.41711 8.42548 6.4131 8.44971 6.41309H8.45361C8.47525 6.41323 8.49663 6.41648 8.51807 6.41895Z" fill="#10100F"/>
<path d="M16.2847 6.41309C16.6159 6.41309 16.8841 6.6815 16.8843 7.0127C16.884 7.34384 16.6159 7.61328 16.2847 7.61328H14.7485V9.26172H15.5728C15.9039 9.2618 16.1722 9.53019 16.1724 9.86133C16.1721 10.1924 15.9039 10.4618 15.5728 10.4619H14.7485V11.2861C14.7481 11.6172 14.4791 11.8857 14.1479 11.8857C13.817 11.8855 13.5487 11.617 13.5483 11.2861V7.0127C13.5486 6.68163 13.8169 6.4133 14.1479 6.41309H16.2847Z" fill="#10100F"/>
<path fill-rule="evenodd" clip-rule="evenodd" d="M17.0503 1.0127C19.5906 1.01275 21.6497 3.07201 21.6499 5.6123L21.5503 20.1377C21.5502 21.7117 20.2737 22.9873 18.6997 22.9873H5.76221C3.87775 22.9871 2.35015 21.4597 2.3501 19.5752V17.8877C2.3501 17.146 2.8182 16.5133 3.4751 16.2695V5.6123C3.47532 3.07197 5.63491 1.0127 8.17529 1.0127H17.0503ZM4.07471 17.3623C3.78494 17.3625 3.55029 17.5979 3.55029 17.8877V19.5752C3.55035 20.7969 4.54049 21.7879 5.76221 21.7881H16.3892C16.2442 21.5691 16.1282 21.3331 16.0366 21.0938C15.662 20.1141 15.6397 18.9438 15.6899 18.0879C15.7138 17.6772 15.3971 17.3623 15.0776 17.3623H4.07471ZM8.17529 2.21289C6.29765 2.21289 4.67552 3.73472 4.67529 5.6123V16.1631H15.0776C16.1778 16.1631 16.947 17.1518 16.8882 18.1582C16.8407 18.9668 16.8762 19.9289 17.1577 20.665C17.2955 21.0251 17.4804 21.3001 17.7134 21.4844C17.9384 21.6623 18.2478 21.788 18.6997 21.7881C19.6109 21.7881 20.35 21.0489 20.3501 20.1377L20.4507 5.6123C20.4505 3.73475 18.9279 2.21294 17.0503 2.21289H8.17529Z" fill="#10100F"/>
</svg>
