<svg width="24" height="24" viewBox="0 0 24 24" fill="none" xmlns="http://www.w3.org/2000/svg">
<path d="M10.1152 23H10.1035C10.1051 23 10.1068 22.999 10.1084 22.999C10.1106 22.999 10.113 23 10.1152 23Z" fill="#10100F"/>
<path d="M20.584 18.8223C20.7225 18.8223 20.8263 18.8575 20.8955 18.9268C20.9647 18.996 21 19.0996 21 19.2266C21 19.3535 20.9647 19.4689 20.8955 19.5381C20.8263 19.6073 20.7224 19.6416 20.584 19.6416H19.1533V20.4727H20.457C20.5953 20.4727 20.6993 20.5072 20.7686 20.5762C20.8378 20.6454 20.873 20.75 20.873 20.877C20.873 21.0038 20.8377 21.1193 20.7686 21.1885C20.6993 21.2576 20.5953 21.292 20.457 21.292H19.1533V22.4229C19.1533 22.7921 18.9798 22.9883 18.6221 22.9883V23C18.4492 22.9999 18.3225 22.9534 18.2188 22.8496C18.1265 22.7573 18.0801 22.6191 18.0801 22.4346V19.377C18.0801 19.1923 18.1264 19.0533 18.2188 18.9609C18.311 18.8688 18.4494 18.8223 18.6338 18.8223H20.584Z" fill="#10100F"/>
<path fill-rule="evenodd" clip-rule="evenodd" d="M11.5459 18.8223C12.0075 18.8223 12.3653 18.9383 12.6191 19.1807C12.8729 19.423 13 19.746 13 20.1729C13 20.5997 12.8729 20.9227 12.6191 21.165C12.3653 21.4074 12.0075 21.5225 11.5459 21.5225H10.6348V22.4463C10.6347 22.6191 10.5882 22.7459 10.4961 22.8496C10.4047 22.941 10.279 22.9979 10.1084 22.999C9.93841 22.9979 9.80207 22.9521 9.71094 22.8496C9.61884 22.7573 9.57232 22.6191 9.57227 22.4463V19.3652C9.57227 19.1806 9.61863 19.0533 9.71094 18.9609C9.80325 18.8686 9.94214 18.8223 10.1152 18.8223H11.5459ZM10.6455 20.7031H11.3613C11.569 20.7031 11.7194 20.6569 11.8232 20.5762C11.9268 20.4839 11.9843 20.3573 11.9844 20.1846C11.9844 20.0116 11.9269 19.8728 11.8232 19.792C11.7194 19.6997 11.5575 19.665 11.3613 19.665H10.6455V20.7031Z" fill="#10100F"/>
<path d="M14.4004 5.5C14.4004 6.38352 15.1165 7.0994 16 7.09961H20.9951C20.9973 7.1376 21 7.17564 21 7.21387V18H19.3154C18.6722 18 18.2674 18.2857 18.041 18.5215C18.0053 18.5587 17.9693 18.6083 17.9336 18.6455C17.3498 18.2235 16.6226 18 15.7529 18H14.5742C14.05 18 13.6924 18.1862 13.4541 18.3848C13.0371 18.1365 12.5484 18 11.9766 18H10.499C9.86806 18.0001 9.46347 18.2731 9.24902 18.5088C9.02266 18.7446 8.74805 19.1667 8.74805 19.8369V21C8.1167 21 7.71189 21.2857 7.47363 21.5215C7.16206 21.8461 6.97639 22.4987 6.95312 22.998C4.76559 22.9729 3 21.1935 3 19V5C3 2.79086 4.79086 1 7 1H14.4004V5.5Z" fill="#10100F"/>
<path d="M8.58887 21.8457C8.77332 21.8458 8.91165 21.9038 9.00391 21.9961C9.10764 22.0999 9.15422 22.2266 9.1543 22.3994C9.1543 22.5725 9.10776 22.7 9.00391 22.8154C8.90014 22.9192 8.76174 22.9765 8.58887 22.9766C8.40424 22.9766 8.26499 22.9193 8.16113 22.8154C8.05736 22.7116 8 22.5724 8 22.3994C8.0001 22.2267 8.05754 22.0998 8.16113 21.9961C8.26499 21.8922 8.40424 21.8457 8.58887 21.8457Z" fill="#10100F"/>
<path fill-rule="evenodd" clip-rule="evenodd" d="M15.25 18.8457C15.9651 18.8458 16.5189 19.0302 16.9111 19.3877C17.3034 19.7454 17.5 20.2533 17.5 20.8994C17.5 21.234 17.4534 21.5225 17.3496 21.7764C17.2458 22.0302 17.1073 22.2498 16.9111 22.4229C16.7265 22.5959 16.4839 22.7348 16.207 22.8271C15.9303 22.9193 15.6074 22.9648 15.25 22.9648H14.1074V22.9424C13.9228 22.9424 13.7837 22.896 13.6914 22.8037C13.5992 22.7115 13.5538 22.573 13.5537 22.3887V19.3994C13.5537 19.215 13.5993 19.0767 13.6914 18.9844C13.7837 18.8921 13.9228 18.8457 14.1074 18.8457H15.25ZM14.6152 22.0654H15.1914C15.3991 22.0654 15.5726 22.0421 15.7227 21.9844C15.8727 21.9267 15.9995 21.857 16.0918 21.7646C16.1956 21.6723 16.2654 21.5454 16.3115 21.3955C16.3576 21.2456 16.3808 21.0727 16.3809 20.8652C16.3809 20.4614 16.2762 20.1612 16.0801 19.9766C15.884 19.7805 15.5843 19.6885 15.1807 19.6885H14.6152V22.0654Z" fill="#10100F"/>
<path d="M15.6006 1.00195C16.1824 1.01614 16.7311 1.28175 17.1006 1.7334L20.5098 5.90039H16C15.7793 5.90018 15.6006 5.72078 15.6006 5.5V1.00195Z" fill="#10100F"/>
</svg>
