<svg width="24" height="24" viewBox="0 0 24 24" fill="none" xmlns="http://www.w3.org/2000/svg">
<path d="M15.1274 17.3623C15.4468 17.3624 15.7627 17.6773 15.7388 18.0879C15.6885 18.9438 15.7117 20.1141 16.0864 21.0938C16.2768 21.5914 16.5698 22.0706 17.019 22.4258C17.4764 22.7873 18.0545 22.9873 18.7495 22.9873H5.81201C3.92755 22.9871 2.39995 21.4597 2.3999 19.5752V17.8877C2.3999 17.7046 2.42808 17.5279 2.48096 17.3623H15.1274Z" fill="#10100F"/>
<path fill-rule="evenodd" clip-rule="evenodd" d="M16.9995 1.0127C19.5399 1.0127 21.5999 3.07197 21.6001 5.6123V20.1377C21.6001 20.7536 21.4021 21.3221 21.0698 21.7881H18.7495C18.2974 21.7881 17.9883 21.6623 17.7632 21.4844C17.5301 21.3001 17.3453 21.0252 17.2075 20.665C16.9259 19.9289 16.8896 18.9668 16.937 18.1582C16.9959 17.1519 16.2275 16.1632 15.1274 16.1631H3.5249V5.6123C3.52511 3.0721 5.58431 1.01291 8.12451 1.0127H16.9995ZM8.4751 6.41504C8.44351 6.41632 8.41169 6.41748 8.38037 6.42383C8.37168 6.42558 8.36353 6.42951 8.35498 6.43164C8.32613 6.43884 8.29701 6.44633 8.26904 6.45801C8.16024 6.50336 8.0677 6.58029 8.00244 6.67676L7.99854 6.68262C7.99059 6.69471 7.98504 6.70814 7.97803 6.7207C7.96638 6.74149 7.95398 6.76196 7.94482 6.78418C7.91547 6.8557 7.90035 6.93246 7.8999 7.00977V11.2852C7.8999 11.6164 8.16835 11.8855 8.49951 11.8857C8.83088 11.8857 9.1001 11.6165 9.1001 11.2852V8.99414L10.8491 11.6182C10.8835 11.6697 10.9265 11.7119 10.9722 11.749C10.9869 11.761 11.0003 11.7746 11.0161 11.7852C11.1147 11.8507 11.2302 11.8844 11.3472 11.8848L11.3491 11.8857C11.3597 11.8857 11.37 11.8824 11.3804 11.8818C11.4088 11.8803 11.4371 11.8786 11.4653 11.873C11.4825 11.8697 11.4986 11.8632 11.5151 11.8584C11.5363 11.8522 11.558 11.8475 11.5786 11.8389C11.7959 11.7487 11.9487 11.5351 11.9487 11.2852V7.0127C11.9487 6.68133 11.6805 6.41309 11.3491 6.41309C11.0177 6.41309 10.7495 6.68132 10.7495 7.0127V9.30469L8.99951 6.67969C8.96435 6.62694 8.92051 6.58352 8.87354 6.5459C8.85947 6.53462 8.84661 6.52171 8.83154 6.51172C8.82488 6.50731 8.81687 6.5051 8.81006 6.50098C8.78173 6.48377 8.75234 6.46845 8.72119 6.45605C8.65178 6.42854 8.57811 6.41358 8.50342 6.41309H8.49951C8.49131 6.41309 8.48322 6.41471 8.4751 6.41504ZM14.1978 6.41309C13.8664 6.41309 13.5981 6.68132 13.5981 7.0127V11.2852C13.5981 11.6165 13.8664 11.8857 14.1978 11.8857C14.5291 11.8857 14.7974 11.6165 14.7974 11.2852V10.4609H15.6216C15.9529 10.4609 16.2221 10.1926 16.2222 9.86133C16.2222 9.52996 15.953 9.26074 15.6216 9.26074H14.7974V7.6123H16.3345C16.6656 7.61208 16.9341 7.34391 16.9341 7.0127C16.9341 6.68146 16.6657 6.41331 16.3345 6.41309H14.1978Z" fill="#10100F"/>
</svg>
