<svg width="24" height="24" viewBox="0 0 24 24" fill="none" xmlns="http://www.w3.org/2000/svg">
<path fill-rule="evenodd" clip-rule="evenodd" d="M17 1C19.2091 1 21 2.79086 21 5V15.9004H16.5C15.6165 15.9006 14.9004 16.6165 14.9004 17.5V23H7L6.79395 22.9951C4.68056 22.8879 3 21.14 3 19V5C3 2.79086 4.79086 1 7 1H17ZM12 5C11.6689 5.00021 11.4006 5.26855 11.4004 5.59961V6.66895C10.1689 6.69238 9.17773 7.69648 9.17773 8.93359C9.17773 10.1854 10.1925 11.2002 11.4443 11.2002H12.5557C13.1445 11.2003 13.622 11.6777 13.6221 12.2666C13.6221 12.8556 13.1446 13.3329 12.5557 13.333H10.8887C10.6921 13.333 10.5032 13.2552 10.3643 13.1162L10.2021 12.9531C9.96791 12.7191 9.5878 12.7191 9.35352 12.9531C9.11926 13.1874 9.11936 13.5674 9.35352 13.8018L9.5166 13.9648C9.88059 14.3287 10.374 14.5332 10.8887 14.5332H11.4004V15.5996C11.4004 15.9309 11.6688 16.199 12 16.1992C12.3314 16.1992 12.6006 15.931 12.6006 15.5996V14.5303C13.8315 14.5062 14.8223 13.5033 14.8223 12.2666C14.8222 11.015 13.8073 10.0001 12.5557 10H11.4443C10.8553 10 10.3779 9.52266 10.3779 8.93359C10.3779 8.34453 10.8553 7.86719 11.4443 7.86719H12.8809C13.2248 7.8672 13.5547 8.0039 13.7979 8.24707C14.0322 8.48118 14.4122 8.48129 14.6465 8.24707C14.8807 8.01282 14.8806 7.63277 14.6465 7.39844C14.1783 6.93022 13.543 6.667 12.8809 6.66699H12.6006V5.59961C12.6004 5.26842 12.3312 5 12 5Z" fill="#10100F"/>
<path d="M20.9746 17.0996C20.9193 17.4477 20.7733 17.7771 20.5479 18.0527L17.1006 22.2666C16.8397 22.5855 16.4887 22.8091 16.1006 22.9199V17.5C16.1006 17.2792 16.2793 17.0998 16.5 17.0996H20.9746Z" fill="#10100F"/>
</svg>
