<svg width="24" height="24" viewBox="0 0 24 24" fill="none" xmlns="http://www.w3.org/2000/svg">
<path d="M14.5752 6.5752C14.8095 6.34103 15.1895 6.3411 15.4238 6.5752C15.6581 6.80948 15.6581 7.18951 15.4238 7.42383L12.8232 10.0234L15.4238 12.625C15.6581 12.8593 15.6581 13.2393 15.4238 13.4736C15.1896 13.7077 14.8104 13.7077 14.5762 13.4736L11.9746 10.8721L9.37402 13.4736C9.13969 13.7078 8.75964 13.7079 8.52539 13.4736C8.29133 13.2394 8.29133 12.8593 8.52539 12.625L11.126 10.0234L8.52637 7.42383C8.29214 7.18951 8.29208 6.80948 8.52637 6.5752C8.76068 6.34121 9.14078 6.34107 9.375 6.5752L11.9746 9.1748L14.5752 6.5752Z" fill="#10100F"/>
<path fill-rule="evenodd" clip-rule="evenodd" d="M17 1C19.2091 1 21 2.79086 21 5V16.7861C21 17.2478 20.8402 17.6954 20.5479 18.0527L17.1006 22.2666C16.7207 22.7309 16.1516 23 15.5518 23H7C4.79086 23 3 21.2091 3 19V5C3 2.79086 4.79086 1 7 1H17ZM7 2.2002C5.4536 2.2002 4.2002 3.4536 4.2002 5V19C4.2002 20.5464 5.4536 21.7998 7 21.7998H14.9004V17.5C14.9004 16.6165 15.6165 15.8996 16.5 15.8994H19.7998V5C19.7998 3.4536 18.5464 2.2002 17 2.2002H7ZM16.5 17.0996C16.2793 17.0998 16.1006 17.2792 16.1006 17.5V21.5811C16.1254 21.5576 16.15 21.5336 16.1719 21.5068L19.6191 17.293C19.6671 17.2343 19.704 17.1683 19.7334 17.0996H16.5Z" fill="#10100F"/>
</svg>
