<svg width="24" height="24" viewBox="0 0 24 24" fill="none" xmlns="http://www.w3.org/2000/svg">
<path d="M7.5 10.4004C7.83137 10.4004 8.10059 10.6686 8.10059 11V16.5C8.10053 16.8313 7.83134 17.0996 7.5 17.0996C7.16884 17.0994 6.90044 16.8312 6.90039 16.5V11C6.90039 10.6688 7.16881 10.4006 7.5 10.4004Z" fill="#10100F"/>
<path d="M10.5 4.90039C10.8314 4.90039 11.1006 5.16863 11.1006 5.5V16.5C11.1005 16.8313 10.8313 17.0996 10.5 17.0996C10.1688 17.0994 9.90044 16.8312 9.90039 16.5V5.5C9.90039 5.16876 10.1688 4.9006 10.5 4.90039Z" fill="#10100F"/>
<path d="M13.5 6.90039C13.8314 6.90039 14.1006 7.16863 14.1006 7.5V14.5C14.1005 14.8313 13.8313 15.0996 13.5 15.0996C13.1688 15.0994 12.9004 14.8312 12.9004 14.5V7.5C12.9004 7.16876 13.1688 6.9006 13.5 6.90039Z" fill="#10100F"/>
<path d="M16.5 8.40039C16.8314 8.40039 17.1006 8.66863 17.1006 9V12.5C17.1005 12.8313 16.8313 13.0996 16.5 13.0996C16.1688 13.0994 15.9004 12.8312 15.9004 12.5V9C15.9004 8.66876 16.1688 8.4006 16.5 8.40039Z" fill="#10100F"/>
<path fill-rule="evenodd" clip-rule="evenodd" d="M17 1C19.2091 1 21 2.79086 21 5V16.7861C21 17.2478 20.8402 17.6954 20.5479 18.0527L17.1006 22.2666C16.7207 22.7309 16.1516 23 15.5518 23H7C4.79086 23 3 21.2091 3 19V5C3 2.79086 4.79086 1 7 1H17ZM7 2.2002C5.4536 2.2002 4.2002 3.4536 4.2002 5V19C4.2002 20.5464 5.4536 21.7998 7 21.7998H14.9004V17.5C14.9004 16.6163 15.6163 15.9004 16.5 15.9004H19.7998V5C19.7998 3.4536 18.5464 2.2002 17 2.2002H7ZM16.5 17.0996C16.2791 17.0996 16.0996 17.2791 16.0996 17.5V21.582C16.1248 21.5584 16.1497 21.5339 16.1719 21.5068L19.6191 17.293C19.6671 17.2343 19.704 17.1683 19.7334 17.0996H16.5Z" fill="#10100F"/>
</svg>
