<svg width="24" height="24" viewBox="0 0 24 24" fill="none" xmlns="http://www.w3.org/2000/svg">
<path d="M13.0352 8.57715C13.2689 8.34224 13.6489 8.3405 13.8838 8.57422C14.1186 8.80786 14.1192 9.18794 13.8857 9.42285L11.9258 11.3936C11.8134 11.5065 11.6603 11.5701 11.501 11.5703C11.3417 11.5705 11.1888 11.507 11.0762 11.3945L10.0859 10.4043C9.85162 10.17 9.85162 9.78998 10.0859 9.55566C10.3203 9.32136 10.7003 9.32135 10.9346 9.55566L11.499 10.1201L13.0352 8.57715Z" fill="#10100F"/>
<path fill-rule="evenodd" clip-rule="evenodd" d="M12 5C12.6738 5 13.2621 5.36657 13.5762 5.91113C13.6163 5.98078 13.6997 6.01494 13.7773 5.99414C14.3842 5.83169 15.059 5.98873 15.5352 6.46484C16.0113 6.94096 16.1683 7.61584 16.0059 8.22266C15.9851 8.30021 16.0194 8.38267 16.0889 8.42285C16.6334 8.73686 16.9998 9.32536 17 9.99902C17 10.673 16.6336 11.2621 16.0889 11.5762C16.0193 11.6163 15.9843 11.6988 16.0049 11.7764C16.1679 12.3836 16.0117 13.0596 15.5352 13.5361C15.059 14.0122 14.3842 14.1684 13.7773 14.0059C13.6998 13.9851 13.6164 14.0195 13.5762 14.0889C13.262 14.6332 12.6737 15 12 15C11.3265 14.9999 10.738 14.634 10.4238 14.0898C10.3837 14.0203 10.3012 13.9852 10.2236 14.0059C9.6163 14.1691 8.94051 14.0128 8.46387 13.5361C7.98717 13.0594 7.83071 12.3838 7.99414 11.7764C8.01499 11.6988 7.98068 11.6154 7.91113 11.5752C7.36673 11.2611 7 10.6727 7 9.99902C7.00015 9.32577 7.36621 8.73798 7.91016 8.42383C7.97976 8.38364 8.01398 8.30029 7.99316 8.22266C7.83053 7.61574 7.9877 6.9411 8.46387 6.46484C8.94033 5.98838 9.6155 5.83117 10.2227 5.99414C10.3003 6.01501 10.3836 5.98082 10.4238 5.91113C10.7379 5.36654 11.3262 5.00005 12 5ZM12 6.2002C11.7725 6.20025 11.5724 6.32254 11.4639 6.51074C11.1522 7.05127 10.5147 7.31501 9.91211 7.15332C9.70215 7.09691 9.47346 7.15252 9.3125 7.31348C9.15172 7.47435 9.09609 7.70229 9.15234 7.91211C9.31384 8.5143 9.05058 9.15102 8.51074 9.46289C8.32271 9.57146 8.20035 9.77172 8.2002 9.99902C8.2002 10.2266 8.32252 10.4275 8.51074 10.5361C9.05116 10.8481 9.3144 11.4853 9.15234 12.0879C9.09584 12.2979 9.15152 12.5265 9.3125 12.6875C9.47348 12.8485 9.70213 12.9041 9.91211 12.8477C10.5146 12.6858 11.152 12.9489 11.4639 13.4893C11.5725 13.6774 11.7725 13.7998 12 13.7998C12.2275 13.7998 12.4285 13.6775 12.5371 13.4893C12.8489 12.9494 13.4857 12.6853 14.0879 12.8467C14.2976 12.9028 14.5257 12.8482 14.6865 12.6875L14.7422 12.624C14.8598 12.4697 14.895 12.2716 14.8457 12.0879C14.684 11.4852 14.9486 10.8478 15.4893 10.5361C15.6776 10.4276 15.7998 10.2266 15.7998 9.99902C15.7997 9.77161 15.6774 9.57141 15.4893 9.46289C14.9491 9.15135 14.6855 8.51448 14.8467 7.91211C14.9027 7.70236 14.8473 7.47423 14.6865 7.31348C14.5258 7.15274 14.2976 7.09725 14.0879 7.15332C13.4854 7.31468 12.8487 7.051 12.5371 6.51074C12.4285 6.32242 12.2276 6.2002 12 6.2002Z" fill="#10100F"/>
<path fill-rule="evenodd" clip-rule="evenodd" d="M17 1C19.2091 1 21 2.79086 21 5V16.7861C21 17.2478 20.8402 17.6954 20.5479 18.0527L17.1006 22.2666C16.7207 22.7309 16.1516 23 15.5518 23H7C4.79086 23 3 21.2091 3 19V5C3 2.79086 4.79086 1 7 1H17ZM7 2.2002C5.4536 2.2002 4.2002 3.4536 4.2002 5V19C4.2002 20.5464 5.4536 21.7998 7 21.7998H14.9004V17.5C14.9004 16.6165 15.6165 15.8996 16.5 15.8994H19.7998V5C19.7998 3.4536 18.5464 2.2002 17 2.2002H7ZM16.5 17.0996C16.2793 17.0998 16.1006 17.2792 16.1006 17.5V21.5811C16.1254 21.5576 16.15 21.5336 16.1719 21.5068L19.6191 17.293C19.6671 17.2343 19.704 17.1683 19.7334 17.0996H16.5Z" fill="#10100F"/>
</svg>
