<svg width="24" height="24" viewBox="0 0 24 24" fill="none" xmlns="http://www.w3.org/2000/svg">
<path d="M12 15.9004C12.3314 15.9004 12.6006 16.1686 12.6006 16.5C12.6005 16.8313 12.3313 17.0996 12 17.0996H8C7.66884 17.0994 7.40044 16.8312 7.40039 16.5C7.40039 16.1688 7.66881 15.9006 8 15.9004H12Z" fill="#10100F"/>
<path d="M16 12.9004C16.3314 12.9004 16.6006 13.1686 16.6006 13.5C16.6005 13.8313 16.3313 14.0996 16 14.0996H8C7.66884 14.0994 7.40044 13.8312 7.40039 13.5C7.40039 13.1688 7.66881 12.9006 8 12.9004H16Z" fill="#10100F"/>
<path d="M16 9.90039C16.3314 9.90039 16.6006 10.1686 16.6006 10.5C16.6005 10.8313 16.3313 11.0996 16 11.0996H8C7.66884 11.0994 7.40044 10.8312 7.40039 10.5C7.40039 10.1688 7.66881 9.9006 8 9.90039H16Z" fill="#10100F"/>
<path d="M16 6.90039C16.3314 6.90039 16.6006 7.16863 16.6006 7.5C16.6005 7.83133 16.3313 8.09961 16 8.09961H8C7.66884 8.0994 7.40044 7.8312 7.40039 7.5C7.40039 7.16876 7.66881 6.9006 8 6.90039H16Z" fill="#10100F"/>
<path fill-rule="evenodd" clip-rule="evenodd" d="M17 1C19.2091 1 21 2.79086 21 5V16.7861C21 17.2478 20.8402 17.6954 20.5479 18.0527L17.1006 22.2666C16.7207 22.7309 16.1516 23 15.5518 23H7C4.79086 23 3 21.2091 3 19V5C3 2.79086 4.79086 1 7 1H17ZM7 2.2002C5.4536 2.2002 4.2002 3.4536 4.2002 5V19C4.2002 20.5464 5.4536 21.7998 7 21.7998H14.9004V17.5C14.9004 16.6163 15.6163 15.9004 16.5 15.9004H19.7998V5C19.7998 3.4536 18.5464 2.2002 17 2.2002H7ZM16.5 17.0996C16.2791 17.0996 16.0996 17.2791 16.0996 17.5V21.582C16.1248 21.5584 16.1497 21.5339 16.1719 21.5068L19.6191 17.293C19.6671 17.2343 19.704 17.1683 19.7334 17.0996H16.5Z" fill="#10100F"/>
</svg>
