<svg width="24" height="24" viewBox="0 0 24 24" fill="none" xmlns="http://www.w3.org/2000/svg">
<path d="M12 5C12.3312 5 12.6004 5.26842 12.6006 5.59961V6.66699H12.8809C13.543 6.667 14.1783 6.93022 14.6465 7.39844C14.8806 7.63277 14.8807 8.01282 14.6465 8.24707C14.4122 8.48129 14.0322 8.48118 13.7979 8.24707C13.5547 8.0039 13.2248 7.8672 12.8809 7.86719H11.4443C10.8553 7.86719 10.3779 8.34453 10.3779 8.93359C10.3779 9.52266 10.8553 10 11.4443 10H12.5557C13.8073 10.0001 14.8222 11.015 14.8223 12.2666C14.8223 13.5033 13.8315 14.5062 12.6006 14.5303V15.5996C12.6006 15.931 12.3314 16.1992 12 16.1992C11.6688 16.199 11.4004 15.9309 11.4004 15.5996V14.5332H10.8887C10.374 14.5332 9.88059 14.3287 9.5166 13.9648L9.35352 13.8018C9.11936 13.5674 9.11926 13.1874 9.35352 12.9531C9.5878 12.7191 9.96791 12.7191 10.2021 12.9531L10.3643 13.1162C10.5032 13.2552 10.6921 13.333 10.8887 13.333H12.5557C13.1446 13.3329 13.6221 12.8556 13.6221 12.2666C13.622 11.6777 13.1445 11.2003 12.5557 11.2002H11.4443C10.1925 11.2002 9.17773 10.1854 9.17773 8.93359C9.17773 7.69648 10.1689 6.69238 11.4004 6.66895V5.59961C11.4006 5.26855 11.6689 5.00021 12 5Z" fill="#10100F"/>
<path fill-rule="evenodd" clip-rule="evenodd" d="M17 1C19.2091 1 21 2.79086 21 5V16.7861C21 17.2478 20.8402 17.6954 20.5479 18.0527L17.1006 22.2666C16.7207 22.7309 16.1516 23 15.5518 23H7C4.79086 23 3 21.2091 3 19V5C3 2.79086 4.79086 1 7 1H17ZM7 2.2002C5.4536 2.2002 4.2002 3.4536 4.2002 5V19C4.2002 20.5464 5.4536 21.7998 7 21.7998H14.9004V17.5C14.9004 16.6163 15.6163 15.9004 16.5 15.9004H19.7998V5C19.7998 3.4536 18.5464 2.2002 17 2.2002H7ZM16.5 17.0996C16.2791 17.0996 16.0996 17.2791 16.0996 17.5V21.582C16.1248 21.5584 16.1497 21.5339 16.1719 21.5068L19.6191 17.293C19.6671 17.2343 19.704 17.1683 19.7334 17.0996H16.5Z" fill="#10100F"/>
</svg>
