<svg width="24" height="24" viewBox="0 0 24 24" fill="none" xmlns="http://www.w3.org/2000/svg">
<path fill-rule="evenodd" clip-rule="evenodd" d="M17 1C19.2091 1 21 2.79086 21 5V15.8994H16.5C15.6165 15.8996 14.9004 16.6165 14.9004 17.5V23H7L6.79395 22.9951C4.68056 22.8879 3 21.14 3 19V5C3 2.79086 4.79086 1 7 1H17ZM15.4238 6.5752C15.1895 6.3411 14.8095 6.34103 14.5752 6.5752L11.9746 9.1748L9.375 6.5752C9.14078 6.34107 8.76068 6.34121 8.52637 6.5752C8.29208 6.80948 8.29214 7.18951 8.52637 7.42383L11.126 10.0234L8.52539 12.625C8.29133 12.8593 8.29133 13.2394 8.52539 13.4736C8.75964 13.7079 9.13969 13.7078 9.37402 13.4736L11.9746 10.8721L14.5762 13.4736C14.8104 13.7077 15.1896 13.7077 15.4238 13.4736C15.6581 13.2393 15.6581 12.8593 15.4238 12.625L12.8232 10.0234L15.4238 7.42383C15.6581 7.18951 15.6581 6.80948 15.4238 6.5752Z" fill="#10100F"/>
<path d="M20.9746 17.0996C20.9193 17.4477 20.7733 17.7771 20.5479 18.0527L17.1006 22.2666C16.8397 22.5855 16.4887 22.8091 16.1006 22.9199V17.5C16.1006 17.2792 16.2793 17.0998 16.5 17.0996H20.9746Z" fill="#10100F"/>
</svg>
