<svg width="24" height="24" viewBox="0 0 24 24" fill="none" xmlns="http://www.w3.org/2000/svg">
<path fill-rule="evenodd" clip-rule="evenodd" d="M15.5518 1C16.1516 1 16.7207 1.26913 17.1006 1.7334L20.5479 5.94727C20.8402 6.30457 21 6.7522 21 7.21387V16.4004C20.9998 16.7315 20.7315 16.9998 20.4004 17C20.0691 17 19.8 16.7316 19.7998 16.4004V7.21387C19.7998 7.17536 19.7955 7.13735 19.79 7.09961H16C15.1167 7.0994 14.4006 6.38335 14.4004 5.5V2.2002H7C5.4536 2.2002 4.2002 3.4536 4.2002 5V19C4.2002 20.5464 5.4536 21.7998 7 21.7998H10.4004C10.7316 21.8 11 22.0691 11 22.4004C10.9998 22.7315 10.7315 22.9998 10.4004 23H7C4.79086 23 3 21.2091 3 19V5C3 2.79086 4.79086 1 7 1H15.5518ZM15.6006 5.5C15.6008 5.7206 15.7794 5.8992 16 5.89941H18.958L16.1719 2.49316C16.0302 2.31999 15.8225 2.21558 15.6006 2.20215V5.5Z" fill="#10100F"/>
<path d="M16.251 18.6846C16.4385 18.6856 16.5795 18.7448 16.6855 18.8389C16.7926 18.934 16.8408 19.0891 16.8408 19.2793V22.3945C16.8408 22.5727 16.7932 22.7036 16.6982 22.8105C16.6031 22.9175 16.4719 22.9648 16.3174 22.9648C16.163 22.9648 16.0443 22.9411 15.9492 22.8818C15.866 22.8224 15.7701 22.7392 15.6631 22.6084L14.1895 20.8252V22.3701C14.1895 22.5604 14.1293 22.7035 14.0342 22.8105C13.9391 22.9174 13.7848 22.9648 13.5947 22.9648C13.4045 22.9648 13.2494 22.9176 13.1543 22.8105C13.0474 22.7154 13 22.5603 13 22.3701V19.3145C13.0001 19.1125 13.0592 18.9575 13.1543 18.8506C13.2494 18.7437 13.3923 18.6846 13.5586 18.6846C13.7011 18.6846 13.8201 18.7083 13.9033 18.7676C13.9984 18.827 14.0824 18.9102 14.1895 19.041L15.6631 20.8252V19.2793C15.6631 19.0891 15.7232 18.9459 15.8184 18.8389C15.9124 18.7334 16.0641 18.6857 16.251 18.6846Z" fill="#10100F"/>
<path d="M20.3945 18.7432C20.5609 18.7432 20.6922 18.8142 20.7754 18.8975C20.8586 18.9807 20.8936 19.1004 20.8936 19.2549C20.8935 19.4092 20.8584 19.5282 20.7754 19.6113C20.6922 19.6946 20.5727 19.7305 20.4062 19.7305H19.0986V20.3838H20.2637C20.43 20.3838 20.5486 20.4198 20.6318 20.5029C20.715 20.5861 20.7509 20.7049 20.751 20.8594C20.751 21.0139 20.7151 21.1336 20.6318 21.2168C20.5486 21.2997 20.4298 21.335 20.2637 21.335H19.0986V22.3105C19.0985 22.7502 18.8838 22.9639 18.4678 22.9639C18.2659 22.9638 18.0991 22.9048 17.9922 22.7979C17.8853 22.6909 17.8262 22.5243 17.8262 22.3105V19.3975C17.8262 19.1834 17.8852 19.0162 17.9922 18.9092C18.0992 18.8022 18.2664 18.7432 18.4805 18.7432H20.3945Z" fill="#10100F"/>
</svg>
