<svg width="24" height="24" viewBox="0 0 24 24" fill="none" xmlns="http://www.w3.org/2000/svg">
<path fill-rule="evenodd" clip-rule="evenodd" d="M17 1C19.2091 1 21 2.79086 21 5V15.8994H16.5C15.6165 15.8996 14.9004 16.6165 14.9004 17.5V23H7L6.79395 22.9951C4.68056 22.8879 3 21.14 3 19V5C3 2.79086 4.79086 1 7 1H17ZM8 15.9004C7.66881 15.9006 7.40039 16.1688 7.40039 16.5C7.40044 16.8312 7.66884 17.0994 8 17.0996H12C12.3313 17.0996 12.6005 16.8313 12.6006 16.5C12.6006 16.1686 12.3314 15.9004 12 15.9004H8ZM8 12.9004C7.66881 12.9006 7.40039 13.1688 7.40039 13.5C7.40044 13.8312 7.66884 14.0994 8 14.0996H16C16.3313 14.0996 16.6005 13.8313 16.6006 13.5C16.6006 13.1686 16.3314 12.9004 16 12.9004H8ZM8 9.90039C7.66881 9.9006 7.40039 10.1688 7.40039 10.5C7.40044 10.8312 7.66884 11.0994 8 11.0996H16C16.3313 11.0996 16.6005 10.8313 16.6006 10.5C16.6006 10.1686 16.3314 9.90039 16 9.90039H8ZM8 6.90039C7.66881 6.9006 7.40039 7.16876 7.40039 7.5C7.40044 7.8312 7.66884 8.0994 8 8.09961H16C16.3313 8.09961 16.6005 7.83133 16.6006 7.5C16.6006 7.16863 16.3314 6.90039 16 6.90039H8Z" fill="#10100F"/>
<path d="M20.9746 17.0996C20.9193 17.4477 20.7733 17.7771 20.5479 18.0527L17.1006 22.2666C16.8397 22.5855 16.4887 22.8091 16.1006 22.9199V17.5C16.1006 17.2792 16.2793 17.0998 16.5 17.0996H20.9746Z" fill="#10100F"/>
</svg>
