<svg width="24" height="24" viewBox="0 0 24 24" fill="none" xmlns="http://www.w3.org/2000/svg">
<path d="M12.9629 6.29102C14.3267 6.60093 15.4001 7.67427 15.71 9.03809H12.9629V6.29102Z" fill="#10100F"/>
<path fill-rule="evenodd" clip-rule="evenodd" d="M17 1C19.2091 1 21 2.79086 21 5V15.9004H16.5C15.6165 15.9006 14.9004 16.6165 14.9004 17.5V23H7L6.79395 22.9951C4.68056 22.8879 3 21.14 3 19V5C3 2.79086 4.79086 1 7 1H17ZM11 6.26172C10.9999 5.88245 10.6578 5.59146 10.2969 5.70801C8.38389 6.32586 7 8.12059 7 10.2393C7.00034 12.8688 9.13208 15.0009 11.7617 15.001C13.8201 15.001 15.5726 13.6939 16.2373 11.8652C16.3698 11.4997 16.0754 11.1437 15.6865 11.1436C15.4047 11.1436 15.1632 11.3362 15.0557 11.5967C14.5217 12.8901 13.248 13.8008 11.7617 13.8008C9.79483 13.8007 8.20053 12.2061 8.2002 10.2393C8.2002 8.70751 9.16675 7.40059 10.5234 6.89746C10.7951 6.79672 11 6.5515 11 6.26172ZM12.1504 5C11.9363 5.00017 11.7629 5.17365 11.7627 5.3877V9.28613C11.7629 9.81185 12.1891 10.2382 12.7148 10.2383H16.6123C16.8266 10.2383 17.001 10.0639 17.001 9.84961C17.0007 7.1712 14.8289 5 12.1504 5Z" fill="#10100F"/>
<path d="M20.9746 17.0996C20.9193 17.4477 20.7733 17.7771 20.5479 18.0527L17.1006 22.2666C16.8397 22.5855 16.4887 22.8091 16.1006 22.9199V17.5C16.1006 17.2792 16.2793 17.0998 16.5 17.0996H20.9746Z" fill="#10100F"/>
</svg>
