<svg width="24" height="24" viewBox="0 0 24 24" fill="none" xmlns="http://www.w3.org/2000/svg">
<path d="M12.0547 5.40332C12.0748 5.40516 12.0944 5.41019 12.1143 5.41406C12.1332 5.41775 12.1524 5.42027 12.1709 5.42578C12.1849 5.42995 12.1982 5.4362 12.2119 5.44141C12.2354 5.45032 12.2589 5.45975 12.2812 5.47168C12.2937 5.47833 12.3053 5.48656 12.3174 5.49414C12.3382 5.50722 12.3586 5.52127 12.3779 5.53711C12.3815 5.53996 12.3862 5.54193 12.3896 5.54492L15.8896 8.54492C16.1409 8.76061 16.1706 9.13914 15.9551 9.39062C15.7394 9.64187 15.3599 9.67141 15.1084 9.45605L12.5996 7.30469V14C12.5993 14.3311 12.3302 14.6006 11.999 14.6006C11.668 14.6004 11.3997 14.331 11.3994 14V7.30469L8.88965 9.45605C8.63817 9.67108 8.25949 9.64168 8.04395 9.39062C7.82838 9.1391 7.85801 8.7606 8.10938 8.54492L11.6094 5.54492C11.6125 5.54228 11.616 5.53967 11.6191 5.53711C11.6386 5.52108 11.6597 5.50736 11.6807 5.49414C11.6927 5.48656 11.7044 5.47833 11.7168 5.47168C11.7392 5.45973 11.7627 5.45034 11.7861 5.44141C11.7998 5.43619 11.8132 5.42996 11.8271 5.42578C11.8463 5.42005 11.8662 5.41687 11.8857 5.41309C11.9046 5.40946 11.9233 5.40513 11.9424 5.40332C11.9459 5.40298 11.9496 5.40262 11.9531 5.40234H12.0449C12.0482 5.40259 12.0514 5.40302 12.0547 5.40332Z" fill="#10100F"/>
<path fill-rule="evenodd" clip-rule="evenodd" d="M17 1C19.2091 1 21 2.79086 21 5V16.7861C21 17.2478 20.8402 17.6954 20.5479 18.0527L17.1006 22.2666C16.7207 22.7309 16.1516 23 15.5518 23H7C4.79086 23 3 21.2091 3 19V5C3 2.79086 4.79086 1 7 1H17ZM7 2.2002C5.4536 2.2002 4.2002 3.4536 4.2002 5V19C4.2002 20.5464 5.4536 21.7998 7 21.7998H14.9004V17.5C14.9004 16.6165 15.6165 15.8996 16.5 15.8994H19.7998V5C19.7998 3.4536 18.5464 2.2002 17 2.2002H7ZM16.5 17.0996C16.2793 17.0998 16.1006 17.2792 16.1006 17.5V21.5811C16.1254 21.5576 16.15 21.5336 16.1719 21.5068L19.6191 17.293C19.6671 17.2343 19.704 17.1683 19.7334 17.0996H16.5Z" fill="#10100F"/>
</svg>
