<svg width="24" height="24" viewBox="0 0 24 24" fill="none" xmlns="http://www.w3.org/2000/svg">
<path d="M11.3994 11.2666V12.4004H7.59961V11.2666H11.3994Z" fill="#10100F"/>
<path d="M16.3994 11.2666V12.4004H12.5996V11.2666H16.3994Z" fill="#10100F"/>
<path d="M11.3994 8.93359V10.0674H7.59961V8.93359H11.3994Z" fill="#10100F"/>
<path d="M16.3994 8.93359V10.0674H12.5996V8.93359H16.3994Z" fill="#10100F"/>
<path d="M16.3994 7.7334H7.59961V6.60059H16.3994V7.7334Z" fill="#10100F"/>
<path fill-rule="evenodd" clip-rule="evenodd" d="M17 1C19.2091 1 21 2.79086 21 5V15.9004H16.5C15.6165 15.9006 14.9004 16.6165 14.9004 17.5V23H7L6.79395 22.9951C4.68056 22.8879 3 21.14 3 19V5C3 2.79086 4.79086 1 7 1H17ZM7.19922 5.40039C6.75754 5.4005 6.39952 5.75852 6.39941 6.2002V13C6.39941 13.3312 6.66783 13.6004 6.99902 13.6006H16.7998C17.2413 13.6004 17.5994 13.2423 17.5996 12.8008V6.2002C17.5995 5.75859 17.2414 5.4006 16.7998 5.40039H7.19922Z" fill="#10100F"/>
<path d="M20.9746 17.0996C20.9193 17.4477 20.7733 17.7771 20.5479 18.0527L17.1006 22.2666C16.8397 22.5855 16.4887 22.8091 16.1006 22.9199V17.5C16.1006 17.2792 16.2793 17.0998 16.5 17.0996H20.9746Z" fill="#10100F"/>
</svg>
