<svg width="24" height="24" viewBox="0 0 24 24" fill="none" xmlns="http://www.w3.org/2000/svg">
<path fill-rule="evenodd" clip-rule="evenodd" d="M19 3.35639H5C4.00589 3.35639 3.2 4.16227 3.2 5.15639V7.18679C3.2 7.74305 3.45718 8.26806 3.8967 8.60902L7.82437 11.6559C8.84991 12.4515 9.45 13.6765 9.45 14.9745V19.8421C9.45 20.3857 9.9805 20.7711 10.4974 20.6029L13.3067 19.6892C14.0481 19.448 14.55 18.7571 14.55 17.9775V14.9745C14.55 13.6765 15.1501 12.4515 16.1756 11.6559L20.1033 8.60902C20.5428 8.26806 20.8 7.74305 20.8 7.18679V5.15639C20.8 4.16227 19.9941 3.35639 19 3.35639ZM5 2.15639H19C20.6569 2.15639 22 3.49953 22 5.15639V7.18679C22 8.11389 21.5714 8.98891 20.8388 9.55717L16.9112 12.6041C16.1786 13.1724 15.75 14.0474 15.75 14.9745V17.9775C15.75 19.2768 14.9135 20.4284 13.6779 20.8303L10.8686 21.7441C9.57626 22.1644 8.25 21.2011 8.25 19.8421V14.9745C8.25 14.0474 7.82136 13.1724 7.08884 12.6041L3.16116 9.55717C2.42864 8.98891 2 8.11389 2 7.18679V5.15639C2 3.49953 3.34315 2.15639 5 2.15639Z" fill="#10100F"/>
</svg>
