<svg width="24" height="24" viewBox="0 0 24 24" fill="none" xmlns="http://www.w3.org/2000/svg">
<path d="M19 2.02641C20.6569 2.02641 22 3.38772 22 5.06645V7.12309C22 8.06233 21.5712 8.94869 20.8389 9.52446L16.9111 12.6124C16.1787 13.1881 15.75 14.0745 15.75 15.0137V18.0567C15.7499 19.3731 14.9133 20.5401 13.6777 20.9473L10.8682 21.8731C9.57598 22.2986 8.25 21.3221 8.25 19.9454V15.0137C8.24999 14.0745 7.82129 13.1881 7.08887 12.6124L3.16113 9.52446C2.42875 8.94869 2 8.06233 2 7.12309V5.06645C2 3.38772 3.34315 2.02641 5 2.02641H19Z" fill="#10100F"/>
</svg>
