<svg width="24" height="24" viewBox="0 0 24 24" fill="none" xmlns="http://www.w3.org/2000/svg">
<path d="M16.2627 13.9736C16.5875 14.0385 16.7981 14.3548 16.7334 14.6797C16.4364 16.1704 15.2447 17.0613 14.6699 17.3369C14.3711 17.4801 14.0124 17.3545 13.8691 17.0557C13.7259 16.7568 13.8526 16.3981 14.1514 16.2549C14.5271 16.0747 15.3594 15.4349 15.5566 14.4453C15.6214 14.1203 15.9377 13.9089 16.2627 13.9736Z" fill="#10100F"/>
<path d="M9.51953 10.6396C10.4048 9.45934 11.6774 9.07952 12.7783 9.50293C13.8616 9.91984 14.5996 11.047 14.5996 12.5C14.5996 12.8314 14.3314 13.0996 14 13.0996C13.6686 13.0996 13.4004 12.8314 13.4004 12.5C13.4004 11.4533 12.8881 10.8303 12.3467 10.6221C11.8226 10.4208 11.095 10.5409 10.4805 11.3604C9.94011 12.0808 9.94916 12.8937 10.2285 13.6885C10.5124 14.496 11.0536 15.2059 11.4238 15.5762C11.6581 15.8105 11.6581 16.1895 11.4238 16.4238C11.1895 16.6581 10.8105 16.6581 10.5762 16.4238C10.1131 15.9607 9.45434 15.1035 9.09668 14.0859C8.73458 13.0556 8.66052 11.785 9.51953 10.6396Z" fill="#10100F"/>
<path d="M8.03906 9.11621C8.25115 8.86171 8.62922 8.8271 8.88379 9.03906C9.13829 9.25115 9.1729 9.62922 8.96094 9.88379C8.07955 10.9415 7.90664 12.0186 8.03223 12.9443C8.16088 13.8926 8.60609 14.6904 8.96094 15.1162C9.1729 15.3708 9.13829 15.7489 8.88379 15.9609C8.62922 16.1729 8.25115 16.1383 8.03906 15.8838C7.56061 15.3096 7.00577 14.307 6.84277 13.1055C6.67676 11.8813 6.92065 10.4584 8.03906 9.11621Z" fill="#10100F"/>
<path d="M11.5 11.4004C11.8314 11.4004 12.0996 11.6686 12.0996 12C12.0996 12.3207 12.2015 12.815 12.4873 13.2119C12.7511 13.5782 13.1957 13.9004 14 13.9004C14.3314 13.9004 14.5996 14.1686 14.5996 14.5C14.5996 14.8314 14.3314 15.0996 14 15.0996C12.8044 15.0996 11.9989 14.5884 11.5127 13.9131C11.0486 13.2684 10.9004 12.5126 10.9004 12C10.9004 11.6686 11.1686 11.4004 11.5 11.4004Z" fill="#10100F"/>
<path d="M11.5488 7.42969C12.2754 7.37716 13.0919 7.46738 13.875 7.76367C15.4792 8.37069 16.8785 9.82009 17.0977 12.4502C17.1252 12.7804 16.88 13.0701 16.5498 13.0977C16.2196 13.1252 15.9299 12.88 15.9023 12.5498C15.7215 10.38 14.621 9.32874 13.4502 8.88574C12.8459 8.65711 12.2059 8.58577 11.6357 8.62695C11.0562 8.66885 10.5967 8.82329 10.333 8.99902C10.0574 9.18279 9.68484 9.10854 9.50098 8.83301C9.31721 8.55736 9.39146 8.18484 9.66699 8.00098C10.1533 7.67679 10.8317 7.48154 11.5488 7.42969Z" fill="#10100F"/>
<path d="M11.1709 5.41211C13.2599 5.13364 15.5943 5.84741 17.4736 8.26367C17.6768 8.52523 17.6296 8.90209 17.3682 9.10547C17.1066 9.30871 16.7297 9.26149 16.5264 9C14.9057 6.91634 12.9901 6.3801 11.3291 6.60156C9.62331 6.82907 8.16463 7.85712 7.51465 8.94043C7.34421 9.2245 6.97552 9.31679 6.69141 9.14648C6.40735 8.97605 6.3151 8.60735 6.48535 8.32324C7.33534 6.9066 9.12678 5.68466 11.1709 5.41211Z" fill="#10100F"/>
<path fill-rule="evenodd" clip-rule="evenodd" d="M12 1C18.0751 1 23 5.92487 23 12C23 18.0751 18.0751 23 12 23C5.92487 23 1 18.0751 1 12C1 5.92487 5.92487 1 12 1ZM12 2.2002C6.58761 2.2002 2.2002 6.58761 2.2002 12C2.2002 17.4124 6.58761 21.7998 12 21.7998C17.4124 21.7998 21.7998 17.4124 21.7998 12C21.7998 6.58761 17.4124 2.2002 12 2.2002Z" fill="#10100F"/>
</svg>
