<svg width="24" height="24" viewBox="0 0 24 24" fill="none" xmlns="http://www.w3.org/2000/svg">
<path fill-rule="evenodd" clip-rule="evenodd" d="M12 1C18.0751 1 23 5.92487 23 12C23 18.0751 18.0751 23 12 23C5.92487 23 1 18.0751 1 12C1 5.92487 5.92487 1 12 1ZM16.2627 13.9736C15.9377 13.9089 15.6214 14.1203 15.5566 14.4453C15.3594 15.4349 14.5271 16.0747 14.1514 16.2549C13.8526 16.3981 13.7259 16.7568 13.8691 17.0557C14.0124 17.3545 14.3711 17.4801 14.6699 17.3369C15.2447 17.0613 16.4364 16.1704 16.7334 14.6797C16.7981 14.3548 16.5875 14.0385 16.2627 13.9736ZM12.7783 9.50293C11.6774 9.07952 10.4048 9.45934 9.51953 10.6396C8.66052 11.785 8.73458 13.0556 9.09668 14.0859C9.45434 15.1035 10.1131 15.9607 10.5762 16.4238C10.8105 16.6581 11.1895 16.6581 11.4238 16.4238C11.6581 16.1895 11.6581 15.8105 11.4238 15.5762C11.0536 15.2059 10.5124 14.496 10.2285 13.6885C9.94916 12.8937 9.94011 12.0808 10.4805 11.3604C11.095 10.5409 11.8226 10.4208 12.3467 10.6221C12.8881 10.8303 13.4004 11.4533 13.4004 12.5C13.4004 12.8314 13.6686 13.0996 14 13.0996C14.3314 13.0996 14.5996 12.8314 14.5996 12.5C14.5996 11.047 13.8616 9.91984 12.7783 9.50293ZM8.88379 9.03906C8.62922 8.8271 8.25115 8.86171 8.03906 9.11621C6.92065 10.4584 6.67676 11.8813 6.84277 13.1055C7.00577 14.307 7.56061 15.3096 8.03906 15.8838C8.25115 16.1383 8.62922 16.1729 8.88379 15.9609C9.13829 15.7489 9.1729 15.3708 8.96094 15.1162C8.60609 14.6904 8.16088 13.8926 8.03223 12.9443C7.90664 12.0186 8.07955 10.9415 8.96094 9.88379C9.1729 9.62922 9.13829 9.25115 8.88379 9.03906ZM11.5 11.4004C11.1686 11.4004 10.9004 11.6686 10.9004 12C10.9004 12.5126 11.0486 13.2684 11.5127 13.9131C11.9989 14.5884 12.8044 15.0996 14 15.0996C14.3314 15.0996 14.5996 14.8314 14.5996 14.5C14.5996 14.1686 14.3314 13.9004 14 13.9004C13.1957 13.9004 12.7511 13.5782 12.4873 13.2119C12.2015 12.815 12.0996 12.3207 12.0996 12C12.0996 11.6686 11.8314 11.4004 11.5 11.4004ZM11.5488 7.42969C10.8317 7.48154 10.1533 7.67679 9.66699 8.00098C9.39146 8.18484 9.31721 8.55737 9.50098 8.83301C9.68484 9.10854 10.0574 9.18278 10.333 8.99902C10.5967 8.82329 11.0562 8.66885 11.6357 8.62695C12.2059 8.58577 12.8459 8.65711 13.4502 8.88574C14.621 9.32874 15.7215 10.38 15.9023 12.5498C15.9299 12.88 16.2196 13.1252 16.5498 13.0977C16.88 13.0701 17.1252 12.7804 17.0977 12.4502C16.8785 9.82009 15.4792 8.37069 13.875 7.76367C13.0919 7.46738 12.2754 7.37716 11.5488 7.42969ZM17.4736 8.26367C15.5943 5.84741 13.2599 5.13364 11.1709 5.41211C9.12678 5.68466 7.33534 6.9066 6.48535 8.32324C6.3151 8.60735 6.40735 8.97605 6.69141 9.14648C6.97552 9.31679 7.3442 9.2245 7.51465 8.94043C8.16463 7.85712 9.62331 6.82907 11.3291 6.60156C12.9901 6.3801 14.9057 6.91635 16.5264 9C16.7297 9.26149 17.1066 9.30871 17.3682 9.10547C17.6296 8.90209 17.6768 8.52523 17.4736 8.26367Z" fill="#10100F"/>
</svg>
