<svg width="24" height="24" viewBox="0 0 24 24" fill="none" xmlns="http://www.w3.org/2000/svg">
<path fill-rule="evenodd" clip-rule="evenodd" d="M8.14882 3C9.28559 3.00001 10.3251 3.64186 10.8334 4.6582L11.2273 5.44727C11.3968 5.78603 11.7436 5.99998 12.1225 6H17.0065C18.922 6.00002 20.5212 7.34567 20.9139 9.14258C22.2479 9.56887 23.1605 10.8994 22.9764 12.3721L22.2254 18.3721C22.0376 19.8732 20.7615 20.9998 19.248 21H5.00141C2.79147 20.9999 1 19.2091 1 17V7C1 4.79093 2.79147 3.00012 5.00141 3H8.14882ZM8.22939 10.2002C7.29298 10.2004 6.51323 10.9178 6.43547 11.8506L5.77215 19.7998H19.248C20.1559 19.7997 20.922 19.1241 21.0348 18.2236L21.7849 12.2236C21.9193 11.1493 21.0812 10.2003 19.9982 10.2002H8.22939ZM5.00141 4.2002C3.45448 4.20031 2.20042 5.45367 2.20042 7V17C2.20042 18.3997 3.22869 19.5533 4.57083 19.7607L5.23863 11.751C5.36824 10.1962 6.66863 9.00016 8.22939 9H19.6195C19.2164 7.94832 18.2005 7.20021 17.0065 7.2002H12.1225C11.2889 7.20017 10.5268 6.72871 10.154 5.9834L9.75923 5.19531C9.45421 4.58551 8.83088 4.20021 8.14882 4.2002H5.00141Z" fill="#10100F"/>
</svg>
