<svg width="24" height="24" viewBox="0 0 24 24" fill="none" xmlns="http://www.w3.org/2000/svg">
<path fill-rule="evenodd" clip-rule="evenodd" d="M5 4.2C3.4536 4.2 2.2 5.4536 2.2 7V17C2.2 18.5464 3.4536 19.8 5 19.8H19C20.5464 19.8 21.8 18.5464 21.8 17V10C21.8 8.4536 20.5464 7.2 19 7.2H12C10.7274 7.2 9.9692 6.18345 9.70167 5.4107C9.45713 4.70439 8.78592 4.2 8 4.2H5ZM1 7C1 4.79086 2.79086 3 5 3H8C9.31297 3 10.4289 3.84347 10.8356 5.01811C11.0163 5.54 11.4477 6 12 6H19C21.2091 6 23 7.79086 23 10V17C23 19.2091 21.2091 21 19 21H5C2.79086 21 1 19.2091 1 17V7Z" fill="#10100F"/>
</svg>
