<svg width="24" height="24" viewBox="0 0 24 24" fill="none" xmlns="http://www.w3.org/2000/svg">
<path d="M20.0478 9C20.3646 9.00003 20.669 9.04967 20.9546 9.13965C20.9561 9.14625 20.9586 9.15257 20.96 9.15918C22.2285 9.58862 23.1073 10.8373 22.9894 12.249L22.4881 18.249C22.3582 19.8039 21.0552 21 19.491 21H5.00955L4.80366 20.9951C4.70473 20.9901 4.60694 20.9798 4.51003 20.9678L5.28079 11.751C5.41068 10.1962 6.7139 9.00019 8.27788 9H20.0478Z" fill="#10100F"/>
<path d="M8.1633 3C9.30235 3 10.3439 3.64199 10.8533 4.6582L11.249 5.44727C11.4188 5.78603 11.7663 6 12.146 6H17.04L17.2459 6.00488C18.5654 6.07153 19.7137 6.77658 20.3943 7.81445C20.2801 7.8052 20.1646 7.79981 20.0478 7.7998H8.27788C6.08825 7.79999 4.26398 9.47466 4.08213 11.6514L3.33197 20.6338C1.95546 20.0001 1 18.6115 1 17V7C1 4.79099 2.7951 3.00021 5.00955 3H8.1633Z" fill="#10100F"/>
</svg>
