<svg width="24" height="24" viewBox="0 0 24 24" fill="none" xmlns="http://www.w3.org/2000/svg">
<path fill-rule="evenodd" clip-rule="evenodd" d="M12 1C18.0751 1 23 5.92487 23 12C23 18.0751 18.0751 23 12 23C5.92487 23 1 18.0751 1 12C1 5.92487 5.92487 1 12 1ZM12 5.90039C11.6686 5.90039 11.3994 6.16863 11.3994 6.5V11.4004H6.5C6.16864 11.4004 5.9004 11.6686 5.90039 12C5.90039 12.3314 6.16863 12.5996 6.5 12.5996H11.3994V17.5C11.3994 17.8314 11.6686 18.0996 12 18.0996C12.3313 18.0996 12.5996 17.8313 12.5996 17.5V12.5996H17.5C17.8313 12.5996 18.0996 12.3313 18.0996 12C18.0996 11.6687 17.8313 11.4004 17.5 11.4004H12.5996V6.5C12.5996 6.16866 12.3313 5.90044 12 5.90039Z" fill="#10100F"/>
</svg>
