<svg width="24" height="24" viewBox="0 0 24 24" fill="none" xmlns="http://www.w3.org/2000/svg">
<path d="M13.376 4.07034C13.3762 3.16706 14.4157 2.64526 15.1338 3.21683C16.4937 4.29929 19.4141 6.65798 22.4629 9.33597C23.165 9.95291 23.1785 11.0378 22.5039 11.6768L15.2139 18.5801C14.5193 19.2378 13.376 18.7439 13.376 17.7862V14.4707C13.3759 14.2516 13.1991 14.0743 12.9805 14.0742H7.04004C6.6133 14.0742 6.29887 14.2438 6.05371 14.5489C5.79286 14.8735 5.59921 15.3695 5.50781 16.002C5.3248 17.2685 5.58083 18.8847 6.21094 20.1631C6.3096 20.3636 6.28837 20.6028 6.15527 20.7823C6.02211 20.9618 5.79914 21.0509 5.5791 21.0137C4.01095 20.7484 1 19.1334 1 14.9024C1.00003 12.3316 1.91224 10.5676 3.15527 9.45218C4.38021 8.35315 5.88678 7.91995 7.04004 7.91995H12.9805C13.1992 7.91991 13.376 7.74175 13.376 7.52249V4.07034Z" fill="#10100F"/>
</svg>
