<svg width="24" height="24" viewBox="0 0 24 24" fill="none" xmlns="http://www.w3.org/2000/svg">
<path fill-rule="evenodd" clip-rule="evenodd" d="M14.5904 4.28468V7.52261C14.5904 8.39974 13.874 9.11079 12.9904 9.11079H7.09023C6.19263 9.11079 4.96411 9.45406 3.96697 10.34C2.98805 11.2098 2.19023 12.6397 2.19023 14.9025C2.19023 17.4739 3.51545 18.8254 4.68151 19.4394C4.31395 18.2416 4.19333 16.9445 4.3558 15.8313C4.46661 15.072 4.7165 14.3485 5.16007 13.8019C5.61947 13.2358 6.27126 12.8827 7.0902 12.8827H12.9904C13.874 12.8827 14.5904 13.5938 14.5904 14.4709V17.556L21.6663 10.8113C21.8377 10.6506 21.831 10.3822 21.6579 10.2316C18.7213 7.67765 16.0197 5.41405 14.5904 4.28468ZM13.3904 4.07063C13.3904 3.16717 14.4398 2.64493 15.1651 3.21656C16.5385 4.29894 19.3693 6.65754 22.4487 9.33567C23.1581 9.95266 23.1719 11.0382 22.4902 11.6773L15.2456 18.5801C14.5441 19.2377 13.3904 18.744 13.3904 17.7863V14.4709C13.3904 14.2516 13.2113 14.0739 12.9904 14.0739H7.0902C6.65916 14.0739 6.34221 14.244 6.09459 14.5491C5.83114 14.8738 5.63571 15.3695 5.5434 16.002C5.35856 17.2686 5.61671 18.8843 6.25311 20.1627C6.35295 20.3633 6.33114 20.6025 6.19665 20.782C6.06215 20.9615 5.83766 21.0511 5.61542 21.0139C4.03172 20.7487 0.990234 19.1339 0.990234 14.9025C0.990234 12.3317 1.91117 10.568 3.16663 9.4525C4.40386 8.35323 5.92534 7.91966 7.09023 7.91966H12.9904C13.2113 7.91966 13.3904 7.74189 13.3904 7.52261V4.07063Z" fill="#10100F"/>
</svg>
