<svg width="24" height="24" viewBox="0 0 24 24" fill="none" xmlns="http://www.w3.org/2000/svg">
<path fill-rule="evenodd" clip-rule="evenodd" d="M13.8262 5.52246C14.1533 5.52246 14.4773 5.60515 14.7432 5.76855C15.0045 5.92919 15.2562 6.20179 15.3145 6.58398L16.0889 11.4033C16.1121 11.4527 16.1295 11.5063 16.1387 11.5625C16.3012 12.5631 15.801 13.4416 15.0381 14.0312C14.4019 14.5229 13.552 14.8462 12.6123 14.9395V17.3008H14.3682C14.6995 17.3008 14.9688 17.57 14.9688 17.9014C14.9687 18.2327 14.6995 18.501 14.3682 18.501H9.65723C9.32592 18.501 9.05674 18.2327 9.05664 17.9014C9.05664 17.57 9.32586 17.3008 9.65723 17.3008H11.4121V14.9326C10.5007 14.8304 9.67771 14.5104 9.05762 14.0312C8.29485 13.4417 7.79474 12.5628 7.95703 11.5625L8.75781 6.58398C8.81605 6.20177 9.06777 5.92919 9.3291 5.76855C9.59494 5.60515 9.91894 5.52246 10.2461 5.52246H13.8262ZM10.2461 6.72266C10.1141 6.72266 10.0132 6.75719 9.95801 6.79102C9.94942 6.79629 9.94244 6.80093 9.9375 6.80469L9.1416 11.7549C9.06878 12.2029 9.27017 12.6794 9.79102 13.082C10.3134 13.4858 11.1129 13.7676 12.0479 13.7676C12.9828 13.7676 13.7823 13.4857 14.3047 13.082C14.775 12.7185 14.9851 12.2943 14.9678 11.8857C14.9507 11.844 14.9371 11.8001 14.9297 11.7539L14.1348 6.80469C14.1298 6.80093 14.1229 6.7963 14.1143 6.79102C14.0591 6.75718 13.9582 6.72266 13.8262 6.72266H12.4326L11.6914 8.76172H13.1904C13.3935 8.76172 13.5827 8.86486 13.6934 9.03516C13.8039 9.20543 13.8207 9.41994 13.7383 9.60547L12.5605 12.2559C12.4259 12.5584 12.0713 12.6951 11.7686 12.5605C11.466 12.426 11.3296 12.0712 11.4639 11.7686L12.2676 9.96191H10.835C10.6392 9.96191 10.4551 9.86637 10.3428 9.70605C10.2306 9.54576 10.2036 9.34013 10.2705 9.15625L11.1562 6.72266H10.2461Z" fill="#10100F"/>
<path fill-rule="evenodd" clip-rule="evenodd" d="M18 2C20.2091 2 22 3.79086 22 6V18C22 20.2091 20.2091 22 18 22H6C3.79086 22 2 20.2091 2 18V6C2 3.79086 3.79086 2 6 2H18ZM6 3.2002C4.4536 3.2002 3.2002 4.4536 3.2002 6V18C3.2002 19.5464 4.4536 20.7998 6 20.7998H18C19.5464 20.7998 20.7998 19.5464 20.7998 18V6C20.7998 4.4536 19.5464 3.2002 18 3.2002H6Z" fill="#10100F"/>
</svg>
