<svg width="24" height="24" viewBox="0 0 24 24" fill="none" xmlns="http://www.w3.org/2000/svg">
<path d="M11.1562 6.72266L10.2705 9.15625C10.2036 9.34013 10.2306 9.54576 10.3428 9.70605C10.4551 9.86637 10.6392 9.96191 10.835 9.96191H12.2676L11.4639 11.7686C11.3296 12.0712 11.466 12.426 11.7686 12.5605C12.0713 12.6951 12.4259 12.5584 12.5605 12.2559L13.7383 9.60547C13.8207 9.41994 13.8039 9.20543 13.6934 9.03516C13.5827 8.86486 13.3935 8.76172 13.1904 8.76172H11.6914L12.4326 6.72266H13.8262C13.9582 6.72266 14.0591 6.75718 14.1143 6.79102C14.1229 6.7963 14.1298 6.80093 14.1348 6.80469L14.9297 11.7539C14.9371 11.8001 14.9507 11.844 14.9678 11.8857C14.9851 12.2943 14.775 12.7185 14.3047 13.082C13.7823 13.4857 12.9828 13.7676 12.0479 13.7676C11.1129 13.7676 10.3134 13.4858 9.79102 13.082C9.27017 12.6794 9.06878 12.2029 9.1416 11.7549L9.9375 6.80469C9.94244 6.80093 9.94942 6.79629 9.95801 6.79102C10.0132 6.75719 10.1141 6.72266 10.2461 6.72266H11.1562Z" fill="#10100F"/>
<path fill-rule="evenodd" clip-rule="evenodd" d="M18 2C20.2091 2 22 3.79086 22 6V18C22 20.2091 20.2091 22 18 22H6L5.79395 21.9951C3.68056 21.8879 2 20.14 2 18V6C2 3.79086 3.79086 2 6 2H18ZM10.2461 5.52246C9.91894 5.52246 9.59494 5.60515 9.3291 5.76855C9.06777 5.92919 8.81605 6.20177 8.75781 6.58398L7.95703 11.5625C7.79474 12.5628 8.29485 13.4417 9.05762 14.0312C9.67771 14.5104 10.5007 14.8304 11.4121 14.9326V17.3008H9.65723C9.32586 17.3008 9.05664 17.57 9.05664 17.9014C9.05674 18.2327 9.32592 18.501 9.65723 18.501H14.3682C14.6995 18.501 14.9687 18.2327 14.9688 17.9014C14.9688 17.57 14.6995 17.3008 14.3682 17.3008H12.6123V14.9395C13.552 14.8462 14.4019 14.5229 15.0381 14.0312C15.801 13.4416 16.3012 12.5631 16.1387 11.5625C16.1295 11.5063 16.1121 11.4527 16.0889 11.4033L15.3145 6.58398C15.2562 6.20179 15.0045 5.92919 14.7432 5.76855C14.4773 5.60515 14.1533 5.52246 13.8262 5.52246H10.2461Z" fill="#10100F"/>
</svg>
