<svg width="24" height="24" viewBox="0 0 24 24" fill="none" xmlns="http://www.w3.org/2000/svg">
<path d="M9.40039 22H8C5.79086 22 4 20.2091 4 18V12.7002H9.40039V22Z" fill="#10100F"/>
<path d="M13.4004 22H10.6006V12.7002H13.4004V22Z" fill="#10100F"/>
<path d="M20 18C20 20.2091 18.2091 22 16 22H14.6006V12.7002H20V18Z" fill="#10100F"/>
<path fill-rule="evenodd" clip-rule="evenodd" d="M14.5 2C15.8807 2 17 3.11929 17 4.5C17 5.31927 16.6041 6.04404 15.9951 6.5H20C21.1046 6.5 22 7.39543 22 8.5V9.5C22 10.6046 21.1046 11.5 20 11.5H14.6006V7H13.4004V11.5H10.6006V7H9.40039V11.5H4C2.89543 11.5 2 10.6046 2 9.5V8.5C2 7.39543 2.89543 6.5 4 6.5H8.00488C7.39593 6.04404 7 5.31927 7 4.5C7 3.11929 8.11929 2 9.5 2C10.8807 2 12 3.11929 12 4.5C12 3.11929 13.1193 2 14.5 2ZM9.5 3.2002C8.78203 3.2002 8.2002 3.78203 8.2002 4.5C8.2002 5.21797 8.78203 5.7998 9.5 5.7998H10.7998V4.5C10.7998 3.78203 10.218 3.2002 9.5 3.2002ZM14.5 3.2002C13.782 3.2002 13.2002 3.78203 13.2002 4.5V5.7998H14.5C15.218 5.7998 15.7998 5.21797 15.7998 4.5C15.7998 3.78203 15.218 3.2002 14.5 3.2002Z" fill="#10100F"/>
</svg>
