<svg width="24" height="24" viewBox="0 0 24 24" fill="none" xmlns="http://www.w3.org/2000/svg">
<path fill-rule="evenodd" clip-rule="evenodd" d="M14.5 2C15.8807 2 17 3.11929 17 4.5C17 5.0189 16.8419 5.50088 16.5713 5.90039H19.4004C20.8362 5.9006 22 7.06419 22 8.5V9.5C22 10.5025 21.4317 11.3708 20.6006 11.8047V17.4004C20.6004 19.9407 18.5404 22 16 22H8C5.4598 21.9998 3.4006 19.9406 3.40039 17.4004V11.8047C2.56881 11.371 2.00004 10.5028 2 9.5V8.5C2 7.06419 3.16385 5.9006 4.59961 5.90039H7.42871C7.15807 5.50088 7 5.0189 7 4.5C7 3.11929 8.11929 2 9.5 2C10.8807 2 12 3.11929 12 4.5C12 3.11929 13.1193 2 14.5 2ZM4.60059 17.4004C4.6008 19.2778 6.12254 20.7996 8 20.7998H9.40039V12.0996H4.60059V17.4004ZM10.6006 20.7998H13.4004V7.09961H10.6006V20.7998ZM14.6006 20.7998H16C17.8776 20.7998 19.4002 19.278 19.4004 17.4004V12.0996H14.6006V20.7998ZM4.59961 7.09961C3.82659 7.09982 3.2002 7.72693 3.2002 8.5V9.5C3.20025 10.273 3.82662 10.9002 4.59961 10.9004H9.40039V7.09961H4.59961ZM14.6006 10.9004H19.4004C20.1734 10.9002 20.7998 10.273 20.7998 9.5V8.5C20.7998 7.72693 20.1734 7.09982 19.4004 7.09961H14.6006V10.9004ZM9.5 3.2002C8.78203 3.2002 8.2002 3.78203 8.2002 4.5C8.2002 5.21797 8.78203 5.7998 9.5 5.7998H10.7998V4.5C10.7998 3.78203 10.218 3.2002 9.5 3.2002ZM14.5 3.2002C13.782 3.2002 13.2002 3.78203 13.2002 4.5V5.7998H14.5C15.218 5.7998 15.7998 5.21797 15.7998 4.5C15.7998 3.78203 15.218 3.2002 14.5 3.2002Z" fill="#10100F"/>
</svg>
