<svg width="24" height="24" viewBox="0 0 24 24" fill="none" xmlns="http://www.w3.org/2000/svg">
<path fill-rule="evenodd" clip-rule="evenodd" d="M12 1C18.0751 1 23 5.92487 23 12C23 18.0751 18.0751 23 12 23C5.92487 23 1 18.0751 1 12C1 5.92487 5.92487 1 12 1ZM7.79004 16.5996C8.05752 17.5795 8.40419 18.458 8.81055 19.2031C9.80762 21.0311 10.9881 21.7998 12 21.7998C13.0119 21.7998 14.1924 21.0311 15.1895 19.2031C15.5958 18.458 15.9425 17.5795 16.21 16.5996H7.79004ZM3.3457 16.5996C4.49282 18.7535 6.42034 20.4261 8.75098 21.2451C7.79729 20.1158 7.02903 18.5054 6.5498 16.5996H3.3457ZM17.4502 16.5996C16.9709 18.5057 16.2019 20.1158 15.248 21.2451C17.5791 20.4262 19.507 18.7537 20.6543 16.5996H17.4502ZM2.80762 8.59961C2.41557 9.65905 2.2002 10.8043 2.2002 12C2.2002 13.1957 2.41557 14.3409 2.80762 15.4004H6.29297C6.10329 14.3295 6 13.1868 6 12C6 10.8132 6.10329 9.67046 6.29297 8.59961H2.80762ZM7.51367 8.59961C7.31292 9.6543 7.2002 10.7981 7.2002 12C7.2002 13.2019 7.31292 14.3457 7.51367 15.4004H16.4863C16.6871 14.3457 16.7998 13.2019 16.7998 12C16.7998 10.7981 16.6871 9.6543 16.4863 8.59961H7.51367ZM17.707 8.59961C17.8967 9.67046 18 10.8132 18 12C18 13.1868 17.8967 14.3295 17.707 15.4004H21.1924C21.5844 14.3409 21.7998 13.1957 21.7998 12C21.7998 10.8043 21.5844 9.65905 21.1924 8.59961H17.707ZM8.75098 2.75391C6.4202 3.5729 4.49287 5.24645 3.3457 7.40039H6.5498C7.02911 5.49425 7.79707 3.88325 8.75098 2.75391ZM12 2.2002C10.9881 2.2002 9.80762 2.9689 8.81055 4.79688C8.40419 5.54196 8.05752 6.42052 7.79004 7.40039H16.21C15.9425 6.42052 15.5958 5.54196 15.1895 4.79688C14.1924 2.9689 13.0119 2.2002 12 2.2002ZM15.248 2.75391C16.2021 3.88327 16.9708 5.49398 17.4502 7.40039H20.6543C19.507 5.24618 17.5792 3.57279 15.248 2.75391Z" fill="#10100F"/>
</svg>
