<svg width="24" height="24" viewBox="0 0 24 24" fill="none" xmlns="http://www.w3.org/2000/svg">
<path d="M6.52832 16.6768C7.1978 19.5502 8.45451 21.8881 10.0029 22.9961C6.44121 22.3317 3.47947 19.9264 2.00586 16.6768H6.52832Z" fill="#10100F"/>
<path d="M21.9941 16.6768C20.5204 19.9267 17.5582 22.332 13.9961 22.9961C15.5448 21.8883 16.8021 19.5506 17.4717 16.6768H21.9941Z" fill="#10100F"/>
<path d="M16.2373 16.6768C15.9641 17.767 15.602 18.7591 15.1748 19.6055C14.15 21.6353 12.96 22.4717 12 22.4717C11.04 22.4717 9.84997 21.6353 8.8252 19.6055C8.39795 18.7591 8.0359 17.767 7.7627 16.6768H16.2373Z" fill="#10100F"/>
<path d="M6.28418 8.54297C6.09996 9.64781 6 10.8116 6 12C6 13.1884 6.09996 14.3522 6.28418 15.457H1.53906C1.19116 14.3681 1 13.2069 1 12C1 10.7932 1.19025 9.63182 1.53809 8.54297H6.28418Z" fill="#10100F"/>
<path d="M16.4961 8.54297C16.6907 9.63562 16.7998 10.8009 16.7998 12C16.7998 13.1991 16.6907 14.3644 16.4961 15.457H7.50391C7.30931 14.3644 7.2002 13.1991 7.2002 12C7.2002 10.8009 7.30931 9.63562 7.50391 8.54297H16.4961Z" fill="#10100F"/>
<path d="M22.4619 8.54297C22.8098 9.63182 23 10.7932 23 12C23 13.2069 22.8088 14.3681 22.4609 15.457H17.7158C17.9 14.3522 18 13.1884 18 12C18 10.8116 17.9 9.64781 17.7158 8.54297H22.4619Z" fill="#10100F"/>
<path d="M10.001 1.00391C8.45315 2.11228 7.19762 4.45061 6.52832 7.32324H2.00879C3.4823 4.0747 6.44051 1.66869 10.001 1.00391Z" fill="#10100F"/>
<path d="M12 1.52832C12.96 1.52832 14.15 2.36468 15.1748 4.39453C15.602 5.24089 15.9641 6.23302 16.2373 7.32324H7.7627C8.0359 6.23302 8.39795 5.24089 8.8252 4.39453C9.84996 2.36468 11.04 1.52832 12 1.52832Z" fill="#10100F"/>
<path d="M13.998 1.00391C17.5589 1.66845 20.5176 4.07442 21.9912 7.32324H17.4717C16.8023 4.45021 15.5462 2.11209 13.998 1.00391Z" fill="#10100F"/>
</svg>
