<svg width="24" height="24" viewBox="0 0 24 24" fill="none" xmlns="http://www.w3.org/2000/svg">
<path fill-rule="evenodd" clip-rule="evenodd" d="M19 1C21.2091 1 23 2.79086 23 5V15C23 17.2091 21.2091 19 19 19H14.2002L14.7598 21.7998H15.5C15.8314 21.7998 16.1006 22.069 16.1006 22.4004C16.1004 22.7316 15.8312 23 15.5 23H8.5C8.16894 22.9998 7.9006 22.7315 7.90039 22.4004C7.90039 22.0691 8.16881 21.8 8.5 21.7998H9.24023L9.7998 19H5C2.79086 19 1 17.2091 1 15V5C1 2.79086 2.79086 1 5 1H19ZM10.4639 21.7998H13.5361L13.0166 19.2002H10.9834L10.4639 21.7998ZM14.5 6.90039C14.1688 6.9006 13.9004 7.16876 13.9004 7.5C13.9004 7.8312 14.1688 8.0994 14.5 8.09961H15.5518L11.9443 11.708L8.36035 9.01953C8.12158 8.84061 7.78726 8.86435 7.57617 9.0752L6.07617 10.5752C5.84191 10.8095 5.842 11.1895 6.07617 11.4238C6.31049 11.6581 6.69049 11.6581 6.9248 11.4238L8.05664 10.292L11.6406 12.9795C11.8795 13.1586 12.2137 13.135 12.4248 12.9238L16.4004 8.94824V10C16.4004 10.3312 16.6688 10.5994 17 10.5996C17.3313 10.5996 17.6005 10.3313 17.6006 10V7.5C17.6006 7.42247 17.5845 7.34531 17.5547 7.27246C17.5423 7.24228 17.5267 7.214 17.5098 7.18652C17.5061 7.1806 17.5039 7.17379 17.5 7.16797C17.4353 7.07074 17.3431 6.99337 17.2344 6.94727L17.2266 6.94336C17.2034 6.93397 17.1792 6.92826 17.1553 6.92188C17.1426 6.91848 17.1302 6.9137 17.1172 6.91113C17.0785 6.9035 17.0393 6.90037 17 6.90039H14.5Z" fill="#10100F"/>
</svg>
