<svg width="24" height="24" viewBox="0 0 24 24" fill="none" xmlns="http://www.w3.org/2000/svg">
<path d="M12 17.2002C12.4418 17.2002 12.7998 17.5582 12.7998 18C12.7998 18.4418 12.4418 18.7998 12 18.7998C11.5582 18.7998 11.2002 18.4418 11.2002 18C11.2002 17.5582 11.5582 17.2002 12 17.2002Z" fill="#10100F"/>
<path fill-rule="evenodd" clip-rule="evenodd" d="M17 1C19.2091 1 21 2.79086 21 5V19C21 21.2091 19.2091 23 17 23H7L6.79395 22.9951C4.68056 22.8879 3 21.14 3 19V5C3 2.79086 4.79086 1 7 1H17ZM12 16C10.8954 16 10 16.8954 10 18C10 19.1046 10.8954 20 12 20C13.1046 20 14 19.1046 14 18C14 16.8954 13.1046 16 12 16ZM14.5 5.90039C14.1688 5.9006 13.9004 6.16876 13.9004 6.5C13.9004 6.8312 14.1688 7.0994 14.5 7.09961H15.5518L11.9443 10.708L8.36035 8.01953C8.12158 7.84061 7.78726 7.86435 7.57617 8.0752L6.07617 9.5752C5.84191 9.80946 5.842 10.1895 6.07617 10.4238C6.31049 10.6581 6.69049 10.6581 6.9248 10.4238L8.05664 9.29199L11.6406 11.9795C11.8795 12.1586 12.2137 12.135 12.4248 11.9238L16.4004 7.94824V9C16.4004 9.3312 16.6688 9.5994 17 9.59961C17.3313 9.59961 17.6005 9.33133 17.6006 9V6.5C17.6006 6.42247 17.5845 6.34531 17.5547 6.27246C17.5423 6.24228 17.5267 6.214 17.5098 6.18652C17.5061 6.1806 17.5039 6.17379 17.5 6.16797C17.4353 6.07074 17.3431 5.99337 17.2344 5.94727L17.2266 5.94336C17.2034 5.93397 17.1792 5.92826 17.1553 5.92188C17.1426 5.91848 17.1302 5.9137 17.1172 5.91113C17.0785 5.9035 17.0393 5.90037 17 5.90039H14.5Z" fill="#10100F"/>
</svg>
