<svg width="24" height="24" viewBox="0 0 24 24" fill="none" xmlns="http://www.w3.org/2000/svg">
<path fill-rule="evenodd" clip-rule="evenodd" d="M12 16C13.1046 16 14 16.8954 14 18C14 19.1046 13.1046 20 12 20C10.8954 20 10 19.1046 10 18C10 16.8954 10.8954 16 12 16ZM12 17.2002C11.5582 17.2002 11.2002 17.5582 11.2002 18C11.2002 18.4418 11.5582 18.7998 12 18.7998C12.4418 18.7998 12.7998 18.4418 12.7998 18C12.7998 17.5582 12.4418 17.2002 12 17.2002Z" fill="#10100F"/>
<path d="M17 5.90039C17.0393 5.90037 17.0785 5.9035 17.1172 5.91113C17.1302 5.9137 17.1426 5.91848 17.1553 5.92188C17.1792 5.92826 17.2034 5.93397 17.2266 5.94336L17.2344 5.94727C17.3431 5.99337 17.4353 6.07074 17.5 6.16797C17.5039 6.17379 17.5061 6.1806 17.5098 6.18652C17.5267 6.214 17.5423 6.24228 17.5547 6.27246C17.5845 6.34531 17.6006 6.42247 17.6006 6.5V9C17.6005 9.33133 17.3313 9.59961 17 9.59961C16.6688 9.5994 16.4004 9.3312 16.4004 9V7.94824L12.4248 11.9238C12.2137 12.135 11.8795 12.1586 11.6406 11.9795L8.05664 9.29199L6.9248 10.4238C6.69049 10.6581 6.31049 10.6581 6.07617 10.4238C5.842 10.1895 5.84191 9.80946 6.07617 9.5752L7.57617 8.0752C7.78726 7.86435 8.12158 7.84061 8.36035 8.01953L11.9443 10.708L15.5518 7.09961H14.5C14.1688 7.0994 13.9004 6.8312 13.9004 6.5C13.9004 6.16876 14.1688 5.9006 14.5 5.90039H17Z" fill="#10100F"/>
<path fill-rule="evenodd" clip-rule="evenodd" d="M17 1C19.2091 1 21 2.79086 21 5V19C21 21.2091 19.2091 23 17 23H7C4.79086 23 3 21.2091 3 19V5C3 2.79086 4.79086 1 7 1H17ZM7 2.2002C5.4536 2.2002 4.2002 3.4536 4.2002 5V19C4.2002 20.5464 5.4536 21.7998 7 21.7998H17C18.5464 21.7998 19.7998 20.5464 19.7998 19V5C19.7998 3.4536 18.5464 2.2002 17 2.2002H7Z" fill="#10100F"/>
</svg>
