<svg width="24" height="24" viewBox="0 0 24 24" fill="none" xmlns="http://www.w3.org/2000/svg">
<path d="M17 6.89941C17.0393 6.89939 17.0785 6.9035 17.1172 6.91113C17.1302 6.9137 17.1426 6.91848 17.1553 6.92188C17.1792 6.92826 17.2034 6.93397 17.2266 6.94336L17.2344 6.94727C17.3431 6.99337 17.4353 7.07074 17.5 7.16797C17.5039 7.17379 17.5061 7.1806 17.5098 7.18652C17.5267 7.214 17.5423 7.24228 17.5547 7.27246C17.5845 7.34531 17.6006 7.42247 17.6006 7.5V10C17.6005 10.3313 17.3313 10.5996 17 10.5996C16.6688 10.5994 16.4004 10.3312 16.4004 10V8.94824L12.4248 12.9238C12.2137 13.135 11.8795 13.1586 11.6406 12.9795L8.05664 10.292L6.9248 11.4238C6.69049 11.6581 6.31049 11.6581 6.07617 11.4238C5.842 11.1895 5.84191 10.8095 6.07617 10.5752L7.57617 9.0752C7.78726 8.86435 8.12158 8.84061 8.36035 9.01953L11.9443 11.708L15.5518 8.09961H14.5C14.1688 8.0994 13.9004 7.8312 13.9004 7.5C13.9004 7.16876 14.1688 6.89962 14.5 6.89941H17Z" fill="#10100F"/>
<path fill-rule="evenodd" clip-rule="evenodd" d="M19 1C21.2091 1 23 2.79086 23 5V15C23 17.2091 21.2091 19 19 19H14.2002L14.7598 21.7998H15.5C15.8314 21.7998 16.1006 22.069 16.1006 22.4004C16.1004 22.7316 15.8312 23 15.5 23H8.5C8.16885 22.9999 7.9006 22.7315 7.90039 22.4004C7.90039 22.0691 8.16872 21.7999 8.5 21.7998H9.24023L9.7998 19H5C2.79086 19 1 17.2091 1 15V5C1 2.79086 2.79086 1 5 1H19ZM10.4639 21.7998H13.5361L13.0166 19.2002H10.9834L10.4639 21.7998ZM5 2.2002C3.4536 2.2002 2.2002 3.4536 2.2002 5V15C2.2002 16.5464 3.4536 17.7998 5 17.7998H19C20.5464 17.7998 21.7998 16.5464 21.7998 15V5C21.7998 3.4536 20.5464 2.2002 19 2.2002H5Z" fill="#10100F"/>
</svg>
