<svg width="24" height="24" viewBox="0 0 24 24" fill="none" xmlns="http://www.w3.org/2000/svg">
<path d="M22 18C22 20.2091 20.2091 22 18 22H6C3.79086 22 2 20.2091 2 18V15.4492H5.58398C5.82158 15.4492 6.05943 15.548 6.23242 15.7207L8.29492 17.7832C8.7402 18.2285 9.31816 18.454 9.90918 18.4541C10.3891 18.4541 10.8611 18.306 11.2598 18.0117C11.6403 18.2572 12.08 18.3837 12.5137 18.3838C13.0895 18.3838 13.6766 18.1611 14.1211 17.7324L14.1289 17.7246C14.2692 17.5842 14.3865 17.4318 14.4814 17.2705C14.6063 17.2908 14.7297 17.2998 14.8477 17.2998C15.4947 17.2998 16.125 17.0422 16.5879 16.5C16.857 16.1865 17.0142 15.8232 17.0771 15.4482H22V18Z" fill="#10100F"/>
<path d="M9.16699 7.96582C9.52799 7.60531 10.045 7.51308 10.4326 7.70215C10.6472 7.80988 10.8005 7.96169 10.9033 8.1377L9.1084 9.93359C8.66163 10.3804 8.43762 10.9719 8.4375 11.5488C8.43757 12.2954 8.80431 13.0646 9.55176 13.5117C10.493 14.0873 11.664 13.8362 12.3838 13.1172L12.3848 13.1162L13.4307 12.0771L15.543 14.1895C15.9904 14.6371 16.0206 15.3192 15.6777 15.7188L15.6758 15.7207C15.4552 15.9793 15.1666 16.0996 14.8477 16.0996C14.689 16.0996 14.5413 16.0668 14.4199 16.0029C14.2571 15.9174 14.0634 15.9113 13.8955 15.9863C13.7486 16.0521 13.6352 16.1743 13.5791 16.3232L13.5176 16.5195C13.4678 16.6464 13.3915 16.7637 13.2842 16.8721C13.0692 17.0774 12.7847 17.1836 12.5137 17.1836C12.2427 17.1835 11.9591 17.0773 11.7441 16.8721L11.6533 16.7822C11.5317 16.6607 11.364 16.5968 11.1924 16.6074C11.0208 16.6181 10.8615 16.7023 10.7559 16.8379L10.7539 16.8408L10.7461 16.8506C10.7391 16.8595 10.7285 16.8716 10.7178 16.8848C10.694 16.9138 10.679 16.9309 10.6758 16.9346C10.4611 17.1492 10.1902 17.2539 9.90918 17.2539C9.6283 17.2538 9.35811 17.1491 9.14355 16.9346L7.08105 14.873C6.6884 14.4805 6.14748 14.249 5.58398 14.249H2V9.83887H6.4209C6.97138 9.83879 7.51792 9.62873 7.9209 9.21191L9.16699 7.96582Z" fill="#10100F"/>
<path d="M12.8203 7.91895C13.2459 7.49359 13.9269 7.49359 14.3525 7.91895L15.6494 9.21484C16.042 9.60742 16.5821 9.83875 17.1455 9.83887H22V14.249H16.9658C16.8443 13.9117 16.6492 13.5985 16.3916 13.3408L13.8574 10.8066C13.6238 10.5733 13.2451 10.5725 13.0107 10.8047L11.5381 12.2656L11.5361 12.2676C11.1732 12.6305 10.6487 12.7221 10.2539 12.5293L10.1768 12.4873L10.1699 12.4824C9.81234 12.2693 9.63776 11.9086 9.6377 11.5488C9.63782 11.2775 9.74406 10.9952 9.95703 10.7822L12.8203 7.91895Z" fill="#10100F"/>
<path d="M18 2C20.2091 2 22 3.79086 22 6V8.63867H17.1455C16.9078 8.63856 16.671 8.53913 16.498 8.36621L15.2012 7.07031C14.3627 6.2321 13.0439 6.17947 12.1455 6.91309L11.9717 7.07031L11.7656 7.27539C11.6137 7.08162 11.4267 6.90717 11.2031 6.7627L10.9668 6.62793L10.9629 6.62598C10.0549 6.18053 8.99373 6.44231 8.31836 7.11719L7.06836 8.36719L7.06055 8.37598C6.89844 8.54483 6.66932 8.63859 6.4209 8.63867H2V6C2 3.79086 3.79086 2 6 2H18Z" fill="#10100F"/>
</svg>
