<svg width="24" height="24" viewBox="0 0 24 24" fill="none" xmlns="http://www.w3.org/2000/svg">
<path fill-rule="evenodd" clip-rule="evenodd" d="M18 2C20.2091 2 22 3.79086 22 6V18C22 20.2091 20.2091 22 18 22H6C3.79086 22 2 20.2091 2 18V6C2 3.79086 3.79086 2 6 2H18ZM3.2002 18C3.2002 19.5464 4.4536 20.7998 6 20.7998H18C19.5464 20.7998 20.7998 19.5464 20.7998 18V15.4492H17.0771C17.0141 15.8242 16.857 16.1875 16.5879 16.501C16.1251 17.0431 15.4946 17.2997 14.8477 17.2998C14.7297 17.2998 14.6063 17.2908 14.4814 17.2705C14.3863 17.4321 14.2685 17.585 14.1279 17.7256L14.1201 17.7324C13.6756 18.161 13.0895 18.3838 12.5137 18.3838C12.0798 18.3838 11.6395 18.2574 11.2588 18.0117C10.8601 18.3059 10.3891 18.4551 9.90918 18.4551C9.31817 18.4551 8.74024 18.2294 8.29492 17.7842L6.23242 15.7217C6.05944 15.5487 5.82173 15.4493 5.58398 15.4492H3.2002V18ZM10.4326 7.70312C10.0448 7.51387 9.52806 7.60583 9.16699 7.9668L7.9209 9.21191C7.51789 9.6289 6.9715 9.83977 6.4209 9.83984H3.2002V14.249H5.58398C6.14741 14.2491 6.68746 14.4806 7.08008 14.873L9.14258 16.9355C9.35721 17.1502 9.62818 17.2549 9.90918 17.2549C10.1901 17.2549 10.4602 17.15 10.6748 16.9355C10.6762 16.934 10.692 16.9172 10.7178 16.8857C10.7286 16.8725 10.738 16.8595 10.7451 16.8506L10.7529 16.8408L10.7549 16.8389C10.8605 16.7031 11.0198 16.6182 11.1914 16.6074C11.3631 16.5967 11.5316 16.6606 11.6533 16.7822L11.7432 16.8721C11.9582 17.0776 12.2425 17.1846 12.5137 17.1846C12.7846 17.1846 13.0682 17.0781 13.2832 16.873C13.4265 16.7284 13.5132 16.5671 13.5576 16.3896C13.6023 16.211 13.7274 16.0625 13.8955 15.9873C14.0636 15.9122 14.257 15.9182 14.4199 16.0039C14.5413 16.0677 14.6891 16.0996 14.8477 16.0996C15.1665 16.0995 15.4553 15.9792 15.6758 15.7207L15.6768 15.7197C16.0202 15.3202 15.9907 14.6373 15.543 14.1895L13.4316 12.0781L12.3848 13.1162L12.3838 13.1172C11.664 13.8363 10.493 14.0873 9.55176 13.5117C8.80425 13.0645 8.4375 12.2955 8.4375 11.5488C8.43757 10.9718 8.66158 10.3814 9.1084 9.93457L10.9033 8.13867C10.8005 7.96242 10.6473 7.811 10.4326 7.70312ZM14.3525 7.91895C13.9269 7.4935 13.2459 7.49335 12.8203 7.91895L9.95703 10.7832C9.74401 10.9962 9.63777 11.2775 9.6377 11.5488C9.6377 11.9087 9.81213 12.2702 10.1699 12.4834L10.1768 12.4873L10.2539 12.5303C10.6487 12.723 11.1733 12.6304 11.5361 12.2676L11.5381 12.2666L13.0107 10.8047C13.2452 10.5726 13.6238 10.5732 13.8574 10.8066L16.3906 13.3408C16.6484 13.5985 16.8443 13.9116 16.9658 14.249H20.7998V9.83887H17.1455C16.5822 9.83875 16.042 9.60825 15.6494 9.21582L14.3525 7.91895ZM6 3.2002C4.4536 3.2002 3.2002 4.4536 3.2002 6V8.63965H6.4209C6.66932 8.63957 6.89844 8.54484 7.06055 8.37598L7.06836 8.36719L8.31836 7.11816C8.9938 6.44283 10.0546 6.18114 10.9629 6.62695L10.9668 6.62891L11.2031 6.7627C11.4268 6.90719 11.6136 7.08156 11.7656 7.27539L11.9717 7.07031L12.1455 6.91309C13.0439 6.17947 14.3627 6.23209 15.2012 7.07031L16.498 8.36719C16.6709 8.53996 16.908 8.63856 17.1455 8.63867H20.7998V6C20.7998 4.4536 19.5464 3.2002 18 3.2002H6Z" fill="#10100F"/>
</svg>
