<svg width="24" height="24" viewBox="0 0 24 24" fill="none" xmlns="http://www.w3.org/2000/svg">
<path d="M12 16C12.5523 16 13 16.4477 13 17C13 17.5523 12.5523 18 12 18C11.4477 18 11 17.5523 11 17C11 16.4477 11.4477 16 12 16Z" fill="#10100F"/>
<path d="M9.88184 6.80371C10.7976 6.17862 12.0171 5.86602 13.1865 6.16602L13.1885 6.16699C14.3944 6.48021 15.3532 7.45678 15.665 8.6416L15.666 8.64551L15.7021 8.80273C15.8632 9.58418 15.7013 10.2616 15.333 10.8271C14.9651 11.3919 14.4163 11.8072 13.9092 12.1289C13.1751 12.619 12.9671 12.8656 12.874 13.0762C12.765 13.323 12.75 13.6374 12.75 14.5C12.75 14.9142 12.4142 15.25 12 15.25C11.5858 15.2499 11.25 14.9142 11.25 14.5C11.25 14.4637 11.25 14.4276 11.25 14.3916C11.2493 13.6893 11.2491 13.0407 11.502 12.4688C11.7836 11.832 12.3241 11.3826 13.084 10.876L13.0986 10.8662C13.5526 10.5789 13.8849 10.3023 14.0762 10.0088C14.2441 9.75096 14.3243 9.45176 14.2139 9.02051C14.0372 8.35295 13.4835 7.79387 12.8125 7.61914C12.1284 7.44406 11.3479 7.6195 10.7275 8.04297C10.1031 8.46928 9.75011 9.06632 9.75 9.63672C9.75 10.0509 9.41421 10.3867 9 10.3867C8.58584 10.3867 8.25 10.0509 8.25 9.63672C8.25011 8.439 8.97005 7.42611 9.88184 6.80371Z" fill="#10100F"/>
<path fill-rule="evenodd" clip-rule="evenodd" d="M12 1C18.0751 1 23 5.92487 23 12C23 18.0751 18.0751 23 12 23C5.92487 23 1 18.0751 1 12C1 5.92487 5.92487 1 12 1ZM12 2.2002C6.58761 2.2002 2.2002 6.58761 2.2002 12C2.2002 17.4124 6.58761 21.7998 12 21.7998C17.4124 21.7998 21.7998 17.4124 21.7998 12C21.7998 6.58761 17.4124 2.2002 12 2.2002Z" fill="#10100F"/>
</svg>
