<svg width="24" height="24" viewBox="0 0 24 24" fill="none" xmlns="http://www.w3.org/2000/svg">
<path fill-rule="evenodd" clip-rule="evenodd" d="M12 1C18.0751 1 23 5.92487 23 12C23 18.0751 18.0751 23 12 23C5.92487 23 1 18.0751 1 12C1 5.92487 5.92487 1 12 1ZM12 16C11.4477 16 11 16.4477 11 17C11 17.5523 11.4477 18 12 18C12.5523 18 13 17.5523 13 17C13 16.4477 12.5523 16 12 16ZM13.1865 6.16602C12.0171 5.86602 10.7976 6.17862 9.88184 6.80371C8.97005 7.42611 8.25011 8.439 8.25 9.63672C8.25 10.0509 8.58584 10.3867 9 10.3867C9.41421 10.3867 9.75 10.0509 9.75 9.63672C9.75011 9.06632 10.1031 8.46928 10.7275 8.04297C11.3479 7.6195 12.1284 7.44406 12.8125 7.61914C13.4835 7.79387 14.0372 8.35295 14.2139 9.02051C14.3243 9.45176 14.2441 9.75096 14.0762 10.0088C13.8849 10.3023 13.5526 10.5789 13.0986 10.8662L13.084 10.876C12.3241 11.3826 11.7836 11.832 11.502 12.4688C11.2491 13.0407 11.2493 13.6893 11.25 14.3916C11.25 14.4276 11.25 14.4637 11.25 14.5C11.25 14.9142 11.5858 15.2499 12 15.25C12.4142 15.25 12.75 14.9142 12.75 14.5C12.75 13.6374 12.765 13.323 12.874 13.0762C12.9671 12.8656 13.1751 12.619 13.9092 12.1289C14.4163 11.8072 14.9651 11.3919 15.333 10.8271C15.7013 10.2616 15.8632 9.58418 15.7021 8.80273L15.666 8.64551L15.665 8.6416C15.3532 7.45678 14.3944 6.48021 13.1885 6.16699L13.1865 6.16602Z" fill="#10100F"/>
</svg>
