<svg width="24" height="24" viewBox="0 0 24 24" fill="none" xmlns="http://www.w3.org/2000/svg">
<path d="M12 18C12.5523 18 13 18.4477 13 19C13 19.5523 12.5523 20 12 20C11.4477 20 11 19.5523 11 19C11 18.4477 11.4477 18 12 18Z" fill="#10100F"/>
<path d="M12.5 3.25C15.0549 3.25 16.7792 4.66395 17.3418 6.48633C17.8796 8.22917 17.3173 10.2505 15.5869 11.5049L15.416 11.624C13.8976 12.6363 13.3071 13.1698 13.0332 13.6719C12.7687 14.1571 12.75 14.4405 12.75 15.75C12.75 16.1642 12.4142 16.5 12 16.5C11.5858 16.5 11.25 16.1642 11.25 15.75C11.25 14.5597 11.2315 13.8429 11.7168 12.9531C12.193 12.0803 13.1025 11.3636 14.584 10.376L14.8174 10.207C15.9331 9.33192 16.2485 8.02841 15.9092 6.92871C15.5544 5.77951 14.4447 4.75 12.5 4.75C10.432 4.75 9.27721 5.43067 8.62891 6.17871C7.95821 6.9527 7.75 7.89105 7.75 8.5C7.75 8.91421 7.41421 9.25 7 9.25C6.58579 9.25 6.25 8.91421 6.25 8.5C6.25 7.609 6.54192 6.29726 7.49609 5.19629C8.47281 4.06943 10.0682 3.25 12.5 3.25Z" fill="#10100F"/>
</svg>
