<svg width="24" height="24" viewBox="0 0 24 24" fill="none" xmlns="http://www.w3.org/2000/svg">
<path fill-rule="evenodd" clip-rule="evenodd" d="M9.67814 2.79273C11.0142 1.63716 12.9857 1.63716 14.3217 2.79273L22.7924 10.1189C23.0416 10.3345 23.0704 10.713 22.8569 10.9646C22.6431 11.2162 22.2673 11.2457 22.018 11.03L21.018 10.1648V17.4744C21.018 20.0149 18.977 22.074 16.4594 22.074H7.54044C5.02288 22.0739 2.98185 20.0148 2.98185 17.4744V10.1648L1.98185 11.03C1.73252 11.2457 1.35669 11.2162 1.14298 10.9646C0.929534 10.7131 0.958354 10.3345 1.20744 10.1189L9.67814 2.79273ZM13.5483 3.70289C12.6577 2.93265 11.3432 2.93289 10.4526 3.70289L4.1713 9.13551V17.4744C4.1713 19.3521 5.67965 20.8747 7.54044 20.8748H16.4594C18.3202 20.8748 19.8285 19.3521 19.8285 17.4744V9.13551L13.5483 3.70289Z" fill="#10100F"/>
</svg>
