<svg width="24" height="24" viewBox="0 0 24 24" fill="none" xmlns="http://www.w3.org/2000/svg">
<path d="M18.5 18.2C19.2179 18.2 19.7997 18.7819 19.7998 19.4998C19.7998 20.2177 19.218 20.7996 18.5 20.7996H5.5C4.78212 20.7995 4.2002 20.2177 4.2002 19.4998C4.2003 18.7819 4.78218 18.2001 5.5 18.2H18.5Z" fill="#10100F"/>
<path d="M11.6582 12.1238C11.8789 12.0435 12.1211 12.0436 12.3418 12.1238L16.3418 13.5789C16.7369 13.7225 16.9999 14.0979 17 14.5183V15.9998C17 16.552 16.5523 16.9998 16 16.9998H8C7.44781 16.9996 7 16.552 7 15.9998V14.5183C7.00011 14.098 7.26323 13.7226 7.6582 13.5789L11.6582 12.1238Z" fill="#10100F"/>
<path d="M16 6.99976C16.5522 6.99976 16.9999 7.44756 17 7.99976V9.4812C17 9.9017 16.737 10.2769 16.3418 10.4207L12.3418 11.8757C12.1211 11.956 11.8789 11.956 11.6582 11.8757L7.6582 10.4207C7.26322 10.2768 7 9.90157 7 9.4812V7.99976C7.00011 7.44763 7.44787 6.99986 8 6.99976H16Z" fill="#10100F"/>
<path d="M18.5 3.19995C19.2179 3.19995 19.7997 3.78188 19.7998 4.49976C19.7998 5.21773 19.218 5.79956 18.5 5.79956H5.5C4.78212 5.79946 4.2002 5.21766 4.2002 4.49976C4.2003 3.78194 4.78218 3.20006 5.5 3.19995H18.5Z" fill="#10100F"/>
</svg>
