<svg width="24" height="24" viewBox="0 0 24 24" fill="none" xmlns="http://www.w3.org/2000/svg">
<path fill-rule="evenodd" clip-rule="evenodd" d="M18.5 2C19.8807 2 21 3.11929 21 4.5C21 5.88071 19.8807 7 18.5 7H17.5996V9.32324C17.5995 9.97738 17.2011 10.5656 16.5938 10.8086L13.6143 12L16.5938 13.1914C17.2011 13.4344 17.5995 14.0226 17.5996 14.6768V17H18.5C19.8807 17 21 18.1193 21 19.5C21 20.8807 19.8807 22 18.5 22H5.5C4.11929 22 3 20.8807 3 19.5C3 18.1193 4.11929 17 5.5 17H6.40039V14.6768C6.4005 14.0226 6.79888 13.4344 7.40625 13.1914L10.3848 12L7.40625 10.8086C6.79888 10.5656 6.4005 9.97738 6.40039 9.32324V7H5.5C4.11929 7 3 5.88071 3 4.5C3 3.11929 4.11929 2 5.5 2H18.5ZM5.5 18.2002C4.78203 18.2002 4.2002 18.782 4.2002 19.5C4.2002 20.218 4.78203 20.7998 5.5 20.7998H18.5C19.218 20.7998 19.7998 20.218 19.7998 19.5C19.7998 18.782 19.218 18.2002 18.5 18.2002H5.5ZM12.1484 12.7061C12.0531 12.6679 11.9469 12.6679 11.8516 12.7061L7.85156 14.3057C7.69978 14.3664 7.59972 14.5133 7.59961 14.6768V17H16.4004V14.6768C16.4003 14.5133 16.3002 14.3664 16.1484 14.3057L12.1484 12.7061ZM7.59961 7V9.32324C7.59972 9.48669 7.69978 9.63362 7.85156 9.69434L11.8516 11.2939C11.9469 11.3321 12.0531 11.3321 12.1484 11.2939L16.1484 9.69434C16.3002 9.63362 16.4003 9.48669 16.4004 9.32324V7H7.59961ZM5.5 3.2002C4.78203 3.2002 4.2002 3.78203 4.2002 4.5C4.2002 5.21797 4.78203 5.7998 5.5 5.7998H18.5C19.218 5.7998 19.7998 5.21797 19.7998 4.5C19.7998 3.78203 19.218 3.2002 18.5 3.2002H5.5Z" fill="#10100F"/>
</svg>
