<svg width="24" height="24" viewBox="0 0 24 24" fill="none" xmlns="http://www.w3.org/2000/svg">
<path d="M8.5 12.4004C10.7644 12.4004 12.5996 14.2356 12.5996 16.5C12.5996 16.8314 12.3314 17.0996 12 17.0996C11.6686 17.0996 11.4004 16.8314 11.4004 16.5C11.4004 14.8984 10.1016 13.5996 8.5 13.5996H7.5C5.89839 13.5996 4.59962 14.8984 4.59961 16.5C4.59961 16.8314 4.33137 17.0996 4 17.0996C3.66864 17.0996 3.40039 16.8314 3.40039 16.5C3.4004 14.2357 5.23565 12.4004 7.5 12.4004H8.5Z" fill="#10100F"/>
<path d="M20 12.9004C20.3314 12.9004 20.5996 13.1686 20.5996 13.5C20.5996 13.8314 20.3314 14.0996 20 14.0996H15C14.6686 14.0996 14.4004 13.8314 14.4004 13.5C14.4004 13.1686 14.6686 12.9004 15 12.9004H20Z" fill="#10100F"/>
<path fill-rule="evenodd" clip-rule="evenodd" d="M8 7C9.37771 7 10.5 8.12229 10.5 9.5C10.5 10.8777 9.37771 12 8 12C6.62229 12 5.5 10.8777 5.5 9.5C5.5 8.12229 6.62229 7 8 7ZM8 8.2002C7.28503 8.2002 6.7002 8.78503 6.7002 9.5C6.7002 10.215 7.28503 10.7998 8 10.7998C8.71497 10.7998 9.2998 10.215 9.2998 9.5C9.2998 8.78503 8.71497 8.2002 8 8.2002Z" fill="#10100F"/>
<path d="M20 9.90039C20.3314 9.90039 20.5996 10.1686 20.5996 10.5C20.5996 10.8314 20.3314 11.0996 20 11.0996H15C14.6686 11.0996 14.4004 10.8314 14.4004 10.5C14.4004 10.1686 14.6686 9.9004 15 9.90039H20Z" fill="#10100F"/>
<path fill-rule="evenodd" clip-rule="evenodd" d="M19 3C21.2091 3 23 4.79086 23 7V17C23 19.2091 21.2091 21 19 21H5C2.79086 21 1 19.2091 1 17V7C1 4.79086 2.79086 3 5 3H19ZM5 4.2002C3.4536 4.2002 2.2002 5.4536 2.2002 7V17C2.2002 18.5464 3.4536 19.7998 5 19.7998H19C20.5464 19.7998 21.7998 18.5464 21.7998 17V7C21.7998 5.4536 20.5464 4.2002 19 4.2002H5Z" fill="#10100F"/>
</svg>
