<svg width="24" height="24" viewBox="0 0 24 24" fill="none" xmlns="http://www.w3.org/2000/svg">
<path fill-rule="evenodd" clip-rule="evenodd" d="M1 7C1 4.79086 2.79086 3 5 3H19C21.2091 3 23 4.79086 23 7V17C23 19.2091 21.2091 21 19 21H5C2.79086 21 1 19.2091 1 17V7ZM8 8.2C7.28503 8.2 6.7 8.78503 6.7 9.5C6.7 10.215 7.28503 10.8 8 10.8C8.71497 10.8 9.3 10.215 9.3 9.5C9.3 8.78503 8.71497 8.2 8 8.2ZM5.5 9.5C5.5 8.12229 6.62229 7 8 7C9.37771 7 10.5 8.12229 10.5 9.5C10.5 10.8777 9.37771 12 8 12C6.62229 12 5.5 10.8777 5.5 9.5ZM15 9.9C14.6686 9.9 14.4 10.1686 14.4 10.5C14.4 10.8314 14.6686 11.1 15 11.1H20C20.3314 11.1 20.6 10.8314 20.6 10.5C20.6 10.1686 20.3314 9.9 20 9.9H15ZM14.4 13.5C14.4 13.1686 14.6686 12.9 15 12.9H20C20.3314 12.9 20.6 13.1686 20.6 13.5C20.6 13.8314 20.3314 14.1 20 14.1H15C14.6686 14.1 14.4 13.8314 14.4 13.5ZM7.5 12.4C5.23563 12.4 3.4 14.2356 3.4 16.5C3.4 16.8314 3.66863 17.1 4 17.1C4.33137 17.1 4.6 16.8314 4.6 16.5C4.6 14.8984 5.89837 13.6 7.5 13.6H8.5C10.1016 13.6 11.4 14.8984 11.4 16.5C11.4 16.8314 11.6686 17.1 12 17.1C12.3314 17.1 12.6 16.8314 12.6 16.5C12.6 14.2356 10.7644 12.4 8.5 12.4H7.5Z" fill="#10100F"/>
<path fill-rule="evenodd" clip-rule="evenodd" d="M5 4.2C3.4536 4.2 2.2 5.4536 2.2 7V16.5V17C2.2 18.5464 3.4536 19.8 5 19.8H19C20.5464 19.8 21.8 18.5464 21.8 17V13.5026C21.7986 14.4955 20.9932 15.3 20 15.3H15C14.0059 15.3 13.2 14.4941 13.2 13.5C13.2 12.8739 13.5197 12.3225 14.0047 12C13.5197 11.6775 13.2 11.1261 13.2 10.5C13.2 9.50589 14.0059 8.7 15 8.7H20C20.9932 8.7 21.7986 9.50446 21.8 10.4974V7C21.8 5.4536 20.5464 4.2 19 4.2H5ZM20.9953 12C21.4797 12.322 21.7991 12.8724 21.8 13.4974V10.5026C21.7991 11.1276 21.4797 11.678 20.9953 12ZM5.08743 11.7797C3.37324 12.6576 2.2 14.4418 2.2 16.5C2.2 17.4941 3.00589 18.3 4 18.3C4.99411 18.3 5.8 17.4941 5.8 16.5C5.8 15.5611 6.56112 14.8 7.5 14.8H8.5C9.43888 14.8 10.2 15.5611 10.2 16.5C10.2 17.4941 11.0059 18.3 12 18.3C12.9941 18.3 13.8 17.4941 13.8 16.5C13.8 14.4418 12.6268 12.6576 10.9126 11.7797C11.4057 11.151 11.7 10.3593 11.7 9.5C11.7 7.45955 10.0405 5.8 8 5.8C5.95955 5.8 4.3 7.45955 4.3 9.5C4.3 10.3593 4.59431 11.151 5.08743 11.7797ZM6.30479 11.3353C6.63395 11.6396 7.04474 11.8568 7.5 11.9497C7.66162 11.9827 7.82884 12 8 12C8.17116 12 8.33838 11.9827 8.5 11.9497C8.95526 11.8568 9.36605 11.6396 9.69521 11.3353C10.1897 10.8782 10.5 10.2244 10.5 9.5C10.5 8.12229 9.37771 7 8 7C6.62229 7 5.5 8.12229 5.5 9.5C5.5 10.2244 5.81027 10.8782 6.30479 11.3353ZM6.07044 12.6561C4.51152 13.2361 3.40082 14.7373 3.4 16.4981C3.4 16.4987 3.4 16.4994 3.4 16.5C3.4 16.8314 3.66863 17.1 4 17.1C4.33137 17.1 4.6 16.8314 4.6 16.5C4.6 14.8984 5.89837 13.6 7.5 13.6H8.5C10.1016 13.6 11.4 14.8984 11.4 16.5C11.4 16.8314 11.6686 17.1 12 17.1C12.3314 17.1 12.6 16.8314 12.6 16.5C12.6 14.7384 11.4891 13.2363 9.92956 12.6561C9.48445 12.4905 9.00279 12.4 8.5 12.4H7.5C6.99721 12.4 6.51555 12.4905 6.07044 12.6561ZM7.93042 9.43042C7.90863 9.45221 7.9 9.47628 7.9 9.5C7.9 9.52372 7.90863 9.54779 7.93042 9.56958C7.95221 9.59137 7.97628 9.6 8 9.6C8.02372 9.6 8.0478 9.59137 8.06958 9.56958C8.09137 9.5478 8.1 9.52372 8.1 9.5C8.1 9.47628 8.09137 9.45221 8.06958 9.43042C8.04779 9.40863 8.02372 9.4 8 9.4C7.97628 9.4 7.95221 9.40863 7.93042 9.43042ZM8 8.2C7.28503 8.2 6.7 8.78503 6.7 9.5C6.7 10.215 7.28503 10.8 8 10.8C8.71497 10.8 9.3 10.215 9.3 9.5C9.3 8.78503 8.71497 8.2 8 8.2ZM15 12.9H20C20.3314 12.9 20.6 13.1686 20.6 13.5C20.6 13.8314 20.3314 14.1 20 14.1H15C14.6686 14.1 14.4 13.8314 14.4 13.5C14.4 13.1686 14.6686 12.9 15 12.9ZM5 3C2.79086 3 1 4.79086 1 7V17C1 19.2091 2.79086 21 5 21H19C21.2091 21 23 19.2091 23 17V7C23 4.79086 21.2091 3 19 3H5ZM14.4 10.5C14.4 10.1686 14.6686 9.9 15 9.9H20C20.3314 9.9 20.6 10.1686 20.6 10.5C20.6 10.8314 20.3314 11.1 20 11.1H15C14.6686 11.1 14.4 10.8314 14.4 10.5Z" fill="#10100F"/>
</svg>
