<svg width="24" height="24" viewBox="0 0 24 24" fill="none" xmlns="http://www.w3.org/2000/svg">
<path d="M5.96875 14.1484C6.51907 13.4981 7.51797 13.4853 8.08398 14.1221L10.2256 16.5312L6.125 22H6L5.79395 21.9951C3.93476 21.9008 2.41106 20.5367 2.07129 18.7529L5.96875 14.1484Z" fill="#10100F"/>
<path d="M15.7588 11.1543C16.3432 10.3751 17.5255 10.4166 18.0547 11.2344L21.9961 17.3262L22 17.3232V18C22 20.2091 20.2091 22 18 22H7.62598L15.7588 11.1543Z" fill="#10100F"/>
<path d="M7.5 6.2002C8.21497 6.2002 8.7998 6.78503 8.7998 7.5C8.7998 8.21497 8.21497 8.7998 7.5 8.7998C6.78503 8.7998 6.2002 8.21497 6.2002 7.5C6.2002 6.78503 6.78503 6.2002 7.5 6.2002Z" fill="#10100F"/>
<path fill-rule="evenodd" clip-rule="evenodd" d="M18 2C20.2091 2 22 3.79086 22 6V15.1221L19.0615 10.582C18.0787 9.06355 15.8841 8.98749 14.7988 10.4346L10.96 15.5518L8.98047 13.3252C7.9293 12.1426 6.07477 12.1652 5.05273 13.373L2 16.9795V6C2 3.79086 3.79086 2 6 2H18ZM7.5 5C6.12229 5 5 6.12229 5 7.5C5 8.87771 6.12229 10 7.5 10C8.87771 10 10 8.87771 10 7.5C10 6.12229 8.87771 5 7.5 5Z" fill="#10100F"/>
</svg>
