<svg width="24" height="24" viewBox="0 0 24 24" fill="none" xmlns="http://www.w3.org/2000/svg">
<path fill-rule="evenodd" clip-rule="evenodd" d="M7.49609 5C8.87277 5.00004 9.99414 6.12232 9.99414 7.5C9.99414 8.87768 8.87277 9.99996 7.49609 10C6.11938 10 4.99805 8.87771 4.99805 7.5C4.99805 6.12229 6.11938 5 7.49609 5ZM7.49609 6.2002C6.78164 6.2002 6.19727 6.78503 6.19727 7.5C6.19727 8.21497 6.78164 8.7998 7.49609 8.7998C8.21051 8.79976 8.79492 8.21494 8.79492 7.5C8.79492 6.78506 8.21051 6.20024 7.49609 6.2002Z" fill="#10100F"/>
<path fill-rule="evenodd" clip-rule="evenodd" d="M17.9883 2C20.1958 2 21.9854 3.79086 21.9854 6V15.666L22 15.6914L21.9854 15.7002V18C21.9854 20.2091 20.1958 22 17.9883 22H5.99707C3.78955 22 2 20.2091 2 18V6C2 3.79087 3.78955 2.00002 5.99707 2H17.9883ZM8.0332 14.0703C7.479 13.4464 6.50531 13.443 5.94727 14.0635L3.19922 17.1182V18C3.19922 19.5464 4.45181 20.7998 5.99707 20.7998H7.26465L10.3076 16.6318L8.0332 14.0703ZM18.0254 11.3936C17.5104 10.5346 16.2859 10.4793 15.6953 11.2881L8.75098 20.7998H17.9883C19.5336 20.7998 20.7861 19.5464 20.7861 18V15.999L18.0254 11.3936ZM5.99707 3.2002C4.45181 3.20021 3.19922 4.45361 3.19922 6V15.3242L5.05566 13.2607C6.09195 12.1085 7.89943 12.114 8.92871 13.2725L11.0312 15.6406L14.7275 10.5801C15.8243 9.07813 18.0962 9.18135 19.0527 10.7764L20.7861 13.667V6C20.7861 4.4536 19.5336 3.2002 17.9883 3.2002H5.99707Z" fill="#10100F"/>
</svg>
