<svg width="24" height="24" viewBox="0 0 24 24" fill="none" xmlns="http://www.w3.org/2000/svg">
<path fill-rule="evenodd" clip-rule="evenodd" d="M22 18C22 20.2091 20.2091 22 18 22H6L5.79395 21.9951C3.68056 21.8879 2 20.14 2 18V12.5996H22V18ZM9 14.9004C7.56407 14.9004 6.4004 16.0641 6.40039 17.5C6.40039 17.8314 6.66863 18.0996 7 18.0996C7.33137 18.0996 7.59961 17.8314 7.59961 17.5C7.59962 16.7268 8.22681 16.0996 9 16.0996H15C15.7732 16.0996 16.4004 16.7268 16.4004 17.5C16.4004 17.8314 16.6686 18.0996 17 18.0996C17.3314 18.0996 17.5996 17.8314 17.5996 17.5C17.5996 16.0641 16.4359 14.9004 15 14.9004H9Z" fill="#10100F"/>
<path fill-rule="evenodd" clip-rule="evenodd" d="M18 2C20.2091 2 22 3.79086 22 6V11.4004H2V6C2 3.79086 3.79086 2 6 2H18ZM9 5.90039C7.56407 5.90039 6.4004 7.06407 6.40039 8.5C6.40039 8.83137 6.66863 9.09961 7 9.09961C7.33137 9.09961 7.59961 8.83137 7.59961 8.5C7.59962 7.72681 8.22681 7.09961 9 7.09961H15C15.7732 7.09961 16.4004 7.72681 16.4004 8.5C16.4004 8.83137 16.6686 9.09961 17 9.09961C17.3314 9.09961 17.5996 8.83137 17.5996 8.5C17.5996 7.06407 16.4359 5.90039 15 5.90039H9Z" fill="#10100F"/>
</svg>
