<svg width="24" height="24" viewBox="0 0 24 24" fill="none" xmlns="http://www.w3.org/2000/svg">
<path d="M15 14.9004C16.4359 14.9004 17.5996 16.0641 17.5996 17.5C17.5996 17.8314 17.3314 18.0996 17 18.0996C16.6686 18.0996 16.4004 17.8314 16.4004 17.5C16.4004 16.7268 15.7732 16.0996 15 16.0996H9C8.22681 16.0996 7.59962 16.7268 7.59961 17.5C7.59961 17.8314 7.33137 18.0996 7 18.0996C6.66863 18.0996 6.40039 17.8314 6.40039 17.5C6.4004 16.0641 7.56407 14.9004 9 14.9004H15Z" fill="#10100F"/>
<path d="M15 5.90039C16.4359 5.90039 17.5996 7.06407 17.5996 8.5C17.5996 8.83137 17.3314 9.09961 17 9.09961C16.6686 9.09961 16.4004 8.83137 16.4004 8.5C16.4004 7.72681 15.7732 7.09961 15 7.09961H9C8.22681 7.09961 7.59962 7.72681 7.59961 8.5C7.59961 8.83137 7.33137 9.09961 7 9.09961C6.66863 9.09961 6.40039 8.83137 6.40039 8.5C6.4004 7.06407 7.56407 5.90039 9 5.90039H15Z" fill="#10100F"/>
<path fill-rule="evenodd" clip-rule="evenodd" d="M18 2C20.2091 2 22 3.79086 22 6V18C22 20.2091 20.2091 22 18 22H6C3.79086 22 2 20.2091 2 18V6C2 3.79086 3.79086 2 6 2H18ZM3.2002 18C3.2002 19.5464 4.4536 20.7998 6 20.7998H18C19.5464 20.7998 20.7998 19.5464 20.7998 18V12.5996H3.2002V18ZM6 3.2002C4.4536 3.2002 3.2002 4.4536 3.2002 6V11.4004H20.7998V6C20.7998 4.4536 19.5464 3.2002 18 3.2002H6Z" fill="#10100F"/>
</svg>
