<svg width="24" height="24" viewBox="0 0 24 24" fill="none" xmlns="http://www.w3.org/2000/svg">
<path d="M6.59961 16.2002C6.71007 16.2002 6.7998 16.2899 6.7998 16.4004V17.5996C6.7998 17.7101 6.71007 17.7998 6.59961 17.7998H5.40039C5.28993 17.7998 5.2002 17.7101 5.2002 17.5996V16.4004C5.2002 16.2899 5.28993 16.2002 5.40039 16.2002H6.59961Z" fill="#10100F"/>
<path d="M12.5996 16.2002C12.7101 16.2002 12.7998 16.2899 12.7998 16.4004V17.5996C12.7998 17.7101 12.7101 17.7998 12.5996 17.7998H11.4004C11.2899 17.7998 11.2002 17.7101 11.2002 17.5996V16.4004C11.2002 16.2899 11.2899 16.2002 11.4004 16.2002H12.5996Z" fill="#10100F"/>
<path d="M18.5996 16.2002C18.7101 16.2002 18.7998 16.2899 18.7998 16.4004V17.5996C18.7998 17.7101 18.7101 17.7998 18.5996 17.7998H17.4004C17.2899 17.7998 17.2002 17.7101 17.2002 17.5996V16.4004C17.2002 16.2899 17.2899 16.2002 17.4004 16.2002H18.5996Z" fill="#10100F"/>
<path fill-rule="evenodd" clip-rule="evenodd" d="M6.4707 2C7.90651 2 9.0701 3.16385 9.07031 4.59961V11.2275C9.07031 11.6065 9.54874 11.7735 9.78418 11.4766L12.2168 8.40723C13.1584 7.219 15.0702 7.88437 15.0703 9.40039V11.4727C15.0705 11.8365 15.5177 12.0113 15.7646 11.7441L19.2236 7.99902C20.2118 6.9294 21.999 7.62877 21.999 9.08496V19.4004C21.9988 20.8361 20.8352 21.9999 19.3994 22H4.59961C3.16389 21.9998 2.00007 20.8361 2 19.4004V4.60059C2 3.16478 3.16385 2.00021 4.59961 2H6.4707ZM5 15C4.44772 15 4 15.4477 4 16V18C4 18.5523 4.44772 19 5 19H7C7.55228 19 8 18.5523 8 18V16C8 15.4477 7.55228 15 7 15H5ZM11 15C10.4477 15 10 15.4477 10 16V18C10 18.5523 10.4477 19 11 19H13C13.5523 19 14 18.5523 14 18V16C14 15.4477 13.5523 15 13 15H11ZM17 15C16.4477 15 16 15.4477 16 16V18C16 18.5523 16.4477 19 17 19H19C19.5523 19 20 18.5523 20 18V16C20 15.4477 19.5523 15 19 15H17Z" fill="#10100F"/>
</svg>
