<svg width="24" height="24" viewBox="0 0 24 24" fill="none" xmlns="http://www.w3.org/2000/svg">
<path fill-rule="evenodd" clip-rule="evenodd" d="M7 15C7.55228 15 8 15.4477 8 16V18C8 18.5523 7.55228 19 7 19H5C4.44772 19 4 18.5523 4 18V16C4 15.4477 4.44772 15 5 15H7ZM5.40039 16.2002C5.28993 16.2002 5.2002 16.2899 5.2002 16.4004V17.5996C5.2002 17.7101 5.28993 17.7998 5.40039 17.7998H6.59961C6.71007 17.7998 6.7998 17.7101 6.7998 17.5996V16.4004C6.7998 16.2899 6.71007 16.2002 6.59961 16.2002H5.40039Z" fill="#10100F"/>
<path fill-rule="evenodd" clip-rule="evenodd" d="M13 15C13.5523 15 14 15.4477 14 16V18C14 18.5523 13.5523 19 13 19H11C10.4477 19 10 18.5523 10 18V16C10 15.4477 10.4477 15 11 15H13ZM11.4004 16.2002C11.2899 16.2002 11.2002 16.2899 11.2002 16.4004V17.5996C11.2002 17.7101 11.2899 17.7998 11.4004 17.7998H12.5996C12.7101 17.7998 12.7998 17.7101 12.7998 17.5996V16.4004C12.7998 16.2899 12.7101 16.2002 12.5996 16.2002H11.4004Z" fill="#10100F"/>
<path fill-rule="evenodd" clip-rule="evenodd" d="M19 15C19.5523 15 20 15.4477 20 16V18C20 18.5523 19.5523 19 19 19H17C16.4477 19 16 18.5523 16 18V16C16 15.4477 16.4477 15 17 15H19ZM17.4004 16.2002C17.2899 16.2002 17.2002 16.2899 17.2002 16.4004V17.5996C17.2002 17.7101 17.2899 17.7998 17.4004 17.7998H18.5996C18.7101 17.7998 18.7998 17.7101 18.7998 17.5996V16.4004C18.7998 16.2899 18.7101 16.2002 18.5996 16.2002H17.4004Z" fill="#10100F"/>
<path fill-rule="evenodd" clip-rule="evenodd" d="M6.4707 2C7.90651 2 9.0701 3.16385 9.07031 4.59961V11.2275C9.07031 11.6065 9.54874 11.7735 9.78418 11.4766L12.2168 8.40723C13.1584 7.219 15.0702 7.88437 15.0703 9.40039V11.4727C15.0705 11.8365 15.5177 12.0113 15.7646 11.7441L19.2236 7.99902C20.2118 6.9294 21.999 7.62877 21.999 9.08496V19.4004C21.9988 20.8361 20.8352 21.9999 19.3994 22H4.59961C3.16389 21.9998 2.00007 20.8361 2 19.4004V4.60059C2 3.16478 3.16385 2.00021 4.59961 2H6.4707ZM4.59961 3.2002C3.82659 3.20041 3.2002 3.82752 3.2002 4.60059V19.4004C3.20027 20.1734 3.82664 20.7996 4.59961 20.7998H19.3994C20.1724 20.7997 20.7986 20.1734 20.7988 19.4004V9.08496C20.7988 8.72092 20.3525 8.54607 20.1055 8.81348L16.6455 12.5586C15.6573 13.6275 13.8713 12.9285 13.8711 11.4727V9.40039C13.8709 9.02148 13.3926 8.85532 13.1572 9.15234L10.7246 12.2217C9.78296 13.4099 7.87109 12.7437 7.87109 11.2275V4.59961C7.87088 3.82659 7.24377 3.2002 6.4707 3.2002H4.59961Z" fill="#10100F"/>
</svg>
