<svg width="24" height="24" viewBox="0 0 24 24" fill="none" xmlns="http://www.w3.org/2000/svg">
<path d="M12 8C11.4477 8 11 7.55229 11 7C11 6.44772 11.4477 6 12 6C12.5523 6 13 6.44772 13 7C13 7.55228 12.5523 8 12 8Z" fill="#10100F"/>
<path d="M12 17.9971C11.5859 17.9971 11.2501 17.6612 11.25 17.2471V10.5C11.25 10.0858 11.5858 9.75 12 9.75C12.4142 9.75 12.75 10.0858 12.75 10.5V17.2471C12.7499 17.6612 12.4141 17.9971 12 17.9971Z" fill="#10100F"/>
<path fill-rule="evenodd" clip-rule="evenodd" d="M12 23C5.92487 23 0.999999 18.0751 1 12C1 5.92487 5.92487 0.999999 12 1C18.0751 1 23 5.92487 23 12C23 18.0751 18.0751 23 12 23ZM12 21.7998C17.4124 21.7998 21.7998 17.4124 21.7998 12C21.7998 6.58761 17.4124 2.2002 12 2.2002C6.58761 2.20019 2.2002 6.58761 2.2002 12C2.20019 17.4124 6.58761 21.7998 12 21.7998Z" fill="#10100F"/>
</svg>
