<svg width="24" height="24" viewBox="0 0 24 24" fill="none" xmlns="http://www.w3.org/2000/svg">
<path d="M12 10.2002C12.9941 10.2002 13.7998 11.0059 13.7998 12C13.7998 12.9941 12.9941 13.7998 12 13.7998C11.0059 13.7998 10.2002 12.9941 10.2002 12C10.2002 11.0059 11.0059 10.2002 12 10.2002Z" fill="#10100F"/>
<path fill-rule="evenodd" clip-rule="evenodd" d="M15 7.2002C15.9941 7.2002 16.7998 8.00589 16.7998 9V15C16.7998 15.9941 15.9941 16.7998 15 16.7998H9C8.00589 16.7998 7.2002 15.9941 7.2002 15V9C7.2002 8.00589 8.00589 7.2002 9 7.2002H15ZM12 9C10.3431 9 9 10.3431 9 12C9 13.6569 10.3431 15 12 15C13.6569 15 15 13.6569 15 12C15 10.3431 13.6569 9 12 9ZM15.25 8C14.8358 8 14.5 8.33579 14.5 8.75C14.5 9.16421 14.8358 9.5 15.25 9.5C15.6642 9.5 16 9.16421 16 8.75C16 8.33579 15.6642 8 15.25 8Z" fill="#10100F"/>
<path fill-rule="evenodd" clip-rule="evenodd" d="M12 1C18.0751 1 23 5.92487 23 12C23 18.0751 18.0751 23 12 23C5.92487 23 1 18.0751 1 12C1 5.92487 5.92487 1 12 1ZM9 6C7.34315 6 6 7.34315 6 9V15C6 16.6569 7.34315 18 9 18H15C16.6569 18 18 16.6569 18 15V9C18 7.34315 16.6569 6 15 6H9Z" fill="#10100F"/>
</svg>
