<svg width="24" height="24" viewBox="0 0 24 24" fill="none" xmlns="http://www.w3.org/2000/svg">
<path fill-rule="evenodd" clip-rule="evenodd" d="M19.1006 18.4004C19.1003 19.8361 17.9358 21 16.5 21H7.5C6.06441 20.9998 4.90067 19.836 4.90039 18.4004V7.10059H19.1006V18.4004ZM8.5 16.4004C8.16894 16.4006 7.9006 16.6689 7.90039 17C7.90065 17.331 8.16897 17.6004 8.5 17.6006H12.5C12.8312 17.6006 13.1003 17.3311 13.1006 17C13.1004 16.6688 12.8312 16.4004 12.5 16.4004H8.5ZM8.5 13.4004C8.16894 13.4006 7.9006 13.6689 7.90039 14C7.90065 14.331 8.16897 14.6004 8.5 14.6006H15.5C15.8312 14.6006 16.1003 14.3311 16.1006 14C16.1004 13.6688 15.8312 13.4004 15.5 13.4004H8.5ZM8.5 10.4004C8.16894 10.4006 7.9006 10.6689 7.90039 11C7.90065 11.331 8.16897 11.6004 8.5 11.6006H15.5C15.8312 11.6006 16.1003 11.3311 16.1006 11C16.1004 10.6688 15.8312 10.4004 15.5 10.4004H8.5Z" fill="#10100F"/>
<path d="M19.5 3C21.433 3 23 4.567 23 6.5C23 8.04837 21.9942 9.36084 20.6006 9.82227V6.40039H20.5889C20.5413 6.11659 20.2963 5.90039 19.999 5.90039H3.99902C3.70171 5.90039 3.45677 6.11659 3.40918 6.40039H3.40039V6.48926C3.40033 6.49284 3.39941 6.4964 3.39941 6.5C3.39941 6.50326 3.40034 6.50652 3.40039 6.50977V9.82227C2.00627 9.36121 1 8.04873 1 6.5C1 4.567 2.567 3 4.5 3H19.5Z" fill="#10100F"/>
</svg>
