<svg width="24" height="24" viewBox="0 0 24 24" fill="none" xmlns="http://www.w3.org/2000/svg">
<path d="M12.5 16.4004C12.8314 16.4004 13.0996 16.6686 13.0996 17C13.0996 17.3314 12.8314 17.5996 12.5 17.5996H8.5C8.16863 17.5996 7.90039 17.3314 7.90039 17C7.9004 16.6686 8.16864 16.4004 8.5 16.4004H12.5Z" fill="#10100F"/>
<path d="M15.5 13.4004C15.8314 13.4004 16.0996 13.6686 16.0996 14C16.0996 14.3314 15.8314 14.5996 15.5 14.5996H8.5C8.16863 14.5996 7.90039 14.3314 7.90039 14C7.9004 13.6686 8.16864 13.4004 8.5 13.4004H15.5Z" fill="#10100F"/>
<path d="M15.5 10.4004C15.8314 10.4004 16.0996 10.6686 16.0996 11C16.0996 11.3314 15.8314 11.5996 15.5 11.5996H8.5C8.16863 11.5996 7.90039 11.3314 7.90039 11C7.9004 10.6686 8.16864 10.4004 8.5 10.4004H15.5Z" fill="#10100F"/>
<path fill-rule="evenodd" clip-rule="evenodd" d="M19.5 3C21.433 3 23 4.567 23 6.5C23 8.433 21.433 10 19.5 10H19.0996V18.4004C19.0994 19.8362 17.9358 21 16.5 21H7.5C6.06418 21 4.90058 19.8362 4.90039 18.4004V10H4.5C2.567 10 1 8.433 1 6.5C1 4.567 2.567 3 4.5 3H19.5ZM6.09961 7.09961V18.4004C6.0998 19.1734 6.72692 19.7998 7.5 19.7998H16.5C17.2731 19.7998 17.9002 19.1734 17.9004 18.4004V7.09961H6.09961ZM4.5 4.2002C3.22975 4.2002 2.2002 5.22975 2.2002 6.5C2.2002 7.77025 3.22975 8.7998 4.5 8.7998H4.90039V7.09961H4C3.66863 7.09961 3.40039 6.83137 3.40039 6.5C3.4004 6.16864 3.66864 5.90039 4 5.90039H20C20.3314 5.90039 20.5996 6.16864 20.5996 6.5C20.5996 6.83137 20.3314 7.09961 20 7.09961H19.0996V8.7998H19.5C20.7703 8.7998 21.7998 7.77026 21.7998 6.5C21.7998 5.22975 20.7703 4.2002 19.5 4.2002H4.5Z" fill="#10100F"/>
</svg>
