<svg width="24" height="24" viewBox="0 0 24 24" fill="none" xmlns="http://www.w3.org/2000/svg">
<path fill-rule="evenodd" clip-rule="evenodd" d="M10.9657 10.2138L10.8191 9.56875C10.7413 9.22618 10.7 8.86865 10.7 8.5C10.7 5.84903 12.849 3.7 15.5 3.7C18.151 3.7 20.3 5.84903 20.3 8.5C20.3 11.151 18.151 13.3 15.5 13.3C15.1322 13.3 14.7755 13.2589 14.4336 13.1814L13.788 13.0351L11.7383 15.0849L10.7106 15.1367C9.89281 15.1779 9.22062 15.7962 9.11134 16.6076L8.95737 17.751L7.9578 17.7052C6.98941 17.6609 6.18005 18.4341 6.18005 19.4035V20.3H3.7V17.4962L10.9657 10.2138ZM15.5 14.5C18.8137 14.5 21.5 11.8137 21.5 8.5C21.5 5.18629 18.8137 2.5 15.5 2.5C12.1863 2.5 9.5 5.18629 9.5 8.5C9.5 8.95869 9.55147 9.40535 9.64895 9.83454L2.79208 16.7072C2.60504 16.8947 2.5 17.1487 2.5 17.4135V20.5C2.5 21.0523 2.94771 21.5 3.5 21.5H6.38005C6.93233 21.5 7.38005 21.0523 7.38005 20.5V19.4035C7.38005 19.1183 7.61809 18.8909 7.90291 18.904L9.0854 18.9581C9.60304 18.9818 10.053 18.6062 10.1222 18.0926L10.3006 16.7678C10.3327 16.5291 10.5305 16.3473 10.771 16.3351L11.8756 16.2795C12.1231 16.267 12.3571 16.1631 12.5323 15.9878L14.1685 14.3517C14.5967 14.4488 15.0424 14.5 15.5 14.5ZM17.3 7.5C17.3 7.94183 16.9418 8.3 16.5 8.3C16.0582 8.3 15.7 7.94183 15.7 7.5C15.7 7.05817 16.0582 6.7 16.5 6.7C16.9418 6.7 17.3 7.05817 17.3 7.5ZM18.5 7.5C18.5 8.60457 17.6046 9.5 16.5 9.5C15.3954 9.5 14.5 8.60457 14.5 7.5C14.5 6.39543 15.3954 5.5 16.5 5.5C17.6046 5.5 18.5 6.39543 18.5 7.5Z" fill="#10100F"/>
</svg>
