<svg width="24" height="24" viewBox="0 0 24 24" fill="none" xmlns="http://www.w3.org/2000/svg">
<path d="M16.5 6.7002C16.9418 6.7002 17.2998 7.05817 17.2998 7.5C17.2998 7.94183 16.9418 8.2998 16.5 8.2998C16.0582 8.2998 15.7002 7.94183 15.7002 7.5C15.7002 7.05817 16.0582 6.7002 16.5 6.7002Z" fill="#10100F"/>
<path fill-rule="evenodd" clip-rule="evenodd" d="M15.5 2.5C18.8137 2.5 21.5 5.18629 21.5 8.5C21.5 11.8137 18.8137 14.5 15.5 14.5C15.0424 14.5 14.5972 14.4466 14.1689 14.3496L12.5322 15.9883C12.3571 16.1632 12.1232 16.2667 11.876 16.2793L10.7705 16.335C10.5303 16.3473 10.333 16.5292 10.3008 16.7676L10.1221 18.0928C10.0528 18.6062 9.60255 18.9817 9.08496 18.958L7.90332 18.9043C7.61855 18.8913 7.37996 19.1183 7.37988 19.4033V20.5C7.37988 21.0523 6.93217 21.5 6.37988 21.5H3.5C2.94772 21.5 2.5 21.0523 2.5 20.5V17.4131C2.50012 17.1484 2.60506 16.8944 2.79199 16.707L9.65039 9.83203C9.55322 9.40348 9.5 8.95795 9.5 8.5C9.5 5.18629 12.1863 2.5 15.5 2.5ZM16.5 5.5C15.3954 5.5 14.5 6.39543 14.5 7.5C14.5 8.60457 15.3954 9.5 16.5 9.5C17.6046 9.5 18.5 8.60457 18.5 7.5C18.5 6.39543 17.6046 5.5 16.5 5.5Z" fill="#10100F"/>
</svg>
