<svg width="24" height="24" viewBox="0 0 24 24" fill="none" xmlns="http://www.w3.org/2000/svg">
<path d="M6.5 15C6.77599 15.0002 6.99951 15.224 6.99951 15.5V16.5C6.99951 16.776 6.77599 16.9998 6.5 17H5.50008C5.22409 16.9998 4.99967 16.776 4.99967 16.5V15.5C4.99967 15.224 5.22409 15.0002 5.50008 15H6.5Z" fill="#10100F"/>
<path d="M14.9998 15C15.2759 15 15.4993 15.2239 15.4993 15.5V16.5C15.4993 16.7761 15.2759 17 14.9998 17H8.99935C8.72351 16.9996 8.49984 16.7759 8.49984 16.5V15.5C8.49984 15.2241 8.72351 15.0004 8.99935 15H14.9998Z" fill="#10100F"/>
<path d="M18.4999 15C18.7759 15.0001 18.9994 15.2239 18.9994 15.5V16.5C18.9994 16.7761 18.7759 16.9999 18.4999 17H17.5C17.224 16.9998 16.9996 16.776 16.9996 16.5V15.5C16.9996 15.224 17.224 15.0002 17.5 15H18.4999Z" fill="#10100F"/>
<path d="M6.5 11C6.77599 11.0002 6.99951 11.224 6.99951 11.5V12.5C6.99951 12.776 6.77599 12.9998 6.5 13H5.50008C5.22409 12.9998 4.99967 12.776 4.99967 12.5V11.5C4.99967 11.224 5.22409 11.0002 5.50008 11H6.5Z" fill="#10100F"/>
<path d="M10.4997 11C10.7758 11 11.0001 11.2239 11.0001 11.5V12.5C11.0001 12.7761 10.7758 13 10.4997 13H9.49976C9.22376 12.9998 8.99935 12.776 8.99935 12.5V11.5C8.99935 11.224 9.22376 11.0002 9.49976 11H10.4997Z" fill="#10100F"/>
<path d="M14.4993 11C14.7755 11 14.9998 11.2239 14.9998 11.5V12.5C14.9998 12.7761 14.7755 13 14.4993 13H13.4994C13.2235 12.9997 12.9999 12.776 12.9999 12.5V11.5C12.9999 11.224 13.2235 11.0003 13.4994 11H14.4993Z" fill="#10100F"/>
<path d="M18.4999 11C18.7759 11.0001 18.9994 11.2239 18.9994 11.5V12.5C18.9994 12.7761 18.7759 12.9999 18.4999 13H17.5C17.224 12.9998 16.9996 12.776 16.9996 12.5V11.5C16.9996 11.224 17.224 11.0002 17.5 11H18.4999Z" fill="#10100F"/>
<path d="M6.5 7C6.77599 7.00018 6.99951 7.22397 6.99951 7.5V8.5C6.99951 8.77603 6.77599 8.99982 6.5 9H5.50008C5.22409 8.99982 4.99967 8.77603 4.99967 8.5V7.5C4.99967 7.22397 5.22409 7.00018 5.50008 7H6.5Z" fill="#10100F"/>
<path d="M10.4997 7C10.7758 7 11.0001 7.22386 11.0001 7.5V8.5C11.0001 8.77614 10.7758 9 10.4997 9H9.49976C9.22376 8.99982 8.99935 8.77603 8.99935 8.5V7.5C8.99935 7.22397 9.22376 7.00018 9.49976 7H10.4997Z" fill="#10100F"/>
<path d="M14.4993 7C14.7755 7 14.9998 7.22386 14.9998 7.5V8.5C14.9998 8.77614 14.7755 9 14.4993 9H13.4994C13.2235 8.99969 12.9999 8.77595 12.9999 8.5V7.5C12.9999 7.22405 13.2235 7.00031 13.4994 7H14.4993Z" fill="#10100F"/>
<path d="M18.4999 7C18.7759 7.00013 18.9994 7.22394 18.9994 7.5V8.5C18.9994 8.77606 18.7759 8.99987 18.4999 9H17.5C17.224 8.99982 16.9996 8.77603 16.9996 8.5V7.5C16.9996 7.22397 17.224 7.00018 17.5 7H18.4999Z" fill="#10100F"/>
<path fill-rule="evenodd" clip-rule="evenodd" d="M19.0003 3C21.2093 3.00018 23 4.79097 23 7V17C23 19.209 21.2093 20.9998 19.0003 21H4.99967C2.79069 20.9998 1 19.209 1 17V7C1 4.79097 2.79069 3.00018 4.99967 3H19.0003ZM4.99967 4.2002C3.45343 4.20037 2.20044 5.45371 2.20044 7V17C2.20044 18.5463 3.45343 19.7996 4.99967 19.7998H19.0003C20.5466 19.7996 21.7996 18.5463 21.7996 17V7C21.7996 5.45371 20.5466 4.20037 19.0003 4.2002H4.99967Z" fill="#10100F"/>
</svg>
