<svg width="24" height="24" viewBox="0 0 24 24" fill="none" xmlns="http://www.w3.org/2000/svg">
<path fill-rule="evenodd" clip-rule="evenodd" d="M19.0003 3C21.2093 3.00018 23 4.79097 23 7V17C23 19.209 21.2093 20.9998 19.0003 21H4.99967C2.79069 20.9998 1 19.209 1 17V7C1 4.79097 2.79069 3.00018 4.99967 3H19.0003ZM5.50008 15C5.22394 15 4.99967 15.2239 4.99967 15.5V16.5C4.99967 16.7761 5.22394 17 5.50008 17H6.5C6.77614 17 7.00041 16.7761 7.00041 16.5V15.5C7.00041 15.2239 6.77614 15 6.5 15H5.50008ZM9.00024 15C8.7241 15 8.49984 15.2239 8.49984 15.5V16.5C8.49984 16.7761 8.7241 17 9.00024 17H14.9998C15.2759 17 15.5002 16.7761 15.5002 16.5V15.5C15.5002 15.2239 15.2759 15 14.9998 15H9.00024ZM17.5 15C17.2239 15 16.9996 15.2239 16.9996 15.5V16.5C16.9996 16.7761 17.2239 17 17.5 17H18.4999C18.7761 17 19.0003 16.7761 19.0003 16.5V15.5C19.0003 15.2239 18.7761 15 18.4999 15H17.5ZM5.50008 11C5.22394 11 4.99967 11.2239 4.99967 11.5V12.5C4.99967 12.7761 5.22394 13 5.50008 13H6.5C6.77614 13 7.00041 12.7761 7.00041 12.5V11.5C7.00041 11.2239 6.77614 11 6.5 11H5.50008ZM9.49976 11C9.22373 11.0001 9.00024 11.2239 9.00024 11.5V12.5C9.00024 12.7761 9.22373 12.9999 9.49976 13H10.4997C10.7758 13 11.0001 12.7761 11.0001 12.5V11.5C11.0001 11.2239 10.7758 11 10.4997 11H9.49976ZM13.5003 11C13.2242 11 12.9999 11.2239 12.9999 11.5V12.5C12.9999 12.7761 13.2242 13 13.5003 13H14.5002C14.7763 12.9999 14.9998 12.7761 14.9998 12.5V11.5C14.9998 11.2239 14.7763 11.0001 14.5002 11H13.5003ZM17.5 11C17.2239 11 16.9996 11.2239 16.9996 11.5V12.5C16.9996 12.7761 17.2239 13 17.5 13H18.4999C18.7761 13 19.0003 12.7761 19.0003 12.5V11.5C19.0003 11.2239 18.7761 11 18.4999 11H17.5ZM5.50008 7C5.22394 7 4.99967 7.22386 4.99967 7.5V8.5C4.99967 8.77614 5.22394 9 5.50008 9H6.5C6.77614 9 7.00041 8.77614 7.00041 8.5V7.5C7.00041 7.22386 6.77614 7 6.5 7H5.50008ZM9.49976 7C9.22373 7.00013 9.00024 7.22394 9.00024 7.5V8.5C9.00024 8.77606 9.22373 8.99987 9.49976 9H10.4997C10.7758 9 11.0001 8.77614 11.0001 8.5V7.5C11.0001 7.22386 10.7758 7 10.4997 7H9.49976ZM13.5003 7C13.2242 7 12.9999 7.22386 12.9999 7.5V8.5C12.9999 8.77614 13.2242 9 13.5003 9H14.5002C14.7763 8.99987 14.9998 8.77606 14.9998 8.5V7.5C14.9998 7.22394 14.7763 7.00013 14.5002 7H13.5003ZM17.5 7C17.2239 7 16.9996 7.22386 16.9996 7.5V8.5C16.9996 8.77614 17.2239 9 17.5 9H18.4999C18.7761 9 19.0003 8.77614 19.0003 8.5V7.5C19.0003 7.22386 18.7761 7 18.4999 7H17.5Z" fill="#10100F"/>
</svg>
