<svg width="24" height="24" viewBox="0 0 24 24" fill="none" xmlns="http://www.w3.org/2000/svg">
<path fill-rule="evenodd" clip-rule="evenodd" d="M11.7743 3.49926C11.9192 3.43949 12.0818 3.43949 12.2267 3.49926L20.2805 6.82173C20.7799 7.02777 20.7663 7.73981 20.2593 7.92658L12.2055 10.8938C12.1879 10.9003 12.1701 10.9059 12.1521 10.9107C12.0347 10.9417 11.91 10.9361 11.7952 10.8938L3.7416 7.92659C3.23464 7.73981 3.22102 7.02777 3.72045 6.82173L11.7743 3.49926ZM3.76567 12.8039C3.26177 12.6016 3.27211 11.8847 3.78164 11.697L7.14284 10.4586L11.3804 12.0198C11.7805 12.1673 12.2201 12.1673 12.6202 12.0198L16.8576 10.4587L20.2186 11.697C20.7281 11.8847 20.7384 12.6016 20.2345 12.8039L12.2211 16.0217C12.1978 16.031 12.1741 16.0389 12.15 16.0451C12.0276 16.0772 11.8975 16.0694 11.7789 16.0217L3.76567 12.8039ZM17.1459 15.3373L12.6681 17.1353C12.2393 17.3075 11.7606 17.3075 11.3318 17.1353L6.85382 15.3372L3.7084 16.4961C3.20355 16.6821 3.18725 17.3901 3.683 17.5991L11.7694 21.0087C11.9167 21.0708 12.0829 21.0708 12.2302 21.0087L20.3166 17.5991C20.8123 17.3901 20.796 16.6821 20.2912 16.4961L17.1459 15.3373Z" fill="#10100F"/>
</svg>
