<svg width="24" height="24" viewBox="0 0 24 24" fill="none" xmlns="http://www.w3.org/2000/svg">
<path fill-rule="evenodd" clip-rule="evenodd" d="M6.03309 14.1059L3.29386 15.1151C1.76762 15.6774 1.71833 17.818 3.21709 18.45L11.3034 21.8595C11.7489 22.0473 12.2513 22.0473 12.6968 21.8595L20.7831 18.45C22.2819 17.818 22.2326 15.6774 20.7063 15.1151L17.967 14.1059L16.3061 14.7728L20.2915 16.2411C20.7963 16.4271 20.8126 17.1352 20.3169 17.3442L12.2305 20.7538C12.0832 20.8159 11.917 20.8159 11.7697 20.7538L3.68331 17.3442C3.18756 17.1352 3.20385 16.4271 3.7087 16.2411L7.69401 14.7729L6.03309 14.1059Z" fill="#10100F"/>
<path fill-rule="evenodd" clip-rule="evenodd" d="M6.27509 9.24464L3.367 10.316C1.82662 10.8836 1.79535 13.0509 3.31872 13.6626L11.3321 16.8803C11.761 17.0525 12.2397 17.0525 12.6685 16.8803L20.6819 13.6626C22.2053 13.0509 22.174 10.8836 20.6336 10.316L17.7255 9.24464L15.9899 9.88406L20.2188 11.4421C20.7283 11.6298 20.7386 12.3467 20.2348 12.549L12.2213 15.7668C12.0795 15.8237 11.9211 15.8237 11.7793 15.7668L3.76587 12.549C3.26198 12.3467 3.27232 11.6298 3.78184 11.4421L8.01067 9.88407L6.27509 9.24464Z" fill="#10100F"/>
<path fill-rule="evenodd" clip-rule="evenodd" d="M12.2267 3.24434C12.0819 3.18457 11.9192 3.18457 11.7743 3.24434L3.72051 6.56681C3.22108 6.77284 3.23471 7.48489 3.74166 7.67166L11.7955 10.6389C11.9278 10.6876 12.0732 10.6876 12.2056 10.6389L20.2594 7.67166C20.7664 7.48489 20.78 6.77284 20.2806 6.56681L12.2267 3.24434ZM11.3167 2.13502C11.7547 1.95434 12.2464 1.95434 12.6844 2.13502L20.7382 5.4575C22.2481 6.08038 22.2069 8.23303 20.6743 8.79767L12.6204 11.7649C12.2203 11.9123 11.7808 11.9123 11.3806 11.7649L3.32682 8.79767C1.7942 8.23303 1.753 6.08038 3.26289 5.4575L11.3167 2.13502Z" fill="#10100F"/>
</svg>
