<svg width="24" height="24" viewBox="0 0 24 24" fill="none" xmlns="http://www.w3.org/2000/svg">
<path fill-rule="evenodd" clip-rule="evenodd" d="M12.0889 3C13.2022 3 14.1055 3.89543 14.1055 5V5.55176C14.353 4.90158 14.9353 4.39769 15.6768 4.28125L18.6641 3.8125C19.7636 3.64016 20.7958 4.38473 20.9697 5.47559L22.9746 18.0498C23.1486 19.1408 22.3985 20.1653 21.2988 20.3379L18.3125 20.8066C17.213 20.9792 16.18 20.2353 16.0059 19.1445L14.1055 7.22363V19C14.1055 20.1046 13.2022 21 12.0889 21H9.06543C8.46298 21 7.92212 20.7379 7.55273 20.3223C7.18341 20.7379 6.64243 20.9999 6.04004 21H3.01562C1.9024 20.9999 1 20.1045 1 19V8C1 6.89551 1.9024 6.00013 3.01562 6H6.04004C6.4079 6.00006 6.75295 6.09774 7.0498 6.26855V5C7.0498 3.89544 7.95211 3.00002 9.06543 3H12.0889ZM2.20996 18.0996V19C2.20996 19.4417 2.57041 19.7997 3.01562 19.7998H6.04004C6.48521 19.7996 6.8457 19.4417 6.8457 19V18.0996H2.20996ZM8.25879 19C8.25879 19.4418 8.62011 19.7998 9.06543 19.7998H12.0889C12.5342 19.7998 12.8955 19.4418 12.8955 19V18.1006H8.25879V19ZM17.0527 18.0273L17.2012 18.957C17.271 19.3931 17.6834 19.691 18.123 19.6221L21.1094 19.1533C21.5492 19.0843 21.8499 18.6737 21.7803 18.2373L21.6025 17.124L17.0527 18.0273ZM2.20996 16.9004H6.8457V10.0996H2.20996V16.9004ZM8.25879 16.9004H12.8955V7.10059L8.25879 7.09961V16.9004ZM15.5068 8.33691L16.8633 16.8408L21.4131 15.9385L20.0869 7.61816L15.5068 8.33691ZM3.01562 7.2002C2.57041 7.20033 2.20996 7.55826 2.20996 8V8.89941L6.8457 8.90039V8C6.8457 7.55829 6.48521 7.20038 6.04004 7.2002H3.01562ZM19.7754 5.66309C19.7058 5.22669 19.2924 4.92901 18.8525 4.99805L15.8662 5.4668C15.4263 5.53584 15.1257 5.94544 15.1953 6.38184L15.3184 7.15137L19.8975 6.43262L19.7754 5.66309ZM9.06543 4.2002C8.62011 4.20022 8.25879 4.55818 8.25879 5V5.90039H12.8955V5C12.8955 4.55817 12.5342 4.2002 12.0889 4.2002H9.06543Z" fill="#10100F"/>
</svg>
