<svg width="24" height="24" viewBox="0 0 24 24" fill="none" xmlns="http://www.w3.org/2000/svg">
<path d="M6.99316 19C6.99316 20.1045 6.09767 20.9999 4.99316 21H3C1.89543 21 1 20.1046 1 19V18.0996H6.99316V19Z" fill="#10100F"/>
<path d="M13.9854 19C13.9854 20.1045 13.0899 20.9999 11.9854 21H9.99219C8.88762 21 7.99219 20.1046 7.99219 19V18.0996H13.9854V19Z" fill="#10100F"/>
<path d="M22.9697 18.2432C23.1418 19.3336 22.5244 20.3381 21.5908 20.4863L19.0537 20.8887C18.1199 21.0364 17.2225 20.2713 17.0498 19.1807L16.9297 18.417L22.8506 17.4893L22.9697 18.2432Z" fill="#10100F"/>
<path d="M22.6631 16.3047L16.7422 17.2314L15.3662 8.53027L21.2783 7.54883L22.6631 16.3047Z" fill="#10100F"/>
<path d="M6.99316 16.9004H1V10.0996H6.99316V16.9004Z" fill="#10100F"/>
<path d="M13.9854 16.9004H7.99219V7.09961H13.9854V16.9004Z" fill="#10100F"/>
<path d="M4.99316 6C6.09767 6.00008 6.99316 6.89548 6.99316 8V8.90039H1V8C1 6.89543 1.89543 6 3 6H4.99316Z" fill="#10100F"/>
<path d="M18.9355 3.69531C19.8694 3.54753 20.7659 4.31153 20.9385 5.40234L21.0908 6.36328L15.1787 7.34473L15.0195 6.34082C14.847 5.25017 15.4639 4.2462 16.3975 4.09766L18.9355 3.69531Z" fill="#10100F"/>
<path d="M11.9854 3C13.0899 3.00008 13.9854 3.89548 13.9854 5V5.90039H7.99219V5C7.99219 3.89543 8.88762 3 9.99219 3H11.9854Z" fill="#10100F"/>
</svg>
