<svg width="24" height="24" viewBox="0 0 24 24" fill="none" xmlns="http://www.w3.org/2000/svg">
<path fill-rule="evenodd" clip-rule="evenodd" d="M12 1C18.0751 1 23 5.92487 23 12C23 18.0751 18.0751 23 12 23C5.92487 23 1 18.0751 1 12C1 5.92487 5.92487 1 12 1ZM13.4404 17.8242C12.9789 17.938 12.4967 18 12 18C11.5647 18 11.1405 17.9523 10.7314 17.8643L7.75879 20.8369C9.04222 21.454 10.4807 21.7998 12 21.7998C13.5754 21.7998 15.063 21.4262 16.3818 20.7656L13.4404 17.8242ZM3.94531 17.5791C4.67364 18.6286 5.60095 19.5284 6.67383 20.2246L9.46191 17.4365C8.28368 16.8855 7.31432 15.9638 6.7041 14.8203L3.94531 17.5791ZM17.3672 14.6797C16.7864 15.8406 15.8415 16.7863 14.6807 17.3672L17.4551 20.1416C18.516 19.4293 19.4294 18.5151 20.1416 17.4541L17.3672 14.6797ZM12 7.2002C9.34903 7.2002 7.2002 9.34903 7.2002 12C7.2002 14.651 9.34903 16.7998 12 16.7998C14.651 16.7998 16.7998 14.651 16.7998 12C16.7998 9.34903 14.651 7.2002 12 7.2002ZM3.2334 7.61719C2.57272 8.93613 2.2002 10.4244 2.2002 12C2.2002 13.6313 2.60058 15.1685 3.30566 16.5215L6.21875 13.6084C6.07663 13.0965 6 12.5572 6 12C6 11.5031 6.06092 11.0204 6.1748 10.5586L3.2334 7.61719ZM17.8643 10.7314C17.9523 11.1405 18 11.5647 18 12C18 12.4967 17.938 12.9789 17.8242 13.4404L20.7656 16.3809C21.4259 15.0622 21.7998 13.5751 21.7998 12C21.7998 10.4807 21.454 9.04222 20.8369 7.75879L17.8643 10.7314ZM14.8203 6.7041C15.9638 7.31432 16.8855 8.28367 17.4365 9.46191L20.2246 6.67383C19.5285 5.60117 18.6293 4.67357 17.5801 3.94531L14.8203 6.7041ZM6.54492 3.85742C5.48408 4.56954 4.56962 5.48316 3.85742 6.54395L6.63184 9.31836C7.2127 8.15783 8.15871 7.21254 9.31934 6.63184L6.54492 3.85742ZM12 2.2002C10.4247 2.2002 8.93691 2.57296 7.61816 3.2334L10.5596 6.1748C11.0211 6.06107 11.5034 6 12 6C12.5572 6 13.0965 6.07663 13.6084 6.21875L16.5215 3.30566C15.1685 2.60058 13.6313 2.2002 12 2.2002Z" fill="#10100F"/>
</svg>
