<svg width="24" height="24" viewBox="0 0 24 24" fill="none" xmlns="http://www.w3.org/2000/svg">
<path d="M17.3398 21.6152C15.7582 22.4955 13.9385 23 12 23C10.1941 23 8.49173 22.5612 6.98828 21.79L10.7959 17.8779C11.185 17.9572 11.5875 18 12 18C12.5566 18 13.095 17.9221 13.6064 17.7803L17.3398 21.6152Z" fill="#10100F"/>
<path d="M6.7666 14.9346C7.39064 16.0451 8.35778 16.9355 9.52441 17.4648L5.9209 21.167C4.87428 20.4715 3.95348 19.6024 3.2002 18.5996L6.7666 14.9346Z" fill="#10100F"/>
<path d="M21.0107 18.3037C20.2898 19.3323 19.3985 20.231 18.376 20.96L14.8125 17.2998C15.9388 16.7009 16.8517 15.7545 17.4072 14.6025L21.0107 18.3037Z" fill="#10100F"/>
<path d="M6.2627 10.2383C6.09185 10.7953 6 11.387 6 12C6 12.6052 6.09015 13.1894 6.25684 13.7402L2.52051 17.5781C1.55585 15.9423 1 14.0365 1 12C1 9.95648 1.55848 8.04385 2.5293 6.4043L6.2627 10.2383Z" fill="#10100F"/>
<path d="M21.6543 6.72754C22.5112 8.29325 23 10.0893 23 12C23 13.9035 22.515 15.6933 21.6641 17.2549L17.8486 13.3359C17.9464 12.9062 18 12.4593 18 12C18 11.5323 17.944 11.0776 17.8428 10.6406L21.6543 6.72754Z" fill="#10100F"/>
<path d="M18.3613 3.0293C19.3847 3.75627 20.2776 4.6529 21 5.67969L17.3984 9.37891C16.8393 8.22935 15.9231 7.28662 14.7949 6.69141L18.3613 3.0293Z" fill="#10100F"/>
<path d="M9.54199 6.52637C8.37391 7.05172 7.40492 7.93938 6.77734 9.04688L3.21094 5.38477C3.96591 4.38329 4.88865 3.51596 5.93652 2.82227L9.54199 6.52637Z" fill="#10100F"/>
<path d="M12 1C13.9315 1 15.7456 1.49972 17.3232 2.37402L13.5859 6.21289C13.0807 6.07474 12.5491 6 12 6C11.5959 6 11.2011 6.04003 10.8193 6.11621L7.00586 2.2002C8.50493 1.43471 10.2013 1 12 1Z" fill="#10100F"/>
</svg>
