<svg width="24" height="24" viewBox="0 0 24 24" fill="none" xmlns="http://www.w3.org/2000/svg">
<path d="M16.9541 20C16.9541 21.6568 15.6109 23 13.9541 23H10.4092C8.7525 22.9998 7.40918 21.6567 7.40918 20V18.0996H16.9541V20Z" fill="#10100F"/>
<path fill-rule="evenodd" clip-rule="evenodd" d="M12.1816 1C16.7003 1 20.3632 4.66303 20.3633 9.18164C20.3633 10.2117 20.1736 11.1976 19.8262 12.1055C19.7961 12.1841 19.7623 12.2609 19.7275 12.3369C19.7175 12.3589 19.7067 12.3805 19.6963 12.4023C19.6686 12.4602 19.6404 12.5177 19.6104 12.5742C19.6024 12.5893 19.5941 12.6042 19.5859 12.6191C19.5569 12.6726 19.526 12.7249 19.4951 12.7773C19.4786 12.8054 19.4623 12.8336 19.4453 12.8613C19.427 12.8911 19.4084 12.9207 19.3896 12.9502C19.348 13.0156 19.3036 13.0793 19.2598 13.1436C19.1914 13.2439 19.1212 13.3432 19.0488 13.4414C19.013 13.4901 18.9779 13.5395 18.9414 13.5879C18.89 13.656 18.8384 13.7242 18.7861 13.792C18.7469 13.8429 18.7083 13.8944 18.6689 13.9453C18.5413 14.1102 18.4137 14.2756 18.29 14.4434C18.1351 14.6535 17.9862 14.8677 17.8525 15.0908L17.7275 15.3076C17.425 15.8616 17.2308 16.4159 17.1123 16.9004H7.28125C7.15729 16.3403 6.95432 15.8336 6.7168 15.3936C6.35416 14.7218 5.85743 14.1247 5.40234 13.5088C5.32149 13.3994 5.24125 13.2899 5.16406 13.1787C5.05082 13.0156 4.94383 12.8493 4.84375 12.6797C4.81839 12.6367 4.79379 12.5934 4.76953 12.5498C4.74392 12.5038 4.7186 12.4578 4.69434 12.4111C4.67532 12.3746 4.6568 12.3378 4.63867 12.3008C4.60716 12.2364 4.57742 12.1713 4.54883 12.1055C4.53763 12.0797 4.52537 12.0544 4.51465 12.0283C4.47781 11.9388 4.44377 11.8475 4.41309 11.7549C4.14524 10.9458 4 10.0806 4 9.18164C4.0001 4.66309 7.66309 1.0001 12.1816 1ZM13.7686 4.53418C11.8166 3.75342 10.0608 4.35246 8.83301 5.29688C8.22152 5.76722 7.72649 6.33173 7.38086 6.87988C7.04685 7.40964 6.80957 7.99415 6.80957 8.5C6.80975 8.83121 7.07793 9.0996 7.40918 9.09961C7.74044 9.09961 8.00861 8.83122 8.00879 8.5C8.00879 8.32421 8.11265 7.97071 8.39648 7.52051C8.66874 7.08871 9.06806 6.62988 9.56445 6.24805C10.5525 5.48808 11.8652 5.06573 13.3223 5.64844C13.6299 5.77151 13.9795 5.62115 14.1025 5.31348C14.2254 5.00594 14.076 4.6573 13.7686 4.53418Z" fill="#10100F"/>
</svg>
