<svg width="24" height="24" viewBox="0 0 24 24" fill="none" xmlns="http://www.w3.org/2000/svg">
<path fill-rule="evenodd" clip-rule="evenodd" d="M12.1818 2.2C8.32587 2.2 5.2 5.32587 5.2 9.18182C5.2 9.95112 5.32398 10.6891 5.55212 11.3781C5.71331 11.865 6.01425 12.3254 6.43896 12.8933C6.50649 12.9836 6.57865 13.0783 6.65386 13.1771C7.01398 13.6499 7.44421 14.2149 7.77286 14.8237C8.09058 15.4123 8.36505 16.1118 8.50668 16.9H15.8826C16.03 16.1763 16.3193 15.3145 16.8231 14.4736C17.1044 14.0042 17.4519 13.5558 17.744 13.179C17.8181 13.0832 17.8887 12.9921 17.9538 12.9065C18.3047 12.4442 18.5554 12.0678 18.7051 11.6764C19.001 10.9033 19.1636 10.063 19.1636 9.18182C19.1636 5.32587 16.0378 2.2 12.1818 2.2ZM8.60909 20.0002V18.1H15.7545V20C15.7545 20.9939 14.9484 21.8 13.9541 21.8H10.4096C9.41512 21.8 8.60909 20.9939 8.60909 20.0002ZM4 9.18182C4 4.66312 7.66312 1 12.1818 1C16.7005 1 20.3636 4.66312 20.3636 9.18182C20.3636 10.2118 20.1733 11.1974 19.8259 12.1053C19.5649 12.7874 19.1176 13.3653 18.6687 13.9453C18.3811 14.3168 18.0929 14.6892 17.8525 15.0904C17.1581 16.2492 16.9545 17.4476 16.9545 18.0455V20C16.9545 21.6569 15.6109 23 13.9541 23H10.4096C8.7527 23 7.40909 21.657 7.40909 20.0002V18.0455C7.40909 17.0192 7.1074 16.1172 6.71688 15.3937C6.43725 14.8757 6.07746 14.4023 5.71873 13.9304C5.1988 13.2464 4.6811 12.5653 4.41293 11.7553C4.14501 10.9461 4 10.0809 4 9.18182ZM8.00918 8.49964C8.00918 8.32384 8.11224 7.97038 8.39612 7.52013C8.66839 7.0883 9.06833 6.63011 9.56476 6.24827C10.5528 5.48826 11.8655 5.06515 13.3227 5.64802C13.6304 5.77109 13.9796 5.62144 14.1026 5.31377C14.2257 5.0061 14.076 4.65691 13.7684 4.53385C11.8165 3.75308 10.061 4.35267 8.83314 5.2971C8.22162 5.76747 7.72667 6.33193 7.38104 6.88012C7.04703 7.40988 6.80918 7.99379 6.80918 8.49964C6.80918 8.83101 7.07781 9.09964 7.40918 9.09964C7.74055 9.09964 8.00918 8.83101 8.00918 8.49964Z" fill="#10100F"/>
</svg>
