<svg width="24" height="24" viewBox="0 0 24 24" fill="none" xmlns="http://www.w3.org/2000/svg">
<path fill-rule="evenodd" clip-rule="evenodd" d="M18.5481 13.013L12.4771 19.5769C12.2021 19.8742 11.798 19.8742 11.523 19.5769L4.42255 11.9C2.79248 10.1376 2.79248 7.24432 4.42255 5.48193C6.00298 3.77321 8.52366 3.77321 10.1041 5.48193C11.1268 6.58764 12.8743 6.58635 13.8961 5.48155C15.4766 3.77282 17.9973 3.77282 19.5777 5.48155C21.2078 7.24393 21.2078 10.1372 19.5777 11.8996L18.5625 12.9972C18.5577 13.0025 18.5529 13.0077 18.5481 13.013ZM20.4587 12.7144C22.5141 10.4921 22.5141 6.88905 20.4586 4.66674C18.4032 2.44442 15.0706 2.44442 13.0152 4.66673C12.4679 5.2584 11.5323 5.25879 10.9851 4.66712C8.9296 2.44481 5.59705 2.44481 3.54159 4.66712C1.48614 6.88944 1.48614 10.4925 3.54159 12.7148L10.6421 20.3917C11.3921 21.2026 12.6081 21.2026 13.3581 20.3917L20.4587 12.7144Z" fill="#10100F"/>
</svg>
