<svg width="24" height="24" viewBox="0 0 24 24" fill="none" xmlns="http://www.w3.org/2000/svg">
<path fill-rule="evenodd" clip-rule="evenodd" d="M14 18C14.8956 18 15.6534 18.5888 15.9082 19.4004H19.4004C19.7315 19.4006 19.9998 19.6689 20 20C19.9997 20.331 19.7314 20.6004 19.4004 20.6006H15.9082C15.6532 21.4117 14.8953 22 14 22C13.1047 22 12.3468 21.4117 12.0918 20.6006H0.599609C0.268581 20.6004 0.000263628 20.331 0 20C0.00021094 19.6689 0.268548 19.4006 0.599609 19.4004H12.0918C12.3466 18.5888 13.1044 18 14 18ZM15.9893 20.1914C15.9952 20.1287 16 20.0653 16 20.001L15.999 20C15.999 20.0646 15.9952 20.1284 15.9893 20.1914Z" fill="#10100F"/>
<path fill-rule="evenodd" clip-rule="evenodd" d="M6 13.5C6.89563 13.5 7.65344 14.0888 7.9082 14.9004H19.4004C19.7315 14.9006 19.9998 15.1689 20 15.5C19.9997 15.831 19.7314 16.1004 19.4004 16.1006H7.9082C7.65316 16.9117 6.89531 17.5 6 17.5C5.10469 17.5 4.34684 16.9117 4.0918 16.1006H0.599609C0.268581 16.1004 0.000263628 15.831 0 15.5C0.00021094 15.1689 0.268548 14.9006 0.599609 14.9004H4.0918C4.34656 14.0888 5.10437 13.5 6 13.5ZM7.98926 15.6914C7.99524 15.6287 7.99997 15.5653 8 15.501L7.99902 15.5C7.99902 15.5646 7.99525 15.6284 7.98926 15.6914Z" fill="#10100F"/>
<path d="M10 2C10.3312 2 10.6004 2.26842 10.6006 2.59961V3.40039H10.8809C11.543 3.40039 12.1783 3.66272 12.6465 4.13086C12.8808 4.36514 12.8807 4.74516 12.6465 4.97949C12.4122 5.21382 12.0322 5.21382 11.7979 4.97949C11.5547 4.73641 11.2247 4.59961 10.8809 4.59961H9.44434C8.85529 4.59966 8.37793 5.07793 8.37793 5.66699C8.37815 6.25587 8.85542 6.73335 9.44434 6.7334H10.5557C11.8075 6.73347 12.8223 7.74818 12.8223 9C12.8222 10.2368 11.8316 11.2396 10.6006 11.2637V11.9004C10.6004 12.2316 10.3312 12.5 10 12.5C9.66894 12.4998 9.40061 12.2314 9.40039 11.9004V11.2666H8.88867C8.37403 11.2665 7.88058 11.0621 7.5166 10.6982L7.35352 10.5352C7.11925 10.3008 7.11921 9.92083 7.35352 9.68652C7.58783 9.45236 7.96786 9.45231 8.20215 9.68652L8.36523 9.84961C8.50416 9.98837 8.69231 10.0664 8.88867 10.0664H10.5557C11.1447 10.0663 11.622 9.58901 11.6221 9C11.6221 8.41095 11.1447 7.93366 10.5557 7.93359H9.44434C8.19265 7.93355 7.17795 6.91864 7.17773 5.66699C7.17773 4.42986 8.16887 3.42583 9.40039 3.40234V2.59961C9.40061 2.26855 9.66894 2.00022 10 2Z" fill="#10100F"/>
</svg>
