<svg width="24" height="24" viewBox="0 0 24 24" fill="none" xmlns="http://www.w3.org/2000/svg">
<path fill-rule="evenodd" clip-rule="evenodd" d="M12 1C18.0751 1 23 5.92487 23 12C23 18.0751 18.0751 23 12 23C5.92487 23 1 18.0751 1 12C1 5.92487 5.92487 1 12 1ZM7.19824 16H9.26367V9.33301H7.19824V16ZM14.5732 9.12988C13.1588 9.13005 12.5635 10.2314 12.5635 10.2314V9.33301H10.583V16H12.5635V12.5C12.5636 11.5626 12.9952 11.0049 13.8213 11.0049C14.5806 11.0049 14.9452 11.5408 14.9453 12.5V16H17V11.7793C17 9.99339 15.9873 9.12988 14.5732 9.12988ZM8.2207 6C7.54637 6.00018 7 6.55122 7 7.23047C7.00015 7.90959 7.54646 8.45978 8.2207 8.45996C8.89509 8.45996 9.44126 7.9097 9.44141 7.23047C9.44141 6.55111 8.89518 6 8.2207 6Z" fill="#10100F"/>
</svg>
