<svg width="24" height="24" viewBox="0 0 24 24" fill="none" xmlns="http://www.w3.org/2000/svg">
<path d="M7 16C7.55228 16 8 16.4477 8 17C8 17.5523 7.55228 18 7 18C6.44772 18 6 17.5523 6 17C6 16.4477 6.44772 16 7 16Z" fill="#10100F"/>
<path d="M17.5 16.4004C17.8314 16.4004 18.1006 16.6686 18.1006 17C18.1005 17.3313 17.8313 17.5996 17.5 17.5996H10.5C10.1688 17.5994 9.90044 17.3312 9.90039 17C9.90039 16.6688 10.1688 16.4006 10.5 16.4004H17.5Z" fill="#10100F"/>
<path d="M7 11C7.55228 11 8 11.4477 8 12C8 12.5523 7.55228 13 7 13C6.44772 13 6 12.5523 6 12C6 11.4477 6.44772 11 7 11Z" fill="#10100F"/>
<path d="M17.5 11.4004C17.8314 11.4004 18.1006 11.6686 18.1006 12C18.1005 12.3313 17.8313 12.5996 17.5 12.5996H10.5C10.1688 12.5994 9.90044 12.3312 9.90039 12C9.90039 11.6688 10.1688 11.4006 10.5 11.4004H17.5Z" fill="#10100F"/>
<path d="M7 6C7.55228 6 8 6.44772 8 7C8 7.55228 7.55228 8 7 8C6.44772 8 6 7.55228 6 7C6 6.44772 6.44772 6 7 6Z" fill="#10100F"/>
<path d="M17.5 6.40039C17.8314 6.40039 18.1006 6.66863 18.1006 7C18.1005 7.33133 17.8313 7.59961 17.5 7.59961H10.5C10.1688 7.5994 9.90044 7.3312 9.90039 7C9.90039 6.66876 10.1688 6.4006 10.5 6.40039H17.5Z" fill="#10100F"/>
<path fill-rule="evenodd" clip-rule="evenodd" d="M18 2C20.2091 2 22 3.79086 22 6V18C22 20.2091 20.2091 22 18 22H6C3.79086 22 2 20.2091 2 18V6C2 3.79086 3.79086 2 6 2H18ZM6 3.2002C4.4536 3.2002 3.2002 4.4536 3.2002 6V18C3.2002 19.5464 4.4536 20.7998 6 20.7998H18C19.5464 20.7998 20.7998 19.5464 20.7998 18V6C20.7998 4.4536 19.5464 3.2002 18 3.2002H6Z" fill="#10100F"/>
</svg>
