<svg width="24" height="24" viewBox="0 0 24 24" fill="none" xmlns="http://www.w3.org/2000/svg">
<path fill-rule="evenodd" clip-rule="evenodd" d="M18 2C20.2091 2 22 3.79086 22 6V18C22 20.2091 20.2091 22 18 22H6L5.79395 21.9951C3.68056 21.8879 2 20.14 2 18V6C2 3.79086 3.79086 2 6 2H18ZM7 16C6.44772 16 6 16.4477 6 17C6 17.5523 6.44772 18 7 18C7.55228 18 8 17.5523 8 17C8 16.4477 7.55228 16 7 16ZM10.5 16.4004C10.1688 16.4006 9.90039 16.6688 9.90039 17C9.90044 17.3312 10.1688 17.5994 10.5 17.5996H17.5C17.8313 17.5996 18.1005 17.3313 18.1006 17C18.1006 16.6686 17.8314 16.4004 17.5 16.4004H10.5ZM7 11C6.44772 11 6 11.4477 6 12C6 12.5523 6.44772 13 7 13C7.55228 13 8 12.5523 8 12C8 11.4477 7.55228 11 7 11ZM10.5 11.4004C10.1688 11.4006 9.90039 11.6688 9.90039 12C9.90044 12.3312 10.1688 12.5994 10.5 12.5996H17.5C17.8313 12.5996 18.1005 12.3313 18.1006 12C18.1006 11.6686 17.8314 11.4004 17.5 11.4004H10.5ZM7 6C6.44772 6 6 6.44772 6 7C6 7.55228 6.44772 8 7 8C7.55228 8 8 7.55228 8 7C8 6.44772 7.55228 6 7 6ZM10.5 6.40039C10.1688 6.4006 9.90039 6.66876 9.90039 7C9.90044 7.3312 10.1688 7.5994 10.5 7.59961H17.5C17.8313 7.59961 18.1005 7.33133 18.1006 7C18.1006 6.66863 17.8314 6.40039 17.5 6.40039H10.5Z" fill="#10100F"/>
</svg>
