<svg width="24" height="24" viewBox="0 0 24 24" fill="none" xmlns="http://www.w3.org/2000/svg">
<path fill-rule="evenodd" clip-rule="evenodd" d="M1.59988 11.9923C1.26851 11.9923 0.998182 12.2614 1.01597 12.5923C1.3275 18.3884 6.12604 22.9923 11.9999 22.9923C18.075 22.9923 22.9999 18.0674 22.9999 11.9923C22.9999 6.11847 18.396 1.31993 12.5998 1.0084C12.2689 0.990616 11.9999 1.26095 11.9999 1.59232C11.9999 1.92369 12.2692 2.19041 12.6 2.21039C17.7329 2.52045 21.7999 6.78144 21.7999 11.9923C21.7999 17.4047 17.4123 21.7923 11.9999 21.7923C6.789 21.7923 2.52802 17.7253 2.21796 12.5924C2.19798 12.2616 1.93126 11.9923 1.59988 11.9923Z" fill="#10100F"/>
</svg>
