<svg width="24" height="24" viewBox="0 0 24 24" fill="none" xmlns="http://www.w3.org/2000/svg">
<path fill-rule="evenodd" clip-rule="evenodd" d="M17.2061 9.00488C19.3194 9.11211 21 10.86 21 13V19C21 21.2091 19.2091 23 17 23H7L6.79395 22.9951C4.68056 22.8879 3 21.14 3 19V13C3 10.86 4.68056 9.11211 6.79395 9.00488L7 9V6C7 3.23858 9.23858 1 12 1C14.7614 1 17 3.23858 17 6V9L17.2061 9.00488ZM15.7998 9V6C15.7998 3.90132 14.0987 2.2002 12 2.2002C9.90132 2.2002 8.2002 3.90132 8.2002 6V9H15.7998ZM12 14C11.4477 14 11 14.4477 11 15C11 15.2749 11.1114 15.5234 11.291 15.7041C11.3673 15.7808 11.4004 15.8918 11.4004 16V17.5C11.4004 17.8314 11.6686 18.0996 12 18.0996C12.3313 18.0996 12.5996 17.8313 12.5996 17.5V16C12.5996 15.8918 12.6326 15.7818 12.709 15.7051C12.8889 15.5244 13 15.2752 13 15C13 14.4477 12.5523 14 12 14Z" fill="#10100F"/>
</svg>
