<svg width="24" height="24" viewBox="0 0 24 24" fill="none" xmlns="http://www.w3.org/2000/svg">
<path d="M12 14C12.5523 14 13 14.4477 13 15C13 15.2737 12.89 15.5216 12.7119 15.7021C12.6355 15.7796 12.5996 15.8912 12.5996 16V17.5C12.5996 17.8314 12.3314 18.0996 12 18.0996C11.6686 18.0996 11.4004 17.8314 11.4004 17.5V16C11.4004 15.8912 11.3645 15.7796 11.2881 15.7021C11.11 15.5216 11 15.2737 11 15C11 14.4477 11.4477 14 12 14Z" fill="#10100F"/>
<path fill-rule="evenodd" clip-rule="evenodd" d="M12 1C14.7614 1 17 3.23858 17 6V9L17.2061 9.00488C19.3194 9.11211 21 10.86 21 13V19C21 21.2091 19.2091 23 17 23H7C4.79086 23 3 21.2091 3 19V13C3 10.86 4.68056 9.11211 6.79395 9.00488L7 9V6C7 3.23858 9.23858 1 12 1ZM7 10.2002C5.4536 10.2002 4.2002 11.4536 4.2002 13V19C4.2002 20.5464 5.4536 21.7998 7 21.7998H17C18.5464 21.7998 19.7998 20.5464 19.7998 19V13C19.7998 11.4536 18.5464 10.2002 17 10.2002H7ZM12 2.2002C9.90132 2.2002 8.2002 3.90132 8.2002 6V9H15.7998V6C15.7998 3.90132 14.0987 2.2002 12 2.2002Z" fill="#10100F"/>
</svg>
