<svg width="24" height="24" viewBox="0 0 24 24" fill="none" xmlns="http://www.w3.org/2000/svg">
<path d="M15.4004 2.00012C17.9406 2.00033 19.9998 4.05953 20 6.59973V8.09973C20 8.43097 19.7316 8.70011 19.4004 8.70032C19.069 8.70032 18.7998 8.4311 18.7998 8.09973V6.59973C18.7996 4.72227 17.2779 3.20053 15.4004 3.20032H6.59961C4.72215 3.20053 3.20041 4.72227 3.2002 6.59973V17.4005C3.20041 19.278 4.72215 20.7997 6.59961 20.7999H15.4004C17.278 20.7997 18.7998 19.2772 18.7998 17.3995V15.8995C18.8001 15.5684 19.0692 15.2999 19.4004 15.2999C19.7314 15.3001 19.9997 15.5685 20 15.8995V17.3995C20 19.9399 17.9407 21.9999 15.4004 22.0001H6.59961C4.05941 21.9999 2.00021 19.9407 2 17.4005V6.59973C2.00021 4.05953 4.05941 2.00033 6.59961 2.00012H15.4004Z" fill="#10100F"/>
<path d="M10.0752 7.57532C10.3094 7.34114 10.6895 7.34137 10.9238 7.57532C11.1581 7.80963 11.1581 8.18963 10.9238 8.42395L7.94824 11.3995H21.4004C21.7316 11.3997 22 11.6689 22 12.0001C21.9999 12.3313 21.7315 12.5995 21.4004 12.5997H7.94824L10.9238 15.5753C11.1581 15.8096 11.1581 16.1896 10.9238 16.424C10.6895 16.6583 10.3095 16.6583 10.0752 16.424L6.0752 12.424C5.87049 12.2189 5.84532 11.9028 5.99902 11.67L6.0752 11.5753L10.0752 7.57532Z" fill="#10100F"/>
</svg>
