<svg width="24" height="24" viewBox="0 0 24 24" fill="none" xmlns="http://www.w3.org/2000/svg">
<path d="M22.8955 6.09473C22.9629 6.38572 23 6.68853 23 7V17C23 19.2091 21.2091 21 19 21H5C2.79086 21 1 19.2091 1 17V7C1 6.70531 1.0323 6.41815 1.09277 6.1416L9.71777 11.3867C11.1319 12.1948 12.8681 12.1947 14.2822 11.3867L22.8955 6.09473Z" fill="#10100F"/>
<path d="M19 3C20.4655 3 21.7467 3.78831 22.4434 4.96387L13.6875 10.3447C12.6422 10.942 11.3587 10.942 10.3135 10.3447L1.5332 5.00488C2.22418 3.8068 3.51758 3 5 3H19Z" fill="#10100F"/>
</svg>
