<svg width="24" height="24" viewBox="0 0 24 24" fill="none" xmlns="http://www.w3.org/2000/svg">
<path d="M22 18C22 20.2091 20.2091 22 18 22H6C3.79086 22 2 20.2091 2 18V10.6787L9.36816 14.4131L9.37207 14.415C11.0351 15.24 12.9864 15.24 14.6494 14.415C14.6521 14.4137 14.6555 14.4125 14.6582 14.4111C14.6614 14.4095 14.6648 14.408 14.668 14.4062L22 10.4512V18Z" fill="#10100F"/>
<path fill-rule="evenodd" clip-rule="evenodd" d="M16.6455 2C17.9404 2 19 3.05961 19 4.35449V10.7051L14.1074 13.3447C12.7832 13.9982 11.2317 13.9973 9.9082 13.3418L4.99902 10.8535V6.12695L5 6.12598V4.35449C5 3.05961 6.05961 2 7.35449 2H16.6455ZM8.59961 7.87402C8.26842 7.87423 8 8.14337 8 8.47461C8.00018 8.80569 8.26853 9.07401 8.59961 9.07422H15.4004C15.7315 9.07401 15.9998 8.80569 16 8.47461C16 8.14337 15.7316 7.87423 15.4004 7.87402H8.59961ZM8.59961 4.93164C8.26847 4.93185 8.00008 5.20008 8 5.53125C8 5.86249 8.26842 6.13163 8.59961 6.13184H15.4004C15.7316 6.13162 16 5.86249 16 5.53125C15.9999 5.20008 15.7315 4.93185 15.4004 4.93164H8.59961Z" fill="#10100F"/>
<path d="M3.79883 10.2451L2.05078 9.35938C2.23216 8.23256 2.88414 7.26298 3.79883 6.65918V10.2451Z" fill="#10100F"/>
<path d="M20.2002 6.66211C21.0534 7.22619 21.6788 8.10699 21.9053 9.13867L20.2002 10.0576V6.66211Z" fill="#10100F"/>
</svg>
