<svg width="24" height="24" viewBox="0 0 24 24" fill="none" xmlns="http://www.w3.org/2000/svg">
<path fill-rule="evenodd" clip-rule="evenodd" d="M19 3C21.2091 3 23 4.79086 23 7V17C23 19.2091 21.2091 21 19 21H5C2.79086 21 1 19.2091 1 17V7C1 4.79086 2.79086 3 5 3H19ZM14.2822 11.3867C12.868 12.1948 11.132 12.1948 9.71777 11.3867L2.2002 7.09082V17C2.2002 18.5464 3.4536 19.7998 5 19.7998H19C20.5464 19.7998 21.7998 18.5464 21.7998 17V7.09082L14.2822 11.3867ZM5 4.2002C3.86356 4.2002 2.88708 4.87786 2.44824 5.85059L10.3135 10.3447C11.3587 10.9419 12.6413 10.9419 13.6865 10.3447L21.5508 5.85059C21.1119 4.87806 20.1363 4.2002 19 4.2002H5Z" fill="#10100F"/>
</svg>
