<svg width="24" height="24" viewBox="0 0 24 24" fill="none" xmlns="http://www.w3.org/2000/svg">
<path d="M15.3774 7.87402C15.7082 7.87404 15.9761 8.14325 15.9761 8.47461C15.9759 8.80581 15.7081 9.0742 15.3774 9.07422H8.58936C8.25867 9.07422 7.99091 8.80582 7.99072 8.47461C7.99072 8.14324 8.25855 7.87402 8.58936 7.87402H15.3774Z" fill="#10100F"/>
<path d="M15.3774 4.93164C15.708 4.93179 15.9759 5.20015 15.9761 5.53125C15.9761 5.86253 15.7081 6.13168 15.3774 6.13184H8.58936C8.25855 6.13184 7.99072 5.86262 7.99072 5.53125C7.99093 5.20006 8.25868 4.93164 8.58936 4.93164H15.3774Z" fill="#10100F"/>
<path fill-rule="evenodd" clip-rule="evenodd" d="M16.689 2C18.3122 2.00013 19.6381 3.32803 19.6382 4.9541V6.36426C21.0121 6.99644 21.9663 8.38627 21.9663 10V10.1641C22.0112 10.2948 22.0098 10.4323 21.9663 10.5566V18C21.9663 20.2091 20.1785 22 17.9731 22H5.99365C3.7883 22 2.00049 20.2091 2.00049 18V10C2.00049 8.38238 2.95916 6.98943 4.33838 6.35938V4.9541C4.3385 3.32795 5.66421 2 7.2876 2H16.689ZM14.6304 14.415H14.6284C12.9692 15.2395 11.0223 15.2406 9.36279 14.417L3.19873 11.4287V18C3.19873 19.5464 4.4499 20.7998 5.99365 20.7998H17.9731C19.5169 20.7998 20.7681 19.5464 20.7681 18V11.3457L14.6304 14.415ZM7.2876 3.2002C6.32581 3.2002 5.53674 3.99069 5.53662 4.9541V11.2285L9.89307 13.3408C11.2175 13.9988 12.7717 13.9988 14.0962 13.3408L18.4399 11.168V4.9541C18.4398 3.99077 17.6506 3.20033 16.689 3.2002H7.2876ZM4.33838 7.74609C3.6477 8.25569 3.19873 9.07466 3.19873 10V10.0957L4.33838 10.6484V7.74609ZM19.6382 10.5693L20.7681 10.0039V10C20.7681 9.07894 20.3234 8.263 19.6382 7.75293V10.5693Z" fill="#10100F"/>
</svg>
