<svg width="24" height="24" viewBox="0 0 24 24" fill="none" xmlns="http://www.w3.org/2000/svg">
<path d="M12.5273 6.67578C14.7213 6.67595 16.4998 8.45448 16.5 10.6484V15.8652C16.4998 16.4919 15.9919 16.9998 15.3652 17H14.6006V22.4004C14.6004 22.7316 14.3312 23 14 23C13.6689 22.9998 13.4006 22.7315 13.4004 22.4004V17H10.6006V22.4004C10.6004 22.7316 10.3312 23 10 23C9.66899 22.9998 9.4006 22.7315 9.40039 22.4004V17H8.63477C8.00814 16.9998 7.5002 16.4919 7.5 15.8652V10.6484C7.50017 8.45448 9.2787 6.67595 11.4727 6.67578H12.5273Z" fill="#10100F"/>
<path fill-rule="evenodd" clip-rule="evenodd" d="M12.001 1C13.2547 1.00013 14.2715 2.01675 14.2715 3.27051C14.2714 4.52416 13.2546 5.54089 12.001 5.54102C10.7472 5.54102 9.7306 4.52423 9.73047 3.27051C9.73047 2.01667 10.7471 1 12.001 1ZM12.001 2.2002C11.4099 2.2002 10.9307 2.67941 10.9307 3.27051C10.9308 3.86149 11.41 4.34082 12.001 4.34082C12.5919 4.34069 13.0712 3.86141 13.0713 3.27051C13.0713 2.67949 12.592 2.20032 12.001 2.2002Z" fill="#10100F"/>
</svg>
