<svg width="24" height="24" viewBox="0 0 24 24" fill="none" xmlns="http://www.w3.org/2000/svg">
<path d="M12 6.2002C13.5464 6.2002 14.7998 7.4536 14.7998 9C14.7998 10.5464 13.5464 11.7998 12 11.7998C10.4536 11.7998 9.2002 10.5464 9.2002 9C9.2002 7.4536 10.4536 6.2002 12 6.2002Z" fill="#10100F"/>
<path fill-rule="evenodd" clip-rule="evenodd" d="M12 1C16.4183 1 20 4.58172 20 9C20 10.5294 19.5697 11.9578 18.8252 13.1729L13.7324 21.999C12.9626 23.3326 11.0373 23.3326 10.2676 21.999L5.1748 13.1738C4.43008 11.9586 4 10.5297 4 9C4 4.58172 7.58172 1 12 1ZM12 5C9.79086 5 8 6.79086 8 9C8 11.2091 9.79086 13 12 13C14.2091 13 16 11.2091 16 9C16 6.79086 14.2091 5 12 5Z" fill="#10100F"/>
</svg>
