<svg width="24" height="24" viewBox="0 0 24 24" fill="none" xmlns="http://www.w3.org/2000/svg">
<path d="M16.4004 21.7598L12.5889 20.2354V15.123C13.1464 14.9774 13.6576 14.6215 13.9854 14.0537L16.4004 9.87012V21.7598Z" fill="#10100F"/>
<path d="M10.0166 14.0537C10.3395 14.6132 10.8407 14.9666 11.3887 15.1162V20.2441L7.60059 21.7588V9.86719L10.0166 14.0537Z" fill="#10100F"/>
<path d="M2 9.11816C2.00019 8.37497 2.78247 7.89133 3.44727 8.22363L6.40039 9.69922V21.6992L2.55273 19.7764C2.21407 19.6069 2 19.2605 2 18.8818V9.11816Z" fill="#10100F"/>
<path d="M20.5527 8.22363C21.2175 7.89133 21.9998 8.37497 22 9.11816V18.8818C22 19.2605 21.7859 19.6069 21.4473 19.7764L17.6006 21.6992V9.69922L20.5527 8.22363Z" fill="#10100F"/>
<path d="M12 5.38184C12.5422 5.38184 12.9814 5.82113 12.9814 6.36328C12.9814 6.90549 12.5422 7.34473 12 7.34473C11.4578 7.34466 11.0186 6.90545 11.0186 6.36328C11.0186 5.82117 11.4579 5.3819 12 5.38184Z" fill="#10100F"/>
<path fill-rule="evenodd" clip-rule="evenodd" d="M12 2C14.4098 2 16.3631 3.95349 16.3633 6.36328C16.3633 7.1931 16.1326 7.9694 15.7305 8.62988L12.9463 13.4541C12.9209 13.4981 12.8923 13.5387 12.8623 13.5771C12.853 13.5893 12.8417 13.5997 12.832 13.6113C12.8134 13.6332 12.7953 13.6549 12.7754 13.6748C12.3779 14.0805 11.7288 14.1037 11.3018 13.7451C11.2961 13.7404 11.2907 13.7353 11.2852 13.7305C11.2604 13.7088 11.236 13.6865 11.2129 13.6621C11.206 13.655 11.2 13.647 11.1934 13.6396C11.1432 13.5837 11.0955 13.5231 11.0557 13.4541L8.28125 8.64746C7.87239 7.98313 7.63672 7.20058 7.63672 6.36328C7.63685 3.95357 9.59028 2.00013 12 2ZM12 4.18164C10.7951 4.18171 9.81843 5.15842 9.81836 6.36328C9.81836 7.25222 10.3506 8.0155 11.1133 8.35547C11.3844 8.47636 11.684 8.5449 12 8.54492C12.0762 8.54492 12.1514 8.53985 12.2256 8.53223C12.4592 8.50766 12.6817 8.44646 12.8877 8.35449C13.6497 8.01428 14.1816 7.25179 14.1816 6.36328C14.1816 5.15838 13.2049 4.18164 12 4.18164Z" fill="#10100F"/>
</svg>
