<svg width="24" height="24" viewBox="0 0 24 24" fill="none" xmlns="http://www.w3.org/2000/svg">
<path fill-rule="evenodd" clip-rule="evenodd" d="M12 5C14.2091 5 16 6.79086 16 9C16 11.2091 14.2091 13 12 13C9.79086 13 8 11.2091 8 9C8 6.79086 9.79086 5 12 5ZM12 6.2002C10.4536 6.2002 9.2002 7.4536 9.2002 9C9.2002 10.5464 10.4536 11.7998 12 11.7998C13.5464 11.7998 14.7998 10.5464 14.7998 9C14.7998 7.4536 13.5464 6.2002 12 6.2002Z" fill="#10100F"/>
<path fill-rule="evenodd" clip-rule="evenodd" d="M12 1C16.4183 1 20 4.58172 20 9C20 10.5219 19.5747 11.945 18.8369 13.1562L13.7324 21.999C12.9626 23.3326 11.0373 23.3326 10.2676 21.999L5.18164 13.1865C4.43228 11.9687 4 10.5348 4 9C4 4.58172 7.58172 1 12 1ZM12 2.2002C8.24446 2.2002 5.2002 5.24446 5.2002 9C5.2002 10.3066 5.56771 11.5234 6.2041 12.5576L6.21289 12.5723L11.3076 21.3994C11.6156 21.9325 12.3855 21.9327 12.6934 21.3994L17.8047 12.5439L17.8125 12.5312C18.4389 11.5028 18.7998 10.2954 18.7998 9C18.7998 5.24446 15.7555 2.2002 12 2.2002Z" fill="#10100F"/>
</svg>
