<svg width="24" height="24" viewBox="0 0 24 24" fill="none" xmlns="http://www.w3.org/2000/svg">
<path fill-rule="evenodd" clip-rule="evenodd" d="M12 4.18164C13.2049 4.18164 14.1816 5.15838 14.1816 6.36328C14.1816 7.56824 13.205 8.54492 12 8.54492C10.7951 8.54486 9.81836 7.56819 9.81836 6.36328C9.81843 5.15842 10.7951 4.18171 12 4.18164ZM12 5.38184C11.4579 5.3819 11.0186 5.82117 11.0186 6.36328C11.0186 6.90545 11.4578 7.34466 12 7.34473C12.5422 7.34473 12.9814 6.90549 12.9814 6.36328C12.9814 5.82113 12.5422 5.38184 12 5.38184Z" fill="#10100F"/>
<path fill-rule="evenodd" clip-rule="evenodd" d="M12 2C14.4098 2 16.3631 3.95349 16.3633 6.36328C16.3633 7.19048 16.1332 7.96392 15.7334 8.62305L15.3242 9.33008L16.583 9.83398C16.7051 9.88276 16.8343 9.90539 16.9629 9.9043C16.9752 9.90353 16.9875 9.90138 17 9.90137C17.0061 9.90137 17.0125 9.90216 17.0186 9.90234C17.1503 9.89387 17.2806 9.8601 17.4014 9.7998L20.5527 8.22461C21.2176 7.89216 22 8.37576 22 9.11914V18.8828C21.9997 19.2612 21.7858 19.6081 21.4473 19.7773L17.4014 21.7998C17.1461 21.9273 16.848 21.9399 16.583 21.834L12.3711 20.1494C12.1329 20.0542 11.8671 20.0542 11.6289 20.1494L7.41699 21.834C7.15198 21.9399 6.85395 21.9273 6.59863 21.7998L2.55273 19.7773C2.21424 19.6081 2.0003 19.2612 2 18.8828V9.11914C2 8.37576 2.78236 7.89216 3.44727 8.22461L6.59863 9.7998C6.71936 9.8601 6.84972 9.89387 6.98145 9.90234C6.98762 9.90215 6.99378 9.90137 7 9.90137C7.01237 9.90137 7.02492 9.90356 7.03711 9.9043C7.16567 9.90539 7.29495 9.88276 7.41699 9.83398L8.67578 9.33008L9.28125 10.3799L7.8623 10.9482C7.77669 10.9825 7.68878 11.0092 7.60059 11.0322V20.4678L11.1826 19.0352C11.2502 19.0081 11.3193 18.9849 11.3887 18.9648V13.8115C11.2584 13.7232 11.1429 13.6051 11.0557 13.4541L8.28516 8.65332C7.87403 7.9877 7.63672 7.20309 7.63672 6.36328C7.63685 3.95357 9.59028 2.00013 12 2ZM12.9453 13.4541C12.853 13.614 12.7288 13.7366 12.5889 13.8262V18.959C12.6658 18.9804 12.7426 19.0052 12.8174 19.0352L16.4004 20.4678V11.0322C16.3119 11.0092 16.2236 10.9826 16.1377 10.9482L14.7188 10.3799L12.9453 13.4541ZM3.2002 18.7598L6.40039 20.3594V11.0059C6.2852 10.9705 6.17087 10.9287 6.06152 10.874L3.2002 9.44238V18.7598ZM17.9385 10.874C17.8295 10.9285 17.7154 10.9695 17.6006 11.0049V20.3584L20.7998 18.7598V9.44238L17.9385 10.874ZM12 3.2002C10.253 3.20033 8.83705 4.61631 8.83691 6.36328C8.83691 6.97385 9.00836 7.54097 9.30566 8.02246L9.31543 8.03809L12.001 12.6904L14.7012 8.01172L14.708 8.00098C14.9972 7.5242 15.1641 6.96487 15.1641 6.36328C15.1639 4.61623 13.7471 3.2002 12 3.2002Z" fill="#10100F"/>
</svg>
