<svg width="24" height="24" viewBox="0 0 24 24" fill="none" xmlns="http://www.w3.org/2000/svg">
<path fill-rule="evenodd" clip-rule="evenodd" d="M5 2C6.65685 2 8 3.34315 8 5C8 5.61132 7.81594 6.17912 7.50195 6.65332L8.91406 8.06543C9.76392 7.39794 10.8355 7 12 7C13.5403 7 14.9178 7.69671 15.835 8.79199L17.0801 8.12109C17.0292 7.92234 17 7.71461 17 7.5C17 6.11929 18.1193 5 19.5 5C20.8807 5 22 6.11929 22 7.5C22 8.88071 20.8807 10 19.5 10C18.7656 10 18.1078 9.68098 17.6504 9.17676L16.4922 9.80176C16.8174 10.4652 17 11.2113 17 12C17 14.7615 14.7614 17 12 17C10.9976 17 10.0638 16.7052 9.28125 16.1973C9.00265 16.0164 8.74346 15.8083 8.50684 15.5771L7.30371 17.0791C7.73814 17.5995 8 18.2691 8 19C8 20.6569 6.65685 22 5 22C3.34315 22 2 20.6569 2 19C2 17.3431 3.34315 16 5 16C5.49249 16 5.95619 16.1207 6.36621 16.3311L7.73828 14.6162C7.27009 13.8551 7 12.9591 7 12C7.00001 10.8355 7.39794 9.76392 8.06543 8.91406L6.65332 7.50195C6.17912 7.81594 5.61132 8 5 8C3.34315 8 2 6.65685 2 5C2 3.34315 3.34315 2 5 2ZM5 17.2002C4.00589 17.2002 3.2002 18.0059 3.2002 19C3.2002 19.9941 4.00589 20.7998 5 20.7998C5.99411 20.7998 6.7998 19.9941 6.7998 19C6.7998 18.0059 5.99411 17.2002 5 17.2002ZM12 8.2002C11.1138 8.2002 10.3013 8.50238 9.65527 9.00977L9.29395 9.29395L9.00977 9.65527C8.50235 10.3013 8.20021 11.1137 8.2002 12C8.2002 12.7308 8.40552 13.4099 8.76074 13.9873L9.00684 14.3887L9.34473 14.7188C10.0309 15.389 10.9664 15.7998 12 15.7998C14.0987 15.7998 15.7998 14.0987 15.7998 12C15.7998 11.3983 15.6605 10.8328 15.4141 10.3301L15.2119 9.91699L14.915 9.5625C14.2161 8.72779 13.1703 8.2002 12 8.2002ZM19.5 6.2002C18.782 6.2002 18.2002 6.78203 18.2002 7.5C18.2002 8.21797 18.782 8.7998 19.5 8.7998C20.218 8.7998 20.7998 8.21797 20.7998 7.5C20.7998 6.78203 20.218 6.2002 19.5 6.2002ZM5 3.2002C4.00589 3.2002 3.2002 4.00589 3.2002 5C3.2002 5.99411 4.00589 6.7998 5 6.7998C5.99411 6.7998 6.7998 5.99411 6.7998 5C6.7998 4.00589 5.99411 3.2002 5 3.2002Z" fill="#10100F"/>
<path fill-rule="evenodd" clip-rule="evenodd" d="M19.5 17C20.8807 17 22 18.1193 22 19.5C22 20.8807 20.8807 22 19.5 22C18.1193 22 17 20.8807 17 19.5C17 18.1193 18.1193 17 19.5 17ZM19.5 18.2002C18.782 18.2002 18.2002 18.782 18.2002 19.5C18.2002 20.218 18.782 20.7998 19.5 20.7998C20.218 20.7998 20.7998 20.218 20.7998 19.5C20.7998 18.782 20.218 18.2002 19.5 18.2002Z" fill="#10100F"/>
</svg>
