<svg width="24" height="24" viewBox="0 0 24 24" fill="none" xmlns="http://www.w3.org/2000/svg">
<path d="M5 2C6.65685 2 8 3.34315 8 5C8 5.61151 7.81515 6.17903 7.50098 6.65332L8.91406 8.06641C9.764 7.39869 10.8353 7 12 7C13.5403 7 14.9178 7.69672 15.835 8.79199L17.0801 8.12109C17.0292 7.92234 17 7.71461 17 7.5C17 6.11929 18.1193 5 19.5 5C20.8807 5 22 6.11929 22 7.5C22 8.88071 20.8807 10 19.5 10C18.7656 10 18.1078 9.68098 17.6504 9.17676L16.4912 9.80078C16.8168 10.4645 17 11.2108 17 12C17 14.7614 14.7614 17 12 17C10.6402 17 9.40821 16.456 8.50684 15.5752L7.30371 17.0791C7.73814 17.5995 8 18.2691 8 19C8 20.6569 6.65685 22 5 22C3.34315 22 2 20.6569 2 19C2 17.3431 3.34315 16 5 16C5.49218 16 5.95541 16.121 6.36523 16.3311L7.73828 14.6152C7.27034 13.8543 7 12.9588 7 12C7 10.8358 7.39823 9.76481 8.06543 8.91504L6.65234 7.50195C6.17828 7.81566 5.61102 8 5 8C3.34315 8 2 6.65685 2 5C2 3.34315 3.34315 2 5 2Z" fill="#10100F"/>
<path d="M19.5 17C20.8807 17 22 18.1193 22 19.5C22 20.8807 20.8807 22 19.5 22C18.1193 22 17 20.8807 17 19.5C17 18.1193 18.1193 17 19.5 17Z" fill="#10100F"/>
</svg>
