<svg width="24" height="24" viewBox="0 0 24 24" fill="none" xmlns="http://www.w3.org/2000/svg">
<path d="M11.4004 15.3262L11.2695 15.3135L11.1396 15.3096H10.7354L11.7188 18.2744L11.7285 18.3096C12.1998 20.1097 10.9523 21.9995 9.0752 22H8.69238L8.45996 21.9893C7.3081 21.8863 6.34617 21.0268 6.04199 19.874L4.52246 14.9854C3.04362 14.3392 2 12.7964 2 11C2 10.109 2.25711 9.28059 2.69629 8.59277L2.80957 8.42285C3.55233 7.37209 4.73717 6.69058 6.06934 6.69043H11.1514C11.2347 6.69042 11.3181 6.68593 11.4004 6.67578V15.3262Z" fill="#10100F"/>
<path fill-rule="evenodd" clip-rule="evenodd" d="M18.1943 2.00293C18.2944 2.00674 18.3937 2.01765 18.4912 2.03809C18.5858 2.05792 18.6782 2.08649 18.7686 2.12109C18.791 2.12968 18.8139 2.13703 18.8359 2.14648C18.9394 2.19079 19.0383 2.24594 19.1328 2.30859C19.1888 2.34568 19.2438 2.38461 19.2959 2.42773C19.4761 2.57698 19.6295 2.76271 19.748 2.97656C19.8136 3.09482 19.8691 3.22127 19.9102 3.35645C19.9678 3.5462 20 3.75144 20 3.96973V8.4707C21.1474 8.73976 21.9999 9.76227 22 10.9932C22 12.224 21.1473 13.2455 20 13.5146V18.0303C19.9999 19.1998 19.093 20 18.1279 20L17.9834 19.9932C17.6436 19.9633 17.2936 19.8279 16.9883 19.5693L12.5996 15.8975V6.1123L17 2.43066C17.2157 2.24801 17.4492 2.12668 17.6895 2.06055C17.7234 2.0512 17.7578 2.04426 17.792 2.03711C17.8068 2.03402 17.8211 2.02905 17.8359 2.02637C17.8518 2.0235 17.8679 2.02292 17.8838 2.02051C17.9649 2.00818 18.0463 2.00055 18.1279 2H18.1396C18.1579 2.00012 18.1761 2.00224 18.1943 2.00293ZM20 12.252C20.4744 12.0291 20.7998 11.5508 20.7998 10.9932C20.7998 10.4354 20.4746 9.95618 20 9.7334V12.252Z" fill="#10100F"/>
</svg>
