<svg width="24" height="24" viewBox="0 0 24 24" fill="none" xmlns="http://www.w3.org/2000/svg">
<path fill-rule="evenodd" clip-rule="evenodd" d="M18.1396 2C19.1003 2.00646 19.9999 2.80492 20 3.96973V8.98047C21.108 8.98047 21.9999 9.86938 22 10.9736C22 12.078 21.1081 12.9668 20 12.9668V18.0303C19.9999 19.1998 19.093 20 18.1279 20C17.7442 20 17.3371 19.8648 16.9883 19.5693L12.4414 15.7646C12.0694 15.4693 11.6046 15.3096 11.1396 15.3096H10.7344L11.6816 18.292L11.6865 18.3096C12.1578 20.1098 10.9105 21.9997 9.0332 22H8.65039C7.39694 21.9999 6.32442 21.1037 6 19.874L4.52539 14.9854C3.04519 14.34 2.00001 12.7974 2 11C2 8.62395 3.82535 6.69068 6.06934 6.69043H11.1514C11.6163 6.69038 12.0695 6.53066 12.4531 6.23535L17 2.43066C17.3454 2.13814 17.7365 2.00263 18.1279 2H18.1396ZM7.1543 19.5459L7.1582 19.5596C7.35368 20.3154 7.98769 20.7997 8.65039 20.7998H9.0332C10.0087 20.7995 10.8195 19.7739 10.5303 18.6299L9.47461 15.3096H6.06934C6.00386 15.3096 5.93876 15.307 5.87402 15.3037L7.1543 19.5459ZM18.1338 3.2002C18.0275 3.20136 17.9078 3.23453 17.7754 3.34668L17.7705 3.35156L13.2051 7.1709L13.1855 7.18555C13.0023 7.32665 12.8053 7.44668 12.5996 7.54785V14.4551C12.8066 14.5575 13.0054 14.6798 13.1885 14.8252L13.2002 14.835L17.7637 18.6533C17.8953 18.7648 18.0277 18.7998 18.1279 18.7998C18.4339 18.7998 18.7997 18.5334 18.7998 18.0303V3.96973C18.7997 3.46977 18.4386 3.20358 18.1338 3.2002ZM11.1514 7.89062H6.06934C4.55177 7.89088 3.2002 9.22116 3.2002 11C3.20021 12.7788 4.55178 14.1091 6.06934 14.1094H11.1396C11.2268 14.1094 11.3137 14.1131 11.4004 14.1201V7.87988C11.3179 7.88626 11.2349 7.89062 11.1514 7.89062Z" fill="#10100F"/>
</svg>
