<svg width="24" height="24" viewBox="0 0 24 24" fill="none" xmlns="http://www.w3.org/2000/svg">
<path d="M21.2305 17.3612C21.6553 17.3612 22 17.7048 22 18.1278C21.9999 18.5507 21.6552 18.8934 21.2305 18.8934H2.76953C2.34477 18.8934 2.00011 18.5507 2 18.1278C2 17.7048 2.3447 17.3612 2.76953 17.3612H21.2305Z" fill="#10100F"/>
<path d="M21.2305 11.2343C21.6553 11.2343 22 11.5769 22 11.9999C22 12.4229 21.6553 12.7655 21.2305 12.7655H2.76953C2.3447 12.7655 2 12.4229 2 11.9999C2.00003 11.5769 2.34472 11.2343 2.76953 11.2343H21.2305Z" fill="#10100F"/>
<path d="M21.2305 5.10632C21.6552 5.10632 21.9998 5.44907 22 5.87195C22 6.29497 21.6553 6.63855 21.2305 6.63855H2.76953C2.3447 6.63855 2 6.29497 2 5.87195C2.00018 5.44907 2.34481 5.10632 2.76953 5.10632H21.2305Z" fill="#10100F"/>
</svg>
