<svg width="24" height="24" viewBox="0 0 24 24" fill="none" xmlns="http://www.w3.org/2000/svg">
<path d="M20.4002 11C20.7315 11 21.002 11.2699 20.9802 11.6006C20.6843 16.0923 17.093 19.6812 12.6013 19.9775V22.4004C12.6011 22.7315 12.3328 22.9998 12.0017 23C11.6705 23 11.4013 22.7316 11.4011 22.4004V19.9775C6.90844 19.6822 3.31628 16.0931 3.02027 11.6006C2.9985 11.2699 3.26898 11 3.60035 11C3.93147 11.0001 4.1971 11.2695 4.22242 11.5996C4.52878 15.627 7.89398 18.7996 11.9998 18.7998C16.1057 18.7998 19.4707 15.6271 19.7771 11.5996C19.8024 11.2694 20.0689 11 20.4002 11Z" fill="#10100F"/>
<path fill-rule="evenodd" clip-rule="evenodd" d="M12.0007 1C14.7622 1 17.0007 3.23858 17.0007 6V12C17.0007 14.7614 14.7622 17 12.0007 17C9.23943 16.9999 7.00074 14.7613 7.00074 12V6C7.00074 3.23866 9.23943 1.00013 12.0007 1ZM12.0007 2.2002C9.90217 2.20033 8.20094 3.9014 8.20094 6V12C8.20094 14.0986 9.90217 15.7997 12.0007 15.7998C14.0994 15.7998 15.8005 14.0987 15.8005 12V6C15.8005 3.90132 14.0994 2.2002 12.0007 2.2002Z" fill="#10100F"/>
</svg>
