<svg width="24" height="24" viewBox="0 0 24 24" fill="none" xmlns="http://www.w3.org/2000/svg">
<path d="M20.4002 11C20.7315 11 21.002 11.2699 20.9802 11.6006C20.6842 16.093 17.0919 19.6821 12.5994 19.9775V22.4004C12.5992 22.7315 12.3308 22.9998 11.9998 23C11.6685 23 11.3994 22.7316 11.3992 22.4004V19.9775C6.90739 19.6813 3.31623 16.0924 3.02027 11.6006C2.9985 11.2699 3.26898 11 3.60035 11C3.93147 11.0001 4.1971 11.2695 4.22242 11.5996C4.52878 15.627 7.89398 18.7996 11.9998 18.7998C16.1057 18.7998 19.4707 15.6271 19.7771 11.5996C19.8024 11.2694 20.0689 11 20.4002 11Z" fill="#10100F"/>
<path d="M12.0007 1C14.7622 1 17.0007 3.23858 17.0007 6V12C17.0007 14.7614 14.7622 17 12.0007 17C9.23943 16.9999 7.00074 14.7613 7.00074 12V6C7.00074 3.23866 9.23943 1.00013 12.0007 1Z" fill="#10100F"/>
</svg>
