<svg width="24" height="24" viewBox="0 0 24 24" fill="none" xmlns="http://www.w3.org/2000/svg">
<path d="M12 17.2002C12.4418 17.2002 12.7998 17.5582 12.7998 18C12.7998 18.4418 12.4418 18.7998 12 18.7998C11.5582 18.7998 11.2002 18.4418 11.2002 18C11.2002 17.5582 11.5582 17.2002 12 17.2002Z" fill="#10100F"/>
<path fill-rule="evenodd" clip-rule="evenodd" d="M17 1C19.2091 1 21 2.79086 21 5V19C21 21.2091 19.2091 23 17 23H7L6.79395 22.9951C4.68056 22.8879 3 21.14 3 19V5C3 2.79086 4.79086 1 7 1H17ZM12 16C10.8954 16 10 16.8954 10 18C10 19.1046 10.8954 20 12 20C13.1046 20 14 19.1046 14 18C14 16.8954 13.1046 16 12 16Z" fill="#10100F"/>
</svg>
