<svg width="24" height="24" viewBox="0 0 24 24" fill="none" xmlns="http://www.w3.org/2000/svg">
<path d="M11.9658 10.209C12.9641 10.209 13.7742 11.0156 13.7744 12.0107C13.7744 13.0061 12.9642 13.8135 11.9658 13.8135C10.9676 13.8133 10.1582 13.006 10.1582 12.0107C10.1584 11.0157 10.9677 10.2092 11.9658 10.209Z" fill="#10100F"/>
<path fill-rule="evenodd" clip-rule="evenodd" d="M18.3359 3C18.6113 3 18.8867 3.00819 19.1621 3.02441C19.0564 3.33082 18.9961 3.65879 18.9961 4.00098C18.9961 5.65987 20.3457 7.00488 22.0098 7.00488C22.3571 7.00485 22.6895 6.94281 23 6.83496V15.1836C22.6896 15.0758 22.357 15.0147 22.0098 15.0146C20.3457 15.0146 18.9961 16.3597 18.9961 18.0186C18.9961 18.4233 19.078 18.8088 19.2236 19.1611C18.931 19.1424 18.6375 19.1328 18.3486 19.1328C14.1119 19.1328 9.88811 20.9922 5.65137 20.9922C5.18484 20.9922 4.72194 20.9671 4.25879 20.916C4.68177 20.3988 4.93555 19.7389 4.93555 19.0195C4.93547 17.3607 3.58683 16.0156 1.92285 16.0156C1.60077 16.0156 1.29097 16.0678 1 16.1611V8.86133C1.29105 8.95467 1.60068 9.00781 1.92285 9.00781C3.5868 9.00781 4.93543 7.6627 4.93555 6.00391C4.93555 5.5858 4.84917 5.18787 4.69434 4.82617C5.00978 4.848 5.32706 4.86035 5.63867 4.86035C9.87533 4.86027 14.0993 3 18.3359 3ZM11.9658 9.00781C10.3021 9.00801 8.9533 10.3521 8.95312 12.0107C8.95312 13.6695 10.302 15.0145 11.9658 15.0146C13.6298 15.0146 14.9795 13.6696 14.9795 12.0107C14.9793 10.352 13.6297 9.00781 11.9658 9.00781Z" fill="#10100F"/>
<path d="M1.92285 17.2178C2.92122 17.2178 3.7304 18.0243 3.73047 19.0195C3.73047 19.7267 3.32115 20.3367 2.72656 20.6318C1.74811 20.2691 1 19.0852 1 18.0859V17.4717C1.27033 17.3112 1.58535 17.2178 1.92285 17.2178Z" fill="#10100F"/>
<path d="M22.0098 16.2158C22.3756 16.2159 22.7155 16.3254 23 16.5117V16.8721C23 18.3418 22.007 19.1021 20.6621 19.2178C20.3765 18.8991 20.2022 18.4795 20.2021 18.0186C20.2021 17.0232 21.0114 16.2158 22.0098 16.2158Z" fill="#10100F"/>
<path d="M3.24902 4.78223C3.54696 5.10353 3.73047 5.53185 3.73047 6.00391C3.73035 6.99914 2.92119 7.80566 1.92285 7.80566C1.58519 7.80565 1.27042 7.71145 1 7.55078V7.12012C1.0001 5.67966 1.95419 4.92076 3.24902 4.78223Z" fill="#10100F"/>
<path d="M20.4092 3.16309C20.612 3.19727 20.8148 3.2373 21.0176 3.28418C21.9932 3.49014 22.7943 4.53768 22.9648 5.52832C22.6874 5.70118 22.361 5.80365 22.0098 5.80371C21.0114 5.80371 20.2021 4.99631 20.2021 4.00098C20.2022 3.69839 20.277 3.41345 20.4092 3.16309Z" fill="#10100F"/>
</svg>
