<svg width="24" height="24" viewBox="0 0 24 24" fill="none" xmlns="http://www.w3.org/2000/svg">
<path d="M10.6006 5.56512C10.6004 5.23393 10.3312 4.96552 10 4.96552C9.66894 4.96573 9.4006 5.23406 9.40039 5.56512V6.63446C8.16888 6.65789 7.17773 7.66199 7.17773 8.89911C7.17773 10.1509 8.19253 11.1657 9.44434 11.1657H10.5557C11.1445 11.1659 11.622 11.6432 11.6221 12.2321C11.6221 12.8211 11.1446 13.2984 10.5557 13.2985H8.88867C8.69215 13.2985 8.50322 13.2207 8.36426 13.0817L8.20215 12.9186C7.96791 12.6846 7.5878 12.6846 7.35352 12.9186C7.11926 13.1529 7.11936 13.5329 7.35352 13.7673L7.5166 13.9304C7.88059 14.2942 8.37399 14.4987 8.88867 14.4987H9.40039V15.5651C9.40039 15.8964 9.66881 16.1645 10 16.1647C10.3314 16.1647 10.6006 15.8965 10.6006 15.5651V14.4958C11.8315 14.4717 12.8223 13.4688 12.8223 12.2321C12.8222 10.9805 11.8073 9.96566 10.5557 9.96552H9.44434C8.85527 9.96552 8.37793 9.48818 8.37793 8.89911C8.37793 8.31004 8.85527 7.8327 9.44434 7.8327H10.8809C11.2248 7.83271 11.5547 7.96941 11.7979 8.21259C12.0322 8.44669 12.4122 8.4468 12.6465 8.21259C12.8807 7.97834 12.8806 7.59828 12.6465 7.36395C12.1783 6.89574 11.543 6.63252 10.8809 6.63251H10.6006V5.56512Z" fill="#10100F"/>
<path fill-rule="evenodd" clip-rule="evenodd" d="M0.0191652 16.419L0 12.0461V4.96551C0 2.75638 1.79086 0.965515 4 0.965515H16C18.2091 0.965515 20 2.75637 20 4.96551V22.5607C20 22.9291 19.5975 23.1561 19.2822 22.9655L15.7127 20.8072C15.2717 20.5405 14.7661 20.3995 14.2507 20.3995H4.01912C1.81758 20.3995 0.029877 18.6205 0.0191652 16.419ZM4 2.16552H16C17.5464 2.16552 18.8 3.41912 18.8 4.96551V21.2716L16.3336 19.7803C15.7053 19.4004 14.985 19.1995 14.2507 19.1995H4.01912C2.47804 19.1995 1.22665 17.9542 1.21915 16.4132L1.2 12.0461V4.96551C1.2 3.41912 2.4536 2.16552 4 2.16552Z" fill="#10100F"/>
</svg>
