<svg width="24" height="24" viewBox="0 0 24 24" fill="none" xmlns="http://www.w3.org/2000/svg">
<path fill-rule="evenodd" clip-rule="evenodd" d="M15.0596 2C16.3217 2 17.269 3.15499 17.0215 4.39258L16.4482 7.25684C19.6456 8.11472 22 11.0318 22 14.5C22 18.6421 18.6421 22 14.5 22H9.5C5.35786 22 2 18.6421 2 14.5C2 11.0325 4.35333 8.11534 7.5498 7.25684L6.97754 4.39258C6.73004 3.15503 7.67741 2.00005 8.93945 2H15.0596ZM12 9C11.6689 9.00021 11.4006 9.26855 11.4004 9.59961V10.7168C10.39 10.7927 9.59375 11.6353 9.59375 12.665C9.59401 13.7446 10.4692 14.6201 11.5488 14.6201H12.4521C12.8692 14.6201 13.207 14.9579 13.207 15.375C13.2069 15.792 12.8692 16.1299 12.4521 16.1299H11.0977C10.9676 16.1299 10.842 16.0783 10.75 15.9863L10.6182 15.8545C10.3838 15.6202 10.0038 15.6202 9.76953 15.8545C9.53549 16.0888 9.53546 16.4679 9.76953 16.7021L9.90137 16.835C10.2184 17.152 10.6493 17.3301 11.0977 17.3301H11.4004V18.2393C11.4004 18.5705 11.6688 18.8396 12 18.8398C12.3314 18.8398 12.6006 18.5706 12.6006 18.2393V17.3223C13.611 17.2464 14.4071 16.4048 14.4072 15.375C14.4072 14.2952 13.5319 13.4199 12.4521 13.4199H11.5488C11.132 13.4199 10.7942 13.0819 10.7939 12.665C10.7939 12.248 11.1318 11.9092 11.5488 11.9092H12.7168C12.9666 11.9092 13.2061 12.0089 13.3828 12.1855C13.6171 12.4198 13.9971 12.4196 14.2314 12.1855C14.4658 11.9512 14.4658 11.5712 14.2314 11.3369C13.8297 10.9352 13.2849 10.709 12.7168 10.709H12.6006V9.59961C12.6004 9.26842 12.3312 9 12 9Z" fill="#10100F"/>
</svg>
