<svg width="24" height="24" viewBox="0 0 24 24" fill="none" xmlns="http://www.w3.org/2000/svg">
<path d="M12 6.40039C12.3312 6.40039 12.6004 6.66881 12.6006 7V8.06738H12.8809C13.543 8.06739 14.1783 8.33061 14.6465 8.79883C14.8804 9.03318 14.8807 9.41329 14.6465 9.64746C14.4123 9.88135 14.0321 9.88124 13.7979 9.64746C13.5547 9.40429 13.2248 9.26759 12.8809 9.26758H11.4443C10.8553 9.26758 10.3779 9.74492 10.3779 10.334C10.3782 10.9228 10.8554 11.4004 11.4443 11.4004H12.5557C13.8073 11.4005 14.8222 12.4154 14.8223 13.667C14.822 14.9035 13.8314 15.9066 12.6006 15.9307V17C12.6003 17.3311 12.3312 17.5996 12 17.5996C11.669 17.5994 11.4007 17.331 11.4004 17V15.9336H10.8887C10.3741 15.9336 9.88057 15.729 9.5166 15.3652L9.35352 15.2021C9.11944 14.9679 9.1195 14.5878 9.35352 14.3535C9.5878 14.1195 9.96791 14.1194 10.2021 14.3535L10.3643 14.5166C10.5032 14.6554 10.6923 14.7334 10.8887 14.7334H12.5557C13.1445 14.7333 13.6218 14.2557 13.6221 13.667C13.622 13.0781 13.1445 12.6007 12.5557 12.6006H11.4443C10.1927 12.6006 9.178 11.5856 9.17773 10.334C9.17773 9.09687 10.1689 8.09277 11.4004 8.06934V7C11.4006 6.66894 11.6689 6.4006 12 6.40039Z" fill="#10100F"/>
<path fill-rule="evenodd" clip-rule="evenodd" d="M12 1C18.0751 1 23 5.92487 23 12C23 18.0751 18.0751 23 12 23C5.92487 23 1 18.0751 1 12C1 5.92487 5.92487 1 12 1ZM12 2.2002C6.58761 2.2002 2.2002 6.58761 2.2002 12C2.2002 17.4124 6.58761 21.7998 12 21.7998C17.4124 21.7998 21.7998 17.4124 21.7998 12C21.7998 6.58761 17.4124 2.2002 12 2.2002Z" fill="#10100F"/>
</svg>
