<svg width="24" height="24" viewBox="0 0 24 24" fill="none" xmlns="http://www.w3.org/2000/svg">
<path d="M17.8672 12.3506C18.0264 12.3478 18.1804 12.4079 18.2949 12.5186L21.917 16.0186C22.1553 16.2488 22.1619 16.6289 21.9316 16.8672C21.7014 17.1053 21.3212 17.112 21.083 16.8818L18.4775 14.3643V20.4502C18.4775 20.7815 18.2092 21.0497 17.8779 21.0498C17.5466 21.0498 17.2774 20.7815 17.2773 20.4502V14.4355L14.9326 16.8672C14.7026 17.1056 14.3224 17.1118 14.084 16.8818C13.8455 16.6517 13.8383 16.2717 14.0684 16.0332L17.4463 12.5332C17.5568 12.4188 17.7082 12.3534 17.8672 12.3506Z" fill="#10100F"/>
<path d="M18 2.9502C20.2091 2.9502 22 4.74106 22 6.9502V11.3496C22 11.6809 21.7316 11.9499 21.4004 11.9502C21.069 11.9502 20.7998 11.681 20.7998 11.3496V6.9502C20.7998 5.4038 19.5464 4.15039 18 4.15039H4C2.4536 4.15039 1.2002 5.4038 1.2002 6.9502V14.9502C1.2002 16.4966 2.4536 17.75 4 17.75H11.3994C11.7308 17.75 12 18.0192 12 18.3506C11.9997 18.6818 11.7307 18.9502 11.3994 18.9502H4C1.79086 18.9502 0 17.1593 0 14.9502V6.9502C0 4.74106 1.79086 2.9502 4 2.9502H18Z" fill="#10100F"/>
<path d="M11 7.9502C12.6569 7.9502 14 9.29334 14 10.9502C14 12.607 12.6569 13.9502 11 13.9502C9.34315 13.9502 8 12.607 8 10.9502C8 9.29334 9.34315 7.9502 11 7.9502Z" fill="#10100F"/>
</svg>
