<svg width="24" height="24" viewBox="0 0 24 24" fill="none" xmlns="http://www.w3.org/2000/svg">
<path d="M21.4004 9.99957C21.7316 9.99983 22 10.2689 22 10.6002V15.9996C22 18.2087 20.2091 19.9996 18 19.9996H2.34863L3.4248 21.0757C3.65912 21.3101 3.65912 21.6901 3.4248 21.9244C3.19048 22.1586 2.81046 22.1587 2.57617 21.9244L0.576172 19.9244L0.499023 19.8306C0.477061 19.7974 0.45898 19.7622 0.444336 19.7261C0.356313 19.5094 0.400415 19.2516 0.576172 19.0757L2.57617 17.0757C2.81046 16.8415 3.19051 16.8415 3.4248 17.0757C3.6591 17.31 3.65905 17.6901 3.4248 17.9244L2.55078 18.7994H18C19.5464 18.7994 20.7998 17.546 20.7998 15.9996V10.6002C20.7998 10.2687 21.069 9.99957 21.4004 9.99957Z" fill="#10100F"/>
<path d="M11 6.9605C11.3312 6.9605 11.6003 7.22899 11.6006 7.56011V8.36285H11.8232C12.4524 8.36285 13.056 8.61238 13.501 9.05718C13.7353 9.29148 13.7352 9.67149 13.501 9.90582C13.2666 10.14 12.8866 10.1401 12.6523 9.90582C12.4325 9.68606 12.1341 9.56207 11.8232 9.56207H10.4805C9.95185 9.56229 9.52352 9.99142 9.52344 10.5201C9.52347 11.0488 9.95182 11.4779 10.4805 11.4781H11.5195C12.711 11.4782 13.6767 12.4438 13.6768 13.6353C13.6767 14.7997 12.7545 15.7448 11.6006 15.7877V16.439C11.6005 16.7704 11.3314 17.0386 11 17.0386C10.6688 17.0384 10.4004 16.7702 10.4004 16.439V15.7925H9.96191C9.47033 15.7925 8.99897 15.5972 8.65137 15.2496L8.49902 15.0982C8.2648 14.8639 8.26479 14.4839 8.49902 14.2496C8.73333 14.0153 9.11335 14.0154 9.34766 14.2496L9.5 14.4019C9.62251 14.5242 9.7888 14.5933 9.96191 14.5933H11.5195C12.0483 14.5932 12.4765 14.1641 12.4766 13.6353C12.4765 13.1066 12.0482 12.6774 11.5195 12.6773H10.4805C9.28905 12.6771 8.32328 11.7115 8.32324 10.5201C8.32333 9.3555 9.24615 8.40915 10.4004 8.36675V7.56011C10.4007 7.22913 10.669 6.96073 11 6.9605Z" fill="#10100F"/>
<path d="M18.5762 2.07574C18.8105 1.84147 19.1905 1.84144 19.4248 2.07574L21.4248 4.07574L21.502 4.16949C21.6558 4.40239 21.6298 4.71933 21.4248 4.92437L19.4248 6.92437C19.1905 7.1586 18.8105 7.15857 18.5762 6.92437C18.3419 6.69007 18.3419 6.31004 18.5762 6.07574L19.4512 5.19976H4C2.45374 5.19976 1.20041 6.45336 1.2002 7.99957V13.4C1.20015 13.7312 0.931758 13.9993 0.600586 13.9996C0.26919 13.9996 4.59871e-05 13.7313 0 13.4V7.99957C0.000217871 5.79061 1.791 3.99957 4 3.99957H19.6514L18.5762 2.92437C18.3419 2.69007 18.3419 2.31006 18.5762 2.07574Z" fill="#10100F"/>
</svg>
