<svg width="24" height="24" viewBox="0 0 24 24" fill="none" xmlns="http://www.w3.org/2000/svg">
<path d="M1 16.001C1.35407 16.2077 1.75183 16.4014 2.17871 16.5742C3.67307 17.1793 5.62408 17.5996 7.49902 17.5996C9.37396 17.5996 11.325 17.1793 12.8193 16.5742C13.2458 16.4015 13.6433 16.2085 13.9971 16.002V18H13.9912C13.9361 19.0217 13.0448 19.7606 11.9805 20.2188C10.8326 20.7128 9.44651 21 7.59863 21C5.75069 21 4.16451 20.7128 3.0166 20.2188C1.95224 19.7606 1.06094 19.0217 1.00586 18H1V16.001Z" fill="#10100F"/>
<path d="M1 12.0859C1.29155 12.2595 1.61433 12.4224 1.96191 12.5703C3.4006 13.1825 5.35633 13.5996 7.49902 13.5996C9.64173 13.5996 11.5975 13.1825 13.0361 12.5703C13.3833 12.4226 13.7058 12.2603 13.9971 12.0869V14.5459C13.9818 14.559 13.9667 14.5734 13.9502 14.5869C13.5904 14.8814 13.0493 15.1865 12.3691 15.4619C11.0116 16.0116 9.21309 16.4004 7.49902 16.4004C5.78495 16.4004 3.98644 16.0116 2.62891 15.4619C1.94879 15.1865 1.40765 14.8814 1.04785 14.5869C1.03103 14.5731 1.01561 14.5583 1 14.5449V12.0859Z" fill="#10100F"/>
<path d="M22.9951 13H22.9893C22.9342 14.0217 22.0429 14.7606 20.9785 15.2188C19.8307 15.7128 18.4445 16 16.5967 16C16.0378 16 15.5032 15.9693 14.9971 15.9189V12.5137C15.4958 12.5686 15.9991 12.5996 16.4971 12.5996C18.372 12.5996 20.3231 12.1793 21.8174 11.5742C22.2438 11.4015 22.6413 11.2085 22.9951 11.002V13Z" fill="#10100F"/>
<path d="M7.50391 8C11.0927 8.00009 14.002 9.11935 14.002 10.5C14.002 10.5387 13.9977 10.577 13.9932 10.6152C13.6792 10.8987 13.1995 11.1964 12.5664 11.4658C11.2913 12.0084 9.49747 12.4004 7.49902 12.4004C5.50057 12.4004 3.70681 12.0084 2.43164 11.4658C1.80095 11.1974 1.32187 10.9016 1.00781 10.6191C1.003 10.5796 1 10.54 1 10.5C1 9.11929 3.90995 8 7.50391 8Z" fill="#10100F"/>
<path d="M22.9951 9.5459C22.9798 9.55898 22.9647 9.57343 22.9482 9.58691C22.5885 9.88144 22.0473 10.1865 21.3672 10.4619C20.0097 11.0116 18.2111 11.4004 16.4971 11.4004C15.9998 11.4004 15.4957 11.3655 14.9971 11.3057V10.5L14.9873 10.3203C14.9036 9.54717 14.2824 8.84031 13.2949 8.2793C14.277 8.48085 15.3606 8.59961 16.4971 8.59961C18.6398 8.59959 20.5955 8.1825 22.0342 7.57031C22.3813 7.42259 22.7039 7.26027 22.9951 7.08691V9.5459Z" fill="#10100F"/>
<path d="M16.502 3C20.0908 3.00011 23 4.11935 23 5.5C23 5.5387 22.9957 5.57696 22.9912 5.61523C22.6773 5.89866 22.1975 6.19642 21.5645 6.46582C20.2893 7.00843 18.4955 7.40037 16.4971 7.40039C14.4986 7.40039 12.7049 7.00842 11.4297 6.46582C10.799 6.19745 10.3199 5.90158 10.0059 5.61914C10.001 5.57963 9.99805 5.53996 9.99805 5.5C9.99805 4.11929 12.908 3 16.502 3Z" fill="#10100F"/>
<path d="M10.0186 7.09766L9.99805 7.09961V7.08594C10.0048 7.08995 10.0118 7.09365 10.0186 7.09766Z" fill="#10100F"/>
</svg>
