<svg width="24" height="24" viewBox="0 0 24 24" fill="none" xmlns="http://www.w3.org/2000/svg">
<path d="M3.6875 4.73396C4.01081 4.49725 4.45806 4.66948 4.57324 5.0533C4.65078 5.31214 4.54832 5.58956 4.33203 5.75154C2.43105 7.174 1.2002 9.44362 1.2002 12.0006C1.20047 16.1153 4.38689 19.4824 8.42676 19.776L7.5752 18.9244C7.34089 18.6901 7.3409 18.3101 7.5752 18.0758C7.80951 17.8414 8.18951 17.8414 8.42383 18.0758L10.4238 20.0758C10.6581 20.3101 10.6581 20.6901 10.4238 20.9244L8.42383 22.9244C8.18953 23.1587 7.80951 23.1586 7.5752 22.9244C7.34089 22.6901 7.3409 22.3101 7.5752 22.0758L8.6582 20.9918C3.84623 20.8121 0.000281721 16.8564 0 12.0006C0 9.01693 1.45175 6.3715 3.6875 4.73396Z" fill="#10100F"/>
<path d="M9.57617 1.07576C9.81049 0.841446 10.1905 0.841446 10.4248 1.07576C10.659 1.31008 10.6591 1.69012 10.4248 1.92439L9.33984 3.00838C14.1529 3.1871 18 7.14381 18 12.0006C17.9998 14.8823 16.6443 17.4464 14.5371 19.0933C14.2519 19.3162 13.8419 19.2084 13.6768 18.8863C13.5383 18.616 13.623 18.2866 13.8604 18.0972C15.651 16.6684 16.7996 14.4695 16.7998 12.0006C16.7998 7.88526 13.6128 4.51629 9.57227 4.22322L10.4248 5.07576C10.6591 5.31008 10.6591 5.6901 10.4248 5.92439C10.1905 6.15862 9.81047 6.15862 9.57617 5.92439L7.57617 3.92439C7.34187 3.69009 7.34188 3.31008 7.57617 3.07576L9.57617 1.07576Z" fill="#10100F"/>
<path d="M9 7.50057C9.33124 7.50057 9.60038 7.76898 9.60059 8.10017V8.90096H9.71582C10.2839 8.90096 10.8287 9.12625 11.2305 9.52791C11.4645 9.76224 11.4647 10.1423 11.2305 10.3765C10.9962 10.6103 10.616 10.6105 10.3818 10.3765C10.2051 10.1999 9.96565 10.1002 9.71582 10.1002H8.54785C8.13083 10.1002 7.79297 10.439 7.79297 10.856C7.79346 11.2726 8.13113 11.6109 8.54785 11.6109H9.45117C10.531 11.6109 11.4062 12.4862 11.4062 13.566C11.4059 14.5953 10.6104 15.437 9.60059 15.5133V16.1578C9.60031 16.5236 9.3312 16.8209 9 16.8209C8.66898 16.8206 8.40067 16.5235 8.40039 16.1578V15.5211H8.09668C7.64844 15.5211 7.2174 15.3428 6.90039 15.026L6.76855 14.8931C6.53458 14.659 6.53474 14.2798 6.76855 14.0455C7.00287 13.8112 7.38287 13.8112 7.61719 14.0455L7.74902 14.1773C7.84099 14.2692 7.9667 14.3209 8.09668 14.3209H9.45117C9.86803 14.3209 10.2057 13.9828 10.2061 13.566C10.2061 13.1489 9.86823 12.8111 9.45117 12.8111H8.54785C7.46839 12.8111 6.59327 11.9354 6.59277 10.856C6.59277 9.82593 7.38959 8.98329 8.40039 8.90779V8.10017C8.4006 7.76911 8.66894 7.50078 9 7.50057Z" fill="#10100F"/>
</svg>
