<svg width="24" height="24" viewBox="0 0 24 24" fill="none" xmlns="http://www.w3.org/2000/svg">
<path d="M12 9.58008C12.3312 9.58008 12.6002 9.84861 12.6006 10.1797V11.29H12.7168C13.2848 11.29 13.8297 11.5154 14.2314 11.917C14.4657 12.1513 14.4656 12.5313 14.2314 12.7656C13.9971 12.9998 13.6171 12.9999 13.3828 12.7656C13.2061 12.5891 12.9666 12.4893 12.7168 12.4893H11.5488C11.1319 12.4893 10.7941 12.8282 10.7939 13.2451C10.7942 13.662 11.1319 14 11.5488 14H12.4521C13.5319 14 14.4071 14.8754 14.4072 15.9551C14.4072 16.9849 13.611 17.8265 12.6006 17.9023V18.8193C12.6006 19.1507 12.3314 19.4199 12 19.4199C11.6688 19.4197 11.4004 19.1506 11.4004 18.8193V17.9102H11.0977C10.6493 17.9102 10.2184 17.7321 9.90137 17.415L9.76953 17.2822C9.53561 17.0479 9.53551 16.6688 9.76953 16.4346C10.0038 16.2004 10.3839 16.2004 10.6182 16.4346L10.75 16.5664C10.842 16.6584 10.9676 16.71 11.0977 16.71H12.4521C12.8692 16.71 13.207 16.3721 13.207 15.9551C13.2069 15.5381 12.8691 15.2002 12.4521 15.2002H11.5488C10.4692 15.2002 9.59396 14.3247 9.59375 13.2451C9.59388 12.2154 10.3901 11.3728 11.4004 11.2969V10.1797C11.4007 9.84871 11.669 9.58024 12 9.58008Z" fill="#10100F"/>
<path fill-rule="evenodd" clip-rule="evenodd" d="M15.0596 2C16.3217 2 17.269 3.15499 17.0215 4.39258L16.4482 7.25586C19.6458 8.11366 22 11.0318 22 14.5C22 18.6421 18.6421 22 14.5 22H9.5C5.35786 22 2 18.6421 2 14.5C2 11.1346 4.21657 8.28653 7.26953 7.33691L7.5498 7.25684L6.97754 4.39258C6.73004 3.15503 7.67741 2.00005 8.93945 2H15.0596ZM9.5 8.2002C6.02061 8.2002 3.2002 11.0206 3.2002 14.5C3.2002 17.9794 6.02061 20.7998 9.5 20.7998H14.5C17.9794 20.7998 20.7998 17.9794 20.7998 14.5C20.7998 11.0206 17.9794 8.2002 14.5 8.2002H9.5ZM8.93945 3.2002C8.43466 3.20025 8.05531 3.66223 8.1543 4.15723L8.73047 7.03906C8.62298 7.05002 8.51623 7.06359 8.41016 7.0791C8.76597 7.0273 9.12982 7 9.5 7H14.5C14.8671 7 15.228 7.02715 15.5811 7.07812C15.4773 7.06304 15.3727 7.04975 15.2676 7.03906L15.8447 4.15723C15.9437 3.66219 15.5644 3.2002 15.0596 3.2002H8.93945Z" fill="#10100F"/>
</svg>
