<svg width="24" height="24" viewBox="0 0 24 24" fill="none" xmlns="http://www.w3.org/2000/svg">
<path fill-rule="evenodd" clip-rule="evenodd" d="M15.0795 13.1448C16.7999 12.0884 17.9478 10.186 17.9478 8.0147C17.9478 4.6949 15.2643 2.00366 11.9541 2.00366C8.64381 2.00366 5.96032 4.6949 5.96032 8.0147C5.96032 10.042 6.96101 11.8349 8.49403 12.9236H7.45953C6.91617 12.9236 6.36896 13.0724 5.94727 13.4323C5.6973 13.6457 5.51229 13.9157 5.40005 14.2301C4.50598 13.8832 3.45293 14.0715 2.73147 14.795C1.75618 15.7731 1.75618 17.359 2.73147 18.3371L5.64869 21.2627C6.62398 22.2408 8.20524 22.2408 9.18053 21.2627C9.50307 20.9393 9.71894 20.5493 9.82814 20.1369H14.1236C15.2117 20.1369 16.2687 19.6959 17.0387 18.9237L21.3028 14.6474C22.2345 13.7267 22.2292 12.2265 21.3063 11.2989C20.3877 10.3638 18.8903 10.3696 17.9655 11.2971L15.6445 13.6248C15.4879 13.4298 15.2972 13.2654 15.0795 13.1448ZM11.9544 4.40798C12.2854 4.40798 12.5537 4.6771 12.5537 5.00908V5.4106C12.9884 5.42846 13.4017 5.60948 13.7105 5.91923C13.9446 6.15398 13.9446 6.53458 13.7105 6.76932C13.4765 7.00407 13.097 7.00407 12.8629 6.76932C12.762 6.66818 12.6253 6.61135 12.4826 6.61135H11.9879C11.9768 6.61196 11.9656 6.61227 11.9544 6.61227C11.9431 6.61227 11.932 6.61196 11.9209 6.61135H11.6223C11.4014 6.61135 11.2224 6.79091 11.2224 7.01241C11.2224 7.23389 11.4014 7.41344 11.6222 7.41347L12.4544 7.41361C13.3372 7.41378 14.0527 8.13149 14.0527 9.01678C14.0527 9.86865 13.3902 10.5653 12.5537 10.6169V11.0204C12.5537 11.3524 12.2854 11.6215 11.9544 11.6215C11.6233 11.6215 11.355 11.3524 11.355 11.0204V10.6197L11.289 10.6197C10.9168 10.6197 10.5597 10.4714 10.2966 10.2074L10.199 10.1096C9.96494 9.87486 9.96494 9.49426 10.199 9.25951C10.4331 9.02477 10.8126 9.02477 11.0467 9.25951L11.1442 9.35735C11.1826 9.39585 11.2347 9.41748 11.289 9.41748L11.9315 9.41763C11.9391 9.41734 11.9467 9.4172 11.9544 9.4172C11.9621 9.4172 11.9698 9.41735 11.9775 9.41764L12.454 9.41775C12.6749 9.4178 12.8539 9.23826 12.8539 9.01678C12.8539 8.79536 12.675 8.61586 12.4542 8.61582L11.622 8.61568C10.7392 8.61554 10.0236 7.89778 10.0236 7.01241C10.0236 6.21828 10.5993 5.55901 11.355 5.43145V5.00908C11.355 4.6771 11.6233 4.40798 11.9544 4.40798ZM20.4532 12.1435C20.0085 11.6898 19.2744 11.6846 18.8132 12.1472L16.1175 14.8506C16.1208 14.8995 16.1225 14.9486 16.1225 14.9979C16.1225 16.075 15.3305 17.0722 14.2187 17.0722H10.3055C9.97445 17.0722 9.7061 16.803 9.7061 16.4711C9.7061 16.1391 9.97445 15.8699 10.3055 15.8699H14.2187C14.5404 15.8699 14.9237 15.5472 14.9237 14.9979C14.9237 14.4486 14.5404 14.1258 14.2187 14.1258H7.45953C7.12162 14.1258 6.87553 14.2187 6.72423 14.3478C6.58666 14.4652 6.47229 14.6582 6.47229 14.9979L6.47225 15.0046L9.18053 17.7207C9.52597 18.0671 9.74906 18.4898 9.84979 18.9347H14.1236C14.8922 18.9347 15.6449 18.6214 16.1911 18.0736L20.4568 13.7956L20.4604 13.792C20.9128 13.3459 20.9181 12.6098 20.4568 12.1472L20.4532 12.1435Z" fill="#10100F"/>
</svg>
