<svg width="24" height="24" viewBox="0 0 24 24" fill="none" xmlns="http://www.w3.org/2000/svg">
<path fill-rule="evenodd" clip-rule="evenodd" d="M16.502 3C20.0909 3.00007 23 4.11933 23 5.5C23 5.52685 22.9973 5.55344 22.9951 5.58008V13C22.9951 14.0738 22.0783 14.8463 20.9795 15.3193C19.8316 15.8134 18.4448 16.0996 16.5967 16.0996C15.6542 16.0996 14.78 16.0233 13.9971 15.8848V18H13.9912C13.9362 19.0217 13.0457 19.7606 11.9814 20.2188C10.8335 20.7129 9.44678 21 7.59863 21C5.75062 21 4.16453 20.7128 3.0166 20.2188C1.95217 19.7606 1.06086 19.0218 1.00586 18H1V10.5C1 9.11929 3.90989 8 7.50391 8C8.38758 8.00002 9.23009 8.06752 9.99805 8.19043V5.5C9.99805 4.1193 12.908 3.00002 16.502 3ZM12.7979 15.8818C12.547 16.048 12.2709 16.1947 11.9814 16.3193C10.8335 16.8135 9.34717 17.0996 7.49902 17.0996C5.65115 17.0996 4.16448 16.8133 3.0166 16.3193C2.72744 16.1949 2.45081 16.0487 2.2002 15.8828V17.9004L2.21387 18.0225C2.28244 18.3255 2.6121 18.7392 3.49023 19.1172C4.44439 19.5279 5.85767 19.7998 7.59863 19.7998C9.33948 19.7998 10.5527 19.5278 11.5068 19.1172C12.3849 18.7392 12.7146 18.3255 12.7832 18.0225L12.7979 17.9004V15.8818ZM2.2002 14L2.21387 14.123C2.28276 14.426 2.61281 14.8391 3.49023 15.2168C4.44438 15.6275 5.75808 15.9004 7.49902 15.9004C9.23994 15.9004 10.5527 15.6275 11.5068 15.2168C12.3843 14.8391 12.7143 14.426 12.7832 14.123L12.7979 14V11.9482C11.6197 12.5839 9.68802 13 7.50391 13C5.31401 13 3.37849 12.5833 2.2002 11.9463V14ZM21.7959 10.8818C21.5451 11.048 21.2689 11.1947 20.9795 11.3193C19.8316 11.8134 18.3452 12.0996 16.4971 12.0996C15.5746 12.0996 14.7423 12.0274 13.9971 11.8945V14.6621C14.7449 14.8104 15.6188 14.9004 16.5967 14.9004C18.3375 14.9004 19.5508 14.6275 20.5049 14.2168C21.5081 13.785 21.7959 13.3069 21.7959 13V10.8818ZM7.50391 9.2002C5.8132 9.2002 4.34072 9.46525 3.33398 9.85254C2.82673 10.0477 2.49797 10.2508 2.31738 10.415C2.27991 10.4491 2.2526 10.4775 2.2334 10.5C2.2526 10.5225 2.27991 10.5509 2.31738 10.585C2.49797 10.7492 2.82673 10.9523 3.33398 11.1475C4.34072 11.5347 5.8132 11.7998 7.50391 11.7998C9.18954 11.7998 10.6613 11.5347 11.668 11.1475C12.1753 10.9523 12.504 10.7492 12.6846 10.585C12.7221 10.5508 12.7493 10.5225 12.7686 10.5C12.7493 10.4775 12.7221 10.4492 12.6846 10.415C12.504 10.2508 12.1753 10.0477 11.668 9.85254C10.6613 9.46529 9.18954 9.20023 7.50391 9.2002ZM11.1982 8.44434C12.8922 8.89556 14.002 9.64735 14.002 10.5C14.002 10.5268 13.9993 10.5534 13.9971 10.5801V10.6709C14.7084 10.8141 15.5375 10.9004 16.4971 10.9004C18.2379 10.9004 19.5507 10.6275 20.5049 10.2168C21.3823 9.83911 21.7123 9.426 21.7812 9.12305L21.7959 9V6.94824C20.6177 7.58392 18.686 7.99996 16.502 8C14.3121 7.99999 12.3765 7.58332 11.1982 6.94629V8.44434ZM16.502 4.2002C14.8113 4.20021 13.3387 4.46526 12.332 4.85254C11.8248 5.04769 11.496 5.2508 11.3154 5.41504C11.278 5.44912 11.2506 5.47754 11.2314 5.5C11.2506 5.52246 11.278 5.55088 11.3154 5.58496C11.496 5.7492 11.8248 5.95231 12.332 6.14746C13.3387 6.53474 14.8113 6.79979 16.502 6.7998C18.1875 6.79977 19.6594 6.53469 20.666 6.14746C21.1733 5.9523 21.502 5.74922 21.6826 5.58496C21.7201 5.55081 21.7474 5.5225 21.7666 5.5C21.7474 5.4775 21.7201 5.44918 21.6826 5.41504C21.502 5.25078 21.1733 5.0477 20.666 4.85254C19.6594 4.46531 18.1875 4.20023 16.502 4.2002Z" fill="#10100F"/>
</svg>
