<svg width="24" height="24" viewBox="0 0 24 24" fill="none" xmlns="http://www.w3.org/2000/svg">
<path fill-rule="evenodd" clip-rule="evenodd" d="M16 1.18237C18.2091 1.18237 20 2.97323 20 5.18237V22.3435C20 22.7118 19.5975 22.9392 19.2822 22.7488L15.7129 20.5896C15.327 20.3563 14.8914 20.2198 14.4434 20.1892L14.251 20.1824H4.01953C1.81801 20.1824 0.0302803 18.4034 0.0195312 16.2019L0 12.2634V5.18237C0 2.97323 1.79086 1.18237 4 1.18237H16ZM10 5.18237C9.66894 5.18258 9.4006 5.45092 9.40039 5.78198V6.85132C8.16888 6.87475 7.17773 7.87885 7.17773 9.11597C7.17773 10.3678 8.19253 11.3826 9.44434 11.3826H10.5557C11.1445 11.3827 11.622 11.8601 11.6221 12.449C11.6221 13.038 11.1446 13.5152 10.5557 13.5154H8.88867C8.69215 13.5153 8.50322 13.4376 8.36426 13.2986L8.20215 13.1355C7.96791 12.9014 7.5878 12.9015 7.35352 13.1355C7.11926 13.3698 7.11936 13.7498 7.35352 13.9841L7.5166 14.1472C7.88059 14.5111 8.37399 14.7155 8.88867 14.7156H9.40039V15.782C9.40039 16.1132 9.66881 16.3814 10 16.3816C10.3314 16.3816 10.6006 16.1134 10.6006 15.782V14.7126C11.8315 14.6885 12.8223 13.6857 12.8223 12.449C12.8222 11.1973 11.8073 10.1825 10.5557 10.1824H9.44434C8.85527 10.1824 8.37793 9.70503 8.37793 9.11597C8.37793 8.5269 8.85527 8.04956 9.44434 8.04956H10.8809C11.2248 8.04957 11.5547 8.18627 11.7979 8.42944C12.0322 8.66355 12.4122 8.66366 12.6465 8.42944C12.8807 8.19519 12.8806 7.81514 12.6465 7.58081C12.1783 7.11259 11.543 6.84937 10.8809 6.84937H10.6006V5.78198C10.6004 5.45079 10.3312 5.18237 10 5.18237Z" fill="#10100F"/>
</svg>
