<svg width="24" height="24" viewBox="0 0 24 24" fill="none" xmlns="http://www.w3.org/2000/svg">
<path fill-rule="evenodd" clip-rule="evenodd" d="M12 1C18.0751 1 23 5.92487 23 12C23 18.0751 18.0751 23 12 23C5.92487 23 1 18.0751 1 12C1 5.92487 5.92487 1 12 1ZM12 6.40039C11.6689 6.4006 11.4006 6.66894 11.4004 7V8.06934C10.1689 8.09277 9.17773 9.09687 9.17773 10.334C9.178 11.5856 10.1927 12.6006 11.4443 12.6006H12.5557C13.1445 12.6007 13.622 13.0781 13.6221 13.667C13.6218 14.2557 13.1445 14.7333 12.5557 14.7334H10.8887C10.6923 14.7334 10.5032 14.6554 10.3643 14.5166L10.2021 14.3535C9.96791 14.1194 9.5878 14.1195 9.35352 14.3535C9.1195 14.5878 9.11944 14.9679 9.35352 15.2021L9.5166 15.3652C9.88057 15.729 10.3741 15.9336 10.8887 15.9336H11.4004V17C11.4007 17.331 11.669 17.5994 12 17.5996C12.3312 17.5996 12.6003 17.3311 12.6006 17V15.9307C13.8314 15.9066 14.822 14.9035 14.8223 13.667C14.8222 12.4154 13.8073 11.4005 12.5557 11.4004H11.4443C10.8554 11.4004 10.3782 10.9228 10.3779 10.334C10.3779 9.74492 10.8553 9.26758 11.4443 9.26758H12.8809C13.2248 9.26759 13.5547 9.40429 13.7979 9.64746C14.0321 9.88124 14.4123 9.88135 14.6465 9.64746C14.8807 9.41329 14.8804 9.03318 14.6465 8.79883C14.1783 8.33061 13.543 8.06739 12.8809 8.06738H12.6006V7C12.6004 6.66881 12.3312 6.40039 12 6.40039Z" fill="#10100F"/>
</svg>
