<svg width="24" height="24" viewBox="0 0 24 24" fill="none" xmlns="http://www.w3.org/2000/svg">
<path d="M11.9963 4.40796C12.3285 4.40804 12.5979 4.67759 12.5979 5.00952V5.41089C13.0341 5.42878 13.4491 5.60996 13.759 5.91968C13.9936 6.15441 13.9937 6.53464 13.759 6.76929C13.5241 7.00398 13.1434 7.00386 12.9084 6.76929C12.8073 6.66819 12.6697 6.61114 12.5266 6.61108H12.0295C12.0185 6.61168 12.0075 6.61206 11.9963 6.61206C11.985 6.61206 11.9733 6.6117 11.9621 6.61108H11.6633C11.4416 6.61108 11.2619 6.79095 11.2619 7.01245C11.262 7.23376 11.4409 7.41354 11.6623 7.41382H12.4983C13.384 7.4141 14.1016 8.13134 14.1018 9.01636C14.1018 9.86819 13.4373 10.5653 12.5979 10.6169V11.0203C12.5979 11.3522 12.3285 11.6217 11.9963 11.6218C11.6641 11.6218 11.3948 11.3522 11.3948 11.0203V10.6199H11.3284L11.1887 10.613C10.8664 10.581 10.5633 10.4385 10.3323 10.2078L10.2346 10.1091C9.99978 9.87438 9.99971 9.49423 10.2346 9.25952C10.4695 9.0249 10.8503 9.02482 11.0852 9.25952L11.1828 9.35718C11.2214 9.39568 11.2739 9.41772 11.3284 9.41772H11.9729C11.9805 9.41744 11.9886 9.41675 11.9963 9.41675C12.0041 9.41675 12.0121 9.41743 12.0198 9.41772H12.4973C12.719 9.41777 12.8987 9.23784 12.8987 9.01636C12.8984 8.79528 12.7195 8.61625 12.4983 8.61597H11.6623C10.7764 8.61568 10.0579 7.89771 10.0578 7.01245C10.0578 6.21832 10.6363 5.55895 11.3948 5.4314V5.00952C11.3948 4.67754 11.6641 4.40796 11.9963 4.40796Z" fill="#10100F"/>
<path fill-rule="evenodd" clip-rule="evenodd" d="M11.9963 2.00366C15.3185 2.00391 18.0118 4.69489 18.0119 8.0144C18.0119 10.1869 16.8575 12.0892 15.1291 13.1453C15.3311 13.2562 15.5102 13.4035 15.6604 13.5789L17.9455 11.2966C18.8737 10.3697 20.3762 10.3638 21.2981 11.2986C22.2243 12.226 22.23 13.7265 21.2952 14.6472L17.0149 18.9236C16.2421 19.6958 15.1812 20.1365 14.0891 20.1365H9.8596C9.74999 20.5488 9.53572 20.9391 9.21214 21.2625C8.23326 22.2406 6.64611 22.2406 5.66722 21.2625L2.73949 18.3367C1.7607 17.3586 1.76063 15.7728 2.73949 14.7947C3.46436 14.0706 4.5223 13.8838 5.42015 14.2322C5.53278 13.9174 5.71585 13.646 5.96703 13.4324C6.39022 13.0725 6.93931 12.9236 7.4846 12.9236H8.52562C6.986 11.8349 5.97972 10.0424 5.97972 8.0144C5.97988 4.69474 8.67397 2.00366 11.9963 2.00366ZM5.43382 15.6453C4.9248 15.1366 4.09909 15.1366 3.59007 15.6453C3.08111 16.1539 3.08107 16.9785 3.59007 17.4871L6.51781 20.4128C7.02683 20.9215 7.85254 20.9215 8.36156 20.4128C8.8705 19.9043 8.87034 19.0797 8.36156 18.571L5.43382 15.6453ZM20.4416 12.1433C19.9953 11.69 19.259 11.6848 18.7961 12.1472L16.1662 14.7742C16.1738 14.8482 16.1799 14.9227 16.1799 14.9978C16.1799 16.0749 15.3847 17.072 14.2688 17.072H10.3411C10.009 17.0719 9.7397 16.8032 9.73949 16.4714C9.73949 16.1395 10.0089 15.87 10.3411 15.8699H14.2688C14.5917 15.8699 14.9768 15.5471 14.9768 14.9978C14.9768 14.9616 14.9741 14.9265 14.9709 14.8923C14.9171 14.7973 14.8897 14.6919 14.8918 14.5857C14.7609 14.2911 14.4995 14.1257 14.2688 14.1257H7.4846C7.14553 14.1258 6.89816 14.2183 6.74632 14.3474C6.60828 14.4648 6.49439 14.6582 6.49437 14.9978L6.49339 15.0037L9.21214 17.7205C9.55861 18.0666 9.77988 18.4898 9.88109 18.9343H14.0891C14.8605 18.9343 15.6161 18.6217 16.1643 18.074L20.4494 13.7917C20.9033 13.3457 20.9085 12.6098 20.4455 12.1472L20.4416 12.1433ZM11.9963 3.20581C9.33846 3.20581 7.18301 5.3587 7.18285 8.0144C7.18285 10.6702 9.33836 12.824 11.9963 12.824C14.6541 12.8237 16.8088 10.6701 16.8088 8.0144C16.8087 5.35885 14.654 3.20606 11.9963 3.20581Z" fill="#10100F"/>
</svg>
