<svg width="24" height="24" viewBox="0 0 24 24" fill="none" xmlns="http://www.w3.org/2000/svg">
<path fill-rule="evenodd" clip-rule="evenodd" d="M11.9674 9C13.6309 9 14.9801 10.3431 14.9801 12C14.9801 13.6569 13.6309 15 11.9674 15C10.3041 14.9997 8.95569 13.6567 8.95569 12C8.95569 10.3433 10.3041 9.00026 11.9674 9ZM11.9674 10.2002C10.9695 10.2005 10.1608 11.006 10.1608 12C10.1608 12.994 10.9695 13.7995 11.9674 13.7998C12.9655 13.7998 13.775 12.9941 13.775 12C13.775 11.0059 12.9655 10.2002 11.9674 10.2002Z" fill="#10100F"/>
<path fill-rule="evenodd" clip-rule="evenodd" d="M18.3356 3C19.2292 3.00001 20.1226 3.07782 21.0162 3.28418C22.1171 3.51637 22.9985 4.81875 22.9987 5.90234V16.8555C22.9985 18.4548 21.8197 19.2157 20.2916 19.2158C20.1363 19.2158 19.9677 19.2033 19.7994 19.1904C19.3202 19.1388 18.8275 19.1133 18.3483 19.1133C14.1129 19.1133 9.89031 20.9707 5.65491 20.9707C4.76125 20.9707 3.88059 20.88 2.98694 20.6865C1.88614 20.4543 1.00574 19.1519 1.00549 18.0684V9.27539C0.999195 9.22273 0.99721 9.16919 1.00549 9.11523V7.11523C1.00552 5.51572 2.18361 4.755 3.69885 4.75488C3.85418 4.75488 4.02277 4.76738 4.19104 4.78027C4.67028 4.83188 5.16297 4.85742 5.64221 4.85742C9.87758 4.85737 14.1002 3 18.3356 3ZM17.8756 4.29785C16.0559 4.35846 14.2091 4.76508 12.274 5.19336C10.3047 5.62133 8.25787 6.0697 6.18518 6.1377C6.18972 6.23355 6.19302 6.33188 6.19299 6.43555C6.19299 6.44268 6.19299 6.44984 6.19299 6.45703C6.19299 8.41378 4.60189 9.99886 2.63733 9.99902C2.52314 9.99902 2.41058 9.99191 2.30041 9.98047V15.3447C2.40862 15.3331 2.52383 15.3262 2.65002 15.3262C4.61462 15.3262 6.20551 16.9105 6.20569 18.8672C6.20569 19.1385 6.17195 19.4032 6.11487 19.6582C7.93455 19.5976 9.78146 19.1929 11.7164 18.7646C13.6725 18.3396 15.7049 17.8939 17.7633 17.8213C17.7605 17.7403 17.7604 17.6582 17.7604 17.5742C17.7604 17.5667 17.7604 17.5593 17.7604 17.5518C17.7604 15.5949 19.3514 14.0108 21.316 14.0107C21.4415 14.0107 21.5665 14.0163 21.6901 14.0293V8.66113C21.572 8.67427 21.4515 8.68262 21.3287 8.68262C19.3641 8.68254 17.7731 7.0984 17.7731 5.1416C17.7731 4.85144 17.8106 4.569 17.8756 4.29785ZM2.65002 16.5264C2.51701 16.5264 2.40807 16.5359 2.30041 16.5566V18.0684C2.3007 18.5971 2.80529 19.3194 3.25842 19.4229C3.78294 19.538 4.31405 19.6084 4.8717 19.6426C4.95384 19.3981 5.00061 19.1371 5.00061 18.8672C5.00043 17.5732 3.94921 16.5264 2.65002 16.5264ZM21.316 15.21C20.0168 15.21 18.9655 16.2577 18.9655 17.5518C18.9655 17.6893 18.9668 17.7681 18.9703 17.8271C19.2944 17.8432 19.6138 17.8691 19.9283 17.9004C20.0448 17.9133 20.1615 17.9131 20.278 17.9131C20.7572 17.9131 21.1591 17.8097 21.3922 17.6162C21.5217 17.513 21.69 17.3196 21.6901 16.8428V15.2412C21.5691 15.2215 21.4443 15.21 21.316 15.21ZM3.71252 6.04492C2.30081 6.04492 2.30041 6.81848 2.30041 7.11523V8.76855C2.41288 8.78664 2.52528 8.79883 2.63733 8.79883C3.93649 8.79866 4.98791 7.75103 4.98791 6.45703C4.98791 6.27418 4.98625 6.19522 4.97913 6.12793C4.66911 6.11173 4.36339 6.08762 4.06213 6.05762C3.94569 6.04473 3.82897 6.04492 3.71252 6.04492ZM19.1227 4.31348C19.0291 4.5728 18.9782 4.85242 18.9781 5.1416C18.9781 6.43566 20.0295 7.48332 21.3287 7.4834C21.4489 7.4834 21.5694 7.46992 21.6901 7.44922V5.88965C21.69 5.36091 21.1852 4.63874 20.7321 4.53516C20.2088 4.42032 19.6789 4.34777 19.1227 4.31348Z" fill="#10100F"/>
</svg>
