<svg width="24" height="24" viewBox="0 0 24 24" fill="none" xmlns="http://www.w3.org/2000/svg">
<path fill-rule="evenodd" clip-rule="evenodd" d="M12 1C18.0751 1 23 5.92487 23 12C23 18.0751 18.0751 23 12 23C5.92487 23 1 18.0751 1 12C1 5.92487 5.92487 1 12 1ZM14.4521 7.10449C14.2339 6.8552 13.8548 6.83065 13.6055 7.04883C13.3563 7.26697 13.331 7.6452 13.5488 7.89453C15.4222 10.0355 15.5923 13.1791 13.9609 15.5098L13.5088 16.1562C13.3191 16.4276 13.385 16.8012 13.6562 16.9912C13.9277 17.1812 14.3022 17.1152 14.4922 16.8438L14.9443 16.1982C16.8924 13.4151 16.6892 9.66117 14.4521 7.10449ZM12.4883 8.15137C12.2957 7.88179 11.921 7.81913 11.6514 8.01172C11.382 8.20431 11.3194 8.57908 11.5117 8.84863C12.8582 10.7337 12.8582 13.2663 11.5117 15.1514C11.3194 15.4209 11.382 15.7957 11.6514 15.9883C11.921 16.1809 12.2956 16.1182 12.4883 15.8486C14.1328 13.5463 14.1328 10.4537 12.4883 8.15137ZM10.5146 9.19141C10.3441 8.90731 9.97553 8.81488 9.69141 8.98535C9.40742 9.1559 9.31588 9.52452 9.48633 9.80859C10.2955 11.1573 10.2955 12.8427 9.48633 14.1914C9.31588 14.4755 9.40742 14.8441 9.69141 15.0146C9.97553 15.1851 10.3441 15.0927 10.5146 14.8086C11.5519 13.0798 11.5519 10.9202 10.5146 9.19141ZM8.5 10.167C8.31622 9.89132 7.94367 9.81727 7.66797 10.001C7.39225 10.1848 7.31716 10.5573 7.50098 10.833C7.97214 11.5398 7.97216 12.4602 7.50098 13.167C7.31717 13.4427 7.39225 13.8152 7.66797 13.999C7.94367 14.1827 8.31622 14.1087 8.5 13.833C9.2399 12.7232 9.23989 11.2769 8.5 10.167Z" fill="#10100F"/>
</svg>
