<svg width="24" height="24" viewBox="0 0 24 24" fill="none" xmlns="http://www.w3.org/2000/svg">
<path d="M13.6055 7.04883C13.8548 6.83065 14.2339 6.8552 14.4521 7.10449C16.6892 9.66117 16.8924 13.4151 14.9443 16.1982L14.4922 16.8438C14.3022 17.1152 13.9277 17.1812 13.6562 16.9912C13.385 16.8012 13.3191 16.4276 13.5088 16.1562L13.9609 15.5098C15.5923 13.1791 15.4222 10.0355 13.5488 7.89453C13.331 7.6452 13.3563 7.26697 13.6055 7.04883Z" fill="#10100F"/>
<path d="M11.6514 8.01172C11.921 7.81913 12.2957 7.88179 12.4883 8.15137C14.1328 10.4537 14.1328 13.5463 12.4883 15.8486C12.2956 16.1182 11.921 16.1809 11.6514 15.9883C11.382 15.7957 11.3194 15.4209 11.5117 15.1514C12.8582 13.2663 12.8582 10.7337 11.5117 8.84863C11.3194 8.57908 11.382 8.20431 11.6514 8.01172Z" fill="#10100F"/>
<path d="M9.69141 8.98535C9.97553 8.81488 10.3441 8.90731 10.5146 9.19141C11.5519 10.9202 11.5519 13.0798 10.5146 14.8086C10.3441 15.0927 9.97553 15.1851 9.69141 15.0146C9.40742 14.8441 9.31588 14.4755 9.48633 14.1914C10.2955 12.8427 10.2955 11.1573 9.48633 9.80859C9.31588 9.52452 9.40742 9.1559 9.69141 8.98535Z" fill="#10100F"/>
<path d="M7.66797 10.001C7.94367 9.81727 8.31622 9.89132 8.5 10.167C9.23989 11.2769 9.2399 12.7232 8.5 13.833C8.31622 14.1087 7.94367 14.1827 7.66797 13.999C7.39225 13.8152 7.31717 13.4427 7.50098 13.167C7.97216 12.4602 7.97214 11.5398 7.50098 10.833C7.31716 10.5573 7.39225 10.1848 7.66797 10.001Z" fill="#10100F"/>
<path fill-rule="evenodd" clip-rule="evenodd" d="M12 1C18.0751 1 23 5.92487 23 12C23 18.0751 18.0751 23 12 23C5.92487 23 1 18.0751 1 12C1 5.92487 5.92487 1 12 1ZM12 2.2002C6.58761 2.2002 2.2002 6.58761 2.2002 12C2.2002 17.4124 6.58761 21.7998 12 21.7998C17.4124 21.7998 21.7998 17.4124 21.7998 12C21.7998 6.58761 17.4124 2.2002 12 2.2002Z" fill="#10100F"/>
</svg>
