<svg width="24" height="24" viewBox="0 0 24 24" fill="none" xmlns="http://www.w3.org/2000/svg">
<path fill-rule="evenodd" clip-rule="evenodd" d="M6.5 10.0034C7.32837 10.0034 7.99991 10.6751 8 11.5034V20.5034C8 21.3319 7.32843 22.0034 6.5 22.0034H3.5C2.67157 22.0034 2 21.3319 2 20.5034V11.5034C2.00009 10.6751 2.67163 10.0034 3.5 10.0034H6.5ZM3.5 11.2036C3.33437 11.2036 3.20029 11.3378 3.2002 11.5034V20.5034C3.2002 20.6691 3.33431 20.8032 3.5 20.8032H6.5C6.66569 20.8032 6.7998 20.6691 6.7998 20.5034V11.5034C6.79971 11.3378 6.66563 11.2036 6.5 11.2036H3.5Z" fill="#10100F"/>
<path fill-rule="evenodd" clip-rule="evenodd" d="M3.0332 2.15579C3.276 1.93057 3.65545 1.94453 3.88086 2.18704L20.4707 20.3462L21.2256 21.1646C21.5209 21.4848 21.294 22.0031 20.8584 22.0034H17.5C16.6716 22.0034 16 21.3319 16 20.5034V17.231L15 16.1363V20.5034C15 21.3319 14.3284 22.0034 13.5 22.0034H10.5C9.67157 22.0034 9 21.3319 9 20.5034V9.56887L3.00195 3.00345C2.77665 2.76057 2.79045 2.38117 3.0332 2.15579ZM10.2002 20.5034C10.2002 20.6691 10.3343 20.8032 10.5 20.8032H13.5C13.6657 20.8032 13.7998 20.6691 13.7998 20.5034V14.8228L10.2002 10.8824V20.5034ZM17.2002 20.5034C17.2002 20.6691 17.3343 20.8032 17.5 20.8032H19.2588L17.2002 18.5728V20.5034Z" fill="#10100F"/>
<path fill-rule="evenodd" clip-rule="evenodd" d="M20.5 2.00345C21.3284 2.00345 21.9999 2.6751 22 3.50345V19.2251C21.9997 19.68 21.4415 19.8982 21.1328 19.564L16.3975 14.4341C16.142 14.1572 16.0001 13.7943 16 13.4175V3.50345C16.0001 2.6751 16.6716 2.00345 17.5 2.00345H20.5ZM17.5 3.20364C17.3344 3.20364 17.2003 3.33784 17.2002 3.50345V13.4175C17.2003 13.4927 17.2283 13.5653 17.2793 13.6206L20.7998 17.4341V3.50345C20.7997 3.33784 20.6656 3.20364 20.5 3.20364H17.5Z" fill="#10100F"/>
<path fill-rule="evenodd" clip-rule="evenodd" d="M13.501 6.00345C14.3293 6.00362 15.001 6.67513 15.001 7.50345V11.6226C15.0008 12.0901 14.4156 12.302 14.1162 11.9429L12.501 10.0034L9.72656 6.83255C9.44368 6.50926 9.67296 6.00345 10.1025 6.00345H13.501ZM13.4131 9.22415L13.8008 9.68899V7.50345C13.8008 7.33787 13.6665 7.20382 13.501 7.20364H11.6455L13.4131 9.22415Z" fill="#10100F"/>
</svg>
