<svg width="24" height="24" viewBox="0 0 24 24" fill="none" xmlns="http://www.w3.org/2000/svg">
<path d="M6.5 10.0037C7.32838 10.0037 7.99992 10.6753 8 11.5037V20.5037C8 21.3321 7.32843 22.0037 6.5 22.0037H3.5C2.67157 22.0037 2 21.3321 2 20.5037V11.5037C2.00008 10.6753 2.67162 10.0037 3.5 10.0037H6.5Z" fill="#10100F"/>
<path d="M3.0332 2.15603C3.27614 1.93067 3.6555 1.94532 3.88086 2.18826L20.4688 20.3445L21.2256 21.1648C21.5208 21.485 21.2939 22.0034 20.8584 22.0037H17.5C16.6716 22.0037 16 21.3321 16 20.5037V17.2322L15 16.1375V20.5037C15 21.3321 14.3284 22.0037 13.5 22.0037H10.5C9.67157 22.0037 9 21.3321 9 20.5037V9.56912L3.00195 3.00369C2.77663 2.76079 2.79038 2.3814 3.0332 2.15603Z" fill="#10100F"/>
<path d="M20.6533 2.0115C21.4097 2.08829 21.9999 2.72708 22 3.50369V19.2244C22 19.6794 21.4416 19.8984 21.1328 19.5642L16.3975 14.4344C16.1419 14.1573 16 13.7937 16 13.4168V2.00369H20.5L20.6533 2.0115Z" fill="#10100F"/>
<path d="M13.6543 6.0115C14.4104 6.08854 15.0009 6.72728 15.001 7.50369V11.6228C15.0008 12.0903 14.4156 12.3022 14.1162 11.9431L12.501 10.0037L9.72656 6.83279C9.46136 6.52971 9.64627 6.06632 10.0244 6.00955L10.1025 6.00369H13.501L13.6543 6.0115Z" fill="#10100F"/>
</svg>
