<svg width="24" height="24" viewBox="0 0 24 24" fill="none" xmlns="http://www.w3.org/2000/svg">
<path fill-rule="evenodd" clip-rule="evenodd" d="M15.0078 11.9912C15.0078 11.7151 15.2317 11.4912 15.5078 11.4912H18.5C18.7761 11.4912 19 11.7151 19 11.9912C19 12.2674 18.7761 12.4912 18.5 12.4912H15.5078C15.2317 12.4912 15.0078 12.2674 15.0078 11.9912Z" fill="#10100F"/>
<path fill-rule="evenodd" clip-rule="evenodd" d="M11.9922 4.9C12.3236 4.9 12.5922 5.16863 12.5922 5.5V8.44988C12.5922 8.78125 12.3236 9.04988 11.9922 9.04988C11.6608 9.04988 11.3922 8.78125 11.3922 8.44988V5.5C11.3922 5.16863 11.6608 4.9 11.9922 4.9Z" fill="#10100F"/>
<path fill-rule="evenodd" clip-rule="evenodd" d="M5.85406 5.85357C6.08837 5.61925 6.46827 5.61925 6.70258 5.85357L9.88952 9.0405C10.1238 9.27482 10.1238 9.65472 9.88952 9.88903C9.65521 10.1233 9.27531 10.1233 9.04099 9.88903L5.85406 6.7021C5.61974 6.46778 5.61974 6.08788 5.85406 5.85357Z" fill="#10100F"/>
<path fill-rule="evenodd" clip-rule="evenodd" d="M14.0572 14.0574C14.2915 13.8231 14.6714 13.8231 14.9057 14.0574L18.1044 17.2562C18.3388 17.4905 18.3388 17.8704 18.1044 18.1047C17.8701 18.339 17.4902 18.339 17.2559 18.1047L14.0572 14.906C13.8229 14.6716 13.8229 14.2917 14.0572 14.0574Z" fill="#10100F"/>
<path fill-rule="evenodd" clip-rule="evenodd" d="M9.88874 14.0566C10.1235 14.2905 10.1242 14.6704 9.8903 14.9052L6.70337 18.1039C6.46949 18.3387 6.08959 18.3394 5.85484 18.1055C5.62009 17.8716 5.61939 17.4917 5.85327 17.2569L9.04021 14.0582C9.27409 13.8235 9.65399 13.8228 9.88874 14.0566Z" fill="#10100F"/>
<path fill-rule="evenodd" clip-rule="evenodd" d="M18.1052 5.85435C18.3391 6.0891 18.3384 6.469 18.1037 6.70288L14.9049 9.88982C14.6702 10.1237 14.2903 10.123 14.0564 9.88825C13.8225 9.6535 13.8232 9.2736 14.058 9.03972L17.2567 5.85278C17.4915 5.6189 17.8714 5.61961 18.1052 5.85435Z" fill="#10100F"/>
<path fill-rule="evenodd" clip-rule="evenodd" d="M4.9 11.9912C4.9 11.6598 5.16863 11.3912 5.5 11.3912H8.44988C8.78125 11.3912 9.04988 11.6598 9.04988 11.9912C9.04988 12.3226 8.78125 12.5912 8.44988 12.5912H5.5C5.16863 12.5912 4.9 12.3226 4.9 11.9912Z" fill="#10100F"/>
<path fill-rule="evenodd" clip-rule="evenodd" d="M11.9922 14.9325C12.3236 14.9325 12.5922 15.2011 12.5922 15.5325V18.5C12.5922 18.8314 12.3236 19.1 11.9922 19.1C11.6608 19.1 11.3922 18.8314 11.3922 18.5V15.5325C11.3922 15.2011 11.6608 14.9325 11.9922 14.9325Z" fill="#10100F"/>
<path fill-rule="evenodd" clip-rule="evenodd" d="M14 4C14 5.10457 13.1046 6 12 6C10.8954 6 10 5.10457 10 4C10 2.89543 10.8954 2 12 2C13.1046 2 14 2.89543 14 4Z" fill="#10100F"/>
<path fill-rule="evenodd" clip-rule="evenodd" d="M6 4C6 5.10457 5.10457 6 4 6C2.89543 6 2 5.10457 2 4C2 2.89543 2.89543 2 4 2C5.10457 2 6 2.89543 6 4Z" fill="#10100F"/>
<path fill-rule="evenodd" clip-rule="evenodd" d="M22 4C22 5.10457 21.1046 6 20 6C18.8954 6 18 5.10457 18 4C18 2.89543 18.8954 2 20 2C21.1046 2 22 2.89543 22 4Z" fill="#10100F"/>
<path fill-rule="evenodd" clip-rule="evenodd" d="M22 12C22 13.1046 21.1046 14 20 14C18.8954 14 18 13.1046 18 12C18 10.8954 18.8954 10 20 10C21.1046 10 22 10.8954 22 12Z" fill="#10100F"/>
<path fill-rule="evenodd" clip-rule="evenodd" d="M22 20C22 21.1046 21.1046 22 20 22C18.8954 22 18 21.1046 18 20C18 18.8954 18.8954 18 20 18C21.1046 18 22 18.8954 22 20Z" fill="#10100F"/>
<path fill-rule="evenodd" clip-rule="evenodd" d="M14 20C14 21.1046 13.1046 22 12 22C10.8954 22 10 21.1046 10 20C10 18.8954 10.8954 18 12 18C13.1046 18 14 18.8954 14 20Z" fill="#10100F"/>
<path fill-rule="evenodd" clip-rule="evenodd" d="M6 20C6 21.1046 5.10457 22 4 22C2.89543 22 2 21.1046 2 20C2 18.8954 2.89543 18 4 18C5.10457 18 6 18.8954 6 20Z" fill="#10100F"/>
<path fill-rule="evenodd" clip-rule="evenodd" d="M6 12C6 13.1046 5.10457 14 4 14C2.89543 14 2 13.1046 2 12C2 10.8954 2.89543 10 4 10C5.10457 10 6 10.8954 6 12Z" fill="#10100F"/>
<path fill-rule="evenodd" clip-rule="evenodd" d="M16 12C16 14.2091 14.2091 16 12 16C9.79086 16 8 14.2091 8 12C8 9.79086 9.79086 8 12 8C14.2091 8 16 9.79086 16 12Z" fill="#10100F"/>
</svg>
