<svg width="24" height="24" viewBox="0 0 24 24" fill="none" xmlns="http://www.w3.org/2000/svg">
<path d="M10.5996 2.90039C10.931 2.90039 11.2002 3.16863 11.2002 3.5C11.2002 3.83136 10.931 4.09961 10.5996 4.09961H6.59961C4.72203 4.09982 3.2002 5.62236 3.2002 7.5V17.4004C3.2004 19.2779 4.72216 20.7996 6.59961 20.7998H17.4004C19.2779 20.7996 20.7996 19.2779 20.7998 17.4004V13C20.7998 12.6686 21.069 12.4004 21.4004 12.4004C21.7316 12.4006 22 12.6688 22 13V17.4004C21.9998 19.9406 19.9406 21.9998 17.4004 22H6.59961C4.05942 21.9998 2.00021 19.9406 2 17.4004V7.5C2 4.95962 4.05929 2.9006 6.59961 2.90039H10.5996Z" fill="#10100F"/>
<path d="M21.4004 2L21.5215 2.01172C21.7948 2.0676 22.0008 2.30979 22.001 2.59961L22 8C22 8.33135 21.7317 8.5996 21.4004 8.59961C21.069 8.5996 20.8008 8.33136 20.8008 8V4.04785L12.4248 12.4238C12.1905 12.6581 11.8105 12.6581 11.5762 12.4238C11.342 12.1895 11.3419 11.8105 11.5762 11.5762L19.9521 3.2002H15.7578C15.4264 3.2002 15.1572 2.93098 15.1572 2.59961C15.1574 2.26842 15.4266 2 15.7578 2H21.4004Z" fill="#10100F"/>
</svg>
