<svg width="24" height="24" viewBox="0 0 24 24" fill="none" xmlns="http://www.w3.org/2000/svg">
<path fill-rule="evenodd" clip-rule="evenodd" d="M11.9783 2C14.8251 2 17.1334 4.28314 17.1336 7.09961V8.5H19.1267L19.3172 8.50879C20.2613 8.59682 21.0289 9.32984 21.1355 10.2793L21.9529 17.5586C22.2188 19.9277 20.3436 21.9996 17.9344 22H6.06522L5.84061 21.9941C3.54017 21.8704 1.78905 19.8539 2.04666 17.5586L2.86404 10.2793C2.97782 9.26656 3.84292 8.50014 4.87283 8.5H6.82401V7.09961C6.82422 4.28321 9.1316 2.00012 11.9783 2ZM14.4041 13.1016C14.182 12.8536 13.7983 12.8312 13.5476 13.0508L11.9529 14.4482L10.3592 13.0508C10.1086 12.8312 9.72586 12.854 9.50369 13.1016C9.28156 13.3496 9.30478 13.7285 9.55545 13.9482L11.0388 15.249L9.55545 16.5508C9.3048 16.7705 9.28163 17.1495 9.50369 17.3975C9.72579 17.6452 10.1086 17.6687 10.3592 17.4492L11.9529 16.0508L13.5476 17.4492C13.7983 17.6687 14.182 17.6454 14.4041 17.3975C14.6255 17.1495 14.6025 16.7704 14.3523 16.5508L12.867 15.249L14.3523 13.9482C14.6023 13.7285 14.6257 13.3494 14.4041 13.1016ZM11.9783 3.2002C9.80147 3.20032 8.03711 4.94595 8.0369 7.09961V8.5H15.9207V7.09961C15.9205 4.94588 14.1552 3.2002 11.9783 3.2002Z" fill="#10100F"/>
</svg>
