<svg width="24" height="24" viewBox="0 0 24 24" fill="none" xmlns="http://www.w3.org/2000/svg">
<path d="M13.5518 13.0508C13.7998 12.831 14.1796 12.8536 14.3994 13.1016C14.6191 13.3496 14.5956 13.7285 14.3477 13.9482L12.8789 15.249L14.3477 16.5508C14.5955 16.7704 14.6189 17.1494 14.3994 17.3975C14.1797 17.6454 13.8007 17.6687 13.5527 17.4492L11.9746 16.0508L10.3975 17.4492C10.1495 17.6687 9.77045 17.6454 9.55078 17.3975C9.33134 17.1494 9.35465 16.7705 9.60254 16.5508L11.0703 15.249L9.60254 13.9482C9.35456 13.7285 9.33107 13.3496 9.55078 13.1016C9.77055 12.8536 10.1504 12.831 10.3984 13.0508L11.9746 14.4473L13.5518 13.0508Z" fill="#10100F"/>
<path fill-rule="evenodd" clip-rule="evenodd" d="M12 2C14.8165 2 17.0994 4.28314 17.0996 7.09961V8.5H19.1787C20.1978 8.5 21.0545 9.26643 21.167 10.2793L21.9756 17.5586C22.2387 19.9279 20.3839 22 18 22H6C3.61606 22 1.76134 19.9279 2.02442 17.5586L2.83301 10.2793C2.94555 9.26643 3.80219 8.5 4.82129 8.5H6.90039V7.09961C6.9006 4.28314 9.18348 2 12 2ZM4.82129 9.7002C4.41365 9.7002 4.07139 10.007 4.02637 10.4121L3.2168 17.6904C3.03251 19.3491 4.33117 20.7998 6 20.7998H18C19.6688 20.7998 20.9675 19.3491 20.7832 17.6904L19.9736 10.4121C19.9286 10.007 19.5864 9.7002 19.1787 9.7002H17.0996V11.5C17.0996 11.8314 16.8314 12.0996 16.5 12.0996C16.1686 12.0996 15.9004 11.8314 15.9004 11.5V9.7002H8.09961V11.5C8.09961 11.8314 7.83137 12.0996 7.5 12.0996C7.16863 12.0996 6.90039 11.8314 6.90039 11.5V9.7002H4.82129ZM12 3.2002C9.84622 3.2002 8.09982 4.94588 8.09961 7.09961V8.5H15.9004V7.09961C15.9002 4.94588 14.1538 3.2002 12 3.2002Z" fill="#10100F"/>
</svg>
