<svg width="24" height="24" viewBox="0 0 24 24" fill="none" xmlns="http://www.w3.org/2000/svg">
<path d="M21.4004 8.7998C21.7316 8.80002 22 9.06915 22 9.40039C21.9998 9.73147 21.7315 9.99979 21.4004 10H20C20 14.2162 16.7382 17.6674 12.6006 17.9746V21.4004C12.6004 21.7316 12.3312 22 12 22C11.6689 21.9998 11.4006 21.7315 11.4004 21.4004V17.9746C7.26228 17.6679 4 14.2165 4 10H2.59961C2.26853 9.99979 2.00018 9.73147 2 9.40039C2 9.06915 2.26842 8.80002 2.59961 8.7998H21.4004Z" fill="#10100F"/>
<path d="M7.99805 2C8.32929 2 8.59842 2.26842 8.59863 2.59961L8.59961 6.5C8.59958 6.83135 8.33038 7.09961 7.99902 7.09961C7.66776 7.0995 7.39944 6.83128 7.39941 6.5L7.39844 2.59961C7.39865 2.26855 7.66699 2.00021 7.99805 2Z" fill="#10100F"/>
<path d="M15.998 2C16.3293 2 16.5984 2.26842 16.5986 2.59961L16.5996 6.5C16.5996 6.83133 16.3304 7.09961 15.999 7.09961C15.6678 7.0995 15.3995 6.83126 15.3994 6.5L15.3984 2.59961C15.3986 2.26855 15.667 2.00021 15.998 2Z" fill="#10100F"/>
</svg>
