<svg width="24" height="24" viewBox="0 0 24 24" fill="none" xmlns="http://www.w3.org/2000/svg">
<path fill-rule="evenodd" clip-rule="evenodd" d="M21.4004 8.7998C21.7316 8.80002 22 9.06915 22 9.40039C21.9998 9.73145 21.7315 9.99979 21.4004 10H20C20 14.2172 16.7367 17.6688 12.5977 17.9746C12.598 17.983 12.6006 17.9915 12.6006 18V21.4004C12.6004 21.7316 12.3312 22 12 22C11.6689 21.9998 11.4006 21.7315 11.4004 21.4004V18C11.4004 17.9915 11.402 17.983 11.4023 17.9746C7.26331 17.6688 4 14.2172 4 10H2.59961C2.26855 9.99979 2.00021 9.73145 2 9.40039C2 9.06915 2.26842 8.80002 2.59961 8.7998H21.4004ZM5.2002 10C5.2002 13.7555 8.24446 16.7998 12 16.7998C15.6383 16.7998 18.609 13.9427 18.791 10.3496L18.7998 10H5.2002Z" fill="#10100F"/>
<path d="M8 2C8.33124 2 8.60038 2.26842 8.60059 2.59961V6.5C8.60059 6.83131 8.33226 7.0995 8.00098 7.09961C7.66961 7.09961 7.40039 6.83137 7.40039 6.5V2.59961C7.4006 2.26855 7.66894 2.00021 8 2Z" fill="#10100F"/>
<path d="M16 2C16.3312 2 16.6004 2.26842 16.6006 2.59961V6.5C16.6005 6.83133 16.3313 7.09961 16 7.09961C15.6688 7.0994 15.4004 6.8312 15.4004 6.5V2.59961C15.4006 2.26855 15.6689 2.00021 16 2Z" fill="#10100F"/>
</svg>
