<svg width="24" height="24" viewBox="0 0 24 24" fill="none" xmlns="http://www.w3.org/2000/svg">
<path d="M9 9C9 10.6569 10.3431 12 12 12C13.6569 12 15 10.6569 15 9V2H18C20.2091 2 22 3.79086 22 6V14.3369C21.0046 12.9234 19.3602 12 17.5 12C14.4624 12 12 14.4624 12 17.5C12 19.3602 12.9234 21.0046 14.3369 22H6C3.79086 22 2 20.2091 2 18V6C2 3.79086 3.79086 2 6 2H9V9Z" fill="#10100F"/>
<path fill-rule="evenodd" clip-rule="evenodd" d="M17.5 13C19.9853 13 22 15.0147 22 17.5C22 19.9853 19.9853 22 17.5 22C15.0147 22 13 19.9853 13 17.5C13 15.0147 15.0147 13 17.5 13ZM17.5 15.4004C17.1688 15.4005 16.9006 15.6689 16.9004 16V16.9004H15.999C15.668 16.9006 15.3996 17.1689 15.3994 17.5C15.3997 17.831 15.668 18.1004 15.999 18.1006H16.9004V19C16.9007 19.3311 17.1689 19.6005 17.5 19.6006C17.8312 19.6006 18.1003 19.3311 18.1006 19V18.1006H18.999C19.3302 18.1006 19.5993 17.8311 19.5996 17.5C19.5994 17.1688 19.3303 16.9004 18.999 16.9004H18.1006V16C18.1004 15.6688 17.8312 15.4004 17.5 15.4004Z" fill="#10100F"/>
<path d="M13.7998 9C13.7998 9.99411 12.9941 10.7998 12 10.7998C11.0059 10.7998 10.2002 9.99411 10.2002 9V2H13.7998V9Z" fill="#10100F"/>
</svg>
