<svg width="24" height="24" viewBox="0 0 24 24" fill="none" xmlns="http://www.w3.org/2000/svg">
<path d="M9.27977 16.439C9.90484 16.6272 10.5811 16.4153 10.9888 15.9039L11.4985 15.264V20.9893C10.8044 20.9609 10.1231 20.8776 9.58544 20.7277L4.29735 19.237H4.2954C3.46028 19.005 2.86864 18.2482 2.86864 17.3671V14.5084L9.27977 16.439Z" fill="#10100F"/>
<path d="M21.187 17.3671C21.187 18.248 20.5961 19.0048 19.7612 19.237H19.7593L14.4722 20.7277H14.4702C13.969 20.8674 13.3434 20.9492 12.6987 20.9825V15.265L13.2173 15.9157C13.6174 16.4177 14.2778 16.6315 14.895 16.4596L21.187 14.7054V17.3671Z" fill="#10100F"/>
<path d="M23.0542 12.0436C23.1877 12.1989 23.2335 12.4124 23.1753 12.6091C23.117 12.8052 22.9628 12.9577 22.7671 13.0148L14.5737 15.2993C14.4195 15.3421 14.2547 15.2884 14.1548 15.163L12.6987 13.3363V12.0103L21.1909 9.87969L23.0542 12.0436Z" fill="#10100F"/>
<path d="M11.4985 12.0103V13.3363L10.0522 15.1513C9.95031 15.2791 9.78077 15.3326 9.6245 15.2855L1.0659 12.709C1.04975 12.6771 1.03528 12.644 1.02489 12.6091C0.966577 12.4123 1.01224 12.199 1.14598 12.0436L3.00731 9.87969L11.4985 12.0103Z" fill="#10100F"/>
<path d="M14.0991 3.01065C17.3733 3.01065 20.0313 5.64266 20.0942 8.91338L12.1958 10.896C12.1323 10.9119 12.0659 10.9119 12.0024 10.896L3.59911 8.78696V5.01776C3.59911 4.46351 4.04682 4.0142 4.59911 4.0142H8.09911C8.65139 4.0142 9.09911 4.46351 9.09911 5.01776V5.7028C10.174 4.0802 12.012 3.01065 14.0991 3.01065Z" fill="#10100F"/>
</svg>
