<svg width="24" height="24" viewBox="0 0 24 24" fill="none" xmlns="http://www.w3.org/2000/svg">
<path fill-rule="evenodd" clip-rule="evenodd" d="M15 5C16.1046 5 17 5.89543 17 7V13C17 14.1046 16.1046 15 15 15H9C7.89543 15 7 14.1046 7 13V7C7 5.89543 7.89543 5 9 5H15ZM9 6.2002C8.55817 6.2002 8.2002 6.55817 8.2002 7V13C8.2002 13.4418 8.55817 13.7998 9 13.7998H15C15.4418 13.7998 15.7998 13.4418 15.7998 13V7C15.7998 6.55817 15.4418 6.2002 15 6.2002H14V8C14 9.10457 13.1046 10 12 10C10.8954 10 10 9.10457 10 8V6.2002H9ZM11.2002 8C11.2002 8.44183 11.5582 8.7998 12 8.7998C12.4418 8.7998 12.7998 8.44183 12.7998 8V6.2002H11.2002V8Z" fill="#10100F"/>
<path fill-rule="evenodd" clip-rule="evenodd" d="M19 1C21.2091 1 23 2.79086 23 5V15C23 17.2091 21.2091 19 19 19H14.2305L14.7695 21.7998H15.5C15.8314 21.7998 16.1006 22.069 16.1006 22.4004C16.1004 22.7316 15.8312 23 15.5 23H8.5C8.16894 22.9998 7.9006 22.7315 7.90039 22.4004C7.90039 22.0691 8.16881 21.8 8.5 21.7998H9.23047L9.76953 19H5C2.79086 19 1 17.2091 1 15V5C1 2.79086 2.79086 1 5 1H19ZM10.4639 21.7998H13.5361L13.0166 19H10.9834L10.4639 21.7998ZM5 2.2002C3.4536 2.2002 2.2002 3.4536 2.2002 5V15C2.2002 16.5464 3.4536 17.7998 5 17.7998H19C20.5464 17.7998 21.7998 16.5464 21.7998 15V5C21.7998 3.4536 20.5464 2.2002 19 2.2002H5Z" fill="#10100F"/>
</svg>
