<svg width="24" height="24" viewBox="0 0 24 24" fill="none" xmlns="http://www.w3.org/2000/svg">
<path d="M18.4004 1C20.9406 1.00021 22.9998 3.05941 23 5.59961V12.5996C23 12.9309 22.7316 13.2 22.4004 13.2002C22.069 13.2002 21.7998 12.931 21.7998 12.5996V5.59961C21.7996 3.72215 20.2778 2.20041 18.4004 2.2002H5.59961C3.72215 2.20041 2.20041 3.72215 2.2002 5.59961V14.5C2.2002 16.3776 3.72202 17.9002 5.59961 17.9004H12.0996C12.4309 17.9004 12.7001 18.1687 12.7002 18.5C12.7002 18.8314 12.431 19.0996 12.0996 19.0996H10.792L10.252 21.7998H13.5C13.8312 21.7998 14.1004 22.0682 14.1006 22.3994C14.1006 22.7308 13.8314 23 13.5 23H8.5C8.16881 22.9998 7.90039 22.7307 7.90039 22.3994C7.9006 22.0684 8.16894 21.8 8.5 21.7998H9.02832L9.56836 19.0996H5.59961C3.05928 19.0994 1 17.0404 1 14.5V5.59961C1.00021 3.05941 3.05941 1.00021 5.59961 1H18.4004Z" fill="#10100F"/>
<path d="M19.5762 17.0752C19.8105 16.8412 20.1906 16.8411 20.4248 17.0752C20.659 17.3094 20.6589 17.6895 20.4248 17.9238L18.4248 19.9238C18.1905 20.1581 17.8105 20.1581 17.5762 19.9238L16.5762 18.9238C16.342 18.6895 16.3419 18.3095 16.5762 18.0752C16.8105 17.8412 17.1906 17.8411 17.4248 18.0752L18 18.6514L19.5762 17.0752Z" fill="#10100F"/>
<path fill-rule="evenodd" clip-rule="evenodd" d="M18.5 14C20.9853 14 23 16.0147 23 18.5C23 20.9853 20.9853 23 18.5 23C16.0147 23 14 20.9853 14 18.5C14 16.0147 16.0147 14 18.5 14ZM18.5 15.2002C16.6775 15.2002 15.2002 16.6775 15.2002 18.5C15.2002 20.3225 16.6775 21.7998 18.5 21.7998C20.3225 21.7998 21.7998 20.3225 21.7998 18.5C21.7998 16.6775 20.3225 15.2002 18.5 15.2002Z" fill="#10100F"/>
<path fill-rule="evenodd" clip-rule="evenodd" d="M15 4.5C16.1046 4.5 17 5.39543 17 6.5V11.5C17 12.6046 16.1046 13.5 15 13.5H9C7.89543 13.5 7 12.6046 7 11.5V6.5C7 5.39543 7.89543 4.5 9 4.5H15ZM9 5.7002C8.55817 5.7002 8.2002 6.05817 8.2002 6.5V11.5C8.2002 11.9418 8.55817 12.2998 9 12.2998H15C15.4418 12.2998 15.7998 11.9418 15.7998 11.5V6.5C15.7998 6.05817 15.4418 5.7002 15 5.7002H13.5V7.5C13.5 8.32843 12.8284 9 12 9C11.1716 9 10.5 8.32843 10.5 7.5V5.7002H9ZM11.7002 7.5C11.7002 7.66569 11.8343 7.7998 12 7.7998C12.1657 7.7998 12.2998 7.66569 12.2998 7.5V5.7002H11.7002V7.5Z" fill="#10100F"/>
</svg>
