<svg width="24" height="24" viewBox="0 0 24 24" fill="none" xmlns="http://www.w3.org/2000/svg">
<path fill-rule="evenodd" clip-rule="evenodd" d="M16.7472 5.74003C17.0558 3.95397 18.7523 2.76289 20.5392 3.08085L22.5969 3.41581C22.9238 3.46911 23.1461 3.77736 23.093 4.10429C23.0397 4.43119 22.7314 4.65341 22.4045 4.60038L20.3322 4.26249C19.1979 4.05889 18.1237 4.81399 17.9299 5.94804L17.9279 5.95878L16.0158 16.0057C15.9661 16.2858 15.8731 16.5475 15.7472 16.7869C15.8302 16.7769 15.9145 16.7713 16.0002 16.7713C17.1599 16.7713 18.1007 17.7111 18.1008 18.8709C18.1008 20.0307 17.16 20.9705 16.0002 20.9705C14.8405 20.9704 13.9006 20.0306 13.9006 18.8709C13.9006 18.614 13.949 18.3689 14.0334 18.1414C13.6725 18.2347 13.2873 18.2569 12.8967 18.1883L12.8937 18.1873L1.39373 16.0984C1.0678 16.0392 0.851305 15.7271 0.910334 15.4012C0.969552 15.0752 1.28163 14.8586 1.6076 14.9178L3.50604 15.2625C3.28145 14.793 3.19425 14.2523 3.29315 13.701L4.65838 6.10331C4.90963 4.70465 6.24703 3.77409 7.64569 4.02519L9.09881 4.28593L8.25213 9.00273C8.00553 10.3776 8.92025 11.6931 10.2951 11.9402C11.67 12.1871 12.9853 11.2721 13.2326 9.89726L14.0793 5.18046L15.2433 5.39042C15.8109 5.49238 16.2995 5.77472 16.6652 6.16581L16.7472 5.74003ZM16.0002 17.9705C15.5033 17.9706 15.1008 18.374 15.1008 18.8709C15.1008 19.3679 15.5032 19.7711 16.0002 19.7713C16.4972 19.7713 16.9006 19.3679 16.9006 18.8709C16.9005 18.3739 16.4972 17.9705 16.0002 17.9705Z" fill="#10100F"/>
<path d="M12.8976 4.96855L12.051 9.68534C11.9207 10.4078 11.2296 10.8884 10.507 10.7586C9.78446 10.6286 9.30327 9.93725 9.4328 9.21464L10.2805 4.49784L12.8976 4.96855Z" fill="#10100F"/>
</svg>
