<svg width="24" height="24" viewBox="0 0 24 24" fill="none" xmlns="http://www.w3.org/2000/svg">
<path d="M12 17.2002C12.4418 17.2002 12.7998 17.5582 12.7998 18C12.7998 18.4418 12.4418 18.7998 12 18.7998C11.5582 18.7998 11.2002 18.4418 11.2002 18C11.2002 17.5582 11.5582 17.2002 12 17.2002Z" fill="#10100F"/>
<path d="M15 6.2002C15.4418 6.2002 15.7998 6.55817 15.7998 7V13C15.7998 13.4418 15.4418 13.7998 15 13.7998H9C8.55817 13.7998 8.2002 13.4418 8.2002 13V7C8.2002 6.55817 8.55817 6.2002 9 6.2002H10V8C10 9.10457 10.8954 10 12 10C13.1046 10 14 9.10457 14 8V6.2002H15Z" fill="#10100F"/>
<path d="M12.7998 6.2002V8C12.7998 8.44183 12.4418 8.7998 12 8.7998C11.5582 8.7998 11.2002 8.44183 11.2002 8V6.2002H12.7998Z" fill="#10100F"/>
<path fill-rule="evenodd" clip-rule="evenodd" d="M17 1C19.2091 1 21 2.79086 21 5V19C21 21.2091 19.2091 23 17 23H7L6.79395 22.9951C4.68056 22.8879 3 21.14 3 19V5C3 2.79086 4.79086 1 7 1H17ZM12 16C10.8954 16 10 16.8954 10 18C10 19.1046 10.8954 20 12 20C13.1046 20 14 19.1046 14 18C14 16.8954 13.1046 16 12 16ZM9 5C7.89543 5 7 5.89543 7 7V13C7 14.1046 7.89543 15 9 15H15C16.1046 15 17 14.1046 17 13V7C17 5.89543 16.1046 5 15 5H9Z" fill="#10100F"/>
</svg>
