<svg width="24" height="24" viewBox="0 0 24 24" fill="none" xmlns="http://www.w3.org/2000/svg">
<path fill-rule="evenodd" clip-rule="evenodd" d="M18 2C20.2091 2 22 3.79086 22 6V11.3994C22 11.7307 21.7316 11.9997 21.4004 12C21.0691 12 20.8001 11.7316 20.7998 11.4004V6C20.7998 4.4536 19.5464 3.2002 18 3.2002H15V9C15 10.6569 13.6569 12 12 12C10.3431 12 9 10.6569 9 9V3.2002H6C4.4536 3.2002 3.2002 4.4536 3.2002 6V18C3.2002 19.5464 4.4536 20.7998 6 20.7998H11.3994C11.7308 20.7998 12 21.069 12 21.4004C11.9997 21.7314 11.7314 21.9997 11.4004 22H6C3.79086 22 2 20.2091 2 18V6C2 3.79086 3.79086 2 6 2H18ZM10.2002 9C10.2002 9.99411 11.0059 10.7998 12 10.7998C12.9941 10.7998 13.7998 9.99411 13.7998 9V3.2002H10.2002V9Z" fill="#10100F"/>
<path d="M16.0156 16.0146C16.2499 15.7806 16.629 15.7806 16.8633 16.0146L17.5 16.6504L18.1357 16.0156C18.3701 15.7813 18.7501 15.7813 18.9844 16.0156C19.2184 16.2499 19.2184 16.629 18.9844 16.8633L18.3477 17.499L18.9854 18.1357C19.2194 18.37 19.2194 18.7501 18.9854 18.9844C18.7511 19.2183 18.3709 19.2184 18.1367 18.9844L17.5 18.3477L16.8633 18.9854C16.629 19.2191 16.2488 19.2192 16.0146 18.9854C15.7805 18.7512 15.7808 18.3711 16.0146 18.1367L16.6514 17.499L16.0156 16.8633C15.7814 16.6291 15.7817 16.249 16.0156 16.0146Z" fill="#10100F"/>
<path fill-rule="evenodd" clip-rule="evenodd" d="M17.5 13C19.9853 13 22 15.0147 22 17.5C22 19.9853 19.9853 22 17.5 22C15.0147 22 13 19.9853 13 17.5C13 15.0147 15.0147 13 17.5 13ZM17.5 14.2002C15.6775 14.2002 14.2002 15.6775 14.2002 17.5C14.2002 19.3225 15.6775 20.7998 17.5 20.7998C19.3225 20.7998 20.7998 19.3225 20.7998 17.5C20.7998 15.6775 19.3225 14.2002 17.5 14.2002Z" fill="#10100F"/>
</svg>
