<svg width="24" height="24" viewBox="0 0 24 24" fill="none" xmlns="http://www.w3.org/2000/svg">
<path d="M9 9C9 10.6569 10.3431 12 12 12C13.6569 12 15 10.6569 15 9V2H18C20.2091 2 22 3.79086 22 6V14.3369C21.0046 12.9234 19.3602 12 17.5 12C14.4624 12 12 14.4624 12 17.5C12 19.3602 12.9234 21.0046 14.3369 22H6C3.79086 22 2 20.2091 2 18V6C2 3.79086 3.79086 2 6 2H9V9Z" fill="#10100F"/>
<path fill-rule="evenodd" clip-rule="evenodd" d="M17.5 13C19.9853 13 22 15.0147 22 17.5C22 19.9853 19.9853 22 17.5 22C15.0147 22 13 19.9853 13 17.5C13 15.0147 15.0147 13 17.5 13ZM19.4248 16.0752C19.1906 15.8411 18.8105 15.8412 18.5762 16.0752L17 17.6514L16.4248 17.0752C16.1906 16.8411 15.8105 16.8412 15.5762 17.0752C15.3419 17.3095 15.342 17.6895 15.5762 17.9238L16.5762 18.9238C16.8105 19.1581 17.1905 19.1581 17.4248 18.9238L19.4248 16.9238C19.6589 16.6895 19.659 16.3094 19.4248 16.0752Z" fill="#10100F"/>
<path d="M13.7998 9C13.7998 9.99411 12.9941 10.7998 12 10.7998C11.0059 10.7998 10.2002 9.99411 10.2002 9V2H13.7998V9Z" fill="#10100F"/>
</svg>
