<svg width="24" height="24" viewBox="0 0 24 24" fill="none" xmlns="http://www.w3.org/2000/svg">
<path fill-rule="evenodd" clip-rule="evenodd" d="M12 16C13.1046 16 14 16.8954 14 18C14 19.1046 13.1046 20 12 20C10.8954 20 10 19.1046 10 18C10 16.8954 10.8954 16 12 16ZM12 17.2002C11.5582 17.2002 11.2002 17.5582 11.2002 18C11.2002 18.4418 11.5582 18.7998 12 18.7998C12.4418 18.7998 12.7998 18.4418 12.7998 18C12.7998 17.5582 12.4418 17.2002 12 17.2002Z" fill="#10100F"/>
<path fill-rule="evenodd" clip-rule="evenodd" d="M15 5C16.1046 5 17 5.89543 17 7V13C17 14.1046 16.1046 15 15 15H9C7.89543 15 7 14.1046 7 13V7C7 5.89543 7.89543 5 9 5H15ZM9 6.2002C8.55817 6.2002 8.2002 6.55817 8.2002 7V13C8.2002 13.4418 8.55817 13.7998 9 13.7998H15C15.4418 13.7998 15.7998 13.4418 15.7998 13V7C15.7998 6.55817 15.4418 6.2002 15 6.2002H14V8C14 9.10457 13.1046 10 12 10C10.8954 10 10 9.10457 10 8V6.2002H9ZM11.2002 8C11.2002 8.44183 11.5582 8.7998 12 8.7998C12.4418 8.7998 12.7998 8.44183 12.7998 8V6.2002H11.2002V8Z" fill="#10100F"/>
<path fill-rule="evenodd" clip-rule="evenodd" d="M17 1C19.2091 1 21 2.79086 21 5V19C21 21.2091 19.2091 23 17 23H7C4.79086 23 3 21.2091 3 19V5C3 2.79086 4.79086 1 7 1H17ZM7 2.2002C5.4536 2.2002 4.2002 3.4536 4.2002 5V19C4.2002 20.5464 5.4536 21.7998 7 21.7998H17C18.5464 21.7998 19.7998 20.5464 19.7998 19V5C19.7998 3.4536 18.5464 2.2002 17 2.2002H7Z" fill="#10100F"/>
</svg>
