<svg width="24" height="24" viewBox="0 0 24 24" fill="none" xmlns="http://www.w3.org/2000/svg">
<path d="M10.5 7.5C10.5 8.32843 11.1716 9 12 9C12.8284 9 13.5 8.32843 13.5 7.5V5.7002H15C15.4418 5.7002 15.7998 6.05817 15.7998 6.5V11C15.7998 11.4418 15.4418 11.7998 15 11.7998H9C8.55817 11.7998 8.2002 11.4418 8.2002 11V6.5C8.2002 6.05817 8.55817 5.7002 9 5.7002H10.5V7.5Z" fill="#10100F"/>
<path d="M12.2998 7.5C12.2998 7.66569 12.1657 7.7998 12 7.7998C11.8343 7.7998 11.7002 7.66569 11.7002 7.5V5.7002H12.2998V7.5Z" fill="#10100F"/>
<path fill-rule="evenodd" clip-rule="evenodd" d="M19 1C21.2091 1 23 2.79086 23 5V15C23 15.1079 22.9937 15.2146 22.9854 15.3203C21.9887 13.917 20.3523 13 18.5 13C15.4624 13 13 15.4624 13 18.5C13 18.6686 13.0086 18.8353 13.0234 19H10.8125L10.252 21.8008H13.5C13.8312 21.8009 14.1005 22.0692 14.1006 22.4004C14.1003 22.7314 13.8311 23.0008 13.5 23.001H8.5C8.16897 23.0008 7.90065 22.7314 7.90039 22.4004C7.9005 22.0692 8.16887 21.801 8.5 21.8008H9.02832L9.58887 19H5C2.79086 19 1 17.2091 1 15V5C1 2.79086 2.79086 1 5 1H19ZM9 4.5C7.89543 4.5 7 5.39543 7 6.5V11C7 12.1046 7.89543 13 9 13H15C16.1046 13 17 12.1046 17 11V6.5C17 5.39543 16.1046 4.5 15 4.5H9Z" fill="#10100F"/>
<path d="M19.5762 17.0752C19.8105 16.8412 20.1906 16.8411 20.4248 17.0752C20.659 17.3094 20.6589 17.6895 20.4248 17.9238L18.4248 19.9238C18.1905 20.1581 17.8105 20.1581 17.5762 19.9238L16.5762 18.9238C16.342 18.6895 16.3419 18.3095 16.5762 18.0752C16.8105 17.8412 17.1906 17.8411 17.4248 18.0752L18 18.6514L19.5762 17.0752Z" fill="#10100F"/>
<path fill-rule="evenodd" clip-rule="evenodd" d="M18.5 14C20.9853 14 23 16.0147 23 18.5C23 20.9853 20.9853 23 18.5 23C16.0147 23 14 20.9853 14 18.5C14 16.0147 16.0147 14 18.5 14ZM18.5 15.2002C16.6775 15.2002 15.2002 16.6775 15.2002 18.5C15.2002 20.3225 16.6775 21.7998 18.5 21.7998C20.3225 21.7998 21.7998 20.3225 21.7998 18.5C21.7998 16.6775 20.3225 15.2002 18.5 15.2002Z" fill="#10100F"/>
</svg>
