<svg width="24" height="24" viewBox="0 0 24 24" fill="none" xmlns="http://www.w3.org/2000/svg">
<path fill-rule="evenodd" clip-rule="evenodd" d="M18 2C20.2091 2 22 3.79086 22 6V11.3994C22 11.7307 21.7316 11.9997 21.4004 12C21.0691 12 20.8001 11.7316 20.7998 11.4004V6C20.7998 4.4536 19.5464 3.2002 18 3.2002H15V9C15 10.6569 13.6569 12 12 12C10.3431 12 9 10.6569 9 9V3.2002H6C4.4536 3.2002 3.2002 4.4536 3.2002 6V18C3.2002 19.5464 4.4536 20.7998 6 20.7998H11.3994C11.7308 20.7998 12 21.069 12 21.4004C11.9997 21.7314 11.7314 21.9997 11.4004 22H6C3.79086 22 2 20.2091 2 18V6C2 3.79086 3.79086 2 6 2H18ZM10.2002 9C10.2002 9.99411 11.0059 10.7998 12 10.7998C12.9941 10.7998 13.7998 9.99411 13.7998 9V3.2002H10.2002V9Z" fill="#10100F"/>
<path d="M17.5 15.4004C17.8312 15.4004 18.1004 15.6688 18.1006 16V16.9004H18.999C19.3303 16.9004 19.5994 17.1688 19.5996 17.5C19.5993 17.8311 19.3302 18.1006 18.999 18.1006H18.1006V19C18.1003 19.3311 17.8312 19.6006 17.5 19.6006C17.1689 19.6005 16.9007 19.3311 16.9004 19V18.1006H15.999C15.668 18.1004 15.3997 17.831 15.3994 17.5C15.3996 17.1689 15.668 16.9006 15.999 16.9004H16.9004V16C16.9006 15.6689 17.1688 15.4005 17.5 15.4004Z" fill="#10100F"/>
<path fill-rule="evenodd" clip-rule="evenodd" d="M17.5 13C19.9853 13 22 15.0147 22 17.5C22 19.9853 19.9853 22 17.5 22C15.0147 22 13 19.9853 13 17.5C13 15.0147 15.0147 13 17.5 13ZM17.5 14.2002C15.6775 14.2002 14.2002 15.6775 14.2002 17.5C14.2002 19.3225 15.6775 20.7998 17.5 20.7998C19.3225 20.7998 20.7998 19.3225 20.7998 17.5C20.7998 15.6775 19.3225 14.2002 17.5 14.2002Z" fill="#10100F"/>
</svg>
