<svg width="24" height="24" viewBox="0 0 24 24" fill="none" xmlns="http://www.w3.org/2000/svg">
<path fill-rule="evenodd" clip-rule="evenodd" d="M18 2C20.2091 2 22 3.79086 22 6V12.1162C22 12.5474 21.4236 12.788 21.0537 12.5664C20.9022 12.4756 20.7998 12.3153 20.7998 12.1387V6C20.7998 4.4536 19.5464 3.2002 18 3.2002H15V9C15 10.6569 13.6569 12 12 12C10.3431 12 9 10.6569 9 9V3.2002H6C4.4536 3.2002 3.2002 4.4536 3.2002 6V18C3.2002 19.5464 4.4536 20.7998 6 20.7998H12.1387C12.3153 20.7998 12.4756 20.9022 12.5664 21.0537C12.788 21.4236 12.5474 22 12.1162 22H6C3.79086 22 2 20.2091 2 18V6C2 3.79086 3.79086 2 6 2H18ZM10.2002 9C10.2002 9.99411 11.0059 10.7998 12 10.7998C12.9941 10.7998 13.7998 9.99411 13.7998 9V3.2002H10.2002V9Z" fill="#10100F"/>
<path d="M18.5762 16.0752C18.8105 15.8412 19.1906 15.8411 19.4248 16.0752C19.659 16.3094 19.6589 16.6895 19.4248 16.9238L17.4248 18.9238C17.1905 19.1581 16.8105 19.1581 16.5762 18.9238L15.5762 17.9238C15.342 17.6895 15.3419 17.3095 15.5762 17.0752C15.8105 16.8412 16.1906 16.8411 16.4248 17.0752L17 17.6514L18.5762 16.0752Z" fill="#10100F"/>
<path fill-rule="evenodd" clip-rule="evenodd" d="M17.5 13C19.9853 13 22 15.0147 22 17.5C22 19.9853 19.9853 22 17.5 22C15.0147 22 13 19.9853 13 17.5C13 15.0147 15.0147 13 17.5 13ZM17.5 14.2002C15.6775 14.2002 14.2002 15.6775 14.2002 17.5C14.2002 19.3225 15.6775 20.7998 17.5 20.7998C19.3225 20.7998 20.7998 19.3225 20.7998 17.5C20.7998 15.6775 19.3225 14.2002 17.5 14.2002Z" fill="#10100F"/>
</svg>
