<svg width="24" height="24" viewBox="0 0 24 24" fill="none" xmlns="http://www.w3.org/2000/svg">
<path d="M14.0001 3.03467C17.3138 3.03467 20.0001 5.72096 20.0001 9.03467C20.0001 9.20478 19.9905 9.37303 19.9766 9.53955L18.7286 9.85205C18.7742 9.58631 18.7999 9.31343 18.7999 9.03467C18.7999 6.3837 16.651 4.23486 14.0001 4.23486C11.3491 4.23486 9.20028 6.3837 9.20028 9.03467C9.20028 9.70864 9.3392 10.3501 9.58993 10.9321L7.1993 10.3345H7.79989V5.23486H4.70028V9.70947L4.00008 9.53467L3.50008 10.0347V5.03467C3.50008 4.48238 3.9478 4.03467 4.50008 4.03467H8.00008C8.55237 4.03467 9.00008 4.48238 9.00008 5.03467V5.71729C10.075 4.10043 11.913 3.03467 14.0001 3.03467Z" fill="#10100F"/>
<path fill-rule="evenodd" clip-rule="evenodd" d="M4.05167 8.938C4.0727 8.93978 4.09335 8.94375 4.11417 8.94776C4.12601 8.95007 4.13846 8.95057 4.1503 8.95362L11.8954 10.9458C11.9498 10.9361 12.0053 10.9315 12.0605 10.937C12.0647 10.9374 12.0689 10.9394 12.0732 10.9399C12.1069 10.944 12.1408 10.9496 12.1737 10.9595C12.1993 10.9671 12.2235 10.9787 12.248 10.9898C12.2784 10.9758 12.3102 10.9635 12.3437 10.9546L19.8437 8.9546C19.8603 8.95015 19.8778 8.94878 19.8944 8.94581C19.912 8.94263 19.9295 8.9396 19.9472 8.938C19.9645 8.93648 19.9817 8.93702 19.9989 8.93702C20.0205 8.93693 20.0419 8.93676 20.0634 8.93897C20.0809 8.94088 20.098 8.94435 20.1151 8.94776C20.1376 8.95209 20.1597 8.95748 20.1815 8.96436C20.1928 8.96797 20.2038 8.97184 20.2148 8.97608C20.2405 8.98586 20.2656 8.99687 20.2899 9.01026C20.299 9.01531 20.3075 9.02135 20.3163 9.02686C20.3667 9.05812 20.4151 9.09485 20.456 9.1421L22.956 12.0357C23.0894 12.1903 23.1351 12.4023 23.0771 12.5982C23.0188 12.7942 22.8644 12.9478 22.6679 13.0044L21.0878 13.4585V17.3403C21.0878 18.2182 20.497 18.9723 19.662 19.2036H19.6601L14.373 20.689H14.371C13.7266 20.8681 12.8768 20.9532 12.0448 20.9605C12.0302 20.9615 12.0157 20.9653 12.0009 20.9653C11.9892 20.9653 11.9773 20.9621 11.9657 20.9614C11.9534 20.9615 11.9409 20.9624 11.9286 20.9624C11.0603 20.9624 10.1605 20.8764 9.48624 20.689L4.19717 19.2036C3.36206 18.9724 2.76944 18.2183 2.76944 17.3403V13.4165L1.33487 13.0044C1.13821 12.9478 0.984014 12.7943 0.92569 12.5982C0.867532 12.4021 0.913105 12.1904 1.04678 12.0357L3.54678 9.1421C3.55406 9.13369 3.56259 9.12656 3.57022 9.11866C3.58634 9.10202 3.60316 9.08639 3.621 9.07179C3.63426 9.0609 3.64805 9.05111 3.66202 9.04151C3.6798 9.02932 3.69773 9.01756 3.71671 9.00733C3.73271 8.99873 3.74894 8.99096 3.76553 8.9839C3.7841 8.97595 3.80283 8.96846 3.82217 8.96241C3.83981 8.95694 3.85788 8.95354 3.87589 8.94972C3.89528 8.94557 3.91461 8.94118 3.93448 8.93897C3.95363 8.93686 3.97283 8.93632 3.9921 8.93604C4.01188 8.93577 4.03167 8.93626 4.05167 8.938ZM9.87686 15.0825C9.72502 15.2684 9.47666 15.3461 9.246 15.2798L3.96964 13.7612V17.3403C3.96964 17.6665 4.18903 17.9568 4.51651 18.0474H4.51944L9.80753 19.5327L9.8085 19.5337C10.2216 19.6484 10.787 19.7221 11.4003 19.7495V13.2173L9.87686 15.0825ZM12.6005 19.7427C13.1581 19.7106 13.668 19.6394 14.0487 19.5337L14.0497 19.5327L19.3378 18.0474H19.3407C19.6684 17.9569 19.8886 17.6666 19.8886 17.3403V13.8032L14.7558 15.2798C14.5251 15.3461 14.2767 15.2684 14.1249 15.0825L12.6005 13.2163V19.7427ZM2.56729 12.1099L9.19815 14.0171L10.9023 11.9292L4.21085 10.2075L2.56729 12.1099ZM13.1435 11.9839L14.8046 14.0171L21.4345 12.1099L19.7929 10.2105L13.1435 11.9839Z" fill="#10100F"/>
</svg>
