<svg width="24" height="24" viewBox="0 0 24 24" fill="none" xmlns="http://www.w3.org/2000/svg">
<path fill-rule="evenodd" clip-rule="evenodd" d="M20.3994 5.41895C22.0163 5.41922 23.2413 6.87959 22.96 8.47168L21.8613 14.6865C21.6418 15.9287 20.5623 16.8339 19.3008 16.834H7.78223L7.89551 17.3232C8.04526 17.9543 8.60919 18.4002 9.25781 18.4004H20.501C20.8324 18.4004 21.1016 18.6686 21.1016 19C21.1015 19.3314 20.8324 19.5996 20.501 19.5996H18.9287C19.2828 19.9604 19.501 20.4546 19.501 21C19.501 22.1046 18.6055 23 17.501 23C16.3966 22.9998 15.501 22.1044 15.501 21C15.501 20.4545 15.7201 19.9604 16.0742 19.5996H11.9277C12.2818 19.9604 12.501 20.4545 12.501 21C12.501 22.1044 11.6053 22.9997 10.501 23C9.39641 23 8.50098 22.1046 8.50098 21C8.50099 20.4511 8.72104 19.9532 9.0791 19.5918C7.95072 19.5144 6.99173 18.7134 6.72754 17.5996L3.77148 4.80957C3.68653 4.45232 3.36727 4.20031 3 4.2002H1.59961C1.26857 4.19994 1.00026 3.93158 1 3.60059C1 3.26937 1.26841 3.00025 1.59961 3H3C3.92355 3.00012 4.72631 3.63467 4.93945 4.5332L5.14453 5.41895H8V5C8 3.89543 8.89543 3 10 3H11C11 1.89543 11.8954 1 13 1H18C19.1046 1 20 1.89543 20 3V5.41895H20.3994ZM13.7998 5.41895V5C13.7998 4.55817 13.4418 4.2002 13 4.2002H10C9.55817 4.2002 9.2002 4.55817 9.2002 5V5.41895H13.7998ZM10.501 20.2002C10.0592 20.2002 9.70022 20.5582 9.7002 21C9.7002 21.4418 10.0591 21.7998 10.501 21.7998C10.9426 21.7996 11.3008 21.4417 11.3008 21C11.3008 20.5583 10.9426 20.2004 10.501 20.2002ZM17.501 20.2002C17.0594 20.2004 16.7012 20.5583 16.7012 21C16.7012 21.4417 17.0593 21.7996 17.501 21.7998C17.9428 21.7998 18.3018 21.4418 18.3018 21C18.3017 20.5582 17.9428 20.2002 17.501 20.2002ZM18.7998 5.41895V3C18.7998 2.55817 18.4418 2.2002 18 2.2002H13C12.5582 2.2002 12.2002 2.55817 12.2002 3H13C14.1046 3 15 3.89543 15 5V5.41895H18.7998Z" fill="#10100F"/>
</svg>
