<svg width="24" height="24" viewBox="0 0 24 24" fill="none" xmlns="http://www.w3.org/2000/svg">
<path d="M9 9C9 10.6569 10.3431 12 12 12C13.6569 12 15 10.6569 15 9V2H18C20.2091 2 22 3.79086 22 6V14.3389C21.0047 12.9247 19.3607 12 17.5 12C14.4624 12 12 14.4624 12 17.5C12 19.361 12.9253 21.0048 14.3398 22H6L5.79395 21.9951C3.68056 21.8879 2 20.14 2 18V6C2 3.79086 3.79086 2 6 2H9V9Z" fill="#10100F"/>
<path d="M17.5 13C19.9853 13 22 15.0147 22 17.5C22 19.7822 20.3008 21.6662 18.0986 21.959V19.4121C18.9656 19.1536 19.5984 18.3511 19.5986 17.4004C19.5986 16.4962 19.0262 15.7263 18.2246 15.4307C18.1619 15.4078 18.0977 15.4557 18.0977 15.5225V17.3008C18.0972 17.4109 18.0077 17.501 17.8975 17.501H17.0977C16.9875 17.501 16.8979 17.4109 16.8975 17.3008V15.5225C16.8974 15.4557 16.8331 15.4078 16.7705 15.4307C15.9699 15.7268 15.3985 16.4968 15.3984 17.4004C15.3987 18.3513 16.0314 19.1537 16.8984 19.4121V21.958C14.6977 21.6639 13 19.7812 13 17.5C13 15.0147 15.0147 13 17.5 13Z" fill="#10100F"/>
<path d="M13.7998 9C13.7998 9.99411 12.9941 10.7998 12 10.7998C11.0059 10.7998 10.2002 9.99411 10.2002 9V2H13.7998V9Z" fill="#10100F"/>
</svg>
