<svg width="24" height="24" viewBox="0 0 24 24" fill="none" xmlns="http://www.w3.org/2000/svg">
<path d="M9 9C9 10.6569 10.3431 12 12 12C13.6569 12 15 10.6569 15 9V2H18C20.2091 2 22 3.79086 22 6V14.3369C21.0046 12.9234 19.3602 12 17.5 12C14.4624 12 12 14.4624 12 17.5C12 19.3602 12.9234 21.0046 14.3369 22H6C3.79086 22 2 20.2091 2 18V6C2 3.79086 3.79086 2 6 2H9V9Z" fill="#10100F"/>
<path fill-rule="evenodd" clip-rule="evenodd" d="M17.5 13C19.9853 13 22 15.0147 22 17.5C22 19.9853 19.9853 22 17.5 22C15.0147 22 13 19.9853 13 17.5C13 15.0147 15.0147 13 17.5 13ZM16.8633 16.0146C16.629 15.7806 16.2499 15.7806 16.0156 16.0146C15.7815 16.249 15.7814 16.629 16.0156 16.8633L16.6514 17.499L16.0146 18.1367C15.7806 18.3711 15.7804 18.7511 16.0146 18.9854C16.2489 19.2192 16.6291 19.2193 16.8633 18.9854L17.5 18.3477L18.1367 18.9844C18.371 19.2184 18.7511 19.2184 18.9854 18.9844C19.2194 18.7501 19.2194 18.37 18.9854 18.1357L18.3477 17.499L18.9844 16.8633C19.2184 16.6291 19.2183 16.2499 18.9844 16.0156C18.7501 15.7813 18.3701 15.7813 18.1357 16.0156L17.5 16.6504L16.8633 16.0146Z" fill="#10100F"/>
<path d="M13.7998 9C13.7998 9.99411 12.9941 10.7998 12 10.7998C11.0059 10.7998 10.2002 9.99411 10.2002 9V2H13.7998V9Z" fill="#10100F"/>
</svg>
