<svg width="24" height="24" viewBox="0 0 24 24" fill="none" xmlns="http://www.w3.org/2000/svg">
<path d="M10 8C10 9.10457 10.8954 10 12 10C13.1046 10 14 9.10457 14 8V6.2002H15C15.4418 6.2002 15.7998 6.55817 15.7998 7V13C15.7998 13.4418 15.4418 13.7998 15 13.7998H9C8.55817 13.7998 8.2002 13.4418 8.2002 13V7C8.2002 6.55817 8.55817 6.2002 9 6.2002H10V8Z" fill="#10100F"/>
<path d="M12.7998 8C12.7998 8.44183 12.4418 8.7998 12 8.7998C11.5582 8.7998 11.2002 8.44183 11.2002 8V6.2002H12.7998V8Z" fill="#10100F"/>
<path fill-rule="evenodd" clip-rule="evenodd" d="M19.2061 1.00488C21.3194 1.11211 23 2.85996 23 5V15C23 17.2091 21.2091 19 19 19H14.2305L14.7695 21.7998H15.5C15.8314 21.7998 16.1006 22.069 16.1006 22.4004C16.1004 22.7316 15.8312 23 15.5 23H8.5C8.16894 22.9998 7.9006 22.7315 7.90039 22.4004C7.90039 22.0691 8.16881 21.8 8.5 21.7998H9.23047L9.76953 19H5L4.79395 18.9951C2.68056 18.8879 1 17.14 1 15V5C1 2.79086 2.79086 1 5 1H19C19.0691 1 19.1378 1.00142 19.2061 1.00488ZM10.4639 21.7998H13.5361L13.0166 19H10.9834L10.4639 21.7998ZM9 5C7.89543 5 7 5.89543 7 7V13C7 14.1046 7.89543 15 9 15H15C16.1046 15 17 14.1046 17 13V7C17 5.89543 16.1046 5 15 5H9Z" fill="#10100F"/>
</svg>
