<svg width="24" height="24" viewBox="0 0 24 24" fill="none" xmlns="http://www.w3.org/2000/svg">
<path fill-rule="evenodd" clip-rule="evenodd" d="M18 2C20.2091 2 22 3.79086 22 6V18C22 20.2091 20.2091 22 18 22H6C3.79086 22 2 20.2091 2 18V6C2 3.79086 3.79086 2 6 2H18ZM6 3.2002C4.4536 3.2002 3.2002 4.4536 3.2002 6V18C3.2002 19.5464 4.4536 20.7998 6 20.7998H18C19.5464 20.7998 20.7998 19.5464 20.7998 18V6C20.7998 4.4536 19.5464 3.2002 18 3.2002H15V9C15 10.6569 13.6569 12 12 12C10.3431 12 9 10.6569 9 9V3.2002H6ZM10.2002 9C10.2002 9.99411 11.0059 10.7998 12 10.7998C12.9941 10.7998 13.7998 9.99411 13.7998 9V3.2002H10.2002V9Z" fill="#10100F"/>
</svg>
