<svg width="24" height="24" viewBox="0 0 24 24" fill="none" xmlns="http://www.w3.org/2000/svg">
<path fill-rule="evenodd" clip-rule="evenodd" d="M3.60221 6.57087C3.60232 7.61025 4.44509 8.45316 5.4845 8.45316C6.52383 8.45308 7.36667 7.6102 7.36678 6.57087V3.00696H7.96289L8.16844 3.01773C9.17905 3.12062 9.96753 3.97384 9.96753 5.0116V8.70765C10.4998 8.29987 11.1655 8.05778 11.888 8.05771H14.8607C14.8397 7.93183 14.8115 7.80635 14.7706 7.6838L14.1706 5.88276C14.0781 5.60547 13.8179 5.41879 13.5256 5.41879H11.887C11.5551 5.41857 11.2861 5.14871 11.286 4.81681C11.2862 4.48499 11.5552 4.21603 11.887 4.21581H13.5256C14.3357 4.21581 15.0548 4.73442 15.311 5.50297L15.5674 6.27429C16.0266 5.53387 16.8476 4.7414 18.1496 4.39396C18.7118 4.24393 19.2377 4.42175 19.6041 4.762C19.9618 5.09444 20.1738 5.58264 20.1738 6.0981V7.69848C20.1736 8.56101 19.4741 9.26069 18.6116 9.26069H16.8702C16.8121 9.26068 16.7546 9.25746 16.698 9.25188L18.0967 12.0474C18.2345 12.0347 18.3745 12.0278 18.5156 12.0278C20.9911 12.0281 22.9977 14.0353 22.9977 16.5109C22.9975 18.9862 20.991 20.9927 18.5156 20.9929C16.0401 20.9929 14.0328 18.9863 14.0326 16.5109C14.0326 14.6072 15.2197 12.9812 16.8937 12.3313L15.7446 10.034C15.6683 10.1946 15.5809 10.3477 15.4842 10.493L13.4874 14.4886C12.7999 15.8633 11.4567 16.7731 9.94697 16.921C9.73958 19.204 7.82247 20.9927 5.48548 20.9929C3.00995 20.9929 1.00268 18.9863 1.00244 16.5109C1.00244 14.1321 2.85543 12.1863 5.19672 12.0376C5.19198 12.0347 5.18767 12.0309 5.18302 12.0278H3.00708L2.80251 12.0171C1.79149 11.9146 1.00244 11.0613 1.00244 10.0232V5.0116C1.00244 3.90447 1.89995 3.00696 3.00708 3.00696H3.60221V6.57087ZM5.48548 13.2308C3.67408 13.2308 2.20542 14.6995 2.20542 16.5109C2.20566 18.3221 3.67423 19.7909 5.48548 19.7909C7.14947 19.7907 8.52276 18.5505 8.73519 16.9445H5.48352C5.15164 16.9443 4.88265 16.6754 4.88252 16.3435C4.88252 16.0115 5.15156 15.7427 5.48352 15.7425H8.67352C8.3277 14.3019 7.03206 13.231 5.48548 13.2308ZM20.1101 16.0743C20.2585 16.3714 20.138 16.7333 19.841 16.8818C19.5441 17.0301 19.183 16.9093 19.0344 16.6127L17.434 13.4129C16.1538 13.8597 15.2356 15.0783 15.2356 16.5109C15.2358 18.3221 16.7044 19.7909 18.5156 19.7909C20.3267 19.7907 21.7945 18.3219 21.7947 16.5109C21.7947 14.7581 20.4201 13.3255 18.6899 13.2347L20.1101 16.0743ZM13.3856 12.0004C13.0793 12.0829 12.7598 12.1287 12.4332 12.1287H6.43102C8.19774 12.5083 9.57648 13.9288 9.89608 15.717C10.9699 15.5893 11.9204 14.9326 12.4117 13.9503L13.3856 12.0004ZM11.888 9.26069C10.906 9.26083 10.0952 9.98335 9.95285 10.9257H12.4332C13.2439 10.9257 13.9916 10.5266 14.4476 9.87735L14.756 9.26069H11.888Z" fill="#10100F"/>
<path d="M6.1638 6.57087C6.16369 6.94592 5.85955 7.2501 5.4845 7.25018C5.10937 7.25018 4.8053 6.94597 4.80519 6.57087V3.00696H6.1638V6.57087Z" fill="#10100F"/>
</svg>
