<svg width="24" height="24" viewBox="0 0 24 24" fill="none" xmlns="http://www.w3.org/2000/svg">
<path fill-rule="evenodd" clip-rule="evenodd" d="M18 2C20.2091 2 22 3.79086 22 6V11.3994C22 11.7307 21.7316 11.9997 21.4004 12C21.0691 12 20.8001 11.7316 20.7998 11.4004V6C20.7998 4.4536 19.5464 3.2002 18 3.2002H15V9C15 10.6569 13.6569 12 12 12C10.3431 12 9 10.6569 9 9V3.2002H6C4.4536 3.2002 3.2002 4.4536 3.2002 6V18C3.2002 19.5464 4.4536 20.7998 6 20.7998H11.3457C11.7071 20.7998 12 21.0927 12 21.4541C12 21.7442 11.7774 22 11.4873 22H6C3.79086 22 2 20.2091 2 18V6C2 3.79086 3.79086 2 6 2H18ZM10.2002 9C10.2002 9.99411 11.0059 10.7998 12 10.7998C12.9941 10.7998 13.7998 9.99411 13.7998 9V3.2002H10.2002V9Z" fill="#10100F"/>
<path fill-rule="evenodd" clip-rule="evenodd" d="M17.5 13C19.9853 13 22 15.0147 22 17.5C22 19.9853 19.9853 22 17.5 22C15.0147 22 13 19.9853 13 17.5C13 15.0147 15.0147 13 17.5 13ZM17.5 14.2002C15.6775 14.2002 14.2002 15.6775 14.2002 17.5C14.2002 19.1177 15.3643 20.462 16.9004 20.7441V19.4111C16.0324 19.1535 15.3986 18.352 15.3984 17.4004C15.3984 16.4968 15.9698 15.7268 16.7705 15.4307C16.8331 15.4078 16.8974 15.4558 16.8975 15.5225V17.2998C16.8976 17.4102 16.9873 17.5 17.0977 17.5H17.8975C18.0078 17.5 18.0975 17.4102 18.0977 17.2998V15.5225C18.0977 15.4557 18.162 15.4078 18.2246 15.4307C19.0262 15.7263 19.5986 16.4961 19.5986 17.4004C19.5984 18.3504 18.9665 19.1511 18.1006 19.4102V20.7441C19.6362 20.4617 20.7998 19.1174 20.7998 17.5C20.7998 15.6775 19.3225 14.2002 17.5 14.2002Z" fill="#10100F"/>
</svg>
