<svg width="24" height="24" viewBox="0 0 24 24" fill="none" xmlns="http://www.w3.org/2000/svg">
<path fill-rule="evenodd" clip-rule="evenodd" d="M10.293 2.38797C11.3725 1.84819 12.6385 1.82409 13.7373 2.32352L17.5 4.03445L20.457 5.67703C21.4093 6.20609 21.9999 7.20978 22 8.2991V21.0345C21.9999 21.5867 21.5522 22.0345 21 22.0345H19C18.4478 22.0345 18.0001 21.5867 18 21.0345V12.5345C18 12.2583 17.7761 12.0345 17.5 12.0345H6.5C6.22386 12.0345 6 12.2583 6 12.5345V21.0345C5.9999 21.5867 5.55222 22.0345 5 22.0345H3C2.44778 22.0345 2.0001 21.5867 2 21.0345V8.38797C2.00015 7.25189 2.6421 6.21351 3.6582 5.70535L10.293 2.38797ZM13.2402 3.41629C12.4712 3.06686 11.5856 3.08347 10.8301 3.46121L4.19531 6.77859C3.58562 7.08344 3.20034 7.70634 3.2002 8.38797V20.8343H4.7998V12.5345C4.7998 11.5956 5.56112 10.8343 6.5 10.8343H17.5C18.4389 10.8343 19.2002 11.5956 19.2002 12.5345V20.8343H20.7998V8.2991C20.7997 7.64555 20.4454 7.04327 19.874 6.72586L16.959 5.10672L13.2402 3.41629Z" fill="#10100F"/>
<path fill-rule="evenodd" clip-rule="evenodd" d="M14.5 14.0345C15.3284 14.0345 16 14.706 16 15.5345V20.5345C15.9999 21.3628 15.3284 22.0345 14.5 22.0345H9.5C8.67165 22.0345 8.00012 21.3628 8 20.5345V15.5345C8 14.706 8.67157 14.0345 9.5 14.0345H14.5ZM9.5 15.2346C9.33431 15.2346 9.2002 15.3688 9.2002 15.5345V20.5345C9.20031 20.7 9.33439 20.8343 9.5 20.8343H14.5C14.6656 20.8343 14.7997 20.7 14.7998 20.5345V15.5345C14.7998 15.3688 14.6657 15.2346 14.5 15.2346H13.5V16.5345C13.4999 17.3628 12.8284 18.0345 12 18.0345C11.1716 18.0345 10.5001 17.3628 10.5 16.5345V15.2346H9.5ZM11.7002 16.5345C11.7003 16.7 11.8344 16.8343 12 16.8343C12.1656 16.8343 12.2997 16.7 12.2998 16.5345V15.2346H11.7002V16.5345Z" fill="#10100F"/>
</svg>
