<svg width="24" height="24" viewBox="0 0 24 24" fill="none" xmlns="http://www.w3.org/2000/svg">
<path fill-rule="evenodd" clip-rule="evenodd" d="M7.96289 3.00696C9.07002 3.00696 9.96753 3.90447 9.96753 5.0116V8.71157C10.5003 8.30305 11.1648 8.05778 11.888 8.05771H14.8607C14.8397 7.93154 14.8116 7.80564 14.7706 7.68282L14.1706 5.88276C14.0781 5.60535 13.818 5.41879 13.5256 5.41879H11.887C11.5551 5.41857 11.286 5.14882 11.286 4.81681C11.2861 4.48487 11.5551 4.21603 11.887 4.21581H13.5256C14.3357 4.21581 15.0548 4.73442 15.311 5.50297L15.5674 6.27429C16.0266 5.53382 16.8475 4.74142 18.1496 4.39396C18.7119 4.24392 19.2377 4.42168 19.6041 4.762C19.9619 5.09444 20.1738 5.58258 20.1738 6.0981V7.69848C20.1738 8.56112 19.4742 9.26069 18.6116 9.26069H16.8702C16.8121 9.26068 16.7546 9.25746 16.698 9.25188L18.0967 12.0474C18.2345 12.0347 18.3745 12.0278 18.5156 12.0278C20.9911 12.0281 22.9977 14.0353 22.9977 16.5109C22.9975 18.9862 20.991 20.9927 18.5156 20.9929C16.0401 20.9929 14.0328 18.9863 14.0326 16.5109C14.0326 14.6072 15.2197 12.9812 16.8937 12.3313L15.7446 10.033C15.6682 10.194 15.5811 10.3474 15.4842 10.493L13.4874 14.4886C12.7999 15.8633 11.4567 16.7721 9.94697 16.92C9.74003 19.2035 7.82281 20.9927 5.48548 20.9929C3.00995 20.9929 1.00268 18.9863 1.00244 16.5109C1.00244 14.1317 2.85595 12.1858 5.1977 12.0376C5.19174 12.034 5.18492 12.0317 5.1791 12.0278H3.00708C1.89995 12.0278 1.00244 11.1303 1.00244 10.0232V5.0116C1.00244 3.90447 1.89995 3.00696 3.00708 3.00696H7.96289ZM5.48548 13.2308C3.67408 13.2308 2.20542 14.6995 2.20542 16.5109C2.20566 18.3221 3.67423 19.7899 5.48548 19.7899C7.14947 19.7897 8.52276 18.5505 8.73519 16.9445H5.48352C5.15164 16.9443 4.88264 16.6754 4.88252 16.3435C4.88252 16.0115 5.15156 15.7417 5.48352 15.7415H8.67352C8.32745 14.3013 7.03181 13.231 5.48548 13.2308ZM20.1101 16.0743C20.2586 16.3714 20.138 16.7323 19.841 16.8809C19.5441 17.0293 19.1831 16.9094 19.0344 16.6127L17.434 13.4129C16.1538 13.8597 15.2356 15.0783 15.2356 16.5109C15.2358 18.3221 16.7044 19.7899 18.5156 19.7899C20.3267 19.7897 21.7945 18.3219 21.7947 16.5109C21.7947 14.7581 20.4201 13.3255 18.6899 13.2347L20.1101 16.0743ZM13.3866 11.9995C13.08 12.0821 12.7602 12.1287 12.4332 12.1287H6.43102C8.19782 12.5083 9.57656 13.9287 9.89608 15.717C10.97 15.5893 11.9204 14.9327 12.4117 13.9503L13.3866 11.9995ZM11.888 9.26069C10.9058 9.26083 10.0941 9.98316 9.95187 10.9257H12.4332C13.2442 10.9257 13.9916 10.526 14.4476 9.87637L14.756 9.26069H11.888ZM3.00708 4.20994C2.56423 4.20994 2.20542 4.56875 2.20542 5.0116V10.0232C2.20542 10.4661 2.56423 10.8249 3.00708 10.8249H7.96289C8.40574 10.8249 8.76455 10.4661 8.76455 10.0232V5.0116C8.76455 4.56874 8.40574 4.20994 7.96289 4.20994H7.36678V6.57087C7.36667 7.6102 6.52383 8.45308 5.4845 8.45316C4.44509 8.45316 3.60232 7.61025 3.60221 6.57087V4.20994H3.00708ZM18.4598 5.55583C17.1384 5.9084 16.522 6.86884 16.3417 7.42833C16.3379 7.43995 16.3319 7.46653 16.3319 7.51838C16.3319 7.8159 16.5728 8.05749 16.8702 8.05771H18.6116C18.8099 8.05771 18.9708 7.89684 18.9708 7.69848V6.0981C18.9708 5.90628 18.891 5.74068 18.7858 5.64294C18.6892 5.55321 18.5808 5.52356 18.4598 5.55583ZM4.80519 6.57087C4.8053 6.94597 5.10937 7.25018 5.4845 7.25018C5.85955 7.2501 6.16369 6.94592 6.1638 6.57087V4.20994H4.80519V6.57087Z" fill="#10100F"/>
</svg>
