<svg width="24" height="24" viewBox="0 0 24 24" fill="none" xmlns="http://www.w3.org/2000/svg">
<path fill-rule="evenodd" clip-rule="evenodd" d="M16.7471 5.74018C17.0556 3.95412 18.7521 2.76206 20.5391 3.08003L22.5967 3.41596C22.9237 3.46927 23.146 3.77744 23.0928 4.10444C23.0395 4.43134 22.7312 4.65356 22.4043 4.60053L20.332 4.26264C19.1977 4.05905 18.1235 4.81415 17.9297 5.94819L17.9277 5.95893L16.0156 16.0058C15.9659 16.286 15.8729 16.5477 15.7471 16.7871C15.83 16.7771 15.9143 16.7714 16 16.7714C17.1598 16.7714 18.1006 17.7112 18.1006 18.871C18.1005 20.0308 17.1598 20.9707 16 20.9707C14.8403 20.9705 13.9004 20.0307 13.9004 18.871C13.9004 18.6142 13.9488 18.369 14.0332 18.1415C13.6724 18.2348 13.287 18.2571 12.8965 18.1884L12.8935 18.1874L1.39354 16.0986C1.06751 16.0394 0.850918 15.7264 0.910146 15.4003C0.969575 15.0746 1.28159 14.8588 1.60741 14.9179L3.50292 15.2617C3.27871 14.7923 3.19201 14.2512 3.29101 13.7001L4.65624 6.10249C4.90748 4.70387 6.24494 3.77334 7.64354 4.02436L15.2422 5.3896C15.8106 5.49178 16.2992 5.77571 16.665 6.16792L16.7471 5.74018ZM16 17.9707C15.5031 17.9708 15.1006 18.3741 15.1006 18.871C15.1006 19.368 15.5031 19.7713 16 19.7714C16.497 19.7714 16.9003 19.3681 16.9004 18.871C16.9004 18.374 16.497 17.9707 16 17.9707ZM7.43163 5.206C6.68525 5.07196 5.97105 5.56805 5.8369 6.3144L4.47265 13.913C4.33881 14.6593 4.83487 15.3726 5.58104 15.5068L13.1797 16.872C13.926 17.0058 14.6394 16.5089 14.7734 15.7626L16.1387 8.16499C16.2727 7.41857 15.7757 6.70434 15.0293 6.57026L13.8652 6.36128L13.2305 9.89643C12.9834 11.2716 11.6682 12.1864 10.293 11.9394C8.91797 11.6922 8.00396 10.377 8.25097 9.0019L8.88573 5.46674L7.43163 5.206ZM9.43163 9.21479C9.30203 9.93755 9.78308 10.6289 10.5058 10.7587C11.2286 10.8884 11.92 10.4073 12.0498 9.68452L12.6846 6.14839L10.0664 5.67866L9.43163 9.21479Z" fill="#10100F"/>
</svg>
