<svg width="24" height="24" viewBox="0 0 24 24" fill="none" xmlns="http://www.w3.org/2000/svg">
<path fill-rule="evenodd" clip-rule="evenodd" d="M11.9356 0.998535C13.1577 0.998623 14.1602 2.11304 14.1602 3.39111V6.82178C14.4249 6.67807 14.7256 6.59525 15.0548 6.59521C16.1549 6.59521 16.9388 7.51499 17.1065 8.56689C17.3789 8.41207 17.6905 8.32181 18.0333 8.32178C18.7154 8.3218 19.275 8.67619 19.6427 9.1958C19.9456 8.90543 20.3472 8.72325 20.8536 8.72314C22.1116 8.72314 23.0001 9.87765 23.0001 11.1157V14.686C23 17.9352 21.6901 20.3094 19.3897 21.8364L19.3878 21.8374C17.9224 22.8009 16.5204 23.031 15.1456 22.9985C12.6245 22.9337 9.87911 21.6769 8.42489 19.2183C8.39969 19.181 8.38369 19.1501 8.37802 19.1392L8.37509 19.1333L5.35849 14.3071C4.79325 13.3563 4.90877 12.0848 5.61728 11.2651C6.47721 10.2707 7.89425 10.2613 8.76474 11.2368L9.87216 12.2534V3.39111C9.8722 2.19935 10.6393 0.998665 11.9356 0.998535ZM11.9356 2.19873C11.5243 2.19887 11.0636 2.60819 11.0636 3.39111V13.6099C11.0635 13.8473 10.9247 14.0626 10.7091 14.1587C10.4934 14.2547 10.241 14.2139 10.0665 14.0542L7.93954 12.103C7.92249 12.0874 7.90586 12.0707 7.89071 12.0532C7.49766 11.5988 6.90971 11.5987 6.51669 12.0532C6.14928 12.4784 6.0806 13.1799 6.37997 13.687L9.40536 18.5288C9.41266 18.5407 9.41943 18.5535 9.42587 18.5659C9.42971 18.572 9.43396 18.5783 9.43759 18.5845C10.6407 20.6367 12.9741 21.7425 15.1739 21.7993C16.3734 21.8275 17.5215 21.6314 18.7354 20.8335C20.6907 19.5349 21.8076 17.543 21.8077 14.686V11.1157C21.8077 10.3788 21.3035 9.92236 20.8536 9.92236C20.4601 9.92266 20.1202 10.3104 20.1202 11.1157C20.1202 11.1183 20.1193 11.1209 20.1192 11.1235V14.9985C20.1191 15.3297 19.8525 15.598 19.5235 15.5981C19.1946 15.598 18.927 15.3297 18.9268 14.9985V10.7144C18.9268 9.95368 18.4299 9.52104 18.0333 9.521C17.6417 9.52115 17.1527 9.94274 17.1407 10.686V13.272C17.1405 13.6031 16.874 13.8715 16.545 13.8716C16.2161 13.8715 15.9485 13.6031 15.9483 13.272V12.7583C15.9483 12.7551 15.9474 12.7517 15.9474 12.7485V10.7144C15.9474 10.7063 15.9483 10.698 15.9483 10.6899V8.98779C15.9483 8.22704 15.4513 7.79443 15.0548 7.79443C14.6583 7.79461 14.1612 8.2272 14.1612 8.98779V13.272C14.1611 13.6032 13.8936 13.8716 13.5645 13.8716C13.2357 13.8713 12.969 13.603 12.9688 13.272V10.8989C12.9688 10.8961 12.9679 10.893 12.9679 10.8901L12.9688 3.39111C12.9688 2.69443 12.4213 2.19883 11.9356 2.19873Z" fill="#10100F"/>
<path d="M4.16903 3.1499C4.39927 2.91176 4.77842 2.90515 5.01669 3.13525C5.255 3.3655 5.26159 3.74557 5.03134 3.98389L3.01376 6.07178H8.52841C8.85967 6.07178 9.12881 6.34017 9.129 6.67139C9.129 7.00276 8.85978 7.27197 8.52841 7.27197H3.08603L5.01669 9.13525C5.25484 9.36524 5.26195 9.74449 5.03232 9.98291C4.80228 10.2213 4.42215 10.2285 4.18368 9.99854L1.18368 7.10303C1.06919 6.99249 1.00288 6.84125 1.00009 6.68213C0.99733 6.523 1.05845 6.36886 1.16903 6.25439L4.16903 3.1499Z" fill="#10100F"/>
</svg>
