<svg width="24" height="24" viewBox="0 0 24 24" fill="none" xmlns="http://www.w3.org/2000/svg">
<path fill-rule="evenodd" clip-rule="evenodd" d="M9.93576 0.998535C11.1578 0.998623 12.1603 2.11304 12.1604 3.39111V6.82178C12.4249 6.67828 12.7249 6.59524 13.0539 6.59521C14.1544 6.59521 14.9383 7.51557 15.1057 8.56787C15.3785 8.41246 15.6909 8.32178 16.0344 8.32178C16.716 8.32194 17.2751 8.67577 17.6428 9.19482C17.9457 8.90469 18.3475 8.7232 18.8537 8.72314C20.1117 8.72314 21.0002 9.87765 21.0002 11.1157V14.686C21.0001 17.9352 19.6902 20.3094 17.3899 21.8364L17.3879 21.8374C15.9225 22.801 14.5206 23.031 13.1457 22.9985C10.6246 22.9338 7.87928 21.6769 6.42502 19.2183C6.39978 19.181 6.38381 19.1501 6.37814 19.1392L6.37521 19.1333L3.35861 14.3071C2.79328 13.3562 2.90878 12.0849 3.6174 11.2651C4.47736 10.2707 5.89437 10.2612 6.76486 11.2368L7.87228 12.2534V3.39111C7.87232 2.19928 8.63933 0.998535 9.93576 0.998535ZM9.93576 2.19873C9.52433 2.19873 9.06373 2.60806 9.06369 3.39111V13.6099C9.06366 13.8473 8.92482 14.0626 8.7092 14.1587C8.49348 14.2548 8.24118 14.2139 8.06662 14.0542L5.93966 12.103C5.92257 12.0874 5.90601 12.0708 5.89084 12.0532C5.49778 11.5987 4.90986 11.5987 4.51681 12.0532C4.1493 12.4784 4.08064 13.1799 4.38009 13.687L7.40548 18.5288C7.41271 18.5406 7.4196 18.5527 7.42599 18.5649C7.42992 18.5711 7.43401 18.5782 7.43771 18.5845C8.64089 20.6367 10.9742 21.7425 13.174 21.7993C14.3735 21.8275 15.5215 21.6315 16.7356 20.8335C18.6908 19.5349 19.8077 17.543 19.8078 14.686V11.1157C19.8078 10.3788 19.3036 9.92236 18.8537 9.92236C18.4601 9.92253 18.1203 10.3102 18.1203 11.1157V14.9985C18.1202 15.3298 17.8527 15.5981 17.5236 15.5981C17.1947 15.598 16.9281 15.3296 16.9279 14.9985V10.7144C16.9279 9.95395 16.4309 9.52134 16.0344 9.521C15.6397 9.521 15.1444 9.94924 15.1399 10.7036V13.272C15.1397 13.6032 14.8732 13.8715 14.5442 13.8716C14.2151 13.8716 13.9486 13.6032 13.9485 13.272V8.98779C13.9485 8.22704 13.4504 7.79443 13.0539 7.79443C12.6574 7.79453 12.1604 8.22713 12.1604 8.98779V13.272C12.1602 13.6032 11.8927 13.8716 11.5637 13.8716C11.2348 13.8714 10.9681 13.6031 10.968 13.272L10.969 3.39111C10.9689 2.69443 10.4215 2.19883 9.93576 2.19873Z" fill="#10100F"/>
</svg>
