<svg width="24" height="24" viewBox="0 0 24 24" fill="none" xmlns="http://www.w3.org/2000/svg">
<path d="M11.5811 0.998779C12.1372 0.99906 12.7647 1.54997 12.7647 2.32397L12.7638 13.4138C12.7639 13.7818 13.0697 14.0807 13.4464 14.0808C13.823 14.0806 14.1288 13.7817 14.129 13.4138V8.65308C14.1292 7.80821 14.6986 7.32799 15.1524 7.32788C15.6063 7.32818 16.1757 7.80838 16.1759 8.65308V13.4138C16.1761 13.7818 16.4818 14.0808 16.8585 14.0808C17.2351 14.0806 17.5409 13.7817 17.5411 13.4138V10.5632C17.545 9.72339 18.1121 9.24686 18.5645 9.24683C19.0186 9.24713 19.588 9.72707 19.588 10.572V15.3318C19.5881 15.6998 19.8938 15.9987 20.2706 15.9988C20.6472 15.9986 20.9531 15.6997 20.9532 15.3318V11.0173C20.9533 10.1224 21.4566 9.69225 21.9073 9.69214C22.4223 9.69242 23 10.1989 23.0001 11.0173V14.9841C23 18.1585 21.6059 20.4826 19.3673 21.9255C17.9775 22.812 16.6632 23.03 15.2901 22.9988C12.7712 22.9358 10.0985 21.7068 8.7208 19.4265C8.7167 19.4197 8.71243 19.4126 8.7081 19.406C8.70068 19.3921 8.6921 19.3783 8.68369 19.365L5.21494 13.8748C4.87203 13.3112 4.95121 12.5317 5.37216 12.0593C5.8222 11.5544 6.49442 11.5544 6.94443 12.0593L6.95712 12.072L9.39853 14.6716C9.58877 14.8737 9.88662 14.9411 10.1485 14.8416C10.4104 14.7417 10.583 14.4951 10.5831 14.2205L10.5841 2.32397C10.5841 1.45409 11.1101 0.999018 11.5811 0.998779Z" fill="#10100F"/>
<path d="M8.28232 19.6384C8.40117 19.5879 8.48887 19.5504 8.55283 19.5232C8.72542 19.4498 8.72958 19.449 8.72958 19.449L8.28232 19.6384Z" fill="#10100F"/>
<path d="M4.16806 3.01343C4.39831 2.77512 4.77838 2.76853 5.01669 2.99878C5.255 3.22903 5.26159 3.6091 5.03134 3.84741L3.01376 5.9353H8.52841C8.85971 5.9353 9.12888 6.20364 9.129 6.53491C9.129 6.86628 8.85978 7.1355 8.52841 7.1355H3.08603L5.01669 8.9978C5.25515 9.2279 5.26144 9.60798 5.03134 9.84644C4.80133 10.0847 4.42213 10.0918 4.18369 9.86206L1.18369 6.96655C1.06914 6.85601 1.00288 6.70482 1.00009 6.54565C0.997305 6.38651 1.05748 6.2324 1.16806 6.11792L4.16806 3.01343Z" fill="#10100F"/>
</svg>
