<svg width="24" height="24" viewBox="0 0 24 24" fill="none" xmlns="http://www.w3.org/2000/svg">
<path d="M9.58087 0.998779C10.1371 0.998779 10.7644 1.54977 10.7645 2.32397L10.7635 13.4128C10.7635 13.781 11.0692 14.0798 11.4461 14.0798C11.8228 14.0796 12.1277 13.7809 12.1277 13.4128V10.7761C12.1278 10.7732 12.1287 10.7703 12.1287 10.7673V8.63062C12.1387 7.79932 12.7022 7.32788 13.1522 7.32788C13.6061 7.32817 14.1756 7.80807 14.1756 8.65308V13.4128C14.1756 13.781 14.4813 14.0798 14.8582 14.0798C15.2349 14.0796 15.5399 13.7809 15.5399 13.4128V10.5632C15.5435 9.72314 16.1108 9.24611 16.5633 9.24585C17.0173 9.24585 17.5876 9.72598 17.5877 10.571V15.3318C17.5879 15.6997 17.8928 15.9976 18.2693 15.9978C18.6461 15.9978 18.9518 15.6998 18.952 15.3318V11.0261C18.952 11.0232 18.9529 11.0202 18.9529 11.0173C18.953 10.1224 19.4563 9.69225 19.907 9.69214C20.4221 9.69214 20.9997 10.1987 20.9998 11.0173V14.9841C20.9998 18.1587 19.6058 20.4826 17.367 21.9255C15.9771 22.8121 14.6631 23.0301 13.2899 22.9988C10.7708 22.9358 8.09812 21.707 6.72052 19.4265C6.71636 19.4196 6.71223 19.4127 6.70782 19.406C6.70034 19.392 6.6919 19.3784 6.68341 19.365L3.21466 13.8748C2.87175 13.3112 2.95093 12.5317 3.37189 12.0593C3.82192 11.5543 4.49411 11.5543 4.94415 12.0593L4.95685 12.072L7.39825 14.6716C7.58848 14.8739 7.8862 14.9412 8.14825 14.8416C8.41031 14.7418 8.58282 14.4952 8.58282 14.2205L8.5838 2.32397C8.5838 1.45409 9.10987 0.999018 9.58087 0.998779Z" fill="#10100F"/>
<path d="M6.28204 19.6384C6.40104 19.5878 6.48854 19.5504 6.55255 19.5232C6.72542 19.4497 6.72931 19.449 6.72931 19.449L6.28204 19.6384Z" fill="#10100F"/>
</svg>
