<svg width="24" height="24" viewBox="0 0 24 24" fill="none" xmlns="http://www.w3.org/2000/svg">
<path d="M9.5 7.40039C9.83137 7.40039 10.0996 7.66863 10.0996 8V16C10.0996 16.3314 9.83137 16.5996 9.5 16.5996C9.16864 16.5996 8.90039 16.3314 8.90039 16V8C8.90039 7.66864 9.16864 7.4004 9.5 7.40039Z" fill="#10100F"/>
<path d="M14.5 7.40039C14.8314 7.40039 15.0996 7.66863 15.0996 8V16C15.0996 16.3314 14.8314 16.5996 14.5 16.5996C14.1686 16.5996 13.9004 16.3314 13.9004 16V8C13.9004 7.66864 14.1686 7.4004 14.5 7.40039Z" fill="#10100F"/>
<path fill-rule="evenodd" clip-rule="evenodd" d="M12 1C18.0751 1 23 5.92487 23 12C23 18.0751 18.0751 23 12 23C5.92487 23 1 18.0751 1 12C1 5.92487 5.92487 1 12 1ZM12 2.2002C6.58761 2.2002 2.2002 6.58761 2.2002 12C2.2002 17.4124 6.58761 21.7998 12 21.7998C17.4124 21.7998 21.7998 17.4124 21.7998 12C21.7998 6.58761 17.4124 2.2002 12 2.2002Z" fill="#10100F"/>
</svg>
