<svg width="24" height="24" viewBox="0 0 24 24" fill="none" xmlns="http://www.w3.org/2000/svg">
<path fill-rule="evenodd" clip-rule="evenodd" d="M12 1C18.0751 1 23 5.92487 23 12C23 18.0751 18.0751 23 12 23C5.92487 23 1 18.0751 1 12C1 5.92487 5.92487 1 12 1ZM9.5 7.40039C9.16865 7.4004 8.9004 7.66865 8.90039 8V16C8.90039 16.3314 9.16864 16.5996 9.5 16.5996C9.83137 16.5996 10.0996 16.3314 10.0996 16V8C10.0996 7.66864 9.83136 7.40039 9.5 7.40039ZM14.5 7.40039C14.1686 7.4004 13.9004 7.66865 13.9004 8V16C13.9004 16.3314 14.1686 16.5996 14.5 16.5996C14.8314 16.5996 15.0996 16.3314 15.0996 16V8C15.0996 7.66864 14.8314 7.40039 14.5 7.40039Z" fill="#10100F"/>
</svg>
