<svg width="24" height="24" viewBox="0 0 24 24" fill="none" xmlns="http://www.w3.org/2000/svg">
<path d="M11.7998 9.7998H6.2002V6.2002H11.7998V9.7998Z" fill="#10100F"/>
<path fill-rule="evenodd" clip-rule="evenodd" d="M13 2C14.6569 2 16 3.34315 16 5V10H17.8809V19H16C16 20.6569 14.6569 22 13 22H5L4.8457 21.9961C3.26056 21.9158 2 20.6051 2 19V5C2 3.34315 3.34315 2 5 2H13ZM5.58789 17.4004C5.2567 17.4006 4.98828 17.6688 4.98828 18C4.98833 18.3312 5.25673 18.5994 5.58789 18.5996H8C8.33134 18.5996 8.60053 18.3313 8.60059 18C8.60059 17.6686 8.33137 17.4004 8 17.4004H5.58789ZM10 17.4004C9.66881 17.4006 9.40039 17.6688 9.40039 18C9.40044 18.3312 9.66884 18.5994 10 18.5996H12.4121C12.7434 18.5996 13.0126 18.3313 13.0127 18C13.0127 17.6686 12.7435 17.4004 12.4121 17.4004H10ZM5.58789 14.9004C5.2567 14.9006 4.98828 15.1688 4.98828 15.5C4.98833 15.8312 5.25673 16.0994 5.58789 16.0996H8C8.33134 16.0996 8.60053 15.8313 8.60059 15.5C8.60059 15.1686 8.33137 14.9004 8 14.9004H5.58789ZM10 14.9004C9.66881 14.9006 9.40039 15.1688 9.40039 15.5C9.40044 15.8312 9.66884 16.0994 10 16.0996H12.4121C12.7434 16.0996 13.0126 15.8313 13.0127 15.5C13.0127 15.1686 12.7435 14.9004 12.4121 14.9004H10ZM5.58789 12.5791C5.25675 12.5793 4.98836 12.8475 4.98828 13.1787C4.98828 13.51 5.2567 13.7791 5.58789 13.7793H8C8.33137 13.7793 8.60059 13.5101 8.60059 13.1787C8.60051 12.8474 8.33132 12.5791 8 12.5791H5.58789ZM10 12.5791C9.66886 12.5793 9.40047 12.8475 9.40039 13.1787C9.40039 13.51 9.66881 13.7791 10 13.7793H12.4121C12.7435 13.7793 13.0127 13.5101 13.0127 13.1787C13.0126 12.8474 12.7434 12.5791 12.4121 12.5791H10ZM6 5C5.44772 5 5 5.44772 5 6V10C5 10.5523 5.44772 11 6 11H12C12.5523 11 13 10.5523 13 10V6C13 5.44772 12.5523 5 12 5H6Z" fill="#10100F"/>
<path d="M20 10C21.1046 10 22 10.8954 22 12V17C22 18.1046 21.1046 19 20 19H19.0811V10H20Z" fill="#10100F"/>
</svg>
