<svg width="24" height="24" viewBox="0 0 24 24" fill="none" xmlns="http://www.w3.org/2000/svg">
<path d="M8 17.4004C8.33137 17.4004 8.60059 17.6686 8.60059 18C8.60053 18.3313 8.33134 18.5996 8 18.5996H5.58789C5.25673 18.5994 4.98833 18.3312 4.98828 18C4.98828 17.6688 5.2567 17.4006 5.58789 17.4004H8Z" fill="#10100F"/>
<path d="M12.4121 17.4004C12.7435 17.4004 13.0127 17.6686 13.0127 18C13.0126 18.3313 12.7434 18.5996 12.4121 18.5996H10C9.66884 18.5994 9.40044 18.3312 9.40039 18C9.40039 17.6688 9.66881 17.4006 10 17.4004H12.4121Z" fill="#10100F"/>
<path d="M8 14.9004C8.33137 14.9004 8.60059 15.1686 8.60059 15.5C8.60053 15.8313 8.33134 16.0996 8 16.0996H5.58789C5.25673 16.0994 4.98833 15.8312 4.98828 15.5C4.98828 15.1688 5.2567 14.9006 5.58789 14.9004H8Z" fill="#10100F"/>
<path d="M12.4121 14.9004C12.7435 14.9004 13.0127 15.1686 13.0127 15.5C13.0126 15.8313 12.7434 16.0996 12.4121 16.0996H10C9.66884 16.0994 9.40044 15.8312 9.40039 15.5C9.40039 15.1688 9.66881 14.9006 10 14.9004H12.4121Z" fill="#10100F"/>
<path d="M8 12.5791C8.33132 12.5791 8.60051 12.8474 8.60059 13.1787C8.60059 13.5101 8.33137 13.7793 8 13.7793H5.58789C5.2567 13.7791 4.98828 13.51 4.98828 13.1787C4.98836 12.8475 5.25675 12.5793 5.58789 12.5791H8Z" fill="#10100F"/>
<path d="M12.4121 12.5791C12.7434 12.5791 13.0126 12.8474 13.0127 13.1787C13.0127 13.5101 12.7435 13.7793 12.4121 13.7793H10C9.66881 13.7791 9.40039 13.51 9.40039 13.1787C9.40047 12.8475 9.66886 12.5793 10 12.5791H12.4121Z" fill="#10100F"/>
<path fill-rule="evenodd" clip-rule="evenodd" d="M12 5C12.5523 5 13 5.44772 13 6V10C13 10.5523 12.5523 11 12 11H6C5.44772 11 5 10.5523 5 10V6C5 5.44772 5.44772 5 6 5H12ZM6.2002 9.7998H11.7998V6.2002H6.2002V9.7998Z" fill="#10100F"/>
<path fill-rule="evenodd" clip-rule="evenodd" d="M13 2C14.6569 2 16 3.34315 16 5V10H20C21.1046 10 22 10.8954 22 12V17C22 18.1046 21.1046 19 20 19H16C16 20.6569 14.6569 22 13 22H5C3.34315 22 2 20.6569 2 19V5C2 3.34315 3.34315 2 5 2H13ZM5 3.2002C4.00589 3.2002 3.2002 4.00589 3.2002 5V19C3.2002 19.9941 4.00589 20.7998 5 20.7998H13C13.9941 20.7998 14.7998 19.9941 14.7998 19V5C14.7998 4.00589 13.9941 3.2002 13 3.2002H5ZM16 17.7998H17.8809V11.2002H16V17.7998ZM19.0811 17.7998H20C20.4418 17.7998 20.7998 17.4418 20.7998 17V12C20.7998 11.5582 20.4418 11.2002 20 11.2002H19.0811V17.7998Z" fill="#10100F"/>
</svg>
