<svg width="24" height="24" viewBox="0 0 24 24" fill="none" xmlns="http://www.w3.org/2000/svg">
<path d="M10.6411 20.8382C10.3826 21.1225 10.0301 21.3049 9.64865 21.351L4.33613 21.993C3.36778 22.1099 2.52063 21.34 2.54444 20.3649L2.6763 15.0154C2.68578 14.6313 2.83366 14.2629 3.09195 13.9785L3.86165 13.1315L11.487 19.9087L10.6411 20.8382Z" fill="#10100F"/>
<path d="M12.2941 19.0204L4.66879 12.2432L5.43258 11.4027L5.43403 11.404L10.9848 5.29532L14.3466 8.28276L11.8109 11.0733C11.588 11.3185 11.6062 11.6988 11.8515 11.9217C12.0967 12.1442 12.4764 12.1256 12.6991 11.8804L15.244 9.07978L18.6087 12.0712L12.2941 19.0204Z" fill="#10100F"/>
<path d="M20.9455 6.82909C21.6232 7.58312 21.6333 8.74263 20.9369 9.50908L19.4158 11.183L11.7919 4.40707L13.3885 2.65007C14.1313 1.83262 15.3962 1.77217 16.2137 2.51489L20.8017 6.68388C20.8526 6.7302 20.9004 6.77895 20.9455 6.82909Z" fill="#10100F"/>
</svg>
