<svg width="24" height="24" viewBox="0 0 24 24" fill="none" xmlns="http://www.w3.org/2000/svg">
<path fill-rule="evenodd" clip-rule="evenodd" d="M20.8012 6.68353C21.6187 7.42636 21.6792 8.69124 20.9364 9.50872L10.6406 20.8379C10.3822 21.1222 10.0296 21.3045 9.64817 21.3506L4.33565 21.9926C3.36705 22.1097 2.5199 21.3399 2.54396 20.3646L2.67582 15.015C2.68531 14.6308 2.83304 14.2626 3.09148 13.9782L5.02821 11.8468L5.03038 11.8488L13.3887 2.65037C14.1316 1.83288 15.3964 1.77236 16.2139 2.51519L20.8012 6.68353ZM3.97973 14.7853C3.91512 14.8564 3.87837 14.9487 3.876 15.0447L3.74413 20.3943C3.73812 20.6381 3.94936 20.83 4.19151 20.8008L9.50404 20.1587C9.59939 20.1472 9.68773 20.1018 9.75232 20.0307L10.503 19.2046L4.73039 13.9592L3.97973 14.7853ZM5.53831 13.073L11.3095 18.3171L11.6891 17.8993L11.6905 17.9007L17.7969 11.1805L15.3468 8.95419C15.3317 8.97603 15.317 8.99853 15.2987 9.01871L12.698 11.8808C12.4752 12.1257 12.0962 12.1438 11.851 11.9213C11.6058 11.6985 11.5871 11.3189 11.8097 11.0737L14.4104 8.21158C14.4288 8.19137 14.4505 8.17534 14.4708 8.15822L12.0243 5.93515L5.53831 13.073ZM15.4068 3.40345C15.0798 3.10631 14.5734 3.12985 14.2763 3.45685L12.8314 5.04689L18.604 10.2923L20.0489 8.70224C20.346 8.37525 20.3211 7.86892 19.9941 7.57179L15.4068 3.40345Z" fill="#10100F"/>
</svg>
