<svg width="24" height="24" viewBox="0 0 24 24" fill="none" xmlns="http://www.w3.org/2000/svg">
<path d="M12.5 14.0996C12.9971 14.0996 13.4004 14.5029 13.4004 15C13.4003 15.497 12.997 15.9004 12.5 15.9004C12.0032 15.9002 11.6006 15.4969 11.6006 15C11.6006 14.5031 12.0031 14.0998 12.5 14.0996Z" fill="#10100F"/>
<path d="M7.5 8.09961C7.99706 8.09961 8.40039 8.50294 8.40039 9C8.40034 9.49701 7.99702 9.90039 7.5 9.90039C7.00316 9.90018 6.60064 9.49688 6.60059 9C6.60059 8.50307 7.00312 8.09982 7.5 8.09961Z" fill="#10100F"/>
<path fill-rule="evenodd" clip-rule="evenodd" d="M16 2C18.2091 2 20 3.79086 20 6V18C20 20.2091 18.2091 22 16 22H4L3.79395 21.9951C1.68056 21.8879 0 20.14 0 18V6C0 3.79086 1.79086 2 4 2H16ZM12.5 12.9004C11.3404 12.9006 10.4004 13.8403 10.4004 15C10.4004 16.1596 11.3404 17.0994 12.5 17.0996C13.6598 17.0996 14.6005 16.1598 14.6006 15C14.6006 13.8402 13.6598 12.9004 12.5 12.9004ZM14.4248 7.5752C14.1906 7.34111 13.8105 7.34117 13.5762 7.5752L5.57617 15.5752C5.34191 15.8095 5.342 16.1895 5.57617 16.4238C5.81049 16.6581 6.19049 16.6581 6.4248 16.4238L14.4248 8.42383C14.6589 8.18949 14.659 7.80943 14.4248 7.5752ZM7.5 6.90039C6.34038 6.9006 5.40039 7.84033 5.40039 9C5.40044 10.1596 6.34041 11.0994 7.5 11.0996C8.65977 11.0996 9.60053 10.1598 9.60059 9C9.60059 7.8402 8.6598 6.90039 7.5 6.90039Z" fill="#10100F"/>
</svg>
