<svg width="24" height="24" viewBox="0 0 24 24" fill="none" xmlns="http://www.w3.org/2000/svg">
<path fill-rule="evenodd" clip-rule="evenodd" d="M12.5 12.9004C13.6598 12.9004 14.6006 13.8402 14.6006 15C14.6005 16.1598 13.6598 17.0996 12.5 17.0996C11.3404 17.0994 10.4004 16.1596 10.4004 15C10.4004 13.8403 11.3404 12.9006 12.5 12.9004ZM12.5 14.0996C12.0031 14.0998 11.6006 14.5031 11.6006 15C11.6006 15.4969 12.0032 15.9002 12.5 15.9004C12.997 15.9004 13.4003 15.497 13.4004 15C13.4004 14.5029 12.9971 14.0996 12.5 14.0996Z" fill="#10100F"/>
<path d="M13.5762 7.5752C13.8105 7.34117 14.1906 7.34111 14.4248 7.5752C14.659 7.80943 14.6589 8.18949 14.4248 8.42383L6.4248 16.4238C6.19049 16.6581 5.81049 16.6581 5.57617 16.4238C5.342 16.1895 5.34191 15.8095 5.57617 15.5752L13.5762 7.5752Z" fill="#10100F"/>
<path fill-rule="evenodd" clip-rule="evenodd" d="M7.5 6.90039C8.6598 6.90039 9.60059 7.8402 9.60059 9C9.60053 10.1598 8.65977 11.0996 7.5 11.0996C6.34041 11.0994 5.40044 10.1596 5.40039 9C5.40039 7.84033 6.34038 6.9006 7.5 6.90039ZM7.5 8.09961C7.00312 8.09982 6.60059 8.50307 6.60059 9C6.60064 9.49688 7.00316 9.90018 7.5 9.90039C7.99702 9.90039 8.40034 9.49701 8.40039 9C8.40039 8.50294 7.99706 8.09961 7.5 8.09961Z" fill="#10100F"/>
<path fill-rule="evenodd" clip-rule="evenodd" d="M16 2C18.2091 2 20 3.79086 20 6V18C20 20.2091 18.2091 22 16 22H4C1.79086 22 0 20.2091 0 18V6C0 3.79086 1.79086 2 4 2H16ZM4 3.2002C2.4536 3.2002 1.2002 4.4536 1.2002 6V18C1.2002 19.5464 2.4536 20.7998 4 20.7998H16C17.5464 20.7998 18.7998 19.5464 18.7998 18V6C18.7998 4.4536 17.5464 3.2002 16 3.2002H4Z" fill="#10100F"/>
</svg>
