<svg width="24" height="24" viewBox="0 0 24 24" fill="none" xmlns="http://www.w3.org/2000/svg">
<path d="M2.12124 4.52328C2.77957 2.16293 6.33417 1.74112 8.46304 2.15121C9.15628 2.28497 9.57424 2.93871 9.61831 3.66L9.88394 8.00961C9.94382 8.99199 8.75032 9.38855 7.81948 9.63265C7.33298 9.76057 7.25362 10.4141 7.52163 10.8495C9.4996 14.0621 11.1954 15.7131 12.921 16.9227C13.817 17.5507 14.993 16.8413 14.9933 15.7293C14.9933 14.8822 15.6971 14.2142 16.5216 14.2791L20.3107 14.578C21.0042 14.6326 21.6372 15.055 21.7912 15.7498C22.0456 16.8982 22.0411 18.2845 21.9181 19.3856C21.7752 20.6644 20.8027 21.4998 19.5744 21.7713C5.68233 24.8419 1.17237 7.9264 2.12124 4.52328Z" fill="#10100F"/>
</svg>
