<svg width="24" height="24" viewBox="0 0 24 24" fill="none" xmlns="http://www.w3.org/2000/svg">
<path fill-rule="evenodd" clip-rule="evenodd" d="M8.5922 7.96002L8.3324 3.72512C8.32316 3.57453 8.27551 3.46397 8.23127 3.40357C8.19438 3.35319 8.16758 3.34334 8.14278 3.33859C7.23469 3.16478 5.99863 3.16966 4.95604 3.46217C3.88539 3.76255 3.32531 4.26319 3.16358 4.83933C3.1023 5.05764 3.05786 5.52205 3.11333 6.2452C3.16675 6.94157 3.30592 7.79364 3.54484 8.73893C4.02342 10.6324 4.88392 12.8282 6.17435 14.8227C7.46457 16.8169 9.15588 18.5668 11.2832 19.6474C13.3916 20.7183 16.0014 21.1701 19.2234 20.4625C20.1064 20.2685 20.5689 19.7505 20.6379 19.1368C20.7515 18.1261 20.7473 16.8947 20.5321 15.9294C20.5248 15.8968 20.5078 15.8591 20.4481 15.8144C20.3805 15.7637 20.2668 15.7143 20.1194 15.7028L16.3302 15.4061C16.1957 15.3956 16.0809 15.5038 16.0809 15.6411C16.0809 17.599 13.9294 19.065 12.1496 17.8254C10.2749 16.5197 8.47012 14.753 6.41597 11.438C6.12215 10.9638 6.01239 10.375 6.12377 9.82821C6.24132 9.25109 6.64642 8.61514 7.42492 8.41229C7.89004 8.2911 8.26616 8.16705 8.50788 8.01818C8.54541 7.99506 8.57277 7.97541 8.5922 7.96002ZM9.78333 7.97163L9.51819 3.64976C9.47421 2.93282 9.05593 2.28288 8.36235 2.15013C6.23348 1.74266 2.67952 2.16188 2.02119 4.50711C1.07213 7.88807 5.58171 24.6955 19.474 21.6446C20.7023 21.3748 21.6754 20.545 21.8183 19.2742C21.9412 18.1801 21.9452 16.8028 21.6907 15.6617C21.5367 14.9713 20.9041 14.5513 20.2105 14.4971L16.4213 14.2004C15.5968 14.1358 14.8928 14.7994 14.8928 15.6411C14.8928 16.7462 13.7166 17.4515 12.8206 16.8274C11.0948 15.6255 9.39891 13.9851 7.4209 10.7929C7.15281 10.3603 7.23273 9.71066 7.71957 9.58381C8.6504 9.34127 9.84321 8.94772 9.78333 7.97163Z" fill="#10100F"/>
</svg>
