<svg width="24" height="24" viewBox="0 0 24 24" fill="none" xmlns="http://www.w3.org/2000/svg">
<path fill-rule="evenodd" clip-rule="evenodd" d="M17.9997 1C19.1042 1 19.9997 1.89543 19.9997 3V5C19.9997 6.10457 19.1042 7 17.9997 7C17.6656 7.00025 17.4081 7.29487 17.4528 7.62598L17.6823 9.31738C17.7409 9.74974 18.2315 10.0793 18.6305 10.2559C19.5538 10.6644 20.2399 11.5268 20.3883 12.582L20.9899 16.8604C21.0745 17.4621 20.6073 18 19.9997 18H12.6012V22.4004C12.601 22.7316 12.3319 23 12.0006 23C11.6696 22.9998 11.4012 22.7315 11.401 22.4004V18H4.00065C3.39307 17.9999 2.9258 17.462 3.01041 16.8604L3.61197 12.582C3.76207 11.5151 4.46227 10.6451 5.40104 10.2422C5.81421 10.0648 6.31724 9.7247 6.37076 9.27832L6.56705 7.63867C6.60749 7.29888 6.34192 7 5.99967 7C4.89529 6.99977 3.99967 6.10443 3.99967 5V3C3.99967 1.89557 4.89529 1.00023 5.99967 1H17.9997ZM5.99967 2.2002C5.55803 2.20042 5.19986 2.55831 5.19986 3V5C5.19986 5.44169 5.55803 5.79958 5.99967 5.7998C7.06118 5.7998 7.88437 6.72727 7.75846 7.78125L7.56315 9.4209C7.44047 10.4458 6.5146 11.0697 5.87369 11.3447C5.30889 11.5872 4.8904 12.1101 4.80045 12.749L4.23111 16.7998H19.7702L19.1999 12.749C19.1109 12.1172 18.7007 11.5995 18.1452 11.3535C17.5232 11.0783 16.6272 10.4705 16.4928 9.47852L16.2633 7.78711C16.1211 6.73583 16.9388 5.80005 17.9997 5.7998C18.4415 5.7998 18.8005 5.44183 18.8005 5V3C18.8005 2.55817 18.4415 2.2002 17.9997 2.2002H5.99967Z" fill="#10100F"/>
</svg>
