<svg width="24" height="24" viewBox="0 0 24 24" fill="none" xmlns="http://www.w3.org/2000/svg">
<path d="M18.0383 1C19.1449 1 20.0422 1.89543 20.0422 3V5C20.0422 6.10457 19.1449 7 18.0383 7C17.7034 7.00011 17.4456 7.29478 17.4904 7.62598L17.7199 9.31738C17.7786 9.74974 18.2264 10.0793 18.6262 10.2559C19.5512 10.6644 20.2391 11.5267 20.3879 12.582L20.9904 16.8604C21.0752 17.4621 20.607 17.9999 19.9982 18H12.6008V22.4004C12.6006 22.7316 12.3314 23 12.0002 23C11.6691 22.9998 11.4008 22.7315 11.4006 22.4004V18H4.00213C3.39337 17.9999 2.92517 17.4621 3.00994 16.8604L3.61248 12.582C3.76284 11.5152 4.4641 10.6452 5.40447 10.2422C5.81848 10.0648 6.33428 9.72481 6.38787 9.27832L6.58416 7.63867C6.62466 7.29889 6.35868 7 6.0158 7C4.90921 6.99994 4.01189 6.10453 4.01189 5V3C4.01189 1.89547 4.90921 1.00006 6.0158 1H18.0383Z" fill="#10100F"/>
</svg>
