<svg width="24" height="24" viewBox="0 0 24 24" fill="none" xmlns="http://www.w3.org/2000/svg">
<path fill-rule="evenodd" clip-rule="evenodd" d="M7.16921 6.52729L10.02 3.67647C11.1135 2.583 12.8864 2.583 13.9798 3.67647L16.8493 6.54596C16.5045 6.66899 16.1883 6.86708 15.9256 7.12971L12.8614 10.1939C12.3984 10.657 11.6615 10.6517 11.215 10.1976L11.2114 10.1939L8.14718 7.12971C7.87082 6.85335 7.53512 6.64847 7.16921 6.52729ZM6.09645 7.60005L3.67635 10.0202C2.58288 11.1136 2.58288 12.8865 3.67635 13.9799L6.23611 16.5397H6.4149C6.76351 16.5397 7.09382 16.4019 7.33418 16.1615L10.3984 13.0973C11.3254 12.1703 12.8263 12.1644 13.7471 13.099L16.8097 16.1615C17.0501 16.4019 17.3804 16.5397 17.729 16.5397V16.5745L20.3235 13.9799C21.417 12.8865 21.417 11.1136 20.3235 10.0202L17.9034 7.60005H17.6934C17.3448 7.60005 17.0145 7.73787 16.7742 7.97823L13.7099 11.0425C12.7829 11.9695 11.282 11.9754 10.3612 11.0408L7.29865 7.97823C7.05829 7.73787 6.72798 7.60005 6.37937 7.60005H6.09645ZM16.7586 17.5449C16.4628 17.4209 16.1914 17.2403 15.9612 17.0101L12.8969 13.9458L12.8933 13.9422C12.4469 13.488 11.71 13.4828 11.2469 13.9458L8.18271 17.0101C7.9259 17.2669 7.61783 17.462 7.28191 17.5855L10.02 20.3236C11.1135 21.4171 12.8864 21.4171 13.9798 20.3236L16.7586 17.5449ZM2.82782 14.8285C1.26573 13.2664 1.26573 10.7337 2.82782 9.17162L9.1715 2.82794C10.7336 1.26585 13.2663 1.26585 14.8284 2.82795L21.172 9.17162C22.7341 10.7337 22.7341 13.2664 21.172 14.8285L14.8284 21.1722C13.2663 22.7343 10.7336 22.7343 9.1715 21.1722L2.82782 14.8285Z" fill="#10100F"/>
</svg>
