<svg width="24" height="24" viewBox="0 0 24 24" fill="none" xmlns="http://www.w3.org/2000/svg">
<path d="M11.0579 14.405C11.5675 13.8866 12.4071 13.8821 12.9329 14.4079L16.1028 17.5778C16.4793 17.9542 16.968 18.1927 17.4925 18.2683L14.4104 21.3513C13.0773 22.6842 10.9164 22.6841 9.58329 21.3513L6.49931 18.2673C7.02216 18.191 7.50962 17.9533 7.88505 17.5778L11.0579 14.405Z" fill="#10100F"/>
<path d="M6.14188 6.70282C6.53413 6.70294 6.9067 6.85735 7.17802 7.1286L10.346 10.2975C11.2509 11.2163 12.7276 11.2109 13.6399 10.2985L16.8099 7.1286C17.0812 6.85742 17.4537 6.70282 17.846 6.70282H18.4524L21.3421 9.59247C22.675 10.9256 22.6751 13.0865 21.3421 14.4196L18.4641 17.2975H17.846C17.4537 17.2975 17.0813 17.142 16.8099 16.8708L13.6399 13.7009C12.7276 12.7885 11.2509 12.7831 10.346 13.7018L7.17802 16.8708C6.90669 17.1421 6.53419 17.2974 6.14188 17.2975H5.52958L2.65165 14.4196C1.31854 13.0865 1.31864 10.9256 2.65165 9.59247L5.5413 6.70282H6.14188Z" fill="#10100F"/>
<path d="M9.58329 2.66083C10.9165 1.32777 13.0773 1.32771 14.4104 2.66083L17.4817 5.73212C16.9614 5.80936 16.4767 6.04783 16.1028 6.42157L12.9329 9.59149C12.4071 10.1173 11.5675 10.1128 11.0579 9.59442L7.88505 6.42157C7.51238 6.04895 7.02949 5.81023 6.51102 5.73212L9.58329 2.66083Z" fill="#10100F"/>
</svg>
