<svg width="24" height="24" viewBox="0 0 24 24" fill="none" xmlns="http://www.w3.org/2000/svg">
<path fill-rule="evenodd" clip-rule="evenodd" d="M9 7.86816C9.00025 7.06974 9.89024 6.59334 10.5547 7.03613L16.752 11.168C17.3456 11.5638 17.3457 12.4362 16.752 12.832L10.5547 16.9639C9.89025 17.4066 9.00027 16.9302 9 16.1318V7.86816ZM10.2002 15.7578L15.8369 12L10.2002 8.24219V15.7578Z" fill="#10100F"/>
<path fill-rule="evenodd" clip-rule="evenodd" d="M12 1C18.0751 1 23 5.92487 23 12C23 18.0751 18.0751 23 12 23C5.92487 23 1 18.0751 1 12C1 5.92487 5.92487 1 12 1ZM12 2.2002C6.58761 2.2002 2.2002 6.58761 2.2002 12C2.2002 17.4124 6.58761 21.7998 12 21.7998C17.4124 21.7998 21.7998 17.4124 21.7998 12C21.7998 6.58761 17.4124 2.2002 12 2.2002Z" fill="#10100F"/>
</svg>
