<svg width="24" height="24" viewBox="0 0 24 24" fill="none" xmlns="http://www.w3.org/2000/svg">
<path d="M16.1045 7.5498C16.3533 7.33098 16.7323 7.35476 16.9512 7.60352C17.9775 8.77001 18.6006 10.3039 18.6006 11.9814C18.6004 15.635 15.6467 18.5996 12 18.5996C8.35345 18.5994 5.40058 15.6349 5.40039 11.9814C5.40039 10.3038 6.02346 8.77002 7.0498 7.60352C7.2687 7.35473 7.6477 7.33091 7.89648 7.5498C8.14522 7.76869 8.17003 8.14771 7.95117 8.39648C7.11044 9.35201 6.60059 10.6062 6.60059 11.9814C6.60078 14.9757 9.01973 17.4002 12 17.4004C14.9805 17.4004 17.4002 14.9758 17.4004 11.9814C17.4004 10.6062 16.8905 9.352 16.0498 8.39648C15.8309 8.1477 15.8557 7.7687 16.1045 7.5498Z" fill="#10100F"/>
<path d="M12 5.40039C12.3314 5.40039 12.6006 5.66863 12.6006 6V11.9873C12.6004 12.3185 12.3312 12.5869 12 12.5869C11.669 12.5867 11.4006 12.3183 11.4004 11.9873V6C11.4004 5.66876 11.6688 5.4006 12 5.40039Z" fill="#10100F"/>
<path fill-rule="evenodd" clip-rule="evenodd" d="M12 1C18.0751 1 23 5.92487 23 12C23 18.0751 18.0751 23 12 23C5.92487 23 1 18.0751 1 12C1 5.92487 5.92487 1 12 1ZM12 2.2002C6.58761 2.2002 2.2002 6.58761 2.2002 12C2.2002 17.4124 6.58761 21.7998 12 21.7998C17.4124 21.7998 21.7998 17.4124 21.7998 12C21.7998 6.58761 17.4124 2.2002 12 2.2002Z" fill="#10100F"/>
</svg>
