<svg width="24" height="24" viewBox="0 0 24 24" fill="none" xmlns="http://www.w3.org/2000/svg">
<path fill-rule="evenodd" clip-rule="evenodd" d="M12 1C18.0751 1 23 5.92487 23 12C23 18.0751 18.0751 23 12 23C5.92487 23 1 18.0751 1 12C1 5.92487 5.92487 1 12 1ZM16.9512 7.60352C16.7323 7.35476 16.3533 7.33098 16.1045 7.5498C15.8557 7.7687 15.8309 8.1477 16.0498 8.39648C16.8905 9.352 17.4004 10.6062 17.4004 11.9814C17.4002 14.9758 14.9805 17.4004 12 17.4004C9.01973 17.4002 6.60078 14.9757 6.60059 11.9814C6.60059 10.6062 7.11044 9.35201 7.95117 8.39648C8.17003 8.14771 8.14522 7.76869 7.89648 7.5498C7.6477 7.33091 7.2687 7.35473 7.0498 7.60352C6.02346 8.77002 5.40039 10.3038 5.40039 11.9814C5.40058 15.6349 8.35345 18.5994 12 18.5996C15.6467 18.5996 18.6004 15.635 18.6006 11.9814C18.6006 10.3039 17.9775 8.77001 16.9512 7.60352ZM12 5.40039C11.6688 5.4006 11.4004 5.66876 11.4004 6V11.9873C11.4006 12.3183 11.669 12.5867 12 12.5869C12.3312 12.5869 12.6004 12.3185 12.6006 11.9873V6C12.6006 5.66863 12.3314 5.40039 12 5.40039Z" fill="#10100F"/>
</svg>
