<svg width="24" height="24" viewBox="0 0 24 24" fill="none" xmlns="http://www.w3.org/2000/svg">
<path fill-rule="evenodd" clip-rule="evenodd" d="M16 1C17.6569 1 19 2.34315 19 4V7H20C21.6569 7 23 8.34315 23 10V16C23 17.6569 21.6569 19 20 19H19V20C19 21.6569 17.6569 23 16 23H8C6.34315 23 5 21.6569 5 20V19H4C2.34315 19 1 17.6569 1 16V10C1 8.34315 2.34315 7 4 7H5V4C5 2.34315 6.34315 1 8 1H16ZM8 14.2002C7.00589 14.2002 6.2002 15.0059 6.2002 16V20C6.2002 20.9941 7.00589 21.7998 8 21.7998H16C16.9941 21.7998 17.7998 20.9941 17.7998 20V16C17.7998 15.0059 16.9941 14.2002 16 14.2002H8ZM15.5 10.4004C15.1686 10.4004 14.9004 10.6686 14.9004 11C14.9004 11.3313 15.1687 11.5996 15.5 11.5996H18.5C18.8313 11.5996 19.0996 11.3313 19.0996 11C19.0996 10.6687 18.8313 10.4004 18.5 10.4004H15.5ZM8 2.2002C7.00589 2.2002 6.2002 3.00589 6.2002 4V6.7998H17.7998V4C17.7998 3.00589 16.9941 2.2002 16 2.2002H8Z" fill="#10100F"/>
</svg>
