<svg width="24" height="24" viewBox="0 0 24 24" fill="none" xmlns="http://www.w3.org/2000/svg">
<path d="M12.5996 15.7002C12.7101 15.7002 12.7998 15.7899 12.7998 15.9004V17.0996C12.7998 17.2101 12.7101 17.2998 12.5996 17.2998H11.4004C11.2899 17.2998 11.2002 17.2101 11.2002 17.0996V15.9004C11.2002 15.7899 11.2899 15.7002 11.4004 15.7002H12.5996Z" fill="#10100F"/>
<path d="M12.5996 10.7002C12.7101 10.7002 12.7998 10.7899 12.7998 10.9004V12.0996C12.7998 12.2101 12.7101 12.2998 12.5996 12.2998H11.4004C11.2899 12.2998 11.2002 12.2101 11.2002 12.0996V10.9004C11.2002 10.7899 11.2899 10.7002 11.4004 10.7002H12.5996Z" fill="#10100F"/>
<path fill-rule="evenodd" clip-rule="evenodd" d="M18.1543 5.00391C19.7395 5.0842 21 6.39489 21 8V20C21 21.6568 19.6568 23 18 23H10L9.8457 22.9961C8.26055 22.9158 7 21.6051 7 20V8C7 6.34315 8.34315 5.00001 10 5H18L18.1543 5.00391ZM11 14.5C10.4477 14.5 10 14.9477 10 15.5V17.5C10 18.0523 10.4477 18.5 11 18.5H13C13.5523 18.5 14 18.0523 14 17.5V15.5C14 14.9477 13.5523 14.5 13 14.5H11ZM15.5 15.9004C15.1688 15.9006 14.9004 16.1688 14.9004 16.5C14.9004 16.8312 15.1688 17.0994 15.5 17.0996H17.5C17.8313 17.0996 18.1005 16.8313 18.1006 16.5C18.1006 16.1686 17.8314 15.9004 17.5 15.9004H15.5ZM11 9.5C10.4477 9.5 10 9.94772 10 10.5V12.5C10 13.0523 10.4477 13.5 11 13.5H13C13.5523 13.5 14 13.0523 14 12.5V10.5C14 9.94772 13.5523 9.5 13 9.5H11ZM15.5 10.9004C15.1688 10.9006 14.9004 11.1688 14.9004 11.5C14.9004 11.8312 15.1688 12.0994 15.5 12.0996H17.5C17.8313 12.0996 18.1005 11.8313 18.1006 11.5C18.1006 11.1686 17.8314 10.9004 17.5 10.9004H15.5Z" fill="#10100F"/>
<path d="M15 1C16.4358 1 17.6004 2.16385 17.6006 3.59961C17.6006 3.93098 17.3314 4.2002 17 4.2002C16.6688 4.19998 16.4004 3.93085 16.4004 3.59961C16.4002 2.82659 15.7731 2.2002 15 2.2002H6.59961C5.27444 2.20041 4.20041 3.27444 4.2002 4.59961V17C4.20025 17.773 4.82662 18.4002 5.59961 18.4004C5.93098 18.4004 6.2002 18.6686 6.2002 19C6.20014 19.3313 5.93095 19.5996 5.59961 19.5996C4.16388 19.5994 3.00005 18.4358 3 17V4.59961C3.00021 2.61169 4.61169 1.00021 6.59961 1H15Z" fill="#10100F"/>
</svg>
