<svg width="24" height="24" viewBox="0 0 24 24" fill="none" xmlns="http://www.w3.org/2000/svg">
<path fill-rule="evenodd" clip-rule="evenodd" d="M13 14.5C13.5523 14.5 14 14.9477 14 15.5V17.5C14 18.0523 13.5523 18.5 13 18.5H11C10.4477 18.5 10 18.0523 10 17.5V15.5C10 14.9477 10.4477 14.5 11 14.5H13ZM11.2002 17.2998H12.7998V15.7002H11.2002V17.2998Z" fill="#10100F"/>
<path d="M17.5 15.9004C17.8314 15.9004 18.1006 16.1686 18.1006 16.5C18.1005 16.8313 17.8313 17.0996 17.5 17.0996H15.5C15.1688 17.0994 14.9004 16.8312 14.9004 16.5C14.9004 16.1688 15.1688 15.9006 15.5 15.9004H17.5Z" fill="#10100F"/>
<path fill-rule="evenodd" clip-rule="evenodd" d="M13 9.5C13.5523 9.5 14 9.94772 14 10.5V12.5C14 13.0523 13.5523 13.5 13 13.5H11C10.4477 13.5 10 13.0523 10 12.5V10.5C10 9.94772 10.4477 9.5 11 9.5H13ZM11.2002 12.2998H12.7998V10.7002H11.2002V12.2998Z" fill="#10100F"/>
<path d="M17.5 10.9004C17.8314 10.9004 18.1006 11.1686 18.1006 11.5C18.1005 11.8313 17.8313 12.0996 17.5 12.0996H15.5C15.1688 12.0994 14.9004 11.8312 14.9004 11.5C14.9004 11.1688 15.1688 10.9006 15.5 10.9004H17.5Z" fill="#10100F"/>
<path fill-rule="evenodd" clip-rule="evenodd" d="M14 1C15.6569 1 17 2.34315 17 4V5H18C19.6569 5 21 6.34315 21 8V20C21 21.6569 19.6569 23 18 23H10C8.34314 23 7 21.6569 7 20V19H6C4.34315 19 3 17.6569 3 16V4C3 2.34315 4.34315 1 6 1H14ZM10 6.2002C9.0059 6.2002 8.2002 7.00589 8.2002 8V20C8.20019 20.9941 9.00589 21.7998 10 21.7998H18C18.9941 21.7998 19.7998 20.9941 19.7998 20V8C19.7998 7.00589 18.9941 6.2002 18 6.2002H10ZM6 2.2002C5.00589 2.2002 4.2002 3.00589 4.2002 4V16C4.2002 16.9941 5.00589 17.7998 6 17.7998H7V8C7 6.34315 8.34315 5.00001 10 5H15.7998V4C15.7998 3.00589 14.9941 2.2002 14 2.2002H6Z" fill="#10100F"/>
</svg>
