<svg width="24" height="24" viewBox="0 0 24 24" fill="none" xmlns="http://www.w3.org/2000/svg">
<path d="M2.59961 15.7998C2.93098 15.7998 3.2002 16.069 3.2002 16.4004V19.4004C3.20041 20.1733 3.82672 20.7996 4.59961 20.7998H7.59961C7.93098 20.7998 8.2002 21.069 8.2002 21.4004C8.19998 21.7316 7.93085 22 7.59961 22H4.59961C3.16398 21.9998 2.00021 20.836 2 19.4004V16.4004C2 16.0691 2.26842 15.8 2.59961 15.7998Z" fill="#10100F"/>
<path d="M21.4004 15.7998C21.7316 15.8 22 16.0691 22 16.4004V19.4004C21.9998 20.836 20.836 21.9998 19.4004 22H16.4004C16.0691 22 15.8 21.7316 15.7998 21.4004C15.7998 21.069 16.069 20.7998 16.4004 20.7998H19.4004C20.1733 20.7996 20.7996 20.1733 20.7998 19.4004V16.4004C20.7998 16.069 21.069 15.7998 21.4004 15.7998Z" fill="#10100F"/>
<path fill-rule="evenodd" clip-rule="evenodd" d="M9.5 12.9004C10.3836 12.9004 11.0996 13.6164 11.0996 14.5V17.5C11.0996 18.3837 10.3837 19.0996 9.5 19.0996H6.5C5.61634 19.0996 4.90039 18.3837 4.90039 17.5V14.5C4.9004 13.6164 5.61635 12.9004 6.5 12.9004H9.5ZM6.5 14.0996C6.27909 14.0996 6.09962 14.2791 6.09961 14.5V17.5C6.09961 17.7209 6.27909 17.9004 6.5 17.9004H9.5C9.72091 17.9004 9.90039 17.7209 9.90039 17.5V14.5C9.90038 14.2791 9.7209 14.0996 9.5 14.0996H6.5Z" fill="#10100F"/>
<path d="M18.5 12.9004C18.8314 12.9004 19.0996 13.1686 19.0996 13.5V17.5C19.0996 18.3837 18.3837 19.0996 17.5 19.0996H14C13.6686 19.0996 13.4004 18.8314 13.4004 18.5C13.4004 18.1686 13.6686 17.9004 14 17.9004H17.5C17.7209 17.9004 17.9004 17.7209 17.9004 17.5V16.0996H16.5C16.1686 16.0996 15.9004 15.8314 15.9004 15.5C15.9004 15.1686 16.1686 14.9004 16.5 14.9004H17.9004V13.5C17.9004 13.1686 18.1686 12.9004 18.5 12.9004Z" fill="#10100F"/>
<path d="M15.5 12.9004C15.8314 12.9004 16.0996 13.1686 16.0996 13.5C16.0996 13.8314 15.8314 14.0996 15.5 14.0996H14.5C14.2791 14.0996 14.0996 14.2791 14.0996 14.5V16.5C14.0996 16.8314 13.8314 17.0996 13.5 17.0996C13.1686 17.0996 12.9004 16.8314 12.9004 16.5V14.5C12.9004 13.6163 13.6163 12.9004 14.5 12.9004H15.5Z" fill="#10100F"/>
<path fill-rule="evenodd" clip-rule="evenodd" d="M9.5 4.90039C10.3836 4.90039 11.0996 5.61636 11.0996 6.5V9.5C11.0996 10.3837 10.3837 11.0996 9.5 11.0996H6.5C5.61634 11.0996 4.90039 10.3837 4.90039 9.5V6.5C4.9004 5.61636 5.61635 4.90039 6.5 4.90039H9.5ZM6.5 6.09961C6.27909 6.09961 6.09962 6.2791 6.09961 6.5V9.5C6.09961 9.72091 6.27909 9.90039 6.5 9.90039H9.5C9.72091 9.90039 9.90039 9.72091 9.90039 9.5V6.5C9.90038 6.2791 9.7209 6.09961 9.5 6.09961H6.5Z" fill="#10100F"/>
<path fill-rule="evenodd" clip-rule="evenodd" d="M17.5 4.90039C18.3836 4.90039 19.0996 5.61636 19.0996 6.5V9.5C19.0996 10.3837 18.3837 11.0996 17.5 11.0996H14.5C13.6163 11.0996 12.9004 10.3837 12.9004 9.5V6.5C12.9004 5.61636 13.6164 4.90039 14.5 4.90039H17.5ZM14.5 6.09961C14.2791 6.09961 14.0996 6.2791 14.0996 6.5V9.5C14.0996 9.72091 14.2791 9.90039 14.5 9.90039H17.5C17.7209 9.90039 17.9004 9.72091 17.9004 9.5V6.5C17.9004 6.2791 17.7209 6.09961 17.5 6.09961H14.5Z" fill="#10100F"/>
<path d="M7.59961 2C7.93085 2 8.19998 2.26842 8.2002 2.59961C8.2002 2.93098 7.93098 3.2002 7.59961 3.2002H4.59961C3.82672 3.20041 3.20041 3.82672 3.2002 4.59961V7.59961C3.2002 7.93098 2.93098 8.2002 2.59961 8.2002C2.26842 8.19998 2 7.93085 2 7.59961V4.59961C2.00021 3.16398 3.16398 2.00021 4.59961 2H7.59961Z" fill="#10100F"/>
<path d="M19.4004 2C20.836 2.00021 21.9998 3.16398 22 4.59961V7.59961C22 7.93085 21.7316 8.19998 21.4004 8.2002C21.069 8.2002 20.7998 7.93098 20.7998 7.59961V4.59961C20.7996 3.82672 20.1733 3.20041 19.4004 3.2002H16.4004C16.069 3.2002 15.7998 2.93098 15.7998 2.59961C15.8 2.26842 16.0691 2 16.4004 2H19.4004Z" fill="#10100F"/>
</svg>
