<svg width="24" height="24" viewBox="0 0 24 24" fill="none" xmlns="http://www.w3.org/2000/svg">
<path fill-rule="evenodd" clip-rule="evenodd" d="M12 1C18.0751 1 23 5.92487 23 12C23 18.0751 18.0751 23 12 23C5.92487 23 1 18.0751 1 12C1 5.92487 5.92487 1 12 1ZM7.5 14.4004C7.16863 14.4004 6.90039 14.6686 6.90039 15C6.90044 15.3313 7.16866 15.5996 7.5 15.5996H16.5C16.8313 15.5996 17.0996 15.3313 17.0996 15C17.0996 14.6687 16.8313 14.4004 16.5 14.4004H7.5ZM8.5 8.5C7.67157 8.5 7 9.17157 7 10C7 10.8284 7.67157 11.5 8.5 11.5C9.32843 11.5 10 10.8284 10 10C10 9.17157 9.32843 8.5 8.5 8.5ZM15.5 8.5C14.6716 8.5 14 9.17157 14 10C14 10.8284 14.6716 11.5 15.5 11.5C16.3284 11.5 17 10.8284 17 10C17 9.17157 16.3284 8.5 15.5 8.5Z" fill="#10100F"/>
</svg>
