<svg width="24" height="24" viewBox="0 0 24 24" fill="none" xmlns="http://www.w3.org/2000/svg">
<path fill-rule="evenodd" clip-rule="evenodd" d="M12 1C18.0751 1 23 5.92487 23 12C23 18.0751 18.0751 23 12 23C5.92487 23 1 18.0751 1 12C1 5.92487 5.92487 1 12 1ZM11.999 14.4004C9.70325 14.4007 7.68129 15.5732 6.5 17.3496C6.31679 17.6254 6.39154 17.9981 6.66699 18.1816C6.9428 18.365 7.31545 18.2903 7.49902 18.0146C8.46732 16.5583 10.1217 15.5999 11.999 15.5996C13.8766 15.5996 15.5315 16.5582 16.5 18.0146C16.6835 18.2903 17.0562 18.3648 17.332 18.1816C17.6077 17.9981 17.6824 17.6254 17.499 17.3496C16.3176 15.573 14.2951 14.4004 11.999 14.4004ZM8.49902 8.5C7.67097 8.50043 6.99902 9.17184 6.99902 10C6.99902 10.8282 7.67097 11.4996 8.49902 11.5C9.32745 11.5 9.99902 10.8284 9.99902 10C9.99902 9.17157 9.32745 8.5 8.49902 8.5ZM15.499 8.5C14.671 8.50043 13.999 9.17184 13.999 10C13.999 10.8282 14.671 11.4996 15.499 11.5C16.3275 11.5 16.999 10.8284 16.999 10C16.999 9.17157 16.3275 8.5 15.499 8.5Z" fill="#10100F"/>
</svg>
