<svg width="24" height="24" viewBox="0 0 24 24" fill="none" xmlns="http://www.w3.org/2000/svg">
<path d="M15.9648 14.7275C15.1573 15.9546 13.894 16.7998 12 16.7998C10.1062 16.7998 8.84364 15.9544 8.03613 14.7275C10.6516 15.2643 13.3494 15.2644 15.9648 14.7275Z" fill="#10100F"/>
<path fill-rule="evenodd" clip-rule="evenodd" d="M12 1C18.0751 1 23 5.92487 23 12C23 18.0751 18.0751 23 12 23C5.92487 23 1 18.0751 1 12C1 5.92487 5.92487 1 12 1ZM17.4795 14.4639C17.776 13.8278 17.172 13.2068 16.4912 13.377C13.5425 14.1141 10.4575 14.1141 7.50879 13.377C6.82804 13.2069 6.22405 13.8278 6.52051 14.4639C7.43695 16.4297 9.17619 18 12 18C14.8238 18 16.563 16.4297 17.4795 14.4639ZM8.5 8.5C7.67157 8.5 7 9.17157 7 10C7 10.8284 7.67157 11.5 8.5 11.5C9.32843 11.5 10 10.8284 10 10C10 9.17157 9.32843 8.5 8.5 8.5ZM15.5 8.5C14.6716 8.5 14 9.17157 14 10C14 10.8284 14.6716 11.5 15.5 11.5C16.3284 11.5 17 10.8284 17 10C17 9.17157 16.3284 8.5 15.5 8.5Z" fill="#10100F"/>
</svg>
