<svg width="24" height="24" viewBox="0 0 24 24" fill="none" xmlns="http://www.w3.org/2000/svg">
<path d="M12 14.4004C14.2962 14.4004 16.3186 15.5728 17.5 17.3496C17.6835 17.6256 17.608 17.9982 17.332 18.1816C17.0561 18.3651 16.6835 18.2906 16.5 18.0146C15.5316 16.5581 13.8777 15.5996 12 15.5996C10.1223 15.5996 8.46843 16.5581 7.5 18.0146C7.31652 18.2905 6.9439 18.3651 6.66797 18.1816C6.39202 17.9982 6.31653 17.6256 6.5 17.3496C7.6814 15.5728 9.70379 14.4004 12 14.4004Z" fill="#10100F"/>
<path d="M8.5 8.5C9.32843 8.5 10 9.17157 10 10C10 10.8284 9.32843 11.5 8.5 11.5C7.67157 11.5 7 10.8284 7 10C7 9.17157 7.67157 8.5 8.5 8.5Z" fill="#10100F"/>
<path d="M15.5 8.5C16.3284 8.5 17 9.17157 17 10C17 10.8284 16.3284 11.5 15.5 11.5C14.6716 11.5 14 10.8284 14 10C14 9.17157 14.6716 8.5 15.5 8.5Z" fill="#10100F"/>
<path fill-rule="evenodd" clip-rule="evenodd" d="M12 1C18.0751 1 23 5.92487 23 12C23 18.0751 18.0751 23 12 23C5.92487 23 1 18.0751 1 12C1 5.92487 5.92487 1 12 1ZM12 2.2002C6.58761 2.2002 2.2002 6.58761 2.2002 12C2.2002 17.4124 6.58761 21.7998 12 21.7998C17.4124 21.7998 21.7998 17.4124 21.7998 12C21.7998 6.58761 17.4124 2.2002 12 2.2002Z" fill="#10100F"/>
</svg>
