<svg width="24" height="24" viewBox="0 0 24 24" fill="none" xmlns="http://www.w3.org/2000/svg">
<path d="M16.5 14.668C16.6834 14.3921 17.0561 14.3167 17.332 14.5C17.6079 14.6834 17.6832 15.0561 17.5 15.332C16.3186 17.1089 14.2962 18.2822 12 18.2822C9.70375 18.2822 7.6814 17.1089 6.5 15.332C6.31674 15.0561 6.39211 14.6834 6.66797 14.5C6.94388 14.3168 7.31659 14.3921 7.5 14.668C8.46847 16.1243 10.1224 17.082 12 17.082C13.8776 17.082 15.5315 16.1243 16.5 14.668Z" fill="#10100F"/>
<path d="M8.5 8.5C9.32843 8.5 10 9.17157 10 10C10 10.8284 9.32843 11.5 8.5 11.5C7.67157 11.5 7 10.8284 7 10C7 9.17157 7.67157 8.5 8.5 8.5Z" fill="#10100F"/>
<path d="M15.5 8.5C16.3284 8.5 17 9.17157 17 10C17 10.8284 16.3284 11.5 15.5 11.5C14.6716 11.5 14 10.8284 14 10C14 9.17157 14.6716 8.5 15.5 8.5Z" fill="#10100F"/>
<path fill-rule="evenodd" clip-rule="evenodd" d="M12 1C18.0751 1 23 5.92487 23 12C23 18.0751 18.0751 23 12 23C5.92487 23 1 18.0751 1 12C1 5.92487 5.92487 1 12 1ZM12 2.2002C6.58761 2.2002 2.2002 6.58761 2.2002 12C2.2002 17.4124 6.58761 21.7998 12 21.7998C17.4124 21.7998 21.7998 17.4124 21.7998 12C21.7998 6.58761 17.4124 2.2002 12 2.2002Z" fill="#10100F"/>
</svg>
