<svg width="24" height="24" viewBox="0 0 24 24" fill="none" xmlns="http://www.w3.org/2000/svg">
<path fill-rule="evenodd" clip-rule="evenodd" d="M12 1C18.0751 1 23 5.92487 23 12C23 18.0751 18.0751 23 12 23C5.92487 23 1 18.0751 1 12C1 5.92487 5.92487 1 12 1ZM17.332 14.5C17.0561 14.3168 16.6834 14.3921 16.5 14.668C15.5315 16.1244 13.8766 17.082 11.999 17.082C10.1217 17.0817 8.46732 16.1242 7.49902 14.668C7.3155 14.3922 6.94287 14.3166 6.66699 14.5C6.39141 14.6835 6.3168 15.0562 6.5 15.332C7.68125 17.1086 9.70314 18.2819 11.999 18.2822C14.2952 18.2822 16.3176 17.1088 17.499 15.332C17.6824 15.0561 17.6079 14.6835 17.332 14.5ZM8.5 8.5C7.67177 8.50024 7 9.17172 7 10C7 10.8283 7.67177 11.4998 8.5 11.5C9.3282 11.4997 10 10.8283 10 10C10 9.17174 9.3282 8.50026 8.5 8.5ZM15.5 8.5C14.6718 8.50024 14 9.17172 14 10C14 10.8283 14.6718 11.4998 15.5 11.5C16.3282 11.4997 17 10.8283 17 10C17 9.17174 16.3282 8.50026 15.5 8.5Z" fill="#10100F"/>
</svg>
