<svg width="24" height="24" viewBox="0 0 24 24" fill="none" xmlns="http://www.w3.org/2000/svg">
<path fill-rule="evenodd" clip-rule="evenodd" d="M16.4912 13.377C17.172 13.2069 17.776 13.8278 17.4795 14.4639C16.563 16.4297 14.8238 18 12 18C9.1762 18 7.43696 16.4297 6.52051 14.4639C6.22404 13.8278 6.82799 13.2068 7.50879 13.377C10.4575 14.1141 13.5425 14.1141 16.4912 13.377ZM15.9639 14.7275C13.3484 15.2643 10.6506 15.2644 8.03516 14.7275C8.84266 15.9546 10.106 16.7998 12 16.7998C13.8938 16.7998 15.1563 15.9544 15.9639 14.7275Z" fill="#10100F"/>
<path d="M8.5 8.5C9.32843 8.5 10 9.17157 10 10C10 10.8284 9.32843 11.5 8.5 11.5C7.67157 11.5 7 10.8284 7 10C7 9.17157 7.67157 8.5 8.5 8.5Z" fill="#10100F"/>
<path d="M15.5 8.5C16.3284 8.5 17 9.17157 17 10C17 10.8284 16.3284 11.5 15.5 11.5C14.6716 11.5 14 10.8284 14 10C14 9.17157 14.6716 8.5 15.5 8.5Z" fill="#10100F"/>
<path fill-rule="evenodd" clip-rule="evenodd" d="M12 1C18.0751 1 23 5.92487 23 12C23 18.0751 18.0751 23 12 23C5.92487 23 1 18.0751 1 12C1 5.92487 5.92487 1 12 1ZM12 2.2002C6.58761 2.2002 2.2002 6.58761 2.2002 12C2.2002 17.4124 6.58761 21.7998 12 21.7998C17.4124 21.7998 21.7998 17.4124 21.7998 12C21.7998 6.58761 17.4124 2.2002 12 2.2002Z" fill="#10100F"/>
</svg>
