<svg width="24" height="24" viewBox="0 0 24 24" fill="none" xmlns="http://www.w3.org/2000/svg">
<path d="M21.248 15.75C21.6634 15.7502 22 16.0859 22 16.5C22 16.9141 21.6634 17.2498 21.248 17.25H2.76074C2.3453 17.2499 2.00879 16.9142 2.00879 16.5C2.00879 16.0858 2.3453 15.7501 2.76074 15.75H21.248Z" fill="#10100F"/>
<path d="M21.2354 11.25C21.6508 11.2501 21.9873 11.5858 21.9873 12C21.9873 12.4142 21.6508 12.7499 21.2354 12.75H2.75195C2.33663 12.7498 2 12.4141 2 12C2 11.5859 2.33663 11.2502 2.75195 11.25H21.2354Z" fill="#10100F"/>
<path d="M21.2354 6.75C21.6508 6.7501 21.9873 7.08585 21.9873 7.5C21.9873 7.91415 21.6508 8.2499 21.2354 8.25H2.75195C2.33663 8.24981 2 7.91409 2 7.5C2 7.08591 2.33663 6.75019 2.75195 6.75H21.2354Z" fill="#10100F"/>
</svg>
