<svg width="24" height="24" viewBox="0 0 24 24" fill="none" xmlns="http://www.w3.org/2000/svg">
<path d="M19.6303 7.15444C19.7794 6.94399 20.0626 6.83363 20.2785 6.97473C21.9171 8.04583 23 9.89624 23 12C23 15.3137 20.3137 18 17 18H8.42831C8.19131 18 8.00315 17.7972 7.9516 17.5659C7.87469 17.2208 8.10271 16.7998 8.45622 16.7998H17C19.651 16.7998 21.7998 14.6509 21.7998 12C21.7998 10.3685 20.9862 8.92656 19.7423 8.05908C19.4688 7.86831 19.4375 7.42658 19.6303 7.15444Z" fill="#10100F"/>
<path d="M15.5711 5.99997C15.808 5.99997 15.9963 6.20556 16.0484 6.43661C16.1263 6.7817 15.8974 7.20017 15.5436 7.20017H7C4.34903 7.20017 2.2002 9.34901 2.2002 12C2.2002 13.6305 3.0131 15.0711 4.25583 15.9386C4.5294 16.1295 4.56239 16.5701 4.36976 16.8425C4.22065 17.0533 3.93598 17.166 3.71985 17.0247C2.08209 15.9534 1 14.1031 1 12C1 8.68627 3.68629 5.99997 7 5.99997H15.5711Z" fill="#10100F"/>
<path fill-rule="evenodd" clip-rule="evenodd" d="M9.66679 14.168C9.94251 14.3518 10.017 14.7243 9.8332 15L8.17521 17.5L9.99961 20C10.1834 20.2757 10.1089 20.6483 9.8332 20.8321C9.55748 21.0159 9.18496 20.9414 9.00115 20.6657L6.95487 17.8328C6.82051 17.6313 6.82051 17.3687 6.95487 17.1672L8.83474 14.3344C9.01855 14.0587 9.39107 13.9842 9.66679 14.168Z" fill="#10100F"/>
<path fill-rule="evenodd" clip-rule="evenodd" d="M14.1826 9.89294C13.9069 9.70913 13.8324 9.33661 14.0162 9.06089L15.7789 6.49997L14.0162 3.93911C13.8324 3.66339 13.9069 3.29087 14.1826 3.10706C14.4583 2.92325 14.8308 2.99775 15.0146 3.27347L16.9992 6.16715C17.1336 6.36869 17.1336 6.63126 16.9992 6.83279L15.0146 9.72653C14.8308 10.0022 14.4583 10.0768 14.1826 9.89294Z" fill="#10100F"/>
</svg>
