<svg width="24" height="24" viewBox="0 0 24 24" fill="none" xmlns="http://www.w3.org/2000/svg">
<path d="M10.6239 4.07035C10.6237 3.16707 9.58412 2.64527 8.86607 3.21683C7.50619 4.29929 4.58574 6.65798 1.53697 9.33597C0.834884 9.95291 0.82135 11.0378 1.49595 11.6768L8.78599 18.5801C9.48057 19.2378 10.6239 18.744 10.6239 17.7862V14.4707C10.624 14.2516 10.8007 14.0743 11.0194 14.0743H16.9598C17.3866 14.0743 17.701 14.2438 17.9461 14.5489C18.207 14.8735 18.4006 15.3695 18.492 16.002C18.6751 17.2685 18.419 18.8847 17.7889 20.1631C17.6903 20.3636 17.7115 20.6029 17.8446 20.7823C17.9778 20.9618 18.2007 21.0509 18.4208 21.0137C19.9889 20.7484 22.9999 19.1334 22.9999 14.9024C22.9998 12.3316 22.0876 10.5676 20.8446 9.45218C19.6197 8.35316 18.1131 7.91996 16.9598 7.91996H11.0194C10.8007 7.91991 10.6239 7.74175 10.6239 7.5225V4.07035Z" fill="#10100F"/>
</svg>
