<svg width="24" height="24" viewBox="0 0 24 24" fill="none" xmlns="http://www.w3.org/2000/svg">
<path fill-rule="evenodd" clip-rule="evenodd" d="M9.40975 4.28467V7.5226C9.40975 8.39973 10.1261 9.11078 11.0097 9.11078H16.9099C17.8075 9.11078 19.036 9.45405 20.0331 10.34C21.0121 11.2098 21.8099 12.6397 21.8099 14.9025C21.8099 17.4739 20.4847 18.8254 19.3186 19.4394C19.6862 18.2416 19.8068 16.9445 19.6443 15.8313C19.5335 15.072 19.2836 14.3485 18.84 13.8019C18.3806 13.2358 17.7289 12.8827 16.9099 12.8827H11.0097C10.1261 12.8827 9.40975 13.5938 9.40975 14.4709V17.556L2.33384 10.8113C2.16245 10.6506 2.16909 10.3821 2.34223 10.2316C5.27879 7.67764 7.98043 5.41405 9.40975 4.28467ZM10.6097 4.07062C10.6097 3.16716 9.56028 2.64492 8.83498 3.21655C7.46162 4.29893 4.6308 6.65754 1.55143 9.33567C0.842001 9.95265 0.828213 11.0382 1.5099 11.6772L8.75446 18.58C9.45597 19.2377 10.6097 18.744 10.6097 17.7862V14.4709C10.6097 14.2516 10.7888 14.0738 11.0097 14.0738H16.9099C17.3409 14.0738 17.6579 14.244 17.9055 14.5491C18.169 14.8738 18.3644 15.3695 18.4567 16.002C18.6415 17.2686 18.3834 18.8843 17.747 20.1627C17.6472 20.3633 17.669 20.6025 17.8035 20.782C17.938 20.9615 18.1625 21.0511 18.3847 21.0138C19.9684 20.7487 23.0099 19.1339 23.0099 14.9025C23.0099 12.3317 22.0889 10.568 20.8335 9.45249C19.5962 8.35322 18.0748 7.91965 16.9099 7.91965H11.0097C10.7888 7.91965 10.6097 7.74189 10.6097 7.5226V4.07062Z" fill="#10100F"/>
</svg>
