<svg width="24" height="24" viewBox="0 0 24 24" fill="none" xmlns="http://www.w3.org/2000/svg">
<path d="M16.373 7.8623C16.7672 8.25283 17.4063 8.25283 17.8006 7.8623C18.1948 7.47178 18.1948 6.83861 17.8006 6.44809C17.4063 6.05757 16.7672 6.05757 16.373 6.44809C15.9788 6.83861 15.9788 7.47178 16.373 7.8623Z" fill="#10100F"/>
<path fill-rule="evenodd" clip-rule="evenodd" d="M7.26468 11.0988C7.41603 10.8145 7.5627 10.5361 7.70617 10.2638C9.70191 6.47593 11.3689 3.50461 16.1127 2.56115L16.1344 2.55703C16.3497 2.51836 19.7708 1.92914 21.1203 3.26624C22.4699 4.60335 21.8749 7.99249 21.8359 8.20535L21.8319 8.22614C21.4843 9.94825 20.4976 13.6904 13.257 17.1199C12.8774 17.2997 12.4241 17.2182 12.1266 16.9234L7.44212 12.2827C7.12691 11.9705 7.05672 11.4894 7.26468 11.0988ZM18.6571 8.71083C17.7898 9.56998 16.3837 9.56998 15.5165 8.71083C14.6492 7.85168 14.6492 6.45871 15.5165 5.59956C16.3837 4.74041 17.7898 4.74041 18.6571 5.59956C19.5244 6.45871 19.5244 7.85168 18.6571 8.71083Z" fill="#10100F"/>
<path d="M6.29502 9.80845C7.3051 7.888 8.23306 6.13068 9.45584 4.73355L10.339 3.72668H6.9881C6.41869 3.7268 5.89165 4.02399 5.60056 4.50881L2.23092 10.1219C1.53106 11.2877 2.52093 12.7334 3.87307 12.5198L5.58668 12.249L5.56865 11.7198C5.5577 11.3931 5.63034 11.0624 5.79065 10.7617C5.96105 10.4421 6.12964 10.1229 6.29502 9.80845Z" fill="#10100F"/>
<path d="M10.0095 18.1878C10.246 17.9535 10.246 17.574 10.0095 17.3397L7.1546 14.5115C6.91808 14.2772 6.53432 14.2765 6.2978 14.5108C6.06134 14.7452 6.06199 15.1253 6.29849 15.3596L9.15335 18.1878C9.38985 18.4221 9.77293 18.422 10.0095 18.1878Z" fill="#10100F"/>
<path d="M20.1413 18.5741C20.6703 18.297 21.0013 17.7524 21.0015 17.1596V13.3919L19.9741 14.3809C18.5617 15.74 16.5176 17.1609 13.5352 18.5672C13.344 18.6573 13.144 18.7135 12.9434 18.7369L12.4626 18.7926L12.3516 19.8332C12.2153 21.1066 13.5689 22.0149 14.7118 21.4167L20.1413 18.5741Z" fill="#10100F"/>
</svg>
