<svg width="24" height="24" viewBox="0 0 24 24" fill="none" xmlns="http://www.w3.org/2000/svg">
<path fill-rule="evenodd" clip-rule="evenodd" d="M15.1196 5.85077C15.9613 4.98509 17.3257 4.98496 18.1674 5.85077C19.0091 6.71669 19.009 8.12051 18.1674 8.98651C17.3257 9.8525 15.9613 9.8525 15.1196 8.98651C14.2778 8.12052 14.2778 6.71675 15.1196 5.85077ZM17.3364 6.70624C16.9538 6.31262 16.3332 6.31264 15.9506 6.70624C15.568 7.09987 15.568 7.73839 15.9506 8.13202C16.3332 8.52539 16.9538 8.52552 17.3364 8.13202C17.7189 7.73844 17.7188 7.09988 17.3364 6.70624Z" fill="#10100F"/>
<path fill-rule="evenodd" clip-rule="evenodd" d="M17.7338 2.01678C18.2716 2.02475 18.8675 2.0782 19.4272 2.22772C19.9829 2.37621 20.5458 2.63087 20.9741 3.07147C21.4023 3.5121 21.6491 4.09156 21.7934 4.66327C21.9387 5.23907 21.9908 5.85127 21.9985 6.40448C22.0139 7.50969 21.8534 8.4608 21.8315 8.58514C21.8294 8.5971 21.8274 8.6082 21.8256 8.61737C21.6643 9.44754 21.4152 10.7095 20.4428 12.1769V17.5031C20.4427 18.1007 20.1214 18.6496 19.6079 18.9289L14.3383 21.7941C13.229 22.3971 11.9151 21.482 12.0473 20.1984L12.3032 17.718C12.0784 17.6403 11.8696 17.51 11.6957 17.3312L7.14887 12.6535C7.0502 12.552 6.96708 12.4393 6.89985 12.3195L3.81879 12.8264C2.50631 13.0418 1.5447 11.5846 2.22406 10.4094L5.49457 4.75213C5.77715 4.26331 6.2894 3.96307 6.84223 3.96307H11.4633C12.5271 3.15166 13.8422 2.55491 15.5825 2.19549C15.5914 2.19365 15.6021 2.1918 15.6137 2.18963C15.7337 2.16727 16.6589 2.0009 17.7338 2.01678ZM19.267 13.6379C18.0473 14.9203 16.2316 16.279 13.4946 17.6291L13.2163 20.3254C13.1831 20.6463 13.5121 20.8756 13.7895 20.7248L19.059 17.8596C19.1873 17.7898 19.2669 17.6524 19.267 17.5031V13.6379ZM17.7172 3.22674C16.7525 3.21246 15.9127 3.36248 15.8237 3.37909L15.8139 3.38104C13.4631 3.86656 12.0524 4.79689 10.9584 6.08807C9.98125 7.2415 9.24748 8.68592 8.34418 10.465C8.20457 10.74 8.06082 11.0235 7.91156 11.3146C7.82844 11.4771 7.8589 11.6735 7.97992 11.798L12.5268 16.4758C12.6432 16.5954 12.8158 16.624 12.9545 16.5558C16.4087 14.8568 18.2487 13.1951 19.2661 11.7932C20.2758 10.4015 20.5086 9.22246 20.6723 8.38006L20.6743 8.36932C20.6906 8.2765 20.8375 7.41358 20.8237 6.42206C20.8168 5.92599 20.7694 5.41741 20.6557 4.96698C20.5411 4.51287 20.3694 4.16004 20.143 3.92694C19.9164 3.69378 19.573 3.51662 19.1313 3.39862C18.6935 3.28166 18.1994 3.23389 17.7172 3.22674ZM6.84223 5.17303C6.70402 5.17303 6.57596 5.24809 6.50531 5.3703L3.23481 11.0275C3.06497 11.3213 3.30512 11.6859 3.63324 11.632L6.73481 11.1223C6.76517 10.9948 6.81121 10.8697 6.8725 10.7502C7.01684 10.4687 7.15762 10.1908 7.29633 9.91717C8.19096 8.15249 8.99644 6.56342 10.0727 5.29315C10.1072 5.25244 10.1431 5.21308 10.1782 5.17303H6.84223Z" fill="#10100F"/>
<path d="M6.17231 14.8332C6.40186 14.5974 6.77389 14.5973 7.00336 14.8332L9.77485 17.6848C10.004 17.9208 10.0039 18.3031 9.77485 18.5392C9.54527 18.7754 9.17239 18.7754 8.94281 18.5392L6.17231 15.6887C5.94273 15.4525 5.94273 15.0694 6.17231 14.8332Z" fill="#10100F"/>
</svg>
