<svg width="24" height="24" viewBox="0 0 24 24" fill="none" xmlns="http://www.w3.org/2000/svg">
<path d="M4.80206 16.3959C5.54521 16.3959 6.25792 16.6911 6.78341 17.2166C7.3089 17.7421 7.60411 18.4548 7.60411 19.1979C7.60411 20.7147 6.34447 22 4.80206 22C3.28535 22 2 20.7147 2 19.1979C2 18.4548 2.29522 17.7421 2.8207 17.2166C3.34619 16.6911 4.0589 16.3959 4.80206 16.3959ZM2 2C7.30433 2 12.3914 4.10714 16.1421 7.85786C19.8929 11.6086 22 16.6957 22 22H18.3625C18.3625 17.6604 16.6386 13.4985 13.57 10.43C10.5015 7.36143 6.3396 5.63753 2 5.63753V2ZM2 9.27506C5.37486 9.27506 8.6115 10.6157 10.9979 13.0021C13.3843 15.3885 14.7249 18.6251 14.7249 22H11.0874C11.0874 19.5899 10.13 17.2785 8.42576 15.5742C6.72155 13.87 4.41013 12.9126 2 12.9126V9.27506Z" fill="#10100F"/>
</svg>
