<svg width="24" height="24" viewBox="0 0 24 24" fill="none" xmlns="http://www.w3.org/2000/svg">
<path d="M21.4595 5.80175C22.1665 6.52845 22.2223 7.68664 21.5566 8.47999L9.98641 22.2688C9.2764 23.1149 8.01489 23.2253 7.16874 22.5153L2.57248 18.6586L2.42303 18.5192C1.71607 17.7925 1.66026 16.6343 2.32596 15.8409L3.86828 14.0029L7.31548 16.8954C7.56932 17.1081 7.94793 17.0745 8.16085 16.8207C8.37365 16.567 8.34048 16.189 8.08695 15.976L4.63975 13.0835L6.44005 10.9379L9.88725 13.8305C10.1411 14.0431 10.5191 14.0102 10.732 13.7566C10.9449 13.5028 10.9123 13.1241 10.6587 12.9111L7.21152 10.0185L9.0112 7.87376L12.4584 10.7663C12.7122 10.9791 13.0902 10.9462 13.3032 10.6924C13.5161 10.4386 13.483 10.0607 13.2292 9.84764L9.78205 6.9551L11.5824 4.80958L15.0296 7.70212C15.2834 7.91512 15.6613 7.88206 15.8743 7.62822C16.0873 7.37437 16.0542 6.99646 15.8004 6.78347L12.3532 3.89092L13.8961 2.05212C14.6061 1.20597 15.8677 1.0956 16.7138 1.8056L21.3101 5.66233L21.4595 5.80175Z" fill="#10100F"/>
</svg>
