<svg width="24" height="24" viewBox="0 0 24 24" fill="none" xmlns="http://www.w3.org/2000/svg">
<path fill-rule="evenodd" clip-rule="evenodd" d="M21.3686 5.50217C22.2145 6.21215 22.3249 7.47373 21.6151 8.31983L10.0449 22.1086C9.33494 22.9547 8.07339 23.065 7.22724 22.3551L2.63097 18.4984C1.78483 17.7884 1.67446 16.5269 2.38446 15.6808L13.9546 1.89195C14.6647 1.04595 15.9262 0.935483 16.7723 1.64544L21.3686 5.50217ZM16.0008 2.56484C15.6624 2.28089 15.1581 2.32512 14.874 2.66343L13.3311 4.50223L15.8589 6.6233C16.1127 6.83631 16.1466 7.21484 15.9336 7.46868C15.7205 7.72248 15.3419 7.75495 15.0881 7.54196L12.5603 5.42089L10.7606 7.56566L13.2884 9.68673C13.5422 9.89974 13.5754 10.279 13.3624 10.5329C13.1494 10.7866 12.7707 10.8191 12.5169 10.6061L9.98911 8.48506L8.18943 10.6298L10.7172 12.7509C10.971 12.9639 11.0035 13.3426 10.7905 13.5964C10.5775 13.8501 10.1995 13.8832 9.94575 13.6703L7.41796 11.5492L5.61765 13.6948L8.14545 15.8158C8.39927 16.0288 8.43229 16.4067 8.21935 16.6606C8.00635 16.9144 7.62845 16.9475 7.3746 16.7345L4.84681 14.6134L3.30386 16.4522C3.01986 16.7907 3.06399 17.295 3.40245 17.579L7.99871 21.4357C8.33717 21.7196 8.84154 21.6756 9.1255 21.3372L20.6957 7.54836C20.9795 7.20995 20.9354 6.70555 20.5971 6.42157L16.0008 2.56484Z" fill="#10100F"/>
</svg>
