<svg width="24" height="24" viewBox="0 0 24 24" fill="none" xmlns="http://www.w3.org/2000/svg">
<path fill-rule="evenodd" clip-rule="evenodd" d="M17.5 17.5C17.7343 17.2657 18.1142 17.2657 18.3485 17.5L21.848 21.0001C22.0823 21.2344 22.0823 21.6143 21.848 21.8486C21.6137 22.0829 21.2338 22.0829 20.9995 21.8486L17.5 18.3485C17.2657 18.1142 17.2657 17.7343 17.5 17.5Z" fill="#10100F"/>
<path d="M20 15.5C20 17.433 18.433 19 16.5 19C14.567 19 13 17.433 13 15.5C13 13.567 14.567 12 16.5 12C18.433 12 20 13.567 20 15.5Z" fill="#10100F"/>
<path fill-rule="evenodd" clip-rule="evenodd" d="M18.2061 2.00488C20.3194 2.11211 22 3.85996 22 6V14C22 15.1244 21.535 16.1395 20.7881 16.8662C20.9253 16.4353 21 15.9764 21 15.5C21 13.0147 18.9853 11 16.5 11C14.0147 11 12 13.0147 12 15.5C12 16.4253 12.28 17.2849 12.7588 18H6L5.79395 17.9951C3.68056 17.8879 2 16.14 2 14V6C2 3.79086 3.79086 2 6 2H18C18.0691 2 18.1378 2.00142 18.2061 2.00488ZM14.5 5C14.1689 5.00021 13.9006 5.26855 13.9004 5.59961C13.9004 5.93085 14.1688 6.19998 14.5 6.2002H15.5518L11.9443 9.80762L8.36035 7.12012C8.12148 6.94096 7.78731 6.96465 7.57617 7.17578L6.07617 8.67578C5.84186 8.9101 5.84186 9.2901 6.07617 9.52441C6.31049 9.75863 6.69052 9.7587 6.9248 9.52441L8.05664 8.39258L11.6406 11.0801C11.8795 11.2591 12.2137 11.2355 12.4248 11.0244L16.4004 7.04883V8.09961C16.4004 8.43085 16.6688 8.69998 17 8.7002C17.3314 8.7002 17.6006 8.43098 17.6006 8.09961V5.59961C17.6006 5.59667 17.5997 5.59375 17.5996 5.59082C17.5985 5.51624 17.5835 5.44214 17.5547 5.37207C17.5461 5.35132 17.5351 5.332 17.5244 5.3125C17.5167 5.29841 17.5109 5.28309 17.502 5.26953L17.4248 5.17578C17.3966 5.1476 17.3653 5.12274 17.332 5.10059C17.32 5.09261 17.3073 5.08612 17.2949 5.0791C17.2733 5.06686 17.2517 5.05446 17.2285 5.04492C17.213 5.03856 17.1965 5.03528 17.1807 5.03027C17.1597 5.02364 17.1391 5.01506 17.1172 5.01074C17.0786 5.00312 17.0392 4.99997 17 5H14.5Z" fill="#10100F"/>
<path d="M16.5 12.2002C18.3225 12.2002 19.7998 13.6775 19.7998 15.5C19.7998 16.4632 19.3867 17.3293 18.7285 17.9326C18.4922 17.9761 18.2489 18 18 18H14.3477C13.6454 17.3948 13.2002 16.4998 13.2002 15.5C13.2002 13.6775 14.6775 12.2002 16.5 12.2002Z" fill="#10100F"/>
</svg>
