<svg width="24" height="24" viewBox="0 0 24 24" fill="none" xmlns="http://www.w3.org/2000/svg">
<path fill-rule="evenodd" clip-rule="evenodd" d="M20 4C21.1046 4 22 4.89543 22 6C22 6.344 21.9127 6.66749 21.7598 6.9502C21.7838 6.98043 21.8067 7.01312 21.8252 7.0498C22.5765 8.53769 23 10.2193 23 12C23 18.0751 18.0751 23 12 23C9.94649 23 8.02472 22.4367 6.37988 21.457C6.07687 21.2765 6.01704 20.8704 6.23828 20.5957C6.43404 20.353 6.7818 20.3012 7.05078 20.459C8.50331 21.3109 10.1944 21.7998 12 21.7998C17.4124 21.7998 21.7998 17.4124 21.7998 12C21.7998 10.4984 21.4603 9.0766 20.8564 7.80469C20.5965 7.92826 20.307 8 20 8C18.8954 8 18 7.10457 18 6C18 4.89543 18.8954 4 20 4ZM20 5.2002C19.5582 5.2002 19.2002 5.55817 19.2002 6C19.2002 6.44183 19.5582 6.7998 20 6.7998C20.4418 6.7998 20.7998 6.44183 20.7998 6C20.7998 5.55817 20.4418 5.2002 20 5.2002Z" fill="#10100F"/>
<path fill-rule="evenodd" clip-rule="evenodd" d="M12 1C14.0463 1 15.9624 1.55895 17.6035 2.53223C17.9075 2.71269 17.968 3.12031 17.7461 3.39551C17.5504 3.63807 17.2027 3.69029 16.9336 3.5332C15.4845 2.6867 13.7993 2.2002 12 2.2002C6.58761 2.2002 2.2002 6.58761 2.2002 12C2.2002 13.5012 2.53918 14.9227 3.14258 16.1943C3.40261 16.0706 3.69288 16 4 16C5.10457 16 6 16.8954 6 18C6 19.1046 5.10457 20 4 20C2.89543 20 2 19.1046 2 18C2 17.6546 2.08709 17.3294 2.24121 17.0459C2.21257 17.012 2.1864 16.9742 2.16504 16.9316C1.41981 15.4483 1 13.7732 1 12C1 5.92487 5.92487 1 12 1ZM4 17.2002C3.55817 17.2002 3.2002 17.5582 3.2002 18C3.2002 18.4418 3.55817 18.7998 4 18.7998C4.44183 18.7998 4.7998 18.4418 4.7998 18C4.7998 17.5582 4.44183 17.2002 4 17.2002Z" fill="#10100F"/>
<path fill-rule="evenodd" clip-rule="evenodd" d="M12 9.81836C13.205 9.81836 14.1816 10.795 14.1816 12C14.1816 13.205 13.205 14.1816 12 14.1816C10.795 14.1816 9.81836 13.205 9.81836 12C9.81836 10.795 10.795 9.81836 12 9.81836ZM12 11.0186C11.4578 11.0186 11.0186 11.4578 11.0186 12C11.0186 12.5422 11.4578 12.9814 12 12.9814C12.5422 12.9814 12.9814 12.5422 12.9814 12C12.9814 11.4578 12.5422 11.0186 12 11.0186Z" fill="#10100F"/>
<path fill-rule="evenodd" clip-rule="evenodd" d="M12.8506 6C13.1172 6.00007 13.3448 6.19309 13.3887 6.45605L13.6494 8.01953L14.9385 7.09766C15.1554 6.94268 15.4531 6.96771 15.6416 7.15625L16.8447 8.3584C17.0333 8.54694 17.0573 8.84455 16.9023 9.06152L15.9814 10.3516L17.5439 10.6113C17.8069 10.6552 17.9999 10.8828 18 11.1494V12.8506C17.9999 13.1172 17.8069 13.3448 17.5439 13.3887L15.9814 13.6494L16.9023 14.9385C17.0573 15.1554 17.0323 15.4531 16.8438 15.6416L15.6416 16.8438C15.4531 17.0323 15.1554 17.0573 14.9385 16.9023L13.6494 15.9814L13.3887 17.5439C13.3448 17.8069 13.1172 17.9999 12.8506 18H11.1494C10.8828 17.9999 10.6552 17.8069 10.6113 17.5439L10.3506 15.9814L9.06152 16.9023C8.84457 17.0571 8.54785 17.0322 8.35938 16.8438L7.15625 15.6416C6.96771 15.4531 6.94365 15.1554 7.09863 14.9385L8.01953 13.6494L6.45605 13.3887C6.19309 13.3448 6.00008 13.1172 6 12.8506V11.1494C6.00007 10.8828 6.19309 10.6552 6.45605 10.6113L8.01855 10.3506L7.09766 9.06152C6.94272 8.84455 6.96772 8.54693 7.15625 8.3584L8.3584 7.15625C8.54693 6.96772 8.84455 6.94272 9.06152 7.09766L10.3506 8.01855L10.6113 6.45605C10.6552 6.19309 10.8828 6.00007 11.1494 6H12.8506ZM11.5352 8.21582C11.4671 8.6242 11.193 8.96944 10.8105 9.12793C10.428 9.28639 9.99026 9.23579 9.65332 8.99512L8.81543 8.39648L8.39648 8.81543L8.99512 9.65332C9.23579 9.99026 9.28639 10.428 9.12793 10.8105C8.96944 11.193 8.62419 11.4671 8.21582 11.5352L7.2002 11.7041V12.2959L8.2168 12.4658C8.62502 12.5339 8.96942 12.8072 9.12793 13.1895C9.28639 13.572 9.23676 14.0097 8.99609 14.3467L8.39746 15.1846L8.81543 15.6035L9.65332 15.0049C9.99026 14.7642 10.428 14.7146 10.8105 14.873C11.1929 15.0316 11.4671 15.3759 11.5352 15.7842L11.7041 16.7998H12.2959L12.4648 15.7842C12.5329 15.3758 12.807 15.0306 13.1895 14.8721C13.572 14.7136 14.0097 14.7642 14.3467 15.0049L15.1846 15.6035L15.6035 15.1846L15.0049 14.3467C14.7642 14.0097 14.7136 13.572 14.8721 13.1895C15.0306 12.807 15.3758 12.5329 15.7842 12.4648L16.7998 12.2959V11.7041L15.7842 11.5352C15.3758 11.4671 15.0316 11.1929 14.873 10.8105C14.7146 10.428 14.7642 9.99026 15.0049 9.65332L15.6035 8.81543L15.1855 8.39648L14.3467 8.99609C14.0097 9.23675 13.572 9.28638 13.1895 9.12793C12.8072 8.96944 12.5339 8.625 12.4658 8.2168L12.2959 7.2002H11.7041L11.5352 8.21582Z" fill="#10100F"/>
</svg>
