<svg width="24" height="24" viewBox="0 0 24 24" fill="none" xmlns="http://www.w3.org/2000/svg">
<path d="M20 4C21.1046 4 22 4.89543 22 6C22 6.344 21.9127 6.66749 21.7598 6.9502C21.7838 6.98043 21.8067 7.01312 21.8252 7.0498C22.5765 8.53769 23 10.2193 23 12C23 18.0751 18.0751 23 12 23C9.94649 23 8.02472 22.4367 6.37988 21.457C6.07687 21.2765 6.01704 20.8704 6.23828 20.5957C6.43404 20.353 6.7818 20.3012 7.05078 20.459C8.50331 21.3109 10.1944 21.7998 12 21.7998C17.4124 21.7998 21.7998 17.4124 21.7998 12C21.7998 10.4984 21.4603 9.0766 20.8564 7.80469C20.5965 7.92826 20.307 8 20 8C18.8954 8 18 7.10457 18 6C18 4.89543 18.8954 4 20 4Z" fill="#10100F"/>
<path d="M12 1C14.0463 1 15.9624 1.55895 17.6035 2.53223C17.9075 2.71269 17.968 3.12031 17.7461 3.39551C17.5504 3.63807 17.2027 3.69029 16.9336 3.5332C15.4845 2.6867 13.7993 2.2002 12 2.2002C6.58761 2.2002 2.2002 6.58761 2.2002 12C2.2002 13.5012 2.53918 14.9227 3.14258 16.1943C3.40261 16.0706 3.69288 16 4 16C5.10457 16 6 16.8954 6 18C6 19.1046 5.10457 20 4 20C2.89543 20 2 19.1046 2 18C2 17.6546 2.08709 17.3294 2.24121 17.0459C2.21257 17.012 2.1864 16.9742 2.16504 16.9316C1.41981 15.4483 1 13.7732 1 12C1 5.92487 5.92487 1 12 1Z" fill="#10100F"/>
<path d="M12 11.0186C12.5422 11.0186 12.9824 11.4578 12.9824 12C12.9824 12.5422 12.5422 12.9814 12 12.9814C11.4579 12.9813 11.0186 12.5422 11.0186 12C11.0186 11.4578 11.4578 11.0187 12 11.0186Z" fill="#10100F"/>
<path fill-rule="evenodd" clip-rule="evenodd" d="M12.9482 6.00879C13.1711 6.04926 13.3503 6.2259 13.3887 6.45605L13.6494 8.01953L14.9385 7.09766C15.0199 7.03953 15.113 7.00745 15.207 6.99902C15.2696 6.99341 15.3328 6.99787 15.3936 7.01367C15.4849 7.03742 15.5708 7.08549 15.6416 7.15625L16.8447 8.3584C17.0333 8.54694 17.0573 8.84455 16.9023 9.06152L15.9814 10.3516L17.5439 10.6113C17.8069 10.6552 17.9999 10.8828 18 11.1494V12.8506C17.9999 13.1172 17.8069 13.3448 17.5439 13.3887L15.9814 13.6494L16.9023 14.9385C17.0573 15.1554 17.0323 15.4531 16.8438 15.6416L15.6416 16.8438C15.5709 16.9144 15.4848 16.9625 15.3936 16.9863C15.3328 17.0022 15.2696 17.0075 15.207 17.002C15.1129 16.9936 15.02 16.9606 14.9385 16.9023L13.6494 15.9814L13.3887 17.5439C13.3503 17.7741 13.1711 17.9507 12.9482 17.9912C12.9165 17.997 12.8838 18 12.8506 18H11.1494C10.8828 17.9999 10.6552 17.8069 10.6113 17.5439L10.3506 15.9814L9.06152 16.9023C9.00724 16.9411 8.94807 16.9688 8.88672 16.9854C8.82562 17.0018 8.76246 17.0071 8.7002 17.002C8.57507 16.9917 8.45374 16.9381 8.35938 16.8438L7.15625 15.6416C6.96771 15.4531 6.94365 15.1554 7.09863 14.9385L8.01953 13.6494L6.45605 13.3887C6.19309 13.3448 6.00008 13.1172 6 12.8506V11.1494C6.00007 10.8828 6.19309 10.6552 6.45605 10.6113L8.01855 10.3506L7.09766 9.06152C6.94272 8.84455 6.96772 8.54693 7.15625 8.3584L8.3584 7.15625C8.45262 7.06203 8.5743 7.00843 8.69922 6.99805C8.76177 6.99285 8.82534 6.99809 8.88672 7.01465C8.94803 7.03118 9.00729 7.05893 9.06152 7.09766L10.3506 8.01855L10.6113 6.45605C10.6552 6.19309 10.8828 6.00007 11.1494 6H12.8506L12.9482 6.00879ZM12 9.81836C10.7951 9.81846 9.81836 10.7951 9.81836 12C9.8184 13.2049 10.7951 14.1815 12 14.1816C13.205 14.1816 14.1816 13.205 14.1816 12C14.1816 10.795 13.205 9.81836 12 9.81836Z" fill="#10100F"/>
</svg>
