<svg width="24" height="24" viewBox="0 0 24 24" fill="none" xmlns="http://www.w3.org/2000/svg">
<path fill-rule="evenodd" clip-rule="evenodd" d="M6.6 18.6001C4.05949 18.6001 2 16.5407 2 14.0001L2 6.60005C2 4.05954 4.05949 2.00005 6.6 2.00005L17.4 2C19.9405 2 22 4.05949 22 6.6V10.4001C22 10.7314 21.7314 11.0001 21.4 11.0001C21.0686 11.0001 20.8 10.7314 20.8 10.4001V6.6C20.8 4.72223 19.2778 3.2 17.4 3.2L6.6 3.20005C4.72223 3.20005 3.2 4.72228 3.2 6.60005L3.2 14.0001C3.2 15.8779 4.72223 17.4001 6.6 17.4001H9.4C9.73137 17.4001 10 17.6688 10 18.0001C10 18.3315 9.73137 18.6001 9.4 18.6001H6.6Z" fill="#10100F"/>
<path fill-rule="evenodd" clip-rule="evenodd" d="M17.4247 6.07569C17.659 6.31 17.659 6.6899 17.4247 6.92422L12.4247 11.9242C12.2135 12.1354 11.8793 12.1591 11.6404 11.98L8.05669 9.29218L6.92466 10.4242C6.69034 10.6585 6.31044 10.6585 6.07613 10.4242C5.84181 10.1899 5.84181 9.81 6.07613 9.57569L7.57613 8.07569C7.78726 7.86455 8.12152 7.8408 8.36039 8.01995L11.9441 10.7077L16.5761 6.07569C16.8104 5.84137 17.1903 5.84137 17.4247 6.07569Z" fill="#10100F"/>
<path fill-rule="evenodd" clip-rule="evenodd" d="M17.0004 5.89995C17.3318 5.89995 17.6004 6.16858 17.6004 6.49995V8.99995C17.6004 9.33132 17.3318 9.59995 17.0004 9.59995C16.669 9.59995 16.4004 9.33132 16.4004 8.99995V6.49995C16.4004 6.16858 16.669 5.89995 17.0004 5.89995Z" fill="#10100F"/>
<path fill-rule="evenodd" clip-rule="evenodd" d="M13.9004 6.49995C13.9004 6.16858 14.169 5.89995 14.5004 5.89995H17.0004C17.3318 5.89995 17.6004 6.16858 17.6004 6.49995C17.6004 6.83132 17.3318 7.09995 17.0004 7.09995H14.5004C14.169 7.09995 13.9004 6.83132 13.9004 6.49995Z" fill="#10100F"/>
<path fill-rule="evenodd" clip-rule="evenodd" d="M16.5 11.0001C18.9853 11.0001 21 13.0148 21 15.5001C21 16.7812 20.4628 17.9354 19.6035 18.7549L21.8486 21.0001C22.0828 21.2344 22.0829 21.6144 21.8486 21.8487C21.6143 22.083 21.2343 22.0829 21 21.8487L18.6201 19.4688C17.9882 19.8071 17.2668 20.0001 16.5 20.0001C14.0147 20.0001 12 17.9853 12 15.5001C12 13.0148 14.0147 11.0001 16.5 11.0001ZM16.5 12.2002C14.6775 12.2002 13.2002 13.6775 13.2002 15.5001C13.2002 17.3226 14.6775 18.7999 16.5 18.7999C18.3225 18.7999 19.7998 17.3226 19.7998 15.5001C19.7998 13.6775 18.3225 12.2002 16.5 12.2002Z" fill="#10100F"/>
</svg>
