<svg width="24" height="24" viewBox="0 0 24 24" fill="none" xmlns="http://www.w3.org/2000/svg">
<path fill-rule="evenodd" clip-rule="evenodd" d="M10.2197 5.76758C10.6063 5.76758 10.9199 6.0812 10.9199 6.46777V13.2686H12.585C12.9897 13.2686 13.2739 13.5974 13.2871 13.9473C13.3184 14.7711 13.8289 15.0849 14.2764 15.085C14.7239 15.085 15.2353 14.7712 15.2666 13.9473C15.2798 13.5974 15.5631 13.2686 15.9678 13.2686H18.0361C18.4225 13.2687 18.7362 13.5814 18.7363 13.9678V19.7695C18.7363 21.0983 17.6481 22.1864 16.3193 22.1865H4.41699C3.08812 22.1865 2 21.0984 2 19.7695L2.00098 8.18457C2.00105 6.85576 3.08914 5.76758 4.41797 5.76758H10.2197ZM11.0166 16.0361C11.0166 16.4408 10.6878 16.7241 10.3379 16.7373C9.51376 16.7685 9.2002 17.28 9.2002 17.7275C9.20024 18.175 9.51383 18.6856 10.3379 18.7168C10.6878 18.73 11.0166 19.0142 11.0166 19.4189V20.9873H16.3193C16.9853 20.9871 17.5361 20.4356 17.5361 19.7695V14.4678H16.4092C16.1727 15.6335 15.2496 16.2852 14.2764 16.2852C13.3032 16.2851 12.38 15.6334 12.1436 14.4678H11.0166V16.0361ZM6.45996 12.6533C6.01253 12.6535 5.50187 12.9671 5.4707 13.791C5.45741 14.1408 5.17395 14.4695 4.76953 14.4697H3.2002V19.7695C3.2002 20.4357 3.75086 20.9863 4.41699 20.9863H9.71875V19.8604C8.55314 19.6239 7.9024 18.7007 7.90234 17.7275C7.90234 16.7543 8.55312 15.8312 9.71875 15.5947V14.4697H8.15137C7.79754 14.4696 7.53658 14.218 7.46777 13.9209C7.45763 13.8777 7.4509 13.8336 7.44922 13.7891C7.43756 13.4809 7.35867 13.2441 7.24121 13.0684C7.04453 12.7754 6.73959 12.6533 6.45996 12.6533ZM4.41797 6.96777C3.75188 6.96777 3.20124 7.5185 3.20117 8.18457V13.2676H4.32617C4.56277 12.1023 5.48602 11.4513 6.45898 11.4512C7.12866 11.4512 7.77453 11.7599 8.18945 12.332C8.37777 12.5912 8.51971 12.9041 8.59375 13.2676H9.71973V6.96777H4.41797Z" fill="#10100F"/>
<path fill-rule="evenodd" clip-rule="evenodd" d="M19.5996 2C20.9284 2.00004 22.0166 3.08802 22.0166 4.41699V9.98633C22.0166 10.3729 21.703 10.6865 21.3164 10.6865H19.6904C19.454 11.8523 18.5299 12.5039 17.5566 12.5039C16.5835 12.5037 15.6603 11.8521 15.4238 10.6865H13.7979C13.4113 10.6865 13.0977 10.3729 13.0977 9.98633V2.7002C13.0977 2.31359 13.4113 2 13.7979 2H19.5996ZM14.2979 9.48633H15.8662C16.2707 9.48656 16.5542 9.81623 16.5674 10.166C16.5987 10.9899 17.1093 11.3035 17.5566 11.3037C18.0041 11.3037 18.5156 10.9901 18.5469 10.166C18.5601 9.81618 18.8435 9.48646 19.248 9.48633H20.8164V4.41699C20.8164 3.75081 20.2657 3.20024 19.5996 3.2002H14.2979V9.48633Z" fill="#10100F"/>
</svg>
