<svg width="24" height="24" viewBox="0 0 24 24" fill="none" xmlns="http://www.w3.org/2000/svg">
<path d="M6.45996 12.6533C6.70648 12.6533 6.94784 12.746 7.12695 12.9277C7.30107 13.1044 7.45112 13.4017 7.45117 13.8701V14.4697H9.71973V15.5938C9.24415 15.6902 8.84222 15.9036 8.53516 16.2061C8.11166 16.6235 7.90241 17.1788 7.90234 17.7275C7.90247 18.2762 8.11181 18.8306 8.53516 19.248C8.84222 19.5506 9.24411 19.7639 9.71973 19.8604V22.1865H4.41699C3.08812 22.1865 2 21.0984 2 19.7695V14.4697H5.46875V13.8701C5.4688 13.4017 5.61885 13.1044 5.79297 12.9277C5.97208 12.746 6.21344 12.6533 6.45996 12.6533Z" fill="#10100F"/>
<path d="M12.1445 14.4678C12.2409 14.9433 12.4534 15.3443 12.7559 15.6514C13.1735 16.0752 13.7283 16.2842 14.2773 16.2842C14.8263 16.2841 15.3813 16.0751 15.7988 15.6514C16.1012 15.3443 16.3138 14.9432 16.4102 14.4678H18.7363V19.7695C18.7363 21.0983 17.6481 22.1864 16.3193 22.1865H10.9189V18.7188H10.3193C9.85081 18.7188 9.55468 18.5677 9.37793 18.3936C9.19633 18.2146 9.10266 17.9739 9.10254 17.7275C9.1026 17.481 9.19619 17.2396 9.37793 17.0605C9.55469 16.8865 9.85092 16.7354 10.3193 16.7354H10.9189V14.4697H11.917V14.4678H12.1445Z" fill="#10100F"/>
<path d="M14.9434 14.8096C14.9408 14.8122 14.9372 14.8139 14.9346 14.8164C14.9478 14.8032 14.9599 14.7886 14.9727 14.7744C14.9625 14.7858 14.9537 14.799 14.9434 14.8096Z" fill="#10100F"/>
<path d="M10.2197 5.76758C10.6062 5.76758 10.9198 6.08129 10.9199 6.46777V13.2676H10.417V13.2695H8.59277C8.49631 12.7941 8.28389 12.3929 7.98145 12.0859C7.56387 11.6622 7.00894 11.4531 6.45996 11.4531C5.91098 11.4531 5.35605 11.6622 4.93848 12.0859C4.63603 12.3929 4.42361 12.7941 4.32715 13.2695H2L2.00098 8.18457C2.00111 6.85581 3.08918 5.76758 4.41797 5.76758H10.2197Z" fill="#10100F"/>
<path d="M19.5996 2C20.9284 2.00004 22.0166 3.08802 22.0166 4.41699V9.98633C22.0166 10.3729 21.703 10.6865 21.3164 10.6865H19.6904C19.454 11.8523 18.5299 12.5039 17.5566 12.5039C16.5835 12.5037 15.6603 11.8521 15.4238 10.6865H13.7979C13.4113 10.6865 13.0977 10.3729 13.0977 9.98633V2.7002C13.0977 2.31359 13.4113 2 13.7979 2H19.5996Z" fill="#10100F"/>
</svg>
