<svg width="24" height="24" viewBox="0 0 24 24" fill="none" xmlns="http://www.w3.org/2000/svg">
<path fill-rule="evenodd" clip-rule="evenodd" d="M15 6C16.6569 6 18 7.34315 18 9C18 10.6569 16.6569 12 15 12H9C7.34315 12 6 10.6569 6 9C6 7.34315 7.34315 6 9 6H15ZM9 7.2002C8.00589 7.2002 7.2002 8.00589 7.2002 9C7.2002 9.99411 8.00589 10.7998 9 10.7998H11.9297L12.9639 8.73145C13.1121 8.43536 13.4723 8.31489 13.7686 8.46289C14.0649 8.61108 14.1853 8.97217 14.0371 9.26855L13.2715 10.7998H15C15.9941 10.7998 16.7998 9.99411 16.7998 9C16.7998 8.00589 15.9941 7.2002 15 7.2002H9Z" fill="#10100F"/>
<path fill-rule="evenodd" clip-rule="evenodd" d="M18 2C20.2091 2 22 3.79086 22 6V18C22 20.2091 20.2091 22 18 22H6C3.79086 22 2 20.2091 2 18V6C2 3.79086 3.79086 2 6 2H18ZM6 3.2002C4.4536 3.2002 3.2002 4.4536 3.2002 6V18C3.2002 19.5464 4.4536 20.7998 6 20.7998H18C19.5464 20.7998 20.7998 19.5464 20.7998 18V6C20.7998 4.4536 19.5464 3.2002 18 3.2002H6Z" fill="#10100F"/>
</svg>
