<svg width="24" height="24" viewBox="0 0 24 24" fill="none" xmlns="http://www.w3.org/2000/svg">
<path d="M15 7.2002C15.9941 7.2002 16.7998 8.00589 16.7998 9C16.7998 9.99411 15.9941 10.7998 15 10.7998H13.2715L14.0371 9.26855C14.1853 8.97217 14.0649 8.61108 13.7686 8.46289C13.4723 8.31489 13.1121 8.43536 12.9639 8.73145L11.9297 10.7998H9C8.00589 10.7998 7.2002 9.99411 7.2002 9C7.2002 8.00589 8.00589 7.2002 9 7.2002H15Z" fill="#10100F"/>
<path fill-rule="evenodd" clip-rule="evenodd" d="M18.2061 2.00488C20.3194 2.11211 22 3.85996 22 6V18C22 20.2091 20.2091 22 18 22H6L5.79395 21.9951C3.68056 21.8879 2 20.14 2 18V6C2 3.79086 3.79086 2 6 2H18C18.0691 2 18.1378 2.00142 18.2061 2.00488ZM9 6C7.34315 6 6 7.34315 6 9C6 10.6569 7.34315 12 9 12H15C16.6569 12 18 10.6569 18 9C18 7.34315 16.6569 6 15 6H9Z" fill="#10100F"/>
</svg>
