<svg width="24" height="24" viewBox="0 0 24 24" fill="none" xmlns="http://www.w3.org/2000/svg">
<path fill-rule="evenodd" clip-rule="evenodd" d="M6.05371 2C8.29212 2.00013 10.1072 3.83069 10.1074 6.08887C10.1074 7.94578 8.87977 9.5129 7.19922 10.0117L9.45898 11.25L21.127 4.95508C21.4157 4.79929 21.7752 4.90898 21.9297 5.2002C22.0841 5.49151 21.9753 5.85393 21.6865 6.00977L10.7061 11.9346L21.6904 17.957C21.9779 18.1149 22.0841 18.4784 21.9277 18.7686C21.7713 19.0585 21.4116 19.1654 21.124 19.0078L9.45508 12.6094L7.20312 13.8242C8.90829 14.3911 10.1074 16.1659 10.1074 17.9824C10.1074 20.2408 8.29227 22.0721 6.05371 22.0723C3.76254 22.0723 2.00011 19.9293 2 17.7266C2 16.2177 2.81036 14.9001 4.01562 14.1914C4.02502 14.1856 4.03413 14.1781 4.04395 14.1729L4.11133 14.1357C4.12038 14.1307 4.12958 14.126 4.13867 14.1211L8.20801 11.9258L4.13477 9.69238C4.12504 9.6871 4.11515 9.68212 4.10547 9.67676L4.04004 9.64062C4.03268 9.63659 4.02665 9.63028 4.01953 9.62598C2.81225 8.9178 2 7.59924 2 6.08887C2.00025 3.83061 3.81519 2 6.05371 2ZM6.05371 14.833C4.47001 14.833 3.18555 16.1289 3.18555 17.7266C3.18566 19.3798 4.52265 20.875 6.05371 20.875C7.6373 20.8749 8.9209 19.58 8.9209 17.9824C8.92086 16.3292 7.58472 14.8332 6.05371 14.833ZM6.05371 3.19629C4.47017 3.19629 3.18579 4.49137 3.18555 6.08887C3.18555 7.68657 4.47001 8.98242 6.05371 8.98242C7.6373 8.98229 8.9209 7.68649 8.9209 6.08887C8.92065 4.49145 7.63715 3.19642 6.05371 3.19629Z" fill="#10100F"/>
</svg>
