<svg width="24" height="24" viewBox="0 0 24 24" fill="none" xmlns="http://www.w3.org/2000/svg">
<path d="M7.91602 4.88477C9.15961 4.26297 12.2305 3.64482 14.6875 6.10156C14.9217 6.3358 14.9216 6.71586 14.6875 6.9502C14.4532 7.18451 14.0732 7.18451 13.8389 6.9502C11.8749 4.9864 9.41901 5.47458 8.45215 5.95801C8.15585 6.10585 7.79558 5.98568 7.64746 5.68945C7.49928 5.39309 7.61968 5.03298 7.91602 4.88477Z" fill="#10100F"/>
<path fill-rule="evenodd" clip-rule="evenodd" d="M10.3945 1C15.583 1 19.789 5.20605 19.7891 10.3945C19.7891 12.7731 18.9035 14.9436 17.4463 16.5986L22.4238 21.5762C22.6581 21.8105 22.6581 22.1895 22.4238 22.4238C22.1895 22.6581 21.8105 22.6581 21.5762 22.4238L16.6016 17.4502L16.5986 17.4463C14.9436 18.9035 12.7731 19.7891 10.3945 19.7891C5.20605 19.789 1 15.583 1 10.3945C1.00011 5.20612 5.20612 1.00011 10.3945 1ZM10.3945 2.2002C5.86886 2.20031 2.20031 5.86886 2.2002 10.3945C2.2002 14.9203 5.8688 18.5897 10.3945 18.5898C14.9204 18.5898 18.5898 14.9204 18.5898 10.3945C18.5897 5.8688 14.9203 2.2002 10.3945 2.2002Z" fill="#10100F"/>
</svg>
