<svg width="24" height="24" viewBox="0 0 24 24" fill="none" xmlns="http://www.w3.org/2000/svg">
<path fill-rule="evenodd" clip-rule="evenodd" d="M10.3945 1C15.583 1 19.789 5.20605 19.7891 10.3945C19.7891 12.7731 18.9035 14.9436 17.4463 16.5986L22.4238 21.5762C22.6581 21.8105 22.6581 22.1895 22.4238 22.4238C22.1895 22.6581 21.8105 22.6581 21.5762 22.4238L16.6016 17.4502L16.5986 17.4463C14.9436 18.9035 12.7731 19.7891 10.3945 19.7891C5.20605 19.789 1 15.583 1 10.3945C1.00011 5.20612 5.20612 1.00011 10.3945 1ZM13.6357 5.25C11.803 4.06859 9.83253 4.22426 8.59668 4.61523C8.46943 4.6555 8.35002 4.69808 8.23926 4.74219C8.12136 4.78912 8.01289 4.83633 7.91602 4.88477C7.61966 5.03297 7.49927 5.39308 7.64746 5.68945C7.79559 5.98568 8.15585 6.10587 8.45215 5.95801C8.5456 5.91128 8.65396 5.86588 8.77344 5.82129C8.8769 5.78267 8.989 5.74483 9.10938 5.71094C9.15257 5.69878 9.19701 5.68806 9.24219 5.67676C9.36387 5.64631 9.49236 5.61912 9.62695 5.59668C9.68641 5.58677 9.74691 5.57733 9.80859 5.56934C9.99085 5.54573 10.1823 5.53031 10.3809 5.52734C10.3906 5.5272 10.4004 5.52646 10.4102 5.52637H10.4121C10.7226 5.52368 11.0496 5.55031 11.3848 5.61621C11.5137 5.64156 11.6436 5.67322 11.7744 5.71094C11.8436 5.73089 11.9129 5.75269 11.9824 5.77637C12.103 5.81744 12.2239 5.86395 12.3447 5.91699C12.4132 5.94705 12.4814 5.97954 12.5498 6.01367C12.6061 6.04176 12.6626 6.0706 12.7188 6.10156C12.8409 6.16895 12.9631 6.24251 13.084 6.32422L13.2754 6.46094C13.4664 6.60391 13.6549 6.76621 13.8389 6.9502C14.0732 7.18451 14.4532 7.18451 14.6875 6.9502C14.9216 6.71586 14.9217 6.3358 14.6875 6.10156C14.5886 6.00272 14.4874 5.91038 14.3867 5.82129C14.2894 5.73519 14.1915 5.65353 14.0928 5.57617C14.0579 5.54885 14.0243 5.5204 13.9893 5.49414C13.8725 5.40656 13.7539 5.32618 13.6357 5.25Z" fill="#10100F"/>
</svg>
