<svg width="24" height="24" viewBox="0 0 24 24" fill="none" xmlns="http://www.w3.org/2000/svg">
<path fill-rule="evenodd" clip-rule="evenodd" d="M3.15707 3C3.40352 3 3.65058 3.04477 3.91 3.13477L21.5506 9.80957C23.4832 10.5446 23.4832 13.4554 21.5506 14.1904L3.91 20.8652C3.65058 20.9552 3.40352 21 3.15707 21C1.49691 20.9998 0.316876 18.8852 1.44516 17.2803L4.16879 13.3799C4.73947 12.555 4.73937 11.4304 4.16879 10.6055L1.44516 6.71973C0.329847 5.1148 1.49691 3.00016 3.15707 3ZM5.74496 12.5996C5.65881 13.1163 5.4638 13.6176 5.15609 14.0625L5.15316 14.0674L2.4266 17.9697C1.81955 18.8331 2.53362 19.7996 3.15707 19.7998C3.24896 19.7998 3.3587 19.785 3.50277 19.7363L21.1239 13.0684C21.3567 12.9797 21.5367 12.8144 21.6532 12.5996H5.74496ZM3.15707 4.2002C2.8659 4.20028 2.53361 4.3904 2.33676 4.78906C2.15034 5.1668 2.14699 5.62537 2.42953 6.0332L5.15609 9.92188C5.46689 10.3711 5.66307 10.8783 5.74789 11.4004H21.6532C21.5369 11.1858 21.3574 11.0203 21.1248 10.9316L3.50277 4.26367C3.35869 4.21503 3.24896 4.2002 3.15707 4.2002Z" fill="#10100F"/>
</svg>
