<svg width="24" height="24" viewBox="0 0 24 24" fill="none" xmlns="http://www.w3.org/2000/svg">
<path d="M22.9276 12.5996C22.7609 13.2881 22.3028 13.9043 21.5506 14.1904L3.91 20.8652C3.65058 20.9552 3.40352 21 3.15707 21C1.49691 20.9998 0.316876 18.8852 1.44516 17.2803L4.16879 13.3799C4.33454 13.1403 4.45088 12.8751 4.52035 12.5996H22.9276Z" fill="#10100F"/>
<path d="M3.15707 3C3.40352 3 3.65058 3.04477 3.91 3.13477L21.5506 9.80957C22.3028 10.0957 22.7609 10.7119 22.9276 11.4004H4.52426C4.45532 11.1196 4.33748 10.8494 4.16879 10.6055L1.44516 6.71973C0.329847 5.1148 1.49691 3.00016 3.15707 3Z" fill="#10100F"/>
</svg>
