<svg width="24" height="24" viewBox="0 0 24 24" fill="none" xmlns="http://www.w3.org/2000/svg">
<path fill-rule="evenodd" clip-rule="evenodd" d="M23 17C23 19.209 21.2093 20.9998 19.0003 21H4.99967L4.79378 20.9951C2.68047 20.8878 1 19.14 1 17V15.7363H23V17ZM6.5931 17.1582C6.2631 17.1582 5.99243 17.4288 5.99243 17.7588C5.99254 18.0887 6.26317 18.3584 6.5931 18.3584C6.9229 18.3582 7.19276 18.0886 7.19287 17.7588C7.19287 17.4289 6.92297 17.1584 6.5931 17.1582ZM9.13184 17.1494C8.80063 17.1494 8.53143 17.4179 8.53117 17.749C8.53117 18.0804 8.80047 18.3496 9.13184 18.3496H17.3756C17.7069 18.3496 17.9762 18.0804 17.9762 17.749C17.976 17.4179 17.7068 17.1494 17.3756 17.1494H9.13184Z" fill="#10100F"/>
<path fill-rule="evenodd" clip-rule="evenodd" d="M23 14.5371H1V9.95605H23V14.5371ZM9.12646 11.7607C8.79525 11.7607 8.52695 12.0292 8.52669 12.3604C8.52669 12.6917 8.79509 12.9609 9.12646 12.9609H17.3711C17.7023 12.9608 17.9709 12.6916 17.9709 12.3604C17.9706 12.0293 17.7022 11.7609 17.3711 11.7607H9.12646ZM6.60026 11.75C6.27027 11.75 6.00049 12.0196 6.00049 12.3496C6.00049 12.6796 6.27028 12.9492 6.60026 12.9492C6.93026 12.9492 7.20003 12.6796 7.20003 12.3496C7.20003 12.0196 6.93026 11.75 6.60026 11.75Z" fill="#10100F"/>
<path fill-rule="evenodd" clip-rule="evenodd" d="M19.2062 3.00488C21.3195 3.1122 23 4.86002 23 7V8.75586H1V7C1 4.79097 2.79069 3.00018 4.99967 3H19.0003C19.0694 3.00001 19.138 3.00142 19.2062 3.00488ZM6.60026 6C6.27027 6.00001 6.00049 6.27059 6.00049 6.60059C6.00074 6.93037 6.27043 7.20019 6.60026 7.2002C6.9301 7.2002 7.19978 6.93037 7.20003 6.60059C7.20003 6.27059 6.93026 6 6.60026 6ZM9.12646 6C8.79534 6.00014 8.5269 6.2685 8.52669 6.59961C8.52669 6.9309 8.79521 7.20006 9.12646 7.2002H17.3711C17.7025 7.2002 17.9709 6.93098 17.9709 6.59961C17.9707 6.26842 17.7023 6 17.3711 6H9.12646Z" fill="#10100F"/>
</svg>
