<svg width="24" height="24" viewBox="0 0 24 24" fill="none" xmlns="http://www.w3.org/2000/svg">
<path d="M6.5922 17.1592C6.9222 17.1592 7.19198 17.4288 7.19198 17.7588C7.19192 18.0887 6.92216 18.3584 6.5922 18.3584C6.26224 18.3584 5.99249 18.0887 5.99243 17.7588C5.99243 17.4288 6.2622 17.1592 6.5922 17.1592Z" fill="#10100F"/>
<path d="M17.3756 17.1494C17.7068 17.1494 17.9751 17.4178 17.9753 17.749C17.9753 18.0804 17.7069 18.3496 17.3756 18.3496H9.13094C8.79971 18.3494 8.53117 18.0803 8.53117 17.749C8.53138 17.4179 8.79984 17.1496 9.13094 17.1494H17.3756Z" fill="#10100F"/>
<path d="M17.372 11.7607C17.7032 11.7608 17.9715 12.0292 17.9718 12.3604C17.9718 12.6917 17.7033 12.9609 17.372 12.9609H9.12736C8.79599 12.9609 8.52759 12.6917 8.52759 12.3604C8.52783 12.0292 8.79614 11.7607 9.12736 11.7607H17.372Z" fill="#10100F"/>
<path d="M6.60026 11.749C6.93022 11.7491 7.20003 12.0196 7.20003 12.3496C7.19991 12.6795 6.93015 12.9492 6.60026 12.9492C6.27034 12.9492 6.00061 12.6795 6.00049 12.3496C6.00049 12.0196 6.27026 11.749 6.60026 11.749Z" fill="#10100F"/>
<path d="M6.60026 6C6.93001 6.00014 7.19982 6.26987 7.20003 6.59961C7.20003 6.92952 6.93014 7.20005 6.60026 7.2002C6.27026 7.2002 5.99959 6.92961 5.99959 6.59961C5.99981 6.26979 6.27039 6 6.60026 6Z" fill="#10100F"/>
<path d="M17.372 6C17.7032 6.00006 17.9715 6.26846 17.9718 6.59961C17.9718 6.93094 17.7033 7.20013 17.372 7.2002H9.12736C8.79599 7.2002 8.52759 6.93098 8.52759 6.59961C8.5278 6.26842 8.79612 6 9.12736 6H17.372Z" fill="#10100F"/>
<path fill-rule="evenodd" clip-rule="evenodd" d="M19.0003 3C21.2093 3.00018 23 4.79097 23 7V17C23 19.209 21.2093 20.9998 19.0003 21H4.99967C2.79069 20.9998 1 19.209 1 17V7C1 4.79097 2.79069 3.00018 4.99967 3H19.0003ZM2.20044 15.7363V17C2.20044 18.5463 3.45343 19.7996 4.99967 19.7998H19.0003C20.5466 19.7996 21.7996 18.5463 21.7996 17V15.7363H2.20044ZM2.20044 14.5371H21.7996V9.95605H2.20044V14.5371ZM4.99967 4.2002C3.45343 4.20037 2.20044 5.45371 2.20044 7V8.75586H21.7996V7C21.7996 5.45371 20.5466 4.20037 19.0003 4.2002H4.99967Z" fill="#10100F"/>
</svg>
