<svg width="24" height="24" viewBox="0 0 24 24" fill="none" xmlns="http://www.w3.org/2000/svg">
<path d="M7.00488 12.5996C7.05723 13.9341 8.15269 15 9.5 15H14.5C15.8473 15 16.9428 13.9341 16.9951 12.5996H23V18C23 20.2091 21.2091 22 19 22H5C2.79086 22 1 20.2091 1 18V12.5996H7.00488Z" fill="#10100F"/>
<path d="M15.793 12.6328C15.7264 13.2884 15.1731 13.7998 14.5 13.7998H9.5C8.81557 13.7998 8.25598 13.271 8.20508 12.5996H15.7949L15.793 12.6328Z" fill="#10100F"/>
<path fill-rule="evenodd" clip-rule="evenodd" d="M12 2C14.4189 2 16.4351 3.71791 16.8984 6H19C21.2091 6 23 7.79086 23 10V11.4004H1V10C1 7.79086 2.79086 6 5 6H7.10156C7.56495 3.71791 9.58115 2 12 2ZM12 3.2002C10.2475 3.2002 8.77305 4.3866 8.33398 6H15.666C15.227 4.3866 13.7525 3.2002 12 3.2002Z" fill="#10100F"/>
</svg>
