<svg width="24" height="24" viewBox="0 0 24 24" fill="none" xmlns="http://www.w3.org/2000/svg">
<path fill-rule="evenodd" clip-rule="evenodd" d="M12 2C14.4189 2 16.4361 3.71781 16.8994 6H19C21.2091 6 23 7.79086 23 10V18C23 20.2091 21.2091 22 19 22H5C2.79086 22 1 20.2091 1 18V10C1 7.79086 2.79086 6 5 6H7.10059C7.5639 3.71781 9.58108 2 12 2ZM16.9951 12.5996C16.9428 13.9341 15.8473 15 14.5 15H9.5C8.15269 15 7.05723 13.9341 7.00488 12.5996H2.2002V18C2.2002 19.5464 3.4536 20.7998 5 20.7998H19C20.5464 20.7998 21.7998 19.5464 21.7998 18V12.5996H16.9951ZM8.20508 12.5996C8.256 13.271 8.81558 13.7998 9.5 13.7998H14.5C15.1844 13.7998 15.744 13.271 15.7949 12.5996H8.20508ZM5 7.2002C3.4536 7.2002 2.2002 8.4536 2.2002 10V11.4004H21.7998V10C21.7998 8.4536 20.5464 7.2002 19 7.2002H5ZM12 3.2002C10.2475 3.2002 8.77305 4.3866 8.33398 6H15.666C15.227 4.3866 13.7525 3.2002 12 3.2002Z" fill="#10100F"/>
</svg>
