<svg width="24" height="24" viewBox="0 0 24 24" fill="none" xmlns="http://www.w3.org/2000/svg">
<path d="M12 9.2002C13.5464 9.2002 14.7998 10.4536 14.7998 12C14.7998 13.5464 13.5464 14.7998 12 14.7998C10.4536 14.7998 9.2002 13.5464 9.2002 12C9.2002 10.4536 10.4536 9.2002 12 9.2002Z" fill="#10100F"/>
<path fill-rule="evenodd" clip-rule="evenodd" d="M13.5596 1C14.0482 1.00022 14.4656 1.3539 14.5459 1.83594L15.0234 4.70215L17.3877 3.0127C17.7855 2.72856 18.3311 2.77446 18.6768 3.12012L20.8818 5.32422C21.2274 5.66988 21.2724 6.21552 20.9883 6.61328L19.2998 8.97656L22.1641 9.4541C22.6461 9.53444 22.9998 9.95178 23 10.4404V13.5596C22.9998 14.0482 22.6461 14.4656 22.1641 14.5459L19.2988 15.0234L20.9873 17.3877C21.2714 17.7855 21.2265 18.3301 20.8809 18.6758L18.6758 20.8809C18.3301 21.2263 17.7854 21.2713 17.3877 20.9873L15.0234 19.2988L14.5459 22.1641C14.4656 22.6461 14.0482 22.9998 13.5596 23H10.4404C9.95178 22.9998 9.53444 22.6461 9.4541 22.1641L8.97656 19.2988L6.61328 20.9873C6.21552 21.2714 5.67086 21.2265 5.3252 20.8809L3.12012 18.6758C2.77453 18.3301 2.72956 17.7854 3.01367 17.3877L4.70215 15.0234L1.83594 14.5459C1.3539 14.4656 1.00022 14.0482 1 13.5596V10.4404C1.00022 9.95178 1.3539 9.53444 1.83594 9.4541L4.70215 8.97656L3.0127 6.6123C2.72886 6.21455 2.77457 5.66977 3.12012 5.32422L5.32422 3.11914C5.66988 2.77348 6.2155 2.72856 6.61328 3.0127L8.97656 4.70117L9.4541 1.83594C9.53444 1.3539 9.95178 1.00022 10.4404 1H13.5596ZM12 8C9.79086 8 8 9.79086 8 12C8 14.2091 9.79086 16 12 16C14.2091 16 16 14.2091 16 12C16 9.79086 14.2091 8 12 8Z" fill="#10100F"/>
</svg>
