<svg width="24" height="24" viewBox="0 0 24 24" fill="none" xmlns="http://www.w3.org/2000/svg">
<path fill-rule="evenodd" clip-rule="evenodd" d="M12 8C14.2091 8 16 9.79086 16 12C16 14.2091 14.2091 16 12 16C9.79086 16 8 14.2091 8 12C8 9.79086 9.79086 8 12 8ZM12 9.2002C10.4536 9.2002 9.2002 10.4536 9.2002 12C9.2002 13.5464 10.4536 14.7998 12 14.7998C13.5464 14.7998 14.7998 13.5464 14.7998 12C14.7998 10.4536 13.5464 9.2002 12 9.2002Z" fill="#10100F"/>
<path fill-rule="evenodd" clip-rule="evenodd" d="M13.5596 1C14.0482 1.00022 14.4656 1.3539 14.5459 1.83594L15.0234 4.70215L17.3877 3.0127C17.7855 2.72856 18.3311 2.77446 18.6768 3.12012L20.8809 5.32422C21.2265 5.66988 21.2724 6.2155 20.9883 6.61328L19.2988 8.97656L22.1641 9.4541C22.6461 9.53444 22.9998 9.95178 23 10.4404V13.5596C22.9998 14.0482 22.6461 14.4656 22.1641 14.5459L19.2988 15.0234L20.9873 17.3877C21.2714 17.7855 21.2265 18.3301 20.8809 18.6758L18.6758 20.8809C18.3301 21.2264 17.7854 21.2714 17.3877 20.9873L15.0234 19.2988L14.5459 22.1641C14.4656 22.6461 14.0482 22.9998 13.5596 23H10.4404C9.95178 22.9998 9.53444 22.6461 9.4541 22.1641L8.97656 19.2988L6.61328 20.9873C6.21554 21.2714 5.67086 21.2264 5.3252 20.8809L3.12012 18.6758C2.77448 18.3301 2.72955 17.7855 3.01367 17.3877L4.70215 15.0234L1.83594 14.5459C1.3539 14.4656 1.00022 14.0482 1 13.5596V10.4404C1.00022 9.95178 1.3539 9.53444 1.83594 9.4541L4.70117 8.97656L3.0127 6.6123C2.72889 6.21456 2.77458 5.66976 3.12012 5.32422L5.32422 3.11914C5.66988 2.77348 6.2155 2.72856 6.61328 3.0127L8.97656 4.70117L9.4541 1.83594C9.53444 1.3539 9.95178 1.00022 10.4404 1H13.5596ZM10.1602 4.89844C10.0921 5.30668 9.8188 5.65101 9.43652 5.80957C9.05397 5.96803 8.61624 5.91841 8.2793 5.67773L6.05371 4.08789L4.08789 6.05273L5.67773 8.2793C5.9183 8.61609 5.96876 9.05311 5.81055 9.43555C5.65216 9.81793 5.30762 10.0919 4.89941 10.1602L2.2002 10.6104V13.3896L4.89941 13.8398C5.30784 13.9079 5.65209 14.1819 5.81055 14.5645C5.96887 14.9469 5.91929 15.3838 5.67871 15.7207L4.08789 17.9473L6.05371 19.9121L8.2793 18.3223C8.61623 18.0817 9.05401 18.032 9.43652 18.1904C9.8188 18.3489 10.092 18.6934 10.1602 19.1016L10.6104 21.7998H13.3896L13.8398 19.1016C13.9079 18.6932 14.1811 18.348 14.5635 18.1895C14.946 18.031 15.3838 18.0816 15.7207 18.3223L17.9473 19.9121L19.9121 17.9473L18.3223 15.7207C18.0816 15.3838 18.032 14.946 18.1904 14.5635C18.349 14.1812 18.6933 13.9079 19.1016 13.8398L21.7998 13.3896V10.6104L19.1016 10.1602C18.6934 10.092 18.3489 9.8188 18.1904 9.43652C18.032 9.05397 18.0826 8.61624 18.3232 8.2793L19.9131 6.05371L17.9473 4.08789L15.7207 5.67871C15.3839 5.91926 14.9469 5.96885 14.5645 5.81055C14.1819 5.6521 13.9079 5.30781 13.8398 4.89941L13.3896 2.2002H10.6104L10.1602 4.89844Z" fill="#10100F"/>
</svg>
