<svg width="24" height="24" viewBox="0 0 24 24" fill="none" xmlns="http://www.w3.org/2000/svg">
<path d="M18.5 2C20.433 2 22 3.567 22 5.5C22 7.433 20.433 9 18.5 9C17.4373 9 16.4856 8.526 15.8438 7.77832L11.3574 10.3203L8.99023 11.7578C8.99571 11.8379 9 11.9186 9 12C9 12.1311 8.99158 12.2604 8.97754 12.3877L11.1035 13.6797L15.7617 16.3203C16.403 15.5158 17.3912 15 18.5 15C20.433 15 22 16.567 22 18.5C22 20.433 20.433 22 18.5 22C16.567 22 15 20.433 15 18.5C15 18.1057 15.0653 17.7267 15.1855 17.373L10.4961 14.7148L8.62305 13.5771C8.04609 14.7174 6.86525 15.5 5.5 15.5C3.567 15.5 2 13.933 2 12C2 10.067 3.567 8.5 5.5 8.5C6.91203 8.5 8.12738 9.33681 8.68066 10.541L10.75 9.28516L15.2295 6.74707C15.0817 6.35961 15 5.93939 15 5.5C15 3.567 16.567 2 18.5 2Z" fill="#10100F"/>
</svg>
