<svg width="24" height="24" viewBox="0 0 24 24" fill="none" xmlns="http://www.w3.org/2000/svg">
<path fill-rule="evenodd" clip-rule="evenodd" d="M11.9998 2C14.804 2 17.0777 4.28314 17.0779 7.09961V8.5H18.9236C19.9105 8.5002 20.7487 9.2265 20.8934 10.207L21.9559 17.4141C22.3121 19.8301 20.4482 22 18.0164 22H5.98322C3.55144 22 1.68753 19.8302 2.04376 17.4141L3.10626 10.207C3.25089 9.22648 4.08911 8.50016 5.07599 8.5H6.92267V7.09961C6.92288 4.28325 9.19579 2.00018 11.9998 2ZM5.07599 9.7002C4.68133 9.70036 4.34673 9.99066 4.28888 10.3828L3.2254 17.5898C2.97605 19.2811 4.28098 20.7998 5.98322 20.7998H18.0164C19.7186 20.7998 21.0236 19.2811 20.7742 17.5898L19.7108 10.3828C19.6529 9.99069 19.3183 9.7004 18.9236 9.7002H17.0779V11.5996C17.0779 11.931 16.8102 12.2002 16.4803 12.2002C16.1504 12.2001 15.8826 11.9309 15.8826 11.5996V9.7002H8.11701V11.5996C8.11701 11.9308 7.85003 12.1999 7.52033 12.2002C7.19041 12.2002 6.92267 11.931 6.92267 11.5996V9.7002H5.07599ZM11.9998 3.2002C9.85562 3.20037 8.11722 4.94599 8.11701 7.09961V8.5H15.8826V7.09961C15.8824 4.94588 14.1442 3.2002 11.9998 3.2002Z" fill="#10100F"/>
</svg>
