<svg width="24" height="24" viewBox="0 0 24 24" fill="none" xmlns="http://www.w3.org/2000/svg">
<path fill-rule="evenodd" clip-rule="evenodd" d="M11.9998 2C14.804 2 17.0777 4.28314 17.0779 7.09961V8.5H18.9236C19.9105 8.5002 20.7487 9.2265 20.8934 10.207L21.9559 17.4141C22.3121 19.8301 20.4482 22 18.0164 22H5.98322C3.55144 22 1.68753 19.8302 2.04376 17.4141L3.10626 10.207C3.25089 9.22648 4.08911 8.50016 5.07599 8.5H6.92267V7.09961C6.92288 4.28325 9.19579 2.00018 11.9998 2ZM11.9998 3.2002C9.85562 3.20037 8.11722 4.94599 8.11701 7.09961V8.5H15.8826V7.09961C15.8824 4.94588 14.1442 3.2002 11.9998 3.2002Z" fill="#10100F"/>
</svg>
