<svg width="24" height="24" viewBox="0 0 24 24" fill="none" xmlns="http://www.w3.org/2000/svg">
<path fill-rule="evenodd" clip-rule="evenodd" d="M3 2C3.92355 2.00012 4.72631 2.63467 4.93945 3.5332L5.14453 4.41895H20.3994C22.0163 4.41922 23.2413 5.87959 22.96 7.47168L21.8613 13.6865C21.6418 14.9287 20.5623 15.8339 19.3008 15.834H7.78223L7.89551 16.3232C8.04526 16.9543 8.60919 17.4002 9.25781 17.4004H20.501C20.8324 17.4004 21.1016 17.6686 21.1016 18C21.1015 18.3314 20.8324 18.5996 20.501 18.5996H18.9287C19.2828 18.9604 19.501 19.4546 19.501 20C19.501 21.1046 18.6055 22 17.501 22C16.3966 21.9998 15.501 21.1044 15.501 20C15.501 19.4545 15.7201 18.9604 16.0742 18.5996H11.9277C12.2818 18.9604 12.501 19.4545 12.501 20C12.501 21.1044 11.6053 21.9997 10.501 22C9.39641 22 8.50098 21.1046 8.50098 20C8.50099 19.4511 8.72104 18.9532 9.0791 18.5918C7.95072 18.5144 6.99173 17.7134 6.72754 16.5996L3.77148 3.80957C3.68653 3.45232 3.36727 3.20031 3 3.2002H1.59961C1.26857 3.19994 1.00026 2.93158 1 2.60059C1 2.26937 1.26841 2.00025 1.59961 2H3ZM10.501 19.2002C10.0592 19.2002 9.70022 19.5582 9.7002 20C9.7002 20.4418 10.0591 20.7998 10.501 20.7998C10.9426 20.7996 11.3008 20.4417 11.3008 20C11.3008 19.5583 10.9426 19.2004 10.501 19.2002ZM17.501 19.2002C17.0594 19.2004 16.7012 19.5583 16.7012 20C16.7012 20.4417 17.0593 20.7996 17.501 20.7998C17.9428 20.7998 18.3018 20.4418 18.3018 20C18.3017 19.5582 17.9428 19.2002 17.501 19.2002Z" fill="#10100F"/>
</svg>
