<svg width="24" height="24" viewBox="0 0 24 24" fill="none" xmlns="http://www.w3.org/2000/svg">
<path d="M7.5 16C7.58637 16 7.67174 16.0041 7.75586 16.0127C8.81483 16.1204 9.67578 16.8899 9.9248 17.9004H21.4004C21.7316 17.9006 22 18.1688 22 18.5C22 18.8312 21.7316 19.0994 21.4004 19.0996H9.9248C9.67578 20.1101 8.81483 20.8796 7.75586 20.9873C7.67174 20.9959 7.58637 21 7.5 21C7.41367 21 7.32822 20.9958 7.24414 20.9873C6.18508 20.8797 5.32426 20.1102 5.0752 19.0996H2.59961C2.26842 19.0994 2 18.8312 2 18.5C2 18.1688 2.26842 17.9006 2.59961 17.9004H5.0752C5.32426 16.8898 6.18508 16.1203 7.24414 16.0127C7.32822 16.0042 7.41367 16 7.5 16Z" fill="#10100F"/>
<path d="M15.7559 9.5127C16.8148 9.62039 17.6758 10.3899 17.9248 11.4004H21.4004C21.7316 11.4006 22 11.6688 22 12C22 12.3312 21.7316 12.5994 21.4004 12.5996H17.9248C17.6758 13.6101 16.8148 14.3796 15.7559 14.4873C15.6717 14.4959 15.5864 14.5 15.5 14.5C15.4137 14.5 15.3282 14.4958 15.2441 14.4873C14.1851 14.3797 13.3243 13.6102 13.0752 12.5996H2.59961C2.26842 12.5994 2 12.3312 2 12C2 11.6688 2.26842 11.4006 2.59961 11.4004H13.0752C13.3243 10.3898 14.1851 9.62029 15.2441 9.5127C15.3282 9.50415 15.4137 9.5 15.5 9.5C15.5864 9.5 15.6717 9.50414 15.7559 9.5127Z" fill="#10100F"/>
<path d="M8.75586 3.0127C9.81483 3.12039 10.6758 3.88988 10.9248 4.90039H21.4004C21.7316 4.9006 22 5.16876 22 5.5C22 5.83124 21.7316 6.0994 21.4004 6.09961H10.9248C10.6758 7.11012 9.81483 7.87961 8.75586 7.9873C8.67174 7.99586 8.58637 8 8.5 8C8.41367 8 8.32822 7.99585 8.24414 7.9873C7.18508 7.87971 6.32426 7.11016 6.0752 6.09961H2.59961C2.26842 6.0994 2 5.83124 2 5.5C2 5.16876 2.26842 4.9006 2.59961 4.90039H6.0752C6.32426 3.88984 7.18508 3.12029 8.24414 3.0127C8.32822 3.00415 8.41367 3 8.5 3C8.58637 3 8.67174 3.00414 8.75586 3.0127Z" fill="#10100F"/>
</svg>
