<svg width="24" height="24" viewBox="0 0 24 24" fill="none" xmlns="http://www.w3.org/2000/svg">
<path fill-rule="evenodd" clip-rule="evenodd" d="M7.5 16C8.67375 16.0001 9.65599 16.8096 9.9248 17.9004H21.4004C21.7316 17.9006 22 18.1688 22 18.5C22 18.8312 21.7316 19.0994 21.4004 19.0996H9.9248C9.65599 20.1904 8.67375 20.9999 7.5 21C6.32622 21 5.34403 20.1904 5.0752 19.0996H2.59961C2.26842 19.0994 2 18.8312 2 18.5C2 18.1688 2.26842 17.9006 2.59961 17.9004H5.0752C5.34403 16.8096 6.32622 16 7.5 16ZM7.5 17.2002C6.78203 17.2002 6.2002 17.782 6.2002 18.5C6.2002 19.218 6.78203 19.7998 7.5 19.7998C8.21791 19.7997 8.7998 19.2179 8.7998 18.5C8.7998 17.7821 8.21791 17.2003 7.5 17.2002Z" fill="#10100F"/>
<path fill-rule="evenodd" clip-rule="evenodd" d="M15.5 9.5C16.6737 9.50006 17.656 10.3096 17.9248 11.4004H21.4004C21.7316 11.4006 22 11.6688 22 12C22 12.3312 21.7316 12.5994 21.4004 12.5996H17.9248C17.656 13.6904 16.6737 14.4999 15.5 14.5C14.3262 14.5 13.344 13.6904 13.0752 12.5996H2.59961C2.26842 12.5994 2 12.3312 2 12C2 11.6688 2.26842 11.4006 2.59961 11.4004H13.0752C13.344 10.3096 14.3262 9.5 15.5 9.5ZM15.5 10.7002C14.782 10.7002 14.2002 11.282 14.2002 12C14.2002 12.718 14.782 13.2998 15.5 13.2998C16.2179 13.2997 16.7998 12.7179 16.7998 12C16.7998 11.2821 16.2179 10.7003 15.5 10.7002Z" fill="#10100F"/>
<path fill-rule="evenodd" clip-rule="evenodd" d="M8.5 3C9.67375 3.00006 10.656 3.80962 10.9248 4.90039H21.4004C21.7316 4.9006 22 5.16876 22 5.5C22 5.83124 21.7316 6.0994 21.4004 6.09961H10.9248C10.656 7.19038 9.67375 7.99994 8.5 8C7.32622 8 6.34404 7.19039 6.0752 6.09961H2.59961C2.26842 6.0994 2 5.83124 2 5.5C2 5.16876 2.26842 4.9006 2.59961 4.90039H6.0752C6.34404 3.80961 7.32622 3 8.5 3ZM8.5 4.2002C7.78203 4.2002 7.2002 4.78203 7.2002 5.5C7.2002 6.21797 7.78203 6.7998 8.5 6.7998C9.21791 6.79974 9.7998 6.21793 9.7998 5.5C9.7998 4.78207 9.21791 4.20026 8.5 4.2002Z" fill="#10100F"/>
</svg>
