<svg width="24" height="24" viewBox="0 0 24 24" fill="none" xmlns="http://www.w3.org/2000/svg">
<path d="M12 1C12.4895 1 12.9717 1.03177 13.4443 1.09375C13.8488 1.14687 14.0233 1.62339 13.8174 1.97559C13.6956 2.18381 13.4611 2.30512 13.2217 2.27539C12.8215 2.22563 12.4137 2.2002 12 2.2002C6.58761 2.2002 2.2002 6.58761 2.2002 12C2.2002 17.4124 6.58761 21.7998 12 21.7998C17.4124 21.7998 21.7998 17.4124 21.7998 12C21.7998 11.5863 21.7744 11.1785 21.7246 10.7783C21.6949 10.5389 21.8162 10.3044 22.0244 10.1826C22.3766 9.97666 22.8531 10.1512 22.9062 10.5557C22.9682 11.0283 23 11.5105 23 12C23 18.0751 18.0751 23 12 23C5.92487 23 1 18.0751 1 12C1 5.92487 5.92487 1 12 1Z" fill="#10100F"/>
<path d="M12 6.40039C12.3313 6.40048 12.5996 6.66868 12.5996 7V8.06641H12.8809C13.543 8.06641 14.1783 8.32967 14.6465 8.79785C14.8807 9.0321 14.8806 9.41215 14.6465 9.64648C14.4122 9.8808 14.0322 9.8808 13.7979 9.64648C13.5547 9.40334 13.2247 9.26661 12.8809 9.2666H11.4443C10.8554 9.2666 10.3782 9.74417 10.3779 10.333C10.3779 10.9221 10.8553 11.4004 11.4443 11.4004H12.5557C13.8074 11.4005 14.8223 12.4153 14.8223 13.667C14.8221 14.9038 13.8308 15.9089 12.5996 15.9326V17C12.5993 17.3311 12.3311 17.5995 12 17.5996C11.6688 17.5996 11.3997 17.3311 11.3994 17V15.9336H10.8887C10.4382 15.9336 10.0036 15.7771 9.6582 15.4941L9.5166 15.3643L9.35352 15.2021C9.1192 14.9678 9.1192 14.5878 9.35352 14.3535C9.58783 14.1192 9.96784 14.1192 10.2021 14.3535L10.3643 14.5166C10.5032 14.6556 10.6921 14.7334 10.8887 14.7334H12.5557C13.1445 14.7333 13.6219 14.2558 13.6221 13.667C13.6221 13.078 13.1446 12.5998 12.5557 12.5996H11.4443C10.1925 12.5996 9.17773 11.5848 9.17773 10.333C9.17799 9.09643 10.1685 8.09131 11.3994 8.06738V7C11.3994 6.66863 11.6686 6.40039 12 6.40039Z" fill="#10100F"/>
<path d="M19.0576 1.32812C19.1907 0.89091 19.8093 0.89091 19.9424 1.32812L20.5078 3.18457C20.5527 3.33199 20.668 3.44727 20.8154 3.49219L22.6719 4.05762C23.1091 4.19069 23.1091 4.80931 22.6719 4.94238L20.8154 5.50781C20.668 5.55273 20.5527 5.66801 20.5078 5.81543L19.9424 7.67188C19.8093 8.10909 19.1907 8.10909 19.0576 7.67188L18.4922 5.81543C18.4473 5.66801 18.332 5.55273 18.1846 5.50781L16.3281 4.94238C15.8909 4.80931 15.8909 4.19069 16.3281 4.05762L18.1846 3.49219C18.332 3.44727 18.4473 3.33199 18.4922 3.18457L19.0576 1.32812Z" fill="#10100F"/>
</svg>
