<svg width="24" height="24" viewBox="0 0 24 24" fill="none" xmlns="http://www.w3.org/2000/svg">
<path fill-rule="evenodd" clip-rule="evenodd" d="M16.4315 1.9917C16.7615 1.9917 17.029 2.25921 17.029 2.58921V21.3112C17.029 21.6412 16.7615 21.9087 16.4315 21.9087C16.1015 21.9087 15.834 21.6412 15.834 21.3112V2.58921C15.834 2.25921 16.1015 1.9917 16.4315 1.9917Z" fill="#10100F"/>
<path fill-rule="evenodd" clip-rule="evenodd" d="M21.8127 15.4915C22.0569 15.7135 22.0749 16.0914 21.8529 16.3355L16.8736 21.8127C16.6516 22.0569 16.2737 22.0749 16.0296 21.8529C15.7854 21.6309 15.7674 21.253 15.9894 21.0089L20.9686 15.5317C21.1906 15.2875 21.5685 15.2695 21.8127 15.4915Z" fill="#10100F"/>
<path fill-rule="evenodd" clip-rule="evenodd" d="M11.0503 15.4915C11.2945 15.2695 11.6724 15.2875 11.8943 15.5317L16.8736 21.0089C17.0956 21.253 17.0776 21.6309 16.8334 21.8529C16.5892 22.0749 16.2113 22.0569 15.9894 21.8127L11.0101 16.3355C10.7881 16.0914 10.8061 15.7135 11.0503 15.4915Z" fill="#10100F"/>
<path fill-rule="evenodd" clip-rule="evenodd" d="M1.9917 5.97512C1.9917 5.64513 2.25921 5.37761 2.58921 5.37761H13.4439C13.7739 5.37761 14.0414 5.64513 14.0414 5.97512C14.0414 6.30512 13.7739 6.57263 13.4439 6.57263H2.58921C2.25921 6.57263 1.9917 6.30512 1.9917 5.97512Z" fill="#10100F"/>
<path fill-rule="evenodd" clip-rule="evenodd" d="M1.9917 9.95852C1.9917 9.62852 2.25921 9.36101 2.58921 9.36101H10.4564C10.7864 9.36101 11.0539 9.62852 11.0539 9.95852C11.0539 10.2885 10.7864 10.556 10.4564 10.556H2.58921C2.25921 10.556 1.9917 10.2885 1.9917 9.95852Z" fill="#10100F"/>
<path fill-rule="evenodd" clip-rule="evenodd" d="M1.9917 13.9419C1.9917 13.6119 2.25921 13.3444 2.58921 13.3444H7.4688C7.7988 13.3444 8.06631 13.6119 8.06631 13.9419C8.06631 14.2719 7.7988 14.5394 7.4688 14.5394H2.58921C2.25921 14.5394 1.9917 14.2719 1.9917 13.9419Z" fill="#10100F"/>
<path fill-rule="evenodd" clip-rule="evenodd" d="M1.9917 17.9253C1.9917 17.5953 2.25921 17.3278 2.58921 17.3278H4.48124C4.81123 17.3278 5.07875 17.5953 5.07875 17.9253C5.07875 18.2553 4.81123 18.5228 4.48124 18.5228H2.58921C2.25921 18.5228 1.9917 18.2553 1.9917 17.9253Z" fill="#10100F"/>
</svg>
