<svg width="24" height="24" viewBox="0 0 24 24" fill="none" xmlns="http://www.w3.org/2000/svg">
<path d="M7.79883 22H6C3.79086 22 2 20.2091 2 18V17.5996H7.79883V22Z" fill="#10100F"/>
<path d="M14.9238 22H8.99902V17.5996H14.9238V22Z" fill="#10100F"/>
<path d="M22 18C22 20.2091 20.2091 22 18 22H16.124V17.5996H22V18Z" fill="#10100F"/>
<path d="M7.79883 16.4004H2V13.0996H7.79883V16.4004Z" fill="#10100F"/>
<path d="M14.9238 16.4004H8.99902V13.0996H14.9238V16.4004Z" fill="#10100F"/>
<path d="M22 16.4004H16.124V13.0996H22V16.4004Z" fill="#10100F"/>
<path d="M7.79883 11.9004H2V8.59961H7.79883V11.9004Z" fill="#10100F"/>
<path d="M14.9238 11.9004H8.99902V8.59961H14.9238V11.9004Z" fill="#10100F"/>
<path d="M22 11.9004H16.124V8.59961H22V11.9004Z" fill="#10100F"/>
<path d="M18 2C20.2091 2 22 3.79086 22 6V7.40039H2V6C2 3.79086 3.79086 2 6 2H18Z" fill="#10100F"/>
</svg>
