<svg width="24" height="24" viewBox="0 0 24 24" fill="none" xmlns="http://www.w3.org/2000/svg">
<path fill-rule="evenodd" clip-rule="evenodd" d="M18 2C20.2091 2 22 3.79086 22 6V18C22 20.2091 20.2091 22 18 22H6C3.79086 22 2 20.2091 2 18V6C2 3.79086 3.79086 2 6 2H18ZM16.124 17.5996V20.7998H18C19.5464 20.7998 20.7998 19.5464 20.7998 18V17.5996H16.124ZM8.99902 20.7998H14.9238V17.5996H8.99902V20.7998ZM3.2002 18C3.2002 19.5464 4.4536 20.7998 6 20.7998H7.79883V17.5996H3.2002V18ZM16.124 13.0996V16.4004H20.7998V13.0996H16.124ZM3.2002 16.4004H7.79883V13.0996H3.2002V16.4004ZM8.99902 16.4004H14.9238V13.0996H8.99902V16.4004ZM16.124 8.59961V11.9004H20.7998V8.59961H16.124ZM3.2002 11.9004H7.79883V8.59961H3.2002V11.9004ZM8.99902 11.9004H14.9238V8.59961H8.99902V11.9004ZM6 3.2002C4.4536 3.2002 3.2002 4.4536 3.2002 6V7.40039H20.7998V6C20.7998 4.4536 19.5464 3.2002 18 3.2002H6Z" fill="#10100F"/>
</svg>
