<svg width="24" height="24" viewBox="0 0 24 24" fill="none" xmlns="http://www.w3.org/2000/svg">
<path d="M11.6025 15.3004H8.7002V12.397L11.6025 15.3004Z" fill="#10100F"/>
<path fill-rule="evenodd" clip-rule="evenodd" d="M4.20703 1.83454C4.63491 1.87655 5.05982 2.06041 5.41406 2.41462L21.5859 18.5865C22.8454 19.8464 21.9534 22.0003 20.1719 22.0006H17.6006V18.9996C17.6004 18.6684 17.3312 18.4 17 18.4C16.6689 18.4002 16.4006 18.6685 16.4004 18.9996V22.0006H12.6006V18.9996C12.6004 18.6684 12.3312 18.4 12 18.4C11.6689 18.4002 11.4006 18.6685 11.4004 18.9996V22.0006H7.60059V18.9996C7.60038 18.6684 7.33124 18.4 7 18.4C6.66894 18.4002 6.4006 18.6685 6.40039 18.9996V22.0006H4C3.93109 22.0006 3.86302 21.9966 3.7959 21.9898C2.78728 21.8876 2.0001 21.0361 2 20.0006V17.6002H5C5.33137 17.6002 5.60059 17.331 5.60059 16.9996C5.60038 16.6684 5.33124 16.4 5 16.4H2V12.6002H5C5.33137 12.6002 5.60059 12.331 5.60059 11.9996C5.60037 11.6684 5.33124 11.4 5 11.4H2V7.60017H5C5.33137 7.60017 5.60059 7.33095 5.60059 6.99958C5.60037 6.66839 5.33124 6.39997 5 6.39997H2V3.82868C2.00009 2.65939 2.92793 1.87293 3.92188 1.82673C4.01658 1.82233 4.11187 1.8252 4.20703 1.83454ZM9.20703 11.2076C8.57707 10.5776 7.5 11.0237 7.5 11.9146V15.5006C7.50026 16.0526 7.94788 16.4996 8.5 16.4996H12.0859C12.9767 16.4995 13.4229 15.4225 12.793 14.7925L9.20703 11.2076Z" fill="#10100F"/>
</svg>
