<svg width="24" height="24" viewBox="0 0 24 24" fill="none" xmlns="http://www.w3.org/2000/svg">
<path fill-rule="evenodd" clip-rule="evenodd" d="M7.5 11.9139C7.50012 11.0231 8.57709 10.577 9.20703 11.2068L12.793 14.7928C13.4228 15.4227 12.9767 16.4997 12.0859 16.4998H8.5C7.94772 16.4998 7.5 16.0521 7.5 15.4998V11.9139ZM8.7002 15.2996H11.6025L8.7002 12.3973V15.2996Z" fill="#10100F"/>
<path fill-rule="evenodd" clip-rule="evenodd" d="M2 3.82793C2.00024 2.04639 4.15418 1.15423 5.41406 2.41386L21.5859 18.5857C22.8456 19.8456 21.9534 21.9996 20.1719 21.9998H4C2.89543 21.9998 2 21.1044 2 19.9998V3.82793ZM4.56543 3.2625C4.06151 2.75882 3.20044 3.11548 3.2002 3.82793V6.40019H5C5.33137 6.40019 5.60059 6.66843 5.60059 6.9998C5.60053 7.33113 5.33134 7.59941 5 7.59941H3.2002V11.4002H5C5.33137 11.4002 5.60059 11.6684 5.60059 11.9998C5.60053 12.3311 5.33134 12.5994 5 12.5994H3.2002V16.4002H5C5.33137 16.4002 5.60059 16.6684 5.60059 16.9998C5.60053 17.3311 5.33134 17.5994 5 17.5994H3.2002V19.9998C3.2002 20.4416 3.55817 20.7996 4 20.7996H6.40039V18.9998C6.40039 18.6686 6.66881 18.4004 7 18.4002C7.33137 18.4002 7.60059 18.6684 7.60059 18.9998V20.7996H11.4004V18.9998C11.4004 18.6686 11.6688 18.4004 12 18.4002C12.3314 18.4002 12.6006 18.6684 12.6006 18.9998V20.7996H16.4004V18.9998C16.4004 18.6686 16.6688 18.4004 17 18.4002C17.3314 18.4002 17.6006 18.6684 17.6006 18.9998V20.7996H20.1719C20.8843 20.7994 21.241 19.9383 20.7373 19.4344L4.56543 3.2625Z" fill="#10100F"/>
</svg>
