<svg width="24" height="24" viewBox="0 0 24 24" fill="none" xmlns="http://www.w3.org/2000/svg">
<path fill-rule="evenodd" clip-rule="evenodd" d="M14.3983 7.57074L12.2691 3.25657C12.1591 3.0336 11.8411 3.0336 11.7311 3.25657L9.6019 7.57074C9.21129 8.36222 8.45848 8.91281 7.58586 9.04524L3.05132 9.73345C2.81048 9.77 2.71131 10.0632 2.88052 10.2384L6.15374 13.6285C6.75093 14.247 7.01785 15.113 6.87251 15.9603L6.0554 20.7245C6.01336 20.9696 6.2706 21.1565 6.49068 21.0408L10.7437 18.8048C11.5302 18.3913 12.4699 18.3913 13.2565 18.8048L17.5095 21.0408C17.7296 21.1565 17.9868 20.9696 17.9448 20.7245L17.1277 15.9603C16.9823 15.113 17.2493 14.247 17.8464 13.6285L21.1197 10.2384C21.2889 10.0632 21.1897 9.77 20.9489 9.73345L16.4143 9.04524C15.5417 8.91281 14.7889 8.36222 14.3983 7.57074ZM13.3452 2.7255C12.795 1.61063 11.2052 1.61063 10.655 2.72549L8.52582 7.03966C8.30881 7.47937 7.89058 7.78525 7.40579 7.85883L2.87126 8.54704C1.66705 8.7298 1.17122 10.1957 2.01724 11.072L5.29047 14.462C5.62224 14.8056 5.77053 15.2867 5.68978 15.7575L4.87267 20.5216C4.6625 21.747 5.94865 22.6814 7.04909 22.1029L11.3021 19.867C11.7391 19.6372 12.2611 19.6372 12.6981 19.867L16.9511 22.1029C18.0515 22.6814 19.3377 21.747 19.1275 20.5216L18.3104 15.7575C18.2297 15.2867 18.3779 14.8056 18.7097 14.462L21.9829 11.072C22.829 10.1957 22.3331 8.7298 21.1289 8.54704L16.5944 7.85883C16.1096 7.78525 15.6914 7.47937 15.4744 7.03966L13.3452 2.7255Z" fill="#10100F"/>
</svg>
