<svg width="24" height="24" viewBox="0 0 24 24" fill="none" xmlns="http://www.w3.org/2000/svg">
<path d="M10.655 2.72517C11.2053 1.61071 12.7942 1.61076 13.3445 2.72517L15.4744 7.03963C15.6914 7.47925 16.1098 7.78539 16.5945 7.85896L21.1287 8.54646C22.3328 8.72921 22.8289 10.1956 21.9832 11.0719L18.7097 14.4615C18.378 14.8051 18.2296 15.2866 18.3103 15.7574L19.1277 20.5211C19.3379 21.7464 18.0513 22.6814 16.9509 22.1031L12.698 19.8668C12.261 19.637 11.7385 19.637 11.3015 19.8668L7.0486 22.1031C5.94824 22.6813 4.66268 21.7463 4.87282 20.5211L5.68923 15.7574C5.76997 15.2866 5.62159 14.8051 5.28981 14.4615L2.01735 11.0719C1.17135 10.1957 1.66673 8.72929 2.87087 8.54646L7.40603 7.85896C7.89056 7.78529 8.30819 7.47909 8.52517 7.03963L10.655 2.72517Z" fill="#10100F"/>
</svg>
