<svg width="24" height="24" viewBox="0 0 24 24" fill="none" xmlns="http://www.w3.org/2000/svg">
<path d="M16.3636 6.54545C16.9661 6.54545 17.4545 7.03387 17.4545 7.63636V16.3636C17.4545 16.9661 16.9661 17.4545 16.3636 17.4545H7.63636C7.03387 17.4545 6.54545 16.9661 6.54545 16.3636V7.63636C6.54545 7.03387 7.03387 6.54545 7.63636 6.54545H16.3636Z" fill="#10100F"/>
<path fill-rule="evenodd" clip-rule="evenodd" d="M12 0C18.6274 0 24 5.37258 24 12C24 18.6274 18.6274 24 12 24C5.37258 24 0 18.6274 0 12C0 5.37258 5.37258 0 12 0ZM12 1.3093C6.09557 1.3093 1.3093 6.09557 1.3093 12C1.3093 17.9044 6.09557 22.6907 12 22.6907C17.9044 22.6907 22.6907 17.9044 22.6907 12C22.6907 6.09557 17.9044 1.3093 12 1.3093Z" fill="#10100F"/>
</svg>
