<svg width="24" height="24" viewBox="0 0 24 24" fill="none" xmlns="http://www.w3.org/2000/svg">
<path fill-rule="evenodd" clip-rule="evenodd" d="M17.3699 2C18.3294 2 19.2074 2.55382 19.6385 3.43164L21.7283 7.58789C22.1729 8.49317 22.0651 9.58063 21.452 10.376L21.1004 10.832C21.069 10.8728 21.0333 10.9096 20.9998 10.9473V17.4004C20.9996 19.9406 18.989 21.9998 16.5086 22H7.49104C5.0107 21.9998 3.00004 19.9406 2.99983 17.4004V10.9434C2.96756 10.9069 2.93348 10.8714 2.90315 10.832L2.54866 10.3721C1.93742 9.57916 1.8274 8.49644 2.26643 7.5918L4.32893 3.44238C4.75799 2.55879 5.63876 2 6.60237 2H17.3699ZM17.8065 10.832C17.4478 10.367 16.7654 10.3488 16.3836 10.7939L16.2625 10.9346C15.3663 11.981 13.776 11.981 12.8797 10.9346L12.8455 10.8955C12.3981 10.3735 11.6044 10.3733 11.1571 10.8955L11.1239 10.9346C10.2276 11.981 8.63633 11.981 7.74006 10.9346L7.61995 10.7939C7.23814 10.3485 6.55478 10.3668 6.19612 10.832C5.6893 11.4894 4.90184 11.7472 4.1717 11.6113V17.4004C4.17191 19.2778 5.65783 20.7996 7.49104 20.7998H9.03401V17C9.03401 15.3432 10.3459 14.0001 11.9637 14C13.5815 14 14.8934 15.3431 14.8934 17V20.7998H16.5086C18.3418 20.7996 19.8277 19.2778 19.828 17.4004V11.6123C19.0988 11.7467 18.3125 11.4884 17.8065 10.832ZM11.9637 15.2002C10.9931 15.2003 10.2059 16.0059 10.2059 17V20.7998H13.7215V17C13.7215 16.0059 12.9344 15.2002 11.9637 15.2002ZM6.60237 3.2002C6.0835 3.2002 5.60879 3.50078 5.37776 3.97656L3.31526 8.12598C3.07812 8.61486 3.1373 9.20044 3.4676 9.62891L3.82307 10.0889C4.19404 10.5696 4.90639 10.5698 5.27717 10.0889C6.08964 9.03492 7.63614 8.99351 8.50081 10.0029L8.62092 10.1436C9.05047 10.645 9.81345 10.645 10.243 10.1436L10.2762 10.1045C11.1903 9.03731 12.8123 9.03738 13.7264 10.1045L13.7606 10.1436C14.1901 10.645 14.9521 10.645 15.3817 10.1436L15.5028 10.0029C16.3675 8.99375 17.914 9.035 18.7264 10.0889C19.0973 10.5697 19.8096 10.5697 20.1805 10.0889L20.5321 9.63184C20.8631 9.20246 20.9215 8.61568 20.6815 8.12695L18.5916 3.9707C18.3595 3.49806 17.8866 3.2002 17.3699 3.2002H6.60237Z" fill="#10100F"/>
</svg>
