<svg width="24" height="24" viewBox="0 0 24 24" fill="none" xmlns="http://www.w3.org/2000/svg">
<path fill-rule="evenodd" clip-rule="evenodd" d="M20 14C21.1046 14 22 14.8954 22 16V20C22 21.1046 21.1046 22 20 22H4L3.7959 21.9893C2.78722 21.887 2 21.0357 2 20V16C2 14.8954 2.89543 14 4 14H20ZM5.59961 17.4004C5.26842 17.4006 5 17.6688 5 18C5.00005 18.3312 5.26845 18.5994 5.59961 18.5996C5.93095 18.5996 6.20014 18.3313 6.2002 18C6.2002 17.6686 5.93098 17.4004 5.59961 17.4004ZM8.5 17.4004C8.16881 17.4006 7.90039 17.6688 7.90039 18C7.90044 18.3312 8.16884 18.5994 8.5 18.5996H18.5C18.8313 18.5996 19.1005 18.3313 19.1006 18C19.1006 17.6686 18.8314 17.4004 18.5 17.4004H8.5Z" fill="#10100F"/>
<path d="M18 2C20.2091 2 22 3.79086 22 6V13.5439C21.9997 13.6302 21.8965 13.6768 21.8281 13.624C21.3221 13.2334 20.6887 13 20 13H4C3.31125 13 2.67795 13.2334 2.17188 13.624C2.10349 13.6768 2.00025 13.6302 2 13.5439V6C2 3.79086 3.79086 2 6 2H18Z" fill="#10100F"/>
</svg>
