<svg width="24" height="24" viewBox="0 0 24 24" fill="none" xmlns="http://www.w3.org/2000/svg">
<path d="M5.59961 17.4004C5.93098 17.4004 6.2002 17.6686 6.2002 18C6.20014 18.3313 5.93095 18.5996 5.59961 18.5996C5.26845 18.5994 5.00005 18.3312 5 18C5 17.6688 5.26842 17.4006 5.59961 17.4004Z" fill="#10100F"/>
<path d="M18.5 17.4004C18.8314 17.4004 19.1006 17.6686 19.1006 18C19.1005 18.3313 18.8313 18.5996 18.5 18.5996H8.5C8.16884 18.5994 7.90044 18.3312 7.90039 18C7.90039 17.6688 8.16881 17.4006 8.5 17.4004H18.5Z" fill="#10100F"/>
<path fill-rule="evenodd" clip-rule="evenodd" d="M18 2C20.2091 2 22 3.79086 22 6V19C22 20.6569 20.6569 22 19 22H5C3.34315 22 2 20.6569 2 19V6C2 3.79086 3.79086 2 6 2H18ZM5 15.2002C4.00589 15.2002 3.2002 16.0059 3.2002 17V19C3.2002 19.9941 4.00589 20.7998 5 20.7998H19C19.9941 20.7998 20.7998 19.9941 20.7998 19V17C20.7998 16.0059 19.9941 15.2002 19 15.2002H5ZM6 3.2002C4.4536 3.2002 3.2002 4.4536 3.2002 6V14.6035C3.70188 14.2261 4.32389 14 5 14H19C19.6761 14 20.2981 14.2261 20.7998 14.6035V6C20.7998 4.4536 19.5464 3.2002 18 3.2002H6Z" fill="#10100F"/>
</svg>
