<svg width="24" height="24" viewBox="0 0 24 24" fill="none" xmlns="http://www.w3.org/2000/svg">
<path fill-rule="evenodd" clip-rule="evenodd" d="M4.29109 3.54273C4.73041 2.65887 5.63233 2.09998 6.61935 2.09998L17.425 2.09998C18.4076 2.09998 19.3062 2.65391 19.7477 3.53173L21.8884 7.68786C21.9415 7.79341 21.9869 7.90144 22.0247 8.01119C22.1127 8.638 21.9031 9.27533 21.4497 9.72869L20.8914 10.287C20.3769 10.8015 19.537 10.7823 19.0466 10.2447L18.9649 10.1552C18.0106 9.10911 16.4821 9.13918 15.5543 10.1969C15.093 10.7227 14.2734 10.7232 13.8183 10.2043C12.8821 9.13709 11.3185 9.13709 10.3823 10.2043C9.92416 10.7266 9.11104 10.7266 8.65287 10.2043L8.58473 10.1266C7.6785 9.09354 6.09842 9.01187 5.09051 9.94603L4.88026 10.1409C4.24155 10.7329 3.23704 10.6682 2.67954 9.99918L2.42287 9.69117C2.04838 9.24179 1.90249 8.64601 2.02466 8.07636C2.06549 7.94554 2.11696 7.8169 2.17921 7.69167L4.29109 3.54273ZM3.02468 11.6553V18.1C3.02468 20.3091 4.81554 22.1 7.02468 22.1H9.02468L9.02468 17.1C9.02468 15.4431 10.3678 14.1 12.0247 14.1C13.6815 14.1 15.0247 15.4431 15.0247 17.1L15.0247 22.1H17.0247C19.2338 22.1 21.0247 20.3091 21.0247 18.1V11.6771C20.0935 12.0576 18.9802 11.8454 18.2578 11.0535L18.1762 10.964C17.7101 10.4531 16.8916 10.4616 16.4296 10.9882C15.4965 12.052 13.8286 12.0663 12.8894 10.9956C12.4312 10.4733 11.6181 10.4733 11.1599 10.9956C10.2238 12.0629 8.56242 12.0629 7.62626 10.9956L7.55813 10.918C7.09742 10.3928 6.29413 10.3512 5.78173 10.8261L5.57148 11.021C4.85939 11.681 3.89321 11.8849 3.02468 11.6553ZM13.8247 17.1V22.1H10.2247L10.2247 17.1C10.2247 16.1059 11.0306 15.3 12.0247 15.3C13.0188 15.3 13.8247 16.1059 13.8247 17.1Z" fill="#10100F"/>
</svg>
