<svg width="24" height="24" viewBox="0 0 24 24" fill="none" xmlns="http://www.w3.org/2000/svg">
<path fill-rule="evenodd" clip-rule="evenodd" d="M12 2C16.4652 2 20.0862 5.6131 20.0996 10.0752C21.1904 10.344 22 11.3262 22 12.5V14.5C22 15.7098 21.1405 16.7179 19.999 16.9492C19.5614 19.034 17.7149 20.5996 15.5 20.5996H14.9082C14.6534 21.4112 13.8956 22 13 22H11C9.89543 22 9 21.1046 9 20C9 18.8954 9.89543 18 11 18H13C13.8956 18 14.6534 18.5888 14.9082 19.4004H15.5C17.0296 19.4004 18.3229 18.3896 18.75 17H18C17.4477 17 17 16.5523 17 16V11C17 10.4477 17.4477 10 18 10H18.8975C18.844 6.23535 15.7774 3.2002 12 3.2002C8.22282 3.2004 5.15701 6.23548 5.10352 10H6C6.55228 10 7 10.4477 7 11V16C7 16.5523 6.55228 17 6 17H4.5C3.11929 17 2 15.8807 2 14.5V12.5C2 11.3262 2.8096 10.344 3.90039 10.0752C3.91377 5.61323 7.53495 2.00021 12 2ZM11 19.2002C10.5582 19.2002 10.2002 19.5582 10.2002 20C10.2002 20.4418 10.5582 20.7998 11 20.7998H13C13.4418 20.7998 13.7998 20.4418 13.7998 20C13.7998 19.5582 13.4418 19.2002 13 19.2002H11ZM4.5 11.2002C3.78203 11.2002 3.2002 11.782 3.2002 12.5V14.5C3.2002 15.218 3.78203 15.7998 4.5 15.7998H5.7998V11.2002H4.5ZM18.2002 15.7998H19.5C20.218 15.7998 20.7998 15.218 20.7998 14.5V12.5C20.7998 11.782 20.218 11.2002 19.5 11.2002H18.2002V15.7998Z" fill="#10100F"/>
</svg>
