<svg width="24" height="24" viewBox="0 0 24 24" fill="none" xmlns="http://www.w3.org/2000/svg">
<path d="M11.998 2C16.463 2 20.0838 5.61257 20.0977 10.0742C21.1895 10.3423 21.9999 11.3255 22 12.5V14.5C22 15.7094 21.141 16.7175 20 16.9492C19.5625 19.034 17.7148 20.5994 15.5 20.5996H14.9082C14.6535 21.4112 13.8957 22 13 22H11L10.7959 21.9893C9.78723 21.887 9 21.0356 9 20C9.00006 18.8955 9.89547 18 11 18H13C13.8956 18 14.6534 18.5889 14.9082 19.4004H15.5C17.0296 19.4002 18.323 18.3896 18.75 17H18L17.8975 16.9951C17.3933 16.9438 17 16.5177 17 16V11C17.0001 10.4478 17.4478 10 18 10H18.8955C18.842 6.23535 15.7754 3.2002 11.998 3.2002C8.22086 3.2004 5.15506 6.23548 5.10156 10H6C6.55225 10 6.99994 10.4478 7 11V16C7 16.5523 6.55228 17 6 17H4.5C3.11929 17 2 15.8807 2 14.5V12.5C2.00005 11.3269 2.8086 10.3447 3.89844 10.0752C3.91181 5.61323 7.53299 2.00021 11.998 2Z" fill="#10100F"/>
</svg>
