<svg width="24" height="24" viewBox="0 0 24 24" fill="none" xmlns="http://www.w3.org/2000/svg">
<path d="M5.96984 11.4697C6.26273 11.1768 6.7375 11.1768 7.03039 11.4697C7.32328 11.7626 7.32328 12.2373 7.03039 12.5302L4.31066 15.2499H21.5001C21.9143 15.2499 22.2501 15.5857 22.2501 15.9999C22.2501 16.4141 21.9143 16.7499 21.5001 16.7499H4.31066L7.03039 19.4697C7.32328 19.7626 7.32328 20.2373 7.03039 20.5302C6.7375 20.8231 6.26274 20.8231 5.96984 20.5302L1.96984 16.5302C1.69525 16.2556 1.67777 15.8209 1.91808 15.5263L1.96984 15.4697L5.96984 11.4697Z" fill="#10100F"/>
<path d="M16.9698 3.46966C17.2627 3.17678 17.7375 3.17678 18.0304 3.46966L22.0304 7.46966L22.0821 7.5263C22.3225 7.82088 22.305 8.2556 22.0304 8.53021L18.0304 12.5302C17.7375 12.8231 17.2627 12.8231 16.9698 12.5302C16.677 12.2373 16.677 11.7626 16.9698 11.4697L19.6896 8.74994H2.50012C2.0859 8.74993 1.75012 8.41415 1.75012 7.99994C1.75012 7.58573 2.08591 7.24994 2.50012 7.24994H19.6896L16.9698 4.53021C16.677 4.23732 16.677 3.76255 16.9698 3.46966Z" fill="#10100F"/>
</svg>
