<svg width="24" height="24" viewBox="0 0 24 24" fill="none" xmlns="http://www.w3.org/2000/svg">
<path d="M7.11819 2.01865C7.21776 2.00028 7.31656 1.99566 7.41409 2.004C7.99904 2.05408 8.53736 2.55252 8.90628 3.11143C9.53692 4.06683 10.5679 4.94833 12 4.94834V22.0001H8.60257C8.55082 22.0001 8.49937 21.9988 8.44827 21.9962C6.86311 21.9159 5.60257 20.6052 5.60257 19.0001V11.8087C5.60257 11.2564 5.14597 10.8178 4.61721 10.6583C3.6141 10.3556 2.75488 9.6565 2.22561 9.09482C1.99148 8.84636 1.94152 8.48325 2.07034 8.16709C3.31933 5.10161 5.12018 2.94052 6.81839 2.11826C6.91873 2.06969 7.01876 2.037 7.11819 2.01865Z" fill="#10100F"/>
<path d="M16.8818 2.01865C16.9813 2.037 17.0813 2.06969 17.1816 2.11826C18.8798 2.94052 20.6807 5.10162 21.9297 8.16709C22.0585 8.48325 22.0085 8.84636 21.7744 9.09482C21.2451 9.6565 20.3859 10.3556 19.3828 10.6583C18.854 10.8178 18.3974 11.2564 18.3974 11.8087V19.0001C18.3974 20.657 17.0543 22.0001 15.3974 22.0001H12V4.94834C13.4321 4.94834 14.4631 4.06683 15.0937 3.11143C15.4626 2.55253 16.001 2.05408 16.5859 2.004C16.6834 1.99565 16.7822 2.00028 16.8818 2.01865Z" fill="#10100F"/>
</svg>
