<svg width="24" height="24" viewBox="0 0 24 24" fill="none" xmlns="http://www.w3.org/2000/svg">
<path fill-rule="evenodd" clip-rule="evenodd" d="M15.5068 2.26101C15.9961 1.98648 16.6091 1.87559 17.2275 2.19265C18.9758 3.08934 20.7029 5.25589 21.8857 8.16433C22.094 8.67664 22.0262 9.30182 21.6093 9.74246C21.0816 10.3001 20.2225 11.0077 19.1855 11.3411C18.804 11.4637 18.6191 11.7342 18.6191 11.9319V18.3753C18.6191 20.3772 17.007 22.0003 15.0185 22.0003H8.9814C6.99294 22.0003 5.38081 20.3771 5.38081 18.3753V11.9319C5.38081 11.7342 5.19594 11.4637 4.81441 11.3411C3.77738 11.0078 2.91831 10.3001 2.39058 9.74246C1.97361 9.30184 1.90597 8.67666 2.11421 8.16433C3.29697 5.25593 5.02407 3.08932 6.77241 2.19265C7.39069 1.87567 8.00287 1.98659 8.49214 2.26101C8.96262 2.52496 9.35119 2.95107 9.63374 3.3655C10.1655 4.14538 10.9573 4.76882 12 4.76882L12.1923 4.76199C13.1405 4.69071 13.8676 4.09671 14.3662 3.3655C14.6486 2.9512 15.0365 2.52499 15.5068 2.26101ZM7.90816 3.3157C7.67607 3.18557 7.49453 3.17895 7.31734 3.2698C5.92814 3.98227 4.35206 5.84895 3.22456 8.62136C3.17426 8.74505 3.20583 8.85251 3.25972 8.90945C3.71098 9.38625 4.40534 9.94086 5.17964 10.1897C5.85053 10.4053 6.58101 11.0175 6.58101 11.9319V18.3753C6.58101 19.7098 7.65566 20.7923 8.9814 20.7923H15.0185C16.3442 20.7923 17.4189 19.7098 17.4189 18.3753V11.9319C17.4189 11.0175 18.1494 10.4063 18.8203 10.1907C19.5947 9.94184 20.2889 9.38631 20.7402 8.90945C20.794 8.85259 20.8253 8.74581 20.7753 8.62234C19.6478 5.84975 18.0718 3.98231 16.6826 3.2698C16.5054 3.17894 16.3238 3.18559 16.0918 3.3157C15.8407 3.45656 15.5792 3.72245 15.3564 4.0491C14.7351 4.96047 13.7154 5.85766 12.29 5.96609L12 5.97683C10.4219 5.97683 9.30622 5.02112 8.64351 4.0491C8.42074 3.72244 8.15924 3.45657 7.90816 3.3157Z" fill="#10100F"/>
</svg>
