<svg width="24" height="24" viewBox="0 0 24 24" fill="none" xmlns="http://www.w3.org/2000/svg">
<path d="M19.493 2C20.9374 2.00023 22.0164 3.18136 21.9999 4.62695V12.2441C21.9961 12.575 21.7249 12.8406 21.3944 12.8369C21.0638 12.8331 20.7988 12.5614 20.8026 12.2305V4.61328C20.8115 3.83495 20.2706 3.19847 19.493 3.19824H12.4676C12.0993 3.19825 11.7459 3.34405 11.4842 3.60352L3.90612 11.124C2.95902 12.064 2.96175 13.5974 3.91198 14.5342L6.95886 17.5381L9.90026 20.5225C10.2637 20.8912 10.857 20.8949 11.2245 20.5303C11.4593 20.2973 11.8384 20.2991 12.0712 20.5342C12.3038 20.7692 12.3019 21.1479 12.0673 21.3809C11.2293 22.2124 9.87641 22.205 9.04773 21.3643L6.10925 18.3828L3.07116 15.3887C1.64582 13.9835 1.64269 11.6833 3.06335 10.2734L10.6405 2.75293C11.1264 2.2707 11.7834 2.00001 12.4676 2H19.493Z" fill="#10100F"/>
<path d="M17.5096 15.3623C17.8403 15.3624 18.1083 15.631 18.1083 15.9619V16.8604H19.0057C19.3363 16.8604 19.6044 17.129 19.6044 17.46C19.6044 17.7909 19.3363 18.0595 19.0057 18.0596H18.1083V18.958C18.1083 19.2889 17.8403 19.5576 17.5096 19.5576C17.179 19.5576 16.911 19.289 16.911 18.958V18.0596H16.0116C15.6811 18.0594 15.413 17.7908 15.413 17.46C15.413 17.1291 15.6811 16.8605 16.0116 16.8604H16.911V15.9619C16.911 15.6309 17.179 15.3623 17.5096 15.3623Z" fill="#10100F"/>
<path fill-rule="evenodd" clip-rule="evenodd" d="M17.5096 12.9658C19.9894 12.9661 21.9998 14.9779 21.9999 17.46C21.9999 19.942 19.9895 21.9538 17.5096 21.9541C15.0296 21.9541 13.0184 19.9422 13.0184 17.46C13.0185 14.9778 15.0296 12.9658 17.5096 12.9658ZM17.5096 14.1641C15.691 14.1641 14.2158 15.6397 14.2157 17.46C14.2157 19.2803 15.6909 20.7559 17.5096 20.7559C19.3281 20.7556 20.8026 19.2801 20.8026 17.46C20.8025 15.6399 19.3281 14.1643 17.5096 14.1641Z" fill="#10100F"/>
<path fill-rule="evenodd" clip-rule="evenodd" d="M16.0126 5.97461C17.1147 5.97475 18.0077 6.86855 18.0077 7.97168C18.0077 9.07481 17.1147 9.96959 16.0126 9.96973C14.9103 9.96973 14.0165 9.0749 14.0165 7.97168C14.0165 6.86847 14.9103 5.97461 16.0126 5.97461ZM16.0126 7.17285C15.5717 7.17285 15.2137 7.5304 15.2137 7.97168C15.2137 8.41297 15.5717 8.77051 16.0126 8.77051C16.4533 8.77037 16.8104 8.41288 16.8104 7.97168C16.8104 7.53048 16.4533 7.17299 16.0126 7.17285Z" fill="#10100F"/>
</svg>
