<svg width="24" height="24" viewBox="0 0 24 24" fill="none" xmlns="http://www.w3.org/2000/svg">
<path d="M15.9423 7.16926C16.381 7.16926 16.7372 7.52684 16.7372 7.96809C16.7372 8.40934 16.381 8.76692 15.9423 8.76692C15.5037 8.76678 15.1483 8.40925 15.1483 7.96809C15.1483 7.52692 15.5037 7.1694 15.9423 7.16926Z" fill="#10100F"/>
<path fill-rule="evenodd" clip-rule="evenodd" d="M19.4179 1.99739C20.8435 1.99745 21.9998 3.1601 21.9999 4.59406V11.6302C21.9998 12.3226 21.725 12.9864 21.2362 13.4739L13.7274 20.9603C12.3373 22.3464 10.0977 22.3504 8.70301 20.9691L3.06629 15.3841C1.64814 13.9791 1.64394 11.6796 3.0575 10.2698L10.5975 2.75031C11.081 2.26816 11.735 1.99739 12.4159 1.99739H19.4179ZM15.9423 5.97102C14.8456 5.97116 13.9569 6.86505 13.9569 7.96809C13.9569 9.07113 14.8456 9.96502 15.9423 9.96516C17.039 9.96516 17.9286 9.07121 17.9286 7.96809C17.9286 6.86496 17.039 5.97102 15.9423 5.97102Z" fill="#10100F"/>
</svg>
