<svg width="24" height="24" viewBox="0 0 24 24" fill="none" xmlns="http://www.w3.org/2000/svg">
<path d="M13.6914 7.60059C13.9674 7.60059 14.1911 7.82369 14.1914 8.09961C14.1914 8.37575 13.9675 8.60059 13.6914 8.60059C13.4153 8.60059 13.1914 8.37575 13.1914 8.09961C13.1917 7.82369 13.4154 7.60059 13.6914 7.60059Z" fill="#10100F"/>
<path fill-rule="evenodd" clip-rule="evenodd" d="M15.1914 5C16.0749 5.00009 16.7908 5.71619 16.791 6.59961V9.46777C16.7909 9.75546 16.6779 10.0318 16.4766 10.2373L12.4893 14.3066C11.8716 14.937 10.86 14.9485 10.2285 14.332L8.73633 12.875L7.42383 11.4512C6.82766 10.8044 6.86488 9.7976 7.50781 9.19727L11.6865 5.2959C11.8902 5.10575 12.1588 5 12.4375 5H15.1914ZM8.32715 10.0742C8.16653 10.2242 8.15695 10.476 8.30566 10.6377L9.59766 12.0391L11.0664 13.4736C11.2243 13.6277 11.4774 13.6244 11.6318 13.4668L15.5908 9.42676V6.59961C15.5906 6.37893 15.4121 6.20028 15.1914 6.2002H12.4766L8.32715 10.0742Z" fill="#10100F"/>
<path fill-rule="evenodd" clip-rule="evenodd" d="M19 1C21.2091 1 23 2.79086 23 5V15C23 17.2091 21.2091 19 19 19H14.2305L14.7695 21.7998H15.5C15.8314 21.7998 16.1006 22.069 16.1006 22.4004C16.1004 22.7316 15.8312 23 15.5 23H8.5C8.16894 22.9998 7.9006 22.7315 7.90039 22.4004C7.90039 22.0691 8.16881 21.8 8.5 21.7998H9.23047L9.76953 19H5C2.79086 19 1 17.2091 1 15V5C1 2.79086 2.79086 1 5 1H19ZM10.4639 21.7998H13.5361L13.0166 19H10.9834L10.4639 21.7998ZM5 2.2002C3.4536 2.2002 2.2002 3.4536 2.2002 5V15C2.2002 16.5464 3.4536 17.7998 5 17.7998H19C20.5464 17.7998 21.7998 16.5464 21.7998 15V5C21.7998 3.4536 20.5464 2.2002 19 2.2002H5Z" fill="#10100F"/>
</svg>
