<svg width="24" height="24" viewBox="0 0 24 24" fill="none" xmlns="http://www.w3.org/2000/svg">
<path fill-rule="evenodd" clip-rule="evenodd" d="M12 16C13.1046 16 14 16.8954 14 18C14 19.1046 13.1046 20 12 20C10.8954 20 10 19.1046 10 18C10 16.8954 10.8954 16 12 16ZM12 17.2002C11.5582 17.2002 11.2002 17.5582 11.2002 18C11.2002 18.4418 11.5582 18.7998 12 18.7998C12.4418 18.7998 12.7998 18.4418 12.7998 18C12.7998 17.5582 12.4418 17.2002 12 17.2002Z" fill="#10100F"/>
<path d="M13.6914 7.60059C13.9674 7.60059 14.1911 7.82369 14.1914 8.09961C14.1914 8.37575 13.9675 8.60059 13.6914 8.60059C13.4153 8.60059 13.1914 8.37575 13.1914 8.09961C13.1917 7.82369 13.4154 7.60059 13.6914 7.60059Z" fill="#10100F"/>
<path fill-rule="evenodd" clip-rule="evenodd" d="M15.1914 5C16.0749 5.00009 16.7908 5.71619 16.791 6.59961V9.46777C16.7909 9.75546 16.6779 10.0318 16.4766 10.2373L12.4893 14.3066C11.8716 14.937 10.86 14.9485 10.2285 14.332L8.73633 12.875L7.42383 11.4512C6.82766 10.8044 6.86488 9.7976 7.50781 9.19727L11.6865 5.2959C11.8902 5.10575 12.1588 5 12.4375 5H15.1914ZM8.32715 10.0742C8.16653 10.2242 8.15695 10.476 8.30566 10.6377L9.59766 12.0391L11.0664 13.4736C11.2243 13.6277 11.4774 13.6244 11.6318 13.4668L15.5908 9.42676V6.59961C15.5906 6.37893 15.4121 6.20028 15.1914 6.2002H12.4766L8.32715 10.0742Z" fill="#10100F"/>
<path fill-rule="evenodd" clip-rule="evenodd" d="M17 1C19.2091 1 21 2.79086 21 5V19C21 21.2091 19.2091 23 17 23H7C4.79086 23 3 21.2091 3 19V5C3 2.79086 4.79086 1 7 1H17ZM7 2.2002C5.4536 2.2002 4.2002 3.4536 4.2002 5V19C4.2002 20.5464 5.4536 21.7998 7 21.7998H17C18.5464 21.7998 19.7998 20.5464 19.7998 19V5C19.7998 3.4536 18.5464 2.2002 17 2.2002H7Z" fill="#10100F"/>
</svg>
