<svg width="24" height="24" viewBox="0 0 24 24" fill="none" xmlns="http://www.w3.org/2000/svg">
<path d="M15.874 7.1709C16.3106 7.1709 16.665 7.52859 16.665 7.96973C16.665 8.41082 16.3106 8.76855 15.874 8.76855C15.4377 8.7683 15.084 8.41066 15.084 7.96973C15.084 7.52875 15.4377 7.17115 15.874 7.1709Z" fill="#10100F"/>
<path fill-rule="evenodd" clip-rule="evenodd" d="M19.4307 2C20.8621 2 22.018 3.18257 22 4.62891V11.6523C21.9915 12.3332 21.6309 12.9834 21.1523 13.4629L21.1201 13.4941C20.1436 12.5466 18.8181 11.963 17.3574 11.9629C14.3563 11.9629 11.9232 14.4216 11.9229 17.4541C11.9229 18.9063 12.4816 20.226 13.3926 21.208C12.0029 22.3378 9.96827 22.2589 8.66993 20.9668L3.06055 15.3838C1.64943 13.9791 1.64616 11.6799 3.05274 10.2705L10.5557 2.75293C11.0367 2.27099 11.6869 2.00015 12.3643 2H19.4307ZM15.874 5.97266C14.7829 5.97291 13.8984 6.86705 13.8984 7.96973C13.8985 9.07236 14.7829 9.96654 15.874 9.9668C16.9654 9.9668 17.8505 9.07252 17.8506 7.96973C17.8506 6.86689 16.9654 5.97266 15.874 5.97266Z" fill="#10100F"/>
<path d="M17.3565 15.458C17.6293 15.458 17.8506 15.6813 17.8506 15.957V16.9551H18.8389C19.1116 16.9552 19.333 17.1794 19.333 17.4551C19.3328 17.7306 19.1115 17.954 18.8389 17.9541H17.8506V18.9521C17.8506 19.2279 17.6293 19.4512 17.3565 19.4512C17.0837 19.4511 16.8623 19.2278 16.8623 18.9521V17.9541H15.874C15.6015 17.9539 15.3811 17.7305 15.3809 17.4551C15.3809 17.1795 15.6014 16.9553 15.874 16.9551H16.8623V15.957C16.8623 15.6814 17.0837 15.4581 17.3565 15.458Z" fill="#10100F"/>
<path fill-rule="evenodd" clip-rule="evenodd" d="M17.3565 12.9619C19.8121 12.9619 21.8027 14.9737 21.8027 17.4551C21.8026 19.9363 19.812 21.9473 17.3565 21.9473C14.901 21.9472 12.9103 19.9363 12.9102 17.4551C12.9102 14.9737 14.9009 12.962 17.3565 12.9619ZM17.3565 14.1602C15.5557 14.1602 14.0957 15.6354 14.0957 17.4551C14.0959 19.2746 15.5558 20.7499 17.3565 20.75C19.1571 20.75 20.617 19.2746 20.6172 17.4551C20.6172 15.6354 19.1572 14.1602 17.3565 14.1602Z" fill="#10100F"/>
</svg>
