<svg width="24" height="24" viewBox="0 0 24 24" fill="none" xmlns="http://www.w3.org/2000/svg">
<path fill-rule="evenodd" clip-rule="evenodd" d="M15.1914 6.2002C15.4121 6.20028 15.5906 6.37893 15.5908 6.59961V9.42676L11.6318 13.4668C11.4774 13.6244 11.2243 13.6277 11.0664 13.4736L9.59766 12.0391L8.30566 10.6377C8.15695 10.476 8.16653 10.2242 8.32715 10.0742L12.4766 6.2002H15.1914ZM13.6914 7.60059C13.4154 7.60059 13.1917 7.82369 13.1914 8.09961C13.1914 8.37575 13.4153 8.60059 13.6914 8.60059C13.9675 8.60059 14.1914 8.37575 14.1914 8.09961C14.1911 7.82369 13.9674 7.60059 13.6914 7.60059Z" fill="#10100F"/>
<path fill-rule="evenodd" clip-rule="evenodd" d="M19.2061 1.00488C21.3194 1.11211 23 2.85996 23 5V15C23 17.2091 21.2091 19 19 19H14.2305L14.7695 21.7998H15.5C15.8314 21.7998 16.1006 22.069 16.1006 22.4004C16.1004 22.7316 15.8312 23 15.5 23H8.5C8.16894 22.9998 7.9006 22.7315 7.90039 22.4004C7.90039 22.0691 8.16881 21.8 8.5 21.7998H9.23047L9.76953 19H5L4.79395 18.9951C2.68056 18.8879 1 17.14 1 15V5C1 2.79086 2.79086 1 5 1H19C19.0691 1 19.1378 1.00142 19.2061 1.00488ZM10.4639 21.7998H13.5361L13.0166 19H10.9834L10.4639 21.7998ZM12.4375 5C12.1588 5 11.8902 5.10575 11.6865 5.2959L7.50781 9.19727C6.86488 9.7976 6.82766 10.8044 7.42383 11.4512L8.73633 12.875L10.2285 14.332C10.86 14.9485 11.8716 14.937 12.4893 14.3066L16.4766 10.2373C16.6779 10.0318 16.7909 9.75546 16.791 9.46777V6.59961C16.7908 5.71619 16.0749 5.00009 15.1914 5H12.4375Z" fill="#10100F"/>
</svg>
