<svg width="24" height="24" viewBox="0 0 24 24" fill="none" xmlns="http://www.w3.org/2000/svg">
<path fill-rule="evenodd" clip-rule="evenodd" d="M16.0418 5.97852C17.1463 5.97852 18.0417 6.87406 18.0418 7.97852C18.0418 9.08309 17.1464 9.97852 16.0418 9.97852C14.9374 9.97842 14.0418 9.08302 14.0418 7.97852C14.042 6.87412 14.9374 5.97861 16.0418 5.97852ZM16.0418 7.17871C15.6002 7.17881 15.2422 7.53686 15.242 7.97852C15.242 8.42028 15.6001 8.77822 16.0418 8.77832C16.4837 8.77832 16.8416 8.42034 16.8416 7.97852C16.8415 7.5368 16.4836 7.17871 16.0418 7.17871Z" fill="#10100F"/>
<path fill-rule="evenodd" clip-rule="evenodd" d="M19.4051 2C20.8379 2.00008 21.9997 3.16216 21.9998 4.5957V11.6299C21.9999 12.3222 21.7236 12.9862 21.2323 13.4736L13.786 20.958C12.3889 22.3437 10.1378 22.3479 8.73617 20.9668L3.07113 15.3838C1.64584 13.9791 1.64268 11.6799 3.06332 10.2705L10.6405 2.75293C11.1264 2.27086 11.7833 2 12.4676 2H19.4051ZM12.4676 3.19824C12.0992 3.19824 11.7459 3.34398 11.4842 3.60352L3.90609 11.1211C2.95899 12.0607 2.96173 13.5938 3.91195 14.5303L9.57699 20.1133C10.5114 21.0337 12.0119 21.0311 12.9432 20.1074L20.3885 12.623C20.6532 12.3605 20.8026 12.0027 20.8026 11.6299L20.8016 4.5957C20.8015 3.82386 20.1765 3.19833 19.4051 3.19824H12.4676Z" fill="#10100F"/>
</svg>
