<svg width="24" height="24" viewBox="0 0 24 24" fill="none" xmlns="http://www.w3.org/2000/svg">
<path d="M12 17.2002C12.4418 17.2002 12.7998 17.5582 12.7998 18C12.7998 18.4418 12.4418 18.7998 12 18.7998C11.5582 18.7998 11.2002 18.4418 11.2002 18C11.2002 17.5582 11.5582 17.2002 12 17.2002Z" fill="#10100F"/>
<path fill-rule="evenodd" clip-rule="evenodd" d="M15.1914 6.2002C15.4121 6.20028 15.5906 6.37893 15.5908 6.59961V9.42676L11.6318 13.4668C11.4774 13.6244 11.2243 13.6277 11.0664 13.4736L9.59766 12.0391L8.30566 10.6377C8.15695 10.476 8.16653 10.2242 8.32715 10.0742L12.4766 6.2002H15.1914ZM13.6914 7.60059C13.4154 7.60059 13.1917 7.82369 13.1914 8.09961C13.1914 8.37575 13.4153 8.60059 13.6914 8.60059C13.9675 8.60059 14.1914 8.37575 14.1914 8.09961C14.1911 7.82369 13.9674 7.60059 13.6914 7.60059Z" fill="#10100F"/>
<path fill-rule="evenodd" clip-rule="evenodd" d="M17 1C19.2091 1 21 2.79086 21 5V19C21 21.2091 19.2091 23 17 23H7L6.79395 22.9951C4.68056 22.8879 3 21.14 3 19V5C3 2.79086 4.79086 1 7 1H17ZM12 16C10.8954 16 10 16.8954 10 18C10 19.1046 10.8954 20 12 20C13.1046 20 14 19.1046 14 18C14 16.8954 13.1046 16 12 16ZM12.4375 5C12.1588 5 11.8902 5.10575 11.6865 5.2959L7.50781 9.19727C6.86488 9.7976 6.82766 10.8044 7.42383 11.4512L8.73633 12.875L10.2285 14.332C10.86 14.9485 11.8716 14.937 12.4893 14.3066L16.4766 10.2373C16.6779 10.0318 16.7909 9.75546 16.791 9.46777V6.59961C16.7908 5.71619 16.0749 5.00009 15.1914 5H12.4375Z" fill="#10100F"/>
</svg>
