<svg width="24" height="24" viewBox="0 0 24 24" fill="none" xmlns="http://www.w3.org/2000/svg">
<path d="M19.4419 1.99744C20.8906 1.99744 22.0607 3.18009 22.0425 4.6268L21.9536 11.6527C21.9449 12.3338 21.6684 12.9843 21.1841 13.4638L20.9272 13.7242C20.6837 13.9713 20.2703 13.9167 20.0532 13.6462C19.872 13.4203 19.8674 13.0908 20.0708 12.8845L20.3393 12.6124C20.6002 12.3542 20.7488 12.0039 20.7534 11.6371L20.8423 4.61119C20.8518 3.83239 20.2218 3.19606 19.4419 3.19606H12.2905C11.9215 3.19612 11.5673 3.34138 11.3052 3.6008L3.91063 11.1212C2.96152 12.0611 2.96425 13.5941 3.91648 14.5308L9.59324 20.1143C10.5295 21.0353 12.0329 21.0333 12.9663 20.1094L13.0298 20.045C13.2327 19.8382 13.5629 19.8369 13.7925 20.0138C14.067 20.2258 14.1291 20.6371 13.8862 20.8848L13.812 20.9608C12.4119 22.347 10.155 22.3503 8.75047 20.9686L3.07371 15.3842C1.64563 13.9792 1.64151 11.6795 3.06492 10.2698L10.4604 2.75035C10.9473 2.26827 11.6049 1.9975 12.2905 1.99744H19.4419Z" fill="#10100F"/>
<path d="M16.2192 14.1358C16.4536 13.9022 16.8337 13.902 17.0679 14.1358C17.302 14.3697 17.3018 14.7493 17.0679 14.9833L16.0923 15.9576H21.4438C21.7746 15.958 22.043 16.2262 22.0434 16.5565C22.0434 16.8871 21.7749 17.1559 21.4438 17.1563H16.0932L17.0688 18.1306C17.303 18.3644 17.3027 18.744 17.0688 18.9781C16.8345 19.2121 16.4545 19.2121 16.2202 18.9781L14.2241 16.9846C14.2226 16.9832 14.2207 16.9822 14.2192 16.9807C13.9849 16.7467 13.9849 16.3672 14.2192 16.1332L16.2192 14.1358Z" fill="#10100F"/>
<path fill-rule="evenodd" clip-rule="evenodd" d="M16.0434 5.97074C17.1478 5.97091 18.0433 6.86521 18.0434 7.96812C18.0434 9.07114 17.1479 9.96533 16.0434 9.9655C14.9389 9.9655 14.0434 9.07124 14.0434 7.96812C14.0436 6.86511 14.9389 5.97074 16.0434 5.97074ZM16.0434 7.16936C15.6017 7.16936 15.2428 7.52698 15.2427 7.96812C15.2427 8.40937 15.6016 8.76688 16.0434 8.76688C16.4851 8.76671 16.8432 8.40926 16.8432 7.96812C16.8431 7.52709 16.485 7.16953 16.0434 7.16936Z" fill="#10100F"/>
</svg>
