<svg width="24" height="24" viewBox="0 0 24 24" fill="none" xmlns="http://www.w3.org/2000/svg">
<path d="M16.0434 7.16936C16.4851 7.16953 16.8432 7.52697 16.8432 7.96812C16.8432 8.40926 16.4851 8.7667 16.0434 8.76687C15.6016 8.76687 15.2427 8.40937 15.2427 7.96812C15.2427 7.52687 15.6016 7.16936 16.0434 7.16936Z" fill="#10100F"/>
<path fill-rule="evenodd" clip-rule="evenodd" d="M19.5307 1.99744C20.9795 1.99744 22.1486 3.18009 22.1304 4.6268L22.0425 11.6527C22.0338 12.3338 21.7573 12.9843 21.2729 13.4638L19.9839 14.759H18.4311C18.4893 14.235 18.3168 13.6901 17.9145 13.2883C17.2117 12.5867 16.0725 12.5867 15.3696 13.2883L13.3696 15.2857C12.6667 15.9877 12.6667 17.1262 13.3696 17.8282L15.1889 17.9492L15.3501 18.1101L13.3696 17.8282C13.3825 17.8411 13.3954 17.8538 13.4087 17.8663L15.1548 19.6101L13.812 20.9608C12.4119 22.347 10.1551 22.3503 8.75047 20.9686L3.07371 15.3842C1.64569 13.9791 1.64145 11.6795 3.06492 10.2698L10.6596 2.75035C11.1465 2.26826 11.8041 1.99752 12.4897 1.99744H19.5307ZM16.0434 5.97074C14.9389 5.97074 14.0434 6.865 14.0434 7.96812C14.0434 9.07124 14.9389 9.9655 16.0434 9.9655C17.1479 9.96533 18.0434 9.07113 18.0434 7.96812C18.0434 6.8651 17.1479 5.97091 16.0434 5.97074Z" fill="#10100F"/>
<path d="M16.6421 13.9603C16.796 13.96 16.9504 14.0185 17.0679 14.1358C17.0786 14.1465 17.0864 14.1596 17.0962 14.1709C17.1076 14.1842 17.1193 14.1969 17.1294 14.2109C17.1407 14.2266 17.15 14.2432 17.1596 14.2597C17.166 14.2706 17.1716 14.2816 17.1772 14.2928C17.2091 14.3565 17.229 14.4235 17.2368 14.4928C17.2379 14.5025 17.2391 14.5122 17.2397 14.522C17.2411 14.5442 17.2408 14.5661 17.2397 14.5883C17.2391 14.6011 17.2372 14.6137 17.2358 14.6264C17.2263 14.7107 17.2001 14.7923 17.1548 14.8673C17.1523 14.8714 17.1505 14.8759 17.1479 14.8799C17.1432 14.8874 17.1374 14.8941 17.1323 14.9014C17.1174 14.9227 17.1014 14.9432 17.0835 14.9628C17.0777 14.9691 17.0739 14.9773 17.0679 14.9833L16.0913 15.9576H21.4429C21.7741 15.9576 22.0432 16.2257 22.0434 16.5565C22.0434 16.8874 21.7742 17.1563 21.4429 17.1563H16.0923L17.0688 18.1306C17.303 18.3645 17.303 18.7441 17.0688 18.9781C16.8345 19.2121 16.4545 19.212 16.2202 18.9781L15.3501 18.1101L15.1889 17.9492L14.2407 17.0031C14.2329 16.9961 14.2248 16.9882 14.2173 16.9807C14.2099 16.9733 14.2027 16.9659 14.1958 16.9583C14.1789 16.9396 14.165 16.919 14.1509 16.8988C14.147 16.8932 14.1428 16.8879 14.1391 16.8822C13.9885 16.6499 14.0135 16.3367 14.2173 16.1332L16.2182 14.1358C16.2855 14.0687 16.3654 14.0229 16.4497 13.9944C16.5087 13.9743 16.5696 13.9624 16.6313 13.9612C16.6349 13.9612 16.6385 13.9603 16.6421 13.9603Z" fill="#10100F"/>
</svg>
