<svg width="24" height="24" viewBox="0 0 24 24" fill="none" xmlns="http://www.w3.org/2000/svg">
<path d="M12 2C12.8631 2 13.7021 2.11224 14.5039 2.3252C14.8224 2.40979 15.0123 2.73719 14.9277 3.05566C14.8431 3.37404 14.5157 3.5631 14.1973 3.47852C13.4947 3.29194 12.7587 3.19336 12 3.19336C7.13417 3.19336 3.19336 7.13417 3.19336 12C3.19336 16.8658 7.13417 20.8066 12 20.8066C16.8658 20.8066 20.8066 16.8658 20.8066 12C20.8066 11.2413 20.7081 10.5053 20.5215 9.80273C20.4369 9.48431 20.626 9.15693 20.9443 9.07227C21.2628 8.98767 21.5902 9.17762 21.6748 9.49609C21.8878 10.2979 22 11.1369 22 12C22 17.5249 17.5249 22 12 22C6.47513 22 2 17.5249 2 12C2 6.47513 6.47513 2 12 2Z" fill="#10100F"/>
<path d="M11.9434 5.43359C12.2746 5.43359 12.5437 5.70201 12.5439 6.0332C12.5439 6.36457 12.2747 6.63379 11.9434 6.63379C9.01262 6.63398 6.63398 9.01262 6.63379 11.9434C6.63379 14.8743 9.01251 17.2537 11.9434 17.2539C14.8744 17.2539 17.2539 14.8744 17.2539 11.9434C17.2541 11.6123 17.5224 11.3439 17.8535 11.3438C18.1848 11.3438 18.4539 11.6121 18.4541 11.9434C18.4541 15.5371 15.5371 18.4541 11.9434 18.4541C8.34977 18.4539 5.43359 15.537 5.43359 11.9434C5.43378 8.34988 8.34988 5.43378 11.9434 5.43359Z" fill="#10100F"/>
<path d="M17.2109 2.37305C17.9039 1.68051 19.0879 2.17151 19.0879 3.15137V4.84375H20.7812C21.7612 4.84376 22.2516 6.02872 21.5586 6.72168L18.0947 10.1865C17.8435 10.4377 17.4861 10.5516 17.1357 10.4932L14.7422 10.0947C14.7146 10.0901 14.688 10.0808 14.6611 10.0742L12.3682 12.3682C12.1339 12.6024 11.7538 12.6023 11.5195 12.3682C11.2852 12.1339 11.2852 11.7538 11.5195 11.5195L13.8398 9.19824C13.8394 9.19561 13.8383 9.19307 13.8379 9.19043L13.4385 6.7959C13.3803 6.44568 13.4951 6.08896 13.7461 5.83789L17.2109 2.37305Z" fill="#10100F"/>
</svg>
