<svg width="24" height="24" viewBox="0 0 24 24" fill="none" xmlns="http://www.w3.org/2000/svg">
<path d="M12 2C12.8631 2 13.7021 2.11224 14.5039 2.3252C14.8224 2.40979 15.0123 2.73719 14.9277 3.05566C14.8431 3.37404 14.5157 3.5631 14.1973 3.47852C13.4947 3.29194 12.7587 3.19336 12 3.19336C7.13417 3.19336 3.19336 7.13417 3.19336 12C3.19336 16.8658 7.13417 20.8066 12 20.8066C16.8658 20.8066 20.8066 16.8658 20.8066 12C20.8066 11.2413 20.7081 10.5053 20.5215 9.80273C20.4369 9.48431 20.626 9.15693 20.9443 9.07227C21.2628 8.98767 21.5902 9.17762 21.6748 9.49609C21.8878 10.2979 22 11.1369 22 12C22 17.5249 17.5249 22 12 22C6.47513 22 2 17.5249 2 12C2 6.47513 6.47513 2 12 2Z" fill="#10100F"/>
<path d="M11.9551 5.49023C12.2864 5.49023 12.5557 5.75847 12.5557 6.08984C12.5556 6.42117 12.2864 6.68945 11.9551 6.68945C9.02423 6.68964 6.64551 9.0691 6.64551 12C6.64558 14.9308 9.02427 17.3094 11.9551 17.3096C14.886 17.3096 17.2655 14.9309 17.2656 12C17.2656 11.6687 17.534 11.3996 17.8652 11.3994C18.1966 11.3994 18.4658 11.6686 18.4658 12C18.4657 15.5937 15.5488 18.5098 11.9551 18.5098C8.36153 18.5096 5.44539 15.5936 5.44531 12C5.44531 8.40636 8.36148 5.49042 11.9551 5.49023Z" fill="#10100F"/>
<path fill-rule="evenodd" clip-rule="evenodd" d="M17.2227 2.42969C17.9156 1.73683 19.0995 2.22716 19.0996 3.20703V4.90039H20.793C21.773 4.9004 22.2633 6.08536 21.5703 6.77832L18.1064 10.2422C17.8552 10.4934 17.4979 10.6082 17.1475 10.5498L14.7539 10.1504C14.7263 10.1458 14.6997 10.1365 14.6729 10.1299L12.3799 12.4238C12.1456 12.6581 11.7656 12.6581 11.5312 12.4238C11.2971 12.1895 11.297 11.8095 11.5312 11.5752L13.8516 9.25391C13.8511 9.25137 13.85 9.24863 13.8496 9.24609L13.4502 6.85254C13.3918 6.50214 13.5066 6.14474 13.7578 5.89355L17.2227 2.42969ZM15.71 9.09277L17.2939 9.35742L20.5518 6.09961H19C18.909 6.0996 18.8209 6.08726 18.7363 6.06641L15.71 9.09277ZM14.6426 6.70605L14.8936 8.21191L17.917 5.18848C17.9064 5.12722 17.9004 5.06428 17.9004 5V3.44824L14.6426 6.70605Z" fill="#10100F"/>
</svg>
