<svg width="24" height="24" viewBox="0 0 24 24" fill="none" xmlns="http://www.w3.org/2000/svg">
<path d="M8.07715 13.5752C8.31153 13.3412 8.69161 13.3419 8.92578 13.5762C9.15964 13.8106 9.15902 14.1897 8.9248 14.4238L6.9248 16.4238C6.80774 16.5409 6.64689 16.6047 6.48145 16.5996C6.3162 16.5944 6.1603 16.5213 6.05078 16.3975L5.125 15.3496C4.90563 15.1013 4.92946 14.7223 5.17773 14.5029C5.426 14.2837 5.80502 14.3065 6.02441 14.5547L6.52734 15.124L8.07715 13.5752Z" fill="#10100F"/>
<path d="M18.5 14.4004C18.8314 14.4004 19.0996 14.6686 19.0996 15C19.0996 15.3313 18.8313 15.5996 18.5 15.5996H11.5996C11.2685 15.5994 11.0001 15.3312 11 15C11 14.6688 11.2684 14.4006 11.5996 14.4004H18.5Z" fill="#10100F"/>
<path d="M8.07715 7.5752C8.31153 7.34124 8.69161 7.34193 8.92578 7.57617C9.15964 7.81056 9.15902 8.18969 8.9248 8.42383L6.9248 10.4238C6.80774 10.5409 6.64689 10.6047 6.48145 10.5996C6.3162 10.5944 6.1603 10.5213 6.05078 10.3975L5.125 9.34961C4.90563 9.10131 4.92946 8.72235 5.17773 8.50293C5.426 8.28369 5.80502 8.30654 6.02441 8.55469L6.52734 9.12402L8.07715 7.5752Z" fill="#10100F"/>
<path d="M18.3994 8.40039C18.7307 8.40047 18.999 8.66868 18.999 9C18.999 9.33127 18.7307 9.59953 18.3994 9.59961H11.5996C11.2685 9.5994 11.0001 9.3312 11 9C11 8.66876 11.2684 8.4006 11.5996 8.40039H18.3994Z" fill="#10100F"/>
<path fill-rule="evenodd" clip-rule="evenodd" d="M18 2C20.2091 2 22 3.79086 22 6V18C22 20.2091 20.2091 22 18 22H6C3.79086 22 2 20.2091 2 18V6C2 3.79086 3.79086 2 6 2H18ZM6 3.2002C4.4536 3.2002 3.2002 4.4536 3.2002 6V18C3.2002 19.5464 4.4536 20.7998 6 20.7998H18C19.5464 20.7998 20.7998 19.5464 20.7998 18V6C20.7998 4.4536 19.5464 3.2002 18 3.2002H6Z" fill="#10100F"/>
</svg>
