<svg width="24" height="24" viewBox="0 0 24 24" fill="none" xmlns="http://www.w3.org/2000/svg">
<path fill-rule="evenodd" clip-rule="evenodd" d="M18 2C20.2091 2 22 3.79086 22 6V18C22 20.2091 20.2091 22 18 22H6C3.79086 22 2 20.2091 2 18V6C2 3.79086 3.79086 2 6 2H18ZM8.92578 13.5762C8.69161 13.3419 8.31153 13.3412 8.07715 13.5752L6.52734 15.124L6.02441 14.5547C5.80502 14.3065 5.426 14.2837 5.17773 14.5029C4.92946 14.7223 4.90563 15.1013 5.125 15.3496L6.05078 16.3975C6.1603 16.5213 6.3162 16.5944 6.48145 16.5996C6.64689 16.6047 6.80774 16.5409 6.9248 16.4238L8.9248 14.4238C9.15902 14.1897 9.15964 13.8106 8.92578 13.5762ZM11.5996 14.4004C11.2684 14.4006 11 14.6688 11 15C11.0001 15.3312 11.2685 15.5994 11.5996 15.5996H18.4004C18.7316 15.5994 18.9999 15.3312 19 15C19 14.6688 18.7316 14.4006 18.4004 14.4004H11.5996ZM8.92578 7.57617C8.69161 7.34193 8.31153 7.34124 8.07715 7.5752L6.52734 9.12402L6.02441 8.55469C5.80502 8.30654 5.426 8.28369 5.17773 8.50293C4.92946 8.72235 4.90563 9.10131 5.125 9.34961L6.05078 10.3975C6.1603 10.5213 6.3162 10.5944 6.48145 10.5996C6.64689 10.6047 6.80774 10.5409 6.9248 10.4238L8.9248 8.42383C9.15902 8.18969 9.15964 7.81056 8.92578 7.57617ZM11.5996 8.40039C11.2684 8.4006 11 8.66876 11 9C11.0001 9.3312 11.2685 9.5994 11.5996 9.59961H18.4004C18.7315 9.5994 18.9999 9.3312 19 9C19 8.66876 18.7316 8.4006 18.4004 8.40039H11.5996Z" fill="#10100F"/>
</svg>
