<svg width="24" height="24" viewBox="0 0 24 24" fill="none" xmlns="http://www.w3.org/2000/svg">
<path d="M14.9998 12.9004C15.3311 12.9004 15.6004 13.1686 15.6004 13.5V15.5C15.6004 15.8313 15.3311 16.0996 14.9998 16.0996C14.6686 16.0994 14.4 15.8312 14.4 15.5V13.5C14.4 13.1688 14.6686 12.9006 14.9998 12.9004Z" fill="#10100F"/>
<path d="M14.9998 7.90039C15.3311 7.90039 15.6004 8.16863 15.6004 8.5V10.5C15.6004 10.8313 15.3311 11.0996 14.9998 11.0996C14.6686 11.0994 14.4 10.8312 14.4 10.5V8.5C14.4 8.16876 14.6686 7.9006 14.9998 7.90039Z" fill="#10100F"/>
<path fill-rule="evenodd" clip-rule="evenodd" d="M18.9994 3C21.2085 3 23 4.79086 23 7V8.09961C23 8.37575 22.7746 8.59561 22.5014 8.63574C20.86 8.87694 19.6001 10.2916 19.6001 12C19.6001 13.7083 20.8601 15.1221 22.5014 15.3633C22.7746 15.4034 23 15.6242 23 15.9004V17C23 19.2091 21.2085 21 18.9994 21H4.99967C2.79069 20.9999 1 19.2091 1 17V7C1 4.79095 2.79069 3.00014 4.99967 3H18.9994ZM4.99967 4.2002C3.45342 4.20033 2.19954 5.45369 2.19954 7V17C2.19954 18.5463 3.45342 19.7997 4.99967 19.7998H14.4V18.5C14.4 18.1688 14.6686 17.9006 14.9998 17.9004C15.3311 17.9004 15.6004 18.1686 15.6004 18.5V19.7998H18.9994C20.5458 19.7998 21.7996 18.5464 21.7996 17V16.4414C19.8413 15.9134 18.3997 14.1251 18.3997 12C18.3997 9.87477 19.8412 8.08558 21.7996 7.55762V7C21.7996 5.4536 20.5458 4.2002 18.9994 4.2002H15.6004V5.5C15.6004 5.83133 15.3311 6.09961 14.9998 6.09961C14.6686 6.0994 14.4 5.8312 14.4 5.5V4.2002H4.99967Z" fill="#10100F"/>
</svg>
