<svg width="24" height="24" viewBox="0 0 24 24" fill="none" xmlns="http://www.w3.org/2000/svg">
<path fill-rule="evenodd" clip-rule="evenodd" d="M12 1C18.0751 1 23 5.92487 23 12C23 18.0751 18.0751 23 12 23C5.92487 23 1 18.0751 1 12C1 5.92487 5.92487 1 12 1ZM12.8154 14.9551C12.7987 15.4397 12.6006 15.8995 12.2617 16.2363C11.9229 16.573 11.47 16.7606 10.999 16.7607C10.003 16.7607 9.17505 15.9236 9.1748 14.8838C9.1748 13.6416 10.3394 12.709 11.5391 13.0918V10.8096C9.11878 10.4773 7 12.4138 7 14.8838C7.00024 17.2885 8.93683 19 10.9922 19C13.1946 18.9997 14.9832 17.1584 14.9834 14.8838V10.3408C15.8624 10.9907 16.9178 11.3388 18 11.3369V9.10547C18 9.10547 16.6806 9.17097 15.7266 8.03711C15.247 7.4735 14.9832 6.74926 14.9834 6H12.8154V14.9551Z" fill="#10100F"/>
</svg>
