<svg width="24" height="24" viewBox="0 0 24 24" fill="none" xmlns="http://www.w3.org/2000/svg">
<path fill-rule="evenodd" clip-rule="evenodd" d="M3.34656 2.2918C3.70643 1.93297 4.27891 1.90102 4.67664 2.21758L8.51941 5.27813C9.42952 6.00299 9.62938 7.25969 9.078 8.21661L13.6903 12.8221C15.0051 12.0463 16.7275 12.2233 17.8573 13.3514L20.6464 16.1356C20.8332 16.3222 20.9975 16.5303 21.1366 16.7547C23.0419 19.8284 19.4951 23.3694 16.4169 21.4666C16.1922 21.3277 15.9846 21.163 15.7977 20.9764L13.0087 18.1922C11.7521 16.9372 11.6744 14.9499 12.7772 13.6053L8.22937 9.06328C7.27095 9.61434 6.01213 9.41567 5.28601 8.50664L2.22058 4.66973C1.90336 4.27241 1.93595 3.69994 2.29578 3.34063L3.34656 2.2918ZM17.0087 14.1981C16.1384 13.3295 14.7275 13.3293 13.8573 14.1981C12.987 15.067 12.987 16.4765 13.8573 17.3455L16.6464 20.1297C16.7678 20.2509 16.9027 20.3578 17.0487 20.448C19.0496 21.6849 21.3547 19.3825 20.1161 17.3846C20.0258 17.239 19.919 17.1043 19.7977 16.9832L17.0087 14.1981Z" fill="#10100F"/>
<path fill-rule="evenodd" clip-rule="evenodd" d="M11.4989 13.74C10.8999 14.8962 10.8469 16.2605 11.3378 17.4539L7.85144 20.9432C7.66533 21.1294 7.45803 21.2938 7.23425 21.4324C4.169 23.3308 0.637317 19.7973 2.53406 16.7303C2.67259 16.5064 2.83723 16.2983 3.02332 16.1121L8.44324 10.6893L11.4989 13.74ZM6.03699 16.9813C5.48479 16.9813 5.03709 17.4279 5.03699 17.9793C5.03719 18.5306 5.48485 18.9783 6.03699 18.9783C6.58912 18.9783 7.03678 18.5306 7.03699 17.9793C7.03689 17.4279 6.58918 16.9813 6.03699 16.9813Z" fill="#10100F"/>
<path d="M13.4862 2.93047C14.7533 2.07568 16.2748 1.91766 17.4618 2.02813C18.3905 2.11475 18.6449 3.17056 18.1356 3.76543L16.121 6.11797C15.9317 6.33908 15.8271 6.62077 15.827 6.91192C15.8272 7.58578 16.3732 8.1326 17.0468 8.13262H17.3915C17.7611 8.13261 18.1164 7.9858 18.3778 7.72442L20.16 5.94121C20.4564 5.64469 20.87 5.55647 21.2303 5.66582C21.5986 5.77777 21.902 6.09575 21.952 6.53985C22.0803 7.67861 21.9903 9.19603 21.1542 10.4705C20.5753 11.3527 19.6747 12.0617 18.3651 12.4607C17.1151 11.3551 15.3917 11.0752 13.9022 11.6219L10.703 8.42754L11.0302 8.10137C11.1008 8.03069 11.1499 7.92114 11.1552 7.79278C11.254 5.34772 12.1882 3.80639 13.4862 2.93047Z" fill="#10100F"/>
</svg>
