<svg width="24" height="24" viewBox="0 0 24 24" fill="none" xmlns="http://www.w3.org/2000/svg">
<path d="M7.27362 11.8566C7.50695 11.624 7.88508 11.6239 8.11834 11.8566C8.35168 12.0895 8.35167 12.4675 8.11834 12.7004L3.86834 16.9416C3.74736 17.0624 3.64102 17.1968 3.55096 17.342C2.31753 19.3305 4.61317 21.6218 6.60565 20.3908C6.75115 20.3009 6.88601 20.1942 7.00702 20.0734L9.76288 17.3225C9.99614 17.0898 10.3743 17.0899 10.6076 17.3225C10.8409 17.5553 10.8409 17.9334 10.6076 18.1662L7.85174 20.9172C7.66563 21.1029 7.45833 21.2662 7.23455 21.4045C4.16915 23.2983 0.636863 19.7733 2.53436 16.7141C2.67293 16.4907 2.83746 16.2836 3.02362 16.0979L7.27362 11.8566Z" fill="#10100F"/>
<path fill-rule="evenodd" clip-rule="evenodd" d="M3.58026 2.52266C3.93865 2.16507 4.50924 2.1331 4.90545 2.44844L8.7326 5.49337C9.63896 6.21474 9.83727 7.46574 9.28827 8.41817L13.757 12.8781C15.0804 12.0184 16.8702 12.1685 18.0314 13.3273L20.8078 16.0979C20.994 16.2836 21.1585 16.4907 21.2971 16.7141C23.1946 19.7733 19.6623 23.2983 16.5969 21.4045C16.3731 21.2662 16.1658 21.1029 15.9797 20.9172L13.2033 18.1457C11.9863 16.9312 11.8804 15.0283 12.8849 13.6936L8.44354 9.26192C7.48907 9.81049 6.23496 9.61209 5.5119 8.70723L2.46014 4.8879C2.14441 4.49247 2.17611 3.9232 2.53436 3.56563L3.58026 2.52266ZM17.1867 14.1701C16.3201 13.3053 14.9147 13.3053 14.048 14.1701C13.1815 15.0349 13.1817 16.4371 14.048 17.302L16.8244 20.0734C16.9454 20.1942 17.0803 20.3009 17.2258 20.3908C19.2183 21.6218 21.5139 19.3305 20.2805 17.342C20.1904 17.1968 20.0841 17.0624 19.9631 16.9416L17.1867 14.1701ZM3.50506 4.2834L6.44647 7.96407C6.85437 8.47432 7.61677 8.51647 8.07928 8.05489C8.54138 7.59325 8.49868 6.83293 7.98748 6.42598L4.29998 3.49141L3.50506 4.2834Z" fill="#10100F"/>
<path d="M6.02069 16.9328C6.57042 16.933 7.0157 17.3773 7.0158 17.926C7.0158 18.4747 6.57049 18.9199 6.02069 18.9201C5.47072 18.9201 5.02459 18.4748 5.02459 17.926C5.0247 17.3772 5.47079 16.9328 6.02069 16.9328Z" fill="#10100F"/>
<path d="M13.3752 3.00313C14.6638 2.08232 16.2411 1.91225 17.4621 2.02559C18.391 2.11192 18.6455 3.16567 18.1359 3.75899L16.1213 6.10469C15.9318 6.32526 15.8274 6.60619 15.8273 6.89669C15.8273 7.56898 16.3734 8.11442 17.0471 8.11446H17.3928C17.7622 8.11434 18.1168 7.96791 18.3781 7.70723L20.1603 5.92794C20.4565 5.63238 20.8702 5.54456 21.2306 5.65352C21.599 5.76492 21.9021 6.08176 21.9523 6.52462C22.0656 7.52678 22.0083 8.81365 21.4269 9.97286C20.8312 11.1605 19.9715 11.9961 18.1066 12.4143C17.7847 12.4864 17.4651 12.2844 17.3928 11.9631C17.3206 11.642 17.5223 11.3235 17.8439 11.2512C19.3762 10.9077 19.9311 10.2918 20.3586 9.43965C20.7466 8.66609 20.842 7.77628 20.7931 6.98262L19.2228 8.55001C18.7374 9.03441 18.0792 9.30672 17.3928 9.30684H17.0471C15.7135 9.3068 14.632 8.22761 14.632 6.89669C14.6321 6.32152 14.839 5.76504 15.214 5.32833L17.048 3.19258C16.0648 3.15069 14.9536 3.34253 14.0715 3.97286C13.1291 4.64627 12.3421 5.89627 12.342 8.21309C12.342 8.54241 12.0743 8.80977 11.7443 8.80977C11.4145 8.80964 11.1467 8.54233 11.1467 8.21309C11.1468 5.59848 12.0551 3.94661 13.3752 3.00313Z" fill="#10100F"/>
</svg>
