<svg width="24" height="24" viewBox="0 0 24 24" fill="none" xmlns="http://www.w3.org/2000/svg">
<path fill-rule="evenodd" clip-rule="evenodd" d="M13.4865 2.93446C14.7536 2.07839 16.2751 1.9205 17.4621 2.03114C18.3909 2.11784 18.6454 3.17563 18.1359 3.77137L16.1213 6.12684C15.9318 6.34837 15.8273 6.63097 15.8273 6.92274C15.8275 7.59768 16.3735 8.14442 17.0471 8.14442H17.3918C17.7615 8.14442 18.1167 7.99723 18.3781 7.73524L20.1603 5.95008C20.4567 5.65309 20.8703 5.56513 21.2307 5.67469C21.5989 5.78677 21.9023 6.10489 21.9523 6.54969C22.0806 7.69018 21.9907 9.20974 21.1545 10.4862C20.2953 11.7977 18.7293 12.7328 16.1652 12.827C16.0382 12.8317 15.9292 12.8813 15.8586 12.952L7.85175 20.9745C7.66558 21.161 7.45842 21.3259 7.23456 21.4647C4.16913 23.366 0.636854 19.8264 2.53437 16.7548C2.67294 16.5305 2.83747 16.3231 3.02363 16.1366L11.0305 8.11317C11.1011 8.04231 11.1503 7.93321 11.1555 7.80458C11.2543 5.35555 12.1883 3.81166 13.4865 2.93446ZM6.0373 17.0067C5.48501 17.0067 5.0373 17.4544 5.0373 18.0067C5.03756 18.5588 5.48518 19.0067 6.0373 19.0067C6.58942 19.0067 7.03703 18.5588 7.0373 18.0067C7.0373 17.4544 6.58958 17.0067 6.0373 17.0067Z" fill="#10100F"/>
</svg>
