<svg width="24" height="24" viewBox="0 0 24 24" fill="none" xmlns="http://www.w3.org/2000/svg">
<path fill-rule="evenodd" clip-rule="evenodd" d="M9.55859 3.89873C10.2358 1.34627 13.8458 1.31175 14.5713 3.85088L19.4512 20.8353H21.4004C21.7316 20.8354 21.9999 21.1036 22 21.4349C22 21.7661 21.7316 22.0343 21.4004 22.0345H2.59961C2.26842 22.0343 2 21.7661 2 21.4349C2.00005 21.1037 2.26845 20.8355 2.59961 20.8353H5.04102L9.55859 3.89873ZM6.30664 20.8353H18.1768L16.9463 16.5306H7.5C7.48282 16.5306 7.46604 16.5271 7.44922 16.5257L6.30664 20.8353ZM7.76758 15.3304H16.6035L14.9092 9.40068H9.34082L7.76758 15.3304ZM13.418 4.18096C13.0273 2.81371 11.0834 2.83192 10.7188 4.20635L9.65918 8.20049H14.5664L13.418 4.18096Z" fill="#10100F"/>
</svg>
