<svg width="24" height="24" viewBox="0 0 24 24" fill="none" xmlns="http://www.w3.org/2000/svg">
<path d="M7.1748 9.63818C7.4091 9.40396 7.78914 9.40397 8.02344 9.63818C8.25754 9.87249 8.25762 10.2526 8.02344 10.4868L7.04785 11.4624H15.5996C15.9308 11.4626 16.1992 11.7318 16.1992 12.063C16.1988 12.3939 15.9306 12.6624 15.5996 12.6626H7.04785L8.02344 13.6382C8.25754 13.8725 8.25761 14.2526 8.02344 14.4868C7.78917 14.7209 7.40907 14.7209 7.1748 14.4868L5.1748 12.4868C4.97004 12.282 4.94441 11.9657 5.09766 11.7329L5.1748 11.6382L7.1748 9.63818Z" fill="#10100F"/>
<path d="M13.1748 4.63916C13.4091 4.40489 13.7891 4.40486 14.0234 4.63916L16.0234 6.63916L16.1006 6.73291C16.1208 6.76362 16.1373 6.79643 16.1514 6.82959C16.2436 7.04789 16.2013 7.30988 16.0234 7.48779L14.0234 9.48779C13.7892 9.72176 13.4091 9.72176 13.1748 9.48779C12.9406 9.25356 12.9407 8.8735 13.1748 8.63916L14.1504 7.66357H5.59863C5.26757 7.66336 4.99923 7.39406 4.99902 7.06299C4.99921 6.7319 5.26756 6.46359 5.59863 6.46338H14.1504L13.1748 5.48779C12.9406 5.25354 12.9407 4.87349 13.1748 4.63916Z" fill="#10100F"/>
<path fill-rule="evenodd" clip-rule="evenodd" d="M15.5996 0.962402C18.14 0.962402 20.2 3.02168 20.2002 5.56201V19.937C20.2002 21.6491 18.8117 23.0376 17.0996 23.0376H3.41211C1.52762 23.0374 0 21.5091 0 19.6245V17.937C0.000164477 17.1955 0.468257 16.5635 1.125 16.3198V5.56201C1.12521 3.02181 3.18441 0.962613 5.72461 0.962402H15.5996ZM1.72461 17.4126C1.43497 17.4128 1.20041 17.6474 1.2002 17.937V19.6245C1.2002 20.8463 2.19036 21.8372 3.41211 21.8374H14.7891C14.6441 21.6184 14.5281 21.3834 14.4365 21.144C14.0617 20.1644 14.0396 18.9942 14.0898 18.1382C14.114 17.7273 13.7971 17.4126 13.4775 17.4126H1.72461ZM5.72461 2.1626C3.84715 2.16281 2.32541 3.68455 2.3252 5.56201V16.2124H13.4775C14.5778 16.2124 15.3472 17.202 15.2881 18.2085C15.2406 19.0172 15.276 19.9792 15.5576 20.7153C15.6954 21.0754 15.8802 21.3504 16.1133 21.5347C16.3383 21.7125 16.6477 21.8373 17.0996 21.8374C18.149 21.8374 19 20.9864 19 19.937V5.56201C18.9998 3.68442 17.4772 2.1626 15.5996 2.1626H5.72461Z" fill="#10100F"/>
</svg>
