<svg width="24" height="24" viewBox="0 0 24 24" fill="none" xmlns="http://www.w3.org/2000/svg">
<path d="M13.4775 17.4126C13.797 17.4127 14.113 17.7274 14.0889 18.1382C14.0386 18.9942 14.0617 20.1644 14.4365 21.144C14.627 21.6417 14.9198 22.1209 15.3691 22.4761C15.8265 22.8375 16.4046 23.0376 17.0996 23.0376H3.41211C1.52762 23.0374 0 21.5091 0 19.6245V17.937C4.05779e-05 17.7541 0.029223 17.578 0.0820312 17.4126H13.4775Z" fill="#10100F"/>
<path fill-rule="evenodd" clip-rule="evenodd" d="M15.5996 0.962402C18.14 0.962402 20.2 3.02168 20.2002 5.56201V19.937C20.2002 20.6538 19.9545 21.3122 19.5459 21.8374H17.0996C16.6475 21.8374 16.3384 21.7125 16.1133 21.5347C15.8802 21.3504 15.6954 21.0755 15.5576 20.7153C15.276 19.9792 15.2397 19.0172 15.2871 18.2085C15.3462 17.2021 14.5777 16.2125 13.4775 16.2124H1.125V5.56201C1.12521 3.02181 3.18441 0.962613 5.72461 0.962402H15.5996ZM8.02344 9.63818C7.78914 9.40397 7.4091 9.40396 7.1748 9.63818L5.1748 11.6382L5.09766 11.7329C4.94437 11.9657 4.97003 12.282 5.1748 12.4868L7.1748 14.4868C7.40908 14.7209 7.78916 14.7209 8.02344 14.4868C8.25762 14.2525 8.25757 13.8725 8.02344 13.6382L7.04785 12.6626H15.5996C15.9306 12.6624 16.1989 12.3939 16.1992 12.063C16.1992 11.7318 15.9308 11.4626 15.5996 11.4624H7.04785L8.02344 10.4868C8.25763 10.2525 8.25757 9.87249 8.02344 9.63818ZM14.0234 4.63916C13.7891 4.40486 13.4091 4.40489 13.1748 4.63916C12.9406 4.87349 12.9405 5.25353 13.1748 5.48779L14.1504 6.46338H5.59863C5.26756 6.46359 4.99921 6.7319 4.99902 7.06299C4.99919 7.39409 5.26754 7.66336 5.59863 7.66357H14.1504L13.1748 8.63916C12.9407 8.87349 12.9406 9.25355 13.1748 9.48779C13.4091 9.7218 13.7892 9.72181 14.0234 9.48779L16.0234 7.48779C16.2013 7.30986 16.2437 7.0479 16.1514 6.82959C16.1373 6.79641 16.1208 6.76363 16.1006 6.73291L16.0234 6.63916L14.0234 4.63916Z" fill="#10100F"/>
</svg>
