<svg width="24" height="24" viewBox="0 0 24 24" fill="none" xmlns="http://www.w3.org/2000/svg">
<path fill-rule="evenodd" clip-rule="evenodd" d="M12 1C14.2091 1 16 2.79086 16 5V5.90039H21.4004C21.7316 5.9006 22 6.16877 22 6.5C22 6.83124 21.7316 7.0994 21.4004 7.09961H19.9355L19.2217 19.2354C19.0971 21.3493 17.3462 22.9999 15.2285 23H8.77148C6.65379 22.9999 4.90291 21.3493 4.77832 19.2354L4.06445 7.09961H2.59961C2.26842 7.0994 2 6.83124 2 6.5C2.00001 6.16877 2.26843 5.9006 2.59961 5.90039H8V5C8 2.79086 9.79086 1 12 1ZM5.2666 7.09961L5.97656 19.1641C6.06362 20.644 7.28901 21.7997 8.77148 21.7998H15.2285C16.711 21.7997 17.9364 20.644 18.0234 19.1641L18.7334 7.09961H5.2666ZM12 2.2002C10.4536 2.2002 9.2002 3.4536 9.2002 5V5.90039H14.7998V5C14.7998 3.4536 13.5464 2.2002 12 2.2002Z" fill="#10100F"/>
</svg>
