<svg width="24" height="24" viewBox="0 0 24 24" fill="none" xmlns="http://www.w3.org/2000/svg">
<path fill-rule="evenodd" clip-rule="evenodd" d="M12.9912 2.90002C14.633 2.90014 15.9639 4.24324 15.9639 5.90002V6.80042H18.1787C19.4743 6.80045 20.6677 7.50913 21.2969 8.65198L22.4268 10.7028C22.8028 11.3859 22.9999 12.1547 23 12.9362V16.3063C23 17.1899 22.2898 17.9069 21.4141 17.9069H20.0781C20.1074 18.0669 20.125 18.2315 20.125 18.4C20.125 19.8912 18.9269 21.1002 17.4492 21.1002C15.9715 21.1002 14.7734 19.8912 14.7734 18.4C14.7734 18.2291 14.7912 18.0622 14.8213 17.9H10.1689C10.1991 18.0622 10.2168 18.2291 10.2168 18.4C10.2168 19.8912 9.0187 21.1002 7.54102 21.1002C6.06328 21.1002 4.86523 19.8912 4.86523 18.4C4.86524 18.1534 4.90051 17.9151 4.96191 17.6881C3.86091 17.2486 3.08105 16.1674 3.08105 14.9V14.4996H1.59473C1.26634 14.4996 1 14.2314 1 13.9C1 13.5687 1.26634 13.3004 1.59473 13.3004H3.08105V10.9996H1.59473C1.26634 10.9996 1 10.7314 1 10.4C1 10.0687 1.26634 9.80042 1.59473 9.80042H3.08105V7.49963H1.59473C1.26634 7.49963 1 7.2314 1 6.90002C1 6.56865 1.26634 6.30042 1.59473 6.30042H3.08105V5.90002C3.08105 4.24329 4.41194 2.90021 6.05371 2.90002H12.9912ZM7.54102 16.9C7.38428 16.9 7.23267 16.924 7.09082 16.9694C7.00799 16.9959 6.92838 17.0299 6.85254 17.0699C6.7981 17.0987 6.74552 17.1306 6.69531 17.1656C6.58613 17.242 6.48761 17.3328 6.40234 17.4352C6.39597 17.4428 6.39002 17.4508 6.38379 17.4586C6.3338 17.5211 6.28869 17.5877 6.24902 17.6578C6.21696 17.7145 6.1887 17.7736 6.16406 17.8346C6.09359 18.0091 6.05469 18.1999 6.05469 18.4C6.05469 19.2285 6.72005 19.9 7.54102 19.9C8.36193 19.9 9.02734 19.2284 9.02734 18.4C9.02734 18.1998 8.98753 18.0092 8.91699 17.8346C8.91343 17.8258 8.90997 17.817 8.90625 17.8082C8.87135 17.7263 8.82943 17.6484 8.78125 17.5748C8.7244 17.488 8.65895 17.4075 8.58594 17.3346C8.5244 17.2731 8.4581 17.2166 8.38672 17.1666C8.33593 17.1311 8.28266 17.099 8.22754 17.0699C8.15288 17.0306 8.07459 16.9975 7.99316 16.9713C7.89225 16.9388 7.78674 16.9169 7.67773 16.9069C7.6327 16.9027 7.58712 16.9 7.54102 16.9ZM17.4492 16.9C16.8001 16.9006 16.248 17.3211 16.0459 17.9069C15.9926 18.0614 15.9629 18.2271 15.9629 18.4C15.9629 19.2285 16.6283 19.9 17.4492 19.9C18.2701 19.9 18.9355 19.2284 18.9355 18.4C18.9355 17.8326 18.6236 17.3385 18.1631 17.0836C18.1595 17.0816 18.1559 17.0797 18.1523 17.0778C18.0734 17.0349 17.99 16.9994 17.9033 16.9713C17.803 16.939 17.6982 16.917 17.5898 16.9069C17.5435 16.9025 17.4967 16.9 17.4492 16.9ZM16.0635 16.0934C16.468 15.8454 16.9413 15.6998 17.4492 15.6998C18.2912 15.6999 19.0418 16.0931 19.5322 16.7067H21.4141C21.633 16.7067 21.8105 16.5272 21.8105 16.3063V12.9996H16.0635V16.0934ZM6.05371 4.10022C5.06871 4.10041 4.27051 4.90603 4.27051 5.90002V6.30042H7.54102C7.86923 6.30062 8.13477 6.56878 8.13477 6.90002C8.13477 7.23127 7.86923 7.49943 7.54102 7.49963H4.27051V9.80042H11.5049C11.8331 9.80062 12.0986 10.0688 12.0986 10.4C12.0986 10.7313 11.8331 10.9994 11.5049 10.9996H4.27051V13.3004H7.54102C7.86923 13.3006 8.13477 13.5688 8.13477 13.9C8.13477 14.2313 7.86923 14.4994 7.54102 14.4996H4.27051V14.9C4.27051 15.7105 4.8013 16.3952 5.53125 16.6207C6.02164 16.0572 6.7394 15.6998 7.54102 15.6998C8.37981 15.6999 9.1276 16.0903 9.61816 16.6998H14.7744V5.90002C14.7744 4.90599 13.9763 4.10034 12.9912 4.10022H6.05371ZM16.0635 11.8004H21.6172C21.555 11.6234 21.4777 11.4511 21.3867 11.2858L20.2578 9.23401C19.8383 8.4723 19.0423 7.99967 18.1787 7.99963H16.0635V11.8004Z" fill="#10100F"/>
</svg>
