<svg width="24" height="24" viewBox="0 0 24 24" fill="none" xmlns="http://www.w3.org/2000/svg">
<path fill-rule="evenodd" clip-rule="evenodd" d="M13.0996 2.97909C14.6774 3.0589 15.9316 4.35869 15.9316 5.95042V6.84337H18.1562C19.4577 6.84337 20.657 7.54633 21.2891 8.67963L22.4238 10.7135C22.8017 11.3911 23 12.1542 23 12.9294V16.2716C22.9997 17.1477 22.2866 17.8579 21.4072 17.858H20.0967C20.107 17.9535 20.1133 18.0504 20.1133 18.1486C20.1133 19.6273 18.9101 20.8263 17.4258 20.8265C15.9414 20.8265 14.7373 19.6274 14.7373 18.1486C14.7373 18.048 14.745 17.9489 14.7559 17.8512H9.14551C9.15635 17.9489 9.16308 18.048 9.16309 18.1486C9.16309 19.6273 7.9598 20.8262 6.47559 20.8265C4.99117 20.8265 3.78711 19.6274 3.78711 18.1486C3.78712 18.0457 3.79335 17.9443 3.80469 17.8445C2.24 17.7509 1 16.4584 1 14.876V5.95042C1 4.3073 2.33702 2.97527 3.98633 2.97522H12.9453L13.0996 2.97909ZM6.47559 16.661C5.65098 16.661 4.98253 17.3271 4.98242 18.1486C4.98242 18.9702 5.65091 19.6362 6.47559 19.6362C7.30006 19.6359 7.96875 18.97 7.96875 18.1486C7.96864 17.3272 7.29999 16.6612 6.47559 16.661ZM17.4258 16.661C16.6012 16.661 15.9327 17.3271 15.9326 18.1486C15.9326 18.9702 16.6011 19.6362 17.4258 19.6362C18.2503 19.636 18.9189 18.9701 18.9189 18.1486C18.9188 17.3272 18.2503 16.6611 17.4258 16.661ZM16.0312 11.802H21.6084C21.5459 11.6267 21.4702 11.4554 21.3789 11.2917L20.2451 9.25782C19.8237 8.5022 19.0239 8.03365 18.1562 8.03365H16.0312V11.802Z" fill="#10100F"/>
</svg>
