<svg width="24" height="24" viewBox="0 0 24 24" fill="none" xmlns="http://www.w3.org/2000/svg">
<path d="M5.16113 17.79C5.16862 17.776 5.17562 17.7618 5.18359 17.748L5.20215 17.7197C5.18811 17.7429 5.17391 17.766 5.16113 17.79Z" fill="#10100F"/>
<path d="M6.28809 17.0127C6.29947 17.0113 6.3108 17.009 6.32227 17.0078L6.34375 17.0059C6.32506 17.0075 6.30657 17.0104 6.28809 17.0127Z" fill="#10100F"/>
<path d="M16.1143 17.7861C16.1211 17.7734 16.1275 17.7605 16.1348 17.748L16.1475 17.7266C16.1358 17.746 16.125 17.7661 16.1143 17.7861Z" fill="#10100F"/>
<path d="M17.2393 17.0127C17.2506 17.0113 17.262 17.009 17.2734 17.0078L17.2949 17.0059C17.2762 17.0075 17.2577 17.0104 17.2393 17.0127Z" fill="#10100F"/>
<path fill-rule="evenodd" clip-rule="evenodd" d="M13.0996 3.00391C14.6774 3.08438 15.9316 4.395 15.9316 6V6.90039H18.1572C19.4586 6.90039 20.658 7.6092 21.29 8.75195L22.4248 10.8027C22.8026 11.486 23.001 12.2555 23.001 13.0371V16.4072C23.0006 17.2905 22.2876 18.0067 21.4082 18.0068H20.0967C20.107 18.1031 20.1142 18.2008 20.1143 18.2998C20.1143 19.791 18.9102 21 17.4258 21C15.9415 20.9998 14.7383 19.7909 14.7383 18.2998C14.7383 18.1984 14.745 18.0985 14.7559 18H9.14453C9.15538 18.0985 9.16307 18.1984 9.16309 18.2998C9.16309 19.791 7.95903 21 6.47461 21C4.99032 20.9998 3.78711 19.7909 3.78711 18.2998C3.78712 18.1961 3.79335 18.0938 3.80469 17.9932C2.24 17.8988 1 16.5955 1 15V13H8C9.65685 13 11 11.6569 11 10V3H12.9453L13.0996 3.00391ZM6.47461 16.7998C5.65017 16.8 4.98162 17.4716 4.98145 18.2998C4.98145 19.1281 5.65006 19.7997 6.47461 19.7998C7.29929 19.7998 7.96777 19.1282 7.96777 18.2998C7.9676 17.4715 7.29918 16.7998 6.47461 16.7998ZM17.4258 16.7998C16.6013 16.8 15.9328 17.4716 15.9326 18.2998C15.9326 19.1281 16.6012 19.7997 17.4258 19.7998C18.2505 19.7998 18.9189 19.1282 18.9189 18.2998C18.9188 17.4715 18.2504 16.7998 17.4258 16.7998ZM16.0322 11.9004H21.6094C21.5469 11.7237 21.4712 11.5508 21.3799 11.3857L20.2461 9.33496C19.8247 8.57304 19.0249 8.10059 18.1572 8.10059H16.0322V11.9004Z" fill="#10100F"/>
<path d="M3.85352 5.95215C3.85352 6.86345 4.58709 7.60425 5.49609 7.60449H5.51465C6.42365 7.60426 7.15723 6.86345 7.15723 5.95215V3H7.75C8.99264 3 10 4.00736 10 5.25V9.75C10 10.9926 8.99264 12 7.75 12H3.25C2.00736 12 1 10.9926 1 9.75V5.25C1 4.00736 2.00736 3 3.25 3H3.85352V5.95215Z" fill="#10100F"/>
<path d="M5.95703 5.95215C5.95703 6.20731 5.75434 6.40406 5.51465 6.4043H5.49609C5.25641 6.40406 5.05371 6.20731 5.05371 5.95215V3H5.95703V5.95215Z" fill="#10100F"/>
</svg>
