<svg width="24" height="24" viewBox="0 0 24 24" fill="none" xmlns="http://www.w3.org/2000/svg">
<path fill-rule="evenodd" clip-rule="evenodd" d="M12.9004 3C14.5571 3.00021 15.9004 4.34328 15.9004 6V6.90039H18.1348C19.4422 6.90039 20.6473 7.60908 21.2822 8.75195L22.4209 10.8027C22.8005 11.486 22.9999 12.2545 23 13.0361V16.4062C23 17.2898 22.2839 18.0066 21.4004 18.0068L20.1816 18.002C20.1924 18.0998 20.2002 18.1991 20.2002 18.2998C20.2002 19.7909 18.9911 20.9999 17.5 21C16.0088 21 14.7998 19.791 14.7998 18.2998C14.7998 18.2008 14.806 18.1031 14.8164 18.0068H14.7998V18H9.18164C9.19254 18.0985 9.20018 18.1984 9.2002 18.2998C9.2002 19.7909 7.99108 20.9999 6.5 21C5.00883 21 3.7998 19.791 3.7998 18.2998C3.79982 18.1961 3.80599 18.0938 3.81738 17.9932C2.24561 17.8987 1 16.5955 1 15V6C1 4.34315 2.34315 3 4 3H12.9004ZM6.5 16.7998C5.67167 16.7998 5.00016 17.4715 5 18.2998C5 19.1282 5.67157 19.7998 6.5 19.7998C7.32834 19.7997 8 19.1282 8 18.2998C7.99984 17.4716 7.32824 16.7999 6.5 16.7998ZM17.3662 16.8066C16.6005 16.8743 16.0001 17.5165 16 18.2998C16 19.1282 16.6716 19.7998 17.5 19.7998C18.3283 19.7997 19 19.1282 19 18.2998C18.9999 17.5166 18.3994 16.8744 17.6338 16.8066H17.3662ZM16 16.0547C16.429 15.7676 16.945 15.5996 17.5 15.5996C18.4386 15.5997 19.2643 16.0798 19.748 16.8066H21.4004C21.6211 16.8064 21.7998 16.627 21.7998 16.4062V13.0996H16V16.0547ZM4 4.2002C3.00589 4.2002 2.2002 5.00589 2.2002 6V15C2.2002 15.9941 3.00589 16.7998 4 16.7998H4.25488C4.73928 16.0764 5.56404 15.6006 6.5 15.6006C7.43576 15.6007 8.25976 16.0766 8.74414 16.7998H14.7002V6C14.7002 5.00602 13.8943 4.20041 12.9004 4.2002H4ZM16 11.9004H21.6045C21.5417 11.7234 21.4639 11.5511 21.3721 11.3857L20.2324 9.33398C19.8091 8.57237 19.0062 8.09961 18.1348 8.09961H16V11.9004Z" fill="#10100F"/>
</svg>
