<svg width="24" height="24" viewBox="0 0 24 24" fill="none" xmlns="http://www.w3.org/2000/svg">
<path fill-rule="evenodd" clip-rule="evenodd" d="M12.9004 2.99988C14.5571 3.00001 15.9004 4.3431 15.9004 5.99988V6.90027H18.1348C19.4422 6.90027 20.6473 7.60896 21.2822 8.75183L22.4209 10.8026C22.8005 11.4859 22.9999 12.2544 23 13.036V16.4061C23 17.2897 22.2839 18.0066 21.4004 18.0067L20.1826 18.0018C20.1934 18.0997 20.2012 18.1989 20.2012 18.2997C20.2012 19.7908 18.9921 20.9998 17.501 20.9999C16.0098 20.9999 14.8008 19.7909 14.8008 18.2997C14.8008 18.2007 14.807 18.103 14.8174 18.0067H14.7998V17.9999H9.18262C9.19352 18.0984 9.20116 18.1983 9.20117 18.2997C9.20117 19.7908 7.99206 20.9998 6.50098 20.9999C5.00981 20.9999 3.80078 19.7909 3.80078 18.2997C3.8008 18.1189 3.81863 17.9422 3.85254 17.7714C2.76519 17.3208 2 16.2502 2 14.9999V13.4999H2.00977C2.05745 13.2163 2.30257 13.0001 2.59961 12.9999C2.89678 12.9999 3.14169 13.2163 3.18945 13.4999H3.2002V14.9999C3.2002 15.7636 3.67642 16.4136 4.34766 16.6747C4.84055 16.0227 5.62068 15.6005 6.50098 15.6005C7.43673 15.6005 8.26073 16.0765 8.74512 16.7997H14.7002V5.99988C14.7002 5.00585 13.8944 4.2002 12.9004 4.20007H11.5V4.18933C11.2164 4.14157 11 3.89666 11 3.59949C11.0002 3.30749 11.2089 3.06409 11.4854 3.01062C11.485 3.00708 11.4857 3.00342 11.4854 2.99988H12.9004ZM6.50098 16.7997C5.67265 16.7997 5.00113 17.4714 5.00098 18.2997C5.00098 19.1281 5.67255 19.7997 6.50098 19.7997C7.32931 19.7996 8.00098 19.128 8.00098 18.2997C8.00082 17.4715 7.32922 16.7998 6.50098 16.7997ZM17.3672 16.8065C16.6014 16.8741 16.0011 17.5164 16.001 18.2997C16.001 19.1281 16.6725 19.7997 17.501 19.7997C18.3293 19.7996 19.001 19.128 19.001 18.2997C19.0009 17.5165 18.4003 16.8743 17.6348 16.8065H17.3672ZM16 16.0555C16.4292 15.7679 16.9455 15.5995 17.501 15.5995C18.4396 15.5996 19.2652 16.0796 19.749 16.8065H21.4004C21.6212 16.8064 21.7998 16.627 21.7998 16.4061V13.0995H16V16.0555ZM16 11.9003H21.6045C21.5417 11.7233 21.4639 11.551 21.3721 11.3856L20.2334 9.33386C19.8101 8.57204 19.0063 8.09949 18.1348 8.09949H16V11.9003Z" fill="#10100F"/>
<path fill-rule="evenodd" clip-rule="evenodd" d="M7.75 2.99988C8.99264 2.99988 10 4.00724 10 5.24988V9.74988C10 10.9925 8.99264 11.9999 7.75 11.9999H3.25C2.00736 11.9999 1 10.9925 1 9.74988V5.24988C1 4.00724 2.00736 2.99988 3.25 2.99988H7.75ZM3.25 4.20007C2.6701 4.20007 2.2002 4.66998 2.2002 5.24988V9.74988C2.2002 10.3298 2.6701 10.7997 3.25 10.7997H7.75C8.3299 10.7997 8.7998 10.3298 8.7998 9.74988V5.24988C8.7998 4.66998 8.3299 4.20007 7.75 4.20007H7.15723V5.95203C7.15723 6.86333 6.42365 7.60413 5.51465 7.60437H5.49609C4.58709 7.60413 3.85352 6.86333 3.85352 5.95203V4.20007H3.25ZM5.05371 5.95203C5.05371 6.20719 5.25641 6.40394 5.49609 6.40417H5.51465C5.75434 6.40394 5.95703 6.20719 5.95703 5.95203V4.20007H5.05371V5.95203Z" fill="#10100F"/>
</svg>
