<svg width="24" height="24" viewBox="0 0 24 24" fill="none" xmlns="http://www.w3.org/2000/svg">
<path fill-rule="evenodd" clip-rule="evenodd" d="M1.10645 10.7408C1.08121 10.7041 1.05967 10.6647 1.04297 10.6227C1.02998 10.59 1.01886 10.5563 1.01172 10.5211C1.01665 10.5455 1.02348 10.5682 1.03125 10.5914L1.04199 10.6198C1.01533 10.5516 1.00006 10.4776 1 10.4C1.00021 10.0688 1.26647 9.80042 1.59473 9.80042H3.08105V7.50061H1.59473C1.37434 7.50061 1.1838 7.37779 1.08105 7.19788C1.07214 7.18269 1.06422 7.167 1.05664 7.151L1.06445 7.16956C1.06118 7.16322 1.05872 7.15649 1.05566 7.15002C1.05107 7.13996 1.04604 7.1301 1.04199 7.11975C1.02922 7.08815 1.01866 7.05535 1.01172 7.02112C1.01849 7.05462 1.0287 7.0858 1.04102 7.11682C1.01506 7.04949 1.00006 6.97656 1 6.90002C1.00021 6.56883 1.26647 6.30042 1.59473 6.30042H3.08105V5.90002C3.08105 4.24329 4.41194 2.90021 6.05371 2.90002H12.9912C14.633 2.90014 15.9639 4.24324 15.9639 5.90002V6.80042H18.1787C19.4743 6.80045 20.6677 7.50913 21.2969 8.65198L22.4268 10.7028C22.8028 11.3859 22.9999 12.1547 23 12.9362V16.3063C23 17.1899 22.2898 17.9069 21.4141 17.9069H20.0781C20.1074 18.0669 20.125 18.2315 20.125 18.4C20.125 19.8912 18.9269 21.1002 17.4492 21.1002C15.9715 21.1002 14.7734 19.8912 14.7734 18.4C14.7734 18.2291 14.7912 18.0622 14.8213 17.9H10.1689C10.1991 18.0622 10.2168 18.2291 10.2168 18.4C10.2168 19.8912 9.0187 21.1002 7.54102 21.1002C6.06328 21.1002 4.86523 19.8912 4.86523 18.4C4.86524 18.1534 4.90051 17.9151 4.96191 17.6881C3.8609 17.2486 3.08105 16.1674 3.08105 14.9V14.5006H1.59473C1.3843 14.5006 1.20045 14.3889 1.09473 14.2223C1.07924 14.198 1.06565 14.1726 1.05371 14.1461C1.0502 14.1383 1.04615 14.1307 1.04297 14.1227C1.02995 14.09 1.01886 14.0563 1.01172 14.0211C1.01869 14.0556 1.02942 14.0877 1.04199 14.1198C1.01533 14.0516 1.00006 13.9776 1 13.9C1.00021 13.5688 1.26647 13.3004 1.59473 13.3004H3.08105V11.0006H1.59473C1.43359 11.0006 1.28779 10.9349 1.18066 10.8297C1.19915 10.8478 1.21858 10.8649 1.23926 10.8805C1.21709 10.8638 1.1964 10.8454 1.17676 10.8258C1.17366 10.8227 1.171 10.8192 1.16797 10.816C1.15712 10.8047 1.14569 10.794 1.13574 10.7819L1.10645 10.7408ZM7.54102 16.9C7.38418 16.9 7.23279 16.9239 7.09082 16.9694C7.00799 16.9959 6.92838 17.0299 6.85254 17.0699C6.7981 17.0987 6.74552 17.1306 6.69531 17.1656C6.58613 17.242 6.48761 17.3328 6.40234 17.4352C6.39597 17.4428 6.39002 17.4508 6.38379 17.4586C6.3338 17.5211 6.28869 17.5877 6.24902 17.6578C6.21695 17.7145 6.1887 17.7736 6.16406 17.8346C6.09359 18.0091 6.05469 18.1999 6.05469 18.4C6.05469 19.2285 6.72005 19.9 7.54102 19.9C8.36193 19.9 9.02734 19.2284 9.02734 18.4C9.02734 18.1998 8.98753 18.0092 8.91699 17.8346C8.91343 17.8258 8.90997 17.817 8.90625 17.8082C8.87135 17.7263 8.82943 17.6484 8.78125 17.5748C8.72441 17.488 8.65894 17.4075 8.58594 17.3346C8.5244 17.2731 8.4581 17.2166 8.38672 17.1666C8.33593 17.1311 8.28266 17.099 8.22754 17.0699C8.1528 17.0306 8.07469 16.9966 7.99316 16.9703C7.85064 16.9244 7.69863 16.9001 7.54102 16.9ZM17.4492 16.9C16.8001 16.9006 16.248 17.3211 16.0459 17.9069C15.9926 18.0614 15.9629 18.2271 15.9629 18.4C15.9629 19.2285 16.6283 19.9 17.4492 19.9C18.2701 19.9 18.9355 19.2284 18.9355 18.4C18.9355 17.8845 18.6777 17.4298 18.2852 17.1598C18.2421 17.1302 18.1975 17.1027 18.1514 17.0778C18.0726 17.0351 17.9897 16.9993 17.9033 16.9713C17.803 16.9389 17.6981 16.917 17.5898 16.9069C17.5435 16.9025 17.4967 16.9 17.4492 16.9ZM16.0635 11.8004H21.6172C21.555 11.6234 21.4777 11.4511 21.3867 11.2858L20.2578 9.23401C19.8383 8.4723 19.0423 7.99967 18.1787 7.99963H16.0635V11.8004ZM7.54102 14.5006C7.86902 14.5004 8.1345 14.231 8.13477 13.9C8.13456 13.569 7.86905 13.3007 7.54102 13.3004H3.08105V14.5006H7.54102ZM11.5049 11.0006C11.8329 11.0004 12.0984 10.731 12.0986 10.4C12.0984 10.069 11.833 9.80062 11.5049 9.80042H3.08105V11.0006H11.5049ZM7.54102 7.50061C7.86902 7.50035 8.1345 7.23101 8.13477 6.90002C8.13456 6.56899 7.86905 6.30067 7.54102 6.30042H3.08105V7.50061H7.54102ZM1.05078 10.6412L1.05859 10.6598C1.05614 10.6547 1.05407 10.6494 1.05176 10.6442C1.05134 10.6432 1.05119 10.6422 1.05078 10.6412Z" fill="#10100F"/>
</svg>
