<svg width="24" height="24" viewBox="0 0 24 24" fill="none" xmlns="http://www.w3.org/2000/svg">
<path fill-rule="evenodd" clip-rule="evenodd" d="M3.32249 12.8365C3.33497 12.8395 3.34832 12.842 3.36232 12.8436C3.40857 12.849 3.4401 12.8425 3.45402 12.8377C4.86917 12.3478 6.75801 12.2156 8.52543 13.4586C8.5361 13.4661 8.54788 13.4722 8.55976 13.4763C8.57155 13.4805 8.58133 13.482 8.58788 13.4825C10.2076 12.4719 11.6375 12.2113 12.8879 12.4102C14.0098 12.5887 14.8564 13.1217 15.4078 13.5026C16.3807 12.8225 18.2352 12.0055 20.6653 12.9117C19.9301 7.26897 16.2486 4.2 11.997 4.2C9.76107 4.2 7.77557 4.9301 6.26816 6.34426C4.78778 7.73307 3.68299 9.86292 3.32249 12.8365ZM2.10987 12.8764C2.83683 6.29213 6.98658 3 11.997 3C17.0211 3 21.1799 6.72405 21.89 13.0429C21.9812 13.8544 21.0495 14.3422 20.2864 14.0513C18.303 13.2952 16.843 13.9602 16.0851 14.4933C15.7107 14.7566 15.2215 14.8371 14.8467 14.5742C13.7897 13.8331 12.0558 12.7271 9.21141 14.5079C8.7896 14.7719 8.24217 14.7265 7.83511 14.4402C6.47716 13.4852 5.02141 13.565 3.84657 13.9717C3.04662 14.2486 2.01697 13.7178 2.10987 12.8764Z" fill="#10100F"/>
<path d="M11.9966 12.4004C12.328 12.4004 12.5972 12.6686 12.5972 13V18.6504C12.5974 19.8375 13.5595 20.7996 14.7466 20.7998C15.9339 20.7998 16.8968 19.8376 16.897 18.6504V17.4004C16.897 17.0692 17.1654 16.8 17.4966 16.7998C17.828 16.7998 18.0972 17.069 18.0972 17.4004V18.6504C18.097 20.5004 16.5966 22 14.7466 22C12.8967 21.9998 11.3972 20.5002 11.397 18.6504V13C11.397 12.6688 11.6654 12.4006 11.9966 12.4004Z" fill="#10100F"/>
<path d="M11.9995 2C12.3308 1.99882 12.6008 2.26636 12.6021 2.59766L12.5972 3.49805C12.5982 3.82913 12.3306 4.09821 11.9995 4.09961C11.6681 4.10091 11.3983 3.83333 11.397 3.50196L11.4019 2.60254C11.4006 2.27117 11.6681 2.0013 11.9995 2Z" fill="#10100F"/>
</svg>
