<svg width="24" height="24" viewBox="0 0 24 24" fill="none" xmlns="http://www.w3.org/2000/svg">
<path d="M11.9907 2C12.3221 1.99871 12.592 2.26629 12.5933 2.59766L12.5942 3.01954C17.3476 3.30326 21.2084 6.97638 21.8901 13.043C21.9812 13.8543 21.0496 14.3424 20.2866 14.0518C18.3034 13.2958 16.8434 13.9601 16.0855 14.4932C15.711 14.7565 15.221 14.8371 14.8462 14.5742C14.2984 14.1901 13.5689 13.7085 12.5972 13.5811V18.6504C12.5974 19.8375 13.5595 20.7996 14.7466 20.7998C15.9339 20.7998 16.8968 19.8376 16.897 18.6504V17.4004C16.897 17.0692 17.1654 16.8 17.4966 16.7998C17.828 16.7998 18.0972 17.069 18.0972 17.4004V18.6504C18.097 20.5004 16.5966 22 14.7466 22C12.8967 21.9998 11.3972 20.5002 11.397 18.6504V13.6113C10.7532 13.7236 10.028 13.9966 9.21143 14.5078C8.78974 14.7718 8.24248 14.7265 7.83546 14.4404C6.4775 13.4854 5.02104 13.565 3.8462 13.9717C3.0463 14.2483 2.01698 13.7173 2.10987 12.876C2.80758 6.55805 6.65698 3.27289 11.394 3.01758L11.3931 2.60254C11.3918 2.27118 11.6594 2.0013 11.9907 2Z" fill="#10100F"/>
</svg>
