<svg width="24" height="24" viewBox="0 0 24 24" fill="none" xmlns="http://www.w3.org/2000/svg">
<path fill-rule="evenodd" clip-rule="evenodd" d="M12 1C14.8165 1.00001 17.0994 3.28315 17.0996 6.09961V6.59961C17.0996 6.93098 16.8314 7.2002 16.5 7.2002C16.1686 7.20019 15.9004 6.93098 15.9004 6.59961V6.09961C15.9002 3.94589 14.1538 2.20021 12 2.2002C9.84623 2.2002 8.09982 3.94588 8.09961 6.09961V9H17C19.2091 9 21 10.7909 21 13V19C21 21.2091 19.2091 23 17 23H7C6.9309 23 6.86219 22.9986 6.79395 22.9951C4.68056 22.8879 3 21.14 3 19V13C3 10.86 4.68056 9.11211 6.79395 9.00488L7 9H6.90039V6.09961C6.9006 3.28314 9.18349 1.00001 12 1ZM11.8975 14.0049C11.3933 14.0562 11 14.4823 11 15C11 15.2737 11.11 15.5216 11.2881 15.7021C11.3645 15.7796 11.4004 15.8912 11.4004 16V17.5C11.4004 17.8314 11.6686 18.0996 12 18.0996C12.0415 18.0996 12.082 18.0959 12.1211 18.0879C12.3944 18.0319 12.5996 17.7899 12.5996 17.5V16C12.5996 15.8912 12.6355 15.7796 12.7119 15.7021C12.89 15.5216 13 15.2737 13 15C13 14.4823 12.6067 14.0562 12.1025 14.0049C12.0688 14.0015 12.0346 14 12 14C11.9654 14 11.9312 14.0015 11.8975 14.0049Z" fill="#10100F"/>
</svg>
