<svg width="24" height="24" viewBox="0 0 24 24" fill="none" xmlns="http://www.w3.org/2000/svg">
<path d="M12 14.0498C12.5522 14.0498 12.9999 14.4976 13 15.0498C13 15.3234 12.89 15.5714 12.7119 15.752C12.6355 15.8294 12.5997 15.941 12.5996 16.0498V17.5498C12.5996 17.8812 12.3314 18.1504 12 18.1504C11.6686 18.1504 11.4004 17.8812 11.4004 17.5498V16.0498C11.4003 15.941 11.3645 15.8294 11.2881 15.752C11.11 15.5714 11 15.3234 11 15.0498C11.0001 14.4976 11.4478 14.0498 12 14.0498Z" fill="#10100F"/>
<path fill-rule="evenodd" clip-rule="evenodd" d="M12 1C14.8165 1.00001 17.0994 3.28315 17.0996 6.09961V6.59961C17.0996 6.93098 16.8314 7.2002 16.5 7.2002C16.1686 7.20019 15.9004 6.93098 15.9004 6.59961V6.09961C15.9002 3.94589 14.1538 2.20021 12 2.2002C9.84623 2.2002 8.09982 3.94588 8.09961 6.09961V9.0498H17C19.2091 9.0498 20.9999 10.8408 21 13.0498V19C21 21.2091 19.2091 23 17 23H7C4.79086 23 3 21.2091 3 19V13.0498C3.00012 10.8408 4.79093 9.0498 7 9.0498H6.90039V6.09961C6.9006 3.28314 9.18349 1.00001 12 1ZM7 10.25C5.45367 10.25 4.20031 11.5035 4.2002 13.0498V19C4.2002 20.5464 5.4536 21.7998 7 21.7998H17C18.5464 21.7998 19.7998 20.5464 19.7998 19V13.0498C19.7997 11.5035 18.5463 10.25 17 10.25H7Z" fill="#10100F"/>
</svg>
