<svg width="24" height="24" viewBox="0 0 24 24" fill="none" xmlns="http://www.w3.org/2000/svg">
<path d="M21.9004 1C22.2314 1.00022 22.4998 1.26855 22.5 1.59961V7.40039C22.4998 7.69004 22.2946 7.93223 22.0215 7.98828L21.9004 8H15.8428C15.5116 7.99988 15.2434 7.7315 15.2432 7.40039C15.2432 7.06909 15.5115 6.79993 15.8428 6.7998H20.8066C19.0736 4.03727 16.0018 2.2002 12.5 2.2002C7.08761 2.2002 2.7002 6.58761 2.7002 12C2.7002 17.4124 7.08761 21.7998 12.5 21.7998C15.0738 21.7998 17.4154 20.8073 19.1641 19.1846C19.3893 18.9756 19.734 18.9494 19.9775 19.1367C20.2604 19.3546 20.2942 19.77 20.0342 20.0146C18.0658 21.8657 15.4153 23 12.5 23C6.42487 23 1.5 18.0751 1.5 12C1.5 5.92487 6.42487 1 12.5 1C16.0984 1 19.2929 2.72812 21.2998 5.39941V1.59961C21.3 1.26841 21.5691 1 21.9004 1Z" fill="#10100F"/>
</svg>
