<svg width="24" height="24" viewBox="0 0 24 24" fill="none" xmlns="http://www.w3.org/2000/svg">
<path d="M12 5.90039C12.1537 5.90032 12.3076 5.95894 12.4248 6.07617L16.4248 10.0762C16.6587 10.3104 16.6587 10.6896 16.4248 10.9238C16.1905 11.1581 15.8105 11.1581 15.5762 10.9238L12.6006 7.94824V21.4004C12.6004 21.7316 12.3313 22 12 22C11.6689 21.9998 11.4006 21.7315 11.4004 21.4004V7.94824L8.4248 10.9238C8.19049 11.1581 7.81049 11.1581 7.57617 10.9238C7.34206 10.6895 7.34204 10.3104 7.57617 10.0762L11.5762 6.07617C11.6933 5.95909 11.8465 5.90047 12 5.90039Z" fill="#10100F"/>
<path d="M17.4004 2C19.9408 2 21.9998 4.05929 22 6.59961L22.001 15.4004C22.0008 17.9407 19.9408 20 17.4004 20H15.9004C15.5692 19.9999 15.301 19.7316 15.3008 19.4004C15.3008 19.0691 15.5691 18.7999 15.9004 18.7998H17.4004C19.278 18.7998 20.8006 17.278 20.8008 15.4004V6.59961C20.8006 4.72203 19.278 3.2002 17.4004 3.2002H6.60059C4.72295 3.2002 3.20041 4.72202 3.2002 6.59961V15.4004C3.20039 17.2779 4.72214 18.7996 6.59961 18.7998H8.09961C8.43098 18.7998 8.7002 19.069 8.7002 19.4004C8.7 19.7316 8.43086 20 8.09961 20H6.59961C4.0594 19.9998 2.00019 17.9406 2 15.4004V6.59961C2.00021 4.05928 4.06021 2 6.60059 2H17.4004Z" fill="#10100F"/>
</svg>
