<svg width="24" height="24" viewBox="0 0 24 24" fill="none" xmlns="http://www.w3.org/2000/svg">
<path d="M4.5761 11.9754C4.81043 11.7414 5.19053 11.7412 5.42473 11.9754C5.65893 12.2096 5.6587 12.5897 5.42473 12.824L4.32415 13.9246C2.73623 15.5128 2.73623 18.0874 4.32415 19.6756C5.91237 21.2638 8.48787 21.2638 10.0761 19.6756L11.1757 18.576C11.41 18.3416 11.79 18.3416 12.0243 18.576C12.2586 18.8103 12.2586 19.1903 12.0243 19.4246L10.9247 20.5242C8.86788 22.5811 5.53237 22.5811 3.47551 20.5242C1.41897 18.4674 1.41897 15.1327 3.47551 13.076L4.5761 11.9754Z" fill="#10100F"/>
<path d="M16.0761 7.07595C16.3104 6.84168 16.6904 6.84165 16.9247 7.07595C17.1588 7.31027 17.1589 7.69035 16.9247 7.92459L7.92473 16.9246C7.6905 17.1588 7.31043 17.1587 7.0761 16.9246C6.84179 16.6903 6.84179 16.3103 7.0761 16.076L16.0761 7.07595Z" fill="#10100F"/>
<path d="M13.0761 3.47537C15.1329 1.41858 18.4675 1.41881 20.5243 3.47537C22.5812 5.53222 22.5812 8.86773 20.5243 10.9246L19.4247 12.0242C19.1904 12.2585 18.8104 12.2585 18.5761 12.0242C18.3418 11.7899 18.3418 11.4099 18.5761 11.1756L19.6757 10.076C21.2639 8.48773 21.2639 5.91223 19.6757 4.324C18.0874 2.73597 15.5128 2.73594 13.9247 4.324L12.8241 5.42459C12.5898 5.65865 12.2097 5.65882 11.9755 5.42459C11.7413 5.19035 11.7415 4.81028 11.9755 4.57595L13.0761 3.47537Z" fill="#10100F"/>
</svg>
