<svg width="24" height="24" viewBox="0 0 24 24" fill="none" xmlns="http://www.w3.org/2000/svg">
<path fill-rule="evenodd" clip-rule="evenodd" d="M7.34461 14.3538C8.64909 14.3538 9.7067 15.4109 9.70692 16.7151C9.70692 18.0195 8.64922 19.0774 7.34461 19.0774C6.04005 19.0774 4.98231 18.0195 4.98231 16.7151C4.98252 15.4109 6.04018 14.3538 7.34461 14.3538ZM7.34461 15.5569C6.70488 15.557 6.18662 16.0755 6.18641 16.7151C6.18641 17.3549 6.70474 17.8742 7.34461 17.8743C7.98452 17.8743 8.50379 17.3549 8.50379 16.7151C8.50358 16.0755 7.98439 15.5569 7.34461 15.5569Z" fill="#10100F"/>
<path d="M18.1259 7.48953C18.3608 7.25471 18.7415 7.25479 18.9764 7.48953C19.2114 7.72449 19.2114 8.10514 18.9764 8.34012L18.0097 9.30691C17.7746 9.54189 17.3941 9.54189 17.1591 9.30691C16.9241 9.07193 16.9241 8.69127 17.1591 8.45633L18.1259 7.48953Z" fill="#10100F"/>
<path d="M15.6805 5.05008C15.9155 4.81542 16.2962 4.81549 16.5311 5.05008C16.7661 5.28505 16.7661 5.66666 16.5311 5.90164L15.5643 6.86844C15.3294 7.10311 14.9487 7.10305 14.7138 6.86844C14.4787 6.63346 14.4787 6.25185 14.7138 6.01687L15.6805 5.05008Z" fill="#10100F"/>
<path fill-rule="evenodd" clip-rule="evenodd" d="M14.2557 2.60965C15.0692 1.79676 16.3876 1.79681 17.2011 2.60965L21.3895 6.79715C22.2031 7.6106 22.2031 8.92999 21.3895 9.74344L18.8768 12.2542L18.995 12.3723C19.4014 12.779 19.4014 13.4383 18.995 13.845L12.6688 20.1692C10.2281 22.6096 6.27162 22.6096 3.83094 20.1692C1.39038 17.7289 1.3903 13.7726 3.83094 11.3323L10.1561 5.00808C10.5629 4.60138 11.222 4.60144 11.6288 5.00808L11.7421 5.12137L14.2557 2.60965ZM4.68153 12.1829C2.71091 14.1532 2.71103 17.3482 4.68153 19.3186C6.6522 21.289 9.84757 21.289 11.8182 19.3186L18.0292 13.1087L10.8925 5.97293L4.68153 12.1829ZM16.3505 3.46121C16.0069 3.11778 15.4499 3.11773 15.1063 3.46121L12.5936 5.97195L18.0263 11.4036L20.5389 8.89285C20.8824 8.54945 20.8822 7.99224 20.5389 7.64871L16.3505 3.46121Z" fill="#10100F"/>
</svg>
