<svg width="24" height="24" viewBox="0 0 24 24" fill="none" xmlns="http://www.w3.org/2000/svg">
<path d="M7.34613 15.5567C7.98571 15.557 8.50434 16.0753 8.50434 16.7149C8.50433 17.3545 7.9857 17.8728 7.34613 17.8731C6.7063 17.8731 6.18696 17.3547 6.18695 16.7149C6.18695 16.0751 6.70629 15.5567 7.34613 15.5567Z" fill="#10100F"/>
<path fill-rule="evenodd" clip-rule="evenodd" d="M10.1596 5.00491C10.5652 4.59977 11.2229 4.59968 11.6284 5.00491L18.9975 12.3741C19.4026 12.7796 19.4028 13.4374 18.9975 13.8428L12.6577 20.1817C10.2241 22.6147 6.26592 22.6022 3.83246 20.169C1.39899 17.7355 1.38721 13.7772 3.82074 11.3438L10.1596 5.00491ZM7.34613 14.3535C6.04167 14.3535 4.98383 15.4105 4.98383 16.7149C4.98384 18.0193 6.04167 19.0762 7.34613 19.0762C8.65033 19.0759 9.70746 18.0191 9.70746 16.7149C9.70746 15.4107 8.65033 14.3539 7.34613 14.3535Z" fill="#10100F"/>
<path d="M14.2543 2.60941C15.0677 1.79618 16.3872 1.79625 17.2006 2.60941L21.3881 6.79691C22.2016 7.61033 22.2016 8.92977 21.3881 9.74319L19.3002 11.8301L18.4487 10.9795L20.5375 8.89163C20.8805 8.54824 20.8805 7.99185 20.5375 7.64847L16.3491 3.46097C16.0056 3.11772 15.4493 3.11764 15.1059 3.46097L13.017 5.54788L12.1664 4.69632L14.2543 2.60941Z" fill="#10100F"/>
<path d="M18.1264 7.48929C18.3614 7.25432 18.743 7.25432 18.978 7.48929C19.2127 7.72418 19.2126 8.10493 18.978 8.33987L18.0112 9.30667C17.7762 9.54164 17.3946 9.54164 17.1596 9.30667C16.925 9.07172 16.9249 8.69096 17.1596 8.45609L18.1264 7.48929Z" fill="#10100F"/>
<path d="M15.6811 5.04984C15.9161 4.81488 16.2977 4.8149 16.5327 5.04984C16.7676 5.2848 16.7676 5.66643 16.5327 5.9014L15.5659 6.86819C15.3309 7.10315 14.9493 7.10314 14.7143 6.86819C14.4793 6.63323 14.4793 6.2516 14.7143 6.01663L15.6811 5.04984Z" fill="#10100F"/>
</svg>
