<svg width="24" height="24" viewBox="0 0 24 24" fill="none" xmlns="http://www.w3.org/2000/svg">
<path fill-rule="evenodd" clip-rule="evenodd" d="M12 1C12.3678 1 12.7359 1.11124 13.0547 1.33398C15.0533 2.73231 17.101 3.52466 19.21 3.72266C20.2153 3.82173 21 4.63865 21 5.65332V14.4619C20.9997 17.8896 16.8062 20.8722 14.1455 22.4189C13.4835 22.8024 12.7355 23 12 23C11.2645 23 10.5165 22.8024 9.85449 22.4189C7.19384 20.8722 3.00034 17.8896 3 14.4619V5.65332C3 4.63865 3.78467 3.82173 4.79004 3.72266C6.89901 3.52466 8.9467 2.73231 10.9453 1.33398C11.2519 1.11124 11.6322 1 12 1ZM16.415 8.56641C16.1757 8.33757 15.7964 8.34581 15.5674 8.58496L10.9229 13.4404L8.76855 11.4746C8.52384 11.2513 8.14427 11.2691 7.9209 11.5137C7.69761 11.7584 7.71434 12.138 7.95898 12.3613L10.5469 14.7217C10.7876 14.9413 11.1595 14.9288 11.3848 14.6934L16.4346 9.41504C16.6636 9.17558 16.6545 8.79546 16.415 8.56641Z" fill="#10100F"/>
</svg>
