<svg width="24" height="24" viewBox="0 0 24 24" fill="none" xmlns="http://www.w3.org/2000/svg">
<path d="M15.5674 8.58496C15.7964 8.34581 16.1757 8.33757 16.415 8.56641C16.6545 8.79546 16.6636 9.17558 16.4346 9.41504L11.3848 14.6934C11.1595 14.9288 10.7876 14.9413 10.5469 14.7217L7.95898 12.3613C7.71434 12.138 7.69761 11.7584 7.9209 11.5137C8.14427 11.2691 8.52384 11.2513 8.76855 11.4746L10.9229 13.4404L15.5674 8.58496Z" fill="#10100F"/>
<path fill-rule="evenodd" clip-rule="evenodd" d="M12 1C12.3678 1 12.7359 1.11124 13.0547 1.33398C15.0533 2.73231 17.101 3.52466 19.21 3.72266C20.2153 3.82173 21 4.63865 21 5.65332V14.4619C20.9997 17.8896 16.8062 20.8722 14.1455 22.4189C13.4835 22.8024 12.7355 23 12 23C11.2645 23 10.5165 22.8024 9.85449 22.4189C7.19384 20.8722 3.00034 17.8896 3 14.4619V5.65332C3 4.63865 3.78467 3.82173 4.79004 3.72266C6.89901 3.52466 8.9467 2.73231 10.9453 1.33398C11.2519 1.11124 11.6322 1 12 1ZM12 2.22559C11.8651 2.22559 11.7426 2.26267 11.6445 2.33691C9.49879 3.84658 7.23004 4.72452 4.90039 4.94727C4.50809 4.98444 4.22656 5.28212 4.22656 5.65332V14.4736C4.22656 16.5402 6.49502 19.0528 10.4678 21.3545C10.9336 21.6266 11.4607 21.7754 12 21.7754C12.5393 21.7754 13.0664 21.6266 13.5322 21.3545C17.4927 19.0528 19.7734 16.5402 19.7734 14.4736V5.66504C19.7733 5.29396 19.4918 4.99714 19.0996 4.95996C16.7699 4.73721 14.5012 3.85836 12.3555 2.34863C12.2819 2.29301 12.1946 2.25804 12.0986 2.24414L12 2.22559Z" fill="#10100F"/>
</svg>
