<svg width="24" height="24" viewBox="0 0 24 24" fill="none" xmlns="http://www.w3.org/2000/svg">
<path fill-rule="evenodd" clip-rule="evenodd" d="M5.75195 3C7.01603 3 8.12311 3.67043 8.73828 4.6748C9.3535 3.67062 10.4607 3.00098 11.7246 3.00098C13.6576 3.00098 15.2246 4.56798 15.2246 6.50098C15.2245 7.48281 14.8193 8.36936 14.168 9.00488C15.3204 9.06848 16.2975 9.78354 16.7422 10.7871L20.4512 9.72852C21.7284 9.36404 22.9997 10.3231 23 11.6514V18.3486C22.9999 19.6772 21.7286 20.6362 20.4512 20.2715L16.7432 19.2109C16.2776 20.2643 15.2257 21 14 21H4C2.34315 21 1 19.6569 1 18V12C1.00018 10.5584 2.01732 9.3547 3.37305 9.06641C2.68376 8.42718 2.25195 7.5142 2.25195 6.5C2.25195 4.567 3.81896 3 5.75195 3ZM8.7373 8.3252C8.58613 8.57193 8.40583 8.7986 8.2002 9H9.27539C9.06973 8.79845 8.88845 8.57211 8.7373 8.3252ZM11.7246 4.2002C10.4544 4.2002 9.4248 5.23072 9.4248 6.50098C9.42507 7.77101 10.4545 8.80078 11.7246 8.80078C12.9947 8.80078 14.0241 7.77101 14.0244 6.50098C14.0244 5.23072 12.9949 4.2002 11.7246 4.2002ZM5.75195 4.2002C4.4817 4.2002 3.45215 5.22975 3.45215 6.5C3.45215 7.77026 4.4817 8.7998 5.75195 8.7998C7.02221 8.7998 8.05176 7.77026 8.05176 6.5C8.05176 5.22975 7.02221 4.2002 5.75195 4.2002Z" fill="#10100F"/>
</svg>
