<svg width="24" height="24" viewBox="0 0 24 24" fill="none" xmlns="http://www.w3.org/2000/svg">
<path fill-rule="evenodd" clip-rule="evenodd" d="M11.7266 3C13.6596 3 15.2266 4.567 15.2266 6.5C15.2266 7.4824 14.8208 8.36921 14.1689 9.00488C15.3208 9.06883 16.2975 9.78311 16.7422 10.7861L20.4502 9.72852C21.7277 9.36356 22.9997 10.3228 23 11.6514V18.3486C23 19.6774 21.7278 20.6365 20.4502 20.2715L16.7422 19.2119C16.2763 20.2645 15.2252 21 14 21H4C2.34315 21 1 19.6569 1 18V12C1 10.5585 2.01663 9.35405 3.37207 9.06543C2.68338 8.42625 2.25195 7.51371 2.25195 6.5C2.25195 4.567 3.81896 3 5.75195 3C7.01651 3 8.12423 3.67077 8.73926 4.67578C9.35429 3.67077 10.462 3 11.7266 3ZM4 10.2002C3.00589 10.2002 2.2002 11.0059 2.2002 12V18C2.2002 18.9941 3.00589 19.7998 4 19.7998H14C14.9941 19.7998 15.7998 18.9941 15.7998 18V12C15.7998 11.0059 14.9941 10.2002 14 10.2002H4ZM21.7998 11.6514C21.7995 11.1201 21.2912 10.7369 20.7803 10.8828L16.999 11.9619C16.9992 11.9746 17 11.9873 17 12V18C17 18.0124 16.9992 18.0248 16.999 18.0371L20.7803 19.1182C21.2913 19.2641 21.7998 18.8801 21.7998 18.3486V11.6514ZM8.73926 8.32324C8.5878 8.57087 8.40646 8.79798 8.2002 9H9.27832C9.07205 8.79798 8.89072 8.57087 8.73926 8.32324ZM5.75195 4.2002C4.4817 4.2002 3.45215 5.22975 3.45215 6.5C3.45215 7.77026 4.4817 8.7998 5.75195 8.7998C7.02221 8.7998 8.05176 7.77026 8.05176 6.5C8.05176 5.22975 7.02221 4.2002 5.75195 4.2002ZM11.7266 4.2002C10.4563 4.2002 9.42676 5.22975 9.42676 6.5C9.42676 7.77026 10.4563 8.7998 11.7266 8.7998C12.9968 8.7998 14.0264 7.77026 14.0264 6.5C14.0264 5.22975 12.9968 4.2002 11.7266 4.2002Z" fill="#10100F"/>
</svg>
