<svg width="24" height="24" viewBox="0 0 24 24" fill="none" xmlns="http://www.w3.org/2000/svg">
<path fill-rule="evenodd" clip-rule="evenodd" d="M22 20C22 21.1046 21.1046 22 20 22H4C2.89543 22 2 21.1046 2 20V16.5H22V20ZM3.2002 20C3.2002 20.4418 3.55817 20.7998 4 20.7998H20C20.4418 20.7998 20.7998 20.4418 20.7998 20V17.7002H3.2002V20Z" fill="#10100F"/>
<path fill-rule="evenodd" clip-rule="evenodd" d="M22 9.5V14.5H2V9.5H22ZM3.2002 13.2998H20.7998V10.7002H3.2002V13.2998Z" fill="#10100F"/>
<path fill-rule="evenodd" clip-rule="evenodd" d="M20 2C21.1046 2 22 2.89543 22 4V7.5H2V4C2 2.89543 2.89543 2 4 2H20ZM4 3.2002C3.55817 3.2002 3.2002 3.55817 3.2002 4V6.2998H20.7998V4C20.7998 3.55817 20.4418 3.2002 20 3.2002H4Z" fill="#10100F"/>
</svg>
