<svg width="24" height="24" viewBox="0 0 24 24" fill="none" xmlns="http://www.w3.org/2000/svg">
<path d="M22 20C22 20.1331 21.9857 20.2629 21.9609 20.3887C21.9567 20.41 21.9512 20.431 21.9463 20.4521C21.9378 20.4887 21.9284 20.5248 21.918 20.5605C21.9099 20.5882 21.9008 20.6154 21.8916 20.6426C21.8852 20.6616 21.881 20.6815 21.874 20.7002C21.8687 20.7144 21.8621 20.7281 21.8564 20.7422C21.8487 20.7616 21.8404 20.7807 21.832 20.7998C21.8154 20.838 21.7973 20.8752 21.7783 20.9121C21.7693 20.9297 21.7605 20.9475 21.751 20.9648C21.724 21.0137 21.6949 21.0612 21.6641 21.1074C21.6547 21.1214 21.6444 21.1347 21.6348 21.1484C21.6099 21.1837 21.5846 21.2184 21.5576 21.252C21.5453 21.2673 21.5323 21.2819 21.5195 21.2969C21.4915 21.3297 21.4627 21.3616 21.4326 21.3926C21.4231 21.4023 21.414 21.4123 21.4043 21.4219C21.3195 21.5056 21.2275 21.5818 21.1289 21.6494C21.118 21.6569 21.1067 21.6637 21.0957 21.6709C21.0559 21.697 21.0153 21.7218 20.9736 21.7451C20.9603 21.7526 20.9471 21.7604 20.9336 21.7676C20.8893 21.791 20.8441 21.8129 20.7979 21.833C20.789 21.8369 20.7804 21.841 20.7715 21.8447C20.7176 21.8673 20.6626 21.8874 20.6064 21.9053C20.5913 21.9101 20.5758 21.9135 20.5605 21.918C20.5136 21.9317 20.4662 21.9438 20.418 21.9541C20.4069 21.9565 20.3959 21.9588 20.3848 21.9609C20.3295 21.9717 20.2736 21.9802 20.2168 21.9863C20.2103 21.987 20.2038 21.9886 20.1973 21.9893C20.1323 21.9956 20.0666 22 20 22H4L3.84082 21.9941C3.82772 21.9931 3.81479 21.9905 3.80176 21.9893C3.7952 21.9886 3.78876 21.987 3.78223 21.9863C3.72544 21.9802 3.66952 21.9717 3.61426 21.9609C3.60314 21.9588 3.5921 21.9565 3.58105 21.9541C3.5328 21.9438 3.48537 21.9317 3.43848 21.918C3.42321 21.9135 3.40769 21.9101 3.39258 21.9053C3.33645 21.8874 3.28139 21.8673 3.22754 21.8447C3.21866 21.841 3.20998 21.8369 3.20117 21.833C3.15497 21.8128 3.10973 21.7911 3.06543 21.7676C3.05189 21.7604 3.03874 21.7526 3.02539 21.7451C2.98372 21.7218 2.94308 21.6971 2.90332 21.6709C2.8923 21.6636 2.88099 21.6569 2.87012 21.6494C2.77156 21.5818 2.67947 21.5056 2.59473 21.4219C2.58506 21.4123 2.57588 21.4023 2.56641 21.3926C2.53636 21.3616 2.50751 21.3297 2.47949 21.2969C2.46674 21.2819 2.45372 21.2673 2.44141 21.252C2.41444 21.2184 2.38906 21.1837 2.36426 21.1484C2.35459 21.1347 2.34429 21.1214 2.33496 21.1074C2.30414 21.0612 2.27501 21.0137 2.24805 20.9648C2.24586 20.9609 2.24337 20.9571 2.24121 20.9531L2.18457 20.8398C2.1785 20.8267 2.17376 20.8131 2.16797 20.7998C2.15962 20.7807 2.15132 20.7616 2.14355 20.7422C2.13792 20.7281 2.1313 20.7144 2.12598 20.7002C2.11895 20.6814 2.1139 20.6617 2.10742 20.6426C2.0982 20.6154 2.08912 20.5882 2.08105 20.5605C2.07063 20.5248 2.06119 20.4887 2.05273 20.4521C2.04785 20.431 2.04229 20.41 2.03809 20.3887C2.01332 20.2629 2 20.133 2 20V19.5H22V20Z" fill="#10100F"/>
<path d="M22 17.5H2V15H22V17.5Z" fill="#10100F"/>
<path d="M22 13H2V10.5H22V13Z" fill="#10100F"/>
<path d="M22 8.5H2V6H22V8.5Z" fill="#10100F"/>
<path d="M20 2C20.0666 2 20.1324 2.00341 20.1973 2.00977C20.2038 2.01041 20.2103 2.01199 20.2168 2.0127C20.2736 2.01882 20.3295 2.02731 20.3848 2.03809C20.3959 2.04025 20.4069 2.04257 20.418 2.04492C20.4662 2.05518 20.5137 2.06738 20.5605 2.08105C20.5718 2.08435 20.5835 2.08636 20.5947 2.08984L20.6152 2.09668C20.6635 2.11229 20.7112 2.12933 20.7578 2.14844L20.7783 2.15723C20.7849 2.16001 20.7913 2.16317 20.7979 2.16602C20.8441 2.18614 20.8893 2.20801 20.9336 2.23145C20.9471 2.23861 20.9603 2.24644 20.9736 2.25391C21.0153 2.2772 21.0559 2.30201 21.0957 2.32812C21.1067 2.33537 21.118 2.34216 21.1289 2.34961C21.2275 2.41718 21.3195 2.49345 21.4043 2.57715C21.414 2.58669 21.4231 2.59671 21.4326 2.60645C21.4627 2.63735 21.4915 2.66935 21.5195 2.70215C21.5323 2.71708 21.5453 2.73177 21.5576 2.74707C21.5846 2.78059 21.6099 2.81534 21.6348 2.85059C21.6444 2.86432 21.6547 2.87761 21.6641 2.8916C21.6949 2.93784 21.724 2.98533 21.751 3.03418C21.7606 3.0515 21.7692 3.06928 21.7783 3.08691C21.7968 3.12274 21.8138 3.15925 21.8301 3.19629C21.8379 3.21405 21.8452 3.23197 21.8525 3.25C21.8593 3.26673 21.8677 3.28285 21.874 3.2998C21.8809 3.31823 21.8853 3.33777 21.8916 3.35645C21.9008 3.3836 21.9099 3.41081 21.918 3.43848C21.9284 3.47424 21.9378 3.51032 21.9463 3.54688C21.9512 3.56799 21.9567 3.58898 21.9609 3.61035C21.9859 3.73645 22 3.86659 22 4V4.5H2V4C2 3.86666 2.01319 3.73639 2.03809 3.61035C2.0423 3.58899 2.04784 3.56799 2.05273 3.54688C2.0612 3.51033 2.07061 3.47422 2.08105 3.43848C2.08913 3.41082 2.09819 3.38359 2.10742 3.35645C2.1138 3.33767 2.11906 3.31833 2.12598 3.2998C2.13227 3.28296 2.13975 3.26662 2.14648 3.25C2.15378 3.23198 2.16114 3.21404 2.16895 3.19629C2.18522 3.15926 2.20229 3.12273 2.2207 3.08691C2.22977 3.06929 2.23848 3.0515 2.24805 3.03418C2.27503 2.98534 2.30412 2.93783 2.33496 2.8916C2.34429 2.87762 2.35459 2.86432 2.36426 2.85059C2.38185 2.82559 2.39927 2.8005 2.41797 2.77637L2.45703 2.72754C2.46423 2.71882 2.47215 2.71074 2.47949 2.70215C2.50751 2.66935 2.53636 2.63735 2.56641 2.60645C2.57299 2.59968 2.57926 2.59261 2.58594 2.58594L2.61719 2.55469C2.6956 2.47965 2.78033 2.41119 2.87012 2.34961C2.88099 2.34215 2.8923 2.33537 2.90332 2.32812C2.94307 2.302 2.98373 2.27721 3.02539 2.25391C3.03874 2.24644 3.05189 2.23861 3.06543 2.23145C3.10972 2.20799 3.15499 2.18616 3.20117 2.16602C3.20998 2.16217 3.21866 2.15802 3.22754 2.1543C3.28137 2.13174 3.33648 2.11161 3.39258 2.09375C3.40768 2.08894 3.42322 2.08551 3.43848 2.08105C3.48535 2.06736 3.53282 2.05521 3.58105 2.04492C3.5921 2.04257 3.60315 2.04026 3.61426 2.03809C3.66949 2.02729 3.72547 2.01884 3.78223 2.0127C3.78876 2.01199 3.79521 2.01041 3.80176 2.00977C3.86697 2.00335 3.9331 2 4 2H20Z" fill="#10100F"/>
</svg>
