<svg width="24" height="24" viewBox="0 0 24 24" fill="none" xmlns="http://www.w3.org/2000/svg">
<path fill-rule="evenodd" clip-rule="evenodd" d="M12 8.18225C14.0895 8.18235 15.783 9.89114 15.7832 11.9996C15.7832 14.1083 14.0896 15.8179 12 15.818C9.91032 15.818 8.21582 14.1084 8.21582 11.9996C8.21602 9.89108 9.91044 8.18225 12 8.18225ZM12 9.38147C10.5672 9.38147 9.40547 10.5538 9.40527 11.9996C9.40527 13.4456 10.5671 14.6178 12 14.6178C13.4328 14.6177 14.5947 13.4456 14.5947 11.9996C14.5945 10.5539 13.4327 9.38157 12 9.38147Z" fill="#10100F"/>
<path fill-rule="evenodd" clip-rule="evenodd" d="M12 4.40002C15.1962 4.40002 17.7193 5.69081 19.542 7.2467C21.3542 8.79374 22.4999 10.6239 22.957 11.777C22.9624 11.7905 22.9644 11.8053 22.9688 11.819C22.9756 11.8406 22.9829 11.862 22.9873 11.8844C22.9906 11.9013 22.9913 11.9183 22.9932 11.9352C22.9955 11.9566 22.999 11.9779 22.999 11.9996C22.999 12.0214 22.9955 12.0426 22.9932 12.0641C22.9913 12.081 22.9906 12.098 22.9873 12.1149C22.9822 12.1409 22.9742 12.166 22.9658 12.191C22.9624 12.2014 22.9611 12.213 22.957 12.2233C22.4998 13.3764 21.3533 15.2065 19.541 16.7535C17.7184 18.3093 15.1961 19.6002 12 19.6002C8.80377 19.6002 6.2807 18.3094 4.45801 16.7535C2.64586 15.2066 1.50017 13.3764 1.04297 12.2233C1.03636 12.2066 1.03336 12.1884 1.02832 12.1715C1.0227 12.1526 1.01549 12.1343 1.01172 12.1149C1.00844 12.098 1.00767 12.081 1.00586 12.0641C1.00397 12.0465 1.00034 12.0291 1 12.0114V11.9889C1.00034 11.9708 1.00391 11.953 1.00586 11.9352C1.00769 11.9183 1.00842 11.9013 1.01172 11.8844C1.01727 11.856 1.02568 11.8285 1.03516 11.8014C1.03793 11.7934 1.03984 11.7849 1.04297 11.777C1.04384 11.7748 1.04405 11.7723 1.04492 11.7701C1.0468 11.7656 1.04879 11.761 1.05078 11.7565C1.51329 10.6022 2.65723 8.78474 4.45898 7.2467C6.28164 5.69088 8.80387 4.40003 12 4.40002ZM12 5.60022C9.1423 5.60022 6.88278 6.74892 5.22656 8.16272C3.68199 9.48122 2.68435 11.0119 2.24121 11.9996C2.68423 12.9873 3.68167 14.5188 5.22656 15.8375C6.88279 17.2513 9.14238 18.4 12 18.4C14.8576 18.4 17.1172 17.2513 18.7734 15.8375C20.3181 14.5189 21.3147 12.9873 21.7578 11.9996C21.3146 11.0119 20.3178 9.48104 18.7734 8.16272C17.1172 6.74892 14.8577 5.60022 12 5.60022Z" fill="#10100F"/>
</svg>
