<svg width="24" height="24" viewBox="0 0 24 24" fill="none" xmlns="http://www.w3.org/2000/svg">
<path fill-rule="evenodd" clip-rule="evenodd" d="M19.6102 16.7535C21.4389 15.2067 22.5953 13.3768 23.0567 12.2236C23.086 12.1505 23.1002 12.0742 23.1001 12C23.1002 11.9337 23.0891 11.8664 23.0659 11.8007C23.0629 11.7921 23.0597 11.7836 23.0563 11.7752C22.5945 10.622 21.4382 8.79282 19.6102 7.24645C17.7709 5.69056 15.2253 4.39999 11.9999 4.39999C8.77457 4.39999 6.22898 5.69056 4.38971 7.24646C2.56093 8.79348 1.40445 10.6235 0.943074 11.7767C0.88647 11.9182 0.887371 12.069 0.934992 12.202C0.937675 12.2095 0.940507 12.2169 0.943484 12.2243C1.40514 13.3775 2.5615 15.207 4.38977 16.7535C6.22907 18.3094 8.77468 19.6 12 19.6C15.2254 19.6 17.771 18.3094 19.6102 16.7535ZM14.6182 12C14.6182 13.446 13.446 14.6182 12 14.6182C10.554 14.6182 9.3818 13.446 9.3818 12C9.3818 10.554 10.554 9.38182 12 9.38182C13.446 9.38182 14.6182 10.554 14.6182 12ZM15.8182 12C15.8182 14.1087 14.1087 15.8182 12 15.8182C9.89125 15.8182 8.1818 14.1087 8.1818 12C8.1818 9.89128 9.89125 8.18182 12 8.18182C14.1087 8.18182 15.8182 9.89128 15.8182 12Z" fill="#10100F"/>
</svg>
