<svg width="24" height="24" viewBox="0 0 24 24" fill="none" xmlns="http://www.w3.org/2000/svg">
<path d="M17.3566 18.7534C15.8587 19.5578 14.0707 20.1 12.0002 20.1C8.80407 20.1 6.28085 18.8092 4.4582 17.2534C2.64662 15.7069 1.50061 13.8772 1.04316 12.7241C1.04025 12.7168 1.03797 12.709 1.03535 12.7016C1.00001 12.6019 0.989812 12.4924 1.01093 12.3842L1.04316 12.2768C1.50032 11.1238 2.6462 9.29346 4.4582 7.74652C4.80995 7.44626 5.18829 7.1554 5.59199 6.88227L17.3566 18.7534Z" fill="#10100F"/>
<path d="M5.13886 4.07563C5.37106 3.84149 5.74754 3.84141 5.97968 4.07563L7.65449 5.76508C8.92694 5.23347 10.3767 4.89987 12.0002 4.89985C15.1964 4.89986 17.7195 6.19067 19.5422 7.74652C21.3535 9.29279 22.4996 11.1217 22.9572 12.2748C22.9605 12.2831 22.9631 12.2918 22.966 12.3002C22.9889 12.3658 23.0002 12.4333 23.0002 12.4995C23.0002 12.5366 22.9965 12.5745 22.9895 12.6118L22.9572 12.7231C22.4999 13.8762 21.3541 15.7066 19.5422 17.2534C19.4519 17.3304 19.3586 17.4062 19.2648 17.4819L20.3488 18.5756C20.5808 18.8099 20.5809 19.19 20.3488 19.4243C20.1167 19.6583 19.7402 19.6583 19.508 19.4243L14.9768 14.852C15.4808 14.2034 15.7844 13.3876 15.7844 12.4995C15.7841 10.3909 14.0897 8.68207 12.0002 8.68207C11.1198 8.68208 10.311 8.98672 9.66816 9.49555L5.13886 4.92426C4.90676 4.69 4.90685 4.30994 5.13886 4.07563Z" fill="#10100F"/>
<path d="M12.0002 9.88129C13.433 9.88129 14.5947 11.0537 14.5949 12.4995C14.5949 13.0558 14.4204 13.5704 14.1271 13.9946L10.5178 10.352C10.9381 10.056 11.4488 9.8813 12.0002 9.88129Z" fill="#10100F"/>
</svg>
