<svg width="24" height="24" viewBox="0 0 24 24" fill="none" xmlns="http://www.w3.org/2000/svg">
<path fill-rule="evenodd" clip-rule="evenodd" d="M4.14748 4.07571C4.37968 3.84144 4.75611 3.84141 4.9883 4.07571L6.64357 5.74563C8.14155 4.94121 9.92954 4.39993 12 4.39993C15.1962 4.39994 17.7193 5.69072 19.542 7.24661C21.3533 8.79288 22.4995 10.6218 22.957 11.7749C22.9604 11.7832 22.9629 11.7919 22.9658 11.8003C22.9888 11.8659 23 11.9334 23 11.9995C23 12.0367 22.9963 12.0745 22.9893 12.1118L22.957 12.2232C22.4998 13.3763 21.3541 15.2065 19.542 16.7534C19.19 17.0539 18.8102 17.3425 18.4063 17.6157L19.8526 19.0757C20.0848 19.31 20.0848 19.69 19.8526 19.9243C19.6203 20.1584 19.2439 20.1586 19.0117 19.9243L4.14748 4.92434C3.91528 4.69002 3.91528 4.31002 4.14748 4.07571ZM12 5.60012C10.2961 5.60012 8.80489 6.00869 7.52736 6.63821L9.77931 8.91067C10.4032 8.4532 11.1698 8.18215 12 8.18215C14.0896 8.18218 15.783 9.89101 15.7832 11.9995C15.7832 12.8372 15.5148 13.6112 15.0615 14.2407L17.5469 16.7495C17.9865 16.4655 18.3963 16.1594 18.7735 15.8374C20.3182 14.5188 21.3157 12.9872 21.7588 11.9995C21.3156 11.0118 20.318 9.48111 18.7735 8.16262C17.1172 6.74883 14.8577 5.60014 12 5.60012ZM12 9.38137C11.499 9.38137 11.0314 9.52571 10.6348 9.77395L14.2041 13.3765C14.4501 12.9762 14.5947 12.5052 14.5947 11.9995C14.5945 10.5538 13.4328 9.3814 12 9.38137Z" fill="#10100F"/>
<path d="M5.54494 7.89993C5.43645 7.9862 5.33033 8.07405 5.22658 8.16262C3.68202 9.4811 2.68438 11.0118 2.24123 11.9995C2.68431 12.9872 3.68181 14.5188 5.22658 15.8374C6.88281 17.2512 9.14239 18.3999 12 18.3999C13.2389 18.3999 14.3653 18.1836 15.3789 17.8238L16.3008 18.7544C15.0392 19.2751 13.6044 19.6001 12 19.6001C8.8038 19.6001 6.28072 18.3093 4.45802 16.7534C2.64636 15.2069 1.50042 13.3773 1.04298 12.2241C0.989282 12.0896 0.983932 11.9354 1.0381 11.7896L1.04298 11.7769C1.50012 10.6238 2.64584 8.79365 4.45802 7.24661C4.53669 7.17945 4.61699 7.11249 4.69826 7.04641L5.54494 7.89993Z" fill="#10100F"/>
</svg>
