<svg width="24" height="24" viewBox="0 0 24 24" fill="none" xmlns="http://www.w3.org/2000/svg">
<path fill-rule="evenodd" clip-rule="evenodd" d="M14 2C15.6569 2 17 3.34315 17 5C18.6569 5 20 6.34315 20 8V10.1709C19.9827 10.1648 19.9647 10.1601 19.9473 10.1543C21.1397 10.551 22 11.6743 22 13C22 14.3255 21.1395 15.4479 19.9473 15.8447C19.9646 15.8389 19.9828 15.8352 20 15.8291V19C20 20.6569 18.6569 22 17 22H5C3.34315 22 2 20.6569 2 19V5C2 3.34315 3.34315 2 5 2H14ZM5 6.2002C4.00589 6.2002 3.2002 7.00589 3.2002 8V19C3.2002 19.9941 4.00589 20.7998 5 20.7998H17C17.9941 20.7998 18.7998 19.9941 18.7998 19V16H17C15.3431 16 14 14.6569 14 13C14 11.3431 15.3431 10 17 10H18.7998V8C18.7998 7.00589 17.9941 6.2002 17 6.2002H5ZM17 11.2002C16.0059 11.2002 15.2002 12.0059 15.2002 13C15.2002 13.9941 16.0059 14.7998 17 14.7998H19C19.9941 14.7998 20.7998 13.9941 20.7998 13C20.7998 12.0059 19.9941 11.2002 19 11.2002H17ZM2.5 6.34082C2.45438 6.40942 2.41204 6.48032 2.37207 6.55273C2.41567 6.47373 2.46238 6.39671 2.5127 6.32227L2.5 6.34082ZM5 3.2002C4.00589 3.2002 3.2002 4.00589 3.2002 5V5.59961C3.17208 5.62073 3.14453 5.64297 3.11719 5.66504C3.63204 5.24936 4.28676 5 5 5H15.7998C15.7998 4.00589 14.9941 3.2002 14 3.2002H5Z" fill="#10100F"/>
</svg>
