<svg width="24" height="24" viewBox="0 0 24 24" fill="none" xmlns="http://www.w3.org/2000/svg">
<path fill-rule="evenodd" clip-rule="evenodd" d="M12.0001 2C13.657 2 15.0001 3.34315 15.0001 5V7H16.3537L16.6017 7.00977C17.829 7.11083 18.8811 7.9575 19.2326 9.15527L21.8732 18.1553C22.4367 20.0762 20.9961 21.9999 18.9943 22H5.00697L4.82045 21.9941C2.91672 21.8792 1.58224 20.0161 2.12807 18.1553L4.76869 9.15527C5.14361 7.8778 6.31526 7.00013 7.64662 7H9.00014V5C9.00014 3.34315 10.3433 2 12.0001 2ZM12.0001 3.2002C11.006 3.2002 10.2003 4.00589 10.2003 5V7H13.7999V5C13.7999 4.00589 12.9942 3.2002 12.0001 3.2002Z" fill="#10100F"/>
</svg>
