<svg width="24" height="24" viewBox="0 0 24 24" fill="none" xmlns="http://www.w3.org/2000/svg">
<path fill-rule="evenodd" clip-rule="evenodd" d="M16.3537 7C17.6852 7 18.8576 7.87768 19.2326 9.15527L21.8732 18.1553C22.4367 20.0762 20.9961 21.9999 18.9943 22H5.00697C3.00505 22 1.56458 20.0763 2.12806 18.1553L4.76869 9.15527C5.14361 7.8778 6.31526 7.00013 7.64662 7H9.00013V5C9.00013 3.34315 10.3433 2 12.0001 2C13.657 2 15.0001 3.34315 15.0001 5V7H16.3537ZM13.7999 7V5C13.7999 4.00589 12.9942 3.2002 12.0001 3.2002C11.006 3.2002 10.2003 4.00589 10.2003 5V7H13.7999ZM7.64662 8.2002C6.84786 8.20033 6.145 8.72673 5.92006 9.49316L3.27943 18.4932C2.94134 19.6458 3.80582 20.7998 5.00697 20.7998H18.9943C20.1953 20.7997 21.0599 19.6457 20.7218 18.4932L18.0812 9.49316C17.8562 8.7266 17.1526 8.2002 16.3537 8.2002H7.64662Z" fill="#10100F"/>
</svg>
