<svg width="24" height="24" viewBox="0 0 24 24" fill="none" xmlns="http://www.w3.org/2000/svg">
<path d="M9.00977 7.2002C9.16051 7.21019 9.37225 7.15002 9.57324 7.62988C9.77409 8.1295 10.276 9.34814 10.3369 9.46973C10.3972 9.58973 10.4368 9.73039 10.3564 9.90039C10.2761 10.0602 10.226 10.1706 10.1055 10.3105C9.98491 10.4505 9.84389 10.6303 9.7334 10.7402C9.60284 10.8702 9.48255 11.0002 9.62305 11.25C9.77377 11.5 10.2663 12.3098 11.0098 12.9697C11.9542 13.8095 12.7583 14.0801 13.0098 14.2002C13.2609 14.3301 13.4121 14.3104 13.5527 14.1406C13.6934 13.9806 14.1661 13.4199 14.3369 13.1699C14.5076 12.9303 14.6684 12.9699 14.8994 13.0498C15.1205 13.1398 16.3459 13.7401 16.5977 13.8604C16.8489 13.9804 17 14.0306 17.0703 14.1406C17.1405 14.2512 17.1405 14.7408 16.9297 15.3203C16.7286 15.9003 15.7334 16.43 15.251 16.5C14.8189 16.56 14.2764 16.5903 13.6836 16.4004C13.3218 16.2904 12.8595 16.1398 12.2666 15.8799C9.7746 14.8101 8.13579 12.3115 8.01465 12.1406L8.0127 12.1377C7.88435 11.9675 7 10.7934 7 9.58008C7.00004 8.36016 7.64316 7.75976 7.86426 7.50977C8.09524 7.26008 8.35653 7.20026 8.52734 7.2002H9.00977Z" fill="#10100F"/>
<path fill-rule="evenodd" clip-rule="evenodd" d="M12 2C17.5228 2 22 6.47715 22 12C22 17.5228 17.5228 22 12 22C10.2228 22 8.55374 21.5365 7.10742 20.7236L2 22L3.33496 16.9951C2.48601 15.5255 2 13.8192 2 12C2 6.47715 6.47715 2 12 2ZM12 3.2002C7.13989 3.2002 3.2002 7.13989 3.2002 12C3.2002 13.6029 3.62766 15.1025 4.37402 16.3945L4.62207 16.8242L3.68359 20.3418L7.2793 19.4434L7.69531 19.6768C8.96685 20.3915 10.4338 20.7998 12 20.7998C16.8601 20.7998 20.7998 16.8601 20.7998 12C20.7998 7.13989 16.8601 3.2002 12 3.2002Z" fill="#10100F"/>
</svg>
