<svg width="24" height="24" viewBox="0 0 24 24" fill="none" xmlns="http://www.w3.org/2000/svg">
<path d="M4.5 15C4.5 16.1046 5.39543 17 6.5 17C7.60457 17 8.5 16.1046 8.5 15V12.5H11C11.5523 12.5 12 12.9477 12 13.5V20C12 20.5523 11.5523 21 11 21H2L1.89746 20.9951C1.39333 20.9438 1 20.5177 1 20V13.5C1 12.9477 1.44772 12.5 2 12.5H4.5V15Z" fill="#10100F"/>
<path d="M15.5 15C15.5 16.1046 16.3954 17 17.5 17C18.6046 17 19.5 16.1046 19.5 15V12.5H22C22.5523 12.5 23 12.9477 23 13.5V20C23 20.5523 22.5523 21 22 21H13V12.5H15.5V15Z" fill="#10100F"/>
<path d="M7.2998 15C7.2998 15.4418 6.94183 15.7998 6.5 15.7998C6.05817 15.7998 5.7002 15.4418 5.7002 15V12.5H7.2998V15Z" fill="#10100F"/>
<path d="M18.2998 15C18.2998 15.4418 17.9418 15.7998 17.5 15.7998C17.0582 15.7998 16.7002 15.4418 16.7002 15V12.5H18.2998V15Z" fill="#10100F"/>
<path d="M10 5.5C10 6.60457 10.8954 7.5 12 7.5C13.1046 7.5 14 6.60457 14 5.5V3H16.5C17.0523 3 17.5 3.44772 17.5 4V10.5C17.5 11.0523 17.0523 11.5 16.5 11.5H7.5L7.39746 11.4951C6.89333 11.4438 6.5 11.0177 6.5 10.5V4C6.5 3.44772 6.94772 3 7.5 3H10V5.5Z" fill="#10100F"/>
<path d="M12.7998 5.5C12.7998 5.94183 12.4418 6.2998 12 6.2998C11.5582 6.2998 11.2002 5.94183 11.2002 5.5V3H12.7998V5.5Z" fill="#10100F"/>
</svg>
