<svg width="24" height="24" viewBox="0 0 24 24" fill="none" xmlns="http://www.w3.org/2000/svg">
<path fill-rule="evenodd" clip-rule="evenodd" d="M21 11C22.1046 11 23 11.8954 23 13V19C23 20.1046 22.1046 21 21 21H3C1.89543 21 1 20.1046 1 19V13C1 11.8954 1.89543 11 3 11H6.5V5C6.5 3.89543 7.39543 3 8.5 3H15.5C16.6046 3 17.5 3.89543 17.5 5V11H21ZM16.2998 11V5C16.2998 4.55817 15.9418 4.2002 15.5 4.2002H14V6C14 7.10457 13.1046 8 12 8C10.8954 8 10 7.10457 10 6V4.2002H8.5C8.05817 4.2002 7.7002 4.55817 7.7002 5V11H16.2998ZM3 12.2002C2.55817 12.2002 2.2002 12.5582 2.2002 13V19C2.2002 19.4418 2.55817 19.7998 3 19.7998H11.4004V12.2002H9.25098V13.7998C9.25098 15.0148 8.26572 15.9999 7.05078 16C5.83575 16 4.85059 15.0148 4.85059 13.7998V12.2002H3ZM12.5996 19.7998H21C21.4418 19.7998 21.7998 19.4418 21.7998 19V13C21.7998 12.5582 21.4418 12.2002 21 12.2002H19.1504V13.7998C19.1504 15.0148 18.1651 15.9999 16.9502 16C15.7352 16 14.75 15.0148 14.75 13.7998V12.2002H12.5996V19.7998ZM6.05078 13.7998C6.05078 14.3521 6.4985 14.7998 7.05078 14.7998C7.60298 14.7997 8.05078 14.352 8.05078 13.7998V12.2002H6.05078V13.7998ZM15.9502 13.7998C15.9502 14.3521 16.3979 14.7998 16.9502 14.7998C17.5024 14.7997 17.9502 14.352 17.9502 13.7998V12.2002H15.9502V13.7998ZM11.2002 6C11.2002 6.44183 11.5582 6.7998 12 6.7998C12.4418 6.7998 12.7998 6.44183 12.7998 6V4.2002H11.2002V6Z" fill="#10100F"/>
</svg>
