<svg width="24" height="24" viewBox="0 0 24 24" fill="none" xmlns="http://www.w3.org/2000/svg">
<path d="M14.0781 11.8408L10.7178 14.0146V9.66699L14.0781 11.8408Z" fill="#10100F"/>
<path fill-rule="evenodd" clip-rule="evenodd" d="M12 1C12.8027 1 13.585 1.08771 14.3389 1.25098C14.5754 1.30217 14.8085 1.36258 15.0391 1.42871C15.3584 1.52034 15.6718 1.62508 15.9785 1.74414C18.9072 2.8805 21.2291 5.23238 22.3203 8.18555C22.3754 8.33461 22.4258 8.48567 22.4746 8.6377C22.7167 9.39318 22.8797 10.1838 22.9531 11.001C22.9828 11.3301 23 11.6632 23 12C23 18.0751 18.0751 23 12 23C5.92487 23 1 18.0751 1 12C1 11.6632 1.01724 11.3301 1.04688 11.001C1.55049 5.38834 6.2539 1 12 1ZM11.9336 7.64355C9.68816 7.64357 7.46387 7.76365 7.44531 7.76465C6.54425 7.86363 6.32471 8.37057 6.09375 9.19531C6.09375 9.19531 5.8623 10.5264 5.8623 11.8574C5.86235 13.2323 6.09375 14.6182 6.09375 14.6182C6.26898 15.4211 6.64334 15.9489 7.44629 16.0479C7.47642 16.0497 9.94638 16.2031 12.2969 16.2031C14.4427 16.2031 16.499 16.0479 16.499 16.0479C17.2917 15.8939 17.5766 15.4768 17.8076 14.6182C17.8076 14.6182 18.039 13.3421 18.0391 12.0332C18.0391 10.637 17.8076 9.19531 17.8076 9.19531C17.5555 8.33765 17.3576 7.86363 16.499 7.76465C16.499 7.76465 14.2114 7.64355 11.9336 7.64355Z" fill="#10100F"/>
</svg>
