<svg width="24" height="24" viewBox="0 0 24 24" fill="none" xmlns="http://www.w3.org/2000/svg">
<path fill-rule="evenodd" clip-rule="evenodd" d="M10.8779 1.0127C15.8419 1.2642 19.789 5.36812 19.7891 10.3945C19.7891 12.7733 18.9037 14.9444 17.4463 16.5996L17.4502 16.6025L22.4238 21.5762C22.6581 21.8105 22.6581 22.1895 22.4238 22.4238C22.1895 22.6581 21.8105 22.6581 21.5762 22.4238L16.5986 17.4473C15.0565 18.8051 13.0666 19.6665 10.8779 19.7773C10.7179 19.7855 10.5566 19.7891 10.3945 19.7891C10.2324 19.7891 10.0712 19.7855 9.91113 19.7773C4.94731 19.5257 1.00001 15.4209 1 10.3945C1.00011 5.36826 4.94739 1.2644 9.91113 1.0127C10.0712 1.00458 10.2324 1 10.3945 1C10.5566 1 10.7179 1.00459 10.8779 1.0127ZM10.3945 6.47852C10.0633 6.47866 9.79492 6.74782 9.79492 7.0791V9.79492H7.0791C6.7478 9.79492 6.4796 10.0633 6.47949 10.3945C6.4795 10.7259 6.74774 10.9951 7.0791 10.9951H9.79492V13.7109C9.79517 14.042 10.0634 14.3104 10.3945 14.3105C10.7257 14.3105 10.9949 14.0421 10.9951 13.7109V10.9951H13.7109C14.0421 10.9949 14.3105 10.7258 14.3105 10.3945C14.3104 10.0634 14.0421 9.79511 13.7109 9.79492H10.9951V7.0791C10.9951 6.74773 10.7259 6.47852 10.3945 6.47852Z" fill="#10100F"/>
</svg>
