<svg width="24" height="24" viewBox="0 0 24 24" fill="none" xmlns="http://www.w3.org/2000/svg">
<path d="M13.7109 9.79492C14.042 9.79518 14.3104 10.0634 14.3105 10.3945C14.3105 10.7257 14.0421 10.9949 13.7109 10.9951H7.0791C6.74773 10.9951 6.47852 10.7259 6.47852 10.3945C6.47863 10.0633 6.7478 9.79492 7.0791 9.79492H13.7109Z" fill="#10100F"/>
<path fill-rule="evenodd" clip-rule="evenodd" d="M10.3945 1C15.583 1 19.789 5.20605 19.7891 10.3945C19.7891 12.7731 18.9035 14.9436 17.4463 16.5986L22.4238 21.5762C22.6581 21.8105 22.6581 22.1895 22.4238 22.4238C22.1895 22.6581 21.8105 22.6581 21.5762 22.4238L16.5986 17.4463C14.9436 18.9035 12.7731 19.7891 10.3945 19.7891C5.20605 19.789 1 15.583 1 10.3945C1.00011 5.20612 5.20612 1.00011 10.3945 1ZM10.3945 2.2002C5.86886 2.20031 2.20031 5.86886 2.2002 10.3945C2.2002 14.9203 5.8688 18.5897 10.3945 18.5898C14.9204 18.5898 18.5898 14.9204 18.5898 10.3945C18.5897 5.8688 14.9203 2.2002 10.3945 2.2002Z" fill="#10100F"/>
</svg>
