<svg width="24" height="24" viewBox="0 0 24 24" fill="none" xmlns="http://www.w3.org/2000/svg">
<path fill-rule="evenodd" clip-rule="evenodd" d="M10.8779 1.0127C15.8419 1.26419 19.789 5.36812 19.7891 10.3945C19.7891 12.7733 18.9037 14.9444 17.4463 16.5996L17.4502 16.6025L22.4238 21.5762C22.6581 21.8105 22.6581 22.1895 22.4238 22.4238C22.1895 22.6581 21.8105 22.6581 21.5762 22.4238L16.6025 17.4502L16.5996 17.4463C15.0573 18.8046 13.0671 19.6664 10.8779 19.7773C10.7179 19.7855 10.5566 19.7891 10.3945 19.7891C10.2324 19.7891 10.0712 19.7855 9.91113 19.7773C4.9473 19.5257 1 15.4209 1 10.3945C1.00011 5.36826 4.94739 1.2644 9.91113 1.0127C10.0712 1.00458 10.2324 1 10.3945 1C10.5566 1 10.7179 1.00459 10.8779 1.0127ZM7.0791 9.79492C6.7478 9.79492 6.4796 10.0633 6.47949 10.3945C6.47949 10.7259 6.74773 10.9951 7.0791 10.9951H13.7109C14.0421 10.9949 14.3105 10.7258 14.3105 10.3945C14.3104 10.0634 14.0421 9.79511 13.7109 9.79492H7.0791Z" fill="#10100F"/>
</svg>
