<svg width="24" height="24" viewBox="0 0 24 24" fill="none" xmlns="http://www.w3.org/2000/svg">
<path d="M10.3945 6.47949C10.7257 6.47961 10.9939 6.74799 10.9941 7.0791V9.79492H13.71C14.0413 9.79492 14.3105 10.0641 14.3105 10.3955C14.3102 10.7266 14.0411 10.9951 13.71 10.9951H10.9941V13.7109C10.9939 14.042 10.7256 14.3114 10.3945 14.3115C10.0635 14.3113 9.79421 14.042 9.79395 13.7109V10.9951H7.07812C6.74734 10.9947 6.4789 10.7263 6.47852 10.3955C6.47852 10.0644 6.7471 9.79533 7.07812 9.79492H9.79395V7.0791C9.79417 6.74804 10.0635 6.47969 10.3945 6.47949Z" fill="#10100F"/>
<path fill-rule="evenodd" clip-rule="evenodd" d="M10.3945 1C15.583 1 19.789 5.20605 19.7891 10.3945C19.7891 12.7731 18.9035 14.9436 17.4463 16.5986L22.4238 21.5762C22.6581 21.8105 22.6581 22.1895 22.4238 22.4238C22.1895 22.6581 21.8105 22.6581 21.5762 22.4238L16.6016 17.4502L16.5986 17.4463C14.9436 18.9035 12.7731 19.7891 10.3945 19.7891C5.20605 19.789 1 15.583 1 10.3945C1.00011 5.20612 5.20612 1.00011 10.3945 1ZM10.3945 2.2002C5.86886 2.20031 2.20031 5.86886 2.2002 10.3945C2.2002 14.9203 5.8688 18.5897 10.3945 18.5898C14.9204 18.5898 18.5898 14.9204 18.5898 10.3945C18.5897 5.8688 14.9203 2.2002 10.3945 2.2002Z" fill="#10100F"/>
</svg>
